<svg width="24" height="24" viewBox="0 0 24 24" fill="none" xmlns="http://www.w3.org/2000/svg">
<path d="M10 10V9C10 8.4 10.4 8 11 8H21C21.6 8 22 8.4 22 9V10C22 10.6 21.6 11 21 11H11C10.4 11 10 10.6 10 10ZM3 6H21C21.6 6 22 5.6 22 5V4C22 3.4 21.6 3 21 3H3C2.4 3 2 3.4 2 4V5C2 5.6 2.4 6 3 6Z" fill="currentColor"/>
<path opacity="0.3" d="M2 15V14C2 13.4 2.4 13 3 13H21C21.6 13 22 13.4 22 14V15C22 15.6 21.6 16 21 16H3C2.4 16 2 15.6 2 15ZM11 21H21C21.6 21 22 20.6 22 20V19C22 18.4 21.6 18 21 18H11C10.4 18 10 18.4 10 19V20C10 20.6 10.4 21 11 21Z" fill="currentColor"/>
</svg>
