<svg width="24" height="24" viewBox="0 0 24 24" fill="none" xmlns="http://www.w3.org/2000/svg">
<path d="M17 11H7C6.4 11 6 10.6 6 10V9C6 8.4 6.4 8 7 8H17C17.6 8 18 8.4 18 9V10C18 10.6 17.6 11 17 11ZM22 5V4C22 3.4 21.6 3 21 3H3C2.4 3 2 3.4 2 4V5C2 5.6 2.4 6 3 6H21C21.6 6 22 5.6 22 5Z" fill="currentColor"/>
<path opacity="0.3" d="M21 16H3C2.4 16 2 15.6 2 15V14C2 13.4 2.4 13 3 13H21C21.6 13 22 13.4 22 14V15C22 15.6 21.6 16 21 16ZM18 20V19C18 18.4 17.6 18 17 18H7C6.4 18 6 18.4 6 19V20C6 20.6 6.4 21 7 21H17C17.6 21 18 20.6 18 20Z" fill="currentColor"/>
</svg>
