<svg width="24" height="24" viewBox="0 0 24 24" fill="none" xmlns="http://www.w3.org/2000/svg">
<path opacity="0.3" d="M17 10H11C10.4 10 10 9.6 10 9V8C10 7.4 10.4 7 11 7H17C17.6 7 18 7.4 18 8V9C18 9.6 17.6 10 17 10ZM22 4V3C22 2.4 21.6 2 21 2H11C10.4 2 10 2.4 10 3V4C10 4.6 10.4 5 11 5H21C21.6 5 22 4.6 22 4ZM22 15V14C22 13.4 21.6 13 21 13H11C10.4 13 10 13.4 10 14V15C10 15.6 10.4 16 11 16H21C21.6 16 22 15.6 22 15ZM18 20V19C18 18.4 17.6 18 17 18H11C10.4 18 10 18.4 10 19V20C10 20.6 10.4 21 11 21H17C17.6 21 18 20.6 18 20Z" fill="currentColor"/>
<path d="M8 5C8 6.7 6.7 8 5 8C3.3 8 2 6.7 2 5C2 3.3 3.3 2 5 2C6.7 2 8 3.3 8 5ZM5 4C4.4 4 4 4.4 4 5C4 5.6 4.4 6 5 6C5.6 6 6 5.6 6 5C6 4.4 5.6 4 5 4ZM8 16C8 17.7 6.7 19 5 19C3.3 19 2 17.7 2 16C2 14.3 3.3 13 5 13C6.7 13 8 14.3 8 16ZM5 15C4.4 15 4 15.4 4 16C4 16.6 4.4 17 5 17C5.6 17 6 16.6 6 16C6 15.4 5.6 15 5 15Z" fill="currentColor"/>
</svg>
