<svg width="24" height="24" viewBox="0 0 24 24" fill="none" xmlns="http://www.w3.org/2000/svg">
<path d="M6.89999 21.9C5.89999 21.9 5.1 21.6 4.7 21.1C4.2 20.6 4 19.9 4 18.9V4.90002C4 3.90002 4.2 3.10007 4.7 2.70007C5.2 2.30007 5.89999 2 6.89999 2H13C13.9 2 14.7 2.10007 15.4 2.20007C16.1 2.30007 16.8 2.60002 17.4 2.90002C17.9 3.20002 18.3 3.6 18.7 4C19.1 4.5 19.4 5 19.6 5.5C19.8 6.1 19.9 6.70005 19.9 7.30005C19.9 9.00005 19.2 10.3 17.9 11.3C19.8 12.3 20.8 13.9 20.8 16C20.8 17.2 20.5 18.2001 19.9 19.2001C19.3 20.1001 18.5 20.9 17.4 21.3C16.8 21.6 16.1 21.7 15.3 21.9C14.5 22 13.6 22.1 12.6 22.1H6.89999V21.9ZM12.5 17.7001C15.3 17.7001 15.7 16.6 15.7 15.6C15.7 14.7 15.3 14.3 15 14.1C14.4 13.7 13.6 13.6 12.4 13.6H9.09999V17.7001H12.5ZM11.9 9.59998C12.8 9.59998 13.4 9.50002 13.9 9.40002C14.3 9.30002 14.5 9.00007 14.7 8.70007C14.9 8.40007 14.9 8.10005 14.9 7.80005C14.9 6.90005 14.5 6.6 14.3 6.5C13.7 6.2 12.8 6.09998 11.5 6.09998H9.09999V9.59998H11.9Z" fill="currentColor"/>
</svg>
