<svg width="24" height="24" viewBox="0 0 24 24" fill="none" xmlns="http://www.w3.org/2000/svg">
<path opacity="0.3" d="M2.07664 11.85L2.87663 10.05C3.07663 9.55003 3.67665 9.35003 4.17665 9.55003L5.07664 9.95002C7.17664 10.85 9.17662 10.85 11.2766 9.95002C14.3766 8.55002 17.4766 8.55002 20.5766 9.95002L21.4766 10.35C21.9766 10.55 22.1766 11.15 21.9766 11.65L21.1766 13.45C20.9766 13.95 20.3766 14.15 19.8766 13.95L18.9766 13.55C16.8766 12.65 14.8766 12.65 12.7766 13.55C9.67662 14.95 6.57663 14.95 3.47663 13.55L2.57664 13.15C2.07664 12.95 1.87664 12.35 2.07664 11.85ZM2.57664 20.05L3.47663 20.45C6.57663 21.85 9.67662 21.85 12.7766 20.45C14.8766 19.55 16.8766 19.55 18.9766 20.45L19.8766 20.85C20.3766 21.05 20.9766 20.85 21.1766 20.35L21.9766 18.55C22.1766 18.05 21.9766 17.45 21.4766 17.25L20.5766 16.85C17.4766 15.45 14.3766 15.45 11.2766 16.85C9.17662 17.75 7.17664 17.75 5.07664 16.85L4.17665 16.45C3.67665 16.25 3.07663 16.45 2.87663 16.95L2.07664 18.75C1.87664 19.25 2.07664 19.85 2.57664 20.05Z" fill="currentColor"/>
<path d="M2.07664 4.94999L2.87663 3.15C3.07663 2.65 3.67665 2.45 4.17665 2.65L5.07664 3.05C7.17664 3.95 9.17662 3.95 11.2766 3.05C14.3766 1.65 17.4766 1.65 20.5766 3.05L21.4766 3.44999C21.9766 3.64999 22.1766 4.25 21.9766 4.75L21.1766 6.55C20.9766 7.05 20.3766 7.25 19.8766 7.05L18.9766 6.65C16.8766 5.75 14.8766 5.75 12.7766 6.65C9.67662 8.05 6.57663 8.05 3.47663 6.65L2.57664 6.25C2.07664 6.05 1.87664 5.44999 2.07664 4.94999Z" fill="currentColor"/>
</svg>
