<svg width="24" height="24" viewBox="0 0 24 24" fill="none" xmlns="http://www.w3.org/2000/svg">
<path d="M22 12C22 17.5 17.5 22 12 22C6.5 22 2 17.5 2 12C2 6.5 6.5 2 12 2C17.5 2 22 6.5 22 12ZM14.5 4.5C10.4 4.5 7 7.9 7 12C7 16.1 10.4 19.5 14.5 19.5C18.6 19.5 22 16.1 22 12C22 7.9 18.6 4.5 14.5 4.5Z" fill="currentColor"/>
<path opacity="0.3" d="M22 12C22 16.1 18.6 19.5 14.5 19.5C10.4 19.5 7 16.1 7 12C7 7.9 10.4 4.5 14.5 4.5C18.6 4.5 22 7.9 22 12ZM12 7C9.2 7 7 9.2 7 12C7 14.8 9.2 17 12 17C14.8 17 17 14.8 17 12C17 9.2 14.8 7 12 7Z" fill="currentColor"/>
</svg>
