<svg width="24" height="24" viewBox="0 0 24 24" fill="none" xmlns="http://www.w3.org/2000/svg">
<path d="M10.6 10.7C13.3 8 16.9 6.3 20.9 6C21.5 6 21.9 5.5 21.9 4.9V3C21.9 2.4 21.4 2 20.9 2C15.8 2.3 11.2 4.4 7.79999 7.8C4.39999 11.2 2.2 15.8 2 20.9C2 21.5 2.4 21.9 3 21.9H4.89999C5.49999 21.9 6 21.5 6 20.9C6.2 17 7.90001 13.4 10.6 10.7Z" fill="currentColor"/>
<path opacity="0.3" d="M14.8 14.9C16.4 13.3 18.5 12.2 20.9 12C21.5 11.9 21.9 11.5 21.9 10.9V9C21.9 8.4 21.4 8 20.8 8C17.4 8.3 14.3 9.8 12 12.1C9.7 14.4 8.19999 17.5 7.89999 20.9C7.89999 21.5 8.29999 22 8.89999 22H10.8C11.4 22 11.8 21.6 11.9 21C12.2 18.6 13.2 16.5 14.8 14.9ZM16.2 16.3C17.4 15.1 19 14.3 20.7 14C21.3 13.9 21.8 14.4 21.8 15V17C21.8 17.5 21.4 18 20.9 18.1C20.1 18.3 19.5 18.6 19 19.2C18.5 19.8 18.1 20.4 17.9 21.1C17.8 21.6 17.4 22 16.8 22H14.8C14.2 22 13.7 21.5 13.8 20.9C14.2 19.1 15 17.5 16.2 16.3Z" fill="currentColor"/>
</svg>
