<svg width="24" height="24" viewBox="0 0 24 24" fill="none" xmlns="http://www.w3.org/2000/svg">
<path d="M22 12C22 12.2 22 12.5 22 12.7L19.5 10.2L16.9 12.8C16.9 12.5 17 12.3 17 12C17 9.5 15.2 7.50001 12.8 7.10001L10.2 4.5L12.7 2C17.9 2.4 22 6.7 22 12ZM11.2 16.9C8.80001 16.5 7 14.5 7 12C7 11.7 7.00001 11.5 7.10001 11.2L4.5 13.8L2 11.3C2 11.5 2 11.8 2 12C2 17.3 6.09999 21.6 11.3 22L13.8 19.5L11.2 16.9Z" fill="currentColor"/>
<path opacity="0.3" d="M22 12.7C21.6 17.9 17.3 22 12 22C11.8 22 11.5 22 11.3 22L13.8 19.5L11.2 16.9C11.5 16.9 11.7 17 12 17C14.5 17 16.5 15.2 16.9 12.8L19.5 10.2L22 12.7ZM10.2 4.5L12.7 2C12.5 2 12.2 2 12 2C6.7 2 2.4 6.1 2 11.3L4.5 13.8L7.10001 11.2C7.50001 8.8 9.5 7 12 7C12.3 7 12.5 7.00001 12.8 7.10001L10.2 4.5Z" fill="currentColor"/>
</svg>
