<svg width="24" height="24" viewBox="0 0 24 24" fill="none" xmlns="http://www.w3.org/2000/svg">
<path opacity="0.3" d="M9.10001 7.00005L6.2 12H2C2 8.30005 4 5.10005 7 3.30005L9.10001 7.00005ZM17 3.30005L14.9 7.00005L17.8 12H22C22 8.30005 20 5.10005 17 3.30005ZM14.9 17H9.10001L7 20.7C8.5 21.6 10.2 22 12 22C13.8 22 15.5 21.5 17 20.7L14.9 17Z" fill="currentColor"/>
<path d="M17 3.3L14.9 7H9.10001L7 3.3C8.5 2.5 10.2 2 12 2C13.8 2 15.5 2.5 17 3.3ZM17.8 12L14.9 17L17 20.7C20 19 22 15.7 22 12H17.8ZM6.2 12H2C2 15.7 4 18.9 7 20.7L9.10001 17L6.2 12Z" fill="currentColor"/>
</svg>
