<svg width="24" height="24" viewBox="0 0 24 24" fill="none" xmlns="http://www.w3.org/2000/svg">
<path d="M2 11.7127L10 14.1127L22 11.7127L14 9.31274L2 11.7127Z" fill="currentColor"/>
<path opacity="0.3" d="M20.9 7.91274L2 11.7127V6.81275C2 6.11275 2.50001 5.61274 3.10001 5.51274L20.6 2.01274C21.3 1.91274 22 2.41273 22 3.11273V6.61273C22 7.21273 21.5 7.81274 20.9 7.91274ZM22 16.6127V11.7127L3.10001 15.5127C2.50001 15.6127 2 16.2127 2 16.8127V20.3127C2 21.0127 2.69999 21.6128 3.39999 21.4128L20.9 17.9128C21.5 17.8128 22 17.2127 22 16.6127Z" fill="currentColor"/>
</svg>
