<svg width="24" height="24" viewBox="0 0 24 24" fill="none" xmlns="http://www.w3.org/2000/svg">
<path opacity="0.3" d="M2.10001 10C3.00001 5.6 6.69998 2.3 11.2 2L8.79999 4.39999L11.1 7C9.60001 7.3 8.30001 8.19999 7.60001 9.59999L4.5 12.4L2.10001 10ZM19.3 11.5L16.4 14C15.7 15.5 14.4 16.6 12.7 16.9L15 19.5L12.6 21.9C17.1 21.6 20.8 18.2 21.7 13.9L19.3 11.5Z" fill="currentColor"/>
<path d="M13.8 2.09998C18.2 2.99998 21.5 6.69998 21.8 11.2L19.4 8.79997L16.8 11C16.5 9.39998 15.5 8.09998 14 7.39998L11.4 4.39998L13.8 2.09998ZM12.3 19.4L9.69998 16.4C8.29998 15.7 7.3 14.4 7 12.8L4.39999 15.1L2 12.7C2.3 17.2 5.7 20.9 10 21.8L12.3 19.4Z" fill="currentColor"/>
</svg>
