<svg width="24" height="24" viewBox="0 0 24 24" fill="none" xmlns="http://www.w3.org/2000/svg">
<path d="M4.5 7C5.88071 7 7 5.88071 7 4.5C7 3.11929 5.88071 2 4.5 2C3.11929 2 2 3.11929 2 4.5C2 5.88071 3.11929 7 4.5 7Z" fill="currentColor"/>
<path opacity="0.3" d="M14 4.5C14 5.9 12.9 7 11.5 7C10.1 7 9 5.9 9 4.5C9 3.1 10.1 2 11.5 2C12.9 2 14 3.1 14 4.5ZM18.5 2C17.1 2 16 3.1 16 4.5C16 5.9 17.1 7 18.5 7C19.9 7 21 5.9 21 4.5C21 3.1 19.9 2 18.5 2ZM4.5 9C3.1 9 2 10.1 2 11.5C2 12.9 3.1 14 4.5 14C5.9 14 7 12.9 7 11.5C7 10.1 5.9 9 4.5 9ZM11.5 9C10.1 9 9 10.1 9 11.5C9 12.9 10.1 14 11.5 14C12.9 14 14 12.9 14 11.5C14 10.1 12.9 9 11.5 9ZM18.5 9C17.1 9 16 10.1 16 11.5C16 12.9 17.1 14 18.5 14C19.9 14 21 12.9 21 11.5C21 10.1 19.9 9 18.5 9ZM4.5 16C3.1 16 2 17.1 2 18.5C2 19.9 3.1 21 4.5 21C5.9 21 7 19.9 7 18.5C7 17.1 5.9 16 4.5 16ZM11.5 16C10.1 16 9 17.1 9 18.5C9 19.9 10.1 21 11.5 21C12.9 21 14 19.9 14 18.5C14 17.1 12.9 16 11.5 16ZM18.5 16C17.1 16 16 17.1 16 18.5C16 19.9 17.1 21 18.5 21C19.9 21 21 19.9 21 18.5C21 17.1 19.9 16 18.5 16Z" fill="currentColor"/>
</svg>
