<svg width="24" height="24" viewBox="0 0 24 24" fill="none" xmlns="http://www.w3.org/2000/svg">
<path opacity="0.3" d="M8.70001 6C8.10001 5.7 7.39999 5.40001 6.79999 5.10001C7.79999 4.00001 8.90001 3 10.1 2.2C10.7 2.1 11.4 2 12 2C12.7 2 13.3 2.1 13.9 2.2C12 3.2 10.2 4.5 8.70001 6ZM12 8.39999C13.9 6.59999 16.2 5.30001 18.7 4.60001C18.1 4.00001 17.4 3.6 16.7 3.2C14.4 4.1 12.2 5.40001 10.5 7.10001C11 7.50001 11.5 7.89999 12 8.39999Z" fill="currentColor"/>
<path d="M7 20C7 20.2 7 20.4 7 20.6C6.2 20.1 5.49999 19.6 4.89999 19C4.59999 18 4.00001 17.2 3.20001 16.6C2.80001 15.8 2.49999 15 2.29999 14.1C4.99999 14.7 7 17.1 7 20ZM10.6 9.89995C8.70001 8.09995 6.39999 6.89996 3.79999 6.29996C3.39999 6.89996 2.99999 7.49995 2.79999 8.19995C5.39999 8.59995 7.7 9.79996 9.5 11.6C9.8 10.9 10.2 10.3999 10.6 9.89995ZM2.20001 10.1C2.10001 10.7 2 11.4 2 12C2 12 2 12 2 12.1C4.3 12.4 6.40001 13.7 7.60001 15.6C7.80001 14.8 8.09999 14.0999 8.39999 13.3999C6.89999 11.5999 4.70001 10.4 2.20001 10.1ZM11 20C11 14 15.4 8.99996 21.2 8.09996C20.9 7.39996 20.6 6.79995 20.2 6.19995C13.8 7.49995 9 13.0999 9 19.8999C9 20.3999 9.00001 21 9.10001 21.5C9.80001 21.7 10.5 21.7999 11.2 21.8999C11.1 21.2999 11 20.7 11 20ZM19.1 19C19.4 18 20 17.2 20.8 16.6C21.2 15.8 21.5 15 21.7 14.1C19 14.7 16.9 17.1 16.9 20C16.9 20.2 16.9 20.4 16.9 20.6C17.8 20.2 18.5 19.6 19.1 19ZM15 20C15 15.9 18.1 12.6 22 12.1C22 12.1 22 12.1 22 12C22 11.3 21.9 10.7 21.8 10.1C16.8 10.7 13 14.9 13 20C13 20.7 13.1 21.2999 13.2 21.8999C13.9 21.7999 14.5 21.7 15.2 21.5C15.1 21 15 20.5 15 20Z" fill="currentColor"/>
</svg>
