<svg width="24" height="24" viewBox="0 0 24 24" fill="none" xmlns="http://www.w3.org/2000/svg">
<path d="M11.0375 21.6L3.3375 13.9C3.0375 13.6 2.9375 13 3.0375 12.6L3.8375 10.7C4.0375 10.3 4.4375 10 4.9375 10H15.3375L10.4375 5.1C10.0375 4.7 10.0375 4.1 10.4375 3.7L11.8375 2.3C12.2375 1.9 12.8375 1.9 13.2375 2.3L20.9375 10C21.2375 10.3 21.3375 10.9 21.2375 11.3L20.4375 13.2C20.2375 13.6 19.8375 13.9 19.3375 13.9H8.9375L13.8375 18.8C14.2375 19.2 14.2375 19.8 13.8375 20.2L12.4375 21.6C12.0375 22 11.4375 22 11.0375 21.6Z" fill="currentColor"/>
</svg>
