<svg width="819" height="825" viewBox="0 0 819 825" fill="none" xmlns="http://www.w3.org/2000/svg">
<path d="M749.301 300.621H502.141C473.726 300.621 450.691 323.656 450.691 352.071V524.451C450.691 552.866 473.726 575.901 502.141 575.901H749.301C777.716 575.901 800.751 552.866 800.751 524.451V352.071C800.751 323.656 777.716 300.621 749.301 300.621Z" fill="#00C209"/>
<path d="M749.302 577.4H502.152C488.105 577.4 474.631 571.823 464.693 561.895C454.755 551.966 449.166 538.498 449.152 524.45V352.07C449.152 338.014 454.736 324.533 464.676 314.594C474.615 304.654 488.096 299.07 502.152 299.07H749.302C763.358 299.07 776.839 304.654 786.778 314.594C796.718 324.533 802.302 338.014 802.302 352.07V524.45C802.289 538.498 796.699 551.966 786.761 561.895C776.823 571.823 763.35 577.4 749.302 577.4ZM502.152 302.12C488.892 302.12 476.174 307.388 466.797 316.765C457.42 326.142 452.152 338.86 452.152 352.12V524.5C452.166 537.752 457.439 550.457 466.814 559.823C476.19 569.189 488.9 574.45 502.152 574.45H749.302C762.554 574.45 775.264 569.189 784.64 559.823C794.015 550.457 799.289 537.752 799.302 524.5V352.07C799.302 338.809 794.034 326.092 784.657 316.715C775.28 307.338 762.563 302.07 749.302 302.07L502.152 302.12Z" fill="#43437A"/>
<path d="M699.192 366.399C699.192 366.399 680.422 378.979 671.192 397.189C659.192 420.849 677.062 448.699 703.582 447.469H726.931C748.471 447.469 764.121 426.669 757.771 406.079C754.221 394.579 744.772 383.459 729.502 368.349C729.502 368.349 742.222 356.749 742.712 342.289C742.712 342.289 730.241 334.779 721.261 340.399C712.281 346.019 688.481 330.939 685.261 335.709C685.211 335.719 706.002 353.699 699.192 366.399Z" fill="#9FC5E0"/>
<path d="M687.693 334.77C693.503 334.77 706.922 341.68 715.882 341.68C717.749 341.761 719.602 341.322 721.233 340.41C723.575 338.989 726.273 338.264 729.012 338.32C736.072 338.32 742.682 342.32 742.682 342.32C742.192 356.78 729.472 368.38 729.472 368.38C744.742 383.49 754.192 394.61 757.742 406.11C764.082 426.69 748.443 447.5 726.903 447.5H703.552C702.982 447.5 702.423 447.5 701.863 447.5C676.293 447.5 659.382 420.33 671.162 397.18C680.422 378.97 699.162 366.39 699.162 366.39C705.992 353.69 685.162 335.71 685.162 335.71C685.464 335.358 685.848 335.087 686.281 334.921C686.714 334.755 687.182 334.7 687.642 334.76L687.693 334.77ZM687.642 331.76C684.812 331.76 683.382 332.99 682.642 334.02C682.216 334.632 682.033 335.381 682.129 336.12C682.225 336.86 682.594 337.537 683.162 338.02C688.322 342.48 700.542 355.73 696.752 364.41C693.192 366.92 677.012 378.93 668.392 395.86C665.473 401.583 664.071 407.959 664.317 414.378C664.562 420.798 666.449 427.048 669.796 432.531C673.144 438.015 677.84 442.549 683.438 445.702C689.035 448.854 695.347 450.52 701.772 450.54C702.352 450.54 702.942 450.54 703.522 450.54H726.812C732.344 450.564 737.804 449.275 742.742 446.781C747.681 444.287 751.958 440.657 755.222 436.19C758.488 431.822 760.671 426.742 761.591 421.367C762.511 415.991 762.14 410.474 760.512 405.27C756.902 393.56 747.513 382.35 733.613 368.39C737.503 364.14 745.193 354.29 745.613 342.46C745.63 341.926 745.505 341.397 745.25 340.928C744.995 340.458 744.62 340.065 744.162 339.79C743.862 339.61 736.743 335.38 728.943 335.38C725.642 335.321 722.392 336.202 719.572 337.92C718.417 338.53 717.116 338.813 715.812 338.74C711.332 338.74 705.212 336.74 699.812 334.88C694.922 333.24 690.702 331.83 687.622 331.83L687.642 331.76Z" fill="#43437A"/>
<path d="M715.821 370.33C715.588 370.33 715.358 370.276 715.15 370.172C714.942 370.068 714.76 369.917 714.621 369.73C714.481 369.544 714.386 369.328 714.344 369.099C714.303 368.87 714.315 368.634 714.38 368.41C716.69 360.41 707.38 351.88 707.27 351.8C706.999 351.529 706.843 351.164 706.833 350.781C706.822 350.397 706.959 350.024 707.215 349.739C707.471 349.453 707.827 349.277 708.21 349.245C708.592 349.214 708.971 349.33 709.27 349.57C709.71 349.97 720.08 359.51 717.27 369.24C717.181 369.555 716.991 369.833 716.729 370.029C716.467 370.226 716.148 370.332 715.821 370.33Z" fill="#43437A"/>
<path d="M721.532 370.511C721.158 370.503 720.8 370.353 720.532 370.091C720.251 369.81 720.094 369.429 720.094 369.031C720.094 368.634 720.251 368.252 720.532 367.971C725.002 363.321 723.862 352.661 723.852 352.551C723.83 352.354 723.848 352.155 723.903 351.964C723.959 351.774 724.051 351.597 724.175 351.442C724.299 351.287 724.451 351.159 724.625 351.063C724.799 350.968 724.99 350.908 725.187 350.886C725.384 350.864 725.583 350.882 725.773 350.937C725.964 350.992 726.141 351.085 726.296 351.209C726.451 351.333 726.579 351.486 726.675 351.659C726.77 351.833 726.83 352.024 726.852 352.221C726.902 352.711 728.162 364.381 722.722 370.051C722.57 370.211 722.385 370.335 722.179 370.415C721.973 370.494 721.752 370.527 721.532 370.511Z" fill="#43437A"/>
<path d="M726.402 395.929C723.764 396.018 721.267 397.147 719.458 399.069C717.648 400.991 716.672 403.55 716.742 406.189V406.529C716.605 403.926 715.456 401.48 713.542 399.711C711.627 397.942 709.098 396.991 706.492 397.059C700.992 397.219 696.212 401.849 696.832 407.319C697.982 417.409 710.632 426.139 715.532 429.169C716.094 429.517 716.75 429.68 717.41 429.637C718.069 429.594 718.699 429.347 719.212 428.929C723.982 425.029 736.912 413.719 736.662 405.599C736.575 402.959 735.448 400.46 733.526 398.649C731.604 396.837 729.043 395.859 726.402 395.929Z" fill="#009BD9"/>
<path d="M717.192 431.149C716.329 431.15 715.483 430.907 714.751 430.449C709.311 427.099 696.551 418.139 695.341 407.449C695.187 406.037 695.331 404.607 695.763 403.253C696.195 401.9 696.907 400.652 697.851 399.59C698.926 398.355 700.246 397.355 701.726 396.655C703.206 395.955 704.815 395.568 706.452 395.52C706.323 397.011 706.747 398.499 707.641 399.7C708.535 400.901 709.839 401.732 711.305 402.036C712.771 402.34 714.299 402.097 715.597 401.351C716.896 400.605 717.875 399.409 718.351 397.989C719.381 396.892 720.619 396.008 721.992 395.391C723.365 394.773 724.846 394.432 726.351 394.389C729.389 394.303 732.338 395.426 734.55 397.51C736.762 399.595 738.058 402.471 738.152 405.51C738.412 414.18 725.652 425.51 720.152 430.05C719.321 430.747 718.276 431.135 717.192 431.149ZM706.791 398.55H706.541C705.324 398.589 704.127 398.875 703.024 399.391C701.92 399.907 700.933 400.641 700.121 401.55C699.452 402.301 698.946 403.183 698.636 404.14C698.326 405.097 698.219 406.109 698.322 407.11C699.412 416.72 712.382 425.42 716.322 427.86C716.619 428.04 716.965 428.125 717.312 428.102C717.659 428.078 717.99 427.948 718.261 427.729C722.261 424.439 735.392 413.15 735.162 405.6C735.094 403.356 734.138 401.232 732.505 399.693C730.872 398.153 728.695 397.325 726.452 397.389C724.207 397.457 722.08 398.414 720.54 400.05C719.001 401.685 718.174 403.865 718.242 406.11V406.449L715.242 406.56C715.117 404.4 714.173 402.369 712.603 400.881C711.033 399.392 708.955 398.559 706.791 398.55Z" fill="#43437A"/>
<path d="M721.123 371.941C710.243 371.941 697.013 367.581 696.273 367.341C695.895 367.215 695.583 366.944 695.404 366.588C695.226 366.231 695.197 365.819 695.323 365.441C695.449 365.063 695.72 364.751 696.076 364.573C696.433 364.395 696.845 364.365 697.223 364.491C697.453 364.571 720.223 372.051 729.293 367.491C729.65 367.313 730.063 367.285 730.441 367.411C730.818 367.538 731.13 367.809 731.308 368.166C731.485 368.523 731.514 368.936 731.388 369.313C731.261 369.691 730.99 370.003 730.633 370.181C727.634 371.472 724.385 372.073 721.123 371.941Z" fill="#43437A"/>
<path d="M697.801 480.05C697.403 480.05 697.022 479.892 696.74 479.611C696.459 479.329 696.301 478.948 696.301 478.55C696.301 478.152 696.459 477.771 696.74 477.489C697.022 477.208 697.403 477.05 697.801 477.05L768.241 475.77C768.439 475.765 768.634 475.799 768.818 475.87C769.002 475.941 769.171 476.048 769.313 476.185C769.456 476.322 769.57 476.485 769.648 476.667C769.727 476.848 769.768 477.043 769.771 477.24C769.776 477.637 769.625 478.02 769.35 478.307C769.074 478.593 768.698 478.76 768.301 478.77L697.861 480.04L697.801 480.05Z" fill="#43437A"/>
<path d="M768.241 521H710.801C710.403 521 710.022 520.842 709.74 520.561C709.459 520.279 709.301 519.898 709.301 519.5C709.301 519.102 709.459 518.721 709.74 518.439C710.022 518.158 710.403 518 710.801 518H768.241C768.639 518 769.02 518.158 769.302 518.439C769.583 518.721 769.741 519.102 769.741 519.5C769.741 519.898 769.583 520.279 769.302 520.561C769.02 520.842 768.639 521 768.241 521Z" fill="#43437A"/>
<path d="M817 492.871C816.602 492.871 816.221 492.712 815.939 492.431C815.658 492.15 815.5 491.768 815.5 491.371V359.15C815.5 358.753 815.658 358.371 815.939 358.09C816.221 357.809 816.602 357.65 817 357.65C817.398 357.65 817.779 357.809 818.061 358.09C818.342 358.371 818.5 358.753 818.5 359.15V491.371C818.5 491.768 818.342 492.15 818.061 492.431C817.779 492.712 817.398 492.871 817 492.871Z" fill="#43437A"/>
<path d="M746.562 312.881H626.262C625.599 312.881 624.963 312.618 624.494 312.149C624.025 311.68 623.762 311.044 623.762 310.381C623.762 309.718 624.025 309.082 624.494 308.613C624.963 308.144 625.599 307.881 626.262 307.881H746.562C747.225 307.881 747.861 308.144 748.33 308.613C748.799 309.082 749.062 309.718 749.062 310.381C749.062 311.044 748.799 311.68 748.33 312.149C747.861 312.618 747.225 312.881 746.562 312.881Z" fill="#9FC5E0"/>
<path d="M195.179 451.269L143.079 307.269C140.283 299.539 139.099 291.317 139.601 283.112C140.103 274.906 142.281 266.891 145.999 259.559C153.038 245.677 165.181 235.06 179.879 229.939L338.249 174.779C339.421 174.364 340.663 174.187 341.903 174.257C343.144 174.327 344.359 174.644 345.476 175.189C346.593 175.733 347.59 176.495 348.409 177.429C349.229 178.363 349.854 179.451 350.249 180.629L450.959 478.719C451.472 480.233 451.589 481.853 451.298 483.425C451.007 484.997 450.318 486.468 449.297 487.698C448.276 488.929 446.958 489.877 445.467 490.453C443.976 491.029 442.362 491.214 440.779 490.989L202.719 457.329C201.03 457.1 199.435 456.415 198.107 455.347C196.778 454.279 195.766 452.87 195.179 451.269Z" fill="#9FC5E0"/>
<path d="M341.33 174.29C343.289 174.29 345.199 174.904 346.79 176.047C348.381 177.19 349.574 178.803 350.2 180.66L450.91 478.75C451.385 480.156 451.519 481.654 451.302 483.122C451.084 484.59 450.521 485.986 449.659 487.194C448.797 488.402 447.661 489.388 446.343 490.07C445.025 490.753 443.564 491.112 442.08 491.12C441.628 491.12 441.177 491.087 440.731 491.02L202.67 457.35C200.986 457.114 199.399 456.423 198.079 455.352C196.759 454.28 195.757 452.869 195.18 451.27L143.08 307.27C140.37 299.779 139.173 291.825 139.56 283.869C139.946 275.913 141.907 268.112 145.33 260.919C148.753 253.726 153.569 247.284 159.5 241.967C165.431 236.649 172.358 232.561 179.88 229.94L338.25 174.78C339.241 174.438 340.282 174.262 341.33 174.26V174.29ZM341.33 171.26C339.948 171.259 338.574 171.492 337.27 171.95L178.9 227.11C171.003 229.86 163.728 234.15 157.501 239.732C151.274 245.314 146.216 252.077 142.622 259.628C139.028 267.179 136.968 275.369 136.563 283.722C136.157 292.075 137.414 300.426 140.26 308.29L192.36 452.29C193.129 454.394 194.455 456.251 196.197 457.66C197.939 459.069 200.031 459.978 202.25 460.29L440.31 494C440.896 494.088 441.488 494.131 442.08 494.13C444.037 494.122 445.965 493.649 447.703 492.75C449.442 491.852 450.942 490.552 452.08 488.96C453.234 487.37 453.987 485.526 454.276 483.583C454.565 481.64 454.382 479.656 453.74 477.8L353.04 179.71C352.213 177.257 350.637 175.127 348.534 173.618C346.432 172.109 343.908 171.298 341.32 171.3L341.33 171.26Z" fill="#43437A"/>
<path d="M141.771 258.72C138.053 266.052 135.878 274.068 135.377 282.274C134.877 290.479 136.063 298.7 138.862 306.43L146.032 326.25C149.922 308.6 178.881 303.82 178.881 303.82C151.391 269.15 163.501 241.5 169.641 231.58C157.604 237.294 147.803 246.839 141.771 258.72Z" fill="#009BD9"/>
<path d="M162.5 239.22C157.23 252.75 154.33 275.22 173.66 301.89C166.42 303.76 152.84 308.41 146.3 318.18L141.68 305.41C137.41 293.621 137.135 280.755 140.897 268.794C144.66 256.834 152.25 246.442 162.5 239.22ZM169.64 231.58C156.119 237.993 145.474 249.215 139.782 263.056C134.091 276.896 133.762 292.36 138.86 306.43L146.03 326.25C149.92 308.6 178.88 303.82 178.88 303.82C151.39 269.15 163.5 241.5 169.64 231.58Z" fill="#43437A"/>
<path d="M139.107 644L34.1973 532.49C28.566 526.502 24.2198 519.425 21.4268 511.695C18.6338 503.964 17.4531 495.744 17.9571 487.54C18.9162 472.001 25.859 457.438 37.3272 446.909L160.847 333.479C161.758 332.644 162.827 331.997 163.99 331.575C165.153 331.154 166.388 330.968 167.623 331.026C168.859 331.085 170.071 331.387 171.189 331.917C172.307 332.446 173.308 333.191 174.137 334.11L384.777 567.85C385.848 569.036 386.597 570.477 386.953 572.035C387.309 573.593 387.261 575.217 386.812 576.751C386.362 578.285 385.528 579.679 384.388 580.799C383.247 581.919 381.839 582.728 380.297 583.149L148.398 646.62C146.757 647.068 145.025 647.061 143.389 646.6C141.752 646.138 140.272 645.239 139.107 644Z" fill="#9FC5E0"/>
<path d="M167.179 331C168.498 330.991 169.803 331.262 171.01 331.795C172.216 332.327 173.296 333.11 174.179 334.09L384.819 567.83C385.89 569.016 386.639 570.457 386.995 572.016C387.351 573.574 387.303 575.197 386.854 576.731C386.404 578.265 385.57 579.659 384.43 580.779C383.289 581.899 381.881 582.708 380.339 583.129L148.44 646.6C147.636 646.827 146.804 646.941 145.969 646.939C144.691 646.938 143.428 646.676 142.255 646.168C141.082 645.661 140.025 644.92 139.149 643.99L34.1993 532.49C28.7397 526.689 24.4855 519.861 21.6847 512.403C18.8839 504.946 17.5917 497.007 17.8829 489.046C18.1741 481.085 20.0428 473.261 23.3809 466.028C26.719 458.795 31.4604 452.296 37.3292 446.909L160.849 333.48C162.575 331.894 164.835 331.016 167.179 331.02V331ZM167.179 328.02C164.083 328.016 161.1 329.176 158.819 331.27L35.2989 444.699C29.1397 450.357 24.165 457.18 20.6622 464.774C17.1594 472.368 15.1987 480.582 14.8936 488.939C14.5885 497.297 15.9451 505.632 18.8848 513.461C21.8246 521.29 26.2883 528.458 32.0186 534.549L136.929 646.06C138.084 647.288 139.479 648.268 141.026 648.939C142.574 649.61 144.242 649.957 145.929 649.959C147.033 649.958 148.133 649.81 149.199 649.52L381.089 586.049C383.125 585.491 384.984 584.422 386.489 582.942C387.995 581.463 389.097 579.623 389.691 577.597C390.284 575.571 390.348 573.427 389.879 571.369C389.41 569.311 388.422 567.408 387.009 565.839L176.369 332.1C175.207 330.816 173.789 329.79 172.206 329.087C170.623 328.384 168.91 328.021 167.179 328.02Z" fill="#43437A"/>
<path d="M13.7422 488.419C13.2382 496.623 14.419 504.844 17.212 512.574C20.0049 520.305 24.3512 527.382 29.9825 533.369L44.4219 548.719C40.9919 530.969 65.6817 515.099 65.6817 515.099C26.6817 494.179 26.8623 463.989 28.5723 452.449C19.7852 462.468 14.5694 475.119 13.7422 488.419Z" fill="#009BD9"/>
<path d="M25.0013 462.299C25.5313 476.799 31.7612 498.579 60.0912 515.409C54.1912 519.989 43.571 529.639 41.431 541.209L32.1214 531.309C23.5322 522.18 18.1824 510.481 16.8959 498.013C15.6093 485.545 18.4572 472.999 25.0013 462.309V462.299ZM28.5316 452.459C18.66 463.706 13.3344 478.229 13.5951 493.192C13.8558 508.154 19.6843 522.482 29.9418 533.379L44.3812 548.729C40.9512 530.979 65.641 515.109 65.641 515.109C26.641 494.189 26.8216 463.999 28.5316 452.459Z" fill="#43437A"/>
<path d="M98.721 497.737L80.6062 513.434C76.0817 517.355 75.5922 524.201 79.5128 528.725L95.2099 546.84C99.1305 551.365 105.977 551.854 110.501 547.934L128.616 532.237C133.14 528.316 133.63 521.47 129.709 516.946L114.012 498.831C110.091 494.306 103.245 493.817 98.721 497.737Z" fill="#009BD9"/>
<path d="M103.542 552.52C103.242 552.52 102.941 552.52 102.641 552.52C101.025 552.406 99.448 551.973 97.9995 551.248C96.5511 550.522 95.2602 549.517 94.2017 548.29L78.5015 530.18C76.363 527.704 75.2935 524.48 75.5279 521.217C75.7622 517.953 77.2811 514.915 79.7515 512.77L97.8618 497.07C99.0869 496.008 100.508 495.199 102.046 494.687C103.584 494.176 105.209 493.972 106.826 494.088C108.442 494.204 110.02 494.638 111.469 495.364C112.918 496.09 114.21 497.094 115.271 498.32L131.001 516.4C132.065 517.624 132.876 519.046 133.389 520.583C133.902 522.121 134.107 523.745 133.992 525.362C133.877 526.979 133.444 528.558 132.718 530.007C131.992 531.457 130.987 532.749 129.761 533.81L111.652 549.5C109.407 551.461 106.523 552.535 103.542 552.52ZM105.931 497.03C103.689 497.029 101.523 497.839 99.8316 499.31L81.7114 515C79.8429 516.626 78.6952 518.926 78.5191 521.396C78.3429 523.866 79.1521 526.306 80.771 528.18L96.4614 546.29C97.2634 547.219 98.2414 547.981 99.3384 548.532C100.435 549.083 101.63 549.412 102.854 549.5C104.078 549.589 105.308 549.434 106.473 549.046C107.638 548.658 108.714 548.045 109.641 547.24L127.751 531.54C128.684 530.742 129.45 529.768 130.005 528.674C130.561 527.579 130.894 526.386 130.987 525.163C131.08 523.939 130.93 522.709 130.546 521.543C130.163 520.378 129.553 519.299 128.751 518.37L113.051 500.25C112.25 499.321 111.273 498.56 110.176 498.011C109.08 497.461 107.885 497.135 106.662 497.05L105.931 497.03Z" fill="#43437A"/>
<path d="M158.934 377.158L63.5822 459.783C59.112 463.657 58.6284 470.421 62.5019 474.891L62.5085 474.898C66.3821 479.369 73.1459 479.852 77.6161 475.979L172.968 393.353C177.438 389.48 177.921 382.716 174.048 378.246L174.041 378.238C170.168 373.768 163.404 373.284 158.934 377.158Z" fill="#009BD9"/>
<path d="M70.7292 480.511C68.2391 480.512 65.8074 479.752 63.7615 478.333C61.7155 476.913 60.1525 474.902 59.282 472.569C58.4114 470.236 58.2753 467.693 58.8913 465.28C59.5073 462.867 60.8469 460.701 62.7292 459.071L158.069 376.461C160.519 374.343 163.708 373.283 166.938 373.513C170.168 373.744 173.175 375.246 175.299 377.69C177.419 380.139 178.48 383.329 178.25 386.56C178.019 389.791 176.516 392.798 174.069 394.92L78.7185 477.541C76.4998 479.461 73.6634 480.515 70.7292 480.511ZM166.069 376.511C163.864 376.515 161.733 377.313 160.069 378.761L64.7185 461.371C63.7621 462.151 62.9722 463.114 62.3952 464.205C61.8183 465.296 61.4665 466.491 61.3601 467.721C61.2536 468.95 61.3952 470.188 61.7761 471.362C62.157 472.536 62.7688 473.621 63.5769 474.554C64.385 475.486 65.3727 476.247 66.4802 476.791C67.5877 477.335 68.7931 477.652 70.0251 477.721C71.2571 477.791 72.4903 477.613 73.6521 477.197C74.8139 476.781 75.8808 476.136 76.7888 475.301L172.129 392.69C173.549 391.463 174.561 389.832 175.028 388.014C175.495 386.196 175.397 384.278 174.744 382.518C174.091 380.758 172.916 379.24 171.377 378.166C169.837 377.092 168.006 376.515 166.129 376.511H166.069Z" fill="#43437A"/>
<path d="M139.292 494.109C139.078 494.111 138.866 494.066 138.671 493.978C138.476 493.89 138.302 493.761 138.162 493.599C138.031 493.451 137.93 493.278 137.867 493.091C137.804 492.903 137.779 492.705 137.793 492.508C137.807 492.31 137.86 492.118 137.949 491.941C138.038 491.765 138.161 491.607 138.311 491.479L216.052 424.119C216.2 423.988 216.373 423.887 216.56 423.822C216.748 423.758 216.946 423.731 217.143 423.743C217.341 423.755 217.535 423.806 217.713 423.893C217.891 423.98 218.05 424.101 218.182 424.249C218.313 424.398 218.414 424.57 218.478 424.758C218.543 424.945 218.57 425.143 218.557 425.341C218.545 425.539 218.495 425.732 218.408 425.911C218.321 426.089 218.2 426.248 218.052 426.379L140.302 493.749C140.021 493.989 139.661 494.118 139.292 494.109Z" fill="#43437A"/>
<path d="M185.55 547.51C185.335 547.51 185.123 547.464 184.928 547.374C184.733 547.284 184.559 547.154 184.42 546.991C184.29 546.842 184.191 546.669 184.129 546.482C184.066 546.294 184.041 546.096 184.054 545.899C184.068 545.703 184.121 545.51 184.21 545.334C184.298 545.157 184.421 545 184.57 544.871L262.32 477.511C262.621 477.245 263.014 477.111 263.415 477.136C263.815 477.161 264.19 477.345 264.455 477.646C264.72 477.947 264.855 478.341 264.83 478.741C264.805 479.141 264.621 479.515 264.32 479.781L186.57 547.141C186.29 547.39 185.925 547.523 185.55 547.51Z" fill="#43437A"/>
<path d="M318.29 217.009L198.745 257.356C193.141 259.248 190.131 265.324 192.023 270.929L192.026 270.938C193.917 276.543 199.994 279.553 205.598 277.661L325.143 237.314C330.747 235.422 333.757 229.345 331.866 223.741L331.862 223.732C329.971 218.127 323.894 215.117 318.29 217.009Z" fill="#009BD9"/>
<path d="M202.192 279.398C199.3 279.39 196.503 278.357 194.301 276.481C192.098 274.606 190.633 272.01 190.165 269.155C189.697 266.301 190.257 263.373 191.745 260.892C193.233 258.411 195.553 256.539 198.292 255.608L317.832 215.268C320.9 214.233 324.255 214.458 327.157 215.896C330.059 217.333 332.271 219.865 333.306 222.933C334.342 226.002 334.117 229.356 332.68 232.258C331.242 235.16 328.71 237.372 325.641 238.408L206.112 278.758C204.848 279.181 203.525 279.397 202.192 279.398ZM321.742 217.618C320.738 217.617 319.741 217.783 318.792 218.108L199.252 258.448C196.936 259.231 195.027 260.901 193.943 263.091C192.859 265.282 192.689 267.813 193.472 270.128C194.254 272.443 195.925 274.353 198.115 275.437C200.306 276.521 202.837 276.69 205.152 275.908L324.681 235.568C326.786 234.894 328.579 233.487 329.733 231.603C330.887 229.718 331.326 227.482 330.97 225.301C330.613 223.12 329.486 221.14 327.792 219.72C326.098 218.301 323.952 217.537 321.742 217.568V217.618Z" fill="#43437A"/>
<path d="M210.453 332.679C210.141 332.679 209.836 332.584 209.58 332.405C209.324 332.226 209.129 331.972 209.022 331.679C208.96 331.492 208.935 331.294 208.949 331.097C208.963 330.901 209.015 330.709 209.103 330.532C209.192 330.356 209.314 330.198 209.463 330.069C209.612 329.94 209.785 329.841 209.973 329.779L353.443 281.349C353.82 281.217 354.234 281.239 354.594 281.411C354.954 281.584 355.231 281.892 355.363 282.269C355.496 282.646 355.473 283.06 355.301 283.42C355.128 283.78 354.82 284.056 354.443 284.189L210.963 332.619C210.797 332.667 210.625 332.687 210.453 332.679Z" fill="#43437A"/>
<path d="M219.352 356.201C218.997 356.2 218.654 356.073 218.383 355.843C218.113 355.613 217.933 355.295 217.875 354.944C217.818 354.594 217.886 354.234 218.069 353.93C218.251 353.625 218.536 353.395 218.872 353.281L361.052 305.281C361.429 305.148 361.842 305.171 362.202 305.343C362.563 305.516 362.839 305.824 362.972 306.201C363.105 306.577 363.082 306.991 362.91 307.351C362.737 307.711 362.429 307.988 362.052 308.121L219.872 356.121C219.705 356.176 219.528 356.203 219.352 356.201Z" fill="#43437A"/>
<path d="M304.693 361.24C304.338 361.239 303.994 361.112 303.724 360.882C303.454 360.652 303.273 360.333 303.215 359.983C303.158 359.633 303.226 359.273 303.409 358.969C303.591 358.664 303.876 358.434 304.212 358.32L377.502 333.58C377.689 333.514 377.886 333.486 378.083 333.496C378.281 333.507 378.474 333.556 378.653 333.642C378.831 333.727 378.99 333.847 379.122 333.994C379.254 334.141 379.357 334.313 379.422 334.5C379.488 334.686 379.516 334.884 379.505 335.081C379.495 335.278 379.445 335.472 379.36 335.65C379.274 335.828 379.154 335.988 379.007 336.12C378.86 336.252 378.689 336.354 378.502 336.419L305.222 361.159C305.052 361.22 304.873 361.248 304.693 361.24Z" fill="#43437A"/>
<path d="M109.212 533.74C109.056 533.741 108.901 533.717 108.752 533.669L91.2921 528.04C90.9355 527.901 90.6458 527.631 90.4815 527.286C90.3173 526.94 90.2908 526.545 90.4083 526.181C90.5258 525.817 90.7781 525.511 91.1134 525.327C91.4486 525.143 91.8417 525.094 92.212 525.19L107.412 530.08L104.332 507.609C104.281 507.215 104.387 506.816 104.629 506.499C104.871 506.183 105.228 505.974 105.622 505.919C105.817 505.891 106.016 505.902 106.207 505.952C106.398 506.001 106.577 506.088 106.734 506.207C106.892 506.326 107.024 506.475 107.123 506.645C107.222 506.816 107.286 507.004 107.312 507.2L110.702 532.04C110.736 532.29 110.706 532.545 110.615 532.781C110.524 533.017 110.375 533.227 110.182 533.39C109.909 533.616 109.566 533.74 109.212 533.74Z" fill="#43437A"/>
<path d="M137.305 580.57L153.885 581.98L151.865 559.5" fill="#00C209"/>
<path d="M153.883 583.479H153.762L137.173 582.079C136.775 582.045 136.407 581.854 136.15 581.548C135.893 581.242 135.768 580.847 135.802 580.449C135.837 580.052 136.028 579.683 136.334 579.426C136.639 579.17 137.035 579.045 137.432 579.079L152.233 580.329L150.373 559.629C150.355 559.432 150.376 559.234 150.435 559.045C150.494 558.856 150.59 558.681 150.717 558.529C150.973 558.222 151.34 558.03 151.738 557.994C152.136 557.959 152.531 558.082 152.838 558.338C153.144 558.594 153.337 558.961 153.373 559.359L155.373 581.839C155.391 582.047 155.366 582.257 155.299 582.455C155.231 582.653 155.123 582.834 154.982 582.988C154.841 583.143 154.67 583.266 154.479 583.35C154.288 583.435 154.082 583.479 153.873 583.479H153.883Z" fill="#43437A"/>
<path d="M24.7705 543.8C24.3987 543.797 24.0417 543.654 23.7705 543.4C-1.37954 519.96 -1.84864 493.52 2.19136 475.46C4.95671 463.36 10.0105 451.901 17.081 441.7C17.3184 441.38 17.6725 441.168 18.0664 441.11C18.4602 441.052 18.861 441.152 19.1806 441.39C19.5002 441.627 19.7123 441.982 19.7705 442.375C19.8286 442.769 19.7285 443.17 19.4912 443.49C12.6894 453.4 7.80764 464.499 5.10054 476.21C-0.489463 501.32 6.4805 523.21 25.8105 541.21C25.955 541.344 26.072 541.505 26.1542 541.684C26.2365 541.863 26.2826 542.056 26.29 542.253C26.2974 542.45 26.2657 542.647 26.1972 542.831C26.1287 543.016 26.0245 543.185 25.8906 543.33C25.7459 543.48 25.5725 543.6 25.3798 543.68C25.1872 543.761 24.9793 543.802 24.7705 543.8Z" fill="#43437A"/>
<path d="M246.941 189.41C246.582 189.411 246.235 189.284 245.962 189.052C245.688 188.819 245.507 188.497 245.452 188.142C245.396 187.788 245.469 187.425 245.658 187.12C245.847 186.815 246.139 186.588 246.481 186.48L319.09 162.64C319.464 162.533 319.864 162.576 320.207 162.758C320.549 162.94 320.808 163.248 320.928 163.617C321.049 163.986 321.021 164.387 320.852 164.736C320.683 165.086 320.384 165.356 320.02 165.49L247.411 189.33C247.261 189.386 247.101 189.413 246.941 189.41Z" fill="#43437A"/>
<path d="M601.336 662.6C601.336 662.6 658.496 704.78 700.896 688.03C743.296 671.28 627.346 597.58 601.336 662.6Z" fill="#009BD9"/>
<path d="M678.738 693.501C641.198 693.501 602.408 665.251 600.448 663.811L599.508 663.121L599.948 662.041C608.098 641.661 626.078 632.181 650.548 635.331C678.728 638.971 709.548 659.241 711.548 675.511C712.088 679.831 710.778 685.741 701.468 689.421C694.217 692.204 686.505 693.589 678.738 693.501ZM603.178 662.071C610.778 667.391 662.178 701.721 700.348 686.631C706.348 684.251 709.148 680.631 708.558 675.881C706.878 662.421 679.048 642.031 650.168 638.311C636.998 636.621 613.658 637.511 603.178 662.071Z" fill="#43437A"/>
<path d="M391.634 335.471C391.634 335.471 385.634 372.641 359.834 362.521C334.034 352.401 279.124 330.241 260.314 368.241C241.504 406.241 244.924 414.501 215.314 411.241C185.704 407.981 127.654 453.871 186.564 513.241C245.474 572.611 440.004 378.281 440.004 378.281L438.004 355.021L391.634 335.471Z" fill="#1A0C35"/>
<path d="M216.341 526.001H216.192C203.492 526.001 193.191 522.001 185.471 514.271C152.641 481.191 158.221 454.561 164.471 441.631C174.771 420.311 199.151 407.921 215.471 409.741C238.471 412.301 240.292 408.281 250.372 385.971C252.752 380.701 255.452 374.731 258.982 367.611C278.172 328.851 333.032 350.411 359.402 360.771L360.402 361.161C366.232 363.451 371.402 363.331 375.872 360.801C386.872 354.521 390.141 335.451 390.171 335.261L390.471 333.381L439.471 354.021L441.612 378.871L441.122 379.371C414.696 405.198 386.966 429.657 358.042 452.651C296.362 501.291 248.711 526.001 216.341 526.001ZM212.101 412.561C196.951 412.561 176.291 424.051 167.171 442.941C156.981 464.031 164.231 488.611 187.601 512.161C194.711 519.321 204.332 522.971 216.192 523.001H216.332C289.872 523.001 429.022 387.001 438.452 377.741L436.582 356.081L392.751 337.601C391.611 342.841 387.581 357.601 377.341 363.411C372.081 366.411 366.011 366.591 359.341 363.951L358.341 363.561C332.811 353.561 279.671 332.651 261.711 368.941C258.201 376.021 255.522 381.941 253.152 387.201C243.062 409.521 240.352 415.531 215.152 412.721C214.14 412.6 213.121 412.537 212.101 412.531V412.561Z" fill="#43437A"/>
<path d="M485.92 385C728.14 464.26 601.34 577 621.18 799L238.27 804.57C238.27 804.57 183 551 404.09 392.74" fill="#009BD9"/>
<path d="M237.069 806.09L236.809 804.9C236.669 804.26 223.089 740.26 236.809 657.75C244.869 609.28 260.609 563.98 283.619 523.11C312.379 472.02 352.619 427.74 403.239 391.52L404.999 394C291.259 475.41 252.389 582.59 239.809 658.17C227.199 733.95 237.759 793.97 239.539 803.1L619.539 797.57C613.699 730.04 621.259 673.34 627.929 623.27C635.499 566.47 641.479 521.61 624.929 483.27C607.059 442.01 564.059 412.14 485.489 386.43L486.419 383.58C565.879 409.58 609.42 439.96 627.69 482.07C644.61 521.14 638.579 566.36 630.949 623.62C624.239 673.94 616.639 730.97 622.709 798.88L622.849 800.48L237.069 806.09Z" fill="#43437A"/>
<path d="M424.68 388.41C424.68 388.41 297.88 406.83 223.1 464.27C160.17 512.61 144.51 537.76 108.22 602.8C77.88 657.18 80.4307 742.51 153.861 755.8C227.291 769.09 288.32 773.14 292.02 732.64L314.41 728.14L312.491 636.52L299.361 636.87" fill="#009BD9"/>
<path d="M233.701 766.51C209.561 766.51 180.941 762.221 153.591 757.271C127.441 752.54 108.031 738.201 97.451 715.811C82.641 684.471 86.4509 638.751 106.911 602.061C143.501 536.481 159.361 511.341 222.191 463.061C296.421 406.061 423.191 387.06 424.471 386.9L424.901 389.9C423.631 390.09 297.62 408.9 224.02 465.47C161.65 513.37 145.901 538.351 109.531 603.541C89.5311 639.421 85.7509 684.031 100.161 714.541C110.311 736.021 128.971 749.771 154.161 754.331C203.631 763.331 257.161 770.13 279.581 753.11C286.171 748.11 289.761 741.36 290.581 732.5L290.68 731.391L312.93 726.92L311.071 638.061L299.451 638.371L299.371 635.371L314.001 635L316.001 729.38L293.471 733.9C292.391 742.99 288.341 750.25 281.471 755.51C270.781 763.54 253.791 766.51 233.701 766.51Z" fill="#43437A"/>
<path d="M297.73 638.311C297.73 638.311 271.73 672.761 290.37 730.021L312.37 726.34L310.37 638.221L297.73 638.311Z" fill="#007396"/>
<path d="M351.171 455.591C356.031 455.591 359.971 451.642 359.971 446.771C359.971 441.9 356.031 437.951 351.171 437.951C346.311 437.951 342.371 441.9 342.371 446.771C342.371 451.642 346.311 455.591 351.171 455.591Z" fill="#00789C"/>
<path d="M238.628 550.96C243.488 550.96 247.428 547.012 247.428 542.141C247.428 537.269 243.488 533.32 238.628 533.32C233.768 533.32 229.828 537.269 229.828 542.141C229.828 547.012 233.768 550.96 238.628 550.96Z" fill="#00789C"/>
<path d="M374.972 554.22C379.832 554.22 383.771 550.271 383.771 545.4C383.771 540.529 379.832 536.58 374.972 536.58C370.112 536.58 366.172 540.529 366.172 545.4C366.172 550.271 370.112 554.22 374.972 554.22Z" fill="#00789C"/>
<path d="M484.261 513.03C489.121 513.03 493.061 509.082 493.061 504.21C493.061 499.339 489.121 495.391 484.261 495.391C479.401 495.391 475.461 499.339 475.461 504.21C475.461 509.082 479.401 513.03 484.261 513.03Z" fill="#00789C"/>
<path d="M156.3 709.191C161.16 709.191 165.1 705.242 165.1 700.371C165.1 695.5 161.16 691.551 156.3 691.551C151.44 691.551 147.5 695.5 147.5 700.371C147.5 705.242 151.44 709.191 156.3 709.191Z" fill="#00789C"/>
<path d="M229.929 650.671C234.789 650.671 238.729 646.723 238.729 641.852C238.729 636.98 234.789 633.031 229.929 633.031C225.069 633.031 221.129 636.98 221.129 641.852C221.129 646.723 225.069 650.671 229.929 650.671Z" fill="#00789C"/>
<path d="M247.179 738.46C252.039 738.46 255.979 734.512 255.979 729.641C255.979 724.769 252.039 720.82 247.179 720.82C242.319 720.82 238.379 724.769 238.379 729.641C238.379 734.512 242.319 738.46 247.179 738.46Z" fill="#00789C"/>
<path d="M585.972 780.72C590.832 780.72 594.771 776.771 594.771 771.9C594.771 767.029 590.832 763.08 585.972 763.08C581.112 763.08 577.172 767.029 577.172 771.9C577.172 776.771 581.112 780.72 585.972 780.72Z" fill="#00789C"/>
<path d="M126 643.522L124.73 640.801C125.35 640.511 187.24 611.932 232.53 608.152C278.43 604.332 301.25 636.021 301.48 636.341L299.02 638.071C298.81 637.761 276.9 607.462 232.78 611.142C188 614.882 126.61 643.232 126 643.522Z" fill="#43437A"/>
<path d="M277.29 529.299C277.29 529.299 248.49 569.629 247.18 609.609L277.29 529.299Z" fill="#009BD9"/>
<path d="M248.672 609.66L245.672 609.56C246.982 569.56 275.772 528.83 276.062 528.43L278.502 530.169C278.232 530.569 250.002 570.6 248.672 609.66Z" fill="#43437A"/>
<path d="M416 390.57C416 390.57 394.74 418.37 427.92 427.42C451.77 433.93 458.27 417.67 458.27 417.67C458.27 417.67 471.191 433.67 496.201 422C512.461 414.42 500.541 391.66 500.541 391.66C465.431 382.78 451.81 382.42 416 390.57Z" fill="#1A0C35"/>
<path d="M438.39 430.45C434.719 430.407 431.071 429.876 427.54 428.87C417.34 426.09 411.02 421.26 408.74 414.52C404.82 402.93 414.41 390.2 414.82 389.66L415.15 389.23L415.68 389.11C451.47 380.95 465.02 381.11 500.91 390.2L501.559 390.37L501.88 390.96C502.16 391.5 508.68 404.15 505.29 414.2C504.605 416.234 503.5 418.101 502.046 419.679C500.592 421.257 498.821 422.512 496.85 423.36C475.91 433.14 462.85 424.01 458.63 420.15C456.45 423.59 450.57 430.45 438.39 430.45ZM416.9 391.91C415.34 394.13 408.54 404.58 411.58 413.57C413.58 419.3 419.16 423.48 428.33 425.98C431.639 426.922 435.059 427.42 438.5 427.46C452.5 427.46 456.68 417.61 456.89 417.11L457.89 414.75L459.49 416.75C459.99 417.36 472.03 431.67 495.62 420.66C497.22 419.977 498.659 418.966 499.843 417.691C501.026 416.416 501.928 414.906 502.49 413.26C505.09 405.54 500.74 395.48 499.55 392.96C464.88 384.23 451.46 384.07 416.9 391.91Z" fill="#43437A"/>
<path d="M427.08 334C427.08 334 431.59 372.72 418.18 391.65C418.18 391.65 460.45 435 491.88 389.48C491.88 389.48 461.72 344.04 467.45 330.83C473.18 317.62 427.08 334 427.08 334Z" fill="#EDB191"/>
<path d="M457.69 411.8C435.98 411.8 417.9 393.52 417.11 392.71L416.23 391.81L416.96 390.81C429.88 372.58 425.64 334.59 425.59 334.2L425.46 333.02L426.58 332.62C432.58 330.48 462.82 320.14 468.4 326.11C469.26 327.03 470.03 328.7 468.83 331.46C464.39 341.68 484.83 376.23 493.13 388.68L493.69 389.53L493.11 390.36C484.06 403.47 473.22 410.65 460.88 411.69C459.81 411.76 458.75 411.8 457.69 411.8ZM420.13 391.46C424.13 395.23 441.57 410.29 460.64 408.68C471.78 407.73 481.64 401.27 490.06 389.47C485.11 381.9 460.45 343.2 466.06 330.24C466.5 329.24 466.54 328.52 466.19 328.14C463.19 324.89 442.82 330.14 428.68 335.03C429.35 341.72 431.72 373.69 420.13 391.46Z" fill="#43437A"/>
<path d="M433.41 234.331C456.556 234.331 475.32 215.536 475.32 192.351C475.32 169.166 456.556 150.371 433.41 150.371C410.264 150.371 391.5 169.166 391.5 192.351C391.5 215.536 410.264 234.331 433.41 234.331Z" fill="#1A0C35"/>
<path d="M433.328 235.83C422.549 235.799 412.167 231.763 404.197 224.506C396.226 217.249 391.238 207.289 390.199 196.56C389.379 188.016 391.11 179.421 395.174 171.86C399.238 164.3 405.453 158.114 413.032 154.085C420.61 150.055 429.213 148.363 437.753 149.222C446.294 150.081 454.388 153.452 461.013 158.91C467.638 164.368 472.496 171.667 474.973 179.886C477.45 188.104 477.435 196.872 474.93 205.082C472.425 213.292 467.543 220.575 460.9 226.01C454.257 231.446 446.152 234.79 437.609 235.62C436.179 235.76 434.748 235.83 433.328 235.83ZM433.479 151.83C432.159 151.83 430.829 151.9 429.479 152.03C421.519 152.823 413.972 155.955 407.79 161.03C401.608 166.106 397.069 172.899 394.742 180.552C392.416 188.205 392.408 196.375 394.719 204.033C397.03 211.69 401.557 218.492 407.729 223.58C411.817 226.965 416.538 229.504 421.616 231.049C426.694 232.594 432.027 233.115 437.308 232.58C447.649 231.575 457.209 226.632 464.006 218.774C470.804 210.917 474.32 200.746 473.826 190.368C473.333 179.99 468.867 170.199 461.355 163.021C453.842 155.844 443.858 151.83 433.468 151.81L433.479 151.83Z" fill="#43437A"/>
<path d="M476.779 205.37C456.779 176.65 410.449 187.79 399.919 202.37C373.769 238.47 343.239 225.629 341.569 261.739C340.739 279.869 357.25 285.13 353.23 318.59C351.16 335.85 382.279 358.899 408.059 356.379C433.839 353.859 493.339 371.879 522.449 337.469C535.599 321.919 555.969 275.469 528.769 241.689C501.269 207.509 485.459 217.82 476.779 205.37Z" fill="#1A0C35"/>
<path d="M462.829 360.32C452.759 360.32 442.829 359.5 434.009 358.77C423.709 357.92 414.829 357.18 408.199 357.83C390.149 359.58 371.199 349.39 361.199 339.18C354.349 332.18 350.989 324.78 351.759 318.37C354.089 299 349.429 289.37 345.309 280.91C342.449 274.99 339.739 269.4 340.099 261.62C341.099 240.73 351.459 235.45 364.619 228.76C375.239 223.36 387.28 217.24 398.73 201.44C405.15 192.58 422.389 185.99 439.009 185.99H439.589C456.159 186.14 469.809 192.72 478.029 204.51C481.029 208.86 485.029 210.17 490.599 212C499.919 215.06 512.679 219.26 529.949 240.7C557.799 275.26 537.259 322.26 523.619 338.39C508.449 356.29 485.179 360.32 462.829 360.32ZM413.959 354.58C419.789 354.58 426.639 355.15 434.249 355.78C462.139 358.09 500.329 361.25 521.309 336.45C527.949 328.59 536.079 313.06 539.309 296.09C542.019 281.65 542.189 260.64 527.639 242.58C510.919 221.84 498.639 217.8 489.639 214.85C483.779 212.92 479.149 211.4 475.549 206.23C467.899 195.23 455.109 189.13 439.549 188.99H438.999C421.749 188.99 406.269 196.17 401.169 203.2C389.299 219.58 376.379 226.2 365.989 231.43C353.219 237.92 343.989 242.62 343.099 261.76C342.779 268.76 345.209 273.76 348.019 279.6C352.319 288.45 357.179 298.48 354.749 318.72C354.089 324.21 357.149 330.72 363.359 337.08C372.859 346.8 390.87 356.5 407.94 354.84C409.78 354.66 411.799 354.58 413.999 354.58H413.959Z" fill="#43437A"/>
<path d="M456.997 277.82C436.097 283.51 407.067 275.82 402.597 283.65C398.127 291.48 402.407 301.42 414.007 303.29C425.607 305.16 436.957 304.17 460.137 301.03C483.317 297.89 505.777 293.09 502.427 280.78C499.077 268.47 487.747 269.44 456.997 277.82Z" fill="#D99987"/>
<path d="M438.742 217.711C433.742 251.591 401.902 270.001 383.922 273.431C380.922 283.911 384.281 297.321 385.431 309.171C389.661 352.701 416.432 381.881 457.862 374.961C498.302 368.211 517.422 342.791 512.282 294.891C511.072 283.581 510.422 272.311 505.832 262.891C471.232 266.161 438.742 217.711 438.742 217.711Z" fill="#EDB191"/>
<path d="M446.112 377.46C433.002 377.46 421.111 373.621 411.371 366.111C396.101 354.401 386.372 334.231 383.942 309.321C383.652 306.381 383.221 303.26 382.801 300.25C381.491 290.87 380.141 281.181 382.471 273.021L382.732 272.13L383.641 271.96C403.091 268.25 432.641 248.89 437.261 217.49L437.831 213.65L439.991 216.871C440.301 217.331 470.381 261.591 502.521 261.591C503.521 261.591 504.632 261.54 505.692 261.44L506.692 261.341L507.152 262.271C511.312 270.771 512.291 280.44 513.331 290.68C513.461 292.03 513.601 293.38 513.741 294.73C516.311 318.65 512.822 337.65 503.362 351.21C494.122 364.48 478.881 372.97 458.081 376.44C454.126 377.107 450.123 377.448 446.112 377.46ZM385.112 274.72C383.282 282.11 384.531 291.111 385.751 299.831C386.171 302.881 386.612 306.031 386.902 309.031C389.242 333.111 398.571 352.54 413.171 363.73C425.171 372.95 440.561 376.32 457.591 373.48C498.311 366.68 515.701 341.031 510.771 295.051L510.351 290.99C509.351 281.4 508.462 272.32 504.902 264.51C504.082 264.51 503.252 264.591 502.442 264.591C473.382 264.591 447.081 231.76 439.571 221.5C433.001 253.37 403.471 270.83 385.131 274.72H385.112Z" fill="#43437A"/>
<path d="M452.998 280.831C428.138 287.831 393.418 279.021 388.168 288.421C382.918 297.821 388.167 309.621 402.007 311.711C415.847 313.801 429.397 312.501 457.007 308.481C484.618 304.461 511.358 298.481 507.228 283.831C503.098 269.181 489.518 270.481 452.998 280.831Z" fill="#D99987"/>
<path d="M449.049 320.29C448.675 320.291 448.315 320.152 448.039 319.9C447.763 319.648 447.591 319.302 447.559 318.93L444.23 284.75C444.211 284.553 444.23 284.354 444.288 284.165C444.346 283.975 444.44 283.799 444.566 283.647C444.691 283.494 444.847 283.367 445.022 283.274C445.196 283.181 445.387 283.124 445.584 283.105C445.781 283.086 445.98 283.105 446.169 283.163C446.358 283.221 446.535 283.316 446.688 283.442C446.84 283.567 446.967 283.722 447.06 283.897C447.153 284.071 447.211 284.263 447.23 284.46L450.549 318.64C450.568 318.836 450.549 319.034 450.491 319.223C450.434 319.412 450.339 319.588 450.214 319.74C450.089 319.892 449.935 320.018 449.761 320.111C449.587 320.204 449.396 320.261 449.199 320.28L449.049 320.29Z" fill="#43437A"/>
<path d="M403.31 183.921C403.042 183.92 402.775 183.88 402.519 183.801C401.891 183.591 401.372 183.14 401.076 182.548C400.78 181.955 400.731 181.269 400.94 180.641C401.2 179.831 407.79 160.741 431.16 156.891C431.49 156.823 431.829 156.823 432.159 156.89C432.489 156.957 432.803 157.09 433.08 157.28C433.357 157.471 433.593 157.716 433.773 158C433.954 158.285 434.074 158.602 434.129 158.935C434.183 159.267 434.171 159.607 434.091 159.934C434.011 160.261 433.866 160.568 433.664 160.838C433.462 161.107 433.208 161.333 432.917 161.502C432.626 161.671 432.304 161.78 431.97 161.821C411.66 165.171 405.91 181.531 405.68 182.221C405.511 182.716 405.192 183.146 404.768 183.45C404.343 183.755 403.832 183.92 403.31 183.921Z" fill="#9FC5E0"/>
<path d="M402.119 281.761C401.807 281.762 401.502 281.664 401.249 281.481C401.088 281.367 400.951 281.223 400.846 281.056C400.741 280.889 400.67 280.703 400.638 280.509C400.605 280.315 400.611 280.116 400.656 279.924C400.701 279.732 400.784 279.551 400.899 279.391C401.439 278.641 414.229 261.171 431.199 265.141C431.586 265.232 431.921 265.474 432.13 265.812C432.339 266.151 432.406 266.559 432.314 266.946C432.223 267.333 431.981 267.668 431.643 267.877C431.304 268.086 430.896 268.152 430.509 268.061C415.509 264.551 403.459 280.981 403.339 281.141C403.2 281.335 403.017 281.492 402.805 281.6C402.592 281.708 402.357 281.763 402.119 281.761Z" fill="#43437A"/>
<path d="M480.556 267.061C480.215 267.06 479.884 266.944 479.617 266.731C466.227 255.881 454.257 262.731 453.757 263.061C453.414 263.265 453.005 263.325 452.619 263.228C452.233 263.13 451.901 262.883 451.697 262.541C451.493 262.199 451.432 261.79 451.53 261.403C451.628 261.017 451.874 260.685 452.217 260.481C452.357 260.401 466.447 252.201 481.507 264.401C481.749 264.6 481.924 264.87 482.006 265.173C482.087 265.475 482.071 265.796 481.961 266.09C481.85 266.383 481.651 266.635 481.39 266.809C481.13 266.983 480.82 267.072 480.507 267.061H480.556Z" fill="#43437A"/>
<path d="M437.15 304.831C436.938 304.832 436.729 304.788 436.536 304.702C436.342 304.616 436.17 304.489 436.03 304.331C428.27 295.611 413.119 304.131 412.969 304.211C412.624 304.41 412.215 304.463 411.831 304.36C411.446 304.257 411.118 304.005 410.919 303.661C410.721 303.316 410.667 302.906 410.77 302.522C410.873 302.137 411.124 301.81 411.469 301.611C412.179 301.211 428.889 291.791 438.269 302.331C438.4 302.478 438.501 302.65 438.565 302.837C438.629 303.023 438.656 303.221 438.644 303.418C438.632 303.615 438.581 303.807 438.495 303.985C438.408 304.162 438.287 304.32 438.139 304.451C437.869 304.698 437.516 304.834 437.15 304.831Z" fill="#43437A"/>
<path d="M458.28 301.001C457.883 301 457.501 300.842 457.22 300.561C457.079 300.423 456.969 300.258 456.893 300.076C456.817 299.894 456.777 299.698 456.777 299.501C456.777 299.304 456.817 299.109 456.893 298.927C456.969 298.745 457.079 298.58 457.22 298.441C457.35 298.311 470.04 285.881 485.96 292.701C486.326 292.858 486.615 293.153 486.763 293.523C486.911 293.892 486.906 294.305 486.75 294.671C486.594 295.037 486.298 295.326 485.929 295.474C485.559 295.622 485.146 295.618 484.78 295.461C470.78 289.461 459.78 300.101 459.34 300.561C459.058 300.842 458.678 301 458.28 301.001Z" fill="#43437A"/>
<path d="M580.908 654.181C560.328 614.301 527.158 549.53 532.038 516.57C536.918 483.61 560.588 481.021 560.588 481.021L559.258 455.791L644.048 432.4L648.638 448.811C648.638 448.811 703.838 446.07 711.288 524.26C718.838 603.59 770.238 709.101 657.288 723.851C623.648 728.251 591.488 674.681 580.908 654.181Z" fill="#009BD9"/>
<path d="M653.401 725.601C617.951 725.601 585.85 667.021 579.58 654.871C559.37 615.711 525.58 550.171 530.58 516.351C534.88 487.351 553.72 481.011 559.04 479.791L557.781 455.871C557.764 455.53 557.864 455.194 558.064 454.918C558.264 454.641 558.551 454.442 558.88 454.351L643.67 430.951C644.053 430.847 644.462 430.899 644.807 431.096C645.152 431.293 645.405 431.618 645.51 432.001L649.8 447.301C659.789 447.661 669.507 450.64 677.981 455.941C691.711 464.411 708.9 483.111 712.8 524.121C714.37 540.621 717.921 558.641 721.361 576.061C730.081 620.331 739.11 666.061 718.05 695.411C706.3 711.761 686.501 721.551 657.531 725.341C656.161 725.518 654.782 725.605 653.401 725.601ZM582.25 653.491C588.6 665.791 622.07 726.941 657.12 722.361C685.23 718.691 704.35 709.301 715.59 693.661C735.89 665.421 727 620.291 718.39 576.661C714.95 559.171 711.39 541.071 709.79 524.421C706.79 493.021 695.301 470.261 676.531 458.601C668.195 453.338 658.568 450.476 648.71 450.331C648.373 450.346 648.04 450.246 647.766 450.049C647.492 449.851 647.293 449.566 647.201 449.241L643.01 434.241L560.821 456.921L562.08 480.921C562.106 481.304 561.981 481.682 561.733 481.975C561.485 482.268 561.132 482.453 560.75 482.491C559.83 482.601 538.171 485.431 533.531 516.771C528.661 549.651 562.2 614.651 582.25 653.491Z" fill="#43437A"/>
<path d="M562.511 482.37C562.511 482.37 617.401 493.49 647.201 449.96L643.131 433.67L561.441 457.08L562.511 482.37Z" fill="#007396"/>
<path d="M651.921 692.841C656.569 691.384 659.16 686.443 657.706 681.806C656.253 677.168 651.306 674.59 646.658 676.046C642.01 677.503 639.42 682.443 640.874 687.081C642.327 691.718 647.273 694.298 651.921 692.841Z" fill="#00789C"/>
<path d="M678.231 606.341C682.879 604.884 685.468 599.943 684.015 595.306C682.561 590.668 677.616 588.089 672.967 589.546C668.319 591.003 665.729 595.943 667.182 600.581C668.636 605.218 673.582 607.797 678.231 606.341Z" fill="#00789C"/>
<path d="M666.793 517.391C671.441 515.935 674.032 510.994 672.578 506.357C671.125 501.719 666.178 499.14 661.53 500.597C656.882 502.053 654.292 506.994 655.745 511.632C657.198 516.27 662.145 518.848 666.793 517.391Z" fill="#00789C"/>
<path d="M582.472 544.353C587.12 542.896 589.71 537.956 588.257 533.318C586.804 528.68 581.857 526.101 577.209 527.558C572.56 529.015 569.971 533.955 571.425 538.593C572.878 543.231 577.824 545.809 582.472 544.353Z" fill="#00789C"/>
<path d="M456.501 347.35C453.154 347.367 449.84 346.686 446.771 345.35C446.435 345.161 446.186 344.851 446.073 344.482C445.961 344.114 445.994 343.717 446.166 343.373C446.338 343.028 446.636 342.763 446.998 342.633C447.36 342.502 447.759 342.515 448.112 342.67C448.792 343 464.331 350.41 474.311 332.45C474.399 332.266 474.524 332.101 474.678 331.966C474.832 331.831 475.012 331.73 475.207 331.667C475.402 331.605 475.608 331.583 475.812 331.603C476.015 331.623 476.213 331.684 476.392 331.783C476.571 331.882 476.728 332.017 476.853 332.179C476.978 332.341 477.068 332.527 477.118 332.725C477.169 332.923 477.179 333.13 477.147 333.332C477.114 333.534 477.041 333.727 476.931 333.9C470.871 344.78 462.781 347.35 456.501 347.35Z" fill="#43437A"/>
<path d="M632.829 434.771C632.829 434.771 626.449 423.961 628.629 417.651C630.809 411.341 646.999 387.111 650.879 369.571C654.649 352.511 641.879 346.681 623.669 368.641C623.669 368.641 629.228 342.321 611.468 344.641C611.468 344.641 609.718 331.331 598.048 317.061C588.048 304.811 575.509 317.061 581.669 329.761C586.829 340.371 588.889 344.611 589.479 349.051C589.479 349.051 572.559 352.051 583.199 364.171C583.199 364.171 586.199 375.811 577.359 376.981C568.519 378.151 578.479 351.251 572.869 342.981C567.259 334.711 552.869 339.601 548.779 365.721C544.689 391.841 540.989 403.631 549.239 420.601C555.399 433.261 562.369 456.211 562.369 456.211L632.829 434.771Z" fill="#EDB191"/>
<path d="M562.37 457.711C562.123 457.71 561.88 457.652 561.66 457.541C561.485 457.448 561.331 457.321 561.206 457.168C561.08 457.016 560.986 456.84 560.929 456.65C560.859 456.42 553.929 433.651 547.929 421.251C540.579 406.161 542.409 395.25 545.709 375.41C546.229 372.33 546.77 369.051 547.33 365.491C550.16 347.391 557.85 339.491 564.12 338.041C566.006 337.605 567.981 337.765 569.772 338.499C571.563 339.234 573.082 340.506 574.12 342.14C577 346.4 576.259 354.261 575.549 361.851C575.029 367.431 574.439 373.751 576.009 375.261C576.119 375.371 576.39 375.621 577.16 375.521C577.922 375.468 578.664 375.246 579.33 374.87C579.996 374.495 580.569 373.976 581.009 373.351C582.679 370.851 582.22 366.68 581.82 364.9C578.61 361.12 577.51 357.68 578.58 354.66C580.04 350.51 585.199 348.661 587.759 347.931C586.969 344.101 584.82 339.691 580.32 330.441C576.46 322.501 579.319 315.051 584.019 312.051C587.779 309.641 593.749 309.45 599.219 316.13C608.929 328.02 611.919 339.131 612.709 343.041C616.599 342.821 619.709 343.95 621.959 346.39C626.099 350.87 626.27 358.75 625.83 363.91C634.39 354.82 642.49 351.021 647.98 353.701C652.47 355.901 654.099 361.95 652.349 369.89C649.669 382 641.159 397.371 635.519 407.541C633.49 410.966 631.661 414.505 630.04 418.14C628.44 422.78 632.44 431.141 634.12 434.011C634.236 434.207 634.306 434.426 634.325 434.653C634.344 434.88 634.312 435.108 634.23 435.321C634.144 435.537 634.009 435.73 633.835 435.884C633.662 436.039 633.455 436.15 633.23 436.211L562.759 457.65C562.632 457.687 562.502 457.707 562.37 457.711ZM566.259 340.801C565.748 340.798 565.238 340.855 564.74 340.971C559.74 342.101 552.859 349.321 550.259 365.971C549.709 369.541 549.159 372.841 548.639 375.971C545.439 395.191 543.639 405.781 550.639 419.971C555.969 430.911 561.77 449.111 563.41 454.371L630.679 433.91C628.919 430.49 625.399 422.581 627.259 417.191C627.999 415.041 630.18 411.101 632.95 406.111C638.5 396.111 646.879 380.961 649.469 369.271C650.879 362.871 649.829 357.951 646.709 356.431C643.129 354.671 635.26 357.08 624.87 369.63C624.655 369.888 624.361 370.066 624.034 370.137C623.706 370.207 623.364 370.166 623.063 370.02C622.762 369.874 622.518 369.631 622.371 369.33C622.223 369.03 622.18 368.688 622.249 368.361C622.249 368.221 625.149 354.221 619.809 348.461C617.949 346.461 615.299 345.711 611.719 346.181C611.524 346.207 611.326 346.195 611.135 346.144C610.945 346.094 610.767 346.006 610.611 345.886C610.455 345.766 610.323 345.616 610.225 345.445C610.127 345.275 610.064 345.086 610.04 344.89C610.04 344.76 608.17 331.791 596.94 318.061C593.36 313.681 589.15 312.391 585.69 314.611C582.23 316.831 579.97 322.78 583.07 329.15C588.25 339.81 590.399 344.22 591.019 348.9C591.069 349.284 590.969 349.671 590.74 349.983C590.511 350.294 590.17 350.504 589.79 350.571C587.85 350.921 582.569 352.521 581.459 355.691C580.759 357.691 581.739 360.221 584.379 363.241C584.532 363.416 584.642 363.625 584.7 363.851C584.77 364.121 586.449 370.731 583.549 375.051C582.877 376.031 581.995 376.851 580.968 377.451C579.941 378.051 578.795 378.416 577.61 378.521C576.963 378.638 576.298 378.602 575.667 378.416C575.037 378.231 574.46 377.9 573.98 377.451C571.37 374.941 571.98 368.761 572.62 361.601C573.25 354.861 573.959 347.221 571.679 343.851C571.11 342.923 570.314 342.155 569.366 341.622C568.417 341.088 567.348 340.805 566.259 340.801Z" fill="#43437A"/>
<path d="M584 364.842C584 364.842 590.9 371.452 611.22 365.762L584 364.842Z" fill="#EDB191"/>
<path d="M596.398 369.571C586.948 369.571 583.208 366.131 582.988 365.921C582.699 365.647 582.53 365.269 582.52 364.87C582.51 364.472 582.658 364.085 582.932 363.796C583.207 363.507 583.585 363.339 583.984 363.329C584.382 363.318 584.768 363.467 585.057 363.741C585.187 363.861 591.897 369.621 610.837 364.321C611.221 364.214 611.631 364.263 611.978 364.458C612.325 364.653 612.581 364.978 612.688 365.361C612.795 365.745 612.745 366.155 612.55 366.502C612.355 366.849 612.031 367.104 611.648 367.211C606.695 368.686 601.565 369.48 596.398 369.571Z" fill="#43437A"/>
<path d="M589.48 349.07C596.713 347.137 604.061 345.664 611.48 344.66L589.48 349.07Z" fill="#EDB191"/>
<path d="M589.479 350.57C589.081 350.623 588.678 350.516 588.359 350.272C588.04 350.028 587.832 349.668 587.779 349.27C587.726 348.872 587.833 348.47 588.077 348.151C588.321 347.832 588.681 347.623 589.079 347.57C596.379 345.625 603.793 344.139 611.279 343.12C611.677 343.068 612.078 343.177 612.396 343.421C612.714 343.666 612.922 344.027 612.973 344.425C613.025 344.823 612.917 345.225 612.672 345.543C612.428 345.861 612.066 346.068 611.669 346.12C604.322 347.12 597.044 348.576 589.879 350.48C589.75 350.53 589.616 350.56 589.479 350.57Z" fill="#43437A"/>
<path d="M623.666 368.641C621.096 371.991 619.666 372.181 613.586 383.521L623.666 368.641Z" fill="#EDB191"/>
<path d="M613.588 385.001C613.341 384.999 613.097 384.937 612.878 384.821C612.536 384.632 612.281 384.318 612.165 383.945C612.05 383.572 612.083 383.169 612.258 382.821C616.918 374.081 618.968 371.821 620.788 369.741C621.348 369.101 621.889 368.511 622.479 367.741C622.728 367.447 623.079 367.261 623.461 367.22C623.844 367.178 624.228 367.286 624.534 367.52C624.839 367.753 625.043 368.095 625.104 368.475C625.164 368.855 625.077 369.244 624.859 369.561C624.199 370.421 623.599 371.091 623.029 371.731C621.239 373.731 619.389 375.811 614.909 384.231C614.778 384.465 614.586 384.661 614.354 384.796C614.122 384.932 613.857 385.002 613.588 385.001Z" fill="#43437A"/>
<path d="M588.33 398.881H588.11C587.717 398.819 587.362 398.606 587.125 398.286C586.887 397.966 586.785 397.566 586.84 397.171C588.28 387.471 574.34 377.911 574.2 377.811C573.874 377.586 573.649 377.242 573.574 376.853C573.499 376.464 573.58 376.061 573.8 375.731C573.909 375.567 574.051 375.427 574.215 375.318C574.379 375.209 574.563 375.134 574.757 375.097C574.95 375.06 575.149 375.062 575.342 375.102C575.535 375.142 575.717 375.22 575.88 375.331C576.52 375.761 591.519 386.071 589.809 397.611C589.757 397.965 589.578 398.289 589.307 398.522C589.035 398.755 588.688 398.883 588.33 398.881Z" fill="#43437A"/>
<path d="M603.188 367.441C601.26 370.151 599.87 373.206 599.098 376.441L603.188 367.441Z" fill="#EDB191"/>
<path d="M599.108 377.901C599.012 377.911 598.914 377.911 598.818 377.901C598.428 377.823 598.084 377.595 597.861 377.265C597.638 376.936 597.554 376.532 597.628 376.141C598.44 372.701 599.918 369.453 601.978 366.581C602.214 366.26 602.568 366.046 602.961 365.986C603.355 365.926 603.757 366.025 604.078 366.261C604.399 366.497 604.612 366.851 604.672 367.244C604.732 367.638 604.634 368.04 604.398 368.361C602.606 370.877 601.31 373.71 600.578 376.711C600.505 377.047 600.32 377.348 600.052 377.565C599.785 377.781 599.452 377.899 599.108 377.901Z" fill="#43437A"/>
<path d="M589.18 356.64C588.517 356.695 587.859 356.486 587.351 356.056C586.842 355.627 586.525 355.013 586.47 354.35C586.414 353.687 586.624 353.029 587.054 352.521C587.483 352.012 588.097 351.695 588.76 351.64L613.53 347.34C614.184 347.226 614.857 347.376 615.399 347.758C615.942 348.139 616.311 348.721 616.425 349.375C616.539 350.029 616.388 350.701 616.007 351.244C615.625 351.787 615.043 352.156 614.39 352.27L589.61 356.57C589.469 356.603 589.324 356.626 589.18 356.64Z" fill="#FCDDD0"/>
<path d="M185.172 509C184.685 508.997 184.209 508.852 183.803 508.583C183.397 508.314 183.078 507.932 182.885 507.484C182.692 507.037 182.633 506.543 182.716 506.063C182.799 505.583 183.02 505.137 183.352 504.78C239.512 445.38 321.262 419.78 322.083 419.57C322.399 419.464 322.735 419.421 323.068 419.446C323.401 419.472 323.726 419.563 324.023 419.716C324.32 419.869 324.584 420.08 324.798 420.336C325.013 420.593 325.173 420.889 325.271 421.209C325.369 421.529 325.401 421.865 325.367 422.197C325.332 422.53 325.231 422.852 325.07 423.145C324.909 423.438 324.691 423.695 324.428 423.902C324.166 424.109 323.865 424.262 323.542 424.35C322.742 424.6 242.223 449.8 186.993 508.22C186.758 508.467 186.475 508.663 186.163 508.797C185.85 508.931 185.513 509 185.172 509Z" fill="#9FC5E0"/>
<path d="M704.3 537.541C703.659 537.539 703.044 537.291 702.58 536.848C702.117 536.405 701.841 535.802 701.81 535.161C700.25 503.101 690.811 485.381 683.121 476.161C674.901 466.261 666.93 463.801 666.85 463.771C666.213 463.585 665.678 463.155 665.359 462.573C665.04 461.992 664.965 461.308 665.151 460.671C665.336 460.035 665.767 459.498 666.348 459.179C666.929 458.86 667.614 458.785 668.25 458.971C669.7 459.391 703.65 469.971 706.8 534.971C706.816 535.3 706.768 535.628 706.657 535.937C706.546 536.247 706.375 536.532 706.154 536.775C705.933 537.018 705.666 537.216 705.369 537.356C705.071 537.496 704.749 537.576 704.42 537.591L704.3 537.541Z" fill="#9FC5E0"/>
<path d="M176.5 632.59C175.934 632.59 175.385 632.398 174.942 632.046C174.5 631.693 174.19 631.201 174.064 630.649C173.937 630.098 174.001 629.52 174.245 629.01C174.49 628.5 174.901 628.087 175.41 627.84C177.85 626.66 235.581 599.371 278.481 622.471C279.064 622.786 279.498 623.321 279.688 623.957C279.877 624.592 279.806 625.277 279.49 625.86C279.175 626.444 278.64 626.878 278.004 627.067C277.368 627.257 276.683 627.186 276.1 626.871C235.43 604.971 178.16 632.06 177.58 632.34C177.244 632.504 176.874 632.59 176.5 632.59Z" fill="#9FC5E0"/>
<path d="M111.47 756.222C111.2 756.221 110.934 756.148 110.701 756.011C82.1706 738.891 73.7907 711.012 71.7807 690.662C70.4453 677.166 71.2821 663.543 74.2602 650.312C74.2973 650.109 74.3761 649.917 74.4907 649.746C74.6053 649.575 74.7531 649.43 74.9262 649.319C75.0994 649.208 75.2935 649.134 75.4965 649.101C75.6996 649.068 75.9076 649.078 76.1069 649.129C76.3062 649.179 76.4932 649.271 76.6557 649.397C76.8182 649.523 76.9524 649.681 77.0512 649.861C77.1501 650.041 77.2112 650.24 77.2299 650.445C77.2487 650.65 77.225 650.856 77.1606 651.051C74.3177 663.98 73.5106 677.274 74.77 690.452C77.62 719.032 90.2307 740.222 112.241 753.452C112.411 753.551 112.56 753.683 112.678 753.84C112.797 753.997 112.883 754.176 112.931 754.367C112.98 754.558 112.99 754.757 112.96 754.952C112.931 755.147 112.863 755.333 112.76 755.502C112.626 755.723 112.436 755.905 112.21 756.031C111.984 756.158 111.729 756.223 111.47 756.222Z" fill="#43437A"/>
<path d="M644.498 406.362C644.221 406.358 643.951 406.278 643.716 406.131C643.481 405.984 643.291 405.775 643.167 405.527C643.043 405.279 642.99 405.002 643.013 404.726C643.036 404.45 643.135 404.185 643.298 403.961C660.898 380.131 658.168 360.211 658.138 360.011C658.109 359.814 658.118 359.614 658.166 359.42C658.214 359.227 658.3 359.045 658.418 358.885C658.537 358.725 658.686 358.589 658.857 358.487C659.027 358.384 659.216 358.316 659.413 358.286C659.61 358.257 659.811 358.266 660.004 358.314C660.198 358.362 660.38 358.448 660.54 358.567C660.701 358.685 660.835 358.834 660.938 359.005C661.041 359.175 661.109 359.364 661.138 359.561C661.268 360.421 664.138 380.841 645.748 405.751C645.605 405.947 645.416 406.105 645.199 406.211C644.981 406.317 644.741 406.369 644.498 406.362Z" fill="#43437A"/>
<path d="M711.668 719.87C711.401 719.868 711.14 719.796 710.91 719.661C710.68 719.526 710.49 719.332 710.358 719.1C710.178 718.756 710.139 718.354 710.249 717.981C710.359 717.608 710.609 717.292 710.948 717.1C735.218 703.64 746.448 678.64 744.298 642.81C743.075 625.618 739.481 608.678 733.618 592.471C733.533 592.285 733.488 592.084 733.483 591.88C733.479 591.676 733.516 591.473 733.593 591.284C733.669 591.095 733.783 590.924 733.928 590.78C734.074 590.637 734.246 590.525 734.436 590.451C734.626 590.376 734.83 590.342 735.034 590.349C735.238 590.355 735.438 590.404 735.623 590.491C735.807 590.578 735.972 590.702 736.107 590.855C736.242 591.008 736.344 591.186 736.408 591.38C742.389 607.878 746.05 625.126 747.288 642.63C749.478 679.19 737.418 705.851 712.398 719.721C712.172 719.832 711.92 719.884 711.668 719.87Z" fill="#43437A"/>
<path d="M161.328 806.08C160.93 806.08 160.549 805.922 160.268 805.641C159.986 805.359 159.828 804.978 159.828 804.58C159.828 804.182 159.986 803.801 160.268 803.52C160.549 803.238 160.93 803.08 161.328 803.08L693.458 797.66C693.856 797.66 694.237 797.818 694.519 798.099C694.8 798.38 694.958 798.762 694.958 799.16C694.958 799.558 694.8 799.939 694.519 800.221C694.237 800.502 693.856 800.66 693.458 800.66L161.328 806.08Z" fill="#43437A"/>
<path d="M737.889 824.5H664.199C663.801 824.5 663.42 824.342 663.139 824.061C662.857 823.779 662.699 823.398 662.699 823C662.699 822.602 662.857 822.221 663.139 821.939C663.42 821.658 663.801 821.5 664.199 821.5H737.889C738.286 821.5 738.668 821.658 738.949 821.939C739.231 822.221 739.389 822.602 739.389 823C739.389 823.398 739.231 823.779 738.949 824.061C738.668 824.342 738.286 824.5 737.889 824.5Z" fill="#43437A"/>
<path d="M193.84 824.5H105C104.602 824.5 104.221 824.342 103.939 824.061C103.658 823.779 103.5 823.398 103.5 823C103.5 822.602 103.658 822.221 103.939 821.939C104.221 821.658 104.602 821.5 105 821.5H193.87C194.268 821.5 194.649 821.658 194.931 821.939C195.212 822.221 195.37 822.602 195.37 823C195.37 823.398 195.212 823.779 194.931 824.061C194.649 824.342 194.268 824.5 193.87 824.5H193.84Z" fill="#43437A"/>
<path d="M482.121 189.411C481.723 189.411 481.342 189.253 481.06 188.971C480.779 188.69 480.621 188.308 480.621 187.911C480.621 150.631 453.681 144.111 452.531 143.851C452.328 143.819 452.134 143.745 451.961 143.635C451.788 143.525 451.639 143.38 451.524 143.211C451.409 143.041 451.33 142.849 451.292 142.648C451.254 142.446 451.257 142.239 451.302 142.038C451.348 141.838 451.433 141.65 451.554 141.484C451.676 141.318 451.83 141.179 452.007 141.075C452.184 140.971 452.38 140.905 452.584 140.88C452.787 140.855 452.994 140.872 453.191 140.931C453.491 140.991 483.621 148.151 483.621 187.931C483.616 188.325 483.455 188.701 483.175 188.978C482.894 189.255 482.515 189.411 482.121 189.411Z" fill="#43437A"/>
<path d="M584.001 331.301C583.593 331.304 583.191 331.204 582.831 331.011C582.252 330.694 581.821 330.16 581.634 329.527C581.447 328.894 581.518 328.212 581.831 327.631C591.141 310.051 591.291 296.421 591.291 296.281C591.296 295.621 591.561 294.989 592.029 294.522C592.497 294.056 593.131 293.794 593.791 293.791C594.119 293.791 594.443 293.856 594.746 293.981C595.049 294.107 595.324 294.292 595.556 294.524C595.787 294.756 595.97 295.032 596.095 295.335C596.219 295.638 596.283 295.963 596.281 296.291C596.281 296.891 596.171 311.211 586.281 329.971C586.063 330.383 585.734 330.726 585.331 330.961C584.928 331.196 584.467 331.314 584.001 331.301Z" fill="#9FC5E0"/>
<path d="M433.402 774.22C438.262 774.22 442.202 770.271 442.202 765.4C442.202 760.529 438.262 756.58 433.402 756.58C428.542 756.58 424.602 760.529 424.602 765.4C424.602 770.271 428.542 774.22 433.402 774.22Z" fill="#00789C"/>
<path d="M541.609 666.929C546.469 666.929 550.409 662.98 550.409 658.109C550.409 653.238 546.469 649.289 541.609 649.289C536.749 649.289 532.809 653.238 532.809 658.109C532.809 662.98 536.749 666.929 541.609 666.929Z" fill="#00789C"/>
<path d="M545.119 782.358H322.508C322.447 782.357 322.389 782.334 322.343 782.294C322.297 782.254 322.268 782.199 322.258 782.139C311.978 719.639 310.338 660.458 322.258 606.508C322.272 606.452 322.304 606.402 322.349 606.366C322.394 606.329 322.45 606.309 322.508 606.309H545.149C545.203 606.309 545.255 606.326 545.298 606.358C545.342 606.391 545.373 606.437 545.388 606.489C559.648 657.002 559.648 715.559 545.388 782.159C545.374 782.219 545.34 782.271 545.29 782.308C545.241 782.345 545.18 782.362 545.119 782.358Z" fill="#00C209"/>
<path d="M545.12 783.858H322.509C322.093 783.859 321.691 783.711 321.374 783.442C321.057 783.173 320.846 782.799 320.78 782.389C309.61 714.459 309.61 656.829 320.78 606.179C320.868 605.791 321.085 605.444 321.395 605.195C321.706 604.946 322.092 604.81 322.49 604.809H545.129C545.51 604.81 545.881 604.935 546.185 605.164C546.49 605.392 546.712 605.713 546.82 606.079C561.07 656.589 561.08 715.939 546.82 782.469C546.734 782.858 546.52 783.207 546.211 783.459C545.903 783.711 545.518 783.852 545.12 783.858ZM323.57 780.858H544.12C557.97 715.598 557.99 657.388 544.19 607.858H323.5C312.68 657.578 312.7 714.208 323.57 780.858Z" fill="#43437A"/>
<path d="M323.002 606.189L350.712 578.68C350.763 578.636 350.826 578.611 350.892 578.609H517.272C517.338 578.611 517.402 578.636 517.453 578.68L545.163 606.189C545.197 606.226 545.221 606.271 545.23 606.321C545.239 606.37 545.234 606.422 545.215 606.468C545.196 606.515 545.164 606.555 545.123 606.583C545.081 606.612 545.033 606.628 544.983 606.629H323.182C323.132 606.628 323.083 606.612 323.042 606.583C323 606.555 322.969 606.515 322.95 606.468C322.931 606.422 322.925 606.37 322.934 606.321C322.944 606.271 322.968 606.226 323.002 606.189Z" fill="#00C209"/>
<path d="M544.942 608.129H323.142C322.795 608.128 322.457 608.024 322.169 607.83C321.881 607.637 321.657 607.363 321.524 607.042C321.392 606.722 321.357 606.369 321.424 606.029C321.491 605.689 321.658 605.376 321.902 605.129L349.612 577.62C349.775 577.457 349.968 577.328 350.181 577.24C350.394 577.153 350.621 577.108 350.852 577.109H517.232C517.463 577.108 517.69 577.153 517.903 577.24C518.116 577.328 518.309 577.457 518.472 577.62L546.182 605.129C546.426 605.376 546.592 605.689 546.659 606.029C546.726 606.369 546.692 606.722 546.56 607.042C546.427 607.363 546.203 607.637 545.915 607.83C545.627 608.024 545.289 608.128 544.942 608.129ZM326.162 605.129H541.922L516.722 580.129H351.362L326.162 605.129Z" fill="#43437A"/>
<path d="M455 657.18C449.539 657.18 444.302 659.349 440.44 663.21C436.579 667.071 434.41 672.309 434.41 677.77C434.41 677.99 434.41 678.229 434.41 678.459C434.308 673.071 432.096 667.937 428.25 664.162C424.404 660.387 419.229 658.271 413.84 658.27C402.46 658.27 392.3 667.529 393.24 678.859C394.99 699.779 420.57 718.59 430.51 725.16C431.648 725.91 432.992 726.286 434.354 726.235C435.717 726.185 437.03 725.711 438.11 724.879C448.22 717.129 475.61 694.57 475.61 677.77C475.61 675.064 475.077 672.385 474.041 669.885C473.005 667.386 471.486 665.115 469.572 663.203C467.658 661.291 465.386 659.775 462.886 658.741C460.385 657.708 457.706 657.177 455 657.18Z" fill="#9FC5E0"/>
<path d="M434.121 727.74C432.549 727.74 431.012 727.278 429.701 726.41C418.881 719.27 393.541 700.409 391.761 678.979C391.552 676.273 391.912 673.552 392.818 670.993C393.724 668.433 395.155 666.092 397.021 664.12C399.168 661.801 401.772 659.951 404.668 658.686C407.565 657.421 410.691 656.769 413.851 656.77C415.559 660.893 418.477 664.401 422.22 666.831C425.963 669.261 430.355 670.498 434.816 670.38C439.277 670.262 443.597 668.794 447.206 666.169C450.816 663.545 453.544 659.887 455.032 655.68C460.888 655.688 466.502 658.017 470.643 662.158C474.784 666.299 477.113 671.913 477.121 677.77C477.121 695 450.491 717.289 439.041 726.069C437.63 727.152 435.901 727.74 434.121 727.74ZM413.851 659.74C411.108 659.753 408.397 660.325 405.883 661.422C403.369 662.519 401.107 664.118 399.232 666.12C397.648 667.787 396.431 669.768 395.66 671.935C394.888 674.102 394.578 676.406 394.751 678.7C396.421 698.78 420.901 716.979 431.351 723.879C432.23 724.454 433.267 724.742 434.317 724.703C435.366 724.663 436.378 724.299 437.211 723.66C445.871 717.02 474.121 694.08 474.121 677.74C474.121 672.677 472.11 667.821 468.53 664.241C464.95 660.661 460.095 658.649 455.032 658.649C449.969 658.649 445.113 660.661 441.533 664.241C437.952 667.821 435.942 672.677 435.942 677.74C435.942 677.93 435.942 678.119 435.942 678.319V678.479H432.942C432.819 673.49 430.757 668.745 427.193 665.251C423.628 661.758 418.842 659.791 413.851 659.77V659.74Z" fill="#43437A"/>
<path d="M475.62 595.82H396.5C396.102 595.82 395.721 595.663 395.439 595.381C395.158 595.1 395 594.718 395 594.32C395 593.922 395.158 593.541 395.439 593.26C395.721 592.978 396.102 592.82 396.5 592.82H475.62C476.018 592.82 476.399 592.978 476.681 593.26C476.962 593.541 477.12 593.922 477.12 594.32C477.12 594.718 476.962 595.1 476.681 595.381C476.399 595.663 476.018 595.82 475.62 595.82Z" fill="#43437A"/>
<path d="M471.3 594.32C471.43 594.16 471.571 594 471.691 593.83C473.267 591.631 474.394 589.144 475.008 586.51C475.623 583.876 475.713 581.147 475.273 578.478C474.833 575.809 473.871 573.253 472.443 570.956C471.015 568.659 469.149 566.665 466.951 565.09C464.753 563.514 462.266 562.386 459.632 561.772C456.997 561.157 454.268 561.067 451.599 561.507C448.931 561.948 446.374 562.909 444.077 564.337C441.78 565.765 439.787 567.631 438.211 569.83L437.791 570.38C440.845 565.935 442.031 560.469 441.096 555.157C440.161 549.846 437.179 545.114 432.791 541.98C423.551 535.36 409.89 536.98 404.06 546.74C396.06 560.15 399.461 580.289 403.481 594.299L471.3 594.32Z" fill="#9FC5E0"/>
<path d="M472.002 595.82H402.352L402.042 594.74C397.842 580.1 394.552 559.74 402.782 545.99C404.188 543.669 406.065 541.669 408.292 540.119C410.519 538.569 413.047 537.503 415.712 536.99C418.813 536.346 422.013 536.352 425.111 537.008C428.209 537.664 431.138 538.955 433.712 540.8C432.419 541.951 431.368 543.347 430.62 544.907C429.872 546.468 429.441 548.161 429.352 549.89C429.264 551.618 429.521 553.347 430.106 554.976C430.692 556.604 431.596 558.1 432.765 559.376C433.933 560.652 435.344 561.684 436.915 562.41C438.486 563.136 440.186 563.543 441.915 563.607C443.644 563.67 445.369 563.389 446.989 562.78C448.609 562.172 450.092 561.247 451.352 560.06C455.662 559.35 460.086 559.933 464.065 561.736C468.044 563.539 471.4 566.48 473.708 570.189C476.016 573.898 477.173 578.208 477.033 582.574C476.893 586.94 475.463 591.167 472.922 594.72C472.832 594.85 472.722 594.98 472.622 595.11L472.002 595.82ZM404.612 592.82H470.542C473.438 588.689 474.581 583.581 473.722 578.61C472.862 573.639 470.071 569.21 465.956 566.291C461.841 563.372 456.739 562.201 451.764 563.033C446.788 563.865 442.344 566.632 439.402 570.73L439.052 571.19L438.952 571.32L436.532 569.55C439.341 565.424 440.43 560.366 439.569 555.45C438.709 550.534 435.965 546.147 431.922 543.22C429.683 541.638 427.145 540.529 424.463 539.96C421.781 539.391 419.011 539.374 416.322 539.91C414.057 540.338 411.907 541.238 410.012 542.55C408.117 543.863 406.519 545.56 405.322 547.53C397.912 560 400.762 578.85 404.642 592.82H404.612Z" fill="#43437A"/>
<path d="M535.229 768.06C534.839 768.063 534.453 767.974 534.104 767.8C533.755 767.627 533.452 767.374 533.218 767.061C532.985 766.749 532.828 766.386 532.76 766.002C532.693 765.618 532.716 765.224 532.829 764.85C551.919 700.14 535.129 621.65 534.949 620.85C534.807 620.202 534.929 619.523 535.287 618.965C535.645 618.406 536.211 618.012 536.859 617.87C537.508 617.728 538.185 617.85 538.744 618.208C539.303 618.566 539.697 619.132 539.839 619.78C540.009 620.58 557.089 700.28 537.629 766.25C537.478 766.771 537.162 767.228 536.729 767.554C536.297 767.881 535.771 768.058 535.229 768.06Z" fill="#9FC5E0"/>
<path d="M316.781 637.7C316.781 637.7 288.551 633.159 278.261 661.589C267.971 690.019 267.321 719.59 283.211 736.72C299.101 753.85 317.391 754.41 329.211 748.43C341.031 742.45 342.711 729.33 332.291 716.14C332.291 716.14 350.461 701.93 330.761 679.81C330.761 679.81 349.531 648.219 316.611 649.529L316.781 637.7Z" fill="#EDB191"/>
<path d="M271.003 705.249C270.103 691.689 272.853 676.489 278.243 661.589C288.533 633.159 316.763 637.7 316.763 637.7L316.543 649.529C331.083 648.949 335.543 654.799 335.983 661.529C336.543 669.999 330.693 679.839 330.693 679.839C337.063 686.989 339.473 693.309 339.823 698.589C340.553 709.659 332.223 716.169 332.223 716.169C336.503 721.589 338.732 726.999 339.062 731.899C339.522 738.899 336.063 744.899 329.143 748.459C317.373 754.459 299.143 753.909 283.143 736.749C275.583 728.579 271.763 717.609 270.953 705.279L271.003 705.249ZM268.613 705.439C269.513 719.059 273.823 730.119 281.433 738.329C289.043 746.539 297.953 751.809 307.223 753.579C314.988 755.128 323.048 754.074 330.153 750.579C337.793 746.699 341.873 739.849 341.343 731.789C341.013 726.789 338.943 721.569 335.343 716.479C337.67 714.12 339.477 711.299 340.648 708.199C341.82 705.099 342.328 701.788 342.143 698.479C341.733 692.259 338.832 685.909 333.522 679.579C335.192 676.369 338.782 668.579 338.312 661.419C337.882 654.919 334.103 647.37 318.913 647.22L319.093 637.819C319.098 637.753 319.098 637.686 319.093 637.619C319.057 637.086 318.839 636.581 318.475 636.19C318.11 635.798 317.622 635.544 317.093 635.47C311.585 634.803 306 635.259 300.673 636.809C292.533 639.169 281.673 645.249 276.003 660.869C270.293 676.649 267.743 692.069 268.623 705.479L268.613 705.439Z" fill="#43437A"/>
<path d="M317.083 720.729C306.439 720.686 296.158 716.854 288.083 709.918C287.805 709.636 287.648 709.255 287.648 708.858C287.648 708.462 287.805 708.081 288.083 707.798C288.222 707.658 288.386 707.547 288.568 707.471C288.75 707.395 288.945 707.355 289.143 707.355C289.34 707.355 289.536 707.395 289.718 707.471C289.9 707.547 290.065 707.658 290.203 707.798C290.943 708.498 308.433 725.008 334.413 714.108C334.78 713.955 335.194 713.953 335.562 714.104C335.931 714.255 336.224 714.546 336.378 714.914C336.532 715.281 336.534 715.694 336.383 716.063C336.232 716.431 335.941 716.725 335.573 716.878C329.731 719.389 323.442 720.699 317.083 720.729Z" fill="#43437A"/>
<path d="M315.392 685.149C308.168 685.075 300.979 684.124 293.983 682.319C293.788 682.271 293.604 682.185 293.443 682.065C293.282 681.945 293.147 681.794 293.046 681.621C292.944 681.447 292.878 681.256 292.852 681.057C292.826 680.858 292.841 680.655 292.894 680.462C292.948 680.269 293.039 680.088 293.164 679.931C293.289 679.773 293.444 679.643 293.62 679.546C293.796 679.45 293.99 679.39 294.189 679.37C294.389 679.35 294.591 679.37 294.783 679.429C295.013 679.489 318.143 685.719 332.193 679.009C332.371 678.924 332.564 678.875 332.761 678.865C332.957 678.855 333.154 678.884 333.34 678.95C333.525 679.016 333.696 679.118 333.843 679.25C333.989 679.382 334.109 679.541 334.193 679.719C334.278 679.897 334.327 680.09 334.337 680.287C334.347 680.483 334.318 680.681 334.252 680.866C334.186 681.052 334.084 681.223 333.952 681.369C333.82 681.516 333.661 681.635 333.483 681.719C328.063 684.309 321.552 685.149 315.392 685.149Z" fill="#43437A"/>
<path d="M296.751 651.809C296.428 651.809 296.115 651.706 295.856 651.513C295.597 651.321 295.407 651.051 295.314 650.742C295.221 650.434 295.229 650.103 295.339 649.8C295.448 649.497 295.652 649.237 295.921 649.059C304.711 643.239 318.92 646.919 319.56 647.059C319.751 647.109 319.93 647.197 320.087 647.317C320.243 647.436 320.374 647.585 320.473 647.756C320.572 647.926 320.637 648.115 320.663 648.31C320.689 648.505 320.676 648.703 320.626 648.894C320.575 649.084 320.487 649.263 320.368 649.419C320.248 649.576 320.099 649.708 319.928 649.806C319.758 649.905 319.57 649.97 319.375 649.996C319.179 650.022 318.981 650.009 318.791 649.959C318.661 649.959 305.241 646.469 297.571 651.539C297.331 651.709 297.045 651.804 296.751 651.809Z" fill="#43437A"/>
<path d="M330.393 660.769C330.049 660.767 329.709 660.696 329.393 660.559C313.203 653.469 297.884 659.439 297.734 659.499C297.122 659.73 296.443 659.711 295.845 659.448C295.246 659.184 294.774 658.697 294.531 658.09C294.288 657.483 294.292 656.805 294.543 656.201C294.794 655.597 295.272 655.115 295.874 654.859C296.574 654.579 313.314 648.059 331.404 655.979C331.93 656.209 332.36 656.613 332.623 657.123C332.886 657.633 332.966 658.218 332.848 658.78C332.731 659.342 332.423 659.846 331.978 660.208C331.533 660.57 330.978 660.768 330.404 660.769H330.393Z" fill="#FCDDD0"/>
<path d="M313.874 693.309C306.837 693.222 299.897 691.644 293.514 688.679C293.218 688.534 292.954 688.331 292.737 688.083C292.519 687.835 292.353 687.546 292.247 687.233C292.142 686.92 292.1 686.59 292.123 686.261C292.146 685.932 292.234 685.611 292.382 685.316C292.53 685.021 292.735 684.758 292.985 684.542C293.235 684.327 293.524 684.163 293.837 684.06C294.151 683.957 294.482 683.917 294.811 683.943C295.14 683.969 295.46 684.059 295.754 684.209C295.974 684.319 314.275 693.209 329.115 684.299C329.396 684.13 329.708 684.019 330.033 683.971C330.357 683.923 330.689 683.939 331.007 684.019C331.326 684.099 331.625 684.241 331.889 684.436C332.153 684.632 332.375 684.878 332.544 685.159C332.713 685.441 332.824 685.753 332.872 686.078C332.92 686.403 332.904 686.734 332.825 687.052C332.745 687.371 332.603 687.671 332.408 687.934C332.212 688.198 331.966 688.42 331.684 688.589C326.291 691.763 320.131 693.395 313.874 693.309Z" fill="#FCDDD0"/>
<path d="M600.435 288.862C598.395 283.795 594.427 279.745 589.402 277.605C584.376 275.464 578.707 275.407 573.64 277.447C568.573 279.486 564.524 283.455 562.383 288.48C560.242 293.505 560.185 299.175 562.225 304.242C562.315 304.442 562.385 304.672 562.465 304.892C560.351 299.938 556.379 296.012 551.402 293.955C546.424 291.898 540.839 291.875 535.845 293.892C525.295 298.142 519.325 310.522 524.435 320.682C530.355 332.472 544.705 339.962 557.435 344.502C563.085 337.822 569.815 337.932 573.255 343.012C574.377 344.97 574.977 347.184 574.995 349.442L576.285 349.712C577.622 349.983 579.01 349.83 580.256 349.275C581.502 348.719 582.544 347.788 583.235 346.612C589.725 335.592 606.705 304.442 600.435 288.862Z" fill="#9FC5E0"/>
<path d="M577.594 351.291C577.056 351.291 576.521 351.238 575.994 351.131L574.694 350.861C574.374 350.792 574.085 350.622 573.87 350.375C573.655 350.128 573.527 349.817 573.504 349.491C573.494 347.5 572.984 345.544 572.023 343.801C571.489 342.939 570.757 342.217 569.888 341.695C569.018 341.173 568.035 340.867 567.023 340.801C564.243 340.651 561.253 342.291 558.603 345.431C558.405 345.662 558.141 345.828 557.847 345.907C557.552 345.985 557.241 345.973 556.954 345.871C539.574 339.691 528.183 331.431 523.103 321.311C521.895 318.881 521.211 316.224 521.096 313.512C520.98 310.8 521.436 308.095 522.434 305.571C523.554 302.615 525.276 299.924 527.489 297.668C529.703 295.411 532.36 293.638 535.294 292.461C535.593 294.15 536.223 295.763 537.145 297.209C538.068 298.654 539.267 299.904 540.673 300.886C542.079 301.869 543.664 302.565 545.339 302.934C547.014 303.304 548.745 303.34 550.434 303.041C552.122 302.741 553.736 302.112 555.182 301.189C556.627 300.266 557.877 299.068 558.859 297.662C559.842 296.256 560.538 294.671 560.907 292.996C561.277 291.321 561.313 289.59 561.014 287.901C562.725 283.88 565.592 280.457 569.249 278.065C572.906 275.673 577.191 274.42 581.561 274.464C585.93 274.508 590.189 275.847 593.798 278.312C597.406 280.776 600.203 284.256 601.834 288.311C608.264 304.311 591.884 334.911 584.544 347.311C583.832 348.522 582.817 349.526 581.598 350.224C580.379 350.922 578.998 351.29 577.594 351.291ZM576.404 348.151H576.594C577.625 348.359 578.696 348.241 579.656 347.812C580.617 347.384 581.42 346.667 581.954 345.761C587.504 336.361 605.144 304.531 599.044 289.381C597.153 284.684 593.474 280.931 588.815 278.946C584.157 276.962 578.901 276.91 574.204 278.801C569.507 280.692 565.754 284.371 563.769 289.03C561.785 293.688 561.733 298.944 563.624 303.641L563.834 304.211V304.341C563.968 304.708 563.953 305.114 563.793 305.47C563.632 305.827 563.338 306.107 562.975 306.251C562.611 306.394 562.205 306.39 561.845 306.238C561.484 306.087 561.197 305.801 561.044 305.441C559.073 300.856 555.393 297.221 550.784 295.307C546.176 293.393 541.003 293.351 536.364 295.191C533.825 296.228 531.523 297.772 529.601 299.729C527.678 301.685 526.175 304.014 525.184 306.571C524.337 308.711 523.949 311.005 524.044 313.304C524.139 315.603 524.715 317.857 525.734 319.921C531.454 331.301 545.674 338.521 556.964 342.651C560.074 339.301 563.674 337.571 567.134 337.751C568.61 337.843 570.044 338.284 571.318 339.036C572.592 339.789 573.67 340.832 574.464 342.081C575.595 343.916 576.261 346 576.404 348.151Z" fill="#43437A"/>
<path d="M607.562 287C607.267 287.002 606.978 286.915 606.732 286.751C606.486 286.587 606.294 286.354 606.182 286.08C602.122 276.3 596.463 270.38 589.373 268.47C577.373 265.25 564.933 274.61 564.803 274.71C564.486 274.928 564.097 275.015 563.718 274.955C563.338 274.894 562.995 274.69 562.762 274.385C562.528 274.079 562.421 273.695 562.462 273.313C562.503 272.931 562.69 272.579 562.983 272.33C563.533 271.9 576.673 261.97 590.133 265.57C598.183 267.72 604.513 274.24 608.953 284.93C609.033 285.114 609.075 285.313 609.078 285.513C609.081 285.714 609.044 285.914 608.969 286.1C608.893 286.286 608.781 286.456 608.639 286.598C608.498 286.741 608.328 286.853 608.142 286.93C607.956 286.991 607.758 287.015 607.562 287Z" fill="#43437A"/>
<path d="M729.721 109.152C725.431 106.801 720.72 105.318 715.857 104.788C710.993 104.258 706.073 104.691 701.377 106.062C696.681 107.434 692.301 109.717 688.487 112.781C684.674 115.846 681.502 119.631 679.152 123.922C678.962 124.262 678.741 124.632 678.521 124.992C683.045 116.354 684.001 106.285 681.181 96.9504C678.361 87.6157 671.992 79.76 663.442 75.0717C645.442 65.1917 621.231 71.0718 612.881 89.8418C597.461 124.552 621.691 176.632 631.761 195.682C632.913 197.863 634.718 199.631 636.923 200.737C639.128 201.843 641.623 202.233 644.061 201.852C666.831 198.332 729.891 186.352 744.491 159.712C749.236 151.048 750.345 140.855 747.575 131.373C744.806 121.892 738.383 113.898 729.721 109.152Z" fill="#9FC5E0"/>
<path d="M642.242 203.491C639.814 203.491 637.43 202.828 635.35 201.576C633.269 200.323 631.569 198.527 630.432 196.381C619.572 175.821 595.962 124.221 611.512 89.2312C613.464 84.9085 616.3 81.0428 619.838 77.8838C623.376 74.7249 627.537 72.3427 632.052 70.8912C637.313 69.129 642.881 68.4744 648.407 68.9683C653.933 69.4622 659.297 71.0941 664.162 73.7613C662.491 82.0281 663.564 90.6147 667.219 98.2156C670.874 105.817 676.911 112.016 684.412 115.872C691.913 119.728 700.468 121.029 708.777 119.577C717.085 118.126 724.693 114.002 730.443 107.831C739.446 112.778 746.12 121.094 748.999 130.955C751.879 140.816 750.729 151.417 745.802 160.431C731.092 187.281 669.912 199.431 644.292 203.331C643.614 203.439 642.929 203.493 642.242 203.491ZM644.712 71.8514C640.736 71.841 636.785 72.4758 633.012 73.7312C628.891 75.0542 625.093 77.2253 621.862 80.105C618.63 82.9847 616.039 86.5091 614.252 90.4512C599.252 124.241 622.422 174.811 633.092 194.981C634.1 196.885 635.676 198.426 637.601 199.392C639.526 200.358 641.704 200.701 643.832 200.371C663.482 197.371 728.712 185.371 743.172 158.991C745.507 154.869 747 150.324 747.564 145.62C748.127 140.916 747.749 136.147 746.453 131.59C745.157 127.033 742.968 122.779 740.014 119.076C737.059 115.372 733.398 112.293 729.243 110.016C725.088 107.74 720.522 106.312 715.811 105.816C711.099 105.32 706.336 105.765 701.798 107.126C697.26 108.487 693.038 110.736 689.377 113.743C685.716 116.75 682.689 120.454 680.472 124.641C680.312 124.921 680.142 125.221 679.962 125.511L679.812 125.761L677.193 124.301C681.489 116.003 682.38 106.356 679.678 97.4102C676.976 88.4645 670.893 80.9244 662.722 76.3912C657.191 73.3999 651 71.8395 644.712 71.8514Z" fill="#43437A"/>
<path d="M653.743 102.45C653.469 102.452 653.2 102.378 652.966 102.237C652.731 102.096 652.54 101.893 652.413 101.65C615.413 30.7402 548.073 12.6503 547.413 12.5103C547.222 12.4611 547.042 12.3748 546.885 12.2562C546.727 12.1376 546.594 11.9889 546.494 11.8189C546.394 11.649 546.327 11.4611 546.3 11.2657C546.272 11.0703 546.284 10.8713 546.333 10.6803C546.382 10.4892 546.468 10.3099 546.587 10.1522C546.706 9.9945 546.855 9.86161 547.024 9.76132C547.194 9.66103 547.382 9.59509 547.577 9.56747C547.773 9.53985 547.972 9.55118 548.163 9.60043C548.873 9.79043 565.693 14.2104 587.403 27.6004C616.087 45.2923 639.47 70.3894 655.093 100.25C655.269 100.601 655.301 101.007 655.182 101.381C655.062 101.755 654.8 102.067 654.453 102.25C654.238 102.378 653.993 102.446 653.743 102.45Z" fill="#43437A"/>
<path d="M633.362 105.38C633.113 105.38 632.867 105.318 632.647 105.199C632.427 105.08 632.239 104.909 632.102 104.7C603.512 60.9903 568.462 62.1803 568.102 62.2003C567.905 62.2108 567.708 62.1825 567.522 62.1168C567.336 62.0511 567.164 61.9494 567.018 61.8175C566.871 61.6856 566.752 61.5262 566.667 61.3483C566.582 61.1703 566.532 60.9774 566.522 60.7804C566.511 60.5834 566.54 60.3863 566.606 60.2003C566.671 60.0143 566.773 59.8429 566.904 59.6962C567.036 59.5494 567.196 59.4302 567.374 59.3451C567.552 59.26 567.746 59.2108 567.943 59.2003C569.443 59.1303 605.012 57.8104 634.602 103.06C634.749 103.286 634.834 103.548 634.845 103.817C634.856 104.087 634.794 104.354 634.666 104.592C634.538 104.829 634.349 105.028 634.117 105.167C633.886 105.305 633.621 105.379 633.352 105.38H633.362Z" fill="#43437A"/>
<path d="M721.382 170.39C720.953 170.388 720.532 170.277 720.157 170.067C719.783 169.857 719.468 169.555 719.242 169.19C719.071 168.911 718.957 168.6 718.906 168.276C718.854 167.952 718.867 167.621 718.945 167.303C719.022 166.984 719.161 166.684 719.355 166.419C719.548 166.154 719.792 165.93 720.073 165.76C730.423 159.4 736.002 152.11 736.672 144.08C737.802 130.52 724.582 118.85 724.452 118.73C724.204 118.515 724.001 118.253 723.854 117.959C723.707 117.665 723.619 117.345 723.596 117.017C723.573 116.689 723.614 116.36 723.718 116.048C723.822 115.737 723.987 115.448 724.202 115.2C724.418 114.952 724.68 114.749 724.974 114.602C725.268 114.455 725.587 114.367 725.915 114.344C726.243 114.321 726.572 114.362 726.884 114.466C727.196 114.57 727.484 114.735 727.733 114.95C728.353 115.49 742.973 128.37 741.653 144.46C740.863 154.18 734.483 162.77 722.653 170.02C722.27 170.256 721.831 170.383 721.382 170.39Z" fill="#9FC5E0"/>
<path d="M176.002 82.9323C173.911 84.0439 172.06 85.5573 170.555 87.3857C169.05 89.2141 167.92 91.3216 167.231 93.5873C166.541 95.8531 166.305 98.2326 166.537 100.59C166.769 102.946 167.464 105.235 168.582 107.322C168.672 107.492 168.762 107.682 168.852 107.872C166.557 103.744 162.732 100.683 158.201 99.3488C153.67 98.015 148.797 98.5156 144.632 100.742C135.842 105.432 131.812 116.742 137.212 125.142C147.212 140.582 174.702 144.572 185.092 145.552C186.281 145.661 187.475 145.397 188.507 144.797C189.539 144.196 190.358 143.29 190.852 142.202C195.462 132.042 207.322 103.322 200.402 90.3525C199.291 88.26 197.777 86.4074 195.947 84.9013C194.118 83.3952 192.01 82.265 189.743 81.5756C187.476 80.8862 185.095 80.6511 182.737 80.884C180.379 81.1168 178.09 81.8129 176.002 82.9323Z" fill="#9FC5E0"/>
<path d="M185.582 147.072H184.912C173.592 146.012 146.152 141.841 135.912 125.981C134.621 123.956 133.769 121.682 133.411 119.307C133.053 116.932 133.196 114.508 133.832 112.191C134.533 109.494 135.782 106.97 137.503 104.778C139.224 102.586 141.378 100.773 143.832 99.4514C146.877 101.831 150.56 103.253 154.415 103.537C158.27 103.82 162.122 102.952 165.482 101.043C168.843 99.1344 171.562 96.2702 173.292 92.8142C175.022 89.3582 175.687 85.4658 175.202 81.6313C179.77 79.1965 185.115 78.6714 190.069 80.1709C195.023 81.6704 199.181 85.0723 201.632 89.6313C208.772 103.011 197.362 131.272 192.122 142.812C191.553 144.072 190.635 145.143 189.476 145.898C188.317 146.653 186.965 147.06 185.582 147.072ZM153.002 100.141C150.315 100.137 147.669 100.8 145.302 102.072C143.21 103.199 141.371 104.742 139.897 106.606C138.424 108.47 137.347 110.616 136.732 112.911C136.202 114.828 136.079 116.835 136.372 118.802C136.665 120.768 137.366 122.652 138.432 124.332C147.952 139.082 174.302 143.031 185.192 144.051C186.07 144.134 186.951 143.94 187.713 143.497C188.475 143.054 189.08 142.385 189.442 141.582C193.382 132.892 205.732 103.582 199.032 91.0515C196.966 87.1874 193.451 84.301 189.259 83.0261C185.067 81.7512 180.539 82.1919 176.672 84.2515C172.805 86.3178 169.916 89.8338 168.64 94.0278C167.363 98.2218 167.803 102.751 169.862 106.622C169.942 106.762 170.012 106.912 170.092 107.072L170.162 107.201L167.502 108.602C166.054 106.031 163.948 103.892 161.399 102.405C158.851 100.918 155.952 100.137 153.002 100.141Z" fill="#43437A"/>
<path d="M185.174 94.0009C184.927 93.9995 184.684 93.9377 184.467 93.8207C184.249 93.7037 184.064 93.5352 183.927 93.33C183.789 93.1247 183.704 92.8888 183.68 92.6432C183.655 92.3976 183.691 92.1494 183.784 91.9208C184.054 91.2708 190.584 75.761 206.444 59.351C221.094 44.201 246.753 25.5608 285.853 22.7208C286.05 22.7064 286.249 22.7308 286.436 22.7929C286.624 22.8549 286.798 22.9533 286.947 23.0824C287.097 23.2115 287.219 23.3688 287.307 23.5453C287.396 23.7218 287.449 23.914 287.464 24.111C287.478 24.308 287.453 24.5057 287.391 24.6932C287.329 24.8808 287.231 25.0542 287.102 25.2037C286.973 25.3532 286.816 25.4759 286.639 25.5646C286.463 25.6533 286.271 25.7064 286.074 25.7208C247.974 28.4808 222.964 46.6109 208.694 61.3409C193.184 77.3409 186.624 92.9209 186.554 93.0709C186.443 93.3464 186.253 93.5823 186.007 93.7482C185.761 93.914 185.47 94.0021 185.174 94.0009Z" fill="#43437A"/>
<path d="M177.584 53.9405C177.305 53.9369 177.031 53.8574 176.794 53.7105C176.626 53.6073 176.481 53.4719 176.366 53.3123C176.251 53.1527 176.169 52.9721 176.125 52.7806C176.08 52.5891 176.074 52.3905 176.106 52.1966C176.139 52.0027 176.209 51.817 176.313 51.6505C176.543 51.2805 199.784 14.2006 237.754 0.0906447C238.119 -0.0096954 238.509 0.032015 238.845 0.207344C239.181 0.382673 239.438 0.678563 239.564 1.03571C239.691 1.39286 239.678 1.78459 239.527 2.13239C239.377 2.48019 239.101 2.75818 238.754 2.91047C201.754 16.6505 179.033 52.9105 178.813 53.2305C178.682 53.4401 178.501 53.6144 178.287 53.7381C178.073 53.8618 177.831 53.9312 177.584 53.9405Z" fill="#43437A"/>
<path d="M187.332 137.301C186.907 137.302 186.489 137.194 186.117 136.987C185.745 136.78 185.431 136.482 185.207 136.12C184.984 135.758 184.857 135.344 184.838 134.919C184.82 134.494 184.911 134.071 185.102 133.691C195.412 113.081 193.553 98.4512 193.533 98.3012C193.452 97.6507 193.63 96.9945 194.029 96.4741C194.427 95.9537 195.014 95.6106 195.663 95.5188C196.313 95.427 196.971 95.5939 197.498 95.9834C198.026 96.3729 198.38 96.9539 198.483 97.6013C198.583 98.2513 200.633 113.801 189.573 135.921C189.365 136.337 189.046 136.687 188.65 136.931C188.254 137.175 187.797 137.303 187.332 137.301Z" fill="#9FC5E0"/>
</svg>
