<svg width="32" height="32" viewBox="0 0 32 32" fill="none" xmlns="http://www.w3.org/2000/svg">
<path d="M28.7651 11.9651L26.6214 11.6001L27.8401 9.86513C28.5114 9.00388 28.4351 7.77764 27.6639 7.00513L24.9826 4.32388C24.2301 3.55764 23.0276 3.46762 22.1701 4.11263L20.3876 5.39263L20.0289 3.29637C19.8939 2.21263 18.9739 1.40012 17.8814 1.39887H14.1051C13.0325 1.38887 12.1188 2.17637 11.9676 3.23887L11.6001 5.39512L9.86257 4.16012C9.00132 3.48885 7.77508 3.56511 7.00132 4.33637L4.32007 7.01761C3.55508 7.77013 3.46381 8.97262 4.10882 9.83013L5.38882 11.6126L3.29007 11.9714C2.20632 12.1064 1.39381 13.0264 1.39256 14.1189V17.8952C1.38256 18.9677 2.17007 19.8814 3.23256 20.0327L5.38882 20.3977L4.16008 22.1377C3.48757 22.9989 3.56383 24.2264 4.33633 24.9989L7.01758 27.6802C7.42382 28.0902 7.97633 28.3202 8.55384 28.3202C9.01508 28.3239 9.4651 28.1739 9.83384 27.8952L11.6163 26.6152L11.9751 28.7114V28.7102C12.1101 29.7939 13.0301 30.6064 14.1213 30.6077H17.8951C18.9676 30.6177 19.8813 29.8302 20.0326 28.7677L20.4001 26.6114L22.1376 27.8402C22.5188 28.1364 22.9863 28.2977 23.4688 28.2977C24.0439 28.2977 24.5951 28.0677 24.9988 27.6577L27.6801 24.9789C28.4451 24.2277 28.5363 23.0252 27.8913 22.1664L26.6113 20.3839L28.7076 20.0252C29.7901 19.8902 30.6038 18.9702 30.6051 17.8789V14.1052C30.6126 13.0327 29.8276 12.1189 28.7651 11.9651ZM29.3376 17.8976C29.3339 18.3526 28.9876 18.7326 28.5351 18.7776L25.4052 19.3089C25.1877 19.3451 25.0039 19.4914 24.9202 19.6951C24.8352 19.8976 24.8614 20.1314 24.9889 20.3101L26.8614 22.9464V22.9476C27.1189 23.2976 27.0802 23.7839 26.7714 24.0901L24.0902 26.7714C23.7664 27.0951 23.2502 27.1189 22.8989 26.8251L20.3102 24.9889C20.1314 24.8614 19.8977 24.8351 19.6952 24.9201C19.4914 25.0039 19.3451 25.1876 19.3089 25.4051L18.7677 28.6051C18.7027 29.0364 18.3302 29.3538 17.8952 29.3501H14.1051C13.6501 29.3464 13.2713 29.0001 13.2251 28.5476L12.6938 25.4176H12.6951C12.6576 25.2014 12.5113 25.0189 12.3076 24.9351C12.1038 24.8514 11.8726 24.8776 11.6926 25.0051L9.05632 26.8776V26.8764C8.70381 27.1264 8.22256 27.0889 7.91382 26.7876L5.23257 24.1064V24.1051C4.91257 23.7814 4.89008 23.2676 5.17758 22.9151L7.01383 20.3264H7.01508C7.14258 20.1464 7.16758 19.9139 7.08383 19.7101C6.99883 19.5076 6.81633 19.3614 6.59884 19.3251L3.39884 18.7839C2.96757 18.7189 2.6501 18.3464 2.6526 17.9101V14.105C2.6576 13.65 3.00261 13.2712 3.45634 13.225L6.58633 12.6937L6.58508 12.695C6.80258 12.6575 6.98632 12.5125 7.07132 12.3088C7.15507 12.105 7.12882 11.8725 7.00132 11.6925L5.1288 9.05624H5.13005C4.87255 8.70623 4.91005 8.21999 5.2188 7.91375L7.90005 5.2325H7.9013C8.22629 4.9125 8.7388 4.89 9.09132 5.1775L11.6801 7.01376V7.01501C11.8601 7.14251 12.0926 7.16751 12.2963 7.08376C12.5001 6.99876 12.645 6.81626 12.6813 6.59876L13.2225 3.39876C13.2876 2.9675 13.6601 2.65003 14.0963 2.65252H17.895C18.35 2.65752 18.7288 3.00254 18.775 3.45627L19.3063 6.58625L19.305 6.585C19.3425 6.8025 19.4888 6.985 19.6925 7.06875C19.8963 7.1525 20.1275 7.12625 20.3075 6.99875L22.9438 5.12623C23.2938 4.86873 23.7801 4.90749 24.0863 5.21623L26.7675 7.89748C27.0875 8.22247 27.11 8.73499 26.8225 9.0875L24.9863 11.6762H24.985C24.8575 11.8562 24.8325 12.0887 24.9163 12.2925C25.0013 12.4962 25.1838 12.6425 25.4013 12.6787L28.56 13.2162H28.5888C29.02 13.2812 29.3375 13.6537 29.335 14.09L29.3376 17.8976Z" fill="black" stroke="black" stroke-width="0.2"/>
<path d="M15.9427 9.00241C15.8978 9.00788 15.8542 9.01943 15.8125 9.03645L9.3125 11.5258C9.1237 11.5969 9 11.7683 9 11.9585V20.049C9.00195 20.2374 9.12565 20.4058 9.3125 20.4769L15.8125 22.9663C15.9329 23.0112 16.067 23.0112 16.1875 22.9663L22.6875 20.4769C22.8744 20.4058 22.9981 20.2374 23 20.049V11.9585C23 11.7683 22.8763 11.5969 22.6875 11.5258L16.1875 9.03645C16.11 9.00606 16.0261 8.99451 15.9427 9.00241ZM16 9.96997L21.1927 11.9537L16 13.9422L10.8073 11.9537L16 9.96997ZM10 12.649L15.5 14.7542V21.8431L10 19.7378V12.649ZM22 12.649V19.7378L16.5 21.8431V14.7542L22 12.649Z" fill="black" stroke="black" stroke-width="0.4"/>
</svg>
