<svg width="32" height="32" viewBox="0 0 32 32" fill="none" xmlns="http://www.w3.org/2000/svg">
<path fill-rule="evenodd" clip-rule="evenodd" d="M24.4102 24.4785C24.4102 25.5781 23.4817 26.4719 22.3394 26.4719H9.66149C8.51916 26.4719 7.58961 25.5771 7.58961 24.4785V21.7594C8.41009 22.0376 9.19036 22.3322 10.337 22.2975C10.9267 22.2792 11.4317 22.0713 11.797 21.6962C12.5868 20.885 12.5455 19.4989 12.5074 18.3778C12.5455 17.2557 12.5868 15.8697 11.797 15.0584C11.4307 14.6833 10.9267 14.4754 10.337 14.4571C9.20209 14.4224 8.40278 14.7149 7.58961 14.9952V12.274C7.58961 11.1743 8.51916 10.2795 9.66149 10.2795H13.4486C13.8879 10.2795 14.2437 9.9371 14.2437 9.51517C14.2437 8.96075 14.1177 8.59693 13.9292 8.08835C13.6942 7.45343 13.492 6.90512 13.5163 6.15299C13.5248 5.92063 13.6053 5.84724 13.6391 5.81565C14.0076 5.48342 15.1901 5.52112 15.9736 5.54556H16.0265C16.8089 5.52008 17.9925 5.48238 18.361 5.81565C18.3948 5.84724 18.4764 5.9196 18.4838 6.15299C18.5293 7.59202 17.7564 8.26569 17.7564 9.51522C17.7564 9.93715 18.1122 10.2796 18.5505 10.2796H22.3386C23.481 10.2796 24.4095 11.1744 24.4095 12.274L24.4102 24.4785ZM22.3394 8.7501H19.5136C19.8037 7.97045 20.1086 7.1949 20.0726 6.10535C20.0536 5.53768 19.8376 5.05155 19.448 4.69996C18.6053 3.93967 17.1654 3.97943 16.0008 4.01611C14.8351 3.97942 13.3953 3.93967 12.5525 4.69996C12.1629 5.05259 11.9458 5.53768 11.9279 6.10535C11.8919 7.21214 12.1978 7.95918 12.4868 8.7501H9.66111C7.64216 8.7501 6.00005 10.3308 6.00005 12.2744V15.9199C6.00005 16.3429 6.35578 16.6843 6.79514 16.6843C7.37214 16.6843 7.74797 16.563 8.27734 16.3816C8.93586 16.1563 9.50651 15.9607 10.2878 15.9841C10.5292 15.9913 10.6055 16.0687 10.6383 16.1023C10.9834 16.457 10.9442 17.5964 10.9188 18.3496V18.3995C10.9453 19.1537 10.9834 20.292 10.6383 20.6467C10.6055 20.6793 10.5303 20.7578 10.2878 20.7649C8.79718 20.8098 8.09207 20.0648 6.79509 20.0648C6.35572 20.0648 6 20.4072 6 20.8291V24.4758C6 26.4193 7.64311 28 9.66105 28H22.3389C24.3568 28 26 26.4193 26 24.4758L25.9989 12.2745C25.9989 10.331 24.3569 8.75022 22.339 8.75022L22.3394 8.7501Z" fill="black"/>
</svg>
