<svg width="16" height="16" viewBox="0 0 16 16" fill="none" xmlns="http://www.w3.org/2000/svg">
<g id="Icon/Action/16px/Delete">
<path id="Vector" d="M2.46426 3.8H3.39283V13.3573C3.39515 14.2632 4.12582 14.9976 5.02712 15H11.9914C12.8857 14.9872 13.6048 14.2562 13.6071 13.3573V3.8H14.5357C14.7922 3.8 15 3.59117 15 3.33333C15 3.07549 14.7922 2.86667 14.5357 2.86667H11.2857V1.93333C11.2857 1.427 10.8841 1.01283 10.3803 1H6.64287C6.12983 1 5.71429 1.41767 5.71429 1.93333V2.86667H2.46429C2.20776 2.86667 2 3.07549 2 3.33333C2 3.59117 2.20776 3.8 2.46429 3.8H2.46426ZM6.64284 1.93333H10.3571V2.86667H6.64284V1.93333ZM5.71426 3.8H12.6786V13.3573C12.6786 13.7493 12.3629 14.0667 11.9728 14.0667H5.00855C4.6261 14.0567 4.3214 13.7417 4.3214 13.3573V3.8H5.71426Z" fill="#AA2113" stroke="#AA2113" stroke-width="0.3"/>
</g>
</svg>
