<svg width="32" height="32" viewBox="0 0 32 32" fill="none" xmlns="http://www.w3.org/2000/svg">
<path d="M5.11995 12.8V20.48H12.8V12.8H5.11995ZM14.72 10.88V22.4H3.19995V10.88H14.72ZM22.72 20.48C25.0175 20.48 26.88 18.6175 26.88 16.32C26.88 14.0225 25.0175 12.16 22.72 12.16C20.4224 12.16 18.56 14.0225 18.56 16.32C18.56 18.6175 20.4224 20.48 22.72 20.48ZM22.72 22.4C19.3625 22.4 16.64 19.6775 16.64 16.32C16.64 12.9625 19.3624 10.24 22.72 10.24C26.0775 10.24 28.7999 12.9625 28.7999 16.32C28.7999 19.6775 26.0775 22.4 22.72 22.4Z" fill="#212429"/>
</svg>
