<svg width="24" height="24" viewBox="0 0 24 24" fill="none" xmlns="http://www.w3.org/2000/svg">
<path d="M22.6077 8.28093C22.4146 8.04937 22.1268 7.91345 21.824 7.91345L15.6946 7.91438V3.8279C15.6946 3.26445 15.2381 2.80603 14.6728 2.80603L11.6089 2.80697C11.2002 2.80697 10.8308 3.05071 10.6705 3.42571L7.87111 9.95731H7.52331C7.52331 9.39386 7.06582 8.93544 6.50144 8.93544H2.41591C1.85153 8.93544 1.39404 9.39293 1.39404 9.95731V20.1722C1.39404 20.7366 1.85153 21.1941 2.41591 21.1941H6.50144C7.06582 21.1941 7.52331 20.7375 7.52331 20.1722V19.6387L11.2291 21.1209C11.3501 21.1687 11.4785 21.1941 11.6088 21.1941H19.7811C20.2751 21.1941 20.6979 20.8406 20.7861 20.355L22.8289 9.11916C22.8832 8.82103 22.8018 8.51345 22.6077 8.28093ZM5.48062 19.1503H3.43781V10.9781H5.48062V19.1503ZM18.929 19.1503H11.8058L7.52326 17.4375V12H8.54513C8.95388 12 9.32326 11.7563 9.48358 11.3804L12.2829 4.84973H13.6526V8.93525C13.6526 9.49963 14.1092 9.95712 14.6745 9.95712H20.6003L18.929 19.1503Z" fill="#C7CED3"/>
</svg>
