<svg width="28" height="28" viewBox="0 0 28 28" fill="none" xmlns="http://www.w3.org/2000/svg">
<circle cx="14" cy="14" r="14" fill="#F0F3F4"/>
<g clip-path="url(#clip0_5666_3338)">
<path d="M14 8.11539C13.6173 8.11539 13.3077 8.42503 13.3077 8.80769V13.3077H8.80769C8.42502 13.3077 8.11539 13.6173 8.11539 14C8.11539 14.3827 8.42503 14.6923 8.80769 14.6923H13.3077V19.1923C13.3077 19.575 13.6173 19.8846 14 19.8846C14.3827 19.8846 14.6923 19.575 14.6923 19.1923V14.6923H19.1923C19.575 14.6923 19.8846 14.3827 19.8846 14C19.8846 13.6173 19.575 13.3077 19.1923 13.3077H14.6923V8.80769C14.6923 8.42502 14.3827 8.11539 14 8.11539Z" fill="#6C747D"/>
</g>
<defs>
<clipPath id="clip0_5666_3338">
<rect width="12" height="12" fill="white" transform="translate(8 8)"/>
</clipPath>
</defs>
</svg>
