<svg width="32" height="32" viewBox="0 0 32 32" fill="none" xmlns="http://www.w3.org/2000/svg">
<rect width="32" height="32" rx="2" fill="#F0F3F4"/>
<g clip-path="url(#clip0_5690_3769)">
<path d="M25.7677 7V6.83219L25.7199 6.73656L25.6721 6.66437L25.5521 6.52L25.3599 6.37562L25.2877 6.32781L25.1921 6.28H19.6243C19.0937 6.28 18.6643 6.70938 18.6643 7.24C18.6643 7.77061 19.0937 8.2 19.6243 8.2H22.5043L13.8878 16.7445C13.51 17.1223 13.51 17.7345 13.8878 18.1123C14.2657 18.4901 14.8778 18.4901 15.2557 18.1123L23.8721 9.49581V12.3758C23.8721 12.9064 24.3015 13.3358 24.8321 13.3358C25.3618 13.3358 25.7921 12.9064 25.7921 12.3758V7.16805C25.7893 7.1118 25.7809 7.05555 25.7678 7.00023L25.7677 7Z" fill="black"/>
<path d="M9.08776 25.7922H20.4642C22.0542 25.7922 23.3442 24.5022 23.3442 22.9122V16.12C23.3442 15.5894 22.9139 15.16 22.3842 15.16C21.8536 15.16 21.4242 15.5894 21.4242 16.12V22.9122C21.4242 23.1663 21.323 23.411 21.143 23.591C20.963 23.771 20.7183 23.8722 20.4642 23.8722H9.08776C8.55808 23.8722 8.12776 23.4419 8.12776 22.9122V11.5358C8.12776 11.0061 8.55808 10.5758 9.08776 10.5758H15.88C16.4106 10.5758 16.84 10.1464 16.84 9.61576C16.84 9.08608 16.4106 8.65576 15.88 8.65576H9.08776C7.49776 8.65576 6.20776 9.94576 6.20776 11.5358V22.9122C6.20776 24.5022 7.49776 25.7922 9.08776 25.7922Z" fill="black"/>
</g>
<defs>
<clipPath id="clip0_5690_3769">
<rect width="24" height="24" fill="white" transform="matrix(1 0 0 -1 4 28)"/>
</clipPath>
</defs>
</svg>
