<svg width="20" height="20" viewBox="0 0 20 20" fill="none" xmlns="http://www.w3.org/2000/svg">
<path d="M10 0C7.31261 0 4.79154 1.06631 2.92892 2.92892C2.5929 3.26495 2.28167 3.62381 1.99744 4.00253L2 2C2 1.48716 1.61395 1.06448 1.11661 1.00671L1 1C0.487164 1 0.0644789 1.38605 0.00671387 1.88339L0 2V7C0 7.51284 0.386053 7.93552 0.883392 7.99329L1 8H6C6.55229 8 7 7.55229 7 7C7 6.48716 6.61395 6.06448 6.11661 6.00671L6 6L3.06995 6.00021C3.41949 5.39606 3.84757 4.83871 4.34314 4.34314C5.8344 2.85188 7.84849 2 10 2C14.4183 2 18 5.58172 18 10C18 14.4183 14.4183 18 10 18C7.84849 18 5.8344 17.1481 4.34314 15.6569C3.60019 14.9139 3.0089 14.0321 2.6066 13.0619C2.40658 12.5795 2.25424 12.0778 2.15228 11.5623C2.0451 11.0206 1.51902 10.6682 0.977234 10.7754C0.435449 10.8826 0.0831306 11.4087 0.190308 11.9505C0.31795 12.5957 0.5087 13.224 0.759125 13.828C1.26231 15.0415 2.00114 16.1433 2.92892 17.0711C4.79154 18.9337 7.31261 20 10 20C15.5228 20 20 15.5228 20 10C20 4.47715 15.5228 0 10 0Z" fill="black"/>
</svg>
