<svg width="16" height="16" viewBox="0 0 16 16" fill="none" xmlns="http://www.w3.org/2000/svg">
<g clip-path="url(#clip0_5690_3099)">
<path d="M7.99992 3.76496H5.09176L7.25608 1.60928C7.62546 1.24053 7.62546 0.641779 7.25608 0.273027C6.88733 -0.0963494 6.28858 -0.0963494 5.91983 0.273027L2.15487 4.03799V4.03736C1.7905 4.40487 1.7905 4.99736 2.15487 5.36487L5.91983 9.12983V9.1292C6.28608 9.49858 6.88232 9.50045 7.2517 9.1342C7.62045 8.76732 7.62295 8.17108 7.25608 7.80233L5.09175 5.64665H7.99992C9.00804 5.6454 9.98359 6.00415 10.7518 6.6579C11.5193 7.31164 12.0286 8.2179 12.1874 9.21358C12.3468 10.2092 12.1455 11.2293 11.6199 12.0899C11.0943 12.9499 10.2793 13.5949 9.32052 13.908C8.36239 14.2211 7.32372 14.1823 6.39108 13.798C5.45921 13.4136 4.69428 12.7092 4.23476 11.8117C4.12601 11.5817 3.92851 11.4061 3.68788 11.3242C3.44663 11.2424 3.18289 11.2611 2.95601 11.3774C2.72975 11.493 2.55975 11.6955 2.48476 11.9386C2.41039 12.1817 2.43726 12.4449 2.55976 12.668C3.22288 13.9649 4.32728 14.9824 5.67352 15.5374C7.01978 16.0931 8.5204 16.1499 9.90472 15.698C11.2891 15.2456 12.4673 14.3149 13.2266 13.0718C13.986 11.8293 14.2773 10.3561 14.0473 8.91805C13.8179 7.47929 13.0829 6.17053 11.9741 5.22557C10.8654 4.2812 9.45607 3.76307 7.99975 3.76494L7.99992 3.76496Z" fill="black"/>
</g>
<defs>
<clipPath id="clip0_5690_3099">
<rect width="16" height="16" fill="white"/>
</clipPath>
</defs>
</svg>
