<svg width="24" height="24" viewBox="0 0 24 24" fill="none" xmlns="http://www.w3.org/2000/svg">
<g id="np_columns_3548659_6D6D6D 1">
<path id="Vector" d="M5.92002 21.9201H18.08C20.0238 21.9201 21.6 20.3438 21.6 18.4001V5.60008C21.6 3.65633 20.0238 2.08008 18.08 2.08008H5.92002C3.97628 2.08008 2.40002 3.65633 2.40002 5.60008V18.4001C2.40002 20.3438 3.97628 21.9201 5.92002 21.9201ZM10.08 20.0001V4.00008H13.92V20.0001H10.08ZM19.68 5.60008V18.4001C19.68 18.8238 19.5113 19.2313 19.2113 19.5313C18.9113 19.8313 18.5038 20.0001 18.08 20.0001H15.84V4.00008H18.08C18.5038 4.00008 18.9113 4.16883 19.2113 4.46881C19.5113 4.7688 19.68 5.1763 19.68 5.60008ZM4.32002 5.60008C4.32002 4.71633 5.03628 4.00008 5.92002 4.00008H8.16003V20.0001H5.92002C5.03628 20.0001 4.32002 19.2838 4.32002 18.4001V5.60008Z" fill="#495057"/>
</g>
</svg>
