<svg width="120" height="120" viewBox="0 0 120 120" fill="none" xmlns="http://www.w3.org/2000/svg">
<path d="M74.1421 49.1421C77.8929 45.3914 80 40.3043 80 35C80 29.6957 77.8929 24.6086 74.1421 20.8579C70.3914 17.1071 65.3043 15 60 15C54.6957 15 49.6086 17.1071 45.8579 20.8579C42.1071 24.6086 40 29.6957 40 35C40 40.3043 42.1071 45.3914 45.8579 49.1421C49.6086 52.8929 54.6957 55 60 55C65.3043 55 70.3914 52.8929 74.1421 49.1421Z" stroke="#A1E9D3" stroke-width="6" stroke-linecap="round" stroke-linejoin="round"/>
<path d="M35.2513 80.2513C41.815 73.6875 50.7174 70 60 70C69.2826 70 78.185 73.6875 84.7487 80.2513C91.3125 86.815 95 95.7174 95 105H25C25 95.7174 28.6875 86.815 35.2513 80.2513Z" stroke="#A1E9D3" stroke-width="6" stroke-linecap="round" stroke-linejoin="round"/>
</svg>
