<svg width="18" height="18" viewBox="0 0 18 18" fill="none" xmlns="http://www.w3.org/2000/svg">
<g id="np_setting_5928030_000000 1" clip-path="url(#clip0_5158_5832)">
<g id="Group">
<path id="Vector" d="M16.0207 9.88579L15.6558 9.67415C15.6031 9.64391 15.5728 9.58555 15.5778 9.52438C15.5932 9.35141 15.6024 9.17634 15.6024 8.99914C15.6024 8.82195 15.5925 8.64758 15.5778 8.4732C15.5721 8.41273 15.6031 8.35437 15.6565 8.32344L16.0207 8.11249C16.4503 7.86429 16.7583 7.46421 16.8863 6.98469C17.0149 6.50515 16.9489 6.00453 16.7007 5.57493L15.8161 4.04142C15.3035 3.15407 14.1659 2.85032 13.2778 3.3615L12.9135 3.57174C12.8496 3.60971 12.7743 3.5851 12.7237 3.55135C12.4396 3.35729 12.1373 3.18431 11.8258 3.03596C11.8061 3.02611 11.7428 2.99166 11.7428 2.92697L11.7435 2.47697C11.7435 1.45182 10.9096 0.618652 9.88522 0.618652H8.11546C7.09101 0.618652 6.25714 1.45256 6.25714 2.47625V2.89671C6.25714 2.97054 6.19948 3.02468 6.14534 3.05C5.83315 3.20117 5.53151 3.37625 5.24885 3.57171C5.23198 3.58366 5.1687 3.62093 5.11385 3.58858L4.75596 3.38187C3.83486 2.85031 2.70558 3.13999 2.18394 4.04281L1.2994 5.57562C1.0512 6.00523 0.985104 6.50586 1.11379 6.98608C1.24246 7.46562 1.54973 7.86569 1.97933 8.11389L2.34425 8.32483C2.39768 8.35577 2.42792 8.41413 2.423 8.4753C2.40683 8.64827 2.39768 8.82265 2.39768 8.99984C2.39768 9.17703 2.40753 9.3521 2.42229 9.52578C2.42792 9.58555 2.39698 9.64461 2.34354 9.67555L1.97933 9.88649C1.54973 10.1347 1.24175 10.5348 1.11378 11.015C0.985815 11.4945 1.05121 11.9952 1.2994 12.4255L2.18394 13.9583C2.43214 14.3879 2.83223 14.6959 3.31245 14.8238C3.79199 14.9518 4.2926 14.8864 4.72291 14.6382L5.08642 14.428C5.15251 14.3914 5.22845 14.4153 5.27697 14.4491C5.56173 14.6438 5.86337 14.8161 6.17486 14.9644C6.19385 14.9743 6.25713 15.008 6.25713 15.0727V15.5241C6.25713 16.5493 7.09103 17.3832 8.11545 17.3832H9.88521C10.9097 17.3832 11.7435 16.5493 11.7435 15.5249V15.1044C11.7435 15.0306 11.8019 14.9764 11.8546 14.9511C12.1647 14.8028 12.4663 14.6277 12.7504 14.4308C12.768 14.4181 12.8285 14.3809 12.8861 14.4139L13.244 14.6206C14.1651 15.1522 15.2951 14.8625 15.816 13.9597L16.7006 12.4269C16.9488 11.9973 17.0149 11.4966 16.8862 11.0164C16.7575 10.5348 16.4503 10.1347 16.0207 9.88579ZM15.8246 11.9178L14.94 13.4506C14.7024 13.8605 14.1799 13.9885 13.7517 13.7417L13.3931 13.535C13.0134 13.317 12.548 13.3395 12.176 13.5962C11.9349 13.7628 11.6796 13.9112 11.4174 14.0363C10.9941 14.2402 10.7311 14.648 10.7311 15.103V15.5234C10.7311 15.9896 10.3521 16.3686 9.88596 16.3686H8.1162C7.65004 16.3686 7.27105 15.9889 7.27105 15.5227V15.0713C7.27105 14.6333 7.01721 14.2402 6.6087 14.0476C6.34574 13.9224 6.0898 13.7762 5.84862 13.6116C5.63767 13.4675 5.39791 13.3944 5.16026 13.3944C4.95987 13.3944 4.76088 13.4464 4.58088 13.5498L4.21666 13.76C4.0212 13.8725 3.79478 13.902 3.57471 13.8444C3.35675 13.786 3.17392 13.6454 3.06142 13.4499L2.17689 11.9171C2.06368 11.7217 2.03415 11.4938 2.09251 11.2752C2.15087 11.0572 2.2915 10.8744 2.48696 10.7619L2.85118 10.5516C3.24563 10.3245 3.47344 9.88509 3.43196 9.43368C3.4179 9.29095 3.41017 9.1461 3.41017 8.99984C3.41017 8.85359 3.4172 8.70875 3.43056 8.56601C3.47134 8.11461 3.24352 7.67515 2.84977 7.44805L2.48556 7.2371C2.2901 7.1239 2.14946 6.9418 2.09111 6.72382C2.03275 6.50586 2.06228 6.27803 2.17548 6.08187L3.06002 4.54906C3.29697 4.13844 3.82011 4.01046 4.24831 4.25866L4.6069 4.46467C4.9873 4.68406 5.45346 4.66013 5.82471 4.4035C6.06377 4.23897 6.31831 4.08991 6.58267 3.96335C7.00596 3.76015 7.26963 3.35164 7.26963 2.8967V2.47624C7.26963 2.01008 7.64861 1.63109 8.11478 1.63109H9.88454C10.3507 1.63109 10.7297 2.01078 10.7297 2.47694V2.92835C10.7297 3.3664 10.9835 3.75944 11.392 3.9528C11.6557 4.07796 11.9109 4.2242 12.1507 4.38804C12.5381 4.65313 13.024 4.67703 13.4191 4.44991L13.7834 4.23967C14.1877 4.00623 14.7052 4.14546 14.9386 4.54906L15.8231 6.08257C15.9363 6.27803 15.9659 6.50586 15.9075 6.72382C15.8491 6.94178 15.7085 7.12461 15.5131 7.23711L15.1488 7.44805C14.7551 7.67515 14.5273 8.11461 14.5681 8.56601C14.5807 8.70875 14.5884 8.8536 14.5884 8.99985C14.5884 9.1461 14.5814 9.29094 14.5681 9.43368C14.5273 9.88649 14.7551 10.3252 15.1488 10.5516L15.5131 10.7626C15.7085 10.8758 15.8492 11.0579 15.9075 11.2759C15.9673 11.4945 15.9371 11.7224 15.8246 11.9178Z" fill="white" stroke="white" stroke-width="0.4"/>
<path id="Vector_2" d="M9.00006 5.646C7.15092 5.646 5.64612 7.15069 5.64612 8.99994C5.64612 10.8492 7.15081 12.3539 9.00006 12.3539C10.8493 12.3539 12.354 10.8492 12.354 8.99994C12.354 7.15069 10.8493 5.646 9.00006 5.646ZM9.00006 11.3414C7.70912 11.3414 6.65862 10.2909 6.65862 8.99994C6.65862 7.70896 7.70908 6.6585 9.00006 6.6585C10.291 6.6585 11.3415 7.70896 11.3415 8.99994C11.3415 10.2909 10.291 11.3414 9.00006 11.3414Z" fill="white" stroke="white" stroke-width="0.4"/>
</g>
</g>
<defs>
<clipPath id="clip0_5158_5832">
<rect width="18" height="18" fill="white"/>
</clipPath>
</defs>
</svg>
