<svg width="20" height="20" viewBox="0 0 20 20" fill="none" xmlns="http://www.w3.org/2000/svg">
<path d="M12.3077 15.5656C13.1721 15.5656 14.0008 15.2225 14.6116 14.6116C15.2225 14.0008 15.5656 13.1721 15.5656 12.3077V3.25792C15.5656 2.39355 15.2225 1.56482 14.6116 0.953971C14.0008 0.343124 13.1721 0 12.3077 0H3.25792C1.45895 0 0 1.45895 0 3.25792V12.3077C0 13.1721 0.343098 14.0008 0.953971 14.6116C1.56484 15.2225 2.39355 15.5656 3.25792 15.5656H12.3077ZM20 3.25792V14.2986C20 15.8105 19.3993 17.2613 18.3303 18.3304C17.2613 19.3995 15.8105 20 14.2986 20H3.25787C2.80786 20 2.44339 19.6356 2.44339 19.1856C2.44339 18.7356 2.80786 18.3711 3.25787 18.3711H14.2986C15.3788 18.3711 16.4142 17.9425 17.1778 17.1779C17.9424 16.4143 18.371 15.3789 18.371 14.2987V3.25794C18.371 2.80793 18.7355 2.44346 19.1855 2.44346C19.6355 2.44346 20 2.80791 20 3.25792ZM3.71041 7.7828C3.71041 7.7828 4.07488 6.96833 4.52489 6.96833C4.9749 6.96833 6.96833 6.96833 6.96833 6.96833V4.52489C6.96833 4.07488 7.3328 3.71041 7.78281 3.71041C8.23282 3.71041 8.59729 4.07488 8.59729 4.52489V6.96833H11.0407C11.4907 6.96833 11.8552 7.33279 11.8552 7.7828C11.8552 8.23281 11.4907 8.59729 11.0407 8.59729H8.59729V11.0407C8.59729 11.4907 8.23282 11.8552 7.78281 11.8552C7.3328 11.8552 6.96833 11.4907 6.96833 11.0407V8.59729C6.96833 8.59729 4.9749 8.59729 4.52489 8.59729C4.07488 8.59729 3.71041 7.7828 3.71041 7.7828Z" fill="white"/>
</svg>
