<svg width="32" height="32" viewBox="0 0 32 32" fill="none" xmlns="http://www.w3.org/2000/svg">
<path fill-rule="evenodd" clip-rule="evenodd" d="M13.9635 6.91779C11.2354 6.91779 9.0111 9.14199 9.0111 11.8702C9.0111 13.1866 9.39997 14.8226 10.1936 16.1876C10.4218 16.5795 10.6817 16.9515 10.9873 17.2829C10.9625 17.4485 10.9347 17.5775 10.9 17.6559C10.8543 17.7591 10.8365 17.7561 10.8285 17.7591C10.3742 17.9317 9.03688 18.0388 7.77305 18.4337C6.50916 18.8285 5.18283 19.6271 4.83667 21.2431C4.79897 21.4206 4.85949 21.6062 4.9954 21.7272C9.9427 26.2003 17.9925 26.2003 22.9398 21.7272C23.0519 21.626 23.1124 21.4802 23.1065 21.3304C24.5311 20.8928 25.8752 20.1607 27.0112 19.132C27.1441 19.0089 27.2017 18.8244 27.162 18.6478C26.8763 17.3185 25.7781 16.6568 24.7572 16.3383C23.7364 16.0198 22.663 15.9226 22.3366 15.7986C22.3316 15.7986 22.3326 15.8135 22.3049 15.7589C22.287 15.7242 22.2682 15.6647 22.2493 15.5843C22.4963 15.3165 22.7096 15.0169 22.8922 14.7034C23.535 13.5982 23.8445 12.2867 23.8445 11.2192C23.8445 8.99398 22.0251 7.17956 19.7968 7.17956C18.8097 7.17956 17.9049 7.53272 17.2015 8.12401C16.3324 7.37303 15.1975 6.91766 13.9634 6.91766L13.9635 6.91779ZM13.9635 7.93366C16.143 7.93366 17.9 9.69062 17.9 11.8702C17.9 12.9823 17.5528 14.4952 16.8682 15.6718C16.1837 16.8484 15.2303 17.6639 13.9634 17.6639C12.6975 17.6639 11.7511 16.8484 11.0666 15.6718C10.3821 14.4952 10.0269 12.9823 10.0269 11.8702C10.0269 9.69062 11.7838 7.93366 13.9634 7.93366H13.9635ZM11.8444 18.021C12.4516 18.4288 13.1589 18.6798 13.9635 18.6798C14.7571 18.6798 15.4565 18.4347 16.0587 18.0369C16.0686 18.0597 16.0795 18.0786 16.0905 18.1004C16.2224 18.3574 16.4546 18.5915 16.7492 18.7036C17.5548 19.0091 18.7532 19.0637 19.8603 19.4099C20.8752 19.7274 21.7006 20.1937 22.027 21.1798C17.5467 25.0101 10.3881 25.0101 5.90786 21.1798C6.23324 20.1937 7.05864 19.7274 8.07451 19.4099C9.18166 19.0637 10.3801 19.0091 11.1856 18.7036C11.4932 18.5865 11.7025 18.3326 11.8205 18.0687C11.8275 18.0528 11.8374 18.0369 11.8444 18.0211L11.8444 18.021Z" fill="black"/>
</svg>
