<svg width="32" height="32" viewBox="0 0 32 32" fill="none" xmlns="http://www.w3.org/2000/svg">
<path d="M27.1026 15.942C27.1706 16.2429 27.3217 16.5197 27.5396 16.7387C28.0019 17.2034 28.6995 17.3418 29.3048 17.0916C29.9113 16.8414 30.3057 16.2499 30.3057 15.5938C30.3057 14.9389 29.9113 14.3474 29.3048 14.0972C28.6995 13.847 28.0019 13.9854 27.5396 14.45C27.3217 14.6702 27.1706 14.9481 27.1026 15.2502H22.9761V12.8865H24.0599C24.475 12.8911 24.8751 12.7297 25.1703 12.4369C25.4654 12.144 25.6303 11.745 25.628 11.3288V10.7062C25.628 10.2138 26.0454 9.83106 26.5377 9.83106H26.8168C26.8848 10.1308 27.0358 10.4041 27.2538 10.6209C27.7173 11.0901 28.4183 11.2331 29.0294 10.9818C29.6393 10.7316 30.0383 10.1366 30.0383 9.47594C30.0383 8.81641 29.6393 8.22147 29.0294 7.97125C28.4183 7.71989 27.7173 7.86287 27.2538 8.33216C27.0243 8.54777 26.871 8.83026 26.8168 9.13927H26.5377C25.6638 9.13927 24.9362 9.83224 24.9362 10.7062V11.3289C24.9385 11.5606 24.8463 11.7843 24.6814 11.948C24.5165 12.1106 24.2917 12.2005 24.0599 12.1948H22.9761V10.4076C22.9784 10.3165 22.9438 10.2289 22.8804 10.1643C22.8181 10.0986 22.7305 10.0617 22.6405 10.0617H20.67V7.72917C20.67 5.11528 18.5589 2.98901 15.9715 2.98901C13.3841 2.98786 11.273 5.11516 11.273 7.72917V10.0617H9.29555C9.20562 10.0629 9.11914 10.0997 9.05803 10.1643C8.99577 10.23 8.96348 10.3177 8.96694 10.4076V12.1948H7.94075C7.70899 12.2005 7.48415 12.1106 7.31927 11.948C7.15439 11.7843 7.06215 11.5606 7.06445 11.3289V10.7062C7.06445 9.83224 6.33692 9.13927 5.46291 9.13927H5.18388C5.12969 8.83026 4.97634 8.54663 4.74688 8.331C4.28568 7.87556 3.59504 7.74066 2.99661 7.99088C2.39706 8.24108 2.00731 8.8268 2.00731 9.47594C2.00731 10.1251 2.39703 10.7108 2.99661 10.961C3.59501 11.2112 4.28568 11.0763 4.74688 10.6209C4.9648 10.4041 5.11585 10.1297 5.18388 9.83106H5.46291C5.95526 9.83106 6.37263 10.2139 6.37263 10.7062V11.3288C6.37033 11.7439 6.53521 12.144 6.83038 12.4369C7.12555 12.7297 7.52566 12.8912 7.94073 12.8865H8.96692V15.2502H4.89798C4.82996 14.9481 4.67891 14.6702 4.46098 14.45C3.99863 13.9877 3.30335 13.8505 2.69917 14.1007C2.09613 14.3509 1.70181 14.9412 1.70181 15.595C1.70181 16.2487 2.09613 16.8379 2.69917 17.0881C3.30335 17.3383 3.9986 17.2011 4.46098 16.7387C4.6789 16.5197 4.82995 16.2429 4.89798 15.942H8.96692V18.6516H7.94073C7.52448 18.6493 7.12325 18.8142 6.82923 19.1082C6.53406 19.4034 6.37033 19.8046 6.37263 20.2209V20.9876C6.36456 21.4834 5.95871 21.8812 5.46291 21.88H5.18388C5.11586 21.578 4.96481 21.3024 4.74688 21.0822C4.28453 20.6187 3.5881 20.4803 2.98276 20.7305C2.37743 20.9807 1.98311 21.5711 1.98311 22.226C1.98311 22.8808 2.37743 23.4724 2.98276 23.7226C3.5881 23.9728 4.28453 23.8344 4.74688 23.3709C4.9648 23.1507 5.11585 22.8739 5.18388 22.5719H5.46291C6.34152 22.573 7.05521 21.8662 7.06445 20.9876V20.2209C7.06215 19.9879 7.15323 19.7631 7.31812 19.5982C7.483 19.4322 7.70783 19.3411 7.94075 19.3434H8.96694V21.4603C8.96694 21.6517 9.10415 21.8224 9.29556 21.8224H12.4837V22.7679C12.4849 23.2614 12.0871 23.6638 11.5936 23.6672H10.8268C10.4083 23.6672 10.007 23.8333 9.71302 24.1296C9.41785 24.4259 9.25296 24.8283 9.25527 25.2469V25.5259V25.5247C8.95204 25.5928 8.67298 25.745 8.45045 25.9617C7.99155 26.4241 7.85666 27.1159 8.10684 27.7166C8.35705 28.3173 8.94392 28.7094 9.59424 28.7094C10.2457 28.7094 10.8326 28.3173 11.0828 27.7166C11.333 27.1159 11.1969 26.4241 10.7392 25.9617C10.5213 25.745 10.2468 25.5939 9.94706 25.5247V25.2457V25.2469C9.94475 25.0116 10.0358 24.7857 10.2019 24.6185C10.3668 24.4524 10.5916 24.359 10.8268 24.359H11.5936C12.4687 24.3544 13.1767 23.6442 13.1755 22.7679V21.8224H15.8851V25.8108C15.5819 25.88 15.304 26.031 15.0814 26.2478C14.6225 26.7101 14.4853 27.4043 14.7355 28.0061C14.9869 28.608 15.5749 29 16.2264 29C16.879 29 17.467 28.608 17.7172 28.0061C17.9674 27.4042 17.8314 26.7101 17.3713 26.2478C17.1522 26.031 16.8778 25.88 16.5769 25.8108V21.8224H18.8829V22.7679C18.8921 23.6476 19.6059 24.3567 20.4856 24.359H21.1082C21.3435 24.3579 21.5706 24.4513 21.7366 24.6173C21.9038 24.7845 21.9972 25.0105 21.9961 25.2469V25.5259V25.5247C21.6951 25.5939 21.4196 25.745 21.2005 25.9617C20.737 26.4252 20.5975 27.1217 20.8488 27.727C21.099 28.3323 21.6894 28.7278 22.3454 28.7278C23.0004 28.7278 23.5907 28.3323 23.842 27.727C24.0922 27.1217 23.9527 26.4252 23.4892 25.9617C23.2678 25.745 22.9911 25.5939 22.6879 25.5247V25.2457V25.2469C22.689 24.8271 22.523 24.4247 22.2267 24.1284C21.9304 23.8321 21.5279 23.6661 21.1082 23.6672H20.4856C19.9875 23.6649 19.5828 23.266 19.5747 22.7679V21.8224H22.6407C22.8321 21.8143 22.982 21.6529 22.9762 21.4603V19.3434H24.06C24.293 19.3411 24.5178 19.4322 24.6827 19.5982C24.8476 19.7631 24.9387 19.9879 24.9363 20.2208V20.9876C24.9456 21.8662 25.6604 22.573 26.5379 22.5719H26.8169C26.8849 22.8739 27.036 23.1507 27.2539 23.3709C27.7163 23.8332 28.4127 23.9728 29.0169 23.7214C29.6222 23.4712 30.0165 22.8808 30.0165 22.2259C30.0165 21.5722 29.6222 20.9819 29.0169 20.7316C28.4127 20.4803 27.7163 20.6186 27.2539 21.0822C27.036 21.3024 26.885 21.578 26.8169 21.88H26.5379C26.0421 21.8812 25.6362 21.4834 25.6282 20.9876V20.2208C25.6305 19.8046 25.4667 19.4034 25.1716 19.1082C24.8776 18.8142 24.4763 18.6493 24.0601 18.6516H22.9762V15.942L27.1026 15.942ZM28.0284 14.9378C28.3409 14.6253 28.831 14.5769 29.1987 14.8225C29.5665 15.0681 29.7095 15.5385 29.54 15.9478C29.3705 16.356 28.9358 16.5877 28.5023 16.5012C28.0688 16.4159 27.7563 16.0354 27.7563 15.5927C27.7563 15.3471 27.8543 15.1107 28.0284 14.9378ZM27.7425 8.81178C28.055 8.49931 28.545 8.45087 28.9128 8.69648C29.2806 8.94207 29.4236 9.4125 29.2541 9.82182C29.0846 10.23 28.6499 10.4617 28.2164 10.3753C27.7828 10.2899 27.4704 9.90945 27.4704 9.4667C27.4704 9.2211 27.5684 8.98475 27.7425 8.81178ZM4.25809 10.1228C3.94562 10.4352 3.45558 10.4837 3.08779 10.2369C2.71998 9.99131 2.577 9.52087 2.74652 9.11271C2.91601 8.7034 3.3507 8.47163 3.78422 8.55811C4.21777 8.64459 4.53021 9.02508 4.53021 9.46668C4.53021 9.71227 4.43219 9.94863 4.25809 10.1228ZM3.97214 16.2476C3.65967 16.5612 3.16963 16.6085 2.80184 16.3629C2.43406 16.1172 2.29105 15.6468 2.46057 15.2375C2.63006 14.8294 3.06475 14.5976 3.49827 14.6841C3.93179 14.7706 4.24426 15.151 4.24426 15.5926C4.24426 15.8382 4.14625 16.0746 3.97214 16.2476ZM4.25809 22.8821C3.94562 23.1946 3.45558 23.243 3.08779 22.9974C2.72001 22.7518 2.577 22.2814 2.74652 21.8721C2.91601 21.4639 3.3507 21.2321 3.78422 21.3186C4.21777 21.404 4.53021 21.7844 4.53021 22.2272C4.53021 22.4728 4.43219 22.708 4.25809 22.8821ZM10.2433 27.7616C9.97808 28.0268 9.57914 28.1063 9.23323 27.9622C8.88732 27.8192 8.66133 27.4814 8.66133 27.1067C8.66133 26.732 8.88732 26.3941 9.23323 26.2512C9.57914 26.107 9.97806 26.1866 10.2433 26.4506C10.4185 26.6236 10.5165 26.86 10.5165 27.1067C10.5165 27.3523 10.4185 27.5886 10.2433 27.7616ZM16.8778 28.0475C16.6126 28.3127 16.2137 28.3923 15.8678 28.2482C15.5219 28.1052 15.2959 27.7674 15.2959 27.3926C15.2959 27.0179 15.5219 26.6801 15.8678 26.5371C16.2137 26.393 16.6126 26.4725 16.8778 26.7366C17.0531 26.9107 17.1511 27.1459 17.1511 27.3927C17.1511 27.6394 17.0531 27.8746 16.8778 28.0475ZM23.0038 27.7616C22.7386 28.0268 22.3397 28.1063 21.9926 27.9622C21.6467 27.8192 21.4207 27.4814 21.4207 27.1067C21.4207 26.732 21.6467 26.3941 21.9926 26.25C22.3397 26.107 22.7386 26.1866 23.0038 26.4506C23.1791 26.6236 23.2771 26.86 23.2771 27.1067C23.2771 27.3523 23.1791 27.5886 23.0038 27.7616ZM11.965 7.72921C11.965 5.49698 13.766 3.68094 15.9717 3.68094C18.1774 3.67978 19.9783 5.49577 19.9783 7.72921V10.0617H11.965V7.72921ZM22.2845 21.1306H9.65913V10.7535H22.2845V21.1306ZM27.7428 21.571C28.0553 21.2586 28.5453 21.2101 28.9131 21.4569C29.2809 21.7025 29.4239 22.1729 29.2544 22.5811C29.0849 22.9904 28.6502 23.2221 28.2167 23.1357C27.7831 23.0492 27.4707 22.6687 27.4707 22.2271C27.4707 21.9815 27.5687 21.7451 27.7428 21.571Z" fill="black" stroke="black" stroke-width="0.4"/>
<path d="M16.0003 15.408C16.7613 15.408 17.4473 14.9503 17.7379 14.2469C18.0296 13.5447 17.8682 12.7353 17.3309 12.1969C16.7924 11.6596 15.983 11.4982 15.2808 11.7899C14.5775 12.0804 14.1198 12.7665 14.1198 13.5275C14.1209 14.5663 14.9615 15.4069 16.0003 15.408ZM16.0003 12.3388C16.4811 12.3388 16.9147 12.6282 17.0991 13.0721C17.2836 13.5172 17.181 14.028 16.8409 14.3681C16.5007 14.7082 15.99 14.8109 15.5449 14.6264C15.101 14.4419 14.8116 14.0083 14.8116 13.5275C14.8116 12.8715 15.3443 12.3388 16.0003 12.3388Z" fill="black"/>
<path d="M16.0003 12.3376V12.3388M16.0003 12.3388C16.4811 12.3388 16.9147 12.6282 17.0991 13.0721C17.2836 13.5172 17.181 14.028 16.8409 14.3681C16.5007 14.7082 15.99 14.8109 15.5449 14.6264C15.101 14.4419 14.8116 14.0083 14.8116 13.5275C14.8116 12.8715 15.3443 12.3388 16.0003 12.3388ZM16.0003 15.408C16.7613 15.408 17.4473 14.9503 17.7379 14.2469C18.0296 13.5447 17.8682 12.7353 17.3309 12.1969C16.7924 11.6596 15.983 11.4982 15.2808 11.7899C14.5775 12.0804 14.1198 12.7665 14.1198 13.5275C14.1209 14.5663 14.9615 15.4069 16.0003 15.408Z" stroke="black" stroke-width="0.4"/>
<path d="M13.1351 20.1503H18.8667H18.8655C19.065 20.1387 19.223 19.9762 19.2288 19.7755V17.0637C19.2288 16.1124 18.4378 15.3653 17.4854 15.3653C17.377 15.3595 17.2733 15.4068 17.2064 15.4921C17.1165 15.612 17.0081 15.7169 16.887 15.8046C16.224 16.2969 15.2878 16.1585 14.7943 15.4956C14.7286 15.4102 14.6248 15.3618 14.5164 15.3653C13.5629 15.3653 12.7719 16.1124 12.7719 17.0637V19.7755C12.7777 19.9762 12.9356 20.1388 13.1351 20.1503ZM13.4637 17.0637C13.4683 16.5506 13.8442 16.1171 14.3515 16.0398C15.1033 16.8872 16.3773 17.0244 17.2917 16.3545C17.4208 16.2623 17.5396 16.1574 17.6468 16.0398C18.1541 16.117 18.5312 16.5506 18.5369 17.0637V19.4585H13.4635L13.4637 17.0637Z" fill="black" stroke="black" stroke-width="0.4"/>
</svg>
