<svg width="32" height="32" viewBox="0 0 32 32" fill="none" xmlns="http://www.w3.org/2000/svg">
<path d="M6.74988 3.91C5.52876 3.91 4.52322 4.91557 4.52322 6.13666V25.8635C4.52322 27.0846 5.52879 28.0901 6.74988 28.0901H15.1222C15.3111 28.089 15.4922 28.0134 15.6255 27.8801C15.7589 27.7457 15.8333 27.5646 15.8322 27.3757C15.8311 26.9846 15.5144 26.6668 15.1222 26.6657H6.74987C6.29208 26.6657 5.94654 26.319 5.94654 25.8624V6.13556C5.94654 5.67888 6.29097 5.33112 6.74987 5.33112H21.3532C21.811 5.33112 22.1566 5.67891 22.1566 6.13556V16.2467C22.1588 16.6367 22.4744 16.9534 22.8655 16.9545C23.0544 16.9556 23.2355 16.8812 23.3688 16.7489C23.5032 16.6156 23.5788 16.4356 23.5788 16.2467V6.13671C23.5788 4.91559 22.5744 3.91005 21.3532 3.91005L6.74988 3.91ZM11.5266 8.32003C11.3388 8.32336 11.1588 8.40003 11.0277 8.53559L9.11211 10.4878L8.62878 9.90447C8.50767 9.76003 8.33432 9.66892 8.14656 9.65225C7.95767 9.63558 7.77101 9.69447 7.62657 9.81559C7.48101 9.9367 7.39101 10.1112 7.37434 10.2989C7.35768 10.4867 7.41657 10.6745 7.53768 10.8189L8.52436 12L8.52325 11.9989C8.65213 12.1545 8.84103 12.2478 9.04213 12.2556C9.24324 12.2633 9.43879 12.1867 9.57879 12.0422L12.041 9.52666H12.0421C12.3143 9.24665 12.3099 8.79888 12.031 8.52445C11.8966 8.39222 11.7154 8.31892 11.5266 8.32003ZM13.8832 9.69558C13.6943 9.69446 13.5132 9.76891 13.3799 9.90113C13.2455 10.0345 13.1699 10.2145 13.1699 10.4033C13.1688 10.5933 13.2432 10.7756 13.3777 10.9089C13.5121 11.0433 13.6944 11.1178 13.8832 11.1178H20.021C20.2099 11.1167 20.3899 11.0411 20.5232 10.9067C20.6554 10.7733 20.7299 10.5922 20.7287 10.4033C20.7276 10.0133 20.411 9.69667 20.021 9.69556L13.8832 9.69558ZM11.5277 14.0345C11.3399 14.0356 11.1599 14.1123 11.0277 14.2467L9.11213 16.1989L8.62881 15.6156C8.5077 15.4712 8.33435 15.38 8.14659 15.3634C7.9577 15.3467 7.77104 15.4056 7.62659 15.5267C7.48104 15.6478 7.39104 15.8223 7.37437 16.01C7.35771 16.1978 7.41659 16.3856 7.53771 16.53L8.52439 17.7122H8.52328C8.65216 17.8667 8.84106 17.96 9.04216 17.9678C9.24327 17.9756 9.43882 17.8978 9.57882 17.7534L12.041 15.2378H12.0421C12.3144 14.9578 12.3099 14.51 12.031 14.2356C11.8966 14.1045 11.7155 14.0323 11.5277 14.0345ZM13.8832 15.4067C13.6943 15.4056 13.5132 15.48 13.3788 15.6134C13.2455 15.7467 13.1699 15.9267 13.1699 16.1156C13.1688 16.3056 13.2432 16.4878 13.3777 16.6211C13.5121 16.7556 13.6944 16.8311 13.8832 16.83H20.021C20.2099 16.8289 20.3899 16.7534 20.5232 16.62C20.6554 16.4856 20.7299 16.3045 20.7287 16.1156C20.7287 15.7245 20.4121 15.4078 20.021 15.4067L13.8832 15.4067ZM25.2499 17.5534C24.6888 17.57 24.1299 17.7956 23.7055 18.2201L23.0799 18.85L21.3166 20.6089C21.3088 20.6167 21.2933 20.6334 21.2644 20.6656L17.5643 24.3668V24.3679C17.4577 24.4735 17.3877 24.6112 17.3643 24.7601L16.9754 27.2379C16.9399 27.4635 17.0132 27.6912 17.1743 27.8524C17.3354 28.0135 17.5643 28.0879 17.7888 28.0524L20.2665 27.669C20.4154 27.6457 20.5543 27.5768 20.661 27.4701L24.3932 23.7368L26.1832 21.9479L26.8076 21.3223C27.671 20.459 27.7099 19.039 26.8498 18.1778C26.8454 18.1734 26.8332 18.1611 26.8121 18.14V18.1411H26.8087H26.8065C26.3743 17.73 25.811 17.5378 25.2499 17.5534ZM25.2844 18.9689C25.4833 18.9612 25.6766 19.0301 25.8266 19.1701H25.8321C25.8321 19.1701 25.8299 19.1745 25.8421 19.1867C26.1421 19.4867 26.1444 19.9701 25.7999 20.3145L25.3743 20.7456L24.2821 19.6567L24.7144 19.2289C24.8832 19.06 25.0866 18.9767 25.2855 18.9689L25.2844 18.9689ZM11.5266 19.7423C11.3389 19.7456 11.1589 19.8223 11.0278 19.9578L9.11219 21.9101L8.62886 21.3278V21.329C8.50886 21.1834 8.3344 21.0923 8.14664 21.0756C7.95888 21.059 7.77109 21.1167 7.62665 21.2378C7.48109 21.359 7.39109 21.5334 7.37443 21.7212C7.35776 21.909 7.41665 22.0967 7.53776 22.2412L8.52444 23.4234H8.52333C8.65222 23.5778 8.84111 23.6712 9.04221 23.6789C9.24332 23.6867 9.43887 23.6089 9.57888 23.4645L12.0411 20.9512H12.0422C12.3144 20.6701 12.31 20.2223 12.0311 19.9478C11.8966 19.8156 11.7155 19.7412 11.5266 19.7423ZM23.2787 20.6601L24.3687 21.7501L19.8199 26.2989L18.5344 26.4989L18.7344 25.2078L22.2987 21.6423C22.3054 21.6356 22.3132 21.6289 22.3198 21.6212V21.6167H22.3254L23.2787 20.6601ZM13.8833 21.1179C13.6944 21.1168 13.5133 21.1912 13.3788 21.3245C13.2455 21.4579 13.1699 21.6379 13.1699 21.8267C13.1688 22.0167 13.2433 22.199 13.3777 22.3323C13.5122 22.4667 13.6944 22.5423 13.8833 22.5412H17.3165C17.5054 22.5401 17.6854 22.4645 17.8187 22.3312C17.9521 22.1967 18.0254 22.0156 18.0254 21.8267C18.0243 21.4356 17.7076 21.119 17.3165 21.1179L13.8833 21.1179Z" fill="black"/>
</svg>
