<svg width="32" height="32" viewBox="0 0 32 32" fill="none" xmlns="http://www.w3.org/2000/svg">
<path d="M25.1526 0.799988H8.89631C7.45631 0.799988 6.3038 1.9525 6.3038 3.3925V18.3362C6.68755 18.1124 7.1038 17.9199 7.55129 17.7924L7.55254 3.39244C7.55254 2.62495 8.16003 2.01618 8.9288 2.01618H25.1851C25.9526 2.01618 26.5614 2.62367 26.5614 3.39244V23.2651C26.5614 24.0326 25.9539 24.6413 25.1851 24.6413L15.0075 24.6401C14.9113 25.0876 14.7838 25.4726 14.6238 25.8876H25.1511C26.5911 25.8876 27.7436 24.7038 27.7436 23.2951V3.39266C27.7436 1.95266 26.5926 0.799988 25.1526 0.799988Z" fill="black" stroke="black" stroke-width="0.5"/>
<path d="M9.79263 12.2237C9.79263 12.5762 10.0801 12.8312 10.4001 12.8312H23.6164C23.969 12.8312 24.2239 12.5437 24.2239 12.2237C24.2239 11.9037 23.9364 11.6162 23.6164 11.6162H10.4001C10.0476 11.5837 9.79263 11.8725 9.79263 12.2237Z" fill="black"/>
<path d="M10.4 16.0963H23.6163C23.9688 16.0963 24.2238 15.8088 24.2238 15.4888C24.2238 15.1688 23.9363 14.8813 23.6163 14.8813L10.4 14.8801C10.0475 14.8801 9.79251 15.1676 9.79251 15.4876C9.79251 15.8075 10.0475 16.0963 10.4 16.0963Z" fill="black"/>
<path d="M23.6163 18.1126H11.6477C12.3202 18.4001 12.8952 18.8489 13.4077 19.3601H23.615C23.9675 19.3601 24.2225 19.0726 24.2225 18.7526C24.2563 18.4001 23.9676 18.1126 23.6163 18.1126Z" fill="black"/>
<path d="M23.6163 21.3763H14.72C14.88 21.76 14.9763 22.1763 15.04 22.6238H23.6163C23.9688 22.6238 24.2238 22.3363 24.2238 22.0163C24.2563 21.6638 23.9676 21.3763 23.6163 21.3763Z" fill="black"/>
<path d="M13.12 26.56C13.76 25.7275 14.1763 24.6725 14.1763 23.52C14.1438 20.8 11.9363 18.56 9.21626 18.56C6.49626 18.56 4.25626 20.7675 4.25626 23.52C4.25626 26.24 6.46374 28.48 9.21626 28.48C10.3688 28.48 11.4237 28.0963 12.2563 27.4237L15.8399 31.0074C15.9674 31.1349 16.1274 31.1999 16.2874 31.1999C16.4474 31.1999 16.6074 31.1362 16.7349 31.0074C16.9912 30.7512 16.9912 30.3674 16.7349 30.1437L13.12 26.56ZM9.21632 27.2325C7.16883 27.2325 5.50368 25.5688 5.50368 23.5199C5.50368 21.4724 7.16742 19.8072 9.21632 19.8072C11.2638 19.8072 12.929 21.471 12.929 23.5199C12.9277 25.5674 11.2327 27.2325 9.21632 27.2325Z" fill="black" stroke="black" stroke-width="0.5"/>
<path d="M10.3363 21.92L8.80006 23.7437L8.0638 22.9762C7.84005 22.72 7.4238 22.72 7.20006 22.9762C6.94381 23.2 6.94381 23.6162 7.20006 23.84L8.41632 25.0875C8.54382 25.215 8.70382 25.28 8.8638 25.28H8.8963C9.0563 25.28 9.24882 25.1837 9.34379 25.0562L11.3275 22.6887C11.5513 22.4325 11.52 22.0487 11.2638 21.825C10.9438 21.6325 10.5275 21.6637 10.3363 21.92Z" fill="black"/>
<path d="M12.7363 4.86365C11.3926 4.86365 10.3038 5.95114 10.3038 7.29616C10.3038 8.6399 11.3913 9.72867 12.7363 9.72867C14.0801 9.72867 15.1688 8.64118 15.1688 7.29616C15.1688 7.19991 15.1051 7.13616 15.0088 7.13616H13.0888C13.0251 7.13616 12.9613 7.07241 12.9613 7.00866V5.08866C12.8963 4.92741 12.8326 4.86365 12.7363 4.86365Z" fill="black"/>
<path d="M15.8726 6.52733C15.9689 6.52733 16.0326 6.46358 16.0326 6.36733C16.0326 5.02358 14.9451 3.93481 13.6001 3.93481C13.5039 3.93481 13.4401 3.99856 13.4401 4.09481V6.33481C13.4401 6.43106 13.5039 6.49481 13.6001 6.49481L15.8726 6.49606V6.52733Z" fill="black"/>
<path d="M18.4 9.56732C18.56 9.56732 18.6875 9.43982 18.6875 9.27982V7.45608C18.6875 7.29608 18.56 7.16858 18.4 7.16858H17.5037C17.3437 7.16858 17.2162 7.29608 17.2162 7.45608V9.27982C17.2162 9.43982 17.3437 9.56732 17.5037 9.56732H18.4Z" fill="black"/>
<path d="M20.7674 9.56733C20.9274 9.56733 21.0549 9.43983 21.0549 9.27982L21.0561 5.91982C21.0561 5.75982 20.9286 5.63232 20.7686 5.63232H19.8724C19.7124 5.63232 19.5849 5.75982 19.5849 5.91982L19.5836 9.27982C19.5836 9.43983 19.7111 9.56733 19.8711 9.56733H20.7674Z" fill="black"/>
<path d="M23.1363 9.56733C23.2963 9.56733 23.4238 9.43983 23.4238 9.27983V4.38351C23.4238 4.22351 23.2963 4.09601 23.1363 4.09601H22.2401C22.0801 4.09601 21.9526 4.22351 21.9526 4.38351V9.27983C21.9526 9.43983 22.0801 9.56733 22.2401 9.56733H23.1363Z" fill="black"/>
</svg>
