<svg width="32" height="32" viewBox="0 0 32 32" fill="none" xmlns="http://www.w3.org/2000/svg">
<path d="M16 7.23489C13.675 7.23489 11.4464 8.15864 9.80257 9.80238C8.15882 11.4461 7.23508 13.675 7.23508 15.9998C7.23508 18.3246 8.15882 20.5534 9.80257 22.1973C11.4463 23.841 13.6752 24.7648 16 24.7648C18.3248 24.7648 20.5536 23.841 22.1974 22.1973C23.8412 20.5535 24.7649 18.3246 24.7649 15.9998C24.7624 13.6761 23.8374 11.4485 22.195 9.80494C20.5512 8.16245 18.3235 7.23739 16 7.23489ZM11.2637 21.7923C11.4074 19.4273 12.9987 18.2397 16 18.2397C19.0013 18.2397 20.5926 19.4272 20.7363 21.7923C19.4001 22.8873 17.7276 23.4848 16 23.4848C14.2724 23.4848 12.6 22.8873 11.2637 21.7923ZM16 16.5824C15.0287 16.5824 14.1538 15.9974 13.7825 15.1012C13.4112 14.2037 13.6163 13.1712 14.3025 12.4849C14.9887 11.7987 16.0213 11.5936 16.9188 11.9649C17.815 12.3362 18.4 13.2112 18.4 14.1824C18.4 14.8187 18.1475 15.4287 17.6975 15.8799C17.2475 16.3299 16.6363 16.5824 16 16.5824ZM21.8589 20.6499C21.4401 18.8287 20.1601 17.6412 18.1315 17.1751C19.4365 16.2463 19.9915 14.5813 19.504 13.0563C19.0178 11.5313 17.6003 10.4951 15.9991 10.4951C14.3979 10.4951 12.9803 11.5313 12.4928 13.0563C12.0066 14.5813 12.5616 16.2464 13.8654 17.1751C11.8404 17.6413 10.5604 18.8288 10.1415 20.6499C8.9665 19.1724 8.39402 17.3063 8.53652 15.425C8.68027 13.5437 9.52778 11.785 10.9128 10.5024C12.2965 9.21992 14.1128 8.50741 16.0001 8.50741C17.8875 8.50741 19.7038 9.21992 21.0875 10.5024C22.4725 11.7849 23.32 13.5437 23.4638 15.425C23.6063 17.3062 23.0339 19.1725 21.8589 20.6499Z" fill="black" stroke="black" stroke-width="0.2"/>
<path d="M28.7651 11.9651L26.6214 11.6001L27.8401 9.86513C28.5114 9.00388 28.4351 7.77764 27.6639 7.00513L24.9826 4.32388C24.2301 3.55764 23.0276 3.46762 22.1701 4.11263L20.3876 5.39263L20.0289 3.29637C19.8939 2.21263 18.9739 1.40012 17.8814 1.39887H14.1051C13.0326 1.38887 12.1188 2.17637 11.9676 3.23887L11.6001 5.39512L9.86257 4.16012C9.00132 3.48885 7.77508 3.56511 7.00132 4.33637L4.32007 7.01761C3.55508 7.77013 3.46382 8.97262 4.10882 9.83013L5.38882 11.6126L3.29007 11.9714C2.20633 12.1064 1.39381 13.0264 1.39257 14.1189V17.8952C1.38257 18.9677 2.17007 19.8814 3.23257 20.0327L5.38882 20.3977L4.16009 22.1377C3.48757 22.9989 3.56383 24.2264 4.33634 24.9989L7.01758 27.6802C7.42382 28.0902 7.97634 28.3202 8.55384 28.3202C9.01509 28.3239 9.4651 28.1739 9.83384 27.8952L11.6163 26.6152L11.9751 28.7114V28.7102C12.1101 29.7939 13.0301 30.6064 14.1213 30.6077H17.8951C18.9676 30.6177 19.8813 29.8302 20.0326 28.7677L20.4001 26.6114L22.1376 27.8402C22.5188 28.1364 22.9863 28.2977 23.4688 28.2977C24.0439 28.2977 24.5951 28.0677 24.9988 27.6577L27.6801 24.9789C28.4451 24.2277 28.5363 23.0252 27.8913 22.1664L26.6113 20.3839L28.7076 20.0252C29.7901 19.8902 30.6038 18.9702 30.6051 17.8789V14.1052C30.6126 13.0327 29.8276 12.1189 28.7651 11.9651ZM29.3376 17.8976C29.3339 18.3526 28.9876 18.7326 28.5351 18.7776L25.4052 19.3089C25.1877 19.3451 25.0039 19.4914 24.9202 19.6951C24.8352 19.8976 24.8614 20.1314 24.9889 20.3101L26.8614 22.9464V22.9476C27.1189 23.2976 27.0802 23.7839 26.7714 24.0901L24.0902 26.7714C23.7664 27.0951 23.2502 27.1189 22.8989 26.8251L20.3102 24.9889C20.1314 24.8614 19.8977 24.8351 19.6952 24.9201C19.4914 25.0039 19.3452 25.1876 19.3089 25.4051L18.7677 28.6051C18.7027 29.0364 18.3302 29.3538 17.8952 29.3501H14.1051C13.6501 29.3464 13.2713 29.0001 13.2251 28.5476L12.6938 25.4176H12.6951C12.6576 25.2014 12.5113 25.0189 12.3076 24.9351C12.1038 24.8514 11.8726 24.8776 11.6926 25.0051L9.05632 26.8776V26.8764C8.70381 27.1264 8.22256 27.0889 7.91383 26.7876L5.23258 24.1064V24.1051C4.91258 23.7814 4.89008 23.2676 5.17758 22.9151L7.01384 20.3264H7.01509C7.14259 20.1464 7.16758 19.9139 7.08383 19.7101C6.99884 19.5076 6.81633 19.3614 6.59884 19.3251L3.39884 18.7839C2.96758 18.7189 2.65011 18.3464 2.6526 17.9101V14.105C2.6576 13.65 3.00262 13.2712 3.45635 13.225L6.58633 12.6937L6.58508 12.695C6.80258 12.6575 6.98633 12.5125 7.07132 12.3088C7.15507 12.105 7.12882 11.8725 7.00132 11.6925L5.12881 9.05624H5.13006C4.87256 8.70623 4.91006 8.21999 5.21881 7.91375L7.90005 5.2325H7.9013C8.2263 4.9125 8.73881 4.89 9.09132 5.1775L11.6801 7.01376V7.01501C11.8601 7.14251 12.0926 7.16751 12.2963 7.08376C12.5001 6.99876 12.645 6.81626 12.6813 6.59876L13.2226 3.39876C13.2876 2.9675 13.6601 2.65003 14.0963 2.65252H17.895C18.35 2.65752 18.7288 3.00254 18.775 3.45627L19.3063 6.58625L19.305 6.585C19.3425 6.8025 19.4888 6.985 19.6925 7.06875C19.8963 7.1525 20.1275 7.12625 20.3075 6.99875L22.9438 5.12623C23.2938 4.86873 23.7801 4.90749 24.0863 5.21623L26.7675 7.89748C27.0875 8.22247 27.11 8.73499 26.8225 9.0875L24.9863 11.6762H24.985C24.8575 11.8562 24.8325 12.0887 24.9163 12.2925C25.0013 12.4962 25.1838 12.6425 25.4013 12.6787L28.56 13.2162H28.5888C29.02 13.2812 29.3375 13.6537 29.335 14.09L29.3376 17.8976Z" fill="black" stroke="black" stroke-width="0.2"/>
</svg>
