<svg width="72" height="72" viewBox="0 0 72 72" fill="none" xmlns="http://www.w3.org/2000/svg">
<g filter="url(#filter0_d_5632_2838)">
<rect x="6" y="4" width="56" height="56" rx="12" fill="#5048ED"/>
<path d="M30.3653 38.6777C29.9617 38.6759 29.6344 38.9981 29.6344 39.3973C29.6326 39.7947 29.9599 40.117 30.3653 40.117H37.6344C38.038 40.1188 38.3653 39.7965 38.3653 39.3973C38.3671 38.9999 38.0398 38.6777 37.6344 38.6777H30.3653ZM38.3656 32.9581C37.5711 32.9581 36.9056 33.6026 36.9056 34.3849C36.9056 35.1673 37.5711 35.8225 38.3656 35.8225C39.1601 35.8225 39.8147 35.1672 39.8147 34.3849C39.8147 33.6026 39.1602 32.9581 38.3656 32.9581ZM29.6364 32.9581C28.8419 32.9581 28.1873 33.6026 28.1873 34.3849C28.1873 35.1673 28.8418 35.8225 29.6364 35.8225C30.431 35.8225 31.0964 35.1672 31.0964 34.3849C31.0964 33.6026 30.431 32.9581 29.6364 32.9581ZM47.3094 18.844L41.4893 24.5745C41.2111 24.8538 41.2111 25.2995 41.4893 25.5788C41.7729 25.8527 42.2256 25.8527 42.5093 25.5788L48.3294 19.8593C48.6148 19.58 48.6148 19.1253 48.3294 18.8443C47.973 18.4934 47.4839 18.6721 47.3094 18.844ZM19.671 18.844C19.3855 19.1233 19.3855 19.5798 19.671 19.859L25.4911 25.5785C25.7747 25.8524 26.2274 25.8524 26.5111 25.5785C26.7893 25.2993 26.7893 24.8535 26.5111 24.5742L20.691 18.8437C20.3165 18.4749 19.8401 18.6775 19.671 18.844ZM33.9945 22.9257C22.756 22.9257 13.6364 31.9142 13.6364 42.9798C13.6364 45.3447 15.5963 47.2727 17.9964 47.2727L50.0054 47.2711C52.4073 47.2711 54.3636 45.3412 54.3636 42.9781C54.3636 31.9126 45.2328 22.924 33.9943 22.924L33.9945 22.9257ZM33.9945 25.79C42.8093 25.79 50.0053 32.6035 50.0053 41.0123C50.0053 42.8974 48.3816 44.4084 46.4398 44.4084H21.5504C19.6086 44.4084 17.9959 42.8974 17.9959 41.0123C17.9959 32.6017 25.1797 25.79 33.9922 25.79H33.9945Z" fill="white"/>
</g>
<defs>
<filter id="filter0_d_5632_2838" x="0" y="0" width="72" height="72" filterUnits="userSpaceOnUse" color-interpolation-filters="sRGB">
<feFlood flood-opacity="0" result="BackgroundImageFix"/>
<feColorMatrix in="SourceAlpha" type="matrix" values="0 0 0 0 0 0 0 0 0 0 0 0 0 0 0 0 0 0 127 0" result="hardAlpha"/>
<feOffset dx="2" dy="4"/>
<feGaussianBlur stdDeviation="4"/>
<feComposite in2="hardAlpha" operator="out"/>
<feColorMatrix type="matrix" values="0 0 0 0 0 0 0 0 0 0 0 0 0 0 0 0 0 0 0.24 0"/>
<feBlend mode="normal" in2="BackgroundImageFix" result="effect1_dropShadow_5632_2838"/>
<feBlend mode="normal" in="SourceGraphic" in2="effect1_dropShadow_5632_2838" result="shape"/>
</filter>
</defs>
</svg>
