<svg width="12" height="9" viewBox="0 0 12 9" fill="none" xmlns="http://www.w3.org/2000/svg">
<path d="M3.89545 8.64849C3.92701 8.67734 3.96037 8.70439 3.99464 8.72964C4.01808 8.74767 4.03791 8.76931 4.06136 8.78373C4.09922 8.80717 4.13799 8.82792 4.17857 8.84685C4.20201 8.85947 4.22545 8.8739 4.2489 8.88472C4.29398 8.90185 4.34086 8.91537 4.38775 8.92619C4.40939 8.92619 4.42922 8.94062 4.45086 8.94423C4.58701 8.97037 4.72766 8.97037 4.86382 8.94423C4.88546 8.94423 4.9053 8.9316 4.92693 8.92619C4.97382 8.91628 5.0189 8.90275 5.06398 8.88652C5.08923 8.8757 5.11267 8.86128 5.13792 8.84865C5.17669 8.83152 5.21456 8.81169 5.25152 8.78915C5.27496 8.77292 5.2966 8.75308 5.32005 8.73505C5.35431 8.71071 5.38767 8.68366 5.41923 8.65571L11.5288 2.55702C11.7551 2.35956 11.8885 2.07735 11.8984 1.778C11.9084 1.47775 11.793 1.18743 11.5811 0.97554C11.3683 0.763656 11.0771 0.650039 10.7777 0.660865C10.4775 0.671684 10.1962 0.80693 9.99959 1.03324L4.67276 6.35292L2.0075 3.64796C1.58914 3.22147 0.90391 3.21607 0.477427 3.63443C0.0509437 4.05279 0.0455422 4.73802 0.463902 5.16451L3.89545 8.64849Z" fill="white"/>
</svg>
