<svg width="16" height="16" viewBox="0 0 16 16" fill="none" xmlns="http://www.w3.org/2000/svg">
<g clip-path="url(#clip0_5666_3743)">
<path d="M14.1771 0.976928L8.41344 6.74055C8.17752 6.97647 7.80326 6.97647 7.58732 6.74055L1.82291 0.976928C1.58699 0.741008 1.21273 0.741008 0.996797 0.976928C0.760878 1.21285 0.760878 1.58711 0.996797 1.80304L6.76121 7.56745C6.99713 7.80337 6.99713 8.17764 6.76121 8.39357L0.976928 14.1771C0.741008 14.413 0.741008 14.7872 0.976928 15.0032C1.21285 15.2391 1.58711 15.2391 1.80304 15.0032L7.56745 9.23876C7.80337 9.00284 8.17764 9.00284 8.39357 9.23876L14.1771 15.023C14.413 15.259 14.7872 15.259 15.0032 15.023C15.2391 14.7871 15.2391 14.4129 15.0032 14.1969L9.25883 8.41265C9.02291 8.17673 9.02291 7.80247 9.25883 7.58654L15.0232 1.82212C15.2592 1.5862 15.2592 1.21194 15.0232 0.996011C14.7873 0.760091 14.4138 0.760091 14.1771 0.976798L14.1771 0.976928Z" fill="black" stroke="black" stroke-width="0.4"/>
</g>
<defs>
<clipPath id="clip0_5666_3743">
<rect width="16" height="16" fill="white"/>
</clipPath>
</defs>
</svg>
