<svg width="121" height="120" viewBox="0 0 121 120" fill="none" xmlns="http://www.w3.org/2000/svg">
<path fill-rule="evenodd" clip-rule="evenodd" d="M71.7499 37.5001C71.7499 43.711 66.7155 48.7501 60.4999 48.7501C59.1171 48.7501 57.7952 48.5016 56.5718 48.0469L63.2844 56.0438C72.3172 54.6985 79.2504 46.9079 79.2504 37.5002C79.2504 27.1456 70.8551 18.7502 60.5004 18.7502C52.2317 18.7502 45.21 24.1033 42.7212 31.5374L49.4337 39.539C49.3166 38.8781 49.2509 38.1937 49.2509 37.5C49.2509 31.2844 54.29 26.25 60.5009 26.25C66.7166 26.25 71.7499 31.2844 71.7499 37.5001ZM49.3531 64.2469L25.3111 35.8213C23.9705 34.2322 24.172 31.8603 25.7658 30.5243C27.3455 29.1977 29.7032 29.3993 31.0392 30.9743L88.0116 98.3435C89.3522 99.9279 89.1507 102.3 87.5569 103.636C85.9772 104.962 83.6195 104.761 82.2835 103.186L76.5179 96.3654C74.146 97.1014 71.6241 97.4998 69.0085 97.4998H51.9925C38.0521 97.4998 26.7505 86.1982 26.7505 72.2578C26.7505 70.7859 27.5239 69.4312 28.8739 68.8547C31.9865 67.5188 38.6099 65.2453 49.3531 64.2469ZM71.0371 89.8825C70.3715 89.9621 69.6918 89.9996 69.0074 89.9996H51.9914C43.043 89.9996 35.6414 83.3762 34.427 74.7656C38.2614 73.4766 45.0864 71.7937 55.3658 71.3579L71.0371 89.8825ZM70.0527 64.1065L77.084 72.4924C81.2653 73.1768 84.3966 74.0347 86.5715 74.7658C86.248 77.0674 85.4793 79.2284 84.3589 81.1595L89.3886 87.1549C92.4449 82.9782 94.2495 77.8268 94.2495 72.2581C94.2495 70.7861 93.4761 69.4315 92.1261 68.855C88.8636 67.4534 81.7393 65.0205 70.0527 64.1065Z" fill="#FBE0DD"/>
</svg>
