<svg width="16" height="10" viewBox="0 0 16 10" fill="none" xmlns="http://www.w3.org/2000/svg">
<g id="Group">
<path id="Vector" d="M8.00004 7.87925C7.18139 7.87925 6.39619 7.57564 5.81738 7.03564C5.23861 6.49564 4.91321 5.76302 4.91321 4.9992C4.91321 4.23537 5.23861 3.50278 5.81738 2.96275C6.39615 2.42275 7.18137 2.11914 8.00004 2.11914C8.81871 2.11914 9.60389 2.42275 10.1827 2.96275C10.7615 3.50275 11.0869 4.23537 11.0869 4.9992C11.0869 5.76302 10.7615 6.49561 10.1827 7.03564C9.60392 7.57564 8.81871 7.87925 8.00004 7.87925ZM8.00004 3.07921C7.16789 3.07921 6.41741 3.54722 6.09906 4.26421C5.7801 4.98182 5.9563 5.80806 6.54472 6.35703C7.13313 6.90603 8.01866 7.07043 8.78779 6.77283C9.55628 6.47583 10.0579 5.77562 10.0579 4.9992C10.0579 4.48979 9.84115 4.00139 9.45529 3.64139C9.06944 3.2814 8.54598 3.07918 8.00001 3.07918L8.00004 3.07921Z" fill="#5048ED"/>
<path id="Vector_2" d="M8.00005 9.79922C4.16731 9.79922 1.01878 5.45046 0.884936 5.26322C0.771753 5.10302 0.771753 4.89542 0.884936 4.73522C1.0187 4.54801 4.16731 0.199219 8.00005 0.199219C11.8328 0.199219 14.9813 4.54798 15.1152 4.73522C15.2283 4.89542 15.2283 5.10302 15.1152 5.26322C14.9814 5.45043 11.8328 9.79922 8.00005 9.79922ZM2.197 4.69185C2.04677 4.86966 2.04678 5.12869 2.19702 5.3065C3.15216 6.43692 5.47904 8.83921 8.00005 8.83921C10.5211 8.83921 12.848 6.43697 13.8031 5.30651C13.9533 5.1287 13.9533 4.86967 13.8031 4.69186C12.8479 3.56144 10.5211 1.15915 8.00005 1.15915C5.47904 1.15915 3.15213 3.56139 2.197 4.69185Z" fill="#5048ED"/>
</g>
</svg>
