<svg width="24" height="24" viewBox="0 0 24 24" fill="none" xmlns="http://www.w3.org/2000/svg">
<path d="M1.39226 15.7191C1.58539 15.9506 1.8732 16.0866 2.176 16.0866L8.30536 16.0856V20.1721C8.30536 20.7355 8.76192 21.194 9.32724 21.194L12.3911 21.193C12.7998 21.193 13.1692 20.9493 13.3295 20.5743L16.1289 14.0427H16.4767C16.4767 14.6061 16.9342 15.0646 17.4986 15.0646H21.5841C22.1485 15.0646 22.606 14.6071 22.606 14.0427V3.82781C22.606 3.26342 22.1485 2.80593 21.5841 2.80593H17.4986C16.9342 2.80593 16.4767 3.26249 16.4767 3.82781V4.36125L12.7709 2.87906C12.6499 2.83125 12.5215 2.80594 12.3912 2.80594H4.21893C3.72487 2.80594 3.30206 3.15938 3.21393 3.645L1.17113 14.8808C1.11675 15.179 1.1982 15.4866 1.39226 15.7191ZM18.5194 4.84971H20.5622V13.0219H18.5194V4.84971ZM5.07098 4.84971H12.1942L16.4767 6.56251V12H15.4549C15.0461 12 14.6767 12.2437 14.5164 12.6196L11.7171 19.1503H10.3474V15.0648C10.3474 14.5004 9.89083 14.0429 9.32551 14.0429H3.39967L5.07098 4.84971Z" fill="#C7CED3"/>
</svg>
