<svg width="16" height="16" viewBox="0 0 16 16" fill="none" xmlns="http://www.w3.org/2000/svg">
<g clip-path="url(#clip0_4346_2156)">
<path d="M12.1182 15.1999C12.276 15.2028 12.4272 15.1299 12.5282 15.0021C12.6292 14.8743 12.6693 14.7061 12.6372 14.5437L11.7423 9.97666L15.029 6.83256C15.1808 6.68817 15.2377 6.46437 15.1748 6.26006C15.1113 6.05502 14.94 5.90848 14.736 5.88466L10.3136 5.3663L8.4756 1.12125C8.39132 0.925607 8.20538 0.799988 8.00005 0.799988C7.79471 0.799988 7.60876 0.925606 7.52449 1.12125L5.68653 5.3663L1.26405 5.88466C1.06005 5.90848 0.888822 6.05503 0.825279 6.26006C0.762406 6.46437 0.819259 6.68817 0.97109 6.83256L4.25781 9.97666L3.36287 14.5437C3.32207 14.753 3.40167 14.9689 3.56687 15.0952C3.73275 15.2208 3.95281 15.2338 4.13073 15.1284L8.00014 12.8247L11.8696 15.1284C11.9451 15.1732 12.0306 15.1985 12.1182 15.1999Z" fill="currentColor"/>
</g>
<defs>
<clipPath id="clip0_4346_2156">
<rect width="16" height="16" fill="white"/>
</clipPath>
</defs>
</svg>
