<svg width="33" height="32" viewBox="0 0 33 32" fill="none" xmlns="http://www.w3.org/2000/svg">
<g id="np_icon_1684502_000000 1">
<path id="Vector" d="M5.61995 12.8V20.48H13.3V12.8H5.61995ZM15.22 10.88V22.4H3.69995V10.88H15.22ZM23.22 20.48C25.5175 20.48 27.38 18.6175 27.38 16.32C27.38 14.0225 25.5175 12.16 23.22 12.16C20.9224 12.16 19.06 14.0225 19.06 16.32C19.06 18.6175 20.9224 20.48 23.22 20.48ZM23.22 22.4C19.8625 22.4 17.14 19.6775 17.14 16.32C17.14 12.9625 19.8624 10.24 23.22 10.24C26.5775 10.24 29.2999 12.9625 29.2999 16.32C29.2999 19.6775 26.5775 22.4 23.22 22.4Z" fill="#212429"/>
</g>
</svg>
