<svg width="12" height="12" viewBox="0 0 12 12" fill="none" xmlns="http://www.w3.org/2000/svg">
<g clip-path="url(#clip0_4346_2049)">
<path d="M0.602705 11.6929C0.552549 11.6929 0.502393 11.6742 0.463481 11.6367C0.383794 11.5603 0.381451 11.4337 0.458794 11.354L3.20655 8.52227C3.2839 8.44305 3.41046 8.44071 3.49015 8.51759C3.56984 8.59399 3.57218 8.72055 3.49484 8.80025L0.747077 11.632C0.707703 11.6728 0.655203 11.6929 0.602705 11.6929V11.6929Z" fill="#212429"/>
<path d="M2.53633 11.8126C2.48898 11.8126 2.44117 11.7962 2.4032 11.7619C2.32023 11.6888 2.31273 11.5622 2.38632 11.4797L4.16712 9.48474C4.24072 9.40224 4.36728 9.39474 4.45025 9.46834C4.53322 9.54146 4.54072 9.66803 4.46713 9.75053L2.68633 11.7455C2.64648 11.7901 2.59164 11.8126 2.53633 11.8126V11.8126Z" fill="#212429"/>
<path d="M0.481882 9.90047C0.434539 9.90047 0.386726 9.88406 0.348754 9.84984C0.265785 9.77671 0.258285 9.65015 0.33188 9.56765L2.11316 7.57312C2.18675 7.49062 2.31332 7.48312 2.39629 7.55672C2.47926 7.62984 2.48676 7.75641 2.41316 7.83891L0.631882 9.83343C0.592039 9.87796 0.537195 9.90046 0.481882 9.90046V9.90047Z" fill="#212429"/>
<path d="M7.16103 7.74277C6.82165 7.8998 6.47852 8.04699 6.13306 8.18386L6.26056 9.83062C6.77853 9.59578 7.97992 8.8664 8.93296 6.8869C8.52186 7.10534 8.1103 7.30174 7.75921 7.46909C7.56187 7.56378 7.36218 7.65425 7.16109 7.74284L7.16103 7.74277Z" fill="#212429"/>
<path d="M4.60808 3.6581C4.71964 3.4345 4.83871 3.2006 4.96621 2.96576C2.96653 3.90607 2.22781 5.09252 1.98877 5.60576L3.64153 5.73045C3.8145 5.30342 4.00293 4.87968 4.20778 4.46157C4.33248 4.20704 4.46512 3.93517 4.60809 3.65814L4.60808 3.6581Z" fill="#212429"/>
<path d="M8.84265 0.442041L11.463 3.03332C11.5914 2.52706 11.6608 2.01942 11.6941 1.54364C11.6969 1.5038 11.6997 1.46395 11.702 1.42364C11.7053 1.36364 11.7081 1.30411 11.7105 1.24504C11.7133 1.17754 11.7152 1.10911 11.7166 1.04067C11.7175 0.993798 11.7184 0.946923 11.7184 0.900981C11.7189 0.806761 11.7189 0.712077 11.717 0.616917C11.7166 0.595354 11.7161 0.57426 11.7156 0.553167C11.7128 0.438792 11.7086 0.323475 11.702 0.207231C10.9384 0.161762 9.89409 0.17767 8.84265 0.442041Z" fill="#212429"/>
<path d="M10.2854 5.34095C10.3384 5.28283 10.3899 5.2233 10.4401 5.16189C10.4467 5.15392 10.4537 5.14595 10.4603 5.13798C10.5132 5.07236 10.5634 5.00392 10.6131 4.93501C10.6304 4.91111 10.6473 4.88673 10.6637 4.86236C10.7021 4.80658 10.7396 4.74939 10.7757 4.69126C10.7992 4.65376 10.8217 4.61579 10.8442 4.57783C10.8709 4.53283 10.8967 4.48736 10.922 4.44095C10.944 4.40017 10.966 4.35986 10.9871 4.31861C11.0026 4.28814 11.0176 4.25674 11.0326 4.2258C11.0729 4.1433 11.1113 4.05986 11.1474 3.97596C11.1531 3.96284 11.1587 3.94924 11.1643 3.93612C11.2285 3.78284 11.2852 3.62768 11.3363 3.47158L8.40102 0.568665C7.65289 0.810069 7.0191 1.16444 6.51006 1.62289C6.49694 1.63461 6.48381 1.64679 6.47069 1.65851C6.40412 1.71992 6.33896 1.78274 6.27709 1.84788C6.25506 1.87132 6.23397 1.8957 6.21194 1.9196C5.72163 2.46148 5.311 3.1688 4.96082 3.84896C4.88253 4.00553 4.80848 4.1574 4.73956 4.2985C4.46628 4.85584 4.21784 5.4324 4.00034 6.01366C3.98487 6.05444 3.95674 6.08772 3.92205 6.11022C3.76831 6.50444 3.62862 6.901 3.50439 7.29803L4.53846 8.32037C4.95096 8.19474 5.36299 8.05224 5.77266 7.89521C5.79375 7.87177 5.81906 7.85161 5.85047 7.8399C6.23766 7.69833 6.6225 7.54223 7.00219 7.37536C7.07907 7.33974 7.15594 7.30411 7.23236 7.26755C8.2022 6.80911 9.30044 6.28974 10.0524 5.57867C10.1161 5.51867 10.1775 5.45539 10.238 5.39117C10.2539 5.37523 10.2699 5.35783 10.2854 5.34095Z" fill="#212429"/>
</g>
<defs>
<clipPath id="clip0_4346_2049">
<rect width="12" height="12" fill="white"/>
</clipPath>
</defs>
</svg>
