<svg width="16" height="16" viewBox="0 0 16 16" fill="none" xmlns="http://www.w3.org/2000/svg">
<g id="Icon/Navigation/16px/Close" clip-path="url(#clip0_5158_6150)">
<path id="Vector" d="M14.0055 1.17202L8.40197 6.77555C8.1726 7.00492 7.80873 7.00492 7.5988 6.77555L1.99451 1.17202C1.76514 0.942658 1.40128 0.942658 1.19134 1.17202C0.961976 1.40139 0.961976 1.76526 1.19134 1.97519L6.79563 7.57948C7.025 7.80885 7.025 8.17271 6.79563 8.38265L1.17202 14.0055C0.942658 14.2349 0.942658 14.5987 1.17202 14.8087C1.40139 15.038 1.76526 15.038 1.97519 14.8087L7.57948 9.20436C7.80885 8.975 8.17271 8.975 8.38265 9.20436L14.0055 14.828C14.2349 15.0573 14.5987 15.0573 14.8087 14.828C15.038 14.5986 15.038 14.2347 14.8087 14.0248L9.22388 8.4012C8.99451 8.17183 8.99451 7.80797 9.22388 7.59803L14.8282 1.99374C15.0575 1.76438 15.0575 1.40051 14.8282 1.19058C14.5988 0.961211 14.2357 0.961211 14.0056 1.1719L14.0055 1.17202Z" fill="#A3ABB1" stroke="#A3ABB1" stroke-width="0.4"/>
</g>
<defs>
<clipPath id="clip0_5158_6150">
<rect width="16" height="16" fill="white"/>
</clipPath>
</defs>
</svg>
