<svg xmlns="http://www.w3.org/2000/svg" width="20" height="20" viewBox="0 0 20 20" fill="none">
  <path d="M18.2912 6.5011C17.8373 5.42974 17.1868 4.46761 16.361 3.63965C15.5338 2.81386 14.5715 2.16401 13.4995 1.70946C12.3901 1.23912 11.2125 1 9.9989 1C5.03703 1.00144 1 5.03924 1 10.0011C1 14.963 5.03703 19 9.9989 19C14.9608 19 18.9978 14.963 18.9978 10.0011C18.9978 8.78755 18.7608 7.60988 18.2905 6.50048L18.2912 6.5011ZM9.9989 17.5127C5.85708 17.5127 2.4879 14.1435 2.4879 10.0017C2.4879 5.85992 5.85708 2.49073 9.9989 2.49073C14.1407 2.49073 17.5099 5.85992 17.5099 10.0017C17.5099 14.1435 14.1407 17.5127 9.9989 17.5127Z" fill="#6C747D"/>
  <path d="M10 8.87503V13.375M10 6.14288V6.3036" stroke="#6C747D" stroke-width="1.2" stroke-linecap="round"/>
</svg>