<svg width="19" height="18" viewBox="0 0 19 18" fill="none" xmlns="http://www.w3.org/2000/svg">
<g clip-path="url(#clip0_4207_1028)">
<path d="M1.404 17.5394C1.32876 17.5394 1.25353 17.5113 1.19516 17.455C1.07563 17.3404 1.07211 17.1506 1.18813 17.031L5.30977 12.7834C5.42579 12.6646 5.61563 12.661 5.73516 12.7763C5.85469 12.891 5.85821 13.0808 5.7422 13.2003L1.62056 17.448C1.56149 17.5092 1.48274 17.5394 1.404 17.5394V17.5394Z" fill="white"/>
<path d="M4.30461 17.7188C4.23359 17.7188 4.16188 17.6942 4.10492 17.6429C3.98046 17.5332 3.96921 17.3434 4.07961 17.2196L6.75081 14.2271C6.8612 14.1034 7.05105 14.0921 7.1755 14.2025C7.29995 14.3122 7.3112 14.502 7.20081 14.6258L4.52961 17.6183C4.46984 17.6851 4.38758 17.7188 4.30461 17.7188V17.7188Z" fill="white"/>
<path d="M1.22282 14.8507C1.15181 14.8507 1.08009 14.8261 1.02313 14.7748C0.898677 14.6651 0.887427 14.4753 0.99782 14.3515L3.66974 11.3597C3.78013 11.236 3.96998 11.2247 4.09443 11.3351C4.21889 11.4448 4.23014 11.6346 4.11974 11.7584L1.44782 14.7502C1.38806 14.817 1.30579 14.8507 1.22282 14.8507V14.8507Z" fill="white"/>
<path d="M11.2417 11.6141C10.7326 11.8497 10.2179 12.0705 9.69971 12.2758L9.89096 14.7459C10.6679 14.3937 12.47 13.2996 13.8996 10.3304C13.2829 10.658 12.6656 10.9526 12.1389 11.2036C11.8429 11.3457 11.5434 11.4814 11.2418 11.6143L11.2417 11.6141Z" fill="white"/>
<path d="M12.6585 4.58301C12.3822 4.58301 12.1066 4.68707 11.8963 4.8945C11.6938 5.09489 11.582 5.36208 11.582 5.64544C11.582 5.92879 11.6938 6.19528 11.897 6.39638C12.3175 6.81193 13.0009 6.81193 13.4207 6.39638C13.6232 6.19599 13.7357 5.92879 13.7357 5.64544C13.7357 5.36208 13.6239 5.09559 13.4207 4.8945C13.2105 4.68708 12.9348 4.58301 12.6585 4.58301H12.6585Z" fill="white"/>
<path d="M7.41212 5.48715C7.57946 5.15175 7.75806 4.8009 7.94931 4.44864C4.94979 5.8591 3.84171 7.63878 3.48315 8.40864L5.96229 8.59568C6.22175 7.95513 6.5044 7.31951 6.81168 6.69236C6.99872 6.31056 7.19769 5.90275 7.41214 5.4872L7.41212 5.48715Z" fill="white"/>
<path d="M13.7639 0.663061L17.6944 4.54998C17.887 3.7906 17.9911 3.02912 18.041 2.31546C18.0453 2.25569 18.0495 2.19593 18.053 2.13546C18.0579 2.04546 18.0621 1.95616 18.0656 1.86757C18.0699 1.76632 18.0727 1.66366 18.0748 1.56101C18.0762 1.4907 18.0776 1.42038 18.0776 1.35147C18.0783 1.21014 18.0783 1.06811 18.0755 0.925375C18.0748 0.893031 18.0741 0.86139 18.0734 0.82975C18.0692 0.658188 18.0628 0.485212 18.053 0.310846C16.9076 0.242642 15.3411 0.26655 13.764 0.663106L13.7639 0.663061Z" fill="white"/>
<path d="M15.9281 8.01146C16.0076 7.92427 16.0849 7.83498 16.1601 7.74286C16.17 7.73091 16.1805 7.71896 16.1904 7.707C16.2698 7.60857 16.3451 7.50591 16.4196 7.40255C16.4456 7.36669 16.4709 7.33013 16.4955 7.29357C16.5532 7.2099 16.6094 7.12411 16.6636 7.03692C16.6987 6.98067 16.7325 6.92372 16.7662 6.86677C16.8063 6.79927 16.845 6.73106 16.883 6.66146C16.916 6.60029 16.949 6.53982 16.9807 6.47795C17.0039 6.43225 17.0264 6.38514 17.0489 6.33873C17.1094 6.21498 17.167 6.08983 17.2212 5.96397C17.2296 5.94428 17.238 5.92389 17.2465 5.9042C17.3428 5.67429 17.4279 5.44155 17.5045 5.20741L13.1015 0.853027C11.9793 1.21513 11.0287 1.74669 10.2651 2.43436C10.2454 2.45194 10.2257 2.47022 10.206 2.4878C10.1062 2.57991 10.0084 2.67414 9.91564 2.77186C9.88259 2.80701 9.85095 2.84358 9.8179 2.87944C9.08244 3.69224 8.4665 4.75324 7.94122 5.77348C7.8238 6.00832 7.71271 6.23613 7.60934 6.44777C7.19942 7.28378 6.82675 8.14863 6.5005 9.02051C6.4773 9.08169 6.43511 9.13161 6.38308 9.16536C6.15247 9.75669 5.94293 10.3515 5.75659 10.9471L7.30769 12.4806C7.92644 12.2921 8.54449 12.0784 9.15899 11.8428C9.19063 11.8077 9.2286 11.7775 9.27571 11.7599C9.8565 11.5475 10.4338 11.3134 11.0033 11.0631C11.1186 11.0096 11.2339 10.9562 11.3485 10.9014C12.8033 10.2137 14.4507 9.43464 15.5785 8.36803C15.6742 8.27803 15.7663 8.18312 15.857 8.08678C15.8809 8.06288 15.9048 8.03686 15.928 8.01155L15.9281 8.01146ZM13.8455 6.82107C13.5186 7.14451 13.0889 7.30622 12.6593 7.30622C12.2297 7.30622 11.8001 7.1445 11.4732 6.82107C11.1554 6.50677 10.981 6.08982 10.981 5.64545C10.981 5.20108 11.1561 4.78341 11.4732 4.46983C12.1278 3.82295 13.1916 3.82295 13.8463 4.46983C14.1641 4.78413 14.3385 5.20108 14.3385 5.64545C14.3378 6.08983 14.1627 6.50749 13.8456 6.82107H13.8455Z" fill="white"/>
</g>
<defs>
<clipPath id="clip0_4207_1028">
<rect width="18" height="18" fill="white" transform="translate(0.5)"/>
</clipPath>
</defs>
</svg>
