<svg width="8" height="8" viewBox="0 0 8 8" fill="none" xmlns="http://www.w3.org/2000/svg">
<path d="M0.55359 2.33925C0.926044 2.74477 1.2985 3.14989 1.67093 3.55537C2.26543 4.20265 2.85805 4.84843 3.45253 5.4957C3.58975 5.64522 3.72658 5.79282 3.8638 5.94234C3.93317 6.01922 4.06662 6.01922 4.13598 5.94234C4.50843 5.53683 4.88089 5.1317 5.25332 4.72623C5.84782 4.07895 6.44044 3.43317 7.03491 2.7859C7.17214 2.63638 7.30897 2.48878 7.44619 2.33925C7.61621 2.15437 7.34403 1.87493 7.17402 2.06174C6.80156 2.46725 6.42911 2.87238 6.05667 3.27785C5.46218 3.92513 4.86956 4.57092 4.27508 5.21819C4.13786 5.3677 4.00103 5.5153 3.8638 5.66483H4.13598C3.76353 5.25932 3.39107 4.85419 3.01864 4.44871C2.42414 3.80143 1.83152 3.15565 1.23704 2.50838C1.09982 2.35886 0.962987 2.21126 0.825765 2.06174C0.657633 1.87686 0.383576 2.15437 0.55359 2.33925Z" fill="currentColor" stroke="currentColor" stroke-width="0.6"/>
</svg>
