<svg width="20" height="20" viewBox="0 0 20 20" fill="none" xmlns="http://www.w3.org/2000/svg">
<g id="Icon/Navigation/20px/Arrow Left">
<path id="Vector" d="M12.4911 15.9081C11.8829 15.2696 11.2752 14.6311 10.6669 13.9927C9.69603 12.9736 8.72735 11.9576 7.75645 10.9385C7.53217 10.7033 7.31077 10.4687 7.08648 10.2335C6.97117 10.1146 6.97117 9.88579 7.08648 9.76689C7.69475 9.1284 8.30245 8.48991 8.91066 7.85145C9.88158 6.83231 10.8503 5.81639 11.8212 4.79729C12.0454 4.56205 12.2668 4.32748 12.4911 4.09224C12.7684 3.80079 13.1876 4.26737 12.9074 4.55883C12.2991 5.19732 11.6914 5.83581 11.0832 6.47427C10.1123 7.49341 9.14363 8.50933 8.17272 9.52843C7.94845 9.76367 7.9491 9.76476 7.72481 10C8.33308 10.6385 8.71872 11.0439 9.32693 11.6823C10.2978 12.7015 11.2665 13.7174 12.2374 14.7365C12.4617 14.9717 12.6831 15.2063 12.9074 15.4415C13.1847 15.7298 12.7684 16.1996 12.4911 15.9081Z" fill="black" stroke="black"/>
</g>
</svg>
