<svg width="8" height="8" viewBox="0 0 8 8" fill="none" xmlns="http://www.w3.org/2000/svg">
<g id="Icon/Navigation/20px/Close" clip-path="url(#clip0_4629_7584)">
<path id="Vector" d="M7.08856 0.488494L4.20675 3.37031C4.08879 3.48827 3.90166 3.48827 3.79369 3.37031L0.911486 0.488494C0.793526 0.370534 0.606395 0.370534 0.498429 0.488494C0.380469 0.606454 0.380469 0.793585 0.498429 0.901551L3.38064 3.78376C3.4986 3.90172 3.4986 4.08885 3.38064 4.19681L0.488494 7.08856C0.370534 7.20652 0.370534 7.39365 0.488494 7.50162C0.606454 7.61958 0.793585 7.61958 0.901551 7.50162L3.78376 4.61941C3.90172 4.50145 4.08885 4.50145 4.19681 4.61941L7.08856 7.51155C7.20652 7.62951 7.39365 7.62951 7.50162 7.51155C7.61958 7.39359 7.61958 7.20646 7.50162 7.0985L4.62945 4.20636C4.51149 4.0884 4.51149 3.90127 4.62945 3.7933L7.51165 0.911092C7.62961 0.793132 7.62961 0.606002 7.51165 0.498036C7.39369 0.380076 7.20695 0.380076 7.0886 0.48843L7.08856 0.488494Z" fill="black" stroke="black" stroke-width="0.4"/>
</g>
<defs>
<clipPath id="clip0_4629_7584">
<rect width="8" height="8" fill="white"/>
</clipPath>
</defs>
</svg>
