<svg width="16" height="16" viewBox="0 0 16 16" fill="none" xmlns="http://www.w3.org/2000/svg">
<path d="M6.9436 2.68817C4.5436 2.68817 2.57544 4.65633 2.57544 7.05633C2.57544 9.45633 4.5436 11.4245 6.9436 11.4245C7.75986 11.4245 8.52734 11.2007 9.1836 10.8007L12.1273 13.5689C12.351 13.777 12.7192 13.777 12.9273 13.537L13.0392 13.4089C13.2473 13.1852 13.2473 12.817 13.0073 12.6089L10.1916 9.96827C10.8797 9.20014 11.3116 8.17643 11.3116 7.05643C11.3116 4.65643 9.34344 2.68827 6.94344 2.68827L6.9436 2.68817ZM6.9436 3.95192C8.65544 3.95192 10.0473 5.32817 10.0473 7.0556C10.0473 8.78376 8.67102 10.1593 6.9436 10.1593C5.21608 10.1599 3.83992 8.78364 3.83992 7.05608C3.83992 5.3436 5.23179 3.95176 6.9436 3.95176V3.95192Z" fill="#495057"/>
</svg>
