<svg width="12" height="12" viewBox="0 0 12 12" fill="none" xmlns="http://www.w3.org/2000/svg">
<g id="Icon/Action/20px/Search" clip-path="url(#clip0_7457_11523)">
<path id="Vector" d="M8.3789 7.81338C9.01589 7.05038 9.39883 6.069 9.39883 4.99998C9.39883 2.57364 7.42509 0.600098 5.00042 0.600098C2.57384 0.600098 0.600098 2.57364 0.600098 4.99998C0.600098 7.42584 2.57384 9.39986 5.00042 9.39986C6.06957 9.39986 7.05108 9.01603 7.8141 8.38004L10.7168 11.2825C10.7946 11.3603 10.8968 11.4001 10.9999 11.4001C11.1021 11.4001 11.2052 11.3607 11.283 11.2825C11.4391 11.1264 11.4391 10.8733 11.283 10.7172L8.3789 7.81338ZM5.00042 8.59934C3.01589 8.59934 1.40068 6.9843 1.40068 4.99996C1.40068 3.01562 3.01589 1.40058 5.00042 1.40058C6.98496 1.40058 8.60017 3.01562 8.60017 4.99996C8.60017 6.9843 6.98496 8.59934 5.00042 8.59934Z" fill="#A3ABB1" stroke="#A3ABB1" stroke-width="0.2"/>
</g>
<defs>
<clipPath id="clip0_7457_11523">
<rect width="12" height="12" fill="white"/>
</clipPath>
</defs>
</svg>
