<svg width="18" height="18" viewBox="0 0 18 18" fill="none" xmlns="http://www.w3.org/2000/svg">
<path d="M16.7175 0.432429L8.95116 2.94183L1.21911 5.4386C0.582289 5.64245 0.692335 6.58957 1.38869 6.92512L7.28424 9.76465L12.9705 4.87574C14.789 3.30985 14.9983 3.51912 13.4324 5.33757L8.54345 11.0239L11.383 16.9194C11.7185 17.6158 12.6657 17.7258 12.8695 17.089L15.3663 9.35694L17.8757 1.59061C17.9304 1.42923 17.9388 1.25577 17.9001 1.08984C17.8614 0.923901 17.777 0.772111 17.6565 0.651623C17.536 0.531135 17.3842 0.446754 17.2183 0.408019C17.0523 0.369284 16.8789 0.377739 16.7175 0.432429Z" fill="#6C747D"/>
</svg>
