<svg width="20" height="20" viewBox="0 0 20 20" fill="none" xmlns="http://www.w3.org/2000/svg">
<path d="M0.038341 10.3078C-0.038221 4.6156 4.34614 0 10.0383 0C12.5765 0 14.9617 1 16.8079 2.6922V2.00002C16.8079 1.3844 17.3462 0.84612 17.9618 0.84612C18.654 0.84612 19.1157 1.3844 19.1157 2.00002V5.46182C19.1157 6.154 18.654 6.61572 17.9618 6.61572H14.5C13.8844 6.61572 13.3461 6.154 13.3461 5.46182C13.3461 4.8462 13.8844 4.30792 14.5 4.30792H15.1922C13.8078 3.0001 11.9618 2.30792 10.0382 2.30792C5.65382 2.30792 2.26862 5.84612 2.34602 10.2313L0.038341 10.3078ZM3.19234 18C3.19234 18.6156 2.65406 19.1539 2.03844 19.1539C1.42282 19.1539 0.884541 18.6156 0.884541 18V14.4618C0.884541 13.8462 1.42282 13.3079 2.03844 13.3079H5.50024C6.11586 13.3079 6.65414 13.8462 6.65414 14.4618C6.65414 15.154 6.11586 15.6157 5.50024 15.6157H4.80806C6.26978 16.9235 8.11586 17.6923 10.0385 17.6923C14.4229 17.6923 17.7307 14.0767 17.6541 9.7689L19.9619 9.69234C20.1158 15.3845 15.7315 20.0001 10.0385 20.0001C7.50026 20.0001 5.03846 19.0001 3.19246 17.3079L3.19234 18Z" fill="#5048ED"/>
</svg>
