<svg width="16" height="16" viewBox="0 0 16 16" fill="none" xmlns="http://www.w3.org/2000/svg">
<path d="M9.25499 7.97654C9.25499 7.77676 9.34842 7.48628 9.46588 7.32618L12.9737 2.54006C13.0898 2.37995 13.0337 2.25102 12.8442 2.25102H3.9575C3.76931 2.25102 3.71058 2.37853 3.82803 2.54006L7.33584 7.32618C7.45196 7.48487 7.54673 7.77533 7.54673 7.97654V13.4953C7.54673 13.6951 7.68687 13.7986 7.86439 13.7235L8.93751 13.2672C9.1137 13.1936 9.25518 12.9739 9.25518 12.7699L9.25499 7.97654ZM10.6218 12.7699C10.6218 13.5676 10.1386 14.32 9.44586 14.6147L8.37141 15.0709C7.2943 15.5271 6.17977 14.7209 6.17977 13.4953V8.11107L2.74953 3.42978C1.93668 2.32036 2.62673 0.800049 3.95748 0.800049H12.8442C14.1829 0.800049 14.8596 2.32743 14.0521 3.42978L10.6219 8.11107L10.6218 12.7699Z" fill="currentColor"/>
</svg>
