<svg width="24" height="24" viewBox="0 0 24 24" fill="none" xmlns="http://www.w3.org/2000/svg">
<g id="np_filter_1594080_6D6D6D 1">
<path id="Vector" d="M13.1538 11.9009C13.1538 11.6467 13.2801 11.2771 13.4387 11.0733L18.1769 4.98333C18.3337 4.77961 18.258 4.61554 18.002 4.61554H5.99828C5.74408 4.61554 5.66475 4.7778 5.8234 4.98333L10.5616 11.0733C10.7184 11.2753 10.8464 11.6449 10.8464 11.9009V18.9232C10.8464 19.1774 11.0357 19.309 11.2755 19.2134L12.725 18.6329C12.963 18.5392 13.1541 18.2597 13.1541 18.0001L13.1538 11.9009ZM15 18.0001C15 19.0151 14.3473 19.9724 13.4117 20.3474L11.9604 20.928C10.5054 21.5085 9 20.4827 9 18.9231V12.0721L4.36662 6.11544C3.26866 4.70378 4.20075 2.76929 5.99825 2.76929H18.0019C19.8102 2.76929 20.7243 4.71278 19.6336 6.11544L15.0002 12.0721L15 18.0001Z" fill="#495057"/>
</g>
</svg>
