<svg width="24" height="24" viewBox="0 0 24 24" fill="none" xmlns="http://www.w3.org/2000/svg">
<g id="np_search_3864712_6D6D6D 1">
<path id="Vector" d="M10.4155 4.03223C6.81552 4.03223 3.86328 6.98447 3.86328 10.5845C3.86328 14.1845 6.81552 17.1367 10.4155 17.1367C11.6399 17.1367 12.7911 16.8011 13.7755 16.2011L18.191 20.3533C18.5267 20.6655 19.0788 20.6655 19.391 20.3055L19.5589 20.1133C19.871 19.7777 19.871 19.2255 19.511 18.9133L15.2875 14.9524C16.3197 13.8002 16.9675 12.2646 16.9675 10.5846C16.9675 6.98461 14.0153 4.03237 10.4153 4.03237L10.4155 4.03223ZM10.4155 5.92784C12.9833 5.92784 15.071 7.99223 15.071 10.5834C15.071 13.1756 13.0067 15.2389 10.4155 15.2389C7.82424 15.2398 5.76 13.1754 5.76 10.5841C5.76 8.01536 7.84781 5.9276 10.4155 5.9276V5.92784Z" fill="#495057"/>
</g>
</svg>
