<svg width="20" height="20" viewBox="0 0 20 20" fill="none" xmlns="http://www.w3.org/2000/svg">
<g id="Icon/File/20px/Upload">
<path id="Vector" d="M18.408 12.9034C18.7349 12.9034 19 13.1658 19 13.4895V15.6002C19 17.4776 17.4623 19 15.566 19H4.43404C2.53774 19 1 17.4776 1 15.6002V13.4895C1 13.1658 1.26509 12.9034 1.59204 12.9034C1.91899 12.9034 2.18408 13.1658 2.18408 13.4895V15.6002C2.18408 16.8302 3.19166 17.8278 4.43408 17.8278H15.566C16.8084 17.8278 17.816 16.8302 17.816 15.6002V13.4895C17.816 13.1658 18.081 12.9034 18.408 12.9034ZM9.99998 14.193C10.3136 14.193 10.5709 13.9515 10.5906 13.6459L10.592 13.6069V3.93564L13.1485 6.29759C13.3771 6.50921 13.73 6.50643 13.9557 6.29898L13.9853 6.26905C14.199 6.04281 14.1962 5.69335 13.9867 5.4699L13.9564 5.44066L10.4077 2.16131C10.3965 2.15087 10.3859 2.14182 10.3747 2.13208C10.3712 2.12999 10.3684 2.1272 10.3656 2.12511C10.3585 2.11954 10.3508 2.11397 10.3438 2.1091C10.3388 2.10562 10.3339 2.10214 10.3283 2.09866C10.3234 2.09518 10.3184 2.0917 10.3128 2.08891C10.3079 2.08543 10.303 2.08265 10.2973 2.07917C10.2896 2.07499 10.2819 2.07082 10.2734 2.06664L10.2643 2.06177C10.2573 2.05829 10.2495 2.05481 10.2425 2.05133C10.2369 2.04924 10.232 2.04715 10.227 2.04506C10.22 2.04228 10.2137 2.03949 10.2073 2.03671L10.1898 2.03114C10.1848 2.02905 10.1799 2.02766 10.1743 2.02627C10.1673 2.02418 10.1602 2.02209 10.1525 2.02C10.1335 2.01443 10.1131 2.01025 10.0934 2.00747C10.0885 2.00677 10.0829 2.00608 10.078 2.00538L10.0386 2.00121L9.99993 2.00051C9.9697 2.00051 9.93946 2.0026 9.90923 2.00677L9.88181 2.01165C9.7004 1.97545 9.50492 2.02348 9.35939 2.15783L5.80655 5.44074C5.56749 5.66142 5.55484 6.03244 5.77772 6.26912C6.00062 6.50579 6.37538 6.51832 6.61443 6.29766L9.40803 3.71652V13.607C9.40803 13.9307 9.67303 14.193 9.99998 14.193Z" fill="#A3ABB1" stroke="#A3ABB1" stroke-width="0.3"/>
</g>
</svg>
