<svg width="62" height="20" viewBox="0 0 62 20" fill="none" xmlns="http://www.w3.org/2000/svg">
<path d="M0 15.5495L0 13.7372L5.34244 6.80918L0.527365 6.80918L0.527365 4.17101L9.53843 4.17101L9.53843 5.96037L4.19599 12.9114L9.69894 12.9114V15.5495L0 15.5495Z" fill="black"/>
<path d="M16.605 15.8248C15.7949 15.8248 15.0382 15.6948 14.3351 15.4348C13.6319 15.1595 13.0205 14.7695 12.5007 14.2649C11.981 13.7449 11.5759 13.1178 11.2855 12.3837C10.9951 11.6496 10.8499 10.8085 10.8499 9.86027C10.8499 8.94265 11.0027 8.11679 11.3084 7.38269C11.6142 6.6333 12.0116 6.00626 12.5007 5.50156C13.0052 4.98158 13.5784 4.58394 14.2204 4.30865C14.8624 4.03337 15.5274 3.89573 16.2152 3.89573C17.0254 3.89573 17.7285 4.03337 18.3247 4.30865C18.9361 4.58394 19.4406 4.96628 19.838 5.45568C20.2507 5.94508 20.5564 6.52624 20.7552 7.19916C20.9539 7.85679 21.0532 8.5756 21.0532 9.35558C21.0532 9.66145 21.0379 9.95203 21.0074 10.2273C20.9768 10.5026 20.9462 10.7091 20.9157 10.8467L14.1058 10.8467C14.2586 11.6726 14.5949 12.2843 15.1146 12.682C15.6497 13.0643 16.2993 13.2555 17.0636 13.2555C17.8738 13.2555 18.6916 13.0031 19.517 12.4984L20.6405 14.5401C20.0596 14.9378 19.41 15.2513 18.6916 15.4807C17.9884 15.7101 17.2929 15.8248 16.605 15.8248ZM14.0828 8.62148L18.1871 8.62148C18.1871 7.97914 18.0419 7.45916 17.7515 7.06152C17.461 6.66389 16.9719 6.46507 16.284 6.46507C15.749 6.46507 15.2751 6.64094 14.8624 6.9927C14.465 7.34445 14.2051 7.88738 14.0828 8.62148Z" fill="black"/>
<path d="M26.4777 15.8248C25.8969 15.8248 25.4077 15.7331 25.0103 15.5495C24.6128 15.366 24.2918 15.1137 24.0472 14.7925C23.818 14.456 23.6498 14.0584 23.5428 13.5996C23.4358 13.1255 23.3823 12.5978 23.3823 12.0167L23.3823 0L26.7529 0L26.7529 12.1543C26.7529 12.5061 26.814 12.7508 26.9363 12.8884C27.0739 13.0261 27.2114 13.0949 27.349 13.0949C27.4254 13.0949 27.4866 13.0949 27.5324 13.0949C27.5936 13.0949 27.67 13.0796 27.7617 13.049L28.1745 15.5495C27.991 15.626 27.7541 15.6872 27.4637 15.7331C27.1885 15.7942 26.8599 15.8248 26.4777 15.8248Z" fill="black"/>
<path d="M34.3225 15.8248C33.6193 15.8248 33.0155 15.7178 32.5111 15.5036C32.0219 15.2895 31.6168 14.9913 31.2958 14.609C30.9901 14.2266 30.7608 13.7678 30.608 13.2325C30.4704 12.682 30.4016 12.0779 30.4016 11.4202L30.4016 6.80918L28.8424 6.80918V4.30865L30.585 4.17101L30.9748 1.14286L33.7722 1.14286V4.17101L36.5007 4.17101V6.80918L33.7722 6.80918V11.3743C33.7722 12.0167 33.9021 12.4831 34.162 12.7737C34.4371 13.049 34.7963 13.1867 35.2396 13.1867C35.423 13.1867 35.6065 13.1637 35.7899 13.1178C35.9886 13.0719 36.1644 13.0184 36.3173 12.9572L36.8446 15.4119C36.5389 15.5036 36.1797 15.5954 35.767 15.6872C35.3543 15.7789 34.8727 15.8248 34.3225 15.8248Z" fill="black"/>
<path d="M38.7205 15.5495V0L42.0911 0V3.41397L41.9306 5.45568C42.3586 5.07334 42.8554 4.72158 43.4209 4.40042C43.9865 4.06396 44.6591 3.89573 45.4387 3.89573C46.6768 3.89573 47.5711 4.30101 48.1214 5.11157C48.687 5.92214 48.9697 7.04623 48.9697 8.48384V15.5495H45.5992V8.91971C45.5992 8.09385 45.4845 7.52798 45.2553 7.22211C45.0413 6.91623 44.6897 6.7633 44.2005 6.7633C43.7725 6.7633 43.4057 6.8627 43.0999 7.06152C42.7942 7.24505 42.4579 7.51269 42.0911 7.86444V15.5495H38.7205Z" fill="black"/>
<path d="M53.0807 20C52.7291 20 52.431 19.9771 52.1864 19.9312C51.9418 19.9006 51.7049 19.8471 51.4756 19.7706L52.0718 17.2013C52.1788 17.2318 52.3011 17.2624 52.4386 17.293C52.5762 17.3236 52.7061 17.3389 52.8284 17.3389C53.394 17.3389 53.8297 17.2013 54.1354 16.926C54.4411 16.6507 54.6704 16.2913 54.8233 15.8478L54.9837 15.2513L50.6043 4.17101L53.9978 4.17101L55.6258 9.05735C55.7939 9.57734 55.9468 10.105 56.0843 10.6402C56.2219 11.1755 56.3671 11.7261 56.52 12.292H56.6117C56.734 11.7567 56.8563 11.2214 56.9786 10.6861C57.1161 10.1356 57.2537 9.59263 57.3913 9.05735L58.767 4.17101H62L58.0562 15.6642C57.7811 16.383 57.4906 17.0101 57.1849 17.5454C56.8945 18.0959 56.5506 18.5471 56.1531 18.8989C55.771 19.2659 55.3277 19.5412 54.8233 19.7247C54.3341 19.9082 53.7532 20 53.0807 20Z" fill="black"/>
</svg>
