<svg width="195" height="56" viewBox="0 0 195 56" fill="none" xmlns="http://www.w3.org/2000/svg">
<path d="M194.233 19.8497C194.233 30.5777 186.961 40.0817 175.153 40.0817C165.361 40.0817 158.521 33.6017 158.521 22.8017C158.521 10.7777 167.017 2.92969 177.673 2.92969C187.609 2.92969 194.233 9.62569 194.233 19.8497ZM184.873 22.2257C184.873 13.2257 182.353 7.10569 175.729 7.10569C169.609 7.10569 167.809 12.3617 167.809 20.1377C167.809 29.0657 170.185 35.9057 176.809 35.9057C182.353 35.9057 184.873 31.0097 184.873 22.2257Z" fill="#5048ED"/>
<path d="M134.632 25.4628C132.616 25.4628 130.672 25.2468 128.944 24.8868C128.224 25.8228 127.792 26.8308 127.792 27.6948C127.792 29.2788 129.16 30.3588 132.328 30.3588H137.872C147.088 30.3588 153.28 33.0948 153.28 39.8628C153.28 47.3508 145.648 55.2708 132.4 55.2708C122.752 55.2708 117.568 50.8068 117.568 45.6948C117.568 41.5188 120.808 39.0708 125.704 37.1268C122.392 35.9748 121.24 33.7428 121.24 31.4388C121.24 28.4868 123.76 26.0388 126.784 24.2388C122.392 22.5828 119.584 19.4148 119.584 14.8068C119.584 8.11078 125.488 2.92678 134.56 2.92678C139.024 2.92678 143.128 4.22278 145.792 6.52678C149.176 4.79878 148.888 0.550781 152.488 0.550781C154.504 0.550781 155.872 1.70278 155.872 3.43078C155.872 6.74278 151.12 8.03878 147.448 8.32678C148.6 9.91078 149.248 11.7828 149.248 13.9428C149.248 21.0708 142.48 25.4628 134.632 25.4628ZM131.68 37.9188C130.312 37.9188 129.088 37.8468 128.008 37.6308C125.848 39.4308 125.128 41.5908 125.128 43.7508C125.128 48.2148 128.152 51.3108 134.632 51.3108C140.968 51.3108 145.432 48.3588 145.432 43.3908C145.432 39.9348 143.2 37.9188 137.224 37.9188H131.68ZM140.176 14.5188C140.176 9.26278 137.368 6.52678 133.984 6.52678C130.24 6.52678 128.224 9.69478 128.224 14.1588C128.224 18.7668 130.456 21.9348 134.56 21.9348C138.376 21.9348 140.176 18.9108 140.176 14.5188Z" fill="#5048ED"/>
<path d="M86.9694 32.3057C86.9694 34.3217 87.5454 35.3297 88.8414 35.8337C89.4894 36.1217 90.2814 36.1937 91.7934 36.3377V39.0017H73.5774V36.3377C74.5854 36.2657 75.8094 36.1937 76.5294 35.8337C77.8974 35.4017 78.4014 34.3217 78.4014 32.3057V10.3457C78.4014 8.11369 77.9694 7.39369 75.8094 7.39369C74.9454 7.39369 73.5774 7.46569 72.8574 7.53769V5.01769C75.2334 4.15369 80.1294 2.92969 82.9374 2.92969C86.1054 2.92969 86.9694 4.36969 86.9694 7.39369V8.76169C90.6414 5.30569 94.7454 2.92969 99.6414 2.92969C106.121 2.92969 109.505 6.45769 109.505 15.0977V32.3057C109.505 34.3217 110.081 35.3297 111.377 35.8337C112.025 36.1217 112.817 36.1937 114.329 36.3377V39.0017H96.1134V36.3377C97.1214 36.2657 98.3454 36.1937 99.0654 35.8337C100.433 35.4017 100.937 34.3217 100.937 32.3057V17.4737C100.937 12.0737 99.6414 9.12169 93.9534 9.12169C91.5054 9.12169 89.7054 9.62569 86.9694 10.5617V32.3057Z" fill="#5048ED"/>
<path d="M64.6107 15.8885V31.8725C64.6107 35.4725 66.1947 36.4085 69.1467 36.4085C69.5067 36.4085 69.8667 36.4085 70.3707 36.3365V38.2805C68.5707 39.0725 66.4827 39.8645 63.4587 39.8645C57.6987 39.8645 56.0427 37.3445 56.0427 33.6725V33.6005C53.7387 37.2005 49.7067 39.7925 45.2427 39.7925C40.2027 39.7925 36.3867 36.5525 36.3867 31.2245C36.3867 25.8245 40.2747 22.8005 47.5467 21.0725L56.0427 19.0565V17.5445C56.0427 11.7845 54.3147 9.55253 48.6987 9.55253C45.6027 9.55253 41.1387 10.2005 37.4667 11.0645V7.24853C42.1467 4.72853 48.1947 3.14453 53.1627 3.14453C60.6507 3.14453 64.6107 6.88853 64.6107 15.8885ZM44.6667 28.7765C44.6667 31.8005 46.4667 33.5285 50.0667 33.5285C52.0827 33.5285 54.4587 32.8805 56.0427 32.0885V22.2965L51.5067 23.4485C46.9707 24.6005 44.6667 25.8245 44.6667 28.7765Z" fill="#5048ED"/>
<path d="M0.807266 14.5918L2.67927 4.00781H29.2473L30.4713 6.02381L11.5353 35.3278H19.5273C23.7753 35.3278 27.7353 32.0158 28.7433 27.2638L30.9753 27.5518L29.3913 38.9998H1.52727L0.447266 37.1278L19.3833 7.67981H11.6793C6.49527 7.67981 4.76727 10.9918 3.25527 14.9518L0.807266 14.5918Z" fill="#5048ED"/>
</svg>
