<svg width="80" height="48" viewBox="0 0 80 48" fill="none" xmlns="http://www.w3.org/2000/svg">
<path d="M74 0H6C2.68629 0 0 2.68629 0 6V42C0 45.3137 2.68629 48 6 48H74C77.3137 48 80 45.3137 80 42V6C80 2.68629 77.3137 0 74 0Z" fill="#343449"/>
<path d="M11 18.0555H13.4444L12.2222 14.9443L11 18.0555Z" fill="#2FABF7"/>
<path d="M41.3333 15.3888C41.1111 15.2777 40.7778 15.2777 40.4444 15.2777H38.2222V17.0555H40.4444C40.7778 17.0555 41.1111 17.0555 41.3333 16.9443C41.5555 16.8332 41.6667 16.4999 41.6667 16.1666C41.7778 15.7221 41.5555 15.4999 41.3333 15.3888Z" fill="#228FE0"/>
<path d="M65.1111 12.0555V13.3888L64.4444 12.0555H59.2222V13.3888L58.5556 12.0555H51.4444C50.2222 12.0555 49.2222 12.2777 48.3333 12.7221V12.0555H43.3333V12.7221C42.7778 12.2777 42.1111 12.0555 41.2222 12.0555H23.3333L22.1111 14.8332L20.8889 12.0555H15.2222V13.3888L14.5556 12.0555H9.77778L7.55556 17.2777L5 23.0555H7.55556H10.6667L11.3333 21.2777H12.8889L13.5556 23.0555H20V21.7221L20.5556 23.0555H23.7778L24.3333 21.7221V23.0555H39.7778V20.1666H40C40.2222 20.1666 40.2222 20.1666 40.2222 20.4999V22.9443H48.2222V22.2777C48.8889 22.611 49.8889 22.9443 51.2222 22.9443H54.5556L55.2222 21.1666H56.7778L57.4444 22.9443H63.8889V21.2777L64.8889 22.9443H70.1111V12.0555H65.1111ZM27.5556 21.3888H25.6667V15.2777L23 21.3888H21.3333L18.6667 15.2777V21.3888H14.8889L14.1111 19.7221H10.3333L9.66667 21.4999H7.55556L10.8889 13.611H13.6667L16.7778 21.0555V13.611H19.7778L22.2222 18.9443L24.4444 13.611H27.5556V21.3888ZM35.1111 15.2777H30.7778V16.7221H35V18.2777H30.7778V19.8332H35.1111V21.4999H28.8889V13.611H35.1111V15.2777ZM43.4444 18.4999C43.6667 18.9443 43.7778 19.2777 43.7778 19.9443V21.4999H41.8889V20.4999C41.8889 20.0555 41.8889 19.3888 41.5556 18.9443C41.2222 18.611 40.8889 18.611 40.2222 18.611H38.2222V21.4999H36.3333V13.611H40.5556C41.5556 13.611 42.2222 13.611 42.7778 13.9443C43.3333 14.2777 43.6667 14.8332 43.6667 15.7221C43.6667 16.9443 42.8889 17.611 42.3333 17.8332C42.8889 17.9443 43.2222 18.2777 43.4444 18.4999ZM46.7778 21.3888H44.8889V13.4999H46.7778V21.3888ZM68.6667 21.3888H66L62.4444 15.4999V21.3888H58.6667L58 19.7221H54.1111L53.4444 21.4999H51.3333C50.4444 21.4999 49.3333 21.2777 48.6667 20.611C48 19.9443 47.6667 19.0555 47.6667 17.611C47.6667 16.4999 47.8889 15.3888 48.6667 14.4999C49.2222 13.8332 50.2222 13.611 51.4444 13.611H53.2222V15.2777H51.4444C50.7778 15.2777 50.4444 15.3888 50 15.7221C49.6667 16.0555 49.4444 16.7221 49.4444 17.4999C49.4444 18.3888 49.5556 18.9443 50 19.3888C50.3333 19.7221 50.7778 19.8332 51.3333 19.8332H52.1111L54.6667 13.7221H57.4444L60.5556 21.1666V13.7221H63.3333L66.5556 19.1666V13.7221H68.4444V21.3888H68.6667Z" fill="#0571C1"/>
<path d="M54.7778 18.0555H57.3334L56.1111 14.9443L54.7778 18.0555Z" fill="#228FE0"/>
<path d="M35.8889 34.0556V27.7222L33 30.8333L35.8889 34.0556Z" fill="#228FE0"/>
<path d="M24 28.5V29.9444H28.1111V31.5H24V33.1667H28.5556L30.6667 30.8333L28.6667 28.5H24Z" fill="#2FABF7"/>
<path d="M40.1111 28.5H37.7778V30.5H40.2222C40.8889 30.5 41.3333 30.1667 41.3333 29.5C41.2222 28.8333 40.7778 28.5 40.1111 28.5Z" fill="#228FE0"/>
<path d="M74.4444 30.3888V25.3888H73.1111H69.7777C68.7777 25.3888 68 25.611 67.4444 26.0555V25.3888H62.3333C61.5555 25.3888 60.5555 25.611 60.1111 26.0555V25.3888H51.1111V26.0555C50.4444 25.4999 49.2222 25.3888 48.6666 25.3888H42.6666V26.0555C42.1111 25.4999 40.7777 25.3888 40.1111 25.3888H33.4444L31.8888 27.0555L30.4444 25.3888H20.4444V36.2777H30.2222L31.7777 34.611L33.2222 36.2777H39.2222V33.7221H40C40.7777 33.7221 41.7777 33.7221 42.5555 33.3888V36.3888H47.5555V33.4999H47.7777C48.1111 33.4999 48.1111 33.4999 48.1111 33.8332V36.3888H63.2222C64.2222 36.3888 65.2222 36.1666 65.7777 35.7221V36.3888H70.5555C71.5555 36.3888 72.5555 36.2777 73.2222 35.8332C74.3333 35.1666 74.9999 33.9443 74.9999 32.4999C74.9999 31.7221 74.7777 30.9443 74.4444 30.3888ZM40 32.1666H37.7777V34.8332H34.2222L32 32.2777L29.6666 34.8332H22.3333V26.9443H29.7777L32 29.4999L34.3333 26.9443H40.2222C41.6666 26.9443 43.3333 27.3888 43.3333 29.4999C43.2222 31.7221 41.6666 32.1666 40 32.1666ZM51.1111 31.7221C51.3333 32.0555 51.4444 32.4999 51.4444 33.1666V34.7221H49.5555V33.7221C49.5555 33.2777 49.5555 32.4999 49.2222 32.1666C49 31.8332 48.5555 31.8332 47.8888 31.8332H45.8888V34.7221H43.9999V26.8332H48.2222C49.1111 26.8332 49.8888 26.8332 50.4444 27.1666C51 27.4999 51.4444 28.0555 51.4444 28.9443C51.4444 30.1666 50.6666 30.8332 50.1111 31.0555C50.6666 31.2777 51 31.4999 51.1111 31.7221ZM58.7777 28.4999H54.4444V29.9443H58.6666V31.4999H54.4444V33.0555H58.7777V34.7221H52.5555V26.8332H58.7777V28.4999ZM63.4444 34.7221H59.8888V33.0555H63.4444C63.7777 33.0555 64 33.0555 64.2222 32.8332C64.3333 32.7221 64.4444 32.4999 64.4444 32.2777C64.4444 32.0555 64.3333 31.8332 64.2222 31.7221C64.1111 31.611 63.8888 31.4999 63.5555 31.4999C61.7777 31.3888 59.6666 31.4999 59.6666 29.0555C59.6666 27.9443 60.3333 26.7221 62.3333 26.7221H65.9999V28.611H62.5555C62.2222 28.611 61.9999 28.611 61.7777 28.7221C61.5555 28.8332 61.5555 29.0555 61.5555 29.2777C61.5555 29.611 61.7777 29.7221 62 29.8332C62.2222 29.9443 62.4444 29.9443 62.6666 29.9443H63.6666C64.6666 29.9443 65.3333 30.1666 65.7777 30.611C66.1111 30.9443 66.3333 31.4999 66.3333 32.2777C66.3333 33.9443 65.3333 34.7221 63.4444 34.7221ZM73 33.9443C72.5555 34.3888 71.7777 34.7221 70.6666 34.7221H67.1111V33.0555H70.6666C70.9999 33.0555 71.2222 33.0555 71.4444 32.8332C71.5555 32.7221 71.6666 32.4999 71.6666 32.2777C71.6666 32.0555 71.5555 31.8332 71.4444 31.7221C71.3333 31.611 71.1111 31.4999 70.7777 31.4999C69 31.3888 66.8888 31.4999 66.8888 29.0555C66.8888 27.9443 67.5555 26.7221 69.5555 26.7221H73.2222V28.611H69.8888C69.5555 28.611 69.3333 28.611 69.1111 28.7221C68.8888 28.8332 68.8888 29.0555 68.8888 29.2777C68.8888 29.611 68.9999 29.7221 69.3333 29.8332C69.5555 29.9443 69.7777 29.9443 69.9999 29.9443H70.9999C71.9999 29.9443 72.6666 30.1666 73.1111 30.611C73.2222 30.611 73.2222 30.7221 73.2222 30.7221C73.5555 31.1666 73.6666 31.7221 73.6666 32.2777C73.6666 32.9443 73.4444 33.4999 73 33.9443Z" fill="#0571C1"/>
<path d="M49.1111 28.7222C48.8889 28.6111 48.5555 28.6111 48.2222 28.6111H46V30.3889H48.2222C48.5555 30.3889 48.8889 30.3889 49.1111 30.2778C49.3333 30.1667 49.4444 29.8333 49.4444 29.5C49.5555 29.0556 49.3333 28.8333 49.1111 28.7222Z" fill="#228FE0"/>
<path d="M41.3333 15.3888C41.1111 15.2777 40.7778 15.2777 40.4444 15.2777H38.2222V17.0555H40.4444C40.7778 17.0555 41.1111 17.0555 41.3333 16.9443C41.5555 16.8332 41.6667 16.4999 41.6667 16.1666C41.7778 15.7221 41.5555 15.4999 41.3333 15.3888Z" fill="#228FE0"/>
<path d="M54.7778 18.0555H57.3334L56.1111 14.9443L54.7778 18.0555Z" fill="#228FE0"/>
<path d="M35.8889 34.0556V27.7222L33 30.8333L35.8889 34.0556Z" fill="#228FE0"/>
<path d="M40.1111 28.5H37.7778V30.5H40.2222C40.8889 30.5 41.3333 30.1667 41.3333 29.5C41.2222 28.8333 40.7778 28.5 40.1111 28.5Z" fill="#228FE0"/>
<path d="M49.1111 28.7222C48.8889 28.6111 48.5555 28.6111 48.2222 28.6111H46V30.3889H48.2222C48.5555 30.3889 48.8889 30.3889 49.1111 30.2778C49.3333 30.1667 49.4444 29.8333 49.4444 29.5C49.5555 29.0556 49.3333 28.8333 49.1111 28.7222Z" fill="#228FE0"/>
<path d="M39.3333 34.4999L37.7777 32.8332V34.7221H34.1111L31.8888 32.1666L29.4444 34.7221H22.1111V26.9444H29.5555L31.8888 29.4999L33 28.1666L30.2222 25.3888H20.4444V36.2777H30.2222L31.8888 34.611L33.3333 36.2777H39.3333V34.4999Z" fill="#2FABF7"/>
<path d="M27.7778 22.9443L26.3333 21.3888H25.6667V20.7221L24 19.0555L22.8889 21.3888H21.3333L18.6667 15.2777V21.3888H14.8889L14.1111 19.7221H10.3333L9.55556 21.3888H7.55556L10.8889 13.611H13.6667L16.7778 21.0555V13.611H18.4444L16.8889 12.0555H15.2222V13.3888L14.6667 12.0555H9.77778L7.55556 17.2777L5 22.9443H7.55556H10.7778L11.4444 21.2777H13L13.7778 22.9443H20V21.611L20.5556 22.9443H23.7778L24.3333 21.611V22.9443H27.7778Z" fill="#2FABF7"/>
<path d="M22.6667 17.8332L20.8889 16.0555L22.2223 18.9443L22.6667 17.8332Z" fill="#2FABF7"/>
<path d="M73.2222 35.7221C74.2222 35.0555 74.8889 33.9443 75 32.7221L73.4444 31.1666C73.5555 31.4999 73.6666 31.8332 73.6666 32.2777C73.6666 32.9443 73.4444 33.4999 73 33.9443C72.5555 34.3888 71.7777 34.7221 70.6666 34.7221H67.1111V33.0555H70.6666C71 33.0555 71.2222 33.0555 71.4444 32.8332C71.5555 32.7221 71.6666 32.4999 71.6666 32.2777C71.6666 32.0555 71.5555 31.8332 71.4444 31.7221C71.3333 31.611 71.1111 31.4999 70.7777 31.4999C69 31.3888 66.8889 31.4999 66.8889 29.0554C66.8889 27.9443 67.5555 26.9443 69.2222 26.7221L68 25.4999C67.7777 25.611 67.6666 25.7221 67.5555 25.7221V25.0554H62.4444C61.6666 25.0554 60.6666 25.2777 60.2222 25.7221V25.0554H51.1111V25.7221C50.4444 25.1666 49.2222 25.0554 48.6666 25.0554H42.6666V25.7221C42.1111 25.1666 40.7777 25.0554 40.1111 25.0554H33.4444L31.8888 26.7221L30.4444 25.0554H29.2222L32.5555 28.3888L34.2222 26.611H40.1111C41.5555 26.611 43.2222 27.0554 43.2222 29.1666C43.2222 31.3888 41.6666 31.8332 40 31.8332H37.7777V33.4999L39.4444 35.1666V33.4999H40C40.7777 33.4999 41.7777 33.4999 42.5555 33.1666V36.1666H47.5555V33.2777H47.7777C48.1111 33.2777 48.1111 33.2777 48.1111 33.611V36.1666H63.2222C64.2222 36.1666 65.2222 35.9443 65.7777 35.4999V36.1666H70.5555C71.4444 36.2777 72.4444 36.1666 73.2222 35.7221ZM51.1111 31.7221C51.3333 32.0555 51.4444 32.4999 51.4444 33.1666V34.7221H49.5555V33.7221C49.5555 33.2777 49.5555 32.4999 49.2222 32.1666C49 31.8332 48.5555 31.8332 47.8888 31.8332H45.8888V34.7221H44V26.8332H48.2222C49.1111 26.8332 49.8888 26.8332 50.4444 27.1666C51 27.4999 51.4444 28.0554 51.4444 28.9443C51.4444 30.1666 50.6666 30.8332 50.1111 31.0555C50.6666 31.2777 51 31.4999 51.1111 31.7221ZM58.7777 28.4999H54.4444V29.9443H58.6666V31.4999H54.4444V33.0555H58.7777V34.7221H52.5555V26.8332H58.7777V28.4999ZM63.4444 34.7221H59.8889V33.0555H63.4444C63.7777 33.0555 64 33.0555 64.2222 32.8332C64.3333 32.7221 64.4444 32.4999 64.4444 32.2777C64.4444 32.0555 64.3333 31.8332 64.2222 31.7221C64.1111 31.611 63.8889 31.4999 63.5555 31.4999C61.7777 31.3888 59.6666 31.4999 59.6666 29.0554C59.6666 27.9443 60.3333 26.7221 62.3333 26.7221H66V28.611H62.5555C62.2222 28.611 62 28.611 61.7777 28.7221C61.5555 28.8332 61.5555 29.0554 61.5555 29.2777C61.5555 29.611 61.7777 29.7221 62 29.8332C62.2222 29.9443 62.4444 29.9443 62.6666 29.9443H63.6666C64.6666 29.9443 65.3333 30.1666 65.7777 30.611C66.1111 30.9443 66.3333 31.4999 66.3333 32.2777C66.3333 33.9443 65.3333 34.7221 63.4444 34.7221Z" fill="#228FE0"/>
<path d="M68.7777 29.2778C68.7777 29.6111 68.8888 29.7222 69.2222 29.8333C69.4444 29.9444 69.6666 29.9444 69.8888 29.9444H70.8888C71.5555 29.9444 72 30.0556 72.4444 30.2778L70.7777 28.6111H69.7777C69.4444 28.6111 69.2222 28.6111 69 28.7222C68.8888 28.8333 68.7777 29.0556 68.7777 29.2778Z" fill="#228FE0"/>
<path d="M64.8889 22.6111L65.1111 22.9444H65.2222L64.8889 22.6111Z" fill="#228FE0"/>
<path d="M58.7777 16.5L60.6666 21.0555V18.3889L58.7777 16.5Z" fill="#228FE0"/>
<path d="M39.7777 20.1666H40C40.2222 20.1666 40.2222 20.1666 40.2222 20.4999V22.9443H48.2222V22.2777C48.8889 22.611 49.8888 22.9443 51.2222 22.9443H54.5555L55.2222 21.1666H56.7777L57.4444 22.9443H63.8888V21.8332L62.3333 20.2777V21.4999H58.5555L58 19.7221H54.1111L53.4444 21.4999H51.3333C50.4444 21.4999 49.3333 21.2777 48.6666 20.611C48 19.9443 47.6666 19.0555 47.6666 17.611C47.6666 16.4999 47.8888 15.3888 48.6666 14.4999C49.2222 13.8332 50.2222 13.611 51.4444 13.611H53.2222V15.2777H51.4444C50.7777 15.2777 50.4444 15.3888 50 15.7221C49.6666 16.0555 49.4444 16.7221 49.4444 17.4999C49.4444 18.3888 49.5555 18.9443 50 19.3888C50.3333 19.7221 50.7777 19.8332 51.3333 19.8332H52.1111L54.6666 13.7221H55.7777L54.2222 12.1666H51.3333C50.1111 12.1666 49.1111 12.3888 48.2222 12.8332V12.1666H43.3333V12.8332C42.7777 12.3888 42.1111 12.1666 41.2222 12.1666H23.3333L22.1111 14.9443L20.8888 12.1666H16L17.5555 13.7221H19.7777L21.6666 17.8332L22.3333 18.4999L24.3333 13.611H27.4444V21.4999H25.5555V15.3888L23.6666 19.8332L26.8888 23.0555H39.6666L39.7777 20.1666ZM44.8888 13.611H46.7777V21.4999H44.8888V13.611ZM35.1111 15.2777H30.7777V16.7221H35V18.2777H30.7777V19.8332H35.1111V21.4999H28.8888V13.611H35.1111V15.2777ZM38.2222 21.3888H36.3333V13.4999H40.5555C41.5555 13.4999 42.2222 13.4999 42.7777 13.8332C43.3333 14.1666 43.6666 14.7221 43.6666 15.611C43.6666 16.8332 42.8888 17.4999 42.3333 17.7221C42.7777 17.8332 43.1111 18.1666 43.2222 18.3888C43.4444 18.8332 43.5555 19.1666 43.5555 19.8332V21.3888H41.6666V20.3888C41.6666 19.9443 41.6666 19.2777 41.3333 18.8332C41.2222 18.611 40.8888 18.611 40.2222 18.611H38.2222V21.3888Z" fill="#228FE0"/>
</svg>
