<svg width="80" height="48" viewBox="0 0 80 48" fill="none" xmlns="http://www.w3.org/2000/svg">
<path d="M74 0H6C2.68629 0 0 2.68629 0 6V42C0 45.3137 2.68629 48 6 48H74C77.3137 48 80 45.3137 80 42V6C80 2.68629 77.3137 0 74 0Z" fill="#343449"/>
<path d="M47.129 35.9651H33.8779V12.2273H47.1292L47.129 35.9651Z" fill="#FF5F00"/>
<path d="M34.718 24.0961C34.718 19.2809 36.9798 14.9915 40.502 12.2272C37.8359 10.1317 34.5384 8.9944 31.1432 8.99941C22.7796 8.99941 16 15.7584 16 24.0961C16 32.4339 22.7796 39.1928 31.1432 39.1928C34.5385 39.1979 37.8361 38.0606 40.5022 35.965C36.9803 33.2012 34.718 28.9116 34.718 24.0961Z" fill="#EB001B"/>
<path d="M65.0061 24.0967C65.0061 32.4345 58.2265 39.1934 49.8629 39.1934C46.4673 39.1984 43.1693 38.0611 40.5027 35.9656C44.0258 33.2013 46.2876 28.9121 46.2876 24.0967C46.2876 19.2813 44.0258 14.9921 40.5027 12.2278C43.1693 10.1324 46.4671 8.9951 49.8627 9.00002C58.2263 9.00002 65.0059 15.7589 65.0059 24.0967" fill="#F79E1B"/>
</svg>
