<svg width="232" height="222" viewBox="0 0 232 222" fill="none" xmlns="http://www.w3.org/2000/svg">
<path d="M196.779 100.077L211.442 68.8113L203.764 73.7646L190.783 91.217L196.779 100.077Z" fill="#9FC5E0"/>
<path d="M203.764 73.7646L211.442 68.8113L196.779 100.085L190.783 91.2257L203.764 73.7733L203.764 73.7646ZM203.329 73.0425C203.256 73.094 203.191 73.1565 203.135 73.2281L190.154 90.6805C190.043 90.8298 189.981 91.0144 189.977 91.2058C189.973 91.3972 190.028 91.5846 190.133 91.739L196.129 100.599C196.21 100.719 196.318 100.815 196.444 100.877C196.569 100.939 196.707 100.965 196.845 100.953C196.982 100.942 197.115 100.892 197.229 100.809C197.344 100.726 197.437 100.613 197.499 100.48L212.163 69.2145C212.242 69.0461 212.268 68.8545 212.238 68.6686C212.207 68.4826 212.121 68.3125 211.993 68.1838C211.865 68.0551 211.702 67.9748 211.528 67.9552C211.354 67.9355 211.178 67.9775 211.028 68.0748L203.35 73.028L203.329 73.028L203.329 73.0425Z" fill="#43437A"/>
<path d="M182.022 90.7937L213.821 64.4788L210.367 92.5482L195.909 91.4869L206.917 73.1064L190.783 91.2171L182.022 90.7937Z" fill="#1A0C35"/>
<path d="M213.821 64.4787L210.367 92.5453L195.908 91.4839L206.927 73.1035L190.802 91.2142L182.014 90.8053L213.813 64.4904L213.821 64.4787ZM213.375 63.7595L213.321 63.8001L181.522 90.1151C181.391 90.2241 181.295 90.3737 181.246 90.5437C181.196 90.7138 181.197 90.896 181.247 91.0658C181.296 91.2357 181.393 91.3849 181.524 91.4934C181.655 91.6019 181.814 91.6644 181.979 91.6724L190.74 92.0987C190.906 92.1047 191.07 92.0561 191.21 91.9595C191.264 91.9244 191.313 91.8814 191.356 91.8319L201.684 80.2318L195.234 91.0199C195.158 91.1471 195.114 91.2936 195.106 91.4448C195.099 91.596 195.128 91.7467 195.191 91.882C195.254 92.0174 195.348 92.1327 195.465 92.2164C195.582 92.3002 195.717 92.3496 195.857 92.3597L210.316 93.4211C210.52 93.4356 210.721 93.3661 210.879 93.2267C211.037 93.0873 211.141 92.8883 211.168 92.67L214.622 64.6005C214.642 64.4358 214.619 64.2681 214.553 64.1174C214.488 63.9667 214.385 63.8394 214.255 63.7503C214.125 63.6612 213.974 63.6141 213.82 63.6148C213.666 63.6154 213.515 63.6636 213.386 63.7537L213.375 63.7595Z" fill="#43437A"/>
<path d="M207.951 90.875C207.878 90.9269 207.795 90.9624 207.708 90.9793C207.621 90.9963 207.532 90.9944 207.446 90.9736C207.359 90.9537 207.276 90.9153 207.203 90.8606C207.13 90.8059 207.067 90.7361 207.019 90.6551C206.971 90.5742 206.939 90.4837 206.924 90.389C206.908 90.2943 206.91 90.1973 206.93 90.1036L209.688 76.3109C209.702 76.214 209.736 76.1213 209.785 76.0386C209.834 75.9558 209.898 75.8847 209.973 75.8295C210.048 75.7743 210.133 75.7362 210.223 75.7176C210.312 75.6989 210.404 75.7 210.493 75.7209C210.582 75.7417 210.666 75.7819 210.74 75.8389C210.814 75.8959 210.877 75.9686 210.925 76.0525C210.972 76.1365 211.003 76.2299 211.016 76.3272C211.028 76.4244 211.023 76.5235 210.999 76.6184L208.244 90.4109C208.227 90.5056 208.192 90.5956 208.142 90.6754C208.092 90.7551 208.027 90.823 207.951 90.875Z" fill="#9FC5E0"/>
<path d="M44.1434 122.415L19.8373 79.1817C18.9266 77.5896 18.3275 75.8132 18.077 73.9618C17.8265 72.1105 17.9298 70.2234 18.3807 68.4168C19.2358 64.9948 21.2853 62.0629 24.0997 60.2358L54.4206 40.5706C54.6441 40.4252 54.8921 40.3291 55.1503 40.2878C55.4085 40.2466 55.6717 40.2611 55.9247 40.3304C56.1777 40.3997 56.4153 40.5225 56.624 40.6917C56.8327 40.8609 57.0081 41.0731 57.1403 41.3159L90.8044 103.046C90.9759 103.36 91.0701 103.715 91.078 104.079C91.0859 104.443 91.0073 104.804 90.8497 105.125C90.692 105.447 90.4606 105.72 90.1774 105.918C89.8942 106.116 89.5689 106.233 89.2322 106.256L44.1434 122.415Z" fill="#1A0C35"/>
<path d="M55.4311 40.266C55.7753 40.2651 56.1138 40.3615 56.4128 40.5457C56.7117 40.7299 56.9607 40.9955 57.1349 41.3159L90.7991 103.046C90.9706 103.36 91.0648 103.715 91.0727 104.079C91.0806 104.443 91.002 104.803 90.8443 105.125C90.6867 105.447 90.4552 105.72 90.1721 105.918C89.8889 106.116 89.5635 106.233 89.2268 106.256L44.1434 122.415L19.8374 79.1816C18.9545 77.6386 18.3641 75.9219 18.1006 74.1309C17.837 72.3399 17.9055 70.5103 18.302 68.7481C18.6985 66.9859 19.4151 65.3261 20.4103 63.8649C21.4055 62.4037 22.6595 61.1702 24.0998 60.2357L54.4206 40.5705C54.7274 40.3716 55.0785 40.2663 55.4364 40.266L55.4311 40.266ZM55.4364 39.396C54.9326 39.3961 54.4383 39.5445 54.0067 39.8252L23.6859 59.4846C22.1528 60.4777 20.8179 61.7896 19.7584 63.3439C18.6989 64.8982 17.9359 66.6641 17.5138 68.5391C17.0918 70.4141 17.0191 72.3609 17.2998 74.2665C17.5806 76.1721 18.2093 77.9985 19.1493 79.6398L43.4528 122.868C43.5249 122.996 43.6262 123.101 43.7472 123.174C43.8682 123.248 44.0047 123.286 44.1434 123.285C44.2301 123.285 44.3163 123.271 44.3988 123.242L89.3961 107.112C89.8585 107.058 90.3011 106.881 90.6835 106.595C91.0658 106.309 91.3757 105.925 91.585 105.477C91.7943 105.028 91.8962 104.531 91.8814 104.029C91.8667 103.528 91.7357 103.038 91.5005 102.605L57.8498 40.875C57.6033 40.4248 57.2524 40.0516 56.8315 39.7923C56.4107 39.5329 55.9345 39.3963 55.4498 39.396L55.4364 39.396Z" fill="#43437A"/>
<path d="M17.4722 68.4198C17.0207 70.2264 16.9171 72.1136 17.1676 73.965C17.4181 75.8165 18.0176 77.5929 18.929 79.1848L21.2644 83.268C21.3047 79.1529 27.0801 76.7371 27.0801 76.7371C19.9071 70.2961 21.2133 63.568 22.0545 61.0769C19.8154 62.9091 18.2035 65.492 17.4722 68.4198Z" fill="#009BD9"/>
<path d="M20.6569 63.6984C20.2941 66.9696 20.8988 71.775 25.6154 76.5079C24.2152 77.2851 21.9415 78.8279 20.9472 81.058L19.6034 78.738C18.2834 76.4355 17.6733 73.7409 17.8607 71.041C18.048 68.3411 19.0231 65.7747 20.6461 63.71L20.6569 63.6984ZM22.0437 61.0854C19.5296 63.1448 17.8165 66.1409 17.2387 69.4893C16.6608 72.8377 17.2595 76.2983 18.9181 79.1962L21.2536 83.2795C21.2939 79.1643 27.0694 76.7486 27.0694 76.7486C19.8964 70.3076 21.2025 63.5795 22.0437 61.0884L22.0437 61.0854Z" fill="#43437A"/>
<path d="M34.6257 74.3341L30.2197 77.0087C29.1188 77.677 28.7284 79.1818 29.3477 80.3697L31.8262 85.124C32.4456 86.312 33.8401 86.7332 34.941 86.0649L39.3469 83.3904C40.4478 82.7221 40.8382 81.2174 40.2189 80.0294L37.7403 75.2751C37.121 74.0872 35.7266 73.6659 34.6257 74.3341Z" fill="#009BD9"/>
<path d="M33.8448 86.9599C33.5984 86.9604 33.3532 86.9233 33.1165 86.8498C32.7771 86.7473 32.4598 86.5734 32.1831 86.3379C31.9063 86.1025 31.6755 85.8102 31.504 85.478L29.026 80.7248C28.8521 80.3925 28.7408 80.0264 28.6983 79.6476C28.6558 79.2687 28.683 78.8845 28.7784 78.517C28.8737 78.1495 29.0354 77.806 29.2541 77.506C29.4727 77.2061 29.7441 76.9557 30.0526 76.7692L34.4575 74.0953C34.7655 73.9077 35.1048 73.7876 35.4559 73.7417C35.807 73.6959 36.1629 73.7252 36.5035 73.8282C36.844 73.9311 37.1625 74.1055 37.4404 74.3415C37.7184 74.5774 37.9504 74.8702 38.1233 75.2031L40.6012 79.9592C40.7746 80.2914 40.8856 80.6572 40.9279 81.0358C40.9702 81.4143 40.9428 81.7982 40.8475 82.1654C40.7521 82.5325 40.5906 82.8757 40.3722 83.1754C40.1537 83.4751 39.8827 83.7254 39.5746 83.912L35.1697 86.5858C34.7654 86.8319 34.309 86.9608 33.8448 86.9599ZM35.7663 74.5942C35.4442 74.5941 35.1276 74.684 34.8472 74.8551L30.4396 77.529C30.2236 77.6597 30.0338 77.8351 29.8808 78.0451C29.7278 78.2552 29.6147 78.4957 29.548 78.753C29.4813 79.0103 29.4624 79.2793 29.4922 79.5445C29.5221 79.8097 29.6002 80.0659 29.722 80.2985L32.2 85.0517C32.3209 85.2846 32.483 85.4895 32.6774 85.6546C32.8717 85.8198 33.0945 85.9419 33.3326 86.0141C33.5708 86.0863 33.8196 86.1071 34.0652 86.0753C34.3109 86.0436 34.5483 85.9598 34.7639 85.8289L39.1714 83.1522C39.387 83.0215 39.5766 82.8462 39.7294 82.6364C39.8822 82.4266 39.9952 82.1863 40.0618 81.9294C40.1285 81.6724 40.1475 81.4038 40.1178 81.1389C40.0882 80.874 40.0104 80.618 39.889 80.3855L37.4112 75.6294C37.2471 75.3146 37.0082 75.0526 36.7191 74.8706C36.4299 74.6887 36.1011 74.5932 35.7663 74.5942Z" fill="#43437A"/>
<path d="M52.1631 50.1846L28.9669 64.2654C27.8789 64.9259 27.4932 66.4129 28.1052 67.5868C28.7173 68.7608 30.0953 69.1771 31.1832 68.5167L54.3795 54.4358C55.4674 53.7754 55.8532 52.2884 55.2411 51.1145C54.6291 49.9405 53.2511 49.5241 52.1631 50.1846Z" fill="#009BD9"/>
<path d="M30.1036 69.4061C29.514 69.4077 28.9406 69.1983 28.4732 68.8105C28.0058 68.4228 27.6709 67.8786 27.5209 67.2633C27.3709 66.648 27.4143 65.9965 27.6444 65.4107C27.8744 64.825 28.278 64.3381 28.7921 64.0265L51.9882 49.9469C52.6041 49.5731 53.3322 49.4785 54.0127 49.6841C54.3496 49.7859 54.6646 49.9583 54.9398 50.1915C55.2149 50.4246 55.4449 50.714 55.6164 51.043C55.7879 51.3721 55.8977 51.7344 55.9395 52.1092C55.9813 52.484 55.9542 52.864 55.8598 53.2276C55.7655 53.5911 55.6058 53.9311 55.3898 54.228C55.1737 54.5249 54.9055 54.773 54.6006 54.9581L31.4044 69.0348C31.0081 69.2784 30.5597 69.4063 30.1036 69.4061ZM53.2917 50.4486C52.9734 50.4489 52.6605 50.5378 52.3833 50.7066L29.1872 64.7834C28.9746 64.9125 28.7875 65.0855 28.6368 65.2926C28.4862 65.4997 28.3748 65.7368 28.309 65.9904C28.2433 66.2439 28.2245 66.5089 28.2536 66.7703C28.2828 67.0317 28.3593 67.2844 28.479 67.5138C28.5986 67.7433 28.7589 67.945 28.9509 68.1076C29.1428 68.2702 29.3626 68.3904 29.5975 68.4613C29.8325 68.5323 30.0781 68.5526 30.3203 68.5212C30.5626 68.4897 30.7966 68.4071 31.0093 68.278L54.2054 54.1983C54.5632 53.9807 54.8441 53.6413 55.0041 53.2333C55.1641 52.8252 55.1942 52.3714 55.0898 51.9428C54.9853 51.5143 54.7523 51.1352 54.4269 50.8648C54.1016 50.5944 53.7023 50.4481 53.2917 50.4486Z" fill="#43437A"/>
<path d="M41.9755 88.1809L37.5697 90.8554C36.4688 91.5237 36.0783 93.0284 36.6976 94.2164L39.1762 98.9707C39.7955 100.159 41.1901 100.58 42.291 99.9116L46.6968 97.2371C47.7977 96.5688 48.1882 95.064 47.5688 93.8761L45.0903 89.1218C44.471 87.9338 43.0764 87.5126 41.9755 88.1809Z" fill="#009BD9"/>
<path d="M41.187 100.807C40.709 100.808 40.2393 100.672 39.8264 100.412C39.4136 100.152 39.0723 99.7779 38.838 99.3283L36.3602 94.5722C36.1868 94.24 36.0757 93.8742 36.0335 93.4956C35.9912 93.1171 36.0185 92.7333 36.1139 92.3661C36.2093 91.999 36.3708 91.6557 36.5892 91.356C36.8076 91.0563 37.0786 90.806 37.3868 90.6195L41.7917 87.9427C42.0997 87.7551 42.439 87.635 42.7901 87.5891C43.1412 87.5433 43.4971 87.5727 43.8377 87.6756C44.1782 87.7785 44.4967 87.9529 44.7746 88.1889C45.0526 88.4248 45.2847 88.7176 45.4575 89.0505L47.9354 93.8066C48.1088 94.1388 48.2199 94.5046 48.2621 94.8832C48.3044 95.2617 48.277 95.6456 48.1817 96.0128C48.0863 96.3799 47.9248 96.7231 47.7064 97.0228C47.488 97.3225 47.217 97.5728 46.9088 97.7594L42.5013 100.433C42.1004 100.678 41.6476 100.807 41.187 100.807ZM43.1086 88.4416C42.7856 88.4418 42.4683 88.5316 42.1868 88.7025L37.7819 91.3764C37.5657 91.5068 37.3755 91.682 37.2222 91.892C37.069 92.1019 36.9557 92.3424 36.8888 92.5998C36.8219 92.8571 36.8027 93.1261 36.8324 93.3915C36.862 93.6568 36.9399 93.9132 37.0616 94.1459L39.5422 98.8991C39.6631 99.1319 39.8254 99.3369 40.0197 99.502C40.2141 99.6671 40.4367 99.7893 40.6748 99.8615C40.913 99.9337 41.162 99.9545 41.4076 99.9227C41.6532 99.8909 41.8905 99.8072 42.1061 99.6763L46.5137 96.9996C46.7293 96.8689 46.9189 96.6936 47.0716 96.4838C47.2244 96.274 47.3374 96.0337 47.404 95.7768C47.4707 95.5198 47.4897 95.2512 47.4601 94.9863C47.4304 94.7214 47.3528 94.4654 47.2313 94.2329L44.7534 89.4768C44.5894 89.162 44.3504 88.9 44.0613 88.7181C43.7722 88.5361 43.4433 88.4406 43.1086 88.4416Z" fill="#43437A"/>
<path d="M43.243 75.5133C43.1714 75.5127 43.1012 75.4918 43.0394 75.4526C42.9776 75.4134 42.9263 75.3573 42.891 75.29C42.8421 75.1907 42.8308 75.0749 42.8593 74.9667C42.8879 74.8586 42.9542 74.7666 43.0442 74.71L61.9591 63.2288C62.0053 63.2008 62.0562 63.1829 62.1088 63.1762C62.1614 63.1694 62.2148 63.1738 62.2659 63.1893C62.3169 63.2048 62.3646 63.231 62.4063 63.2664C62.448 63.3017 62.4827 63.3457 62.5087 63.3956C62.5346 63.4455 62.5512 63.5003 62.5575 63.5571C62.5637 63.614 62.5596 63.6715 62.5453 63.7266C62.5309 63.7816 62.5067 63.8331 62.4739 63.8781C62.4411 63.923 62.4003 63.9606 62.3541 63.9886L43.4392 75.4699C43.3784 75.5023 43.3108 75.5173 43.243 75.5133Z" fill="#43437A"/>
<path d="M50.5504 89.5295C50.4788 89.5304 50.4083 89.5103 50.3464 89.4715C50.2844 89.4327 50.2332 89.3766 50.1983 89.3091C50.146 89.2082 50.1328 89.0891 50.1615 88.9777C50.1902 88.8664 50.2585 88.7718 50.3516 88.7146L69.2664 77.2362C69.3127 77.2044 69.3643 77.1831 69.4184 77.1736C69.4725 77.1641 69.5278 77.1666 69.581 77.181C69.6342 77.1953 69.6841 77.2212 69.7277 77.2571C69.7713 77.2929 69.8076 77.338 69.8345 77.3895C69.8614 77.441 69.8783 77.4979 69.8841 77.5567C69.89 77.6155 69.8846 77.675 69.8684 77.7315C69.8522 77.788 69.8255 77.8403 69.7899 77.8853C69.7543 77.9303 69.7107 77.967 69.6616 77.9931L50.7466 89.4743C50.6866 89.5104 50.6191 89.5294 50.5504 89.5295Z" fill="#43437A"/>
<path d="M35.3524 82.9752C35.2827 82.9745 35.2141 82.9546 35.1535 82.9172L31.7833 80.8669C31.7342 80.8408 31.6905 80.8041 31.655 80.7591C31.6194 80.7141 31.5927 80.6618 31.5765 80.6053C31.5603 80.5488 31.5551 80.4893 31.5609 80.4305C31.5667 80.3717 31.5835 80.3148 31.6104 80.2633C31.6373 80.2118 31.6736 80.1667 31.7172 80.1309C31.7608 80.095 31.8107 80.0691 31.8639 80.0547C31.9171 80.0404 31.9724 80.0379 32.0265 80.0474C32.0806 80.0569 32.1322 80.0782 32.1785 80.11L35.0057 81.8152L35.3122 76.8098C35.3193 76.6944 35.3685 76.5868 35.4492 76.5107C35.5298 76.4346 35.6353 76.3961 35.7422 76.4038C35.8491 76.4115 35.9488 76.4647 36.0193 76.5517C36.0899 76.6387 36.1255 76.7524 36.1184 76.8678L35.7717 82.5605C35.767 82.6345 35.7451 82.7059 35.7079 82.7682C35.6708 82.8306 35.6197 82.8818 35.5594 82.9172C35.4967 82.9567 35.4251 82.9768 35.3524 82.9752Z" fill="#43437A"/>
<path d="M42.4852 96.1095C42.4461 96.1094 42.4072 96.1035 42.3696 96.092L39.0021 95.0219C38.9513 95.0058 38.9039 94.9789 38.8626 94.943C38.8214 94.9071 38.7872 94.8627 38.7619 94.8124C38.7365 94.7622 38.7206 94.7071 38.715 94.6502C38.7094 94.5934 38.7143 94.5359 38.7293 94.4811C38.7443 94.4262 38.7692 94.3751 38.8025 94.3306C38.8358 94.2862 38.8769 94.2492 38.9234 94.2219C38.9699 94.1946 39.0211 94.1774 39.0738 94.1713C39.1265 94.1653 39.1798 94.1705 39.2306 94.1867L42.1385 95.109L42.6142 90.5182C42.6202 90.461 42.6365 90.4058 42.6623 90.3555C42.6881 90.3052 42.7229 90.2608 42.7646 90.225C42.8062 90.1891 42.854 90.1625 42.9052 90.1467C42.9564 90.1308 43.01 90.126 43.063 90.1324C43.1159 90.1389 43.1671 90.1566 43.2138 90.1844C43.2604 90.2122 43.3014 90.2497 43.3346 90.2947C43.3678 90.3397 43.3925 90.3912 43.4072 90.4465C43.4219 90.5018 43.4264 90.5597 43.4204 90.6168L42.8829 95.7208C42.8763 95.7842 42.857 95.8453 42.8264 95.8999C42.7957 95.9545 42.7545 96.0013 42.7055 96.037C42.6398 96.083 42.5635 96.1081 42.4852 96.1095Z" fill="#43437A"/>
<path d="M74.1092 79.3506C74.1092 79.3506 42.665 85.4406 44.0786 128.692L71.6528 136.148L78.6028 113.745L74.1092 79.3506Z" fill="#EDB191"/>
<path d="M71.9162 136.67L43.697 129.034L43.697 128.706C43.3718 118.774 44.7721 109.978 47.8278 102.56C50.2073 96.729 53.8004 91.5686 58.328 87.4795C66.0036 80.5571 73.9802 78.9504 74.0608 78.933L74.4721 78.8547L79.0409 113.797L79.0114 113.893L71.9162 136.67ZM44.4711 128.35L71.3894 135.629L78.189 113.704L73.7707 79.8727C72.0641 80.2961 65.3236 82.2622 58.7929 88.1638C51.8994 94.3931 43.8369 106.414 44.4711 128.35Z" fill="#43437A"/>
<path d="M44.2453 128.419L42.0953 137.813C42.0953 137.813 24.9327 130.681 7.19495 157.362C7.19495 157.362 20.5009 184.216 59.0644 203.182C59.0644 203.182 81.9084 171.282 72.1554 146.597L72.3382 135.922L44.2453 128.419Z" fill="#009BD9"/>
<path d="M59.0591 203.617C59.0013 203.618 58.9442 203.604 58.8924 203.577C38.9133 193.751 25.8357 181.777 18.3724 173.463C10.2802 164.438 6.86716 157.634 6.83491 157.568C6.79934 157.496 6.78292 157.415 6.78767 157.334C6.79242 157.253 6.81805 157.175 6.86168 157.109C16.0987 143.215 25.1988 138.59 31.2054 137.157C36.653 135.858 40.5446 136.841 41.8024 137.25L43.853 128.315C43.879 128.203 43.9446 128.106 44.0358 128.045C44.1278 127.986 44.238 127.968 44.3422 127.996L72.4296 135.498C72.5186 135.522 72.5974 135.578 72.653 135.656C72.7087 135.735 72.738 135.831 72.736 135.93L72.5559 146.51C77.6004 159.386 73.7518 174.173 69.6318 184.32C66.8667 191.082 63.4289 197.5 59.3789 203.461C59.3396 203.511 59.2906 203.551 59.2353 203.578C59.18 203.605 59.1198 203.618 59.0591 203.617ZM7.66794 157.391C8.33445 158.655 11.7934 164.881 18.9799 172.886C26.3491 181.098 39.2519 192.896 58.9327 202.64C62.8583 196.809 66.1997 190.546 68.9009 183.955C72.9617 173.947 76.7592 159.371 71.7792 146.765C71.7577 146.709 71.7467 146.649 71.7469 146.588L71.9243 136.261L44.5384 128.944L42.4823 137.917C42.4689 137.978 42.4436 138.036 42.4079 138.086C42.3722 138.136 42.327 138.177 42.2754 138.207C42.2247 138.235 42.1691 138.252 42.1121 138.255C42.0551 138.259 41.9981 138.249 41.9448 138.227C41.9045 138.21 37.6448 136.502 31.321 138.03C25.4998 139.425 16.6819 143.926 7.66794 157.391Z" fill="#43437A"/>
<path d="M34.3659 159.36C35.767 159.36 36.9029 158.134 36.9029 156.622C36.9029 155.11 35.767 153.885 34.3659 153.885C32.9647 153.885 31.8289 155.11 31.8289 156.622C31.8289 158.134 32.9647 159.36 34.3659 159.36Z" fill="#00789C"/>
<path d="M61.2414 165.74C62.6425 165.74 63.7784 164.514 63.7784 163.002C63.7784 161.49 62.6425 160.265 61.2414 160.265C59.8402 160.265 58.7043 161.49 58.7043 163.002C58.7043 164.514 59.8402 165.74 61.2414 165.74Z" fill="#00789C"/>
<path d="M56.6429 188.737C58.044 188.737 59.18 187.512 59.18 186C59.18 184.488 58.044 183.262 56.6429 183.262C55.2417 183.262 54.1058 184.488 54.1058 186C54.1058 187.512 55.2417 188.737 56.6429 188.737Z" fill="#00789C"/>
<path d="M71.6367 146.582L71.8115 136.252L44.6323 129.002L42.5522 138.068C43.4176 139.112 52.8832 149.917 71.6717 146.608L71.6367 146.582Z" fill="#007396"/>
<path d="M152.523 26.4246L79.0194 26.4246C72.5494 26.4246 67.3044 32.0843 67.3044 39.0659L67.3044 150.311C67.3044 157.293 72.5494 162.953 79.0194 162.953L152.523 162.953C158.993 162.953 164.239 157.293 164.239 150.311L164.239 39.0659C164.239 32.0843 158.993 26.4246 152.523 26.4246Z" fill="#00C209"/>
<path d="M152.523 163.388L79.0194 163.388C75.8066 163.384 72.7264 162.005 70.4546 159.553C68.1828 157.102 66.9049 153.778 66.9014 150.311L66.9014 39.0658C66.9049 35.5989 68.1828 32.2751 70.4546 29.8237C72.7264 27.3723 75.8066 25.9933 79.0194 25.9895L152.523 25.9895C155.736 25.9933 158.817 27.3723 161.088 29.8237C163.36 32.2751 164.638 35.5989 164.642 39.0658L164.642 150.311C164.638 153.778 163.36 157.102 161.088 159.553C158.817 162.005 155.736 163.384 152.523 163.388ZM79.0194 26.8595C76.0204 26.8634 73.1453 28.1506 71.0247 30.4389C68.9041 32.7272 67.7112 35.8297 67.7076 39.0658L67.7076 150.311C67.7112 153.547 68.9041 156.65 71.0247 158.938C73.1453 161.226 76.0204 162.514 79.0194 162.518L152.523 162.518C155.522 162.514 158.398 161.226 160.518 158.938C162.639 156.65 163.832 153.547 163.835 150.311L163.835 39.0658C163.832 35.8297 162.639 32.7272 160.518 30.4389C158.398 28.1506 155.522 26.8634 152.523 26.8595L79.0194 26.8595Z" fill="#43437A"/>
<path d="M148.465 34.5708L83.0778 34.5708C77.5785 34.5708 73.1204 39.3813 73.1204 45.3154L73.1204 135.91C73.1204 141.844 77.5785 146.654 83.0778 146.654L148.465 146.654C153.965 146.654 158.423 141.844 158.423 135.91L158.423 45.3154C158.423 39.3813 153.965 34.5708 148.465 34.5708Z" fill="#9FC5E0"/>
<path d="M148.465 147.092L83.0777 147.092C80.3308 147.089 77.6972 145.91 75.7548 143.814C73.8125 141.719 72.72 138.877 72.7172 135.913L72.7172 45.3153C72.7207 42.3515 73.8134 39.5102 75.7556 37.4144C77.6978 35.3187 80.331 34.1396 83.0777 34.1357L148.465 34.1357C151.212 34.1396 153.845 35.3187 155.787 37.4144C157.73 39.5102 158.822 42.3515 158.826 45.3153L158.826 135.913C158.823 138.877 157.73 141.719 155.788 143.814C153.846 145.91 151.212 147.089 148.465 147.092ZM83.0777 35.0058C80.5446 35.0088 78.1161 36.096 76.325 38.0288C74.5339 39.9615 73.5263 42.582 73.5234 45.3153L73.5234 135.913C73.5263 138.646 74.5339 141.266 76.325 143.199C78.1161 145.132 80.5446 146.219 83.0777 146.222L148.465 146.222C150.998 146.219 153.427 145.132 155.218 143.199C157.009 141.266 158.017 138.646 158.02 135.913L158.02 45.3153C158.017 42.582 157.009 39.9615 155.218 38.0288C153.427 36.096 150.998 35.0088 148.465 35.0058L83.0777 35.0058Z" fill="#43437A"/>
<path d="M115.772 158.878C117.575 158.878 119.037 157.3 119.037 155.354C119.037 153.408 117.575 151.831 115.772 151.831C113.968 151.831 112.506 153.408 112.506 155.354C112.506 157.3 113.968 158.878 115.772 158.878Z" fill="#00C209"/>
<path d="M115.772 159.313C115.046 159.313 114.337 159.081 113.733 158.646C113.13 158.211 112.66 157.593 112.382 156.869C112.105 156.146 112.032 155.35 112.174 154.582C112.315 153.814 112.664 153.109 113.178 152.555C113.691 152.002 114.344 151.625 115.056 151.472C115.767 151.319 116.505 151.398 117.175 151.697C117.846 151.997 118.419 152.504 118.822 153.155C119.225 153.806 119.44 154.572 119.44 155.355C119.439 156.404 119.053 157.411 118.365 158.153C117.677 158.895 116.744 159.312 115.772 159.313ZM115.772 152.266C115.205 152.266 114.652 152.447 114.181 152.787C113.711 153.126 113.344 153.608 113.127 154.173C112.911 154.737 112.854 155.358 112.964 155.957C113.075 156.556 113.347 157.106 113.748 157.538C114.148 157.97 114.658 158.265 115.213 158.384C115.768 158.503 116.344 158.442 116.867 158.208C117.39 157.974 117.837 157.578 118.151 157.07C118.466 156.563 118.634 155.965 118.634 155.355C118.632 154.536 118.33 153.751 117.794 153.172C117.257 152.593 116.53 152.268 115.772 152.266Z" fill="#43437A"/>
<path d="M131.631 117.259L100.313 117.259C99.7595 117.259 99.2287 117.022 98.8372 116.6C98.4456 116.179 98.2253 115.606 98.2246 115.009L98.2246 85.0052C98.2248 84.6903 98.2862 84.379 98.4047 84.0913C98.5232 83.8035 98.6962 83.5459 98.9126 83.3347L114.675 67.979C115.059 67.603 115.559 67.3948 116.078 67.3948C116.597 67.3948 117.097 67.603 117.481 67.979L133.044 83.326C133.258 83.5368 133.43 83.7935 133.547 84.0796C133.664 84.3657 133.724 84.675 133.724 84.9877L133.724 114.997C133.725 115.295 133.672 115.589 133.567 115.864C133.462 116.138 133.308 116.388 133.114 116.598C132.919 116.809 132.688 116.975 132.433 117.089C132.179 117.202 131.906 117.26 131.631 117.259Z" fill="#00C209"/>
<path d="M131.631 117.694L100.313 117.694C99.6527 117.694 99.0199 117.411 98.5529 116.907C98.0859 116.404 97.8228 115.721 97.8214 115.009L97.8214 85.0051C97.822 84.6295 97.8955 84.2582 98.0371 83.9151C98.1788 83.5719 98.3855 83.2645 98.6438 83.0128L114.406 67.6571C114.863 67.205 115.461 66.9543 116.081 66.9543C116.7 66.9543 117.298 67.205 117.755 67.6571L133.316 83.0041C133.57 83.2559 133.773 83.562 133.912 83.9029C134.051 84.2439 134.122 84.6124 134.122 84.9848L134.122 114.994C134.123 115.348 134.059 115.699 133.935 116.026C133.81 116.354 133.627 116.651 133.395 116.902C133.164 117.153 132.889 117.352 132.586 117.488C132.283 117.624 131.959 117.694 131.631 117.694ZM116.07 67.834C115.652 67.8338 115.249 68.0024 114.941 68.3067L99.1786 83.6595C99.0035 83.8297 98.8635 84.0377 98.7677 84.27C98.6719 84.5023 98.6223 84.7537 98.6223 85.008L98.6223 115.009C98.623 115.491 98.8008 115.952 99.1168 116.293C99.4327 116.633 99.8609 116.824 100.307 116.824L131.631 116.824C132.077 116.824 132.505 116.633 132.821 116.293C133.137 115.952 133.315 115.491 133.316 115.009L133.316 85.0051C133.316 84.7539 133.269 84.5052 133.177 84.2747C133.084 84.0441 132.948 83.8366 132.778 83.6653L117.215 68.3183C116.904 68.006 116.494 67.8329 116.07 67.834Z" fill="#43437A"/>
<path d="M93.5645 91.3855C93.0973 91.3894 92.6341 91.2915 92.2028 91.0976C91.7715 90.9038 91.3808 90.618 91.0543 90.2574C90.7588 89.9333 90.5294 89.5461 90.3806 89.1207C90.2318 88.6953 90.1669 88.241 90.1902 87.787C90.2134 87.333 90.3243 86.8892 90.5157 86.4842C90.7071 86.0791 90.9748 85.7216 91.3017 85.4346L114.022 64.737C114.662 64.1664 115.467 63.8559 116.298 63.8597C117.128 63.8634 117.931 64.181 118.567 64.7573L140.873 85.4549C141.197 85.745 141.462 86.1051 141.65 86.5119C141.838 86.9188 141.944 87.3635 141.964 87.8176C141.983 88.2716 141.914 88.725 141.762 89.1486C141.609 89.5723 141.376 89.9568 141.077 90.2777C140.45 90.9498 139.613 91.3441 138.73 91.3827C137.847 91.4214 136.982 91.1016 136.307 90.4865L116.258 71.8885L95.8193 90.5068C95.1872 91.0775 94.3887 91.3887 93.5645 91.3855Z" fill="#9FC5E0"/>
<path d="M116.282 63.8582C117.119 63.8548 117.929 64.1736 118.567 64.7571L140.873 85.4548C141.197 85.7449 141.462 86.1049 141.65 86.5118C141.838 86.9186 141.944 87.3634 141.964 87.8174C141.983 88.2715 141.914 88.7249 141.762 89.1485C141.609 89.5722 141.376 89.9567 141.077 90.2775C140.45 90.9496 139.613 91.3439 138.73 91.3826C137.847 91.4212 136.982 91.1014 136.307 90.4863L116.258 71.8884L95.8193 90.5066C95.1393 91.115 94.273 91.4268 93.3907 91.3807C92.5084 91.3345 91.674 90.9338 91.0517 90.2573C90.7562 89.9331 90.5266 89.5459 90.3778 89.1205C90.229 88.6951 90.1641 88.2408 90.1874 87.7868C90.2107 87.3328 90.3216 86.8891 90.513 86.484C90.7044 86.0789 90.9721 85.7214 91.2989 85.4345L114.019 64.7369C114.654 64.168 115.455 63.8598 116.28 63.8669L116.282 63.8582ZM116.28 62.9969C115.264 62.9928 114.279 63.377 113.501 64.0815L90.7802 84.7761C90.3693 85.1399 90.033 85.5919 89.7926 86.1033C89.5521 86.6148 89.4128 87.1746 89.3835 87.7473C89.3542 88.3199 89.4356 88.8928 89.6224 89.4297C89.8091 89.9667 90.0973 90.4558 90.4685 90.8662C91.2327 91.7031 92.2601 92.2 93.3475 92.2585C94.4349 92.3171 95.5032 91.933 96.3408 91.1824L116.255 73.0397L135.78 91.1562C136.612 91.9142 137.677 92.308 138.765 92.2597C139.853 92.2113 140.884 91.7245 141.655 90.8953C142.029 90.4914 142.322 90.008 142.514 89.4759C142.706 88.9437 142.793 88.3743 142.771 87.8038C142.746 87.2285 142.612 86.665 142.376 86.1484C142.14 85.6319 141.808 85.1736 141.4 84.8023L119.093 64.1075C118.311 63.3866 117.314 62.9925 116.285 62.9969L116.28 62.9969Z" fill="#43437A"/>
<path d="M116.169 98.4324L116.787 98.4324C118.221 98.4324 119.595 99.0468 120.609 100.141C121.623 101.234 122.192 102.718 122.192 104.264L122.192 117.149L110.765 117.149L110.765 104.264C110.765 102.718 111.334 101.234 112.348 100.141C113.361 99.0468 114.736 98.4324 116.169 98.4324Z" fill="#9FC5E0"/>
<path d="M122.603 117.584L110.37 117.584L110.37 104.265C110.371 102.604 110.982 101.013 112.069 99.8378C113.156 98.6631 114.631 98.0014 116.169 97.9976L116.787 97.9976C118.327 97.9991 119.804 98.6598 120.892 99.8348C121.981 101.01 122.594 102.603 122.595 104.265L122.603 117.584ZM111.176 116.714L121.797 116.714L121.797 104.265C121.795 102.834 121.268 101.462 120.33 100.45C119.393 99.4382 118.121 98.8691 116.795 98.8676L116.169 98.8676C114.843 98.8691 113.572 99.4382 112.634 100.45C111.697 101.462 111.169 102.834 111.168 104.265L111.176 116.714Z" fill="#43437A"/>
<path d="M115.976 93.2559C118.793 93.2559 121.077 90.7915 121.077 87.7516C121.077 84.7117 118.793 82.2473 115.976 82.2473C113.159 82.2473 110.875 84.7117 110.875 87.7516C110.875 90.7915 113.159 93.2559 115.976 93.2559Z" fill="#9FC5E0"/>
<path d="M115.976 93.7052C114.887 93.7052 113.823 93.3569 112.918 92.7043C112.013 92.0517 111.307 91.1241 110.891 90.0388C110.474 88.9536 110.365 87.7594 110.577 86.6073C110.79 85.4552 111.314 84.3969 112.084 83.5663C112.854 82.7356 113.834 82.17 114.902 81.9408C115.97 81.7116 117.076 81.8292 118.082 82.2787C119.088 82.7283 119.947 83.4895 120.552 84.4662C121.157 85.4429 121.48 86.5913 121.48 87.7659C121.478 89.3407 120.898 90.8504 119.866 91.9639C118.834 93.0774 117.435 93.7037 115.976 93.7052ZM115.976 82.6851C115.047 82.6851 114.138 82.9823 113.366 83.5394C112.593 84.0964 111.991 84.8881 111.636 85.8144C111.28 86.7407 111.187 87.76 111.368 88.7433C111.549 89.7266 111.997 90.6299 112.654 91.3389C113.311 92.0478 114.148 92.5306 115.059 92.7262C115.971 92.9218 116.915 92.8214 117.774 92.4377C118.632 92.0541 119.366 91.4043 119.882 90.5707C120.398 89.7371 120.674 88.7569 120.674 87.7543C120.672 86.4104 120.177 85.1219 119.296 84.1715C118.415 83.2212 117.221 82.6866 115.976 82.6851Z" fill="#43437A"/>
<path d="M116.078 93.8011C115.971 93.8011 115.868 93.7552 115.793 93.6736C115.717 93.592 115.675 93.4814 115.675 93.366L115.675 82.3459C115.675 82.2305 115.717 82.1198 115.793 82.0383C115.868 81.9567 115.971 81.9109 116.078 81.9109C116.185 81.9109 116.287 81.9567 116.363 82.0383C116.439 82.1198 116.481 82.2305 116.481 82.3459L116.481 93.366C116.481 93.4814 116.439 93.592 116.363 93.6736C116.287 93.7552 116.185 93.8011 116.078 93.8011Z" fill="#43437A"/>
<path d="M121.077 88.1954L110.864 88.1954C110.757 88.1954 110.655 88.1496 110.579 88.068C110.503 87.9864 110.461 87.8758 110.461 87.7604C110.461 87.6451 110.503 87.5345 110.579 87.4529C110.655 87.3713 110.757 87.3254 110.864 87.3254L121.077 87.3254C121.184 87.3254 121.286 87.3713 121.362 87.4529C121.437 87.5345 121.48 87.6451 121.48 87.7604C121.48 87.8758 121.437 87.9864 121.362 88.068C121.286 88.1496 121.184 88.1954 121.077 88.1954Z" fill="#43437A"/>
<path d="M108.018 97.4349L98.4315 97.4349C98.3245 97.4349 98.222 97.3891 98.1464 97.3075C98.0708 97.2259 98.0283 97.1153 98.0283 96.9999C98.0283 96.8846 98.0708 96.7739 98.1464 96.6923C98.222 96.6107 98.3245 96.5649 98.4315 96.5649L108.023 96.5649C108.13 96.5649 108.233 96.6107 108.308 96.6923C108.384 96.7739 108.426 96.8846 108.426 96.9999C108.426 97.1153 108.384 97.2259 108.308 97.3075C108.233 97.3891 108.13 97.4349 108.023 97.4349L108.018 97.4349Z" fill="#43437A"/>
<path d="M106.384 101.399L101.487 101.399C101.38 101.399 101.278 101.353 101.202 101.272C101.127 101.19 101.084 101.079 101.084 100.964C101.084 100.849 101.127 100.738 101.202 100.656C101.278 100.575 101.38 100.529 101.487 100.529L106.384 100.529C106.491 100.529 106.594 100.575 106.669 100.656C106.745 100.738 106.787 100.849 106.787 100.964C106.787 101.079 106.745 101.19 106.669 101.272C106.594 101.353 106.491 101.399 106.384 101.399Z" fill="#43437A"/>
<path d="M103.538 101.179C103.431 101.179 103.328 101.133 103.253 101.051C103.177 100.97 103.135 100.859 103.135 100.744L103.135 97.2202C103.135 97.1048 103.177 96.9941 103.253 96.9125C103.328 96.8309 103.431 96.7852 103.538 96.7852C103.645 96.7852 103.747 96.8309 103.823 96.9125C103.899 96.9941 103.941 97.1048 103.941 97.2202L103.941 100.744C103.941 100.859 103.899 100.97 103.823 101.051C103.747 101.133 103.645 101.179 103.538 101.179Z" fill="#43437A"/>
<path d="M133.73 112.19L124.138 112.19C124.031 112.19 123.928 112.144 123.853 112.063C123.777 111.981 123.735 111.87 123.735 111.755C123.735 111.64 123.777 111.529 123.853 111.448C123.928 111.366 124.031 111.32 124.138 111.32L133.73 111.32C133.837 111.32 133.939 111.366 134.015 111.448C134.09 111.529 134.133 111.64 134.133 111.755C134.133 111.87 134.09 111.981 134.015 112.063C133.939 112.144 133.837 112.19 133.73 112.19Z" fill="#43437A"/>
<path d="M132.098 108.226L127.188 108.226C127.081 108.226 126.979 108.18 126.903 108.099C126.828 108.017 126.785 107.906 126.785 107.791C126.785 107.676 126.828 107.565 126.903 107.483C126.979 107.402 127.081 107.356 127.188 107.356L132.088 107.356C132.195 107.356 132.297 107.402 132.373 107.483C132.448 107.565 132.491 107.676 132.491 107.791C132.491 107.906 132.448 108.017 132.373 108.099C132.297 108.18 132.195 108.226 132.088 108.226L132.098 108.226Z" fill="#43437A"/>
<path d="M129.241 111.976C129.134 111.976 129.032 111.93 128.956 111.848C128.881 111.767 128.838 111.656 128.838 111.541L128.838 108.017C128.838 107.902 128.881 107.791 128.956 107.71C129.032 107.628 129.134 107.582 129.241 107.582C129.348 107.582 129.451 107.628 129.526 107.71C129.602 107.791 129.645 107.902 129.645 108.017L129.645 111.541C129.645 111.656 129.602 111.767 129.526 111.848C129.451 111.93 129.348 111.976 129.241 111.976Z" fill="#43437A"/>
<path d="M103.936 113.951L98.4315 113.951C98.3245 113.951 98.222 113.905 98.1464 113.823C98.0708 113.742 98.0283 113.631 98.0283 113.516C98.0283 113.4 98.0708 113.29 98.1464 113.208C98.222 113.126 98.3245 113.081 98.4315 113.081L103.941 113.081C104.048 113.081 104.15 113.126 104.226 113.208C104.302 113.29 104.344 113.4 104.344 113.516C104.344 113.631 104.302 113.742 104.226 113.823C104.15 113.905 104.048 113.951 103.941 113.951L103.936 113.951Z" fill="#43437A"/>
<path d="M130.682 87.0846L125.576 87.0846C125.469 87.0846 125.366 87.0388 125.291 86.9573C125.215 86.8757 125.172 86.765 125.172 86.6496C125.172 86.5342 125.215 86.4236 125.291 86.342C125.366 86.2605 125.469 86.2146 125.576 86.2146L130.682 86.2146C130.789 86.2146 130.891 86.2605 130.967 86.342C131.043 86.4236 131.085 86.5342 131.085 86.6496C131.085 86.765 131.043 86.8757 130.967 86.9573C130.891 87.0388 130.789 87.0846 130.682 87.0846Z" fill="#43437A"/>
<path d="M90.0196 132.955L88.2135 131.913C88.1102 131.854 87.9948 131.822 87.8775 131.822C87.7603 131.822 87.6449 131.854 87.5416 131.913L85.7383 132.96C85.6204 133.028 85.4871 133.059 85.3536 133.05C85.2202 133.04 85.0921 132.99 84.9838 132.905C84.8756 132.82 84.7917 132.704 84.7416 132.57C84.6915 132.437 84.6775 132.29 84.7009 132.148L85.061 129.973C85.081 129.849 85.0724 129.721 85.0358 129.601C84.9992 129.481 84.936 129.373 84.8514 129.286L83.3733 127.758C83.2764 127.658 83.2074 127.531 83.1744 127.392C83.1413 127.252 83.1455 127.105 83.1866 126.968C83.2276 126.83 83.3036 126.708 83.4061 126.616C83.5086 126.523 83.6332 126.463 83.7657 126.444L85.7947 126.154C85.9098 126.136 86.0191 126.088 86.1128 126.013C86.2065 125.939 86.2819 125.841 86.3322 125.728L87.2218 123.738C87.2797 123.608 87.3704 123.498 87.4836 123.422C87.5968 123.345 87.7277 123.304 87.8614 123.304C87.9951 123.304 88.1262 123.345 88.2393 123.422C88.3525 123.498 88.4431 123.608 88.501 123.738L89.396 125.728C89.4465 125.84 89.5219 125.938 89.6156 126.012C89.7094 126.086 89.8186 126.134 89.9335 126.151L91.9626 126.441C92.095 126.461 92.2195 126.52 92.3219 126.613C92.4244 126.705 92.5008 126.827 92.5423 126.964C92.5838 127.101 92.5886 127.247 92.5564 127.387C92.5243 127.527 92.4564 127.655 92.3604 127.755L90.8849 129.286C90.8 129.373 90.7366 129.482 90.7005 129.603C90.6644 129.723 90.6566 129.852 90.6779 129.976L91.0434 132.148C91.0638 132.288 91.0482 132.431 90.9981 132.562C90.9481 132.692 90.8657 132.806 90.7598 132.889C90.654 132.972 90.5288 133.023 90.3982 133.034C90.2675 133.046 90.1366 133.018 90.0196 132.955Z" fill="#009BD9"/>
<path d="M85.3996 133.488C85.1651 133.487 84.9368 133.407 84.7466 133.259C84.5763 133.127 84.4444 132.945 84.3659 132.735C84.2874 132.525 84.2656 132.296 84.3031 132.073L84.6632 129.898C84.6708 129.845 84.6664 129.791 84.6505 129.741C84.6346 129.69 84.6077 129.645 84.5719 129.608L83.0938 128.08C82.942 127.924 82.8341 127.725 82.7826 127.505C82.7311 127.286 82.7381 127.055 82.8027 126.84C82.8673 126.625 82.9868 126.434 83.1477 126.289C83.3085 126.144 83.5041 126.051 83.7118 126.021L85.7383 125.731C85.7887 125.723 85.8365 125.702 85.8777 125.669C85.9189 125.637 85.9522 125.594 85.9747 125.545L86.8643 123.556C86.9534 123.351 87.0949 123.178 87.272 123.057C87.4492 122.937 87.6546 122.873 87.8641 122.874C88.0736 122.873 88.2789 122.937 88.4564 123.057C88.6338 123.177 88.7761 123.349 88.8666 123.553L89.7615 125.539C89.7833 125.589 89.8159 125.631 89.8567 125.664C89.8975 125.696 89.9451 125.717 89.9953 125.725L92.0244 126.015C92.232 126.045 92.4274 126.138 92.5883 126.283C92.7492 126.428 92.869 126.619 92.9341 126.833C92.9992 127.048 93.0068 127.279 92.9561 127.498C92.9055 127.717 92.7987 127.917 92.6479 128.074L91.1725 129.605C91.1371 129.642 91.1103 129.688 91.0944 129.738C91.0785 129.789 91.0739 129.842 91.081 129.895L91.4465 132.07C91.4818 132.291 91.4594 132.518 91.3815 132.726C91.3037 132.934 91.1737 133.114 91.0061 133.246C90.8385 133.378 90.64 133.458 90.4329 133.475C90.2258 133.492 90.0184 133.446 89.834 133.343L88.028 132.302C87.9834 132.276 87.9335 132.263 87.8829 132.263C87.8323 132.263 87.7824 132.276 87.7378 132.302L85.9344 133.349C85.7695 133.442 85.5857 133.49 85.3996 133.488ZM87.8668 123.724C87.8101 123.725 87.7547 123.743 87.7072 123.776C87.6596 123.81 87.6218 123.857 87.598 123.912L86.7084 125.902C86.6294 126.081 86.5105 126.235 86.3622 126.352C86.214 126.469 86.0412 126.545 85.8592 126.572L83.8301 126.876C83.7723 126.883 83.7178 126.908 83.6733 126.948C83.6288 126.988 83.5964 127.042 83.5802 127.102C83.5613 127.161 83.5585 127.225 83.5723 127.286C83.5862 127.346 83.6159 127.402 83.658 127.445L85.1389 128.97C85.2716 129.107 85.3706 129.278 85.4274 129.467C85.4841 129.655 85.4967 129.856 85.4641 130.052L85.1067 132.227C85.0954 132.288 85.1008 132.352 85.1223 132.41C85.1437 132.468 85.1804 132.518 85.2276 132.554C85.2747 132.591 85.3304 132.613 85.3884 132.617C85.4464 132.621 85.5043 132.607 85.5555 132.578L87.3588 131.531C87.5204 131.437 87.7009 131.388 87.8842 131.388C88.0675 131.388 88.248 131.437 88.4096 131.531L90.2157 132.572C90.2665 132.603 90.3246 132.617 90.3829 132.613C90.4412 132.609 90.497 132.587 90.5435 132.549C90.5906 132.512 90.627 132.462 90.6484 132.404C90.6698 132.346 90.6754 132.282 90.6645 132.221L90.2991 130.046C90.2659 129.851 90.2782 129.65 90.335 129.462C90.3918 129.274 90.4912 129.104 90.6242 128.967L92.0996 127.433C92.1426 127.391 92.173 127.336 92.1869 127.275C92.2008 127.214 92.1975 127.15 92.1776 127.091C92.1608 127.031 92.1281 126.978 92.0837 126.937C92.0394 126.897 91.9851 126.872 91.9276 126.865L89.8985 126.575C89.7165 126.548 89.5433 126.473 89.3946 126.357C89.2459 126.24 89.1264 126.086 89.0466 125.907L88.1517 123.921C88.128 123.861 88.0882 123.81 88.0374 123.775C87.9866 123.74 87.9271 123.722 87.8668 123.724Z" fill="#43437A"/>
<path d="M104.304 132.955L102.498 131.913C102.395 131.854 102.279 131.822 102.162 131.822C102.045 131.822 101.929 131.854 101.826 131.913L100.023 132.96C99.9047 133.028 99.7715 133.059 99.6381 133.05C99.5047 133.04 99.3765 132.99 99.2683 132.905C99.16 132.82 99.0761 132.704 99.026 132.57C98.976 132.437 98.9618 132.29 98.9852 132.148L99.3453 129.973C99.3653 129.849 99.3567 129.721 99.3201 129.601C99.2836 129.481 99.2203 129.373 99.1357 129.286L97.6576 127.758C97.5607 127.658 97.4917 127.531 97.4587 127.392C97.4256 127.252 97.4298 127.105 97.4709 126.968C97.5119 126.83 97.5879 126.708 97.6904 126.616C97.7929 126.523 97.9175 126.463 98.05 126.444L100.079 126.154C100.194 126.136 100.304 126.088 100.397 126.014C100.491 125.939 100.567 125.841 100.617 125.728L101.506 123.738C101.564 123.608 101.655 123.498 101.768 123.422C101.881 123.345 102.012 123.304 102.146 123.304C102.279 123.304 102.41 123.345 102.524 123.422C102.637 123.498 102.728 123.608 102.785 123.738L103.68 125.728C103.732 125.84 103.807 125.937 103.901 126.011C103.994 126.084 104.103 126.133 104.218 126.151L106.247 126.441C106.379 126.461 106.504 126.52 106.606 126.613C106.709 126.705 106.785 126.827 106.827 126.964C106.868 127.101 106.873 127.247 106.841 127.387C106.809 127.527 106.741 127.655 106.645 127.755L105.169 129.286C105.084 129.373 105.021 129.482 104.985 129.603C104.949 129.723 104.941 129.852 104.962 129.976L105.328 132.148C105.348 132.288 105.333 132.431 105.283 132.562C105.233 132.692 105.15 132.806 105.044 132.889C104.938 132.972 104.813 133.023 104.682 133.034C104.552 133.046 104.421 133.018 104.304 132.955Z" fill="#009BD9"/>
<path d="M99.684 133.488C99.4495 133.487 99.2211 133.407 99.0309 133.259C98.8609 133.127 98.7293 132.945 98.6512 132.735C98.5732 132.525 98.5519 132.295 98.5901 132.073L98.9475 129.898C98.955 129.845 98.9509 129.792 98.9355 129.741C98.9201 129.691 98.8938 129.645 98.8588 129.608L97.3781 128.08C97.2263 127.924 97.1184 127.725 97.0669 127.505C97.0154 127.286 97.0224 127.055 97.087 126.84C97.1516 126.625 97.2713 126.434 97.4321 126.289C97.593 126.144 97.7884 126.051 97.9961 126.021L100.025 125.731C100.075 125.723 100.123 125.702 100.164 125.669C100.204 125.637 100.237 125.594 100.259 125.545L101.149 123.556C101.238 123.35 101.38 123.177 101.558 123.057C101.735 122.936 101.941 122.872 102.151 122.874C102.361 122.873 102.566 122.937 102.743 123.057C102.921 123.177 103.063 123.349 103.154 123.553L104.048 125.539C104.07 125.588 104.103 125.631 104.144 125.663C104.185 125.696 104.232 125.717 104.282 125.725L106.311 126.015C106.519 126.045 106.714 126.138 106.875 126.283C107.036 126.428 107.156 126.619 107.221 126.834C107.286 127.048 107.294 127.279 107.243 127.498C107.193 127.717 107.086 127.917 106.935 128.074L105.459 129.605C105.424 129.642 105.397 129.688 105.382 129.738C105.366 129.789 105.363 129.843 105.371 129.895L105.734 132.07C105.77 132.291 105.748 132.519 105.671 132.727C105.593 132.936 105.463 133.116 105.295 133.249C105.127 133.382 104.928 133.461 104.721 133.477C104.513 133.494 104.305 133.448 104.121 133.343L102.315 132.302C102.27 132.276 102.221 132.263 102.17 132.263C102.119 132.263 102.07 132.276 102.025 132.302L100.221 133.349C100.056 133.443 99.8711 133.49 99.684 133.488ZM102.151 123.724C102.094 123.725 102.039 123.743 101.992 123.777C101.944 123.81 101.906 123.857 101.882 123.912L100.993 125.902C100.914 126.081 100.795 126.235 100.647 126.352C100.498 126.469 100.325 126.545 100.144 126.572L98.1144 126.876C98.0566 126.883 98.0021 126.908 97.9576 126.948C97.9131 126.988 97.8807 127.042 97.8645 127.102C97.8456 127.162 97.8431 127.226 97.8574 127.286C97.8718 127.347 97.9022 127.402 97.9451 127.445L99.4232 128.97C99.5562 129.107 99.6557 129.278 99.7129 129.466C99.7701 129.655 99.7832 129.856 99.7512 130.052L99.391 132.227C99.3801 132.288 99.3857 132.352 99.4071 132.41C99.4285 132.468 99.4649 132.518 99.5119 132.554C99.5592 132.591 99.6149 132.612 99.6728 132.616C99.7308 132.62 99.7887 132.607 99.8399 132.578L101.643 131.531C101.805 131.437 101.985 131.388 102.169 131.388C102.352 131.388 102.532 131.437 102.694 131.531L104.503 132.572C104.553 132.603 104.611 132.617 104.669 132.613C104.726 132.609 104.782 132.586 104.828 132.549C104.875 132.512 104.912 132.462 104.933 132.404C104.955 132.346 104.96 132.282 104.949 132.221L104.586 130.046C104.553 129.851 104.565 129.651 104.622 129.463C104.678 129.274 104.776 129.104 104.909 128.967L106.384 127.433C106.427 127.39 106.457 127.335 106.471 127.275C106.486 127.214 106.483 127.15 106.465 127.091C106.447 127.031 106.413 126.978 106.369 126.938C106.324 126.898 106.27 126.872 106.212 126.865L104.183 126.575C104.001 126.548 103.828 126.473 103.679 126.356C103.531 126.24 103.411 126.086 103.331 125.907L102.436 123.921C102.412 123.861 102.372 123.81 102.322 123.775C102.271 123.74 102.211 123.722 102.151 123.724Z" fill="#43437A"/>
<path d="M118.588 132.955L116.782 131.913C116.679 131.854 116.563 131.822 116.446 131.822C116.329 131.822 116.213 131.854 116.11 131.913L114.307 132.96C114.189 133.028 114.056 133.059 113.922 133.05C113.789 133.04 113.661 132.99 113.552 132.905C113.444 132.82 113.36 132.704 113.31 132.57C113.26 132.437 113.246 132.29 113.269 132.148L113.629 129.973C113.651 129.849 113.643 129.721 113.607 129.601C113.571 129.481 113.507 129.373 113.423 129.286L111.942 127.758C111.845 127.658 111.776 127.531 111.743 127.391C111.71 127.251 111.715 127.104 111.756 126.967C111.797 126.829 111.874 126.707 111.976 126.615C112.079 126.522 112.204 126.463 112.337 126.444L114.363 126.154C114.478 126.136 114.588 126.088 114.682 126.014C114.776 125.939 114.851 125.841 114.901 125.728L115.79 123.738C115.848 123.608 115.939 123.498 116.052 123.422C116.165 123.345 116.296 123.304 116.43 123.304C116.564 123.304 116.695 123.345 116.808 123.422C116.921 123.498 117.012 123.608 117.07 123.738L117.965 125.728C118.016 125.84 118.091 125.937 118.185 126.011C118.279 126.084 118.387 126.133 118.502 126.151L120.529 126.441C120.661 126.46 120.787 126.519 120.89 126.611C120.993 126.703 121.07 126.825 121.111 126.962C121.153 127.1 121.158 127.247 121.125 127.388C121.092 127.528 121.023 127.655 120.926 127.755L119.451 129.286C119.366 129.374 119.304 129.483 119.267 129.603C119.231 129.724 119.223 129.852 119.244 129.976L119.609 132.148C119.629 132.288 119.614 132.43 119.564 132.56C119.514 132.691 119.432 132.804 119.326 132.887C119.221 132.97 119.096 133.02 118.966 133.032C118.836 133.044 118.705 133.017 118.588 132.955Z" fill="#009BD9"/>
<path d="M113.968 133.488C113.805 133.488 113.645 133.448 113.498 133.374C113.35 133.299 113.22 133.19 113.116 133.055C113.012 132.921 112.936 132.763 112.894 132.593C112.853 132.423 112.846 132.246 112.874 132.073L113.235 129.898C113.242 129.845 113.237 129.791 113.221 129.741C113.205 129.691 113.179 129.645 113.143 129.608L111.662 128.08C111.512 127.923 111.405 127.724 111.354 127.505C111.303 127.286 111.31 127.056 111.375 126.841C111.439 126.627 111.558 126.436 111.718 126.291C111.878 126.146 112.073 126.052 112.28 126.021L114.31 125.731C114.36 125.723 114.407 125.702 114.448 125.67C114.489 125.637 114.522 125.594 114.543 125.545L115.433 123.556C115.523 123.351 115.665 123.179 115.843 123.058C116.02 122.937 116.226 122.874 116.435 122.874C116.645 122.873 116.85 122.936 117.027 123.057C117.204 123.177 117.345 123.349 117.435 123.553L118.33 125.539C118.353 125.588 118.386 125.631 118.427 125.663C118.468 125.696 118.516 125.717 118.567 125.725L120.596 126.015C120.803 126.046 120.998 126.139 121.159 126.284C121.319 126.429 121.439 126.62 121.503 126.835C121.568 127.049 121.576 127.28 121.525 127.499C121.474 127.718 121.367 127.917 121.216 128.074L119.741 129.605C119.706 129.642 119.68 129.688 119.664 129.739C119.649 129.789 119.645 129.843 119.652 129.895L120.018 132.07C120.053 132.291 120.031 132.518 119.953 132.726C119.875 132.934 119.745 133.114 119.577 133.246C119.41 133.378 119.211 133.458 119.004 133.475C118.797 133.492 118.59 133.446 118.405 133.343L116.599 132.302C116.555 132.276 116.505 132.263 116.454 132.263C116.404 132.263 116.354 132.276 116.309 132.302L114.506 133.349C114.34 133.443 114.155 133.491 113.968 133.488ZM116.438 123.724C116.381 123.725 116.326 123.744 116.279 123.777C116.232 123.81 116.194 123.857 116.169 123.912L115.282 125.902C115.203 126.081 115.083 126.235 114.935 126.352C114.786 126.469 114.613 126.545 114.43 126.572L112.401 126.876C112.342 126.882 112.285 126.908 112.238 126.948C112.192 126.989 112.157 127.044 112.139 127.106C112.121 127.168 112.12 127.234 112.137 127.296C112.153 127.358 112.187 127.414 112.232 127.456L113.71 128.981C113.843 129.119 113.943 129.289 114 129.478C114.057 129.667 114.07 129.868 114.038 130.063L113.678 132.238C113.667 132.3 113.673 132.364 113.695 132.422C113.717 132.48 113.754 132.53 113.802 132.566C113.848 132.603 113.903 132.625 113.961 132.629C114.019 132.633 114.076 132.619 114.127 132.589L115.93 131.542C116.092 131.449 116.273 131.4 116.457 131.4C116.641 131.4 116.821 131.449 116.984 131.542L118.79 132.583C118.84 132.615 118.898 132.629 118.956 132.625C119.013 132.621 119.069 132.598 119.115 132.56C119.163 132.524 119.2 132.474 119.222 132.416C119.244 132.358 119.249 132.294 119.238 132.232L118.873 130.057C118.84 129.863 118.852 129.663 118.908 129.474C118.965 129.286 119.063 129.116 119.195 128.979L120.671 127.445C120.714 127.402 120.744 127.347 120.758 127.286C120.772 127.226 120.77 127.162 120.751 127.102C120.734 127.043 120.7 126.99 120.656 126.95C120.611 126.91 120.557 126.884 120.499 126.876L118.47 126.586C118.288 126.559 118.115 126.484 117.966 126.368C117.818 126.251 117.698 126.097 117.618 125.919L116.726 123.933C116.703 123.87 116.663 123.817 116.612 123.78C116.56 123.743 116.5 123.723 116.438 123.724Z" fill="#43437A"/>
<path d="M132.872 132.955L131.066 131.914C130.963 131.854 130.847 131.822 130.73 131.822C130.613 131.822 130.497 131.854 130.394 131.914L128.591 132.961C128.473 133.029 128.34 133.06 128.206 133.051C128.073 133.041 127.945 132.991 127.837 132.906C127.729 132.821 127.645 132.705 127.595 132.571C127.546 132.437 127.532 132.29 127.556 132.149L127.914 129.974C127.935 129.849 127.927 129.722 127.891 129.602C127.855 129.482 127.791 129.373 127.707 129.286L126.226 127.758C126.13 127.658 126.062 127.531 126.03 127.391C125.997 127.251 126.002 127.105 126.043 126.968C126.084 126.831 126.16 126.709 126.262 126.617C126.365 126.524 126.489 126.464 126.621 126.444L128.65 126.154C128.765 126.136 128.874 126.087 128.968 126.013C129.061 125.939 129.137 125.841 129.188 125.728L130.074 123.738C130.133 123.609 130.224 123.499 130.337 123.422C130.451 123.346 130.582 123.305 130.715 123.305C130.849 123.305 130.98 123.346 131.094 123.422C131.207 123.499 131.298 123.609 131.356 123.738L132.249 125.728C132.3 125.84 132.375 125.937 132.469 126.011C132.563 126.085 132.672 126.133 132.786 126.151L134.815 126.441C134.947 126.461 135.072 126.52 135.174 126.613C135.277 126.705 135.353 126.827 135.395 126.964C135.436 127.101 135.441 127.248 135.409 127.388C135.377 127.527 135.309 127.655 135.213 127.755L133.735 129.286C133.651 129.374 133.588 129.483 133.553 129.604C133.517 129.724 133.509 129.852 133.53 129.976L133.893 132.149C133.914 132.288 133.898 132.43 133.848 132.561C133.798 132.691 133.716 132.804 133.61 132.887C133.505 132.97 133.38 133.021 133.25 133.033C133.12 133.044 132.989 133.018 132.872 132.955Z" fill="#009BD9"/>
<path d="M128.263 133.488C128.1 133.488 127.939 133.449 127.792 133.375C127.644 133.3 127.513 133.192 127.409 133.057C127.304 132.922 127.229 132.764 127.187 132.594C127.145 132.424 127.138 132.246 127.167 132.073L127.527 129.898C127.534 129.845 127.529 129.791 127.513 129.741C127.498 129.691 127.471 129.645 127.435 129.608L125.957 128.08C125.806 127.924 125.698 127.725 125.646 127.506C125.595 127.287 125.601 127.057 125.666 126.841C125.73 126.626 125.849 126.435 126.009 126.29C126.17 126.145 126.365 126.051 126.573 126.021L128.602 125.731C128.652 125.723 128.7 125.702 128.741 125.669C128.783 125.637 128.816 125.594 128.838 125.545L129.725 123.555C129.815 123.351 129.957 123.179 130.135 123.058C130.312 122.937 130.518 122.874 130.728 122.874C130.937 122.873 131.143 122.937 131.32 123.057C131.497 123.177 131.64 123.349 131.73 123.553L132.622 125.539C132.645 125.588 132.678 125.631 132.719 125.663C132.761 125.696 132.808 125.717 132.859 125.725L134.888 126.015C135.096 126.045 135.291 126.138 135.452 126.283C135.613 126.428 135.733 126.619 135.798 126.833C135.863 127.048 135.87 127.279 135.82 127.498C135.769 127.717 135.662 127.917 135.511 128.074L134.033 129.605C133.998 129.642 133.972 129.688 133.957 129.739C133.941 129.789 133.937 129.843 133.945 129.895L134.31 132.07C134.345 132.291 134.323 132.518 134.245 132.726C134.167 132.934 134.037 133.114 133.87 133.246C133.702 133.378 133.504 133.458 133.297 133.475C133.089 133.492 132.882 133.446 132.698 133.343L130.892 132.302C130.847 132.276 130.797 132.263 130.747 132.263C130.696 132.263 130.646 132.276 130.601 132.302L128.795 133.349C128.631 133.442 128.449 133.49 128.263 133.488ZM130.73 123.724C130.674 123.725 130.618 123.743 130.571 123.776C130.523 123.81 130.485 123.857 130.462 123.912L129.572 125.902C129.492 126.081 129.373 126.235 129.224 126.352C129.076 126.469 128.902 126.545 128.72 126.572L126.694 126.876C126.636 126.883 126.581 126.908 126.536 126.948C126.491 126.988 126.458 127.042 126.441 127.102C126.423 127.162 126.421 127.225 126.435 127.286C126.449 127.347 126.479 127.402 126.522 127.444L128.002 128.97C128.134 129.108 128.233 129.278 128.29 129.467C128.347 129.656 128.36 129.856 128.328 130.052L127.968 132.227C127.957 132.288 127.962 132.352 127.984 132.41C128.006 132.468 128.043 132.518 128.091 132.554C128.138 132.591 128.193 132.613 128.251 132.617C128.308 132.621 128.366 132.607 128.416 132.578L130.22 131.531C130.382 131.437 130.563 131.388 130.747 131.388C130.93 131.388 131.111 131.437 131.273 131.531L133.079 132.572C133.129 132.603 133.187 132.618 133.245 132.613C133.303 132.609 133.358 132.587 133.404 132.549C133.452 132.513 133.489 132.463 133.511 132.404C133.533 132.346 133.539 132.283 133.528 132.221L133.163 130.046C133.13 129.851 133.142 129.651 133.198 129.463C133.254 129.274 133.353 129.104 133.485 128.967L134.963 127.433C135.006 127.39 135.036 127.335 135.049 127.274C135.063 127.214 135.06 127.15 135.041 127.091C135.024 127.031 134.991 126.978 134.947 126.938C134.902 126.898 134.849 126.873 134.791 126.864L132.762 126.574C132.58 126.548 132.406 126.473 132.257 126.357C132.108 126.24 131.988 126.086 131.907 125.907L131.015 123.921C130.991 123.86 130.95 123.808 130.897 123.773C130.845 123.738 130.784 123.721 130.722 123.724L130.73 123.724Z" fill="#43437A"/>
<path d="M147.159 132.955L145.353 131.913C145.25 131.854 145.134 131.822 145.017 131.822C144.9 131.822 144.785 131.854 144.681 131.913L142.878 132.96C142.76 133.028 142.627 133.059 142.493 133.05C142.36 133.04 142.232 132.99 142.124 132.905C142.015 132.82 141.931 132.704 141.881 132.57C141.831 132.437 141.817 132.29 141.84 132.148L142.201 129.973C142.221 129.849 142.212 129.721 142.176 129.601C142.139 129.481 142.076 129.373 141.991 129.286L140.513 127.758C140.416 127.658 140.347 127.531 140.314 127.392C140.281 127.252 140.285 127.105 140.326 126.968C140.367 126.83 140.443 126.708 140.546 126.616C140.648 126.523 140.773 126.463 140.905 126.444L142.934 126.154C143.05 126.136 143.159 126.088 143.252 126.013C143.346 125.939 143.422 125.841 143.472 125.728L144.362 123.738C144.419 123.608 144.51 123.498 144.623 123.422C144.736 123.345 144.868 123.304 145.001 123.304C145.135 123.304 145.266 123.345 145.379 123.422C145.492 123.498 145.583 123.608 145.641 123.738L146.536 125.728C146.586 125.84 146.662 125.938 146.755 126.012C146.849 126.086 146.958 126.134 147.073 126.151L149.102 126.441C149.235 126.461 149.359 126.52 149.462 126.613C149.564 126.705 149.64 126.827 149.682 126.964C149.723 127.101 149.728 127.247 149.696 127.387C149.664 127.527 149.596 127.655 149.5 127.755L148.025 129.286C147.94 129.373 147.876 129.482 147.84 129.603C147.804 129.723 147.796 129.852 147.818 129.976L148.183 132.148C148.204 132.288 148.188 132.431 148.138 132.562C148.088 132.692 148.005 132.806 147.9 132.889C147.794 132.972 147.668 133.023 147.538 133.034C147.407 133.046 147.276 133.018 147.159 132.955Z" fill="#009BD9"/>
<path d="M142.539 133.488C142.305 133.487 142.077 133.407 141.886 133.259C141.716 133.127 141.584 132.945 141.506 132.735C141.427 132.525 141.405 132.296 141.443 132.073L141.803 129.898C141.811 129.845 141.806 129.791 141.79 129.741C141.774 129.69 141.747 129.645 141.712 129.608L140.233 128.08C140.082 127.924 139.974 127.725 139.922 127.505C139.871 127.286 139.878 127.055 139.942 126.84C140.007 126.625 140.127 126.434 140.288 126.289C140.448 126.144 140.644 126.051 140.852 126.021L142.878 125.731C142.928 125.723 142.976 125.702 143.018 125.669C143.059 125.637 143.092 125.594 143.114 125.545L144.004 123.556C144.093 123.351 144.235 123.178 144.412 123.057C144.589 122.937 144.794 122.873 145.004 122.874C145.213 122.873 145.419 122.937 145.596 123.057C145.774 123.177 145.916 123.349 146.006 123.553L146.901 125.539C146.923 125.589 146.956 125.631 146.996 125.664C147.037 125.696 147.085 125.717 147.135 125.725L149.164 126.015C149.372 126.045 149.567 126.138 149.728 126.283C149.889 126.428 150.009 126.619 150.074 126.833C150.139 127.048 150.147 127.279 150.096 127.498C150.045 127.717 149.938 127.917 149.788 128.074L148.312 129.605C148.277 129.642 148.25 129.688 148.234 129.738C148.218 129.789 148.214 129.842 148.221 129.895L148.586 132.07C148.622 132.291 148.599 132.518 148.521 132.726C148.443 132.934 148.314 133.114 148.146 133.246C147.978 133.378 147.78 133.458 147.573 133.475C147.366 133.492 147.158 133.446 146.974 133.343L145.168 132.302C145.123 132.276 145.073 132.263 145.023 132.263C144.972 132.263 144.922 132.276 144.878 132.302L143.074 133.349C142.909 133.442 142.726 133.49 142.539 133.488ZM145.006 123.724C144.95 123.725 144.894 123.743 144.847 123.776C144.799 123.81 144.761 123.857 144.738 123.912L143.851 125.896C143.772 126.075 143.652 126.23 143.504 126.347C143.355 126.464 143.181 126.539 142.999 126.566L140.973 126.87C140.915 126.877 140.86 126.902 140.816 126.942C140.771 126.983 140.739 127.036 140.723 127.096C140.704 127.156 140.701 127.219 140.715 127.28C140.729 127.341 140.758 127.396 140.801 127.439L142.281 128.964C142.414 129.102 142.513 129.272 142.57 129.461C142.627 129.65 142.639 129.851 142.607 130.046L142.249 132.221C142.238 132.282 142.243 132.346 142.265 132.404C142.286 132.462 142.323 132.512 142.37 132.549C142.417 132.585 142.473 132.607 142.531 132.611C142.589 132.615 142.647 132.602 142.698 132.572L144.501 131.525C144.663 131.431 144.843 131.383 145.027 131.383C145.21 131.383 145.39 131.431 145.552 131.525L147.345 132.566C147.396 132.597 147.454 132.611 147.512 132.607C147.57 132.603 147.626 132.58 147.672 132.543C147.719 132.506 147.756 132.456 147.777 132.398C147.799 132.34 147.804 132.276 147.793 132.215L147.428 130.04C147.396 129.845 147.409 129.645 147.465 129.457C147.522 129.269 147.621 129.098 147.753 128.961L149.229 127.427C149.273 127.384 149.305 127.328 149.321 127.266C149.336 127.204 149.335 127.138 149.317 127.077C149.299 127.016 149.265 126.961 149.218 126.92C149.172 126.88 149.116 126.854 149.057 126.847L147.028 126.557C146.846 126.531 146.672 126.456 146.524 126.339C146.375 126.223 146.255 126.069 146.176 125.89L145.281 123.903C145.255 123.849 145.216 123.803 145.168 123.771C145.119 123.739 145.063 123.723 145.006 123.724Z" fill="#43437A"/>
<path d="M141.696 44.5903L91.0704 44.5903C89.2715 44.5903 87.8132 46.164 87.8132 48.1052L87.8132 48.5634C87.8132 50.5046 89.2715 52.0782 91.0704 52.0782L141.696 52.0782C143.495 52.0782 144.953 50.5046 144.953 48.5634L144.953 48.1052C144.953 46.164 143.495 44.5903 141.696 44.5903Z" fill="#00C209"/>
<path d="M141.701 52.5247L91.0731 52.5247C90.1023 52.5239 89.1714 52.1076 88.4847 51.3671C87.7979 50.6267 87.4115 49.6224 87.41 48.5748L87.41 48.1195C87.4115 47.0717 87.7977 46.0672 88.4844 45.3262C89.1711 44.5852 90.102 44.1683 91.0731 44.1667L141.701 44.1667C142.672 44.1683 143.602 44.5854 144.289 45.3264C144.975 46.0674 145.361 47.0719 145.361 48.1195L145.361 48.5748C145.36 49.6219 144.974 50.6257 144.288 51.3661C143.602 52.1065 142.671 52.5232 141.701 52.5247ZM91.0785 45.0368C90.321 45.0375 89.5948 45.3626 89.0592 45.9405C88.5236 46.5185 88.2223 47.3022 88.2215 48.1195L88.2215 48.5748C88.223 49.3917 88.5246 50.1746 89.0601 50.752C89.5956 51.3293 90.3215 51.6539 91.0785 51.6547L141.701 51.6547C142.458 51.6539 143.183 51.3292 143.718 50.7517C144.253 50.1743 144.554 49.3914 144.555 48.5748L144.555 48.1195C144.554 47.3027 144.253 46.5194 143.718 45.9415C143.183 45.3637 142.458 45.0383 141.701 45.0368L91.0785 45.0368Z" fill="#43437A"/>
<path d="M141.892 58.0175L90.2641 58.0175C90.1572 58.0175 90.0547 57.9717 89.9791 57.8901C89.9035 57.8085 89.861 57.6978 89.861 57.5825C89.861 57.4671 89.9035 57.3565 89.9791 57.2749C90.0547 57.1933 90.1572 57.1475 90.2641 57.1475L141.892 57.1475C141.999 57.1475 142.101 57.1933 142.177 57.2749C142.252 57.3565 142.295 57.4671 142.295 57.5825C142.295 57.6978 142.252 57.8085 142.177 57.8901C142.101 57.9717 141.999 58.0175 141.892 58.0175Z" fill="#43437A"/>
<path d="M143.526 117.694L88.8344 117.694C88.7275 117.694 88.625 117.649 88.5494 117.567C88.4738 117.486 88.4313 117.375 88.4313 117.259C88.4313 117.144 88.4738 117.033 88.5494 116.952C88.625 116.87 88.7275 116.824 88.8344 116.824L143.526 116.824C143.633 116.824 143.735 116.87 143.811 116.952C143.886 117.033 143.929 117.144 143.929 117.259C143.929 117.375 143.886 117.486 143.811 117.567C143.735 117.649 143.633 117.694 143.526 117.694Z" fill="#43437A"/>
<path d="M138.879 87.3254C138.718 87.3255 138.563 87.2638 138.441 87.1514L117.747 68.0111C117.611 67.8857 117.528 67.7075 117.514 67.5155C117.5 67.3235 117.558 67.1336 117.674 66.9875C117.79 66.8413 117.956 66.7509 118.134 66.7362C118.311 66.7216 118.487 66.7838 118.623 66.9091L139.317 86.0494C139.421 86.1458 139.496 86.2744 139.531 86.418C139.565 86.5616 139.558 86.7131 139.51 86.8522C139.463 86.9913 139.376 87.1113 139.263 87.1959C139.15 87.2805 139.016 87.3257 138.879 87.3254Z" fill="#9FC5E0"/>
<path d="M131.354 105.305C131.176 105.305 131.005 105.229 130.879 105.093C130.753 104.957 130.682 104.773 130.682 104.58L130.682 92.4003C130.682 92.208 130.753 92.0236 130.879 91.8876C131.005 91.7517 131.176 91.6753 131.354 91.6753C131.532 91.6753 131.703 91.7517 131.829 91.8876C131.955 92.0236 132.026 92.208 132.026 92.4003L132.026 104.58C132.026 104.773 131.955 104.957 131.829 105.093C131.703 105.229 131.532 105.305 131.354 105.305Z" fill="#9FC5E0"/>
<path d="M103.941 150.546L81.9032 150.546C81.725 150.546 81.5542 150.47 81.4282 150.334C81.3022 150.198 81.2313 150.014 81.2313 149.821C81.2313 149.629 81.3022 149.444 81.4282 149.309C81.5542 149.173 81.725 149.096 81.9032 149.096L103.941 149.096C104.119 149.096 104.29 149.173 104.416 149.309C104.542 149.444 104.613 149.629 104.613 149.821C104.613 150.014 104.542 150.198 104.416 150.334C104.29 150.47 104.119 150.546 103.941 150.546Z" fill="#9FC5E0"/>
<path d="M118.991 20.0443L80.0219 20.0443C79.915 20.0443 79.8125 19.9985 79.7369 19.9169C79.6613 19.8353 79.6188 19.7247 79.6188 19.6093C79.6188 19.494 79.6613 19.3833 79.7369 19.3018C79.8125 19.2202 79.915 19.1743 80.0219 19.1743L118.991 19.1743C119.098 19.1743 119.201 19.2202 119.276 19.3018C119.352 19.3833 119.394 19.494 119.394 19.6093C119.394 19.7247 119.352 19.8353 119.276 19.9169C119.201 19.9985 119.098 20.0443 118.991 20.0443Z" fill="#43437A"/>
<path d="M70.2555 40.4897C70.0773 40.4897 69.9063 40.4133 69.7803 40.2773C69.6543 40.1414 69.5836 39.9569 69.5836 39.7646C69.5872 36.79 70.6838 33.9384 72.6331 31.835C74.5823 29.7316 77.225 28.5483 79.9817 28.5444C80.1599 28.5444 80.3307 28.6208 80.4567 28.7568C80.5827 28.8927 80.6536 29.0772 80.6536 29.2694C80.6536 29.4617 80.5827 29.6462 80.4567 29.7821C80.3307 29.9181 80.1599 29.9945 79.9817 29.9945C77.5812 29.9975 75.2798 31.0278 73.5824 32.8594C71.885 34.691 70.9302 37.1744 70.9274 39.7646C70.9274 39.9569 70.8565 40.1414 70.7305 40.2773C70.6045 40.4133 70.4337 40.4897 70.2555 40.4897Z" fill="#9FC5E0"/>
<path d="M56.7236 102.736C56.7236 102.736 60.169 94.0739 69.879 92.5427C79.5891 91.0114 78.2265 98.6096 73.0477 103.302C67.8688 107.994 65.3237 116.018 65.9472 118.568" fill="#EDB191"/>
<path d="M65.9446 119.003C65.8557 119.002 65.7693 118.97 65.6989 118.911C65.6284 118.853 65.5779 118.771 65.5549 118.678C64.9126 116.045 67.4631 107.791 72.7871 102.968C75.7595 100.274 77.2914 96.8144 76.4314 94.7438C75.7273 93.0531 73.4213 92.4237 69.9383 92.9747C67.2142 93.3924 64.624 94.5139 62.3879 96.2437C60.1517 97.9736 58.3358 100.261 57.0945 102.91C57.0521 103.016 56.9724 103.1 56.8729 103.143C56.7734 103.185 56.6621 103.184 56.5637 103.138C56.4654 103.092 56.3879 103.006 56.3484 102.899C56.3088 102.791 56.3104 102.671 56.3528 102.565C56.3905 102.478 59.9997 93.6621 69.8227 92.125C74.7839 91.342 76.555 92.9283 77.1651 94.3986C78.1891 96.8579 76.6006 100.66 73.3057 103.644C68.2988 108.183 65.7538 116.082 66.337 118.469C66.364 118.581 66.3489 118.699 66.295 118.799C66.2411 118.898 66.1527 118.97 66.0494 119C66.0146 119.005 65.9796 119.006 65.9446 119.003Z" fill="#43437A"/>
<path d="M59.575 102.56C59.4503 102.56 59.3279 102.522 59.2218 102.451C59.1156 102.38 59.03 102.279 58.9742 102.159C58.9183 102.038 58.8947 101.903 58.9059 101.769C58.9171 101.635 58.9627 101.507 59.0375 101.4C59.2794 101.049 65.0738 92.8154 73.432 94.0247C73.6102 94.0501 73.7717 94.1508 73.8811 94.3048C73.9904 94.4587 74.0387 94.6531 74.0152 94.8454C73.9916 95.0377 73.8984 95.212 73.7557 95.33C73.6131 95.4481 73.4328 95.5001 73.2546 95.4748C65.6892 94.3814 60.169 102.2 60.1125 102.278C60.0491 102.367 59.9676 102.438 59.8744 102.487C59.7811 102.536 59.6787 102.561 59.575 102.56Z" fill="#FCDDD0"/>
<path d="M168.98 162.001C168.98 162.001 135.033 147.791 150.973 133.247L146.592 118.077C146.414 117.475 146.352 116.84 146.41 116.212C146.468 115.583 146.643 114.973 146.927 114.42C147.211 113.868 147.596 113.383 148.059 112.997C148.522 112.61 149.054 112.33 149.621 112.173C152.158 111.483 155.781 112.358 160.041 118.741C160.041 118.741 166.168 116.097 171.388 119.481C171.388 119.481 175.467 115.244 183.307 124.034C191.146 132.824 194.772 148.081 194.772 148.081L168.98 162.001Z" fill="#EDB191"/>
<path d="M169.001 162.477L168.834 162.407C167.988 162.054 148.097 153.609 146.426 142.838C145.888 139.416 147.272 136.142 150.516 133.103L146.216 118.205C146.025 117.54 145.961 116.839 146.028 116.146C146.095 115.453 146.291 114.782 146.606 114.174C146.913 113.575 147.331 113.051 147.835 112.634C148.339 112.217 148.916 111.917 149.532 111.752C151.951 111.094 155.751 111.697 160.194 118.219C161.489 117.735 166.69 116.097 171.361 118.956C172.263 118.299 173.337 117.973 174.424 118.025C177.187 118.08 180.278 120 183.605 123.732C191.431 132.505 195.134 147.82 195.161 147.974L195.242 148.313L169.001 162.477ZM151.083 112.414C150.63 112.415 150.179 112.475 149.739 112.593C149.23 112.731 148.753 112.98 148.337 113.325C147.92 113.67 147.575 114.105 147.321 114.6C147.06 115.105 146.896 115.662 146.84 116.238C146.784 116.813 146.837 117.394 146.995 117.947L151.457 133.393L151.252 133.578C148.095 136.458 146.743 139.526 147.221 142.693C148.74 152.483 167.023 160.673 168.96 161.526L194.304 147.852C193.716 145.561 190.061 132.221 183.017 124.336C175.588 116.007 171.823 119.638 171.667 119.797L171.444 120.023L171.175 119.855C166.195 116.624 160.242 119.118 160.183 119.145L159.89 119.272L159.707 118.997C156.826 114.658 153.867 112.414 151.083 112.414Z" fill="#43437A"/>
<path d="M159.976 118.733C159.976 118.733 163.201 122.535 165.846 130.774L159.976 118.733Z" fill="#EDB191"/>
<path d="M165.851 131.209C165.768 131.209 165.687 131.181 165.619 131.129C165.551 131.077 165.5 131.004 165.472 130.919C162.892 122.877 159.716 119.069 159.683 119.029C159.641 118.988 159.606 118.938 159.583 118.883C159.559 118.827 159.547 118.766 159.546 118.705C159.546 118.644 159.558 118.583 159.58 118.527C159.603 118.471 159.637 118.421 159.679 118.38C159.721 118.338 159.771 118.307 159.825 118.288C159.879 118.269 159.936 118.263 159.992 118.27C160.049 118.276 160.103 118.295 160.153 118.326C160.202 118.357 160.244 118.399 160.277 118.449C160.412 118.608 163.594 122.41 166.233 130.629C166.25 130.683 166.258 130.74 166.254 130.797C166.251 130.854 166.237 130.91 166.214 130.962C166.191 131.013 166.159 131.059 166.119 131.097C166.079 131.135 166.033 131.164 165.983 131.183C165.941 131.2 165.896 131.209 165.851 131.209Z" fill="#43437A"/>
<path d="M171.431 119.368C171.431 119.368 174.655 122.219 177.596 129.823L171.431 119.368Z" fill="#EDB191"/>
<path d="M177.596 130.246C177.516 130.246 177.438 130.22 177.372 130.172C177.306 130.124 177.255 130.056 177.225 129.976C174.37 122.587 171.207 119.722 171.175 119.693C171.096 119.619 171.047 119.514 171.038 119.401C171.029 119.288 171.061 119.176 171.128 119.089C171.194 119.001 171.29 118.945 171.394 118.932C171.498 118.919 171.603 118.951 171.686 119.02C171.82 119.139 175.026 122.027 177.969 129.643C177.994 129.709 178.004 129.781 177.997 129.852C177.99 129.924 177.968 129.992 177.931 130.052C177.894 130.111 177.844 130.16 177.786 130.194C177.727 130.228 177.662 130.246 177.596 130.246Z" fill="#43437A"/>
<path d="M153.228 139.761C153.147 139.761 153.068 139.735 153.001 139.685C152.935 139.636 152.883 139.567 152.854 139.485L150.494 133.024C150.473 132.971 150.463 132.913 150.462 132.855C150.462 132.797 150.473 132.74 150.494 132.686C150.515 132.632 150.545 132.584 150.584 132.543C150.622 132.503 150.668 132.471 150.718 132.45C150.768 132.428 150.821 132.418 150.875 132.419C150.929 132.421 150.982 132.434 151.031 132.457C151.08 132.481 151.124 132.515 151.161 132.558C151.197 132.601 151.226 132.651 151.244 132.705L153.604 139.166C153.643 139.274 153.64 139.394 153.598 139.5C153.555 139.606 153.475 139.689 153.376 139.732C153.329 139.751 153.278 139.761 153.228 139.761Z" fill="#43437A"/>
<path d="M162.916 130.536C162.788 130.536 162.662 130.496 162.553 130.421C162.445 130.346 162.359 130.239 162.306 130.113C157.764 119.382 152.9 115.879 152.862 115.844C152.721 115.736 152.624 115.573 152.592 115.389C152.559 115.206 152.594 115.016 152.688 114.859C152.783 114.702 152.929 114.591 153.098 114.548C153.267 114.505 153.444 114.534 153.593 114.629C153.803 114.777 158.802 118.356 163.537 129.509C163.574 129.596 163.595 129.689 163.598 129.784C163.602 129.879 163.588 129.974 163.557 130.063C163.526 130.153 163.479 130.234 163.419 130.304C163.359 130.374 163.287 130.43 163.206 130.469C163.116 130.515 163.017 130.538 162.916 130.536Z" fill="#FCDDD0"/>
<path d="M174.658 130.536C174.512 130.535 174.37 130.483 174.253 130.387C174.137 130.292 174.052 130.157 174.013 130.005C172.618 124.594 168.684 120.893 168.638 120.856C168.507 120.729 168.427 120.552 168.415 120.362C168.403 120.173 168.461 119.986 168.576 119.842C168.691 119.698 168.853 119.608 169.029 119.592C169.204 119.576 169.379 119.635 169.514 119.756C169.689 119.916 173.795 123.767 175.3 129.617C175.328 129.724 175.332 129.837 175.313 129.947C175.293 130.057 175.251 130.161 175.188 130.25C175.125 130.339 175.044 130.411 174.951 130.46C174.859 130.51 174.756 130.536 174.653 130.536L174.658 130.536Z" fill="#FCDDD0"/>
<path d="M195.094 148.096L199.096 156.758C199.096 156.758 209.024 153.011 217.355 167.801C217.355 167.801 204.186 189.262 170.323 204.052C170.323 204.052 161.992 185.202 171.533 172.401L169.197 162.025L195.094 148.096Z" fill="#009BD9"/>
<path d="M170.323 204.487C170.247 204.487 170.173 204.464 170.109 204.42C170.044 204.376 169.993 204.314 169.96 204.24C168.51 200.683 167.499 196.935 166.953 193.093C165.781 184.796 167.222 177.612 171.094 172.296L168.807 162.129C168.785 162.033 168.794 161.932 168.833 161.842C168.871 161.752 168.937 161.679 169.02 161.636L194.917 147.716C195.012 147.665 195.122 147.657 195.222 147.694C195.323 147.73 195.406 147.808 195.454 147.91L199.305 156.248C201.245 155.76 203.265 155.784 205.194 156.317C208.481 157.17 213.321 159.815 217.696 167.584C217.737 167.654 217.759 167.735 217.759 167.817C217.759 167.9 217.737 167.981 217.696 168.051C217.664 168.103 214.288 173.561 206.812 180.715C199.921 187.319 188.026 196.802 170.479 204.464C170.429 204.482 170.376 204.49 170.323 204.487ZM169.665 162.259L171.925 172.296C171.939 172.362 171.939 172.429 171.926 172.495C171.912 172.56 171.885 172.621 171.847 172.673C163.309 184.131 169.447 200.804 170.533 203.489C187.757 195.909 199.451 186.588 206.242 180.08C212.797 173.804 216.162 168.88 216.874 167.787C212.695 160.49 208.15 157.982 205.049 157.17C201.67 156.28 199.244 157.17 199.219 157.17C199.127 157.205 199.026 157.202 198.935 157.162C198.845 157.122 198.771 157.047 198.728 156.952L194.914 148.679L169.665 162.259Z" fill="#43437A"/>
<path d="M177.679 185.956C179.08 185.956 180.216 184.73 180.216 183.218C180.216 181.706 179.08 180.48 177.679 180.48C176.278 180.48 175.142 181.706 175.142 183.218C175.142 184.73 176.278 185.956 177.679 185.956Z" fill="#00789C"/>
<path d="M202.942 177.546C204.343 177.546 205.479 176.32 205.479 174.808C205.479 173.296 204.343 172.07 202.942 172.07C201.541 172.07 200.405 173.296 200.405 174.808C200.405 176.32 201.541 177.546 202.942 177.546Z" fill="#00789C"/>
<path d="M172.033 172.265L169.775 162.228L194.834 148.748L198.693 157.103C198.061 158.327 191.006 171.096 172.003 172.288L172.033 172.265Z" fill="#007396"/>
<path d="M160.272 6.10137C157.484 6.27664 154.756 7.04361 152.243 8.35832C149.731 9.67303 147.483 11.5096 145.629 13.763C143.775 16.0164 142.352 18.6423 141.44 21.4903C140.528 24.3383 140.145 27.3525 140.314 30.3602C140.873 40.5829 156.211 67.3009 162.102 77.2219C162.328 77.6049 162.645 77.9159 163.02 78.1227C163.394 78.3295 163.813 78.4246 164.234 78.3983C164.654 78.372 165.06 78.2252 165.41 77.9731C165.76 77.7209 166.041 77.3725 166.225 76.9639C170.993 66.37 183.307 37.912 182.745 27.6893C182.415 21.6121 179.862 15.9249 175.649 11.8772C171.435 7.82938 165.904 5.75199 160.272 6.10137ZM162.091 39.2634C159.95 39.4035 157.818 38.8549 155.966 37.687C154.113 36.5191 152.624 34.7844 151.686 32.7026C150.747 30.6207 150.402 28.2853 150.695 25.9919C150.987 23.6985 151.903 21.5502 153.328 19.819C154.752 18.0878 156.621 16.8516 158.696 16.2667C160.772 15.6819 162.962 15.7748 164.989 16.5336C167.016 17.2924 168.788 18.683 170.082 20.5295C171.376 22.3759 172.134 24.5952 172.258 26.9063C172.424 29.9984 171.447 33.0353 169.541 35.3515C167.635 37.6677 164.956 39.0743 162.091 39.2634Z" fill="#009BD9"/>
<path d="M164.091 78.8374C163.626 78.8392 163.169 78.7134 162.762 78.4719C162.354 78.2305 162.011 77.8812 161.763 77.4569C155.381 66.7065 140.47 40.6032 139.911 30.3864C139.741 27.322 140.132 24.2514 141.062 21.3502C141.993 18.4491 143.444 15.7743 145.333 13.4787C147.222 11.1832 149.512 9.31188 152.071 7.9719C154.631 6.63192 157.41 5.84946 160.25 5.66936L160.272 6.10146L160.25 5.66936C165.988 5.31987 171.62 7.43893 175.912 11.5621C180.204 15.6853 182.806 21.4763 183.148 27.6662C183.707 37.8801 171.753 65.677 166.587 77.1524C166.375 77.6321 166.047 78.0413 165.637 78.3368C165.228 78.6323 164.752 78.8032 164.26 78.8316L164.091 78.8374ZM161.521 6.4988C161.116 6.4988 160.715 6.49876 160.296 6.53646C157.562 6.71028 154.886 7.46398 152.421 8.75447C149.957 10.045 147.752 11.847 145.934 14.0574C144.115 16.2678 142.718 18.8433 141.823 21.6367C140.927 24.4301 140.551 27.3866 140.715 30.3371C141.252 40.3451 156.093 66.2976 162.443 76.9872C162.631 77.3045 162.894 77.562 163.205 77.7333C163.515 77.9045 163.863 77.9833 164.211 77.9614C164.559 77.9395 164.896 77.8178 165.186 77.6089C165.476 77.3999 165.71 77.1112 165.862 76.7726C171.001 65.358 182.893 37.7264 182.342 27.7155C182.024 21.9845 179.693 16.5999 175.825 12.6581C171.957 8.71621 166.842 6.51362 161.521 6.4988ZM161.454 39.7159C159.288 39.7118 157.17 39.0332 155.352 37.7615C153.535 36.4898 152.097 34.6792 151.21 32.5469C150.323 30.4146 150.026 28.0514 150.353 25.7411C150.68 23.4309 151.619 21.2717 153.056 19.5228C154.031 18.3269 155.217 17.3521 156.544 16.6551C157.871 15.9581 159.314 15.5528 160.788 15.4628C163.006 15.3262 165.213 15.9018 167.129 17.1169C169.045 18.332 170.584 20.1322 171.553 22.2904C172.522 24.4486 172.877 26.8682 172.573 29.2437C172.269 31.6193 171.319 33.8444 169.845 35.6384C168.87 36.8344 167.684 37.8093 166.357 38.5063C165.029 39.2034 163.587 39.6086 162.113 39.6984C161.892 39.71 161.672 39.7159 161.454 39.7159ZM161.446 16.3241C161.242 16.3241 161.041 16.3241 160.834 16.3444C159.467 16.4313 158.13 16.8079 156.899 17.4525C155.667 18.0972 154.566 18.9973 153.657 20.1014C152.748 21.2056 152.049 22.4922 151.601 23.8877C151.153 25.2832 150.964 26.7603 151.045 28.2346C151.21 31.2134 152.463 34.0003 154.528 35.9849C156.593 37.9694 159.303 38.9898 162.064 38.8226C163.431 38.7357 164.768 38.3591 165.999 37.7145C167.231 37.0699 168.332 36.1698 169.241 35.0656C170.15 33.9614 170.849 32.6748 171.297 31.2793C171.745 29.8838 171.934 28.4068 171.852 26.9325C171.693 24.0679 170.528 21.3764 168.595 19.4057C166.662 17.4349 164.106 16.333 161.446 16.3241Z" fill="#43437A"/>
<path d="M173.828 6.34762C173.752 6.34784 173.677 6.3309 173.608 6.29792C173.539 6.26494 173.478 6.21669 173.427 6.15625C168.246 -0.0701302 159.078 1.98888 158.987 2.01208C158.848 2.04477 158.702 2.01635 158.582 1.93314C158.462 1.84993 158.378 1.71874 158.348 1.56837C158.317 1.418 158.343 1.26082 158.42 1.13138C158.498 1.00194 158.619 0.910813 158.759 0.878125C159.159 0.782424 168.635 -1.34329 174.228 5.38189C174.323 5.49621 174.372 5.64654 174.365 5.79983C174.357 5.95313 174.293 6.09691 174.188 6.19972C174.089 6.29535 173.96 6.34804 173.828 6.34762Z" fill="#43437A"/>
<path d="M171.893 55.2769C171.746 55.2774 171.603 55.2348 171.477 55.1539C171.352 55.073 171.249 54.9567 171.18 54.8176C171.111 54.6784 171.078 54.5216 171.085 54.364C171.093 54.2063 171.139 54.0538 171.221 53.9226C176.384 45.5763 178.305 34.4111 178.324 34.3009C178.362 34.0736 178.482 33.8721 178.658 33.7405C178.834 33.6088 179.051 33.558 179.262 33.5991C179.472 33.6403 179.659 33.7701 179.781 33.9599C179.903 34.1497 179.95 34.384 179.912 34.6112C179.832 35.0811 177.91 46.2433 172.562 54.8883C172.489 55.0075 172.389 55.1053 172.272 55.1731C172.156 55.2409 172.025 55.2765 171.893 55.2769Z" fill="#9FC5E0"/>
<path d="M146.27 18.4148C146.126 18.4144 145.986 18.3729 145.862 18.2945C145.739 18.2161 145.637 18.1037 145.567 17.9687C145.497 17.8337 145.462 17.6812 145.465 17.5266C145.468 17.3721 145.509 17.2212 145.584 17.0895C145.805 16.7038 151.115 7.60636 161.422 7.95147C161.636 7.95493 161.84 8.04988 161.989 8.21549C162.137 8.38109 162.219 8.60377 162.216 8.83451C162.213 9.06525 162.125 9.28517 161.971 9.44588C161.818 9.60659 161.612 9.69495 161.398 9.69149L161.371 9.69149C152.016 9.37829 147.006 17.916 146.957 18.003C146.885 18.1293 146.784 18.2335 146.663 18.3056C146.543 18.3777 146.407 18.4152 146.27 18.4148Z" fill="#9FC5E0"/>
<path d="M180.133 136.481C180.041 136.481 179.952 136.447 179.881 136.385C179.809 136.323 179.759 136.236 179.74 136.14C179.72 136.043 179.731 135.942 179.772 135.853C179.813 135.765 179.88 135.693 179.963 135.652C190.947 130.171 196.801 120.476 199.776 113.321C203.001 105.535 203.643 98.9603 203.651 98.8936C203.662 98.7783 203.715 98.6722 203.798 98.5988C203.881 98.5254 203.988 98.4906 204.095 98.5022C204.202 98.5137 204.3 98.5706 204.368 98.6603C204.436 98.7501 204.468 98.8653 204.457 98.9806C204.457 99.0474 203.81 105.741 200.528 113.652C197.497 120.963 191.528 130.852 180.307 136.452C180.252 136.476 180.192 136.486 180.133 136.481Z" fill="#43437A"/>
<path d="M80.0219 210.94C79.9898 210.944 79.9573 210.944 79.9252 210.94C61.1555 206.009 43.8799 197.109 29.9666 185.216C16.0532 173.323 5.68201 158.568 0.0328087 142.586C0.0113523 142.532 0.000167488 142.474 1.88115e-06 142.415C-0.000163726 142.356 0.0106071 142.298 0.0317589 142.244C0.0529107 142.19 0.084012 142.142 0.123093 142.101C0.162174 142.06 0.208425 142.028 0.259176 142.007C0.309927 141.986 0.364195 141.977 0.418486 141.979C0.472777 141.981 0.526036 141.995 0.575171 142.02C0.624306 142.045 0.66819 142.081 0.704299 142.125C0.740408 142.168 0.767968 142.22 0.785266 142.275C12.253 174.692 41.9046 200.041 80.116 210.084C80.169 210.091 80.2201 210.109 80.2667 210.137C80.3132 210.165 80.3542 210.202 80.3873 210.247C80.4203 210.292 80.4449 210.344 80.4594 210.399C80.474 210.455 80.4782 210.513 80.472 210.57C80.4659 210.627 80.4493 210.682 80.4233 210.732C80.3974 210.783 80.3625 210.827 80.3207 210.862C80.2789 210.898 80.2311 210.925 80.1798 210.94C80.1285 210.956 80.0749 210.961 80.0219 210.954L80.0219 210.94Z" fill="#43437A"/>
<path d="M158.073 209.037C157.976 209.038 157.882 209.001 157.808 208.932C157.734 208.864 157.686 208.769 157.672 208.665C157.658 208.561 157.679 208.456 157.731 208.367C157.784 208.279 157.865 208.214 157.958 208.185C192.861 197.092 220.07 172.453 230.747 142.273C230.764 142.217 230.792 142.166 230.828 142.122C230.864 142.078 230.908 142.043 230.957 142.018C231.007 141.993 231.06 141.979 231.114 141.976C231.168 141.974 231.222 141.984 231.273 142.005C231.324 142.026 231.37 142.057 231.409 142.098C231.448 142.139 231.479 142.188 231.501 142.242C231.522 142.296 231.533 142.354 231.532 142.412C231.532 142.471 231.521 142.529 231.5 142.583C226.186 157.602 216.651 171.624 203.928 183.128C191.262 194.581 175.44 203.536 158.186 209.02C158.15 209.031 158.112 209.037 158.073 209.037Z" fill="#43437A"/>
<path d="M87.8158 221.887L87.7889 221.887C71.0617 220.684 59.1048 215.757 52.0232 211.833C44.3261 207.576 40.6523 203.655 40.4991 203.489C40.4279 203.407 40.3891 203.298 40.3909 203.185C40.3928 203.072 40.435 202.965 40.5089 202.885C40.5828 202.806 40.6824 202.76 40.7868 202.758C40.8913 202.756 40.9924 202.798 41.0689 202.875C41.1065 202.915 44.8314 206.882 52.4291 211.082C59.4382 214.956 71.2741 219.825 87.8427 221.017C87.8957 221.019 87.9478 221.032 87.996 221.056C88.0443 221.08 88.0876 221.113 88.1238 221.155C88.16 221.197 88.1883 221.246 88.2069 221.299C88.2255 221.353 88.2341 221.41 88.2324 221.467C88.2306 221.524 88.2184 221.58 88.1965 221.632C88.1746 221.684 88.1435 221.731 88.1048 221.77C88.0661 221.809 88.0207 221.84 87.9711 221.86C87.9215 221.88 87.8688 221.889 87.8158 221.887Z" fill="#43437A"/>
<path d="M220.58 147.646C220.503 147.646 220.427 147.623 220.362 147.578C220.297 147.533 220.245 147.469 220.213 147.393C220.18 147.317 220.169 147.233 220.18 147.15C220.191 147.068 220.223 146.99 220.274 146.927C230.008 134.721 230.653 115.49 230.658 115.299C230.661 115.184 230.706 115.074 230.784 114.995C230.823 114.956 230.868 114.925 230.917 114.904C230.967 114.884 231.019 114.874 231.072 114.876C231.125 114.877 231.177 114.89 231.226 114.913C231.274 114.936 231.318 114.97 231.354 115.011C231.391 115.053 231.419 115.102 231.438 115.155C231.457 115.208 231.466 115.265 231.465 115.322C231.465 115.519 230.809 135.043 220.886 147.495C220.848 147.542 220.801 147.58 220.748 147.606C220.696 147.632 220.638 147.646 220.58 147.646Z" fill="#43437A"/>
<path d="M184.298 117.776C184.213 117.776 184.129 117.747 184.06 117.692C183.991 117.637 183.939 117.56 183.913 117.472C183.888 117.383 183.889 117.288 183.916 117.201C183.944 117.113 183.997 117.037 184.067 116.984C190.058 112.486 192.753 102.815 192.78 102.719C192.81 102.608 192.88 102.515 192.973 102.459C193.067 102.404 193.178 102.391 193.28 102.423C193.383 102.455 193.469 102.53 193.521 102.632C193.572 102.733 193.584 102.852 193.554 102.963C193.442 103.371 190.754 113.026 184.53 117.698C184.462 117.749 184.381 117.776 184.298 117.776Z" fill="#43437A"/>
</svg>
