<svg width="222" height="222" viewBox="0 0 222 222" fill="none" xmlns="http://www.w3.org/2000/svg">
<g clip-path="url(#clip0_7277_2685)">
<path d="M202.548 87.785L136.153 87.1918C128.52 87.1236 122.263 93.2698 122.179 100.92L121.665 147.328C121.581 154.978 127.7 161.234 135.333 161.303L201.728 161.896C209.361 161.964 215.618 155.818 215.703 148.168L216.216 101.76C216.3 94.11 210.181 87.8532 202.548 87.785Z" fill="#4BD657"/>
<path d="M201.724 162.299L135.331 161.706C131.558 161.673 127.955 160.139 125.315 157.442C122.675 154.745 121.213 151.106 121.252 147.324L121.765 100.916C121.807 97.1318 123.347 93.5159 126.047 90.8639C128.746 88.2118 132.384 86.7409 136.16 86.7747L202.552 87.3678C206.328 87.4016 209.933 88.9372 212.573 91.6369C215.214 94.3367 216.674 97.9794 216.632 101.764L216.119 148.172C216.073 151.954 214.532 155.566 211.832 158.215C209.133 160.864 205.497 162.333 201.724 162.299V162.299ZM136.151 87.5958C132.589 87.564 129.157 88.9516 126.61 91.4535C124.063 93.9554 122.61 97.3667 122.571 100.937L122.057 147.345C122.022 150.912 123.4 154.346 125.891 156.89C128.382 159.434 131.78 160.88 135.34 160.912L201.732 161.505C205.292 161.537 208.722 160.151 211.269 157.652C213.815 155.153 215.27 151.746 215.313 148.178L215.826 101.756C215.866 98.1864 214.488 94.7499 211.997 92.2029C209.506 89.656 206.106 88.2073 202.543 88.1755L136.151 87.5958Z" fill="black"/>
<path d="M188.899 105.418C188.899 105.418 183.822 108.758 181.29 113.636C177.997 119.974 182.712 127.511 189.837 127.244L196.106 127.3C201.889 127.351 206.153 121.792 204.51 116.236C203.591 113.133 201.087 110.118 197.031 106.015C197.031 106.015 200.481 102.924 200.656 99.0342C200.656 99.0342 197.33 96.9834 194.902 98.4741C192.474 99.9649 186.129 95.8499 185.25 97.1257C185.237 97.1283 190.765 102.016 188.899 105.418Z" fill="white"/>
<path d="M185.906 96.8786C187.466 96.8925 191.048 98.7841 193.454 98.8056C193.955 98.8321 194.454 98.7182 194.894 98.4767C195.528 98.0999 196.254 97.9114 196.989 97.933C198.885 97.9499 200.648 99.0422 200.648 99.0422C200.473 102.932 197.023 106.023 197.023 106.023C201.079 110.126 203.583 113.141 204.502 116.244C206.143 121.797 201.882 127.36 196.098 127.308L189.828 127.252C189.675 127.251 189.525 127.249 189.375 127.248C182.509 127.187 178.05 119.835 181.281 113.633C183.822 108.755 188.891 105.415 188.891 105.415C190.763 102.014 185.223 97.1254 185.223 97.1254C185.306 97.0315 185.409 96.9594 185.526 96.9158C185.643 96.8722 185.769 96.8585 185.892 96.8758L185.906 96.8786ZM185.901 96.0685C185.141 96.0617 184.753 96.3892 184.552 96.6646C184.435 96.8283 184.384 97.0294 184.408 97.2286C184.431 97.4278 184.528 97.611 184.68 97.7423C186.052 98.9548 189.293 102.55 188.25 104.876C187.287 105.543 182.906 108.736 180.541 113.271C179.741 114.805 179.345 116.517 179.392 118.245C179.439 119.973 179.927 121.659 180.809 123.143C181.692 124.627 182.939 125.858 184.433 126.72C185.927 127.582 187.616 128.045 189.341 128.066C189.497 128.067 189.656 128.069 189.811 128.07L196.065 128.126C197.55 128.145 199.02 127.812 200.353 127.153C201.687 126.493 202.846 125.527 203.736 124.332C204.626 123.165 205.227 121.803 205.49 120.359C205.753 118.915 205.67 117.429 205.248 116.025C204.314 112.865 201.826 109.826 198.135 106.036C199.192 104.901 201.286 102.269 201.434 99.0869C201.441 98.9433 201.409 98.8007 201.342 98.6737C201.275 98.5468 201.175 98.4402 201.053 98.3649C200.973 98.3158 199.074 97.1604 196.98 97.1417C196.093 97.118 195.218 97.3473 194.456 97.8027C194.144 97.964 193.794 98.0372 193.444 98.0143C192.241 98.0036 190.604 97.4507 189.159 96.9372C187.851 96.4842 186.722 96.0947 185.895 96.0873L185.901 96.0685Z" fill="black"/>
<path d="M193.344 106.521C193.281 106.52 193.22 106.505 193.164 106.477C193.109 106.448 193.06 106.407 193.023 106.356C192.986 106.306 192.961 106.248 192.951 106.186C192.94 106.124 192.945 106.061 192.963 106.001C193.606 103.855 191.131 101.537 191.101 101.516C191.029 101.442 190.988 101.343 190.987 101.24C190.985 101.137 191.023 101.037 191.093 100.961C191.162 100.885 191.258 100.838 191.361 100.831C191.464 100.823 191.565 100.855 191.645 100.921C191.762 101.029 194.519 103.621 193.736 106.231C193.711 106.316 193.659 106.39 193.589 106.442C193.518 106.494 193.432 106.522 193.344 106.521V106.521Z" fill="#1D1D1B"/>
<path d="M194.881 106.585C194.781 106.582 194.686 106.541 194.614 106.47C194.54 106.394 194.499 106.291 194.5 106.184C194.501 106.077 194.544 105.975 194.62 105.9C195.833 104.66 195.558 101.791 195.555 101.761C195.55 101.708 195.555 101.654 195.571 101.603C195.586 101.552 195.612 101.505 195.645 101.464C195.679 101.422 195.72 101.388 195.767 101.363C195.814 101.338 195.865 101.322 195.918 101.317C195.971 101.311 196.025 101.316 196.076 101.332C196.127 101.347 196.174 101.372 196.215 101.406C196.256 101.44 196.29 101.481 196.315 101.528C196.34 101.575 196.356 101.627 196.361 101.68C196.373 101.812 196.678 104.953 195.202 106.465C195.161 106.507 195.111 106.54 195.055 106.561C195 106.582 194.94 106.59 194.881 106.585V106.585Z" fill="#1D1D1B"/>
<path d="M196.126 113.424C195.417 113.441 194.743 113.739 194.251 114.252C193.76 114.765 193.49 115.452 193.501 116.163L193.5 116.254C193.471 115.553 193.169 114.892 192.66 114.411C192.151 113.93 191.475 113.668 190.775 113.68C189.297 113.71 187.999 114.945 188.149 116.419C188.428 119.138 191.8 121.518 193.107 122.346C193.257 122.441 193.433 122.486 193.61 122.476C193.788 122.466 193.958 122.401 194.096 122.29C195.389 121.252 198.896 118.238 198.853 116.052C198.838 115.341 198.543 114.665 198.032 114.173C197.521 113.681 196.836 113.411 196.126 113.424Z" fill="#07ACEE"/>
<path d="M193.548 122.883C193.316 122.881 193.089 122.813 192.894 122.688C191.443 121.773 188.042 119.331 187.749 116.45C187.712 116.07 187.754 115.685 187.875 115.322C187.995 114.958 188.19 114.624 188.446 114.341C188.739 114.011 189.096 113.745 189.496 113.56C189.896 113.375 190.329 113.275 190.769 113.266C190.73 113.667 190.839 114.068 191.076 114.394C191.312 114.719 191.66 114.946 192.053 115.031C192.446 115.117 192.857 115.055 193.208 114.857C193.559 114.66 193.826 114.34 193.958 113.959C194.238 113.666 194.573 113.431 194.943 113.268C195.314 113.105 195.713 113.017 196.117 113.009V113.009C196.934 112.993 197.722 113.302 198.31 113.869C198.898 114.435 199.238 115.213 199.254 116.031C199.298 118.365 195.837 121.385 194.346 122.594C194.121 122.779 193.839 122.881 193.548 122.883ZM190.851 114.082L190.784 114.081C190.457 114.089 190.134 114.163 189.836 114.3C189.538 114.436 189.271 114.631 189.05 114.874C188.868 115.074 188.73 115.311 188.644 115.567C188.558 115.824 188.526 116.096 188.55 116.366C188.815 118.956 192.273 121.329 193.324 121.995C193.403 122.044 193.496 122.068 193.589 122.062C193.682 122.057 193.772 122.023 193.845 121.965C194.929 121.089 198.49 118.081 198.45 116.048C198.439 115.444 198.189 114.87 197.755 114.451C197.32 114.033 196.738 113.805 196.135 113.817V113.817C195.532 113.83 194.958 114.082 194.54 114.519C194.121 114.955 193.893 115.54 193.904 116.145L193.903 116.236L193.097 116.259C193.07 115.677 192.822 115.128 192.405 114.724C191.988 114.319 191.432 114.09 190.851 114.082V114.082Z" fill="#1D1D1B"/>
<path d="M194.767 106.97C191.842 106.943 188.298 105.733 188.1 105.667C187.998 105.632 187.915 105.558 187.868 105.462C187.822 105.365 187.815 105.254 187.85 105.152C187.885 105.05 187.959 104.967 188.055 104.92C188.151 104.872 188.262 104.866 188.363 104.9C188.425 104.923 194.525 106.997 196.976 105.79C197.072 105.743 197.184 105.736 197.285 105.771C197.386 105.806 197.469 105.88 197.516 105.977C197.562 106.073 197.569 106.185 197.534 106.286C197.499 106.388 197.425 106.472 197.329 106.519C196.519 106.859 195.643 107.013 194.767 106.97V106.97Z" fill="black"/>
<path d="M188.209 135.985C188.102 135.984 188 135.94 187.925 135.863C187.85 135.785 187.809 135.681 187.81 135.573C187.811 135.465 187.855 135.362 187.931 135.286C188.008 135.21 188.111 135.169 188.217 135.17L207.16 134.999C207.213 134.998 207.265 135.007 207.314 135.027C207.364 135.047 207.409 135.077 207.447 135.114C207.485 135.152 207.515 135.196 207.535 135.246C207.556 135.295 207.566 135.348 207.567 135.402C207.567 135.51 207.525 135.614 207.45 135.691C207.376 135.768 207.274 135.812 207.167 135.814L188.225 135.982L188.209 135.985Z" fill="black"/>
<path d="M207.038 147.172L191.595 147.027C191.488 147.026 191.386 146.982 191.311 146.905C191.236 146.828 191.194 146.723 191.196 146.615C191.197 146.507 191.24 146.404 191.317 146.328C191.393 146.252 191.496 146.21 191.603 146.211L207.047 146.355C207.154 146.356 207.256 146.4 207.331 146.478C207.405 146.555 207.447 146.659 207.446 146.767C207.444 146.875 207.401 146.979 207.324 147.055C207.248 147.131 207.145 147.173 207.038 147.172V147.172Z" fill="black"/>
<path d="M220.215 139.739C220.11 139.738 220.01 139.694 219.937 139.618C219.864 139.542 219.824 139.439 219.825 139.332L220.197 103.781C220.198 103.674 220.24 103.572 220.315 103.497C220.39 103.422 220.49 103.381 220.595 103.382C220.699 103.383 220.799 103.426 220.872 103.502C220.945 103.579 220.986 103.682 220.985 103.789L220.613 139.339C220.612 139.446 220.569 139.548 220.494 139.623C220.42 139.698 220.319 139.74 220.215 139.739Z" fill="black"/>
<path d="M201.765 91.1566L169.421 90.8533C169.243 90.8516 169.073 90.7782 168.948 90.6492C168.823 90.5201 168.754 90.346 168.756 90.1652C168.758 89.9844 168.831 89.8117 168.958 89.685C169.086 89.5583 169.257 89.488 169.435 89.4897L201.779 89.793C201.958 89.7947 202.128 89.8682 202.253 89.9972C202.378 90.1263 202.446 90.3003 202.444 90.4811C202.443 90.662 202.37 90.8347 202.243 90.9614C202.115 91.0881 201.943 91.1583 201.765 91.1566Z" fill="white"/>
<path d="M53.1397 126.968L39.5964 88.0794C38.8694 85.9917 38.5768 83.7756 38.7369 81.5677C38.897 79.3597 39.5063 77.2068 40.5271 75.2415V75.2415C42.4595 71.5203 45.752 68.6903 49.7137 67.3455L92.3995 52.8619C92.7153 52.7529 93.0493 52.708 93.3822 52.7298C93.715 52.7516 94.0401 52.8397 94.3383 52.9889C94.6365 53.138 94.9018 53.3454 95.119 53.5988C95.3361 53.8521 95.5007 54.1464 95.6031 54.4646L121.722 134.951C121.855 135.36 121.881 135.796 121.798 136.218C121.716 136.641 121.526 137.035 121.248 137.364C120.97 137.693 120.613 137.945 120.211 138.097C119.809 138.249 119.376 138.295 118.951 138.231L55.1452 128.617C54.6925 128.552 54.2665 128.364 53.9131 128.073C53.5597 127.782 53.2923 127.4 53.1397 126.968V126.968Z" fill="white"/>
<path d="M93.228 52.7369C93.754 52.7414 94.2647 52.9113 94.6884 53.2226C95.1121 53.534 95.4274 53.9711 95.5897 54.4723L121.709 134.958C121.832 135.338 121.863 135.742 121.8 136.137C121.737 136.531 121.582 136.906 121.347 137.229C121.112 137.552 120.803 137.815 120.448 137.996C120.092 138.176 119.698 138.27 119.3 138.268C119.179 138.267 119.058 138.257 118.938 138.238L55.1319 128.622C54.6806 128.555 54.2566 128.365 53.9056 128.074C53.5545 127.782 53.2897 127.4 53.1398 126.968L39.5964 88.0792C38.8919 86.0563 38.5952 83.9121 38.7233 81.7709C38.8515 79.6298 39.4021 77.5343 40.3432 75.6057C41.2842 73.6771 42.597 71.954 44.2056 70.536C45.8141 69.1181 47.6863 68.0335 49.7138 67.3453L92.3996 52.8616C92.6667 52.7718 92.9467 52.7269 93.2281 52.7288L93.228 52.7369ZM93.2373 51.9211C92.8662 51.9176 92.4968 51.9773 92.1451 52.0975L49.4595 66.5812C47.3308 67.3032 45.3648 68.4414 43.6758 69.9298C41.9868 71.4182 40.6083 73.2272 39.6201 75.2519C38.632 77.2765 38.0538 79.4766 37.9192 81.7245C37.7846 83.9724 38.0963 86.2235 38.8361 88.3473L52.3797 127.236C52.5796 127.805 52.9299 128.307 53.3933 128.691C53.8566 129.074 54.4154 129.324 55.0101 129.413L118.816 139.04C118.973 139.065 119.132 139.078 119.291 139.079C119.816 139.081 120.335 138.958 120.804 138.72C121.274 138.482 121.681 138.136 121.991 137.71C122.306 137.285 122.514 136.79 122.597 136.267C122.681 135.745 122.638 135.211 122.471 134.709L96.355 54.2231C96.1405 53.561 95.7239 52.9837 95.1641 52.5726C94.6042 52.1615 93.9294 51.9374 93.2346 51.9319L93.2373 51.9211Z" fill="black"/>
<path d="M41.9637 78.624L81.3493 123.659L73.3008 126.559L39.1489 90.7722L41.9637 78.624Z" fill="#EBEBEB"/>
<path d="M39.3224 74.9783C38.3036 76.9423 37.6959 79.0938 37.5366 81.3002C37.3772 83.5067 37.6699 85.7212 38.3962 87.8072L40.257 93.1561C41.3537 88.4166 49.1298 87.1977 49.1298 87.1977C41.8688 77.8066 45.1992 70.3958 46.8753 67.7412C43.6318 69.2507 40.9755 71.7959 39.3224 74.9783V74.9783Z" fill="#07ACEE"/>
<path d="M44.9383 69.7801C43.4843 73.4079 42.6381 79.4464 47.7368 86.6664C45.7907 87.1527 42.1368 88.3723 40.354 90.9856L39.1549 87.5393C38.0469 84.3578 38.0127 80.8958 39.0578 77.6866C40.1028 74.4775 42.1691 71.6993 44.9383 69.7801V69.7801ZM46.8752 67.7412C43.2318 69.4353 40.3444 72.4298 38.7765 76.1401C37.2086 79.8505 37.0731 84.0102 38.3962 87.8072L40.2569 93.1561C41.3537 88.4166 49.1298 87.1977 49.1298 87.1977C41.8687 77.8066 45.1992 70.3958 46.8752 67.7412V67.7412Z" fill="black"/>
<path d="M37.5148 178.647L9.6873 148.375C8.1936 146.75 7.04832 144.834 6.32215 142.746C5.59598 140.658 5.30422 138.441 5.46483 136.233V136.233C5.77023 132.051 7.67937 128.146 10.7913 125.337L44.3085 95.0775C44.5559 94.8545 44.8449 94.6827 45.1585 94.572C45.4721 94.4613 45.8041 94.4139 46.1357 94.4325C46.4673 94.4511 46.7918 94.5354 47.0903 94.6805C47.3889 94.8256 47.6556 95.0287 47.8753 95.2779L103.718 158.71C104.001 159.032 104.198 159.421 104.289 159.842C104.38 160.262 104.362 160.699 104.236 161.111C104.111 161.523 103.883 161.897 103.573 162.196C103.263 162.495 102.883 162.709 102.467 162.819L40.0013 179.374C39.5595 179.491 39.0945 179.485 38.6564 179.357C38.2183 179.229 37.8237 178.983 37.5148 178.647Z" fill="white"/>
<path d="M46.016 94.4246C46.3702 94.4254 46.72 94.5014 47.0423 94.6476C47.3646 94.7938 47.6522 95.0069 47.8862 95.2729L103.728 158.704C104.012 159.026 104.209 159.416 104.3 159.837C104.39 160.257 104.372 160.694 104.247 161.106C104.122 161.518 103.893 161.891 103.584 162.19C103.274 162.489 102.893 162.704 102.478 162.814L40.0123 179.369C39.7958 179.428 39.572 179.457 39.3478 179.454C39.0047 179.451 38.6662 179.377 38.3529 179.238C38.0395 179.099 37.7581 178.897 37.5257 178.644L9.68751 148.376C8.23934 146.801 7.11801 144.952 6.38889 142.938C5.65978 140.923 5.33726 138.782 5.43996 136.639C5.54266 134.496 6.06856 132.393 6.98719 130.453C7.90582 128.513 9.19898 126.774 10.7915 125.337L44.3086 95.0777C44.7771 94.6549 45.3866 94.4236 46.016 94.43L46.016 94.4246ZM46.0252 93.6221C45.1939 93.614 44.3893 93.9194 43.7705 94.4779L10.2531 124.737C8.58182 126.246 7.22496 128.072 6.261 130.109C5.29704 132.146 4.74526 134.353 4.6376 136.603C4.52994 138.853 4.86854 141.101 5.63382 143.216C6.3991 145.331 7.57565 147.272 9.09561 148.925L36.923 179.197C37.2295 179.53 37.601 179.797 38.0145 179.981C38.428 180.166 38.8748 180.263 39.3277 180.268C39.6244 180.27 39.9202 180.232 40.2073 180.157L102.67 163.602C103.219 163.456 103.721 163.173 104.13 162.778C104.539 162.383 104.841 161.89 105.006 161.346C105.172 160.802 105.196 160.224 105.076 159.669C104.956 159.114 104.697 158.599 104.322 158.173L48.4805 94.7421C48.1723 94.3937 47.7947 94.1141 47.3719 93.9212C46.949 93.7284 46.4902 93.6264 46.0252 93.6221V93.6221Z" fill="black"/>
<path d="M4.28751 136.4C4.12715 138.606 4.41849 140.821 5.14362 142.907C5.86874 144.994 7.01236 146.908 8.5039 148.532L12.3284 152.696C11.4633 147.912 18.1322 143.699 18.1322 143.699C7.7393 137.98 7.88052 129.857 8.3745 126.756C5.98758 129.431 4.55019 132.823 4.28751 136.4V136.4Z" fill="#07ACEE"/>
<path d="M7.38692 129.398C7.48447 133.301 9.08795 139.175 16.6324 143.769C15.0364 144.988 12.1591 147.56 11.5497 150.668L9.08396 147.983C6.80897 145.507 5.41046 142.346 5.10381 138.989C4.79716 135.631 5.59935 132.262 7.38689 129.401L7.38692 129.398ZM8.36375 126.759C5.68229 129.762 4.20966 133.657 4.23358 137.684C4.2575 141.71 5.77629 145.579 8.49315 148.535L12.3177 152.698C11.4525 147.914 18.1215 143.701 18.1215 143.701C7.72855 137.982 7.86978 129.86 8.36375 126.759Z" fill="black"/>
<path d="M27.0963 139.129L22.177 143.307C20.9483 144.35 20.7956 146.19 21.8359 147.415L26.001 152.322C27.0413 153.547 28.8807 153.695 30.1093 152.651L35.0287 148.473C36.2574 147.429 36.41 145.59 35.3697 144.364L31.2046 139.458C30.1643 138.233 28.325 138.085 27.0963 139.129Z" fill="#07ACEE"/>
<path d="M28.2249 153.879C28.1443 153.878 28.0637 153.878 27.9831 153.877C27.5496 153.842 27.1276 153.722 26.7409 153.524C26.3543 153.325 26.0109 153.051 25.7305 152.719L21.5712 147.806C21.0048 147.135 20.7276 146.264 20.8005 145.386C20.8735 144.508 21.2906 143.694 21.9604 143.122L26.8708 138.937C27.2029 138.654 27.587 138.439 28.0015 138.305C28.416 138.171 28.8528 138.12 29.2865 138.155C29.7201 138.19 30.1423 138.31 30.5292 138.509C30.916 138.708 31.2597 138.981 31.5407 139.314L35.7081 144.218C35.9898 144.55 36.2032 144.935 36.3363 145.35C36.4693 145.765 36.5192 146.203 36.4833 146.638C36.4474 147.073 36.3265 147.497 36.1271 147.885C35.9278 148.274 35.654 148.62 35.3216 148.902L30.4115 153.085C29.8028 153.608 29.0251 153.89 28.2249 153.879V153.879ZM29.0372 138.945C28.4354 138.939 27.8514 139.153 27.3927 139.545L22.4797 143.727C21.9731 144.16 21.6579 144.777 21.603 145.442C21.5481 146.106 21.7578 146.765 22.1867 147.273L26.3433 152.185C26.5557 152.437 26.8159 152.645 27.1087 152.796C27.4016 152.946 27.7212 153.038 28.0496 153.064C28.378 153.091 28.7087 153.052 29.0226 152.951C29.3365 152.849 29.6273 152.686 29.8787 152.472L34.789 148.287C35.0418 148.074 35.2505 147.814 35.4029 147.52C35.5554 147.227 35.6485 146.906 35.6772 146.577C35.7059 146.248 35.6695 145.916 35.5701 145.602C35.4707 145.287 35.3103 144.995 35.098 144.743L30.9388 139.828C30.7266 139.576 30.4666 139.369 30.1739 139.219C29.8811 139.068 29.5615 138.978 29.2333 138.952L29.0372 138.945Z" fill="black"/>
<path d="M43.6088 106.867L17.7419 128.836C16.5292 129.866 16.3784 131.682 17.4052 132.891L17.4069 132.893C18.4336 134.103 20.249 134.248 21.4616 133.218L47.3285 111.249C48.5412 110.219 48.6919 108.404 47.6652 107.194L47.6635 107.192C46.6368 105.983 44.8214 105.837 43.6088 106.867Z" fill="#07ACEE"/>
<path d="M19.6032 134.457C18.9346 134.452 18.2839 134.242 17.739 133.855C17.194 133.468 16.7805 132.923 16.5539 132.292C16.3274 131.662 16.2987 130.977 16.4715 130.329C16.6443 129.681 17.0107 129.1 17.5211 128.666L43.3751 106.642C44.0394 106.077 44.899 105.799 45.7656 105.869C46.6322 105.938 47.4348 106.35 47.9976 107.013C48.5593 107.677 48.8345 108.539 48.7627 109.408C48.6908 110.278 48.2779 111.084 47.6144 111.65L21.7575 133.676C21.1559 134.188 20.391 134.465 19.6032 134.457V134.457ZM45.523 106.674C44.9308 106.67 44.3564 106.88 43.905 107.266L18.0482 129.29C17.789 129.497 17.5739 129.755 17.4156 130.047C17.2574 130.34 17.1592 130.661 17.1269 130.992C17.0945 131.322 17.1287 131.656 17.2273 131.973C17.326 132.29 17.4869 132.584 17.701 132.837C17.9151 133.09 18.178 133.297 18.4737 133.446C18.7694 133.595 19.0921 133.683 19.4227 133.705C19.7533 133.726 20.0849 133.681 20.3982 133.572C20.7114 133.463 20.9999 133.291 21.2463 133.068L47.1002 111.045C47.4854 110.718 47.762 110.281 47.8931 109.792C48.0242 109.304 48.0036 108.787 47.8338 108.312C47.6639 107.836 47.3532 107.425 46.943 107.132C46.5329 106.839 46.043 106.679 45.539 106.674L45.523 106.674Z" fill="black"/>
<path d="M38.0043 138.287C37.9469 138.287 37.8901 138.275 37.838 138.251C37.7859 138.226 37.7397 138.191 37.7025 138.147C37.6678 138.107 37.6414 138.06 37.6249 138.01C37.6084 137.959 37.6024 137.906 37.6068 137.853C37.6111 137.799 37.626 137.748 37.6505 137.7C37.675 137.653 37.7084 137.611 37.7492 137.577L58.8312 119.618C58.8715 119.583 58.9182 119.556 58.9688 119.539C59.0193 119.522 59.0725 119.516 59.1255 119.519C59.1786 119.523 59.2304 119.537 59.278 119.561C59.3255 119.585 59.3679 119.618 59.4027 119.658C59.4375 119.698 59.4641 119.745 59.4809 119.796C59.4976 119.846 59.5042 119.9 59.5003 119.953C59.4965 120.006 59.4823 120.058 59.4585 120.106C59.4346 120.154 59.4015 120.196 59.3613 120.231L38.2766 138.193C38.2005 138.257 38.1035 138.29 38.0043 138.287V138.287Z" fill="black"/>
<path d="M50.2992 152.769C50.2415 152.768 50.1846 152.755 50.1325 152.73C50.0804 152.706 50.0344 152.67 49.9974 152.626C49.963 152.586 49.937 152.539 49.9208 152.488C49.9045 152.438 49.8983 152.384 49.9026 152.331C49.907 152.278 49.9218 152.227 49.9461 152.179C49.9704 152.132 50.0038 152.09 50.0443 152.056L71.1289 134.097C71.2106 134.026 71.3166 133.991 71.4241 133.998C71.5315 134.006 71.6315 134.056 71.7017 134.138C71.772 134.22 71.8071 134.326 71.7991 134.434C71.791 134.542 71.7406 134.642 71.659 134.713L50.5743 152.671C50.4984 152.738 50.3998 152.773 50.2992 152.769Z" fill="black"/>
<path d="M86.8816 64.2353L54.6243 74.7784C53.112 75.2727 52.2843 76.8951 52.7754 78.4023L52.7763 78.4048C53.2675 79.912 54.8915 80.733 56.4038 80.2388L88.6612 69.6956C90.1734 69.2014 91.0012 67.5789 90.51 66.0718L90.5092 66.0692C90.018 64.5621 88.3939 63.741 86.8816 64.2353Z" fill="#07ACEE"/>
<path d="M55.489 80.745C54.7118 80.7362 53.9635 80.4511 53.3776 79.9402C52.7916 79.4293 52.4059 78.7259 52.2889 77.955C52.172 77.1842 52.3314 76.3959 52.7389 75.7305C53.1464 75.065 53.7755 74.5655 54.5142 74.3209L86.7574 63.7203C87.5851 63.4482 88.4857 63.5168 89.261 63.9111C90.0364 64.3055 90.6228 64.9933 90.8916 65.8232C91.1605 66.653 91.0896 67.557 90.6945 68.3362C90.2993 69.1155 89.6122 69.7061 88.7845 69.9783L56.5442 80.5816C56.2033 80.6927 55.847 80.7478 55.489 80.745V80.745ZM87.8008 64.3631C87.5311 64.3606 87.2627 64.4029 87.0066 64.4884L54.7634 75.0889C54.1389 75.2945 53.6208 75.7405 53.3228 76.3286C53.0248 76.9167 52.9713 77.5989 53.1744 78.225C53.3774 78.8512 53.8205 79.3701 54.4057 79.6675C54.9909 79.9648 55.6705 80.0164 56.295 79.8108L88.5353 69.2103C89.1028 69.0334 89.589 68.6581 89.9049 68.1526C90.2207 67.6472 90.3454 67.0452 90.2564 66.4563C90.1675 65.8673 89.8705 65.3306 89.4198 64.944C88.9691 64.5573 88.3947 64.3464 87.8009 64.3496L87.8008 64.3631Z" fill="black"/>
<path d="M57.5693 95.0965C57.4854 95.0959 57.4037 95.0694 57.3355 95.0205C57.2673 94.9716 57.2157 94.9027 57.1879 94.8233C57.1716 94.7727 57.1657 94.7193 57.17 94.6662C57.1743 94.6131 57.1889 94.5614 57.2132 94.514C57.2374 94.4665 57.2707 94.4243 57.3112 94.3898C57.3517 94.3553 57.3985 94.3291 57.4491 94.3128L96.1528 81.5764C96.2544 81.5415 96.3655 81.5485 96.4617 81.5959C96.5579 81.6433 96.6314 81.7272 96.6659 81.8291C96.7003 81.9311 96.693 82.0427 96.6455 82.1395C96.5981 82.2363 96.5144 82.3102 96.4127 82.3451L57.7064 95.0816C57.6618 95.0942 57.6155 95.0992 57.5693 95.0965V95.0965Z" fill="black"/>
<path d="M59.8992 101.444C59.8038 101.443 59.7119 101.408 59.6399 101.345C59.568 101.282 59.5206 101.196 59.5062 101.101C59.4918 101.006 59.5113 100.91 59.5613 100.828C59.6113 100.746 59.6886 100.685 59.7793 100.654L98.1347 88.0311C98.2363 87.9962 98.3475 88.0032 98.4437 88.0506C98.5399 88.098 98.6134 88.1819 98.6478 88.2839C98.6823 88.3858 98.675 88.4975 98.6275 88.5942C98.58 88.691 98.4963 88.765 98.3947 88.7999L60.0393 101.423C59.9941 101.438 59.9466 101.445 59.8992 101.444V101.444Z" fill="black"/>
<path d="M82.8313 103.003C82.7358 103.002 82.644 102.967 82.572 102.904C82.5001 102.841 82.4525 102.755 82.4381 102.66C82.4237 102.566 82.4432 102.469 82.4932 102.387C82.5431 102.305 82.6205 102.244 82.7111 102.214L102.482 95.7084C102.532 95.6911 102.585 95.6839 102.638 95.6873C102.691 95.6906 102.743 95.7044 102.791 95.7279C102.839 95.7513 102.881 95.784 102.916 95.824C102.951 95.864 102.978 95.9106 102.995 95.9611C103.012 96.0116 103.019 96.065 103.016 96.1182C103.012 96.1715 102.998 96.2235 102.975 96.2714C102.951 96.3193 102.919 96.3621 102.879 96.3974C102.839 96.4327 102.792 96.4597 102.742 96.477L82.9737 102.983C82.9279 102.999 82.8797 103.006 82.8313 103.003V103.003Z" fill="black"/>
<path d="M29.8035 148.834C29.7616 148.834 29.72 148.827 29.6802 148.814L25.0097 147.257C24.9144 147.219 24.8374 147.146 24.7943 147.053C24.7512 146.959 24.7453 146.853 24.7779 146.755C24.8106 146.657 24.8792 146.576 24.9698 146.527C25.0603 146.478 25.166 146.466 25.2651 146.493L29.3312 147.845L28.5712 141.791C28.5586 141.685 28.5884 141.578 28.6542 141.493C28.72 141.409 28.8165 141.354 28.9225 141.34C28.975 141.333 29.0283 141.336 29.0795 141.35C29.1306 141.364 29.1784 141.387 29.2203 141.42C29.2621 141.452 29.2972 141.493 29.3233 141.539C29.3494 141.585 29.3659 141.636 29.3723 141.688L30.2086 148.38C30.217 148.448 30.2082 148.516 30.1831 148.58C30.1579 148.643 30.1173 148.699 30.0648 148.742C29.991 148.802 29.8986 148.835 29.8035 148.834V148.834Z" fill="black"/>
<path d="M37.239 161.506L41.6835 161.923L41.2108 155.869" fill="#4BD657"/>
<path d="M41.679 162.327L41.6468 162.327L37.1992 161.912C37.0926 161.902 36.9945 161.849 36.9265 161.766C36.8585 161.684 36.8261 161.577 36.8366 161.47C36.847 161.363 36.8995 161.264 36.9823 161.196C37.0651 161.127 37.1715 161.095 37.2782 161.105L41.2461 161.476L40.8105 155.9C40.8064 155.847 40.8127 155.794 40.8291 155.743C40.8455 155.692 40.8717 155.645 40.9062 155.605C40.9758 155.523 41.0751 155.472 41.1819 155.463C41.2888 155.454 41.3945 155.489 41.4759 155.558C41.5574 155.628 41.608 155.727 41.6164 155.834L42.0839 161.889C42.0881 161.945 42.0808 162.002 42.0621 162.055C42.0435 162.108 42.0139 162.157 41.9756 162.198C41.9373 162.239 41.891 162.272 41.8395 162.294C41.788 162.316 41.7324 162.328 41.6764 162.327L41.679 162.327Z" fill="black"/>
<path d="M7.06201 151.313C6.96235 151.311 6.86705 151.272 6.79505 151.203C0.11957 144.837 0.0696778 137.726 1.20463 132.879C1.98075 129.632 3.36856 126.563 5.29345 123.837C5.358 123.752 5.45356 123.696 5.55931 123.681C5.66507 123.666 5.77224 123.694 5.85724 123.759C5.94224 123.824 5.9981 123.92 6.01255 124.026C6.02701 124.132 5.99903 124.239 5.93448 124.325C4.08249 126.973 2.74182 129.945 1.98244 133.088C0.411692 139.826 2.21753 145.73 7.34827 150.619C7.38662 150.655 7.41755 150.699 7.43907 150.747C7.4606 150.796 7.4724 150.848 7.47383 150.901C7.47526 150.954 7.46619 151.006 7.4473 151.056C7.42841 151.105 7.39999 151.151 7.36366 151.189C7.32443 151.229 7.2776 151.261 7.22572 151.282C7.17385 151.304 7.118 151.314 7.06201 151.313Z" fill="black"/>
<path d="M67.7637 56.6359C67.6673 56.6355 67.5742 56.6004 67.5014 56.5371C67.4287 56.4738 67.381 56.3864 67.367 56.2908C67.3531 56.1952 67.3737 56.0977 67.4253 56.016C67.477 55.9343 67.5562 55.8738 67.6485 55.8455L87.2343 49.6039C87.335 49.5762 87.4424 49.5886 87.534 49.6386C87.6256 49.6885 87.6942 49.7721 87.7255 49.8718C87.7568 49.9715 87.7483 50.0795 87.7018 50.1732C87.6553 50.2668 87.5743 50.3388 87.476 50.3741L67.8902 56.6156C67.8497 56.6304 67.8068 56.6372 67.7637 56.6359V56.6359Z" fill="black"/>
<path d="M161.794 184.811C161.794 184.811 177.029 196.312 188.472 191.901C199.915 187.49 168.977 167.357 161.794 184.811Z" fill="#07ACEE"/>
<path d="M182.501 193.321C172.413 193.231 162.074 185.527 161.552 185.135L161.301 184.947L161.423 184.657C163.673 179.186 168.533 176.675 175.099 177.583C182.66 178.631 190.882 184.166 191.371 188.553C191.503 189.718 191.133 191.307 188.621 192.276C186.664 193.009 184.588 193.363 182.501 193.321V193.321ZM162.291 184.672C164.317 186.124 178.026 195.496 188.328 191.522C189.947 190.895 190.711 189.927 190.566 188.646C190.155 185.016 182.737 179.456 174.988 178.385C171.454 177.898 165.18 178.081 162.291 184.672Z" fill="#1D1D1B"/>
<path d="M106.286 96.2171C106.286 96.2171 104.563 106.212 97.6618 103.425C90.7604 100.638 76.0739 94.5387 70.9071 104.726C65.7404 114.913 66.6346 117.146 58.6892 116.197C50.7437 115.248 35.0111 127.466 50.6614 143.594C66.3116 159.722 119.154 107.861 119.154 107.861L118.686 101.593L106.286 96.2171Z" fill="#382256"/>
<path d="M58.6241 147.101L58.584 147.101C55.1719 147.07 52.4164 145.969 50.3654 143.869C41.6437 134.882 43.2221 127.725 44.9397 124.258C47.7705 118.542 54.3574 115.264 58.7365 115.794C64.9081 116.538 65.4092 115.46 68.1837 109.477C68.8389 108.063 69.5821 106.462 70.5517 104.554C75.8228 94.1628 90.4974 100.1 97.5512 102.953L97.8187 103.06C99.3782 103.691 100.767 103.671 101.976 103.001C104.95 101.336 105.885 96.2088 105.894 96.1577L105.98 95.6521L119.083 101.328L119.584 108.024L119.451 108.158C112.274 115.049 104.752 121.568 96.9121 127.69C80.1961 140.64 67.3207 147.179 58.6241 147.101ZM57.8227 116.545C53.7525 116.509 48.1677 119.553 45.6613 124.617C42.8608 130.272 44.7353 136.908 50.9439 143.306C52.8327 145.251 55.4066 146.256 58.5929 146.293L58.6304 146.293C78.3879 146.47 116.177 110.183 118.738 107.712L118.3 101.875L106.58 96.794C106.258 98.2022 105.131 102.167 102.363 103.707C100.941 104.502 99.3096 104.536 97.5254 103.809L97.2579 103.702C90.4288 100.948 76.2143 95.1896 71.2811 104.918C70.317 106.816 69.5794 108.404 68.927 109.815C66.1498 115.801 65.4038 117.412 58.6419 116.595C58.3702 116.56 58.0966 116.541 57.8228 116.537L57.8227 116.545Z" fill="#1D1E1B"/>
<path d="M131.542 109.78C196.356 131.693 161.968 161.731 166.635 221.527L63.7852 222.107C63.7852 222.107 49.6969 153.73 109.543 111.667" fill="#07ACEE"/>
<path d="M63.4585 222.514L63.3921 222.193C63.3564 222.02 59.8999 204.763 63.8301 182.589C66.1389 169.564 70.501 157.41 76.8022 146.465C84.678 132.784 95.6166 120.963 109.319 111.337L109.784 112.008C78.9959 133.646 68.2379 162.398 64.6345 182.71C61.0224 203.074 63.6798 219.253 64.1307 221.715L166.199 221.138C164.832 202.949 167.031 187.708 168.971 174.248C171.173 158.979 172.912 146.92 168.582 136.562C163.906 125.414 152.447 117.272 131.423 110.164L131.681 109.399C152.943 116.587 164.546 124.868 169.327 136.245C173.755 146.801 172.001 158.957 169.781 174.349C167.829 187.876 165.618 203.207 167.046 221.498L167.079 221.929L63.4585 222.514Z" fill="#1D1D1B"/>
<path d="M115.02 110.511C115.02 110.511 80.9158 115.163 60.6641 130.442C43.6216 143.3 39.3416 150.031 29.403 167.447C21.0939 182.009 21.5249 204.978 41.2035 208.731C60.8821 212.484 77.2583 213.72 78.3724 202.83L84.3984 201.672L84.1555 177.012L80.6287 177.074" fill="#07ACEE"/>
<path d="M62.6107 211.804C56.1284 211.747 48.4558 210.523 41.1262 209.126C34.1183 207.79 28.9489 203.884 26.1745 197.834C22.2908 189.364 23.45 177.069 29.0533 167.244C39.074 149.684 43.4078 142.956 60.4232 130.114C80.5258 114.953 114.624 110.144 114.968 110.104L115.075 110.912C114.733 110.96 80.8394 115.72 60.9072 130.767C44.0165 143.508 39.713 150.193 29.7525 167.649C24.2751 177.257 23.1273 189.253 26.906 197.498C29.5676 203.303 34.5374 207.048 41.2881 208.336C54.5455 210.877 68.8996 212.835 74.9707 208.308C76.7552 206.979 77.7393 205.171 77.9859 202.788L78.016 202.49L84.004 201.34L83.7692 177.422L80.648 177.478L80.6354 176.67L84.565 176.606L84.8212 202.01L78.7577 203.172C78.4406 205.616 77.3315 207.56 75.471 208.959C72.5765 211.094 68.0055 211.853 62.6107 211.804Z" fill="#1D1D1B"/>
<path d="M80.2282 177.451C80.2282 177.451 73.1548 186.651 77.9905 202.096L83.9024 201.161L83.6189 177.459L80.2282 177.451Z" fill="#0598C6"/>
<path d="M95.0743 128.471C96.38 128.483 97.4498 127.43 97.4639 126.12C97.4779 124.809 96.4307 123.737 95.125 123.725C93.8192 123.712 92.7494 124.765 92.7354 126.076C92.7214 127.386 93.7685 128.459 95.0743 128.471Z" fill="#51CEF4"/>
<path d="M64.5606 153.812C65.8663 153.824 66.9361 152.771 66.9502 151.461C66.9642 150.15 65.917 149.078 64.6113 149.066C63.3055 149.053 62.2357 150.106 62.2217 151.417C62.2077 152.727 63.2548 153.8 64.5606 153.812Z" fill="#51CEF4"/>
<path d="M101.209 155.053C102.515 155.065 103.585 154.013 103.599 152.702C103.613 151.391 102.566 150.319 101.26 150.307C99.9545 150.295 98.8846 151.348 98.8706 152.658C98.8566 153.969 99.9037 155.041 101.209 155.053Z" fill="#51CEF4"/>
<path d="M130.704 144.271C132.01 144.283 133.08 143.23 133.094 141.919C133.108 140.609 132.061 139.537 130.755 139.525C129.449 139.512 128.38 140.565 128.366 141.876C128.352 143.186 129.399 144.259 130.704 144.271Z" fill="#51CEF4"/>
<path d="M42.0012 196.135C43.307 196.147 44.3768 195.094 44.3908 193.784C44.4048 192.473 43.3577 191.401 42.052 191.389C40.7462 191.376 39.6764 192.429 39.6624 193.74C39.6484 195.05 40.6955 196.123 42.0012 196.135Z" fill="#51CEF4"/>
<path d="M61.9546 180.597C63.2604 180.61 64.3305 179.557 64.3445 178.246C64.3585 176.936 63.3111 175.863 62.0053 175.851C60.6996 175.839 59.6298 176.892 59.6157 178.203C59.6017 179.513 60.6489 180.585 61.9546 180.597Z" fill="#51CEF4"/>
<path d="M66.3578 204.248C67.6636 204.26 68.7337 203.207 68.7477 201.896C68.7617 200.586 67.7143 199.513 66.4085 199.501C65.1028 199.489 64.033 200.542 64.0189 201.853C64.0049 203.163 65.0521 204.235 66.3578 204.248Z" fill="#51CEF4"/>
<path d="M157.335 216.516C158.641 216.528 159.711 215.476 159.725 214.165C159.739 212.854 158.691 211.782 157.386 211.77C156.08 211.758 155.01 212.811 154.996 214.121C154.982 215.432 156.029 216.504 157.335 216.516Z" fill="#51CEF4"/>
<path d="M34.0319 178.427L33.6985 177.69C33.866 177.614 50.586 170.058 62.7721 169.151C75.1223 168.235 81.1659 176.841 81.2268 176.928L80.5602 177.388C80.5047 177.304 74.702 169.076 62.8307 169.958C50.7818 170.856 34.1967 178.351 34.0319 178.427Z" fill="#1D1D1B"/>
<path d="M75.0149 148.082C75.0149 148.082 67.1742 158.86 66.7043 169.611Z" fill="#07ACEE"/>
<path d="M67.1026 169.628L66.2984 169.594C66.7685 158.838 74.6091 147.951 74.6881 147.844L75.3373 148.318C75.2637 148.425 67.5752 159.125 67.1026 169.628Z" fill="#1D1D1B"/>
<path d="M112.692 111.162C112.692 111.162 106.896 118.602 115.785 121.12C122.175 122.932 123.97 118.566 123.97 118.566C123.97 118.566 127.395 122.909 134.15 119.824C138.542 117.821 135.407 111.659 135.407 111.659C125.998 109.182 122.339 109.052 112.692 111.162Z" fill="white"/>
<path d="M118.59 121.961C117.603 121.941 116.624 121.789 115.679 121.51C112.946 120.736 111.262 119.42 110.669 117.598C109.651 114.466 112.266 111.059 112.377 110.915L112.467 110.799L112.61 110.768C122.252 108.656 125.893 108.731 135.51 111.267L135.684 111.314L135.769 111.474C135.842 111.62 137.557 115.044 136.616 117.744C136.426 118.29 136.123 118.791 135.728 119.212C135.332 119.634 134.853 119.968 134.32 120.192C128.664 122.776 125.182 120.285 124.059 119.235C123.463 120.157 121.863 121.991 118.59 121.961ZM112.93 111.526C112.504 112.12 110.645 114.919 111.435 117.349C111.956 118.898 113.443 120.037 115.9 120.733C116.786 120.995 117.704 121.137 118.628 121.156C122.39 121.19 123.543 118.546 123.601 118.412L123.876 117.778L124.301 118.321C124.433 118.486 127.626 122.371 133.998 119.461C134.43 119.281 134.82 119.012 135.142 118.671C135.463 118.331 135.71 117.926 135.866 117.484C136.588 115.41 135.449 112.689 135.136 112.007C125.846 109.572 122.24 109.496 112.93 111.526Z" fill="#1D1E1B"/>
<path d="M115.838 95.9796C115.838 95.9796 116.929 106.413 113.272 111.477C113.272 111.477 124.484 123.244 133.06 111.064C133.06 111.064 125.105 98.7624 126.683 95.2197C128.262 91.6771 115.838 95.9796 115.838 95.9796Z" fill="#FFCDB2"/>
<path d="M123.815 116.993C117.987 116.943 113.191 111.98 112.981 111.76L112.748 111.516L112.947 111.248C116.471 106.371 115.449 96.1348 115.437 96.0297L115.406 95.7118L115.708 95.6067C117.325 95.0445 125.474 92.3312 126.953 93.9511C127.181 94.2008 127.383 94.6521 127.052 95.3922C125.829 98.1331 131.209 107.481 133.398 110.851L133.546 111.082L133.388 111.304C130.918 114.812 127.987 116.719 124.671 116.971C124.384 116.987 124.099 116.995 123.815 116.993ZM113.795 111.431C114.857 112.455 119.492 116.549 124.616 116.16C127.609 115.93 130.275 114.214 132.572 111.057C131.266 109.008 124.766 98.5331 126.312 95.0574C126.433 94.7893 126.446 94.5955 126.354 94.4924C125.558 93.6106 120.074 94.9767 116.264 96.2603C116.423 98.0627 116.961 106.674 113.795 111.431V111.431Z" fill="#1D1D1B"/>
<path d="M117.763 69.2141C123.977 69.2677 129.072 64.251 129.144 58.009C129.215 51.767 124.235 46.6633 118.021 46.6097C111.807 46.5561 106.712 51.5729 106.641 57.8149C106.569 64.0569 111.549 69.1605 117.763 69.2141Z" fill="#382256"/>
<path d="M117.737 69.6177C114.843 69.5843 112.068 68.4735 109.951 66.5013C107.834 64.5291 106.525 61.8361 106.279 58.9452C106.085 56.6429 106.576 54.3328 107.691 52.3067C108.805 50.2806 110.493 48.6296 112.54 47.5623C114.587 46.495 116.901 46.0593 119.192 46.3104C121.482 46.5614 123.644 47.4878 125.406 48.9726C127.168 50.4574 128.45 52.4338 129.089 54.6522C129.729 56.8705 129.698 59.2311 129 61.4357C128.303 63.6402 126.969 65.5897 125.169 67.0377C123.369 68.4858 121.183 69.3674 118.887 69.5711C118.502 69.6055 118.118 69.621 117.737 69.6177ZM118.036 47.0028C117.682 46.9997 117.324 47.0155 116.961 47.0474C114.822 47.2423 112.786 48.0679 111.111 49.4202C109.436 50.7725 108.196 52.5907 107.548 54.6457C106.9 56.7008 106.873 58.9005 107.47 60.9675C108.066 63.0345 109.261 64.8762 110.902 66.2604C111.989 67.1812 113.249 67.8756 114.607 68.3034C115.966 68.7311 117.396 68.8836 118.815 68.7519C121.595 68.5052 124.176 67.1965 126.025 65.0968C127.875 62.997 128.85 60.2669 128.749 57.4717C128.649 54.6764 127.48 52.03 125.485 50.0803C123.491 48.1305 120.822 47.0267 118.033 46.9974L118.036 47.0028Z" fill="#1D1E1B"/>
<path d="M129.534 61.4873C124.252 53.707 111.777 56.5996 108.904 60.5014C101.771 70.1622 93.6126 66.6338 93.053 76.354C92.7743 81.2343 97.1914 82.689 96.0089 91.6901C95.4 96.3333 103.685 102.612 110.616 101.994C117.546 101.375 133.468 106.365 141.39 97.1662C144.969 93.0092 150.582 80.5479 143.382 71.3883C136.103 62.1203 131.826 64.8601 129.534 61.4873Z" fill="#382256"/>
<path d="M125.311 103.181C122.607 103.158 119.943 102.914 117.576 102.697C114.813 102.445 112.431 102.225 110.649 102.384C105.797 102.814 100.739 100.026 98.0857 97.2532C96.2678 95.3524 95.3883 93.3519 95.6148 91.6275C96.3001 86.4168 95.0783 83.8127 93.9981 81.525C93.2483 79.9241 92.5379 78.4126 92.6585 76.3184C92.9913 70.6952 95.7896 69.2973 99.344 67.5263C102.212 66.0967 105.464 64.4765 108.588 60.2483C110.339 57.8773 114.988 56.1426 119.451 56.1811L119.607 56.1824C124.056 56.2612 127.701 58.0647 129.872 61.2587C130.664 62.4371 131.734 62.7991 133.224 63.3048C135.717 64.1504 139.131 65.311 143.702 71.1245C151.074 80.4957 145.414 93.1047 141.702 97.4167C137.573 102.202 131.312 103.233 125.311 103.181ZM112.206 101.523C113.771 101.536 115.609 101.705 117.65 101.893C125.132 102.579 135.377 103.519 141.087 96.8889C142.894 94.7877 145.125 90.6245 146.045 86.0622C146.817 82.1799 146.928 76.5225 143.076 71.6255C138.65 66.0017 135.365 64.8853 132.958 64.0701C131.39 63.5368 130.151 63.1167 129.201 61.7161C127.18 58.7362 123.765 57.0639 119.587 56.9902L119.439 56.9889C114.807 56.949 110.628 58.8466 109.237 60.7279C105.999 65.1114 102.51 66.8641 99.7037 68.2484C96.2547 69.9665 93.7615 71.2108 93.4636 76.363C93.3561 78.2473 93.9932 79.5994 94.7298 81.1785C95.8572 83.5717 97.1315 86.2839 96.4166 91.7287C96.2225 93.2055 97.0242 94.9657 98.6722 96.6928C101.193 99.3323 106 101.986 110.588 101.579C111.083 101.534 111.626 101.518 112.216 101.523L112.206 101.523Z" fill="#1D1E1B"/>
<path d="M124.009 80.9451C118.375 82.4295 110.595 80.2856 109.37 82.3867C108.145 84.4878 109.266 87.1791 112.378 87.7113C115.491 88.2436 118.544 88.0038 124.783 87.2127C131.023 86.4215 137.074 85.1809 136.21 81.8527C135.346 78.5245 132.298 78.7589 124.009 80.9451Z" fill="#FFB49F"/>
<path d="M119.294 64.7242C117.848 73.832 109.246 78.7136 104.41 79.5952C103.572 82.4091 104.433 86.0264 104.705 89.2187C105.706 100.945 112.801 108.862 123.941 107.095C134.815 105.372 140.025 98.5737 138.793 85.6687C138.503 82.6216 138.363 79.5866 137.16 77.0405C127.864 77.8405 119.294 64.7242 119.294 64.7242Z" fill="#FFCDB2"/>
<path d="M120.78 107.741C117.261 107.71 114.082 106.649 111.491 104.605C107.429 101.418 104.88 95.9667 104.305 89.2562C104.236 88.4642 104.13 87.6234 104.026 86.8122C103.704 84.2845 103.371 81.6731 104.022 79.4822L104.094 79.2432L104.339 79.1996C109.57 78.246 117.56 73.1034 118.897 64.6624L119.062 63.6301L119.631 64.5019C119.713 64.6264 127.65 76.6092 136.275 76.6836C136.544 76.6859 136.842 76.675 137.127 76.6505L137.395 76.626L137.516 76.8773C138.606 79.1749 138.839 81.7799 139.087 84.5385C139.118 84.9022 139.151 85.2659 139.185 85.6296C139.801 92.0739 138.806 97.1799 136.225 100.808C133.704 104.358 129.588 106.608 123.995 107.494C122.932 107.664 121.856 107.747 120.78 107.741ZM104.725 79.9458C104.211 81.9307 104.519 84.3561 104.819 86.706C104.923 87.528 105.031 88.3768 105.1 89.185C105.654 95.6718 108.098 100.923 111.982 103.969C115.174 106.478 119.294 107.421 123.873 106.696C134.822 104.96 139.568 98.0964 138.386 85.7089L138.286 84.6151C138.047 82.0315 137.837 79.5855 136.905 77.4751C136.685 77.4732 136.462 77.4928 136.245 77.4909C128.446 77.4236 121.488 68.5261 119.505 65.7471C117.643 74.3101 109.664 78.9413 104.73 79.9459L104.725 79.9458Z" fill="#1D1D1B"/>
<path d="M122.926 81.7421C116.223 83.5702 106.918 81.1106 105.479 83.6332C104.04 86.1557 105.415 89.3507 109.129 89.9477C112.843 90.5446 116.488 90.2266 123.921 89.2088C131.354 88.191 138.559 86.6426 137.492 82.6816C136.426 78.7206 132.772 79.0385 122.926 81.7421Z" fill="#FFB49F"/>
<path d="M121.747 92.3533C121.647 92.3527 121.551 92.3145 121.478 92.2461C121.405 92.1777 121.36 92.0841 121.353 91.9839L120.565 82.7844C120.56 82.7313 120.566 82.678 120.582 82.6272C120.598 82.5764 120.624 82.5293 120.658 82.4885C120.692 82.4478 120.734 82.4141 120.781 82.3895C120.828 82.3649 120.879 82.3499 120.931 82.3452C120.984 82.3406 121.037 82.3464 121.088 82.3624C121.138 82.3784 121.185 82.4043 121.225 82.4385C121.266 82.4727 121.299 82.5146 121.323 82.5618C121.348 82.609 121.363 82.6605 121.367 82.7136L122.153 91.9131C122.157 91.966 122.151 92.0192 122.136 92.0699C122.12 92.1205 122.094 92.1675 122.06 92.2082C122.026 92.2489 121.985 92.2824 121.938 92.3069C121.891 92.3314 121.84 92.3463 121.787 92.3509L121.747 92.3533Z" fill="black"/>
<path d="M109.821 55.573C109.749 55.5722 109.678 55.5607 109.609 55.5389C109.441 55.4809 109.303 55.3583 109.225 55.1981C109.147 55.0378 109.136 54.8531 109.194 54.6843C109.267 54.4669 111.094 49.3435 117.383 48.3632C117.472 48.3457 117.563 48.3465 117.651 48.3653C117.74 48.3841 117.824 48.4206 117.897 48.4727C117.971 48.5247 118.034 48.5912 118.082 48.6682C118.129 48.7451 118.161 48.8309 118.174 48.9205C118.188 49.01 118.184 49.1015 118.161 49.1893C118.139 49.2772 118.099 49.3596 118.044 49.4317C117.989 49.5038 117.92 49.564 117.841 49.6088C117.762 49.6536 117.676 49.682 117.586 49.6924C112.12 50.5455 110.527 54.9359 110.463 55.1211C110.416 55.2539 110.329 55.3689 110.214 55.4499C110.099 55.5309 109.962 55.574 109.821 55.573Z" fill="white"/>
<path d="M109.24 81.8758C109.156 81.8753 109.074 81.8481 109.007 81.7983C108.964 81.7673 108.928 81.7281 108.9 81.6829C108.872 81.6377 108.854 81.5875 108.846 81.535C108.837 81.4826 108.84 81.429 108.852 81.3774C108.865 81.3258 108.888 81.2772 108.919 81.2344C109.067 81.0337 112.555 76.3585 117.103 77.4686C117.207 77.4942 117.296 77.5601 117.351 77.6518C117.407 77.7435 117.423 77.8535 117.398 77.9576C117.372 78.0617 117.306 78.1513 117.214 78.2068C117.123 78.2623 117.013 78.2792 116.909 78.2536C112.889 77.2721 109.602 81.6689 109.57 81.7117C109.532 81.7636 109.482 81.8056 109.425 81.8342C109.367 81.8628 109.304 81.8771 109.24 81.8758V81.8758Z" fill="black"/>
<path d="M130.367 78.1254C130.275 78.1242 130.186 78.092 130.115 78.0341C126.549 75.0751 123.311 76.8941 123.175 76.9819C123.083 77.0362 122.973 77.0513 122.869 77.0241C122.766 76.9969 122.677 76.9295 122.623 76.8367C122.57 76.7439 122.555 76.6334 122.582 76.5294C122.609 76.4254 122.677 76.3365 122.769 76.2822C122.807 76.261 126.619 74.0829 130.63 77.4101C130.695 77.4642 130.741 77.5375 130.762 77.6194C130.783 77.7013 130.778 77.7878 130.747 77.8667C130.716 77.9456 130.662 78.013 130.592 78.0594C130.521 78.1058 130.438 78.1288 130.353 78.1253L130.367 78.1254Z" fill="black"/>
<path d="M118.595 88.1645C118.538 88.1644 118.482 88.152 118.43 88.1283C118.378 88.1045 118.332 88.07 118.295 88.0268C116.235 85.6549 112.138 87.9177 112.097 87.9389C112.004 87.9918 111.894 88.0054 111.791 87.9766C111.688 87.9478 111.6 87.8791 111.548 87.7856C111.495 87.692 111.482 87.5813 111.511 87.4778C111.54 87.3743 111.608 87.2866 111.702 87.2337C111.894 87.1275 116.413 84.6254 118.903 87.4925C118.938 87.5326 118.964 87.5793 118.981 87.6298C118.998 87.6803 119.004 87.7336 119.001 87.7867C118.997 87.8398 118.983 87.8917 118.959 87.9393C118.935 87.987 118.902 88.0294 118.862 88.0643C118.788 88.1303 118.693 88.1661 118.595 88.1645V88.1645Z" fill="black"/>
<path d="M124.288 87.1987C124.181 87.1973 124.079 87.1538 124.005 87.0775C123.967 87.0398 123.938 86.995 123.918 86.9458C123.898 86.8965 123.888 86.8438 123.889 86.7906C123.889 86.7374 123.901 86.6848 123.921 86.636C123.942 86.5871 123.973 86.5428 124.011 86.5058C124.046 86.4711 127.494 83.1497 131.752 85.0271C131.85 85.0701 131.927 85.1505 131.966 85.2505C132.004 85.3505 132.002 85.4619 131.959 85.5602C131.916 85.6585 131.835 85.7357 131.736 85.7747C131.636 85.8138 131.525 85.8116 131.427 85.7685C127.682 84.1169 124.694 86.9596 124.574 87.0826C124.498 87.1576 124.395 87.1993 124.288 87.1987V87.1987Z" fill="black"/>
<path d="M156.314 182.506C150.909 171.727 142.198 154.22 143.606 145.364C145.013 136.508 151.375 135.868 151.375 135.868L151.093 129.076L173.922 122.986L175.106 127.412C175.106 127.412 189.931 126.808 191.698 147.863C193.489 169.225 206.972 197.737 176.609 201.435C167.566 202.538 159.093 188.047 156.314 182.506Z" fill="#07ACEE"/>
<path d="M175.56 201.896C166.044 201.811 157.602 185.973 155.955 182.689C150.647 172.104 141.771 154.389 143.214 145.301C144.455 137.509 149.531 135.848 150.962 135.533L150.695 129.094C150.692 129.002 150.72 128.912 150.774 128.838C150.829 128.764 150.906 128.711 150.995 128.688L173.825 122.595C173.928 122.568 174.037 122.583 174.129 122.637C174.221 122.69 174.288 122.779 174.316 122.882L175.422 127.009C178.102 127.129 180.702 127.954 182.96 129.401C186.621 131.713 191.179 136.786 192.104 147.829C192.476 152.272 193.376 157.129 194.247 161.824C196.456 173.756 198.744 186.082 193.004 193.929C189.801 198.299 184.457 200.886 176.669 201.836C176.301 201.881 175.931 201.901 175.56 201.896ZM156.676 182.324C158.344 185.649 167.146 202.182 176.568 201.033C184.125 200.113 189.285 197.633 192.349 193.452C197.882 185.902 195.63 173.738 193.448 161.979C192.577 157.265 191.675 152.386 191.295 147.902C190.583 139.447 187.567 133.296 182.563 130.113C180.341 128.677 177.766 127.884 175.12 127.821C175.029 127.825 174.94 127.797 174.867 127.743C174.794 127.689 174.742 127.612 174.718 127.525L173.638 123.479L151.508 129.384L151.775 135.844C151.781 135.947 151.746 136.049 151.679 136.127C151.611 136.205 151.516 136.254 151.413 136.263C151.166 136.291 145.343 137 144.005 145.421C142.6 154.256 151.409 171.826 156.676 182.324V182.324Z" fill="#1D1D1B"/>
<path d="M151.827 136.25C151.827 136.25 166.547 139.38 174.681 127.736L173.634 123.341L151.613 129.44L151.827 136.25Z" fill="#0598C6"/>
<path d="M175.302 193.063C176.556 192.683 177.266 191.362 176.889 190.111C176.511 188.861 175.188 188.155 173.934 188.535C172.68 188.915 171.97 190.236 172.348 191.487C172.725 192.737 174.048 193.443 175.302 193.063Z" fill="#51CEF4"/>
<path d="M182.607 169.876C183.862 169.496 184.572 168.175 184.194 166.924C183.816 165.674 182.494 164.968 181.24 165.348C179.986 165.728 179.275 167.049 179.653 168.3C180.031 169.55 181.353 170.256 182.607 169.876Z" fill="#51CEF4"/>
<path d="M179.77 145.93C181.024 145.55 181.735 144.229 181.357 142.978C180.979 141.728 179.656 141.022 178.402 141.402C177.148 141.782 176.438 143.103 176.815 144.354C177.193 145.604 178.516 146.31 179.77 145.93Z" fill="#51CEF4"/>
<path d="M157.027 152.954C158.281 152.574 158.992 151.252 158.614 150.002C158.236 148.751 156.913 148.045 155.659 148.425C154.405 148.805 153.695 150.127 154.073 151.377C154.45 152.628 155.773 153.334 157.027 152.954Z" fill="#51CEF4"/>
<path d="M123.685 99.6521C122.785 99.6483 121.896 99.4566 121.075 99.0894C120.986 99.0377 120.919 98.9534 120.89 98.854C120.861 98.7546 120.871 98.6477 120.918 98.5555C120.966 98.4632 121.046 98.3926 121.144 98.3583C121.242 98.324 121.349 98.3286 121.443 98.3712C121.625 98.4617 125.78 100.495 128.514 95.6848C128.538 95.6353 128.572 95.5912 128.614 95.5554C128.656 95.5195 128.705 95.4926 128.757 95.4762C128.81 95.4599 128.865 95.4545 128.92 95.4604C128.975 95.4662 129.028 95.4833 129.075 95.5104C129.123 95.5375 129.165 95.5742 129.198 95.6181C129.231 95.662 129.255 95.7123 129.268 95.7658C129.281 95.8193 129.283 95.8749 129.274 95.9293C129.265 95.9836 129.244 96.0355 129.214 96.0817C127.554 98.9959 125.372 99.6678 123.685 99.6521Z" fill="black"/>
<path d="M170.822 123.625C170.822 123.625 169.143 120.701 169.748 119.008C170.352 117.315 174.771 110.831 175.866 106.119C176.93 101.537 173.522 99.938 168.568 105.806C168.568 105.806 170.141 98.7353 165.368 99.3186C165.368 99.3186 164.939 95.7323 161.852 91.8647C159.206 88.5446 155.804 91.8125 157.417 95.2448C158.769 98.1123 159.309 99.2583 159.454 100.455C159.454 100.455 154.905 101.223 157.722 104.509C157.722 104.509 158.491 107.649 156.116 107.944C153.74 108.238 156.495 101.021 155.016 98.7825C153.536 96.5437 149.659 97.8265 148.482 104.847C147.304 111.867 146.275 115.032 148.436 119.618C150.05 123.04 151.85 129.233 151.85 129.233L170.822 123.625Z" fill="#FFCDB2"/>
<path d="M151.845 129.636C151.779 129.636 151.714 129.62 151.655 129.589C151.609 129.564 151.568 129.529 151.535 129.488C151.501 129.446 151.477 129.399 151.462 129.348C151.444 129.286 149.654 123.141 148.083 119.79C146.157 115.712 146.681 112.78 147.628 107.448C147.777 106.62 147.932 105.738 148.093 104.782C148.908 99.9167 150.996 97.8084 152.683 97.4326C153.191 97.3197 153.72 97.3674 154.198 97.5692C154.677 97.771 155.08 98.1169 155.354 98.5592C156.113 99.7124 155.891 101.826 155.677 103.867C155.52 105.368 155.342 107.067 155.759 107.477C155.788 107.507 155.86 107.575 156.067 107.55C156.272 107.538 156.471 107.48 156.651 107.38C156.831 107.281 156.986 107.142 157.106 106.975C157.562 106.306 157.452 105.183 157.35 104.703C156.5 103.678 156.216 102.749 156.512 101.939C156.917 100.826 158.307 100.34 158.996 100.149C158.796 99.1165 158.233 97.9246 157.053 95.4246C156.042 93.2787 156.832 91.2803 158.103 90.4838C159.119 89.8439 160.722 89.8065 162.169 91.617C164.738 94.8396 165.506 97.8367 165.706 98.8908C166.75 98.8406 167.581 99.1519 168.178 99.8138C169.275 101.029 169.296 103.15 169.162 104.538C171.487 102.111 173.673 101.107 175.137 101.841C176.335 102.444 176.754 104.076 176.26 106.209C175.504 109.462 173.173 113.579 171.628 116.303C171.073 117.22 170.571 118.169 170.125 119.143C169.682 120.388 170.729 122.648 171.171 123.424C171.202 123.477 171.22 123.536 171.224 123.597C171.229 123.658 171.219 123.72 171.197 123.777C171.173 123.835 171.136 123.886 171.089 123.928C171.042 123.969 170.986 123.998 170.926 124.014L151.95 129.621C151.916 129.631 151.881 129.636 151.845 129.636ZM153.249 98.1804C153.111 98.1786 152.975 98.1928 152.84 98.2226C151.495 98.5152 149.627 100.442 148.878 104.918C148.719 105.877 148.562 106.764 148.412 107.605C147.495 112.771 146.979 115.617 148.814 119.452C150.21 122.409 151.711 127.32 152.135 128.74L170.248 123.389C169.787 122.465 168.866 120.327 169.382 118.881C169.587 118.304 170.184 117.249 170.943 115.912C172.463 113.234 174.758 109.176 175.489 106.035C175.887 104.316 175.621 102.99 174.788 102.573C173.833 102.091 171.714 102.722 168.887 106.075C168.829 106.144 168.749 106.191 168.661 106.21C168.573 106.228 168.482 106.216 168.401 106.176C168.321 106.136 168.256 106.07 168.217 105.989C168.179 105.908 168.168 105.816 168.188 105.728C168.188 105.69 169.01 101.929 167.594 100.366C167.101 99.8234 166.393 99.6154 165.431 99.7336C165.378 99.7403 165.325 99.7366 165.274 99.7225C165.223 99.7085 165.176 99.6844 165.134 99.6518C165.093 99.6191 165.058 99.5785 165.032 99.5323C165.006 99.4861 164.99 99.4352 164.984 99.3825C164.984 99.3475 164.522 95.8525 161.551 92.1312C160.604 90.9441 159.478 90.5872 158.543 91.1767C157.608 91.7661 156.983 93.3622 157.795 95.0838C159.153 97.9648 159.716 99.1567 159.868 100.418C159.88 100.521 159.852 100.625 159.789 100.708C159.727 100.791 159.635 100.847 159.533 100.864C159.011 100.954 157.589 101.372 157.282 102.223C157.088 102.76 157.343 103.443 158.042 104.262C158.082 104.309 158.111 104.366 158.126 104.427C158.144 104.5 158.574 106.282 157.783 107.438C157.599 107.701 157.36 107.919 157.083 108.079C156.805 108.238 156.497 108.333 156.178 108.359C156.005 108.389 155.826 108.378 155.658 108.326C155.489 108.275 155.335 108.184 155.208 108.062C154.515 107.381 154.698 105.719 154.891 103.793C155.081 101.981 155.295 99.9261 154.694 99.0138C154.544 98.7628 154.333 98.5544 154.08 98.4086C153.827 98.2627 153.541 98.1842 153.249 98.1804Z" fill="#1D1D1B"/>
<path d="M157.921 104.692C157.921 104.692 159.755 106.504 165.235 105.006Z" fill="#FFCDB2"/>
<path d="M161.24 106.003C158.7 105.981 157.705 105.041 157.647 104.984C157.57 104.909 157.526 104.806 157.524 104.698C157.523 104.591 157.563 104.486 157.638 104.409C157.713 104.331 157.815 104.287 157.922 104.285C158.029 104.283 158.133 104.324 158.209 104.399C158.244 104.432 160.03 106.006 165.137 104.616C165.24 104.588 165.351 104.602 165.443 104.656C165.536 104.709 165.604 104.798 165.631 104.902C165.659 105.006 165.644 105.116 165.591 105.21C165.537 105.303 165.449 105.372 165.346 105.4C164.01 105.787 162.629 105.99 161.24 106.003V106.003Z" fill="#1D1D1B"/>
<path d="M159.435 100.474C161.385 99.9679 163.365 99.5864 165.362 99.3321Z" fill="#FFCDB2"/>
<path d="M159.431 100.878C159.324 100.891 159.216 100.861 159.131 100.795C159.046 100.728 158.991 100.63 158.978 100.523C158.965 100.415 158.995 100.307 159.062 100.221C159.128 100.136 159.226 100.08 159.333 100.067C161.301 99.5585 163.298 99.1744 165.313 98.9168C165.42 98.9037 165.527 98.9339 165.612 99.0007C165.697 99.0676 165.751 99.1655 165.764 99.2731C165.777 99.3807 165.747 99.489 165.68 99.5742C165.613 99.6595 165.515 99.7148 165.408 99.7278C163.431 99.9808 161.47 100.357 159.539 100.854C159.504 100.868 159.468 100.875 159.431 100.878V100.878Z" fill="#1D1D1B"/>
<path d="M168.575 105.816C167.876 106.712 167.491 106.76 165.825 109.797Z" fill="#FFCDB2"/>
<path d="M165.821 110.196C165.754 110.195 165.689 110.178 165.631 110.146C165.54 110.094 165.472 110.009 165.442 109.908C165.412 109.808 165.423 109.699 165.471 109.606C166.748 107.265 167.305 106.661 167.8 106.105C167.952 105.935 168.099 105.777 168.259 105.571C168.327 105.493 168.422 105.443 168.525 105.433C168.627 105.423 168.73 105.453 168.811 105.516C168.893 105.58 168.947 105.673 168.962 105.775C168.977 105.877 168.952 105.982 168.892 106.066C168.713 106.296 168.55 106.475 168.395 106.646C167.908 107.18 167.405 107.736 166.177 109.992C166.142 110.054 166.09 110.107 166.027 110.143C165.964 110.178 165.893 110.197 165.821 110.196V110.196Z" fill="#1D1D1B"/>
<path d="M158.986 113.856L158.927 113.856C158.822 113.838 158.728 113.78 158.665 113.693C158.602 113.607 158.576 113.499 158.591 113.393C159.007 110.786 155.293 108.181 155.256 108.153C155.169 108.092 155.11 107.999 155.091 107.894C155.072 107.789 155.095 107.681 155.155 107.593C155.185 107.549 155.223 107.512 155.268 107.483C155.312 107.454 155.362 107.434 155.414 107.424C155.466 107.415 155.519 107.416 155.571 107.427C155.622 107.438 155.671 107.46 155.714 107.49C155.885 107.607 159.881 110.417 159.387 113.518C159.372 113.613 159.323 113.7 159.25 113.762C159.176 113.824 159.083 113.858 158.986 113.856Z" fill="#1D1D1B"/>
<path d="M163.073 105.441C162.547 106.165 162.165 106.984 161.949 107.852Z" fill="#FFCDB2"/>
<path d="M161.946 108.246C161.92 108.248 161.894 108.248 161.869 108.245C161.764 108.223 161.673 108.161 161.614 108.072C161.555 107.983 161.534 107.874 161.555 107.769C161.783 106.845 162.19 105.974 162.751 105.206C162.815 105.121 162.911 105.064 163.016 105.049C163.122 105.033 163.23 105.061 163.315 105.125C163.4 105.189 163.457 105.285 163.471 105.391C163.486 105.497 163.459 105.605 163.394 105.691C162.906 106.364 162.55 107.123 162.344 107.929C162.324 108.019 162.273 108.1 162.201 108.157C162.128 108.215 162.039 108.246 161.946 108.246V108.246Z" fill="#1D1D1B"/>
<path d="M159.334 102.508C159.156 102.522 158.979 102.463 158.844 102.346C158.709 102.229 158.625 102.063 158.612 101.884C158.599 101.705 158.658 101.528 158.775 101.392C158.892 101.256 159.058 101.172 159.236 101.159L165.907 100.058C166.083 100.029 166.263 100.071 166.408 100.175C166.552 100.28 166.65 100.438 166.678 100.614C166.707 100.791 166.665 100.972 166.561 101.117C166.456 101.263 166.299 101.361 166.123 101.39L159.45 102.49C159.412 102.499 159.373 102.505 159.334 102.508V102.508Z" fill="white"/>
<path d="M50.3006 142.412C50.1696 142.41 50.0422 142.369 49.9338 142.296C49.8254 142.222 49.7409 142.119 49.6903 141.998C49.6397 141.877 49.6253 141.744 49.649 141.615C49.6727 141.486 49.7333 141.366 49.8235 141.271C65.087 125.422 87.1305 118.735 87.3515 118.681C87.4369 118.653 87.5271 118.642 87.6167 118.65C87.7062 118.657 87.7931 118.683 87.8725 118.725C87.952 118.767 88.0223 118.824 88.0791 118.894C88.136 118.963 88.1783 119.043 88.2037 119.13C88.229 119.216 88.2368 119.307 88.2265 119.396C88.2163 119.485 88.1882 119.572 88.144 119.65C88.0999 119.729 88.0405 119.797 87.9694 119.853C87.8983 119.908 87.817 119.948 87.7301 119.971C87.5144 120.036 65.8027 126.619 50.792 142.206C50.7282 142.272 50.6517 142.324 50.5673 142.359C50.4828 142.395 50.392 142.412 50.3006 142.412V142.412Z" fill="white"/>
<path d="M189.788 151.448C189.616 151.446 189.452 151.378 189.328 151.257C189.205 151.137 189.133 150.974 189.126 150.802C188.8 142.175 186.316 137.385 184.278 134.886C182.099 132.203 179.966 131.521 179.945 131.513C179.775 131.461 179.632 131.344 179.548 131.187C179.464 131.03 179.446 130.846 179.498 130.675C179.549 130.504 179.666 130.361 179.823 130.276C179.98 130.192 180.164 130.174 180.335 130.225C180.723 130.342 189.808 133.272 190.467 150.763C190.47 150.851 190.456 150.939 190.425 151.022C190.395 151.105 190.348 151.182 190.288 151.246C190.228 151.311 190.156 151.364 190.076 151.401C189.995 151.438 189.908 151.458 189.82 151.462L189.788 151.448Z" fill="white"/>
<path d="M47.6391 175.61C47.4869 175.609 47.3399 175.556 47.2219 175.459C47.1039 175.363 47.0221 175.23 46.9896 175.08C46.9572 174.931 46.9759 174.775 47.0432 174.638C47.1104 174.501 47.2221 174.391 47.3597 174.326C48.0191 174.013 63.6174 166.793 75.0839 173.134C75.2398 173.22 75.355 173.366 75.4041 173.538C75.4532 173.71 75.4321 173.894 75.3456 174.051C75.2591 174.208 75.114 174.324 74.9425 174.373C74.7711 174.423 74.5871 174.402 74.4312 174.315C63.5608 168.304 48.0869 175.471 47.9301 175.545C47.8392 175.589 47.7397 175.611 47.6391 175.61Z" fill="white"/>
<path d="M29.8034 208.658C29.7308 208.657 29.6598 208.637 29.5975 208.6C21.9902 203.925 19.8214 196.406 19.3405 190.928C19.0209 187.295 19.2846 183.633 20.1218 180.082C20.1323 180.028 20.154 179.976 20.1853 179.931C20.2165 179.885 20.2566 179.846 20.3034 179.817C20.3502 179.787 20.4025 179.768 20.4571 179.76C20.5116 179.751 20.5675 179.754 20.6208 179.768C20.6741 179.783 20.724 179.808 20.7673 179.842C20.8105 179.876 20.8461 179.919 20.8721 179.968C20.8981 180.017 20.9139 180.07 20.9184 180.125C20.9228 180.18 20.9159 180.236 20.898 180.288C20.098 183.758 19.8432 187.332 20.1433 190.879C20.826 198.572 24.1494 204.303 30.0181 207.915C30.0636 207.942 30.103 207.978 30.1344 208.021C30.1658 208.063 30.1883 208.112 30.2008 208.163C30.2132 208.215 30.2154 208.268 30.207 208.321C30.1985 208.373 30.1797 208.423 30.1517 208.468C30.1149 208.527 30.0636 208.576 30.0026 208.609C29.9416 208.642 29.8729 208.659 29.8034 208.658Z" fill="#1D1D1B"/>
<path d="M174.075 116.02C174 116.019 173.928 115.997 173.865 115.956C173.803 115.916 173.752 115.86 173.72 115.793C173.687 115.726 173.674 115.651 173.681 115.577C173.688 115.503 173.715 115.432 173.759 115.372C178.551 109.007 177.875 103.643 177.868 103.589C177.861 103.536 177.864 103.482 177.877 103.43C177.891 103.378 177.914 103.329 177.946 103.287C177.979 103.244 178.019 103.208 178.065 103.181C178.111 103.153 178.162 103.136 178.215 103.128C178.268 103.121 178.322 103.124 178.374 103.137C178.425 103.15 178.474 103.174 178.517 103.206C178.559 103.238 178.595 103.279 178.622 103.325C178.649 103.371 178.667 103.422 178.674 103.475C178.707 103.707 179.418 109.206 174.412 115.859C174.373 115.912 174.322 115.954 174.263 115.982C174.204 116.01 174.14 116.023 174.075 116.02Z" fill="#1D1D1B"/>
<path d="M191.295 200.497C191.224 200.496 191.154 200.476 191.093 200.439C191.032 200.402 190.981 200.35 190.946 200.287C190.899 200.194 190.89 200.086 190.92 199.986C190.951 199.885 191.019 199.801 191.11 199.75C197.658 196.191 200.741 189.496 200.268 179.855C199.989 175.229 199.074 170.664 197.548 166.291C197.526 166.241 197.514 166.186 197.514 166.132C197.513 166.077 197.524 166.022 197.545 165.972C197.566 165.921 197.597 165.875 197.636 165.837C197.676 165.799 197.722 165.769 197.773 165.75C197.824 165.73 197.879 165.721 197.934 165.724C197.989 165.726 198.042 165.74 198.091 165.763C198.141 165.787 198.184 165.821 198.22 165.862C198.256 165.904 198.283 165.952 198.299 166.004C199.856 170.456 200.789 175.103 201.07 179.814C201.553 189.651 198.242 196.791 191.492 200.459C191.431 200.488 191.363 200.501 191.295 200.497V200.497Z" fill="#1D1D1B"/>
<path d="M43.0963 222.261C42.9894 222.26 42.8873 222.215 42.8125 222.137C42.7376 222.058 42.6962 221.952 42.6974 221.842C42.6985 221.732 42.7421 221.627 42.8186 221.55C42.895 221.473 42.998 221.43 43.105 221.431L186.192 221.294C186.299 221.295 186.402 221.339 186.476 221.418C186.551 221.496 186.593 221.602 186.591 221.712C186.59 221.822 186.547 221.927 186.47 222.004C186.394 222.081 186.291 222.124 186.184 222.123L43.0963 222.261Z" fill="#1D1D1B"/>
<path d="M130.987 57.2521C130.881 57.2511 130.779 57.2077 130.704 57.1313C130.629 57.0549 130.588 56.9519 130.589 56.8448C130.696 46.8167 123.479 44.9959 123.171 44.9231C123.117 44.9139 123.065 44.8937 123.019 44.8637C122.973 44.8336 122.933 44.7944 122.903 44.7484C122.872 44.7024 122.852 44.6507 122.842 44.5964C122.832 44.542 122.834 44.4863 122.847 44.4326C122.859 44.3788 122.883 44.3283 122.916 44.284C122.949 44.2398 122.991 44.2027 123.038 44.1752C123.086 44.1477 123.139 44.1304 123.194 44.1242C123.249 44.118 123.304 44.1231 123.357 44.1392C123.437 44.1561 131.509 46.157 131.394 56.8577C131.392 56.9638 131.348 57.0646 131.272 57.1384C131.195 57.2123 131.093 57.2531 130.987 57.2521V57.2521Z" fill="#1D1D1B"/>
<path d="M158.008 95.6763C157.899 95.676 157.791 95.6482 157.695 95.5954C157.541 95.5087 157.427 95.3641 157.378 95.1933C157.33 95.0225 157.351 94.8394 157.437 94.6838C159.986 89.9789 160.065 86.3136 160.065 86.276C160.069 86.0983 160.142 85.929 160.269 85.8048C160.395 85.6807 160.566 85.6116 160.743 85.6125C160.831 85.6133 160.918 85.6315 160.999 85.6661C161.08 85.7007 161.153 85.751 161.215 85.814C161.276 85.8771 161.325 85.9516 161.357 86.0335C161.39 86.1153 161.406 86.2029 161.405 86.2911C161.403 86.4524 161.332 90.3034 158.624 95.3243C158.564 95.4346 158.475 95.5261 158.366 95.5883C158.257 95.6505 158.133 95.681 158.008 95.6763V95.6763Z" fill="white"/>
<path d="M116.331 214.36C117.637 214.372 118.707 213.32 118.721 212.009C118.735 210.698 117.688 209.626 116.382 209.614C115.076 209.602 114.006 210.655 113.992 211.965C113.978 213.276 115.025 214.348 116.331 214.36Z" fill="#51CEF4"/>
<path d="M145.713 185.803C147.018 185.815 148.088 184.762 148.102 183.452C148.116 182.141 147.069 181.069 145.763 181.057C144.458 181.045 143.388 182.097 143.374 183.408C143.36 184.719 144.407 185.791 145.713 185.803Z" fill="#51CEF4"/>
<path d="M146.282 216.85L86.494 216.334C86.4777 216.334 86.462 216.327 86.4499 216.316C86.4377 216.305 86.4298 216.291 86.4275 216.274C83.8591 199.415 83.6008 183.471 86.9684 168.966C86.9722 168.951 86.981 168.938 86.9933 168.928C87.0055 168.918 87.0206 168.913 87.0362 168.913L146.832 169.429C146.847 169.429 146.86 169.434 146.872 169.443C146.883 169.451 146.892 169.464 146.896 169.478C150.57 183.117 150.39 198.89 146.355 216.797C146.351 216.813 146.341 216.827 146.328 216.837C146.315 216.847 146.298 216.851 146.282 216.85V216.85Z" fill="#4BD657"/>
<path d="M146.277 217.254L86.4892 216.738C86.3775 216.737 86.2698 216.696 86.1855 216.623C86.1012 216.55 86.0459 216.449 86.0293 216.338C83.2385 198.014 83.416 182.491 86.5719 168.874C86.5968 168.77 86.656 168.677 86.7402 168.61C86.8244 168.544 86.9285 168.508 87.0354 168.509L146.831 169.025C146.933 169.026 147.032 169.061 147.113 169.123C147.194 169.185 147.253 169.272 147.281 169.371C150.952 183.009 150.772 198.996 146.738 216.883C146.713 216.988 146.655 217.081 146.571 217.149C146.487 217.216 146.384 217.253 146.277 217.254ZM86.7833 215.932L146.017 216.443C149.938 198.897 150.123 183.217 146.569 169.844L87.2972 169.333C84.2381 182.7 84.0692 197.954 86.7833 215.932V215.932Z" fill="#1D1E1B"/>
<path d="M87.0997 168.956L94.6331 161.553C94.6468 161.542 94.6638 161.535 94.6817 161.535L139.408 161.925C139.426 161.926 139.443 161.933 139.456 161.945L146.821 169.478C146.83 169.488 146.836 169.5 146.839 169.514C146.841 169.527 146.839 169.541 146.834 169.554C146.829 169.566 146.82 169.577 146.809 169.585C146.798 169.592 146.785 169.597 146.771 169.597L87.1467 169.076C87.1332 169.076 87.1201 169.071 87.109 169.063C87.098 169.055 87.0897 169.045 87.0847 169.032C87.0797 169.019 87.0783 169.005 87.0809 168.992C87.0836 168.978 87.0902 168.966 87.0997 168.956V168.956Z" fill="#4BD657"/>
<path d="M146.755 170.001L87.1316 169.48C87.0384 169.479 86.9478 169.45 86.8711 169.397C86.7943 169.344 86.7349 169.269 86.7002 169.182C86.6656 169.094 86.6572 168.999 86.6763 168.907C86.6954 168.814 86.7413 168.73 86.8077 168.664V168.664L94.341 161.266C94.3852 161.223 94.4374 161.188 94.4949 161.165C94.5524 161.142 94.6138 161.13 94.6757 161.131L139.401 161.521C139.463 161.521 139.524 161.534 139.581 161.558C139.638 161.582 139.69 161.618 139.733 161.662L147.097 169.19C147.162 169.257 147.206 169.342 147.223 169.435C147.24 169.527 147.23 169.623 147.193 169.71C147.157 169.796 147.095 169.87 147.017 169.922C146.94 169.974 146.848 170.001 146.755 170.001V170.001ZM87.9528 168.674L145.952 169.18L139.255 162.339L94.8037 161.951L87.9528 168.674Z" fill="#1D1E1B"/>
<path d="M122.459 182.931C120.992 182.918 119.579 183.489 118.53 184.519C117.481 185.55 116.883 186.954 116.867 188.424C116.866 188.484 116.865 188.548 116.865 188.61C116.853 187.159 116.275 185.772 115.253 184.747C114.231 183.721 112.847 183.139 111.399 183.126C108.342 183.098 105.586 185.567 105.805 188.619C106.212 194.255 113.027 199.38 115.678 201.172C115.982 201.377 116.341 201.481 116.708 201.471C117.074 201.461 117.428 201.337 117.72 201.115C120.459 199.053 127.884 193.046 127.934 188.523C127.942 187.795 127.807 187.072 127.536 186.397C127.265 185.722 126.864 185.107 126.355 184.588C125.847 184.068 125.241 183.655 124.572 183.37C123.904 183.086 123.186 182.937 122.459 182.931Z" fill="white"/>
<path d="M116.64 201.875C116.218 201.872 115.806 201.743 115.457 201.507C112.572 199.559 105.821 194.421 105.407 188.648C105.359 187.918 105.463 187.187 105.714 186.5C105.965 185.813 106.357 185.186 106.864 184.66C107.448 184.041 108.153 183.549 108.934 183.216C109.716 182.882 110.558 182.714 111.407 182.722C111.853 183.836 112.626 184.787 113.625 185.45C114.623 186.113 115.799 186.457 116.997 186.436C118.196 186.415 119.361 186.03 120.338 185.332C121.316 184.634 122.06 183.656 122.472 182.527C124.045 182.543 125.546 183.184 126.646 184.309C127.746 185.433 128.355 186.95 128.339 188.527C128.288 193.165 121.069 199.101 117.967 201.437C117.584 201.726 117.118 201.88 116.64 201.875V201.875ZM111.398 183.521C110.661 183.518 109.931 183.666 109.252 183.955C108.574 184.244 107.961 184.669 107.452 185.204C107.021 185.649 106.689 186.179 106.475 186.761C106.261 187.342 106.171 187.962 106.211 188.579C106.6 193.989 113.121 198.947 115.907 200.829C116.142 200.986 116.42 201.066 116.702 201.058C116.984 201.05 117.256 200.954 117.482 200.784C119.828 199.018 127.485 192.91 127.534 188.512C127.549 187.149 127.023 185.837 126.072 184.864C125.121 183.892 123.823 183.339 122.463 183.327C121.103 183.315 119.792 183.844 118.82 184.799C117.848 185.755 117.293 187.057 117.278 188.42C117.277 188.471 117.277 188.522 117.276 188.576L117.276 188.619L116.47 188.612C116.452 187.268 115.912 185.986 114.965 185.037C114.018 184.088 112.738 183.547 111.398 183.529L111.398 183.521Z" fill="#1D1E1B"/>
<path d="M128.161 166.505L106.889 166.306C106.782 166.305 106.68 166.261 106.605 166.183C106.53 166.106 106.489 166.001 106.49 165.892C106.491 165.784 106.535 165.68 106.611 165.604C106.688 165.528 106.791 165.486 106.898 165.487L128.17 165.686C128.277 165.687 128.379 165.732 128.454 165.809C128.529 165.887 128.57 165.991 128.569 166.1C128.568 166.208 128.524 166.312 128.448 166.388C128.371 166.464 128.268 166.506 128.161 166.505Z" fill="#1D1E1B"/>
<path d="M126.988 166.092C127.023 166.049 127.062 166.006 127.094 165.961C127.524 165.373 127.835 164.706 128.007 163.998C128.18 163.29 128.213 162.556 128.102 161.836C127.992 161.116 127.741 160.426 127.365 159.804C126.988 159.182 126.492 158.641 125.907 158.211C125.321 157.782 124.656 157.472 123.95 157.3C123.244 157.129 122.511 157.098 121.793 157.21C121.075 157.322 120.385 157.575 119.764 157.954C119.142 158.333 118.601 158.83 118.172 159.418L118.057 159.566C118.891 158.376 119.226 156.907 118.99 155.475C118.755 154.043 117.968 152.762 116.798 151.907C114.336 150.102 110.661 150.506 109.066 153.12C106.877 156.711 107.73 162.142 108.769 165.923L126.988 166.092Z" fill="white"/>
<path d="M127.172 166.497L108.461 166.33L108.381 166.038C107.296 162.087 106.473 156.597 108.725 152.915C109.109 152.293 109.619 151.759 110.222 151.347C110.825 150.935 111.508 150.654 112.225 150.523C113.06 150.357 113.92 150.366 114.75 150.55C115.58 150.734 116.363 151.089 117.049 151.592C116.698 151.898 116.412 152.272 116.206 152.69C116.001 153.108 115.88 153.563 115.851 154.028C115.822 154.494 115.886 154.96 116.038 155.4C116.191 155.839 116.429 156.244 116.739 156.591C117.05 156.937 117.425 157.218 117.845 157.417C118.265 157.617 118.721 157.73 119.185 157.752C119.649 157.773 120.114 157.701 120.551 157.541C120.988 157.381 121.389 157.136 121.731 156.819C122.891 156.639 124.078 156.806 125.141 157.301C126.205 157.796 127.097 158.596 127.706 159.6C128.315 160.604 128.613 161.767 128.563 162.943C128.512 164.118 128.115 165.252 127.422 166.203C127.398 166.238 127.368 166.273 127.34 166.307L127.172 166.497ZM109.077 165.527L126.788 165.686C127.579 164.581 127.901 163.208 127.685 161.867C127.469 160.527 126.732 159.328 125.635 158.532C124.539 157.736 123.172 157.409 121.832 157.621C120.493 157.833 119.291 158.567 118.489 159.664L118.393 159.787L118.366 159.821L117.721 159.339C118.488 158.235 118.796 156.876 118.579 155.55C118.362 154.224 117.639 153.037 116.561 152.239C115.964 151.808 115.286 151.503 114.567 151.343C113.848 151.183 113.104 151.172 112.38 151.31C111.77 151.42 111.19 151.657 110.677 152.006C110.164 152.355 109.73 152.808 109.402 153.335C107.375 156.675 108.084 161.757 109.085 165.528L109.077 165.527Z" fill="#1D1E1B"/>
<path d="M143.724 212.977C143.619 212.977 143.517 212.952 143.424 212.905C143.331 212.857 143.251 212.788 143.19 212.704C143.128 212.619 143.087 212.521 143.07 212.418C143.053 212.314 143.061 212.208 143.092 212.108C148.373 194.756 144.115 173.609 144.069 173.394C144.033 173.219 144.068 173.037 144.165 172.887C144.262 172.738 144.414 172.634 144.588 172.597C144.761 172.561 144.942 172.595 145.09 172.693C145.238 172.79 145.342 172.943 145.378 173.118C145.421 173.334 149.752 194.806 144.369 212.497C144.327 212.636 144.242 212.758 144.125 212.845C144.009 212.932 143.868 212.978 143.724 212.977Z" fill="white"/>
<path d="M85.3539 177.328C85.3539 177.328 77.791 176.039 74.9449 183.663C72.0988 191.287 71.8364 199.241 76.05 203.887C80.2635 208.534 85.1704 208.729 88.3604 207.148C91.5503 205.568 92.0402 202.042 89.283 198.468C89.283 198.468 94.2016 194.689 88.9804 188.691C88.9804 188.691 94.1119 180.237 85.2731 180.51L85.3539 177.328Z" fill="#FFCDB2"/>
<path d="M72.8663 195.392C72.6651 191.741 73.4484 187.658 74.9393 183.663C77.7856 176.038 85.3485 177.328 85.3485 177.328L85.2543 180.51C89.1584 180.389 90.3381 181.973 90.4362 183.785C90.5613 186.065 88.962 188.698 88.962 188.698C90.6503 190.637 91.2783 192.343 91.3565 193.765C91.5195 196.745 89.2644 198.476 89.2644 198.476C90.3969 199.945 90.9793 201.406 91.0533 202.725C91.1559 204.609 90.2095 206.215 88.3417 207.156C85.1649 208.742 80.2739 208.551 76.0307 203.895C74.026 201.679 73.0336 198.719 72.8528 195.399L72.8663 195.392ZM72.2244 195.437C72.4254 199.103 73.5491 202.089 75.5671 204.316C77.5851 206.544 79.9608 207.983 82.4434 208.481C84.5229 208.917 86.6892 208.652 88.6066 207.729C90.6686 206.704 91.7839 204.87 91.6656 202.701C91.5919 201.355 91.0519 199.945 90.1008 198.567C90.7324 197.938 91.2259 197.183 91.5494 196.352C91.873 195.521 92.0193 194.631 91.9793 193.741C91.8878 192.066 91.1283 190.351 89.722 188.635C90.1798 187.776 91.1665 185.688 91.0616 183.761C90.9655 182.011 89.9737 179.971 85.8973 179.894L85.9735 177.365C85.9751 177.348 85.9753 177.33 85.9741 177.312C85.966 177.168 85.909 177.032 85.8124 176.926C85.7159 176.819 85.5856 176.75 85.4437 176.729C83.9675 176.536 82.4671 176.645 81.0328 177.05C78.8412 177.665 75.9084 179.275 74.3402 183.464C72.7608 187.695 72.0306 191.838 72.2269 195.448L72.2244 195.437Z" fill="black"/>
<path d="M85.1994 199.669C82.3382 199.631 79.5855 198.573 77.4349 196.683C77.3608 196.607 77.32 196.503 77.3211 196.397C77.3223 196.29 77.3653 196.187 77.441 196.112C77.4786 196.074 77.5233 196.045 77.5724 196.025C77.6215 196.005 77.6741 195.995 77.7271 195.995C77.7801 195.996 77.8327 196.007 77.8814 196.028C77.9301 196.049 77.9741 196.079 78.0109 196.117V196.117C78.2078 196.308 82.8619 200.801 89.877 197.928C89.9762 197.888 90.0874 197.888 90.186 197.93C90.2846 197.971 90.3626 198.051 90.4029 198.15C90.4432 198.249 90.4425 198.361 90.4009 198.46C90.3592 198.559 90.2801 198.637 90.1809 198.678C88.6031 199.34 86.9089 199.677 85.1994 199.669V199.669Z" fill="#1D1D1B"/>
<path d="M84.8408 190.098C82.8987 190.06 80.969 189.786 79.0934 189.281C79.0411 189.267 78.9918 189.243 78.9489 189.211C78.906 189.178 78.8701 189.137 78.8433 189.09C78.8165 189.043 78.7994 188.991 78.793 188.937C78.7865 188.883 78.791 188.828 78.806 188.776C78.8209 188.724 78.846 188.676 78.88 188.634C78.9139 188.591 78.9561 188.556 79.0037 188.531C79.0513 188.505 79.1035 188.49 79.1572 188.485C79.211 188.48 79.2653 188.486 79.3167 188.502C79.3784 188.519 85.5787 190.259 89.3752 188.482C89.4233 188.46 89.4752 188.447 89.5282 188.445C89.5811 188.442 89.6339 188.451 89.6836 188.469C89.7333 188.487 89.779 188.515 89.8179 188.551C89.8569 188.587 89.8886 188.631 89.9108 188.679C89.9331 188.727 89.9456 188.779 89.9478 188.832C89.95 188.886 89.9416 188.939 89.9233 188.989C89.905 189.039 89.8772 189.085 89.8413 189.124C89.8054 189.163 89.7623 189.195 89.7142 189.217C88.2497 189.903 86.4969 190.114 84.8408 190.098Z" fill="#1D1D1B"/>
<path d="M79.919 181.085C79.8324 181.085 79.7484 181.056 79.6794 181.003C79.6104 180.951 79.5601 180.878 79.5359 180.794C79.5118 180.711 79.515 180.622 79.5452 180.54C79.5755 180.459 79.6311 180.389 79.7038 180.342C82.0835 178.794 85.8928 179.822 86.0644 179.861C86.1155 179.875 86.1634 179.9 86.2052 179.932C86.2469 179.965 86.2818 180.005 86.3079 180.051C86.334 180.098 86.3507 180.149 86.3572 180.201C86.3637 180.254 86.3597 180.308 86.3456 180.359C86.3314 180.41 86.3073 180.458 86.2747 180.5C86.2421 180.542 86.2016 180.577 86.1555 180.603C86.1094 180.629 86.0587 180.646 86.0061 180.653C85.9535 180.659 85.9003 180.655 85.8492 180.641C85.8143 180.641 82.2168 179.667 80.1403 181.014C80.0754 181.06 79.9982 181.085 79.919 181.085Z" fill="#1D1D1B"/>
<path d="M88.9383 183.58C88.8458 183.579 88.7546 183.559 88.6701 183.521C84.3382 181.569 80.2029 183.141 80.1624 183.157C79.9972 183.217 79.8147 183.211 79.6545 183.138C79.4944 183.065 79.369 182.933 79.3054 182.769C79.2417 182.604 79.2448 182.421 79.3139 182.259C79.3831 182.097 79.5131 181.968 79.6756 181.901C79.8646 181.827 84.3836 180.11 89.2238 182.291C89.3644 182.355 89.4789 182.465 89.5481 182.603C89.6174 182.741 89.6371 182.899 89.604 183.05C89.5709 183.201 89.4867 183.337 89.366 183.433C89.2453 183.53 89.0954 183.582 88.9412 183.581L88.9383 183.58Z" fill="white"/>
<path d="M84.4104 192.288C82.5188 192.247 80.6578 191.804 78.9503 190.989C78.8712 190.949 78.8008 190.894 78.7431 190.826C78.6854 190.759 78.6414 190.68 78.614 190.596C78.5866 190.511 78.5763 190.422 78.5835 190.333C78.5906 190.245 78.6152 190.158 78.6558 190.079C78.6963 190 78.7522 189.93 78.82 189.872C78.8877 189.815 78.966 189.771 79.0505 189.744C79.1351 189.717 79.2242 189.707 79.3126 189.715C79.4009 189.723 79.4869 189.748 79.5654 189.789C79.6243 189.819 84.5182 192.262 88.5332 189.897C88.6094 189.852 88.6935 189.823 88.7809 189.81C88.8684 189.798 88.9574 189.803 89.0428 189.826C89.1282 189.848 89.2083 189.887 89.2787 189.94C89.349 189.994 89.4082 190.061 89.4527 190.137C89.4973 190.213 89.5263 190.298 89.5383 190.386C89.5503 190.473 89.545 190.563 89.5226 190.648C89.5002 190.734 89.4613 190.814 89.408 190.885C89.3546 190.956 89.2878 191.015 89.2116 191.06C87.7527 191.902 86.0921 192.327 84.4104 192.288V192.288Z" fill="white"/>
<path d="M162.537 84.2895C162.004 82.9207 160.95 81.8213 159.607 81.233C158.264 80.6447 156.741 80.6158 155.374 81.1526C154.007 81.6895 152.908 82.748 152.318 84.0954C151.728 85.4428 151.696 86.9688 152.228 88.3375C152.252 88.3916 152.27 88.4536 152.291 88.513C151.738 87.1747 150.683 86.1083 149.352 85.5427C148.021 84.9772 146.521 84.9576 145.174 85.4883C142.328 86.607 140.687 89.9249 142.029 92.6719C143.584 95.8595 147.416 97.91 150.822 99.1626C152.359 97.3781 154.167 97.4239 155.076 98.7995C155.371 99.3294 155.526 99.9268 155.524 100.534L155.87 100.61C156.228 100.686 156.601 100.649 156.937 100.502C157.274 100.355 157.556 100.107 157.745 99.7925C159.521 96.8419 164.175 88.4981 162.537 84.2895Z" fill="white"/>
<path d="M156.217 101.039C156.072 101.037 155.929 101.022 155.787 100.992L155.439 100.916C155.353 100.897 155.276 100.85 155.219 100.783C155.162 100.716 155.129 100.632 155.123 100.544C155.127 100.008 154.996 99.4807 154.743 99.0092C154.602 98.7759 154.407 98.5798 154.175 98.4373C153.943 98.2947 153.68 98.2099 153.409 98.1897C152.663 98.1427 151.855 98.5769 151.133 99.4157C151.079 99.4775 151.008 99.5215 150.929 99.542C150.849 99.5624 150.766 99.5583 150.689 99.5302C146.039 97.8251 143.005 95.5744 141.67 92.8383C141.353 92.1813 141.177 91.4645 141.154 90.7343C141.131 90.0042 141.262 89.277 141.537 88.6001C141.847 87.8072 142.317 87.087 142.919 86.4849C143.52 85.8828 144.239 85.412 145.03 85.1021C145.106 85.5574 145.27 85.9932 145.514 86.3845C145.757 86.7759 146.075 87.1151 146.45 87.3829C146.825 87.6507 147.249 87.8419 147.697 87.9454C148.146 88.0489 148.611 88.0628 149.065 87.9863C149.52 87.9097 149.955 87.7442 150.346 87.4993C150.737 87.2543 151.076 86.9347 151.344 86.5587C151.612 86.1826 151.804 85.7575 151.908 85.3076C152.013 84.8577 152.027 84.3917 151.952 83.9365C152.424 82.8583 153.204 81.9438 154.193 81.3088C155.183 80.6738 156.337 80.3468 157.511 80.3691C158.684 80.3914 159.824 80.762 160.786 81.4341C161.748 82.1062 162.489 83.0496 162.915 84.1448V84.1448C164.594 88.4669 160.103 96.664 158.095 99.984C157.9 100.308 157.625 100.576 157.295 100.761C156.966 100.946 156.594 101.042 156.217 101.039ZM155.906 100.191L155.957 100.191C156.234 100.249 156.522 100.22 156.781 100.107C157.04 99.9943 157.258 99.8032 157.404 99.5606C158.923 97.0437 163.755 88.5186 162.162 84.4261C161.668 83.1573 160.691 82.1382 159.446 81.593C158.201 81.0478 156.789 81.021 155.522 81.5188C154.255 82.0165 153.236 82.9978 152.689 84.2469C152.142 85.496 152.112 86.9106 152.606 88.1794L152.661 88.3333L152.661 88.3683C152.696 88.4676 152.69 88.5766 152.646 88.6722C152.602 88.7679 152.522 88.8425 152.424 88.8803C152.326 88.918 152.217 88.9159 152.121 88.8743C152.024 88.8327 151.948 88.755 151.908 88.6577C151.392 87.4189 150.415 86.4315 149.182 85.9053C147.95 85.379 146.561 85.3554 145.31 85.8395C144.625 86.1126 144.002 86.5227 143.48 87.0447C142.958 87.5668 142.547 88.1898 142.273 88.8758C142.039 89.4498 141.928 90.0663 141.947 90.6854C141.965 91.3045 142.114 91.9126 142.381 92.4704C143.884 95.5473 147.681 97.5247 150.701 98.6635C151.547 97.7692 152.519 97.3122 153.447 97.369C153.844 97.3974 154.228 97.5194 154.568 97.725C154.907 97.9306 155.194 98.2141 155.403 98.5521C155.702 99.0488 155.874 99.6112 155.906 100.191V100.191Z" fill="black"/>
<path d="M164.458 83.8262C164.379 83.826 164.301 83.802 164.236 83.7572C164.17 83.7125 164.119 83.649 164.09 83.5751C163.027 80.9316 161.523 79.3235 159.622 78.7915C156.406 77.8947 153.036 80.384 153.001 80.4106C152.915 80.4684 152.81 80.4911 152.708 80.4739C152.606 80.4566 152.515 80.4008 152.453 80.318C152.391 80.2351 152.363 80.1315 152.375 80.0287C152.388 79.9258 152.439 79.8315 152.518 79.7652C152.668 79.6508 156.228 77.0098 159.835 78.0126C161.992 78.6116 163.675 80.3828 164.838 83.2723C164.859 83.3221 164.869 83.3757 164.87 83.4298C164.87 83.4839 164.859 83.5375 164.839 83.5875C164.818 83.6374 164.787 83.6827 164.749 83.7208C164.71 83.7588 164.664 83.7887 164.614 83.8088C164.564 83.8248 164.511 83.8308 164.458 83.8262Z" fill="#1D1D1B"/>
<path d="M197.775 36.3053C196.63 35.6624 195.37 35.2522 194.066 35.0982C192.762 34.9442 191.439 35.0494 190.174 35.4078C188.909 35.7663 187.726 36.3709 186.693 37.1871C185.66 38.0034 184.796 39.0153 184.152 40.1651C184.1 40.2562 184.04 40.3553 183.979 40.4517C185.221 38.1364 185.508 35.4276 184.78 32.9077C184.052 30.3877 182.366 28.2578 180.084 26.9756C175.282 24.2737 168.763 25.8009 166.464 30.8354C162.217 40.1456 168.562 54.2244 171.207 59.3771C171.51 59.9672 171.989 60.4473 172.577 60.7502C173.166 61.0532 173.835 61.1639 174.49 61.0669C180.615 60.1718 197.583 57.0922 201.585 49.9531C202.886 47.6313 203.215 44.8893 202.5 42.33C201.786 39.7706 200.086 37.6035 197.775 36.3053V36.3053Z" fill="white"/>
<path d="M173.997 61.5042C173.345 61.4984 172.707 61.3145 172.152 60.9724C171.597 60.6303 171.146 60.1428 170.848 59.5624C167.995 54.0014 161.815 40.0532 166.098 30.668C166.635 29.5086 167.409 28.4743 168.368 27.632C169.328 26.7896 170.452 26.1578 171.669 25.7775C173.087 25.3152 174.584 25.1518 176.066 25.2976C177.548 25.4434 178.984 25.8952 180.282 26.6246C179.807 28.8466 180.069 31.1611 181.027 33.2161C181.985 35.2712 183.587 36.9544 185.589 38.01C187.591 39.0655 189.884 39.4357 192.119 39.0641C194.354 38.6926 196.41 37.5997 197.972 35.9516C200.375 37.3044 202.141 39.559 202.884 42.2208C203.626 44.8826 203.285 47.7342 201.934 50.1499C197.902 57.3453 181.438 60.4751 174.548 61.4659C174.365 61.4933 174.181 61.5061 173.997 61.5042V61.5042ZM175.065 26.0653C173.998 26.0533 172.935 26.2151 171.918 26.5444C170.807 26.8911 169.781 27.4668 168.905 28.2347C168.028 29.0026 167.321 29.9456 166.83 31.0029C162.698 40.0662 168.763 53.7361 171.566 59.1916C171.831 59.7064 172.249 60.1252 172.763 60.3898C173.277 60.6543 173.861 60.7516 174.433 60.6678C179.718 59.9056 197.269 56.8256 201.233 49.7561C201.872 48.6516 202.287 47.4313 202.453 46.166C202.619 44.9007 202.532 43.6158 202.198 42.3859C201.864 41.1559 201.289 40.0054 200.508 39.0014C199.726 37.9973 198.752 37.1597 197.644 36.5372C196.535 35.9147 195.314 35.5197 194.05 35.3752C192.787 35.2306 191.506 35.3395 190.284 35.6954C189.061 36.0513 187.921 36.6471 186.928 37.4482C185.936 38.2494 185.112 39.2398 184.504 40.362C184.46 40.437 184.414 40.5174 184.364 40.5951L184.323 40.6621L183.624 40.2629C184.803 38.0384 185.072 35.443 184.375 33.0281C183.677 30.6132 182.067 28.5689 179.887 27.3294C178.411 26.5112 176.754 26.0767 175.065 26.0653V26.0653Z" fill="#1D1E1B"/>
<path d="M177.345 34.3299C177.271 34.3297 177.199 34.3092 177.137 34.2707C177.074 34.2321 177.023 34.177 176.99 34.1113C167.262 14.9341 149.228 9.90284 149.051 9.86357C149 9.84985 148.952 9.8262 148.91 9.79389C148.868 9.76158 148.833 9.72123 148.806 9.67524C148.78 9.62926 148.763 9.57851 148.756 9.52585C148.749 9.47319 148.753 9.41965 148.766 9.36833C148.78 9.31702 148.804 9.26895 148.836 9.22679C148.869 9.18463 148.909 9.14921 148.955 9.12262C149.001 9.09603 149.051 9.07873 149.104 9.07176C149.157 9.0648 149.21 9.06833 149.261 9.08204C149.451 9.13489 153.956 10.3651 159.748 14.0217C167.4 18.853 173.606 25.6651 177.714 33.7409C177.76 33.8358 177.768 33.9451 177.734 34.0455C177.701 34.1459 177.63 34.2293 177.536 34.2778C177.478 34.3115 177.412 34.3294 177.345 34.3299V34.3299Z" fill="black"/>
<path d="M171.872 35.0632C171.804 35.0625 171.739 35.0452 171.68 35.0127C171.621 34.9802 171.571 34.9336 171.535 34.8771C163.984 23.0384 154.564 23.2747 154.467 23.2793C154.414 23.2816 154.361 23.2735 154.311 23.2554C154.262 23.2373 154.216 23.2094 154.177 23.1736C154.138 23.1377 154.106 23.0945 154.084 23.0464C154.062 22.9983 154.049 22.9462 154.047 22.8931C154.044 22.84 154.053 22.787 154.071 22.7371C154.089 22.6872 154.117 22.6413 154.153 22.6021C154.189 22.5629 154.232 22.5312 154.28 22.5087C154.328 22.4862 154.38 22.4734 154.433 22.4711C154.836 22.4558 164.396 22.1858 172.211 34.4415C172.25 34.5027 172.272 34.5733 172.274 34.6459C172.277 34.7185 172.259 34.7904 172.224 34.8541C172.189 34.9177 172.138 34.9707 172.075 35.0075C172.012 35.0443 171.941 35.0635 171.869 35.0632L171.872 35.0632Z" fill="black"/>
<path d="M195.375 52.7828C195.26 52.7812 195.148 52.7503 195.048 52.6929C194.948 52.6355 194.865 52.5536 194.805 52.4549C194.76 52.3793 194.73 52.2955 194.718 52.2082C194.705 52.121 194.709 52.032 194.731 51.9465C194.753 51.8609 194.791 51.7806 194.843 51.7098C194.896 51.6391 194.962 51.5794 195.038 51.5343C197.832 49.8484 199.35 47.9009 199.553 45.7426C199.897 42.0979 196.387 38.9271 196.352 38.8945C196.286 38.836 196.232 38.765 196.194 38.6856C196.155 38.6061 196.133 38.5199 196.128 38.4317C196.122 38.3434 196.134 38.255 196.163 38.1714C196.192 38.0878 196.237 38.0106 196.296 37.9444C196.354 37.8782 196.425 37.8241 196.504 37.7853C196.583 37.7465 196.669 37.7237 196.757 37.7183C196.845 37.7128 196.934 37.7248 197.017 37.7535C197.1 37.7822 197.177 37.8271 197.243 37.8856C197.408 38.0324 201.29 41.5319 200.888 45.8567C200.647 48.4693 198.911 50.7646 195.717 52.6863C195.614 52.7488 195.496 52.7821 195.375 52.7828Z" fill="white"/>
<path d="M48.9845 27.7891C48.4196 28.0836 47.918 28.4867 47.5083 28.9755C47.0985 29.4643 46.7887 30.0292 46.5967 30.6376C46.4046 31.2461 46.3339 31.8862 46.3889 32.5213C46.444 33.1564 46.6236 33.7741 46.9172 34.3388C46.9409 34.3848 46.9643 34.4362 46.9879 34.4876C46.3846 33.3707 45.3671 32.5376 44.1547 32.1679C42.9423 31.7983 41.6324 31.9218 40.5073 32.5117C38.1329 33.7541 37.0161 36.7899 38.44 39.0641C41.0773 43.2444 48.4456 44.3824 51.2322 44.6703C51.5511 44.7024 51.8724 44.634 52.1514 44.4748C52.4303 44.3156 52.6531 44.0733 52.7889 43.7817C54.0579 41.0568 57.3307 33.3516 55.5127 29.8435C55.2207 29.2775 54.8199 28.7752 54.3334 28.3654C53.8469 27.9557 53.2845 27.6465 52.6779 27.4556C52.0714 27.2648 51.4329 27.196 50.7991 27.2532C50.1653 27.3104 49.5486 27.4925 48.9845 27.7891Z" fill="white"/>
<path d="M51.359 45.0807L51.1791 45.0792C48.1432 44.7675 40.7889 43.5812 38.0884 39.2873C37.7481 38.7389 37.5264 38.1247 37.4375 37.4844C37.3486 36.8441 37.3945 36.1918 37.5724 35.5696C37.7688 34.8449 38.1121 34.1683 38.5808 33.5821C39.0495 32.9958 39.6336 32.5126 40.2965 32.1626C41.1067 32.8104 42.0912 33.2018 43.1252 33.2871C44.1593 33.3723 45.1962 33.1476 46.1043 32.6413C47.0125 32.1351 47.7512 31.3703 48.2264 30.4438C48.7016 29.5172 48.8921 28.4708 48.7737 27.4373C50.0074 26.7923 51.4443 26.6633 52.7697 27.0785C54.0952 27.4937 55.2011 28.4192 55.8449 29.6524C57.7207 33.2714 54.5704 40.8539 53.128 43.9489C52.9713 44.287 52.7215 44.5732 52.408 44.7738C52.0945 44.9744 51.7304 45.0809 51.359 45.0807V45.0807ZM42.7563 32.3696C42.0349 32.3622 41.3224 32.5346 40.683 32.8714C40.118 33.1702 39.6195 33.5814 39.2181 34.0799C38.8167 34.5784 38.521 35.1535 38.3489 35.7701C38.2006 36.285 38.1615 36.8249 38.234 37.3552C38.3066 37.8855 38.489 38.3943 38.7699 38.8489C41.2805 42.8423 48.3431 43.9668 51.2637 44.2667C51.499 44.2909 51.7362 44.2407 51.9421 44.1232C52.148 44.0058 52.3125 43.8269 52.4124 43.6115C53.4969 41.2809 56.9029 33.4179 55.1426 30.0288C54.5998 28.9836 53.6649 28.1983 52.5433 27.8453C51.4217 27.4924 50.2049 27.6005 49.1602 28.1461C48.1157 28.6935 47.3293 29.6335 46.9736 30.7597C46.6179 31.886 46.7221 33.1065 47.2631 34.1534C47.2841 34.1913 47.3023 34.2318 47.3233 34.2751L47.3418 34.3102L46.6233 34.681C46.2425 33.9855 45.6835 33.4047 45.0039 32.9984C44.3243 32.5922 43.5485 32.3751 42.7563 32.3696V32.3696Z" fill="#1D1E1B"/>
<path d="M51.4106 30.832C51.3442 30.831 51.2792 30.8138 51.2212 30.7818C51.1631 30.7498 51.1138 30.704 51.0775 30.6484C51.0413 30.5927 51.0192 30.529 51.0132 30.4628C51.0072 30.3966 51.0177 30.3299 51.0434 30.2686C51.1179 30.0942 52.9185 25.9335 57.2283 21.5529C61.2093 17.5087 68.1585 12.551 78.6716 11.8802C78.7246 11.8768 78.7779 11.8838 78.8281 11.901C78.8782 11.9181 78.9246 11.945 78.9644 11.9802C79.0042 12.0153 79.0365 12.0579 79.0598 12.1057C79.0832 12.1534 79.0968 12.2053 79.1001 12.2584C79.1034 12.3114 79.0962 12.3646 79.079 12.415C79.0618 12.4653 79.0349 12.5118 78.9998 12.5517C78.9647 12.5917 78.922 12.6243 78.8744 12.6478C78.8267 12.6713 78.775 12.6851 78.722 12.6885C68.4778 13.3402 61.7046 18.1621 57.8269 22.0942C53.6123 26.3652 51.8033 30.5447 51.7841 30.5849C51.7536 30.6588 51.7017 30.7219 51.6351 30.766C51.5685 30.81 51.4903 30.833 51.4106 30.832V30.832Z" fill="black"/>
<path d="M49.477 20.03C49.402 20.0283 49.3288 20.0063 49.2655 19.9661C49.2208 19.938 49.1821 19.9012 49.1517 19.8579C49.1214 19.8147 49.1 19.7659 49.0885 19.7142C49.0771 19.6626 49.076 19.6091 49.0853 19.557C49.0946 19.5048 49.114 19.455 49.1425 19.4104C49.2054 19.3114 55.5585 9.38549 65.7998 5.67828C65.8982 5.65215 66.0027 5.66431 66.0924 5.71231C66.1822 5.76032 66.2503 5.84059 66.2833 5.93703C66.3163 6.03348 66.3115 6.1389 66.2701 6.23217C66.2286 6.32543 66.1537 6.3996 66.06 6.43976C56.0804 10.0497 49.8694 19.7562 49.8094 19.8418C49.7734 19.8979 49.7244 19.9444 49.6665 19.9772C49.6085 20.01 49.5435 20.0281 49.477 20.03V20.03Z" fill="black"/>
<path d="M51.8737 42.4551C51.7596 42.4544 51.6479 42.4243 51.5488 42.3677C51.4498 42.3112 51.3666 42.2302 51.3077 42.1323C51.2489 42.0343 51.2161 41.9228 51.2124 41.8084C51.2087 41.694 51.2343 41.5805 51.2867 41.4788C54.1108 35.9602 53.656 32.0208 53.651 31.9804C53.6314 31.8053 53.6811 31.6292 53.7894 31.4902C53.8978 31.3512 54.0561 31.2603 54.2303 31.2372C54.4045 31.214 54.5805 31.2605 54.7207 31.3665C54.8608 31.4726 54.954 31.6297 54.9797 31.8041C55.0045 31.9791 55.5077 36.1664 52.4781 42.0893C52.4213 42.2007 52.3346 42.2941 52.2278 42.3587C52.121 42.4234 51.9983 42.4568 51.8737 42.4551V42.4551Z" fill="white"/>
</g>
<defs>
<clipPath id="clip0_7277_2685">
<rect width="222" height="222" fill="white"/>
</clipPath>
</defs>
</svg>
