<svg width="133" height="107" viewBox="0 0 133 107" fill="none" xmlns="http://www.w3.org/2000/svg">
<g clip-path="url(#clip0_7227:2400)">
<path d="M73.7873 -41.8512C56.8728 -31.8828 51.2449 -10.0992 61.2093 6.81757C71.189 23.7374 92.9681 29.36 109.884 19.3894C126.8 9.41883 132.431 -12.3691 122.454 -29.2814L104.401 -59.906L73.7873 -41.8512Z" fill="#333346"/>
<path d="M92.0942 88.2154C109.009 78.2511 114.642 56.4614 104.676 39.5536C94.701 22.6297 72.9082 17.0113 55.9954 26.9801C39.0875 36.946 33.4565 58.7381 43.4316 75.6526L61.4826 106.277L92.0942 88.2154Z" fill="#333346"/>
<path d="M148.611 54.9222C138.987 60.5945 126.586 57.3903 120.914 47.7667C115.241 38.1421 118.444 25.7417 128.068 20.0694C137.692 14.3964 150.093 17.5996 155.766 27.2243C161.438 36.8479 158.235 49.2492 148.611 54.9222Z" fill="#333346"/>
<path d="M33.0722 23.2276C24.6522 28.1906 13.7969 25.3839 8.83339 16.9629C3.87043 8.54284 6.67702 -2.30565 15.097 -7.2686C23.5151 -12.2304 34.3666 -9.4323 39.3301 -1.01128C44.2937 7.40975 41.4902 18.2658 33.0722 23.2276Z" fill="#333346"/>
</g>
<defs>
<clipPath id="clip0_7227:2400">
<rect width="133" height="107" fill="white"/>
</clipPath>
</defs>
</svg>
