<svg width="130" height="130" viewBox="0 0 130 130" fill="none" xmlns="http://www.w3.org/2000/svg">
<path d="M65 4.0625C52.9477 4.06246 41.1661 7.63636 31.1449 14.3322C21.1238 21.0281 13.3133 30.5453 8.70109 41.6802C4.08888 52.815 2.88213 65.0675 5.23345 76.8882C7.58477 88.709 13.3885 99.567 21.9108 108.089C27.569 113.749 34.2868 118.24 41.6805 121.304C49.0742 124.367 56.999 125.945 65.0024 125.945C73.0058 125.946 80.9309 124.37 88.3252 121.308C95.7195 118.246 102.438 113.757 108.097 108.097C113.757 102.438 118.246 95.7195 121.308 88.3252C124.37 80.9309 125.946 73.0058 125.945 65.0024C125.945 56.999 124.367 49.0742 121.304 41.6805C118.24 34.2868 113.749 27.569 108.089 21.9108C102.444 16.2345 95.7287 11.7342 88.3324 8.67054C80.9362 5.60687 73.0057 4.04064 65 4.0625V4.0625ZM105.217 105.217C99.9355 110.499 93.6656 114.689 86.765 117.548C79.8644 120.407 72.4682 121.879 64.9988 121.879C57.5295 121.879 50.1331 120.408 43.2322 117.55C36.3314 114.692 30.0611 110.502 24.7794 105.221C19.4977 99.939 15.3082 93.6687 12.4499 86.7678C9.59169 79.8669 8.12076 72.4706 8.12113 65.0012C8.1215 57.5318 9.59317 50.1356 12.4521 43.235C15.311 36.3344 19.5012 30.0645 24.7834 24.7834C30.0645 19.5012 36.3344 15.311 43.235 12.4521C50.1356 9.59315 57.5318 8.12148 65.0012 8.1211C72.4706 8.12073 79.8669 9.59166 86.7678 12.4499C93.6687 15.3081 99.939 19.4977 105.221 24.7794C110.502 30.061 114.692 36.3313 117.55 43.2322C120.408 50.1331 121.879 57.5294 121.879 64.9988C121.879 72.4682 120.407 79.8644 117.548 86.765C114.689 93.6656 110.499 99.9355 105.217 105.217V105.217Z" fill="#E0C6A0"/>
<path d="M54.8438 60.9375H70.0499C72.4562 60.9398 74.8091 60.2275 76.8101 58.8909L76.8104 58.8906C78.5908 57.7037 79.9421 55.9754 80.6646 53.9612C81.387 51.947 81.4423 49.7539 80.8222 47.7059C80.2021 45.6579 78.9396 43.8637 77.2212 42.5886C75.5028 41.3135 73.4198 40.625 71.28 40.625H54.8438C54.305 40.625 53.7884 40.839 53.4075 41.22C53.0265 41.6009 52.8125 42.1175 52.8125 42.6563V58.9063C52.8125 59.445 53.0265 59.9616 53.4075 60.3425C53.7884 60.7235 54.305 60.9375 54.8438 60.9375ZM56.875 44.6875H71.28C72.5479 44.6875 73.7821 45.0955 74.8003 45.851C75.8185 46.6066 76.5666 47.6697 76.934 48.8832C77.3014 50.0967 77.2687 51.3962 76.8406 52.5896C76.4126 53.7831 75.6119 54.8072 74.5569 55.5105C73.2228 56.4016 71.6542 56.8765 70.0499 56.875H56.875V44.6875Z" fill="#E0C6A0"/>
<path d="M54.8438 89.375H74.4935C76.9307 89.375 79.2965 88.5521 81.2076 87.0397C83.1187 85.5272 84.4631 83.4137 85.0231 81.0417C85.583 78.6697 85.3257 76.1782 84.2927 73.9707C83.2598 71.7632 81.5117 69.9692 79.3318 68.8793C76.9 67.6671 74.2205 67.0346 71.5034 67.0312H54.8438C54.305 67.0313 53.7884 67.2453 53.4075 67.6262C53.0265 68.0071 52.8125 68.5238 52.8125 69.0625V87.3438C52.8125 87.8825 53.0265 88.3991 53.4075 88.78C53.7884 89.161 54.305 89.375 54.8438 89.375ZM56.875 71.0938H71.5034C73.5899 71.0963 75.6476 71.582 77.515 72.5128C78.8764 73.1935 79.9681 74.3138 80.6131 75.6924C81.2582 77.071 81.4189 78.627 81.0693 80.1083C80.7196 81.5896 79.88 82.9095 78.6865 83.8541C77.493 84.7986 76.0155 85.3125 74.4935 85.3125H56.875V71.0938Z" fill="#E0C6A0"/>
<path d="M28.0135 36.4541L24.799 33.9701C23.4136 35.7633 22.149 37.6467 21.0137 39.6079L24.5302 41.6421C25.5749 39.8374 26.7386 38.1042 28.0135 36.4541V36.4541Z" fill="#E0C6A0"/>
<path d="M53.3188 19.7529L52.3062 15.8188C50.1459 16.3753 48.0248 17.0741 45.9568 17.9105L47.4807 21.6765C49.3823 20.9073 51.3325 20.2647 53.3188 19.7529V19.7529Z" fill="#E0C6A0"/>
<path d="M65 14.2188C62.8789 14.2188 60.7598 14.35 58.6549 14.6115L59.1577 18.6428C61.0959 18.402 63.047 18.2813 65 18.2812C90.7609 18.2813 111.719 39.2392 111.719 65C111.719 90.7608 90.7609 111.719 65 111.719C39.2392 111.719 18.2813 90.7608 18.2813 65C18.2674 58.5641 19.593 52.1958 22.1737 46.3L18.4514 44.6724C15.6457 51.0813 14.2043 58.0039 14.2188 65C14.2188 93.0009 36.9992 115.781 65 115.781C93.0009 115.781 115.781 93.0009 115.781 65C115.781 36.9991 93.0009 14.2188 65 14.2188Z" fill="#E0C6A0"/>
<path d="M40.625 97.5H48.75V103.594C48.75 104.132 48.964 104.649 49.345 105.03C49.7259 105.411 50.2425 105.625 50.7812 105.625H58.9062C59.445 105.625 59.9616 105.411 60.3425 105.03C60.7235 104.649 60.9375 104.132 60.9375 103.594V97.5H65V103.594C65 104.132 65.214 104.649 65.595 105.03C65.9759 105.411 66.4925 105.625 67.0312 105.625H75.1562C75.695 105.625 76.2116 105.411 76.5925 105.03C76.9735 104.649 77.1875 104.132 77.1875 103.594V97.4903C81.2394 97.3594 85.1417 95.9284 88.3178 93.409C91.4938 90.8895 93.7752 87.4152 94.8247 83.4994C95.8742 79.5836 95.6362 75.434 94.1459 71.6639C92.6556 67.8937 89.9921 64.703 86.5488 62.5631C88.7255 60.2542 90.2468 57.4063 90.9556 54.3132C91.6644 51.2202 91.5352 47.9941 90.5812 44.9677C89.6272 41.9412 87.8831 39.2242 85.5286 37.0967C83.1742 34.9693 80.2948 33.5086 77.1875 32.8652V26.4063C77.1875 25.8675 76.9735 25.3509 76.5925 24.97C76.2116 24.589 75.695 24.375 75.1562 24.375H67.0312C66.4925 24.375 65.9759 24.589 65.595 24.97C65.214 25.3509 65 25.8675 65 26.4063V32.5H60.9375V26.4063C60.9375 25.8675 60.7235 25.3509 60.3425 24.97C59.9616 24.589 59.445 24.375 58.9062 24.375H50.7812C50.2425 24.375 49.7259 24.589 49.345 24.97C48.964 25.3509 48.75 25.8675 48.75 26.4063V32.5H40.625C40.0863 32.5 39.5696 32.714 39.1887 33.095C38.8078 33.4759 38.5938 33.9925 38.5938 34.5313V42.6563C38.5938 43.195 38.8078 43.7116 39.1887 44.0925C39.5696 44.4735 40.0863 44.6875 40.625 44.6875H42.6562V85.3125H40.625C40.0863 85.3125 39.5696 85.5265 39.1887 85.9075C38.8078 86.2884 38.5938 86.805 38.5938 87.3438V95.4688C38.5938 96.0075 38.8078 96.5241 39.1887 96.905C39.5696 97.286 40.0863 97.5 40.625 97.5V97.5ZM42.6562 89.375H44.6875C45.2262 89.375 45.7429 89.161 46.1238 88.78C46.5047 88.3991 46.7187 87.8825 46.7188 87.3438V42.6563C46.7187 42.1175 46.5047 41.6009 46.1238 41.22C45.7429 40.839 45.2262 40.625 44.6875 40.625H42.6562V36.5625H50.7812C51.32 36.5625 51.8366 36.3485 52.2175 35.9675C52.5985 35.5866 52.8125 35.07 52.8125 34.5313V28.4375H56.875V34.5313C56.875 35.07 57.089 35.5866 57.47 35.9675C57.8509 36.3485 58.3675 36.5625 58.9062 36.5625H67.0312C67.57 36.5625 68.0866 36.3485 68.4675 35.9675C68.8485 35.5866 69.0625 35.07 69.0625 34.5313V28.4375H73.125V34.6101C73.125 35.1141 73.3123 35.6 73.6506 35.9736C73.9888 36.3472 74.4539 36.5816 74.9554 36.6314C77.5478 36.8926 80.0129 37.884 82.0642 39.4904C84.1156 41.0968 85.669 43.2523 86.5441 45.7065C87.4191 48.1607 87.5798 50.8128 87.0075 53.3546C86.4352 55.8965 85.1534 58.2238 83.311 60.0662L81.8449 61.5323C81.6266 61.7506 81.4609 62.0158 81.3605 62.3077C81.26 62.5996 81.2274 62.9106 81.2651 63.2169C81.3028 63.5233 81.4099 63.8171 81.5781 64.0759C81.7464 64.3347 81.9714 64.5518 82.2361 64.7106L84.2066 65.8929C86.9875 67.5614 89.1447 70.0955 90.3479 73.1071C91.5511 76.1186 91.7339 79.4416 90.8682 82.5669C90.0025 85.6923 88.1362 88.4477 85.555 90.411C82.9739 92.3744 79.8203 93.4375 76.5773 93.4375H75.1562C74.6175 93.4375 74.1009 93.6515 73.72 94.0325C73.339 94.4134 73.125 94.93 73.125 95.4688V101.563H69.0625V95.4688C69.0625 94.93 68.8485 94.4134 68.4675 94.0325C68.0866 93.6515 67.57 93.4375 67.0312 93.4375H58.9062C58.3675 93.4375 57.8509 93.6515 57.47 94.0325C57.089 94.4134 56.875 94.93 56.875 95.4688V101.563H52.8125V95.4688C52.8125 94.93 52.5985 94.4134 52.2175 94.0325C51.8366 93.6515 51.32 93.4375 50.7812 93.4375H42.6562V89.375Z" fill="#E0C6A0"/>
</svg>
