<svg width="130" height="130" viewBox="0 0 130 130" fill="none" xmlns="http://www.w3.org/2000/svg">
<path d="M65 4.0625C52.9477 4.06248 41.1661 7.63638 31.1449 14.3323C21.1238 21.0282 13.3133 30.5453 8.70109 41.6801C4.08887 52.815 2.88211 65.0675 5.2334 76.8882C7.58469 88.7089 13.3884 99.5669 21.9107 108.089C27.5692 113.748 34.2869 118.236 41.6802 121.299C49.0734 124.361 56.9975 125.937 64.9999 125.937C73.0023 125.937 80.9264 124.361 88.3196 121.299C95.7129 118.236 102.431 113.748 108.089 108.089C113.748 102.431 118.236 95.7131 121.299 88.3198C124.361 80.9265 125.937 73.0025 125.937 65.0001C125.937 56.9977 124.361 49.0736 121.299 41.6804C118.236 34.2871 113.748 27.5694 108.089 21.9108C102.444 16.2345 95.7287 11.7342 88.3324 8.67057C80.9362 5.6069 73.0057 4.04066 65 4.0625V4.0625ZM105.217 105.217C99.9358 110.5 93.6659 114.691 86.765 117.55C79.8642 120.41 72.4676 121.882 64.9977 121.883C57.5278 121.884 50.1309 120.413 43.2295 117.555C36.328 114.697 30.0572 110.507 24.7752 105.225C19.4932 99.9429 15.3034 93.6721 12.4451 86.7707C9.58685 79.8693 8.1161 72.4724 8.11685 65.0025C8.11759 57.5326 9.58983 50.136 12.4495 43.2351C15.3091 36.3343 19.5002 30.0643 24.7833 24.7834C30.0642 19.5003 36.3341 15.3092 43.235 12.4496C50.1358 9.58988 57.5324 8.11762 65.0023 8.11685C72.4722 8.11608 79.8691 9.58681 86.7705 12.4451C93.672 15.3033 99.9428 19.4931 105.225 24.7751C110.507 30.0571 114.697 36.3279 117.555 43.2293C120.413 50.1307 121.884 57.5276 121.883 64.9975C121.882 72.4674 120.41 79.864 117.551 86.7649C114.691 93.6657 110.5 99.9357 105.217 105.217V105.217Z" fill="#B2CED3"/>
<path d="M61.6434 67.4543C59.9992 68.2784 58.158 68.6287 56.326 68.4661C54.494 68.3034 52.7433 67.6342 51.27 66.5333L52.2953 64.4827L55.7521 62.7543C56.0895 62.5856 56.3733 62.3263 56.5716 62.0054C56.7699 61.6845 56.875 61.3147 56.875 60.9375C56.875 60.5603 56.7699 60.1905 56.5716 59.8696C56.3733 59.5487 56.0895 59.2894 55.7521 59.1207L51.6896 57.0895C51.3799 56.9346 51.0358 56.8614 50.6899 56.877C50.344 56.8925 50.0078 56.9962 49.7133 57.1783C49.4187 57.3603 49.1756 57.6146 49.007 57.917C48.8384 58.2195 48.7499 58.56 48.75 58.9063V62.4892L47.5712 64.8468C46.9505 64.6816 46.3722 64.3858 45.8749 63.9793C45.3776 63.5727 44.9728 63.0647 44.6875 62.4892L41.054 64.3062C41.7 65.6083 42.6674 66.7242 43.8648 67.5483C45.0621 68.3724 46.4499 68.8776 47.8968 69.016C49.9843 70.8818 52.5845 72.077 55.3599 72.4465C58.1352 72.8159 60.9575 72.3426 63.4604 71.0878L61.6434 67.4543Z" fill="#B2CED3"/>
<path d="M66.0156 56.875C67.6984 56.875 69.0625 55.5109 69.0625 53.8281C69.0625 52.1454 67.6984 50.7812 66.0156 50.7812C64.3329 50.7812 62.9688 52.1454 62.9688 53.8281C62.9688 55.5109 64.3329 56.875 66.0156 56.875Z" fill="#B2CED3"/>
<path d="M51.7969 53.8281C53.4796 53.8281 54.8438 52.464 54.8438 50.7812C54.8438 49.0985 53.4796 47.7344 51.7969 47.7344C50.1141 47.7344 48.75 49.0985 48.75 50.7812C48.75 52.464 50.1141 53.8281 51.7969 53.8281Z" fill="#B2CED3"/>
<path d="M28.0134 36.4544L24.7991 33.9699C23.4136 35.7631 22.149 37.6466 21.0136 39.6079L24.5301 41.6421C25.5748 39.8375 26.7385 38.1044 28.0134 36.4544V36.4544Z" fill="#B2CED3"/>
<path d="M53.3188 19.7529L52.3062 15.8188C50.1459 16.3754 48.0248 17.0741 45.9568 17.9105L47.4807 21.6765C49.3823 20.9073 51.3325 20.2647 53.3188 19.7529V19.7529Z" fill="#B2CED3"/>
<path d="M65 14.2188C62.8789 14.2188 60.7598 14.35 58.6548 14.6115L59.1577 18.6428C61.0958 18.402 63.047 18.2813 65 18.2812C90.7608 18.2812 111.719 39.2392 111.719 65C111.729 75.3106 108.311 85.3319 102.002 93.487L95.458 78.7636C96.5937 75.5937 96.7119 72.1485 95.7962 68.9083L89.375 46.4343V36.892C89.3766 35.1864 88.8406 33.5237 87.8433 32.14C86.846 30.7564 85.438 29.7222 83.8194 29.1843C82.8829 28.8685 81.8767 28.8214 80.9148 29.0484C79.9529 29.2755 79.0739 29.7675 78.3774 30.4688L72.4864 36.3597C69.2881 35.6686 66.0095 35.4243 62.7442 35.6339L60.5085 31.1625C59.7982 29.7299 58.7007 28.5249 57.3404 27.6842C55.9802 26.8435 54.4116 26.4008 52.8125 26.4062C52.3317 26.4063 51.8664 26.5768 51.4996 26.8876C51.1327 27.1984 50.8879 27.6292 50.8089 28.1035L48.9855 39.0433C46.4774 39.922 44.2404 41.4371 42.4938 43.4403C40.7473 45.4434 39.5509 47.8658 39.022 50.4703L38.7497 51.8318C36.802 53.9403 35.4079 56.4992 34.6926 59.279C33.9772 62.0588 33.9628 64.9727 34.6508 67.7595C35.6544 71.7908 37.725 75.4776 40.6452 78.4325L27.7527 93.1669C22.7454 86.5538 19.5893 78.7266 18.6087 70.4898C17.6282 62.2531 18.8586 53.9037 22.1735 46.3L18.4515 44.6724C15.6457 51.0813 14.2042 58.0039 14.2187 65C14.2187 93.0009 36.9991 115.781 65 115.781C93.0008 115.781 115.781 93.0009 115.781 65C115.781 36.9991 93.0008 14.2188 65 14.2188ZM66.7885 111.681L66.4534 109.001C65.9689 105.03 64.5818 101.223 62.3986 97.8714C60.2153 94.5197 57.2937 91.7123 53.8576 89.6644L51.7674 93.1481C54.674 94.8804 57.1454 97.2551 58.9923 100.09C60.8392 102.925 62.0125 106.146 62.4224 109.505L62.6919 111.661C56.5621 111.359 50.5522 109.85 45.007 107.22C39.4618 104.59 34.4905 100.891 30.3782 96.3352L43.7432 81.061C47.6576 83.8319 52.3365 85.3176 57.1324 85.3125C62.6487 85.3121 68.0612 83.813 72.7916 80.9753L76.2014 78.9294L74.1111 75.4456L70.7015 77.4915C66.6025 79.9506 61.9123 81.2497 57.1322 81.25C52.869 81.2548 48.7269 79.8319 45.3666 77.2082C42.0063 74.5846 39.6213 70.9112 38.592 66.7741C38.0462 64.5642 38.0786 62.2509 38.6863 60.0572C39.2939 57.8634 40.4562 55.8631 42.0613 54.2489C42.3448 53.9653 42.5381 53.6042 42.6168 53.211L43.0056 51.2672C43.4271 49.1898 44.4269 47.2736 45.8897 45.7394C47.3525 44.2053 49.2189 43.1154 51.2739 42.5955C51.6578 42.4996 52.0053 42.2936 52.2737 42.0028C52.5422 41.7121 52.7198 41.3493 52.7848 40.959L54.481 30.7824C55.5237 31.1927 56.3769 31.9757 56.875 32.9795L59.7258 38.681C59.9102 39.0507 60.203 39.3553 60.5652 39.554C60.9273 39.7527 61.3416 39.836 61.7524 39.7929C65.3962 39.4128 69.0785 39.6739 72.6323 40.5643C72.9726 40.6495 73.3291 40.6452 73.6672 40.5516C74.0053 40.4579 74.3133 40.2783 74.5613 40.0302L81.25 33.3416C81.4145 33.1762 81.622 33.0601 81.849 33.0065C82.076 32.9529 82.3135 32.9639 82.5346 33.0383C83.344 33.3072 84.048 33.8242 84.5466 34.516C85.0453 35.2079 85.3133 36.0392 85.3125 36.892V46.7188C85.3125 46.9074 85.3388 47.0952 85.3906 47.2766L91.8899 70.0246C92.3262 71.5656 92.4519 73.178 92.2595 74.768C92.0671 76.358 91.5605 77.8939 90.7692 79.2864L85.5802 88.3673L89.1073 90.3827L93.0837 83.4241L99.0813 96.9186C90.687 105.908 79.0791 111.215 66.7885 111.681V111.681Z" fill="#B2CED3"/>
<path d="M79.1807 38.2617L77.364 41.8953C78.0519 42.2429 78.5924 42.8256 78.8873 43.5377C79.1823 44.2498 79.2122 45.044 78.9716 45.7763L82.8255 47.0612C83.3712 45.401 83.3035 43.6002 82.6347 41.9856C81.966 40.3711 80.7405 39.0498 79.1807 38.2617V38.2617Z" fill="#B2CED3"/>
</svg>
