<svg width="130" height="130" viewBox="0 0 130 130" fill="none" xmlns="http://www.w3.org/2000/svg">
<path d="M108.089 21.9108C102.431 16.2505 95.7132 11.7603 88.3195 8.69645C80.9258 5.63265 73.001 4.05533 64.9976 4.05458C56.9942 4.05382 49.0691 5.62965 41.6748 8.69206C34.2805 11.7545 27.5619 16.2435 21.9027 21.9027C16.2435 27.5619 11.7545 34.2805 8.69204 41.6748C5.62964 49.0691 4.05381 56.9943 4.05457 64.9976C4.05532 73.001 5.63264 80.9258 8.69644 88.3195C11.7602 95.7133 16.2505 102.431 21.9108 108.089C27.569 113.749 34.2867 118.24 41.6805 121.304C49.0742 124.367 56.999 125.945 65.0024 125.945C73.0057 125.946 80.9309 124.37 88.3252 121.308C95.7195 118.246 102.438 113.757 108.097 108.097C113.757 102.438 118.246 95.7195 121.308 88.3252C124.37 80.9309 125.946 73.0058 125.945 65.0024C125.945 56.999 124.367 49.0742 121.304 41.6805C118.24 34.2868 113.749 27.569 108.089 21.9108V21.9108ZM105.217 105.217C99.9355 110.499 93.6656 114.689 86.765 117.548C79.8644 120.407 72.4682 121.879 64.9988 121.879C57.5294 121.879 50.1331 120.408 43.2322 117.55C36.3313 114.692 30.061 110.502 24.7794 105.221C19.4977 99.939 15.3081 93.6687 12.4499 86.7678C9.59165 79.8669 8.12072 72.4706 8.12109 65.0012C8.12147 57.5318 9.59313 50.1356 12.4521 43.235C15.311 36.3344 19.5012 30.0645 24.7834 24.7834C30.0645 19.5012 36.3344 15.311 43.235 12.4521C50.1356 9.59315 57.5318 8.12148 65.0012 8.1211C72.4706 8.12073 79.8669 9.59166 86.7678 12.4499C93.6687 15.3081 99.939 19.4977 105.221 24.7794C110.502 30.061 114.692 36.3313 117.55 43.2322C120.408 50.1331 121.879 57.5294 121.879 64.9988C121.879 72.4682 120.407 79.8644 117.548 86.765C114.689 93.6656 110.499 99.9355 105.217 105.217V105.217Z" fill="#EBC3E5"/>
<path d="M28.0135 36.4541L24.799 33.9701C23.4136 35.7633 22.149 37.6467 21.0137 39.6079L24.5302 41.6421C25.5749 39.8374 26.7386 38.1042 28.0135 36.4541V36.4541Z" fill="#EBC3E5"/>
<path d="M53.3188 19.7529L52.3062 15.8188C50.1459 16.3753 48.0248 17.0741 45.9568 17.9105L47.4807 21.6765C49.3823 20.9073 51.3325 20.2647 53.3188 19.7529V19.7529Z" fill="#EBC3E5"/>
<path d="M65 14.2188C62.8789 14.2188 60.7598 14.35 58.6548 14.6115L59.1577 18.6428C61.0958 18.402 63.047 18.2813 65 18.2812C90.7608 18.2813 111.719 39.2392 111.719 65C111.719 90.7608 90.7608 111.719 65 111.719C39.2392 111.719 18.2812 90.7608 18.2812 65C18.2674 58.5641 19.5929 52.1958 22.1736 46.3L18.4513 44.6724C15.6456 51.0813 14.2042 58.0039 14.2187 65C14.2187 93.0009 36.9991 115.781 65 115.781C93.0008 115.781 115.781 93.0009 115.781 65C115.781 36.9991 93.0008 14.2188 65 14.2188Z" fill="#EBC3E5"/>
<path d="M43.9332 54.6985L64.2457 62.8235C64.7299 63.0172 65.2701 63.0172 65.7543 62.8235L86.0668 54.6985C86.3582 54.5819 86.6187 54.3994 86.8277 54.1653C87.0368 53.9311 87.1887 53.6517 87.2716 53.349C87.3545 53.0463 87.3662 52.7284 87.3056 52.4205C87.245 52.1125 87.1139 51.8227 86.9225 51.574L66.61 25.1677C66.4203 24.9211 66.1764 24.7214 65.8973 24.5839C65.6181 24.4465 65.3112 24.375 65 24.375C64.6889 24.375 64.3819 24.4465 64.1027 24.5839C63.8236 24.7214 63.5798 24.9211 63.39 25.1677L43.0775 51.574C42.8861 51.8227 42.755 52.1125 42.6944 52.4205C42.6339 52.7284 42.6455 53.0463 42.7284 53.349C42.8113 53.6517 42.9632 53.9311 43.1723 54.1653C43.3813 54.3994 43.6418 54.5819 43.9332 54.6985V54.6985ZM62.9688 57.9373L50.8426 53.0867L62.9688 49.4489V57.9373ZM67.0313 49.4489L79.1575 53.0867L67.0313 57.9373V49.4489ZM67.0313 45.2073V32.3784L79.8604 49.056L67.0313 45.2073ZM62.9688 45.2073L50.1396 49.0561L62.9688 32.3784V45.2073Z" fill="#EBC3E5"/>
<path d="M63.1832 104.502C63.3519 104.84 63.6113 105.123 63.9321 105.322C64.253 105.52 64.6228 105.625 65 105.625C65.3772 105.625 65.747 105.52 66.0678 105.322C66.3887 105.123 66.648 104.84 66.8168 104.502L87.1293 63.8773C87.3135 63.5088 87.3813 63.0931 87.3238 62.6852C87.2663 62.2774 87.0862 61.8966 86.8073 61.5935C86.5284 61.2904 86.1639 61.0792 85.7623 60.988C85.3606 60.8968 84.9407 60.9298 84.5582 61.0828L65 68.906L45.4418 61.0828C45.0593 60.9298 44.6394 60.8968 44.2377 60.988C43.836 61.0792 43.4716 61.2904 43.1927 61.5935C42.9138 61.8966 42.7336 62.2774 42.6761 62.6852C42.6186 63.0931 42.6865 63.5088 42.8707 63.8773L63.1832 104.502ZM67.0312 94.9892V72.4689L81.1064 66.8388L67.0312 94.9892ZM62.9687 72.4689V94.9892L48.8936 66.8388L62.9687 72.4689Z" fill="#EBC3E5"/>
</svg>
