<svg width="24" height="24" viewBox="0 0 24 24" fill="none" xmlns="http://www.w3.org/2000/svg">
<path d="M19.4 13.9411L10.7 5.24112C10.4 4.94112 10 4.84104 9.60001 5.04104C9.20001 5.24104 9 5.54107 9 5.94107V18.2411C9 18.6411 9.20001 18.941 9.60001 19.141C9.70001 19.241 9.9 19.2411 10 19.2411C10.2 19.2411 10.4 19.141 10.6 19.041C11.4 18.441 12.1 17.941 12.9 17.541L14.4 21.041C14.6 21.641 15.2 21.9411 15.8 21.9411C16 21.9411 16.2 21.9411 16.4 21.8411C17.2 21.5411 17.5 20.6411 17.2 19.8411L15.7 16.2411C16.7 15.9411 17.7 15.741 18.8 15.541C19.2 15.541 19.5 15.2411 19.6 14.8411C19.8 14.6411 19.7 14.2411 19.4 13.9411Z" fill="currentColor"/>
<path opacity="0.3" d="M15 6.941C14.8 6.941 14.7 6.94102 14.6 6.84102C14.1 6.64102 13.9 6.04097 14.2 5.54097L15.2 3.54097C15.4 3.04097 16 2.84095 16.5 3.14095C17 3.34095 17.2 3.941 16.9 4.441L15.9 6.441C15.7 6.741 15.4 6.941 15 6.941ZM18.4 9.84102L20.4 8.84102C20.9 8.64102 21.1 8.04097 20.8 7.54097C20.6 7.04097 20 6.84095 19.5 7.14095L17.5 8.14095C17 8.34095 16.8 8.941 17.1 9.441C17.3 9.841 17.6 10.041 18 10.041C18.2 9.94097 18.3 9.94102 18.4 9.84102ZM7.10001 10.941C7.10001 10.341 6.70001 9.941 6.10001 9.941H4C3.4 9.941 3 10.341 3 10.941C3 11.541 3.4 11.941 4 11.941H6.10001C6.70001 11.941 7.10001 11.541 7.10001 10.941ZM4.89999 17.1409L6.89999 16.1409C7.39999 15.9409 7.59999 15.341 7.29999 14.841C7.09999 14.341 6.5 14.141 6 14.441L4 15.441C3.5 15.641 3.30001 16.241 3.60001 16.741C3.80001 17.141 4.1 17.341 4.5 17.341C4.6 17.241 4.79999 17.2409 4.89999 17.1409Z" fill="currentColor"/>
</svg>
