<svg width="24" height="24" viewBox="0 0 24 24" fill="none" xmlns="http://www.w3.org/2000/svg">
<path opacity="0.3" d="M21 2H13C12.4 2 12 2.4 12 3V13C12 13.6 12.4 14 13 14H21C21.6 14 22 13.6 22 13V3C22 2.4 21.6 2 21 2ZM15.7 8L14 10.1V5.80005L15.7 8ZM15.1 4H18.9L17 6.40002L15.1 4ZM17 9.59998L18.9 12H15.1L17 9.59998ZM18.3 8L20 5.90002V10.2L18.3 8ZM9 2H3C2.4 2 2 2.4 2 3V21C2 21.6 2.4 22 3 22H9C9.6 22 10 21.6 10 21V3C10 2.4 9.6 2 9 2ZM4.89999 12L4 14.8V9.09998L4.89999 12ZM4.39999 4H7.60001L6 8.80005L4.39999 4ZM6 15.2L7.60001 20H4.39999L6 15.2ZM7.10001 12L8 9.19995V14.9L7.10001 12Z" fill="currentColor"/>
<path d="M21 18H13C12.4 18 12 17.6 12 17C12 16.4 12.4 16 13 16H21C21.6 16 22 16.4 22 17C22 17.6 21.6 18 21 18ZM19 21C19 20.4 18.6 20 18 20H13C12.4 20 12 20.4 12 21C12 21.6 12.4 22 13 22H18C18.6 22 19 21.6 19 21Z" fill="currentColor"/>
</svg>
