<svg width="24" height="24" viewBox="0 0 24 24" fill="none" xmlns="http://www.w3.org/2000/svg">
<path d="M12.6 7C12 7 11.6 6.6 11.6 6V3C11.6 2.4 12 2 12.6 2C13.2 2 13.6 2.4 13.6 3V6C13.6 6.6 13.2 7 12.6 7ZM10 7.59998C10.5 7.29998 10.6 6.69995 10.4 6.19995L9 3.80005C8.7 3.30005 8.10001 3.20002 7.60001 3.40002C7.10001 3.70002 7.00001 4.30005 7.20001 4.80005L8.60001 7.19995C8.80001 7.49995 9.1 7.69995 9.5 7.69995C9.7 7.69995 9.9 7.69998 10 7.59998ZM8 9.30005C8.3 8.80005 8.10001 8.20002 7.60001 7.90002L5.5 6.69995C5 6.39995 4.40001 6.59998 4.10001 7.09998C3.80001 7.59998 4 8.2 4.5 8.5L6.60001 9.69995C6.80001 9.79995 6.90001 9.80005 7.10001 9.80005C7.50001 9.80005 7.9 9.70005 8 9.30005ZM7.20001 12C7.20001 11.4 6.80001 11 6.20001 11H4C3.4 11 3 11.4 3 12C3 12.6 3.4 13 4 13H6.20001C6.70001 13 7.20001 12.6 7.20001 12Z" fill="currentColor"/>
<path opacity="0.3" d="M17.4 5.5C17.4 6.1 17 6.5 16.4 6.5C15.8 6.5 15.4 6.1 15.4 5.5C15.4 4.9 15.8 4.5 16.4 4.5C17 4.5 17.4 5 17.4 5.5ZM5.80001 17.1L7.40001 16.1C7.90001 15.8 8.00001 15.2 7.80001 14.7C7.50001 14.2 6.90001 14.1 6.40001 14.3L4.80001 15.3C4.30001 15.6 4.20001 16.2 4.40001 16.7C4.60001 17 4.90001 17.2 5.30001 17.2C5.50001 17.3 5.60001 17.2 5.80001 17.1ZM8.40001 20.2C8.20001 20.2 8.10001 20.2 7.90001 20.1C7.40001 19.8 7.3 19.2 7.5 18.7L8.30001 17.3C8.60001 16.8 9.20002 16.7 9.70002 16.9C10.2 17.2 10.3 17.8 10.1 18.3L9.30001 19.7C9.10001 20 8.70001 20.2 8.40001 20.2ZM12.6 21.2C12 21.2 11.6 20.8 11.6 20.2V18.8C11.6 18.2 12 17.8 12.6 17.8C13.2 17.8 13.6 18.2 13.6 18.8V20.2C13.6 20.7 13.2 21.2 12.6 21.2ZM16.7 19.9C16.4 19.9 16 19.7 15.8 19.4L15.2 18.5C14.9 18 15.1 17.4 15.6 17.1C16.1 16.8 16.7 17 17 17.5L17.6 18.4C17.9 18.9 17.7 19.5 17.2 19.8C17 19.9 16.8 19.9 16.7 19.9ZM19.4 17C19.2 17 19.1 17 18.9 16.9L18.2 16.5C17.7 16.2 17.6 15.6 17.8 15.1C18.1 14.6 18.7 14.5 19.2 14.7L19.9 15.1C20.4 15.4 20.5 16 20.3 16.5C20.1 16.8 19.8 17 19.4 17ZM20.4 13H19.9C19.3 13 18.9 12.6 18.9 12C18.9 11.4 19.3 11 19.9 11H20.4C21 11 21.4 11.4 21.4 12C21.4 12.6 20.9 13 20.4 13ZM18.9 9.30005C18.6 9.30005 18.2 9.10005 18 8.80005C17.7 8.30005 17.9 7.70002 18.4 7.40002L18.6 7.30005C19.1 7.00005 19.7 7.19995 20 7.69995C20.3 8.19995 20.1 8.79998 19.6 9.09998L19.4 9.19995C19.3 9.19995 19.1 9.30005 18.9 9.30005Z" fill="currentColor"/>
</svg>
