<svg width="88" height="144" viewBox="0 0 88 144" fill="none" xmlns="http://www.w3.org/2000/svg">
<path d="M12.4498 8.21701C11.1718 8.21701 9.92619 8.66701 9.04599 9.54541C8.16399 10.4202 7.71399 11.6748 7.71399 12.9492V131.123C7.71399 132.397 8.16399 133.643 9.04599 134.525C9.92619 135.407 11.1718 135.857 12.4498 135.857H75.6658C76.9402 135.857 78.1966 135.407 79.0678 134.525C79.9516 133.643 80.3998 132.397 80.3998 131.123V12.9492C80.3998 11.6748 79.9498 10.4202 79.0678 9.54541C78.1966 8.66521 76.9402 8.21701 75.6658 8.21701H65.9062C65.1376 8.21701 64.4536 8.67601 64.1638 9.38701L62.7094 12.9492C62.2396 14.1138 61.867 14.6844 61.273 15.0696C60.6934 15.4638 59.662 15.7914 57.637 15.7914H30.475C28.4518 15.7914 27.4204 15.462 26.839 15.0696C26.2486 14.6862 25.8724 14.1156 25.4044 12.9492L23.9518 9.38701C23.6674 8.68321 22.9834 8.21701 22.2256 8.21701H12.4498Z" fill="#07476B"/>
<path d="M12.1649 4.17599H75.9461C80.5505 4.17599 84.1847 7.82999 84.1847 12.4254V131.647C84.1847 136.24 80.5487 139.898 75.9461 139.898H12.1649C7.56413 139.898 3.92453 136.24 3.92453 131.647V12.4254C3.92633 7.83179 7.56413 4.17599 12.1649 4.17599V4.17599ZM12.1649 0.444588C5.55893 0.444588 0.184128 5.81939 0.184128 12.4254V131.647C0.184128 138.256 5.55893 143.627 12.1649 143.627H75.9461C82.5557 143.627 87.9359 138.256 87.9359 131.647V12.4254C87.9359 5.81939 82.5557 0.444588 75.9461 0.444588H12.1649Z" fill="#484F58"/>
<path d="M38.0235 8.21701C36.9813 8.21701 36.1497 9.04861 36.1497 10.0908C36.1497 11.1312 36.9813 11.9664 38.0235 11.9664H51.0357C52.0671 11.9664 52.9113 11.1312 52.9113 10.0908C52.9113 9.04861 52.0671 8.21701 51.0357 8.21701H38.0235Z" fill="#444B53"/>
</svg>
