<svg width="88" height="144" viewBox="0 0 88 144" fill="none" xmlns="http://www.w3.org/2000/svg">
<path d="M12.4498 8.217C11.1718 8.217 9.9262 8.667 9.046 9.5454C8.164 10.4202 7.714 11.6748 7.714 12.9492V131.123C7.714 132.397 8.164 133.643 9.046 134.525C9.9262 135.407 11.1718 135.857 12.4498 135.857H75.666C76.94 135.857 78.197 135.407 79.068 134.525C79.952 133.643 80.4 132.397 80.4 131.123V12.9492C80.4 11.6748 79.95 10.4202 79.068 9.5454C78.197 8.6652 76.94 8.217 75.666 8.217H65.906C65.138 8.217 64.454 8.676 64.164 9.387L62.7094 12.9492C62.2396 14.1138 61.867 14.6844 61.273 15.0696C60.6934 15.4638 59.662 15.7914 57.637 15.7914H30.475C28.4518 15.7914 27.4204 15.462 26.839 15.0696C26.2486 14.6862 25.8724 14.1156 25.4044 12.9492L23.9518 9.387C23.6674 8.6832 22.9834 8.217 22.2256 8.217H12.4498Z" fill="#9EDCFF"/>
<path d="M12.1649 4.176H75.946C80.55 4.176 84.185 7.83 84.185 12.4254V131.647C84.185 136.24 80.549 139.898 75.946 139.898H12.1649C7.5641 139.898 3.9245 136.24 3.9245 131.647V12.4254C3.9263 7.8318 7.5641 4.176 12.1649 4.176ZM12.1649 0.44458C5.5589 0.44458 0.184101 5.8194 0.184101 12.4254V131.647C0.184101 138.256 5.5589 143.627 12.1649 143.627H75.946C82.556 143.627 87.936 138.256 87.936 131.647V12.4254C87.936 5.8194 82.556 0.44458 75.946 0.44458H12.1649Z" fill="#7E94B5"/>
<path d="M38.0235 8.217C36.9813 8.217 36.1497 9.0486 36.1497 10.0908C36.1497 11.1312 36.9813 11.9664 38.0235 11.9664H51.0357C52.0671 11.9664 52.9113 11.1312 52.9113 10.0908C52.9113 9.0486 52.0671 8.217 51.0357 8.217H38.0235Z" fill="#B5B5C3"/>
</svg>
