<svg width="24" height="24" viewBox="0 0 24 24" fill="none" xmlns="http://www.w3.org/2000/svg">
<path opacity="0.3" d="M10 4H21C21.6 4 22 4.4 22 5V7H10V4Z" fill="currentColor"/>
<path opacity="0.3" d="M13 14.4V9C13 8.4 12.6 8 12 8C11.4 8 11 8.4 11 9V14.4H13Z" fill="currentColor"/>
<path d="M10.4 3.60001L12 6H21C21.6 6 22 6.4 22 7V19C22 19.6 21.6 20 21 20H3C2.4 20 2 19.6 2 19V4C2 3.4 2.4 3 3 3H9.20001C9.70001 3 10.2 3.20001 10.4 3.60001ZM13 14.4V9C13 8.4 12.6 8 12 8C11.4 8 11 8.4 11 9V14.4H8L11.3 17.7C11.7 18.1 12.3 18.1 12.7 17.7L16 14.4H13Z" fill="currentColor"/>
</svg>
