<svg width="20" height="21" viewBox="0 0 20 21" fill="none" xmlns="http://www.w3.org/2000/svg">
<path opacity="0.3" d="M19 3.40002C18.4 3.40002 18 3.80002 18 4.40002V8.40002H14V4.40002C14 3.80002 13.6 3.40002 13 3.40002C12.4 3.40002 12 3.80002 12 4.40002V8.40002H8V4.40002C8 3.80002 7.6 3.40002 7 3.40002C6.4 3.40002 6 3.80002 6 4.40002V8.40002H2V4.40002C2 3.80002 1.6 3.40002 1 3.40002C0.4 3.40002 0 3.80002 0 4.40002V19.4C0 20 0.4 20.4 1 20.4H19C19.6 20.4 20 20 20 19.4V4.40002C20 3.80002 19.6 3.40002 19 3.40002ZM18 10.4V13.4H14V10.4H18ZM12 10.4V13.4H8V10.4H12ZM12 15.4V18.4H8V15.4H12ZM6 10.4V13.4H2V10.4H6ZM2 15.4H6V18.4H2V15.4ZM14 18.4V15.4H18V18.4H14Z" fill="currentColor"/>
<path d="M19 0.400024H1C0.4 0.400024 0 0.800024 0 1.40002V4.40002C0 5.00002 0.4 5.40002 1 5.40002H19C19.6 5.40002 20 5.00002 20 4.40002V1.40002C20 0.800024 19.6 0.400024 19 0.400024Z" fill="currentColor"/>
</svg>
