<svg width="24" height="24" viewBox="0 0 24 24" fill="none" xmlns="http://www.w3.org/2000/svg">
<path opacity="0.3" d="M19 22H5C4.4 22 4 21.6 4 21V3C4 2.4 4.4 2 5 2H14L20 8V21C20 21.6 19.6 22 19 22ZM11.7 17.7L16 14C16.4 13.6 16.4 12.9 16 12.5C15.6 12.1 15.4 12.6 15 13L11 16L9 15C8.6 14.6 8.4 14.1 8 14.5C7.6 14.9 8.1 15.6 8.5 16L10.3 17.7C10.5 17.9 10.8 18 11 18C11.2 18 11.5 17.9 11.7 17.7Z" fill="currentColor"/>
<path d="M10.4343 15.4343L9.25 14.25C8.83579 13.8358 8.16421 13.8358 7.75 14.25C7.33579 14.6642 7.33579 15.3358 7.75 15.75L10.2929 18.2929C10.6834 18.6834 11.3166 18.6834 11.7071 18.2929L16.25 13.75C16.6642 13.3358 16.6642 12.6642 16.25 12.25C15.8358 11.8358 15.1642 11.8358 14.75 12.25L11.5657 15.4343C11.2533 15.7467 10.7467 15.7467 10.4343 15.4343Z" fill="currentColor"/>
<path d="M15 8H20L14 2V7C14 7.6 14.4 8 15 8Z" fill="currentColor"/>
</svg>
