<svg width="24" height="24" viewBox="0 0 24 24" fill="none" xmlns="http://www.w3.org/2000/svg">
<path opacity="0.3" d="M19 22H5C4.4 22 4 21.6 4 21V3C4 2.4 4.4 2 5 2H14L20 8V21C20 21.6 19.6 22 19 22ZM16 13.5L12.5 13V10C12.5 9.4 12.6 9.5 12 9.5C11.4 9.5 11.5 9.4 11.5 10L11 13L8 13.5C7.4 13.5 7 13.4 7 14C7 14.6 7.4 14.5 8 14.5H11V18C11 18.6 11.4 19 12 19C12.6 19 12.5 18.6 12.5 18V14.5L16 14C16.6 14 17 14.6 17 14C17 13.4 16.6 13.5 16 13.5Z" fill="currentColor"/>
<rect x="11" y="19" width="10" height="2" rx="1" transform="rotate(-90 11 19)" fill="currentColor"/>
<rect x="7" y="13" width="10" height="2" rx="1" fill="currentColor"/>
<path d="M15 8H20L14 2V7C14 7.6 14.4 8 15 8Z" fill="currentColor"/>
</svg>
