<svg width="24" height="24" viewBox="0 0 24 24" fill="none" xmlns="http://www.w3.org/2000/svg">
<path opacity="0.3" d="M19 22H5C4.4 22 4 21.6 4 21V3C4 2.4 4.4 2 5 2H14L20 8V21C20 21.6 19.6 22 19 22Z" fill="currentColor"/>
<g clip-path="url(#clip0_787_1289)">
<path d="M9.56133 15.7161C9.72781 15.5251 9.5922 15.227 9.33885 15.227H8.58033C8.57539 15.1519 8.57262 15.0763 8.57262 15C8.57262 13.1101 10.1101 11.5726 12 11.5726C12.7576 11.5726 13.4585 11.8198 14.0265 12.2377C14.2106 12.3731 14.4732 12.3609 14.6216 12.1872L15.1671 11.5491C15.3072 11.3852 15.2931 11.1382 15.1235 11.005C14.2353 10.3077 13.1468 9.92944 12 9.92944C10.6456 9.92944 9.37229 10.4569 8.41458 11.4146C7.4569 12.3723 6.92945 13.6456 6.92945 15C6.92945 15.0759 6.93135 15.1516 6.93465 15.2269H6.29574C6.0424 15.2269 5.90677 15.5251 6.07326 15.7161L7.51455 17.3693L7.81729 17.7166L8.90421 16.4698L9.56133 15.7161Z" fill="currentColor"/>
<path d="M17.9268 14.7516L16.8518 13.5185L16.1828 12.7511L15.2276 13.8468L14.4388 14.7516C14.2723 14.9426 14.4079 15.2407 14.6612 15.2407H15.4189C15.2949 17.0187 13.809 18.4274 12.0001 18.4274C11.347 18.4274 10.736 18.2437 10.216 17.9253C10.0338 17.8138 9.79309 17.8362 9.6543 17.9985L9.10058 18.6463C8.95391 18.8179 8.97742 19.0782 9.16428 19.2048C9.99513 19.7678 10.9743 20.0706 12.0001 20.0706C13.3545 20.0706 14.6278 19.5432 15.5855 18.5855C16.4863 17.6847 17.0063 16.5047 17.0649 15.2407H17.7043C17.9577 15.2407 18.0933 14.9426 17.9268 14.7516Z" fill="currentColor"/>
</g>
<path d="M15 8H20L14 2V7C14 7.6 14.4 8 15 8Z" fill="currentColor"/>
<defs>
<clipPath id="clip0_787_1289">
<rect width="12" height="12" fill="white" transform="translate(6 9)"/>
</clipPath>
</defs>
</svg>
