<svg width="24" height="24" viewBox="0 0 24 24" fill="none" xmlns="http://www.w3.org/2000/svg">
<path opacity="0.3" d="M10 4H21C21.6 4 22 4.4 22 5V7H10V4Z" fill="currentColor"/>
<path d="M10.4 3.60001L12 6H21C21.6 6 22 6.4 22 7V19C22 19.6 21.6 20 21 20H3C2.4 20 2 19.6 2 19V4C2 3.4 2.4 3 3 3H9.20001C9.70001 3 10.2 3.20001 10.4 3.60001ZM12 16.8C11 16.8 10.2 16.4 9.5 15.8C8.8 15.1 8.5 14.3 8.5 13.3C8.5 12.8 8.59999 12.3 8.79999 11.9L10 13.1V10.1C10 9.50001 9.6 9.10001 9 9.10001H6L7.29999 10.4C6.79999 11.3 6.5 12.2 6.5 13.3C6.5 14.8 7.10001 16.2 8.10001 17.2C9.10001 18.2 10.5 18.8 12 18.8C12.6 18.8 13 18.3 13 17.8C13 17.2 12.6 16.8 12 16.8ZM16.7 16.2C17.2 15.3 17.5 14.4 17.5 13.3C17.5 11.8 16.9 10.4 15.9 9.39999C14.9 8.39999 13.5 7.79999 12 7.79999C11.4 7.79999 11 8.19999 11 8.79999C11 9.39999 11.4 9.79999 12 9.79999C12.9 9.79999 13.8 10.2 14.5 10.8C15.2 11.5 15.5 12.3 15.5 13.3C15.5 13.8 15.4 14.3 15.2 14.7L14 13.5V16.5C14 17.1 14.4 17.5 15 17.5H18L16.7 16.2Z" fill="currentColor"/>
<path opacity="0.3" d="M12 16.8C11 16.8 10.2 16.4 9.5 15.8C8.8 15.1 8.5 14.3 8.5 13.3C8.5 12.8 8.59999 12.3 8.79999 11.9L7.29999 10.4C6.79999 11.3 6.5 12.2 6.5 13.3C6.5 14.8 7.10001 16.2 8.10001 17.2C9.10001 18.2 10.5 18.8 12 18.8C12.6 18.8 13 18.3 13 17.8C13 17.2 12.6 16.8 12 16.8Z" fill="currentColor"/>
<path opacity="0.3" d="M15.5 13.3C15.5 13.8 15.4 14.3 15.2 14.7L16.7 16.2C17.2 15.3 17.5 14.4 17.5 13.3C17.5 11.8 16.9 10.4 15.9 9.39999C14.9 8.39999 13.5 7.79999 12 7.79999C11.4 7.79999 11 8.19999 11 8.79999C11 9.39999 11.4 9.79999 12 9.79999C12.9 9.79999 13.8 10.2 14.5 10.8C15.1 11.5 15.5 12.4 15.5 13.3Z" fill="currentColor"/>
</svg>
