<svg width="46" height="46" viewBox="0 0 46 46" fill="none" xmlns="http://www.w3.org/2000/svg">
<g clip-path="url(#clip0_1417_1627)">
<path d="M41.9929 32.8371C41.3758 32.8371 7.60568 32.8371 3.98171 32.8371C2.49685 32.8371 1.3286 34.2262 1.5215 35.6984C1.62105 36.458 1.79571 37.202 2.03999 37.9266C2.52776 39.3734 3.89061 40.3433 5.41742 40.3433H40.5572C42.084 40.3433 43.4468 39.3734 43.9346 37.9267C44.1789 37.2021 44.3537 36.4581 44.4532 35.6985C44.6461 34.2262 43.4779 32.8371 41.9929 32.8371Z" fill="#FFC365"/>
<path d="M8.63892 37.9264C8.39463 37.2019 8.21998 36.4579 8.12043 35.6983C7.92754 34.226 9.09577 32.837 10.5806 32.837C7.28578 32.837 4.82236 32.837 3.98169 32.837C2.49684 32.837 1.32861 34.226 1.5215 35.6983C1.62105 36.4579 1.7957 37.2019 2.03999 37.9264C2.52775 39.3732 3.89059 40.3432 5.41739 40.3432H12.0163C10.4895 40.3432 9.12668 39.3733 8.63892 37.9264V37.9264Z" fill="#FFB640"/>
<path d="M41.5505 23.3417H29.5863C30.1851 23.3417 30.6751 23.8454 30.6751 24.4612V25.8551C30.6751 26.4709 30.1851 26.9746 29.5863 26.9746H41.5505C42.1493 26.9746 42.6393 26.4709 42.6393 25.8551V24.4612C42.6393 23.8454 42.1493 23.3417 41.5505 23.3417Z" fill="#FF636E"/>
<path d="M34.7997 25.855V24.4611C34.7997 23.8453 35.2897 23.3416 35.8885 23.3416H29.5863C30.1852 23.3416 30.6751 23.8453 30.6751 24.4611V25.855C30.6751 26.4708 30.1851 26.9745 29.5863 26.9745H35.8885C35.2896 26.9745 34.7997 26.4708 34.7997 25.855V25.855Z" fill="#FF4654"/>
<path d="M29.8559 23.3417H15.5555C14.9566 23.3417 14.4667 23.8454 14.4667 24.4612V25.8551C14.4667 26.4709 14.9567 26.9746 15.5555 26.9746H29.8559C30.4547 26.9746 30.9447 26.4709 30.9447 25.8551V24.4612C30.9448 23.8454 30.4548 23.3417 29.8559 23.3417V23.3417Z" fill="#FF636E"/>
<path d="M21.0656 25.855V24.4611C21.0656 23.8453 21.5556 23.3416 22.1544 23.3416H15.5555C14.9566 23.3416 14.4667 23.8453 14.4667 24.4611V25.855C14.4667 26.4708 14.9567 26.9745 15.5555 26.9745H22.1544C21.5556 26.9745 21.0656 26.4708 21.0656 25.855Z" fill="#FF4654"/>
<path d="M14.7362 25.855V24.4611C14.7362 23.8453 15.2262 23.3416 15.825 23.3416H3.86086C3.26196 23.3416 2.77203 23.8453 2.77203 24.4611V25.855C2.77203 26.4708 3.26205 26.9745 3.86086 26.9745H15.825C15.2261 26.9745 14.7362 26.4708 14.7362 25.855Z" fill="#FF636E"/>
<path d="M9.37109 25.855V24.4611C9.37109 23.8453 9.8611 23.3416 10.4599 23.3416H3.86097C3.26207 23.3416 2.77216 23.8453 2.77216 24.4611V25.855C2.77216 26.4708 3.26216 26.9745 3.86097 26.9745H10.4599C9.86101 26.9745 9.37109 26.4708 9.37109 25.855Z" fill="#FF4654"/>
<path d="M42.3516 26.8749H35.9331C31.3146 27.3173 27.4915 30.4346 25.1252 32.9269H42.3515C43.5188 32.9269 44.4739 31.9718 44.4739 30.8044V28.9975C44.474 27.83 43.5189 26.8749 42.3516 26.8749V26.8749Z" fill="#A15427"/>
<path d="M9.47826 26.8749H3.6231C2.45575 26.8749 1.50061 27.83 1.50061 28.9974V30.8044C1.50061 31.9717 2.45575 32.9268 3.6231 32.9268H20.3478C15.6773 28.2521 9.47826 26.8749 9.47826 26.8749V26.8749Z" fill="#A15427"/>
<path d="M8.0996 30.8043V28.9974C8.0996 28.0019 8.79427 27.1613 9.72272 26.9352C9.5645 26.8941 9.47826 26.8749 9.47826 26.8749H3.62314C2.4558 26.8749 1.50067 27.83 1.50067 28.9974V30.8043C1.50067 31.9717 2.4558 32.9268 3.62314 32.9268H10.2221C9.05464 32.9269 8.0996 31.9717 8.0996 30.8043V30.8043Z" fill="#924D24"/>
<path d="M9.29852 26.8749C9.29852 26.8749 16.4324 28.459 21.1602 33.9993C21.9913 34.9732 23.4957 34.9804 24.3289 34.0083C26.5267 31.4438 30.7927 27.3845 36.1128 26.8749H9.29852Z" fill="#FFE02F"/>
<path d="M9.29852 26.8749C9.29852 26.8749 16.4324 28.459 21.1602 33.9993C21.9912 34.9732 23.4957 34.9804 24.3289 34.0083C26.5267 31.4438 30.7927 27.3845 36.1128 26.8749H9.29852Z" fill="#FFE02F"/>
<path d="M25.1165 32.6183C22.6759 29.7584 19.5944 27.9527 17.1838 26.8749H9.29865C9.29865 26.8749 16.4325 28.459 21.1603 33.9993C21.9913 34.9732 23.4959 34.9804 24.329 34.0083C24.6349 33.6514 24.9809 33.2655 25.3642 32.8643C25.2765 32.7906 25.1936 32.7087 25.1165 32.6183Z" fill="#FBC700"/>
<path d="M45.2918 20.4537C44.208 12.2286 34.6602 5.74771 22.9874 5.74771C11.3186 5.74771 1.76661 12.2261 0.682991 20.4536C0.481111 21.9866 1.6923 23.4315 3.23844 23.4315H42.7363C44.2824 23.4315 45.4936 21.9866 45.2918 20.4537Z" fill="#FFC365"/>
<path d="M7.282 20.4536C8.26148 13.0168 16.1603 7.00949 26.2872 5.92354C25.2106 5.80809 24.1089 5.74771 22.9874 5.74771C11.3186 5.74771 1.76662 12.2261 0.68301 20.4536C0.481039 21.9866 1.69223 23.4315 3.23837 23.4315H9.83735C8.29122 23.4315 7.08012 21.9866 7.282 20.4536V20.4536Z" fill="#FFB640"/>
<path d="M9.45316 9.95862L10.3901 11.3056C10.6067 11.6168 11.0671 11.6168 11.2836 11.3056L12.2206 9.95862C12.717 9.24499 12.5698 8.36362 12.0445 7.81917C11.0327 8.23155 10.0699 8.69955 9.16315 9.21696C9.19675 9.47041 9.28974 9.72359 9.45316 9.95862V9.95862Z" fill="#FCD79B"/>
<path d="M18.7494 7.31029C17.3879 7.31029 16.5882 8.84096 17.3657 9.95861L18.3027 11.3055C18.5193 11.6168 18.9797 11.6168 19.1962 11.3055L20.1333 9.95861C20.9107 8.84096 20.111 7.31029 18.7494 7.31029V7.31029Z" fill="#FEE6C1"/>
<path d="M26.6619 7.31029C25.3004 7.31029 24.5006 8.84096 25.2781 9.95861L26.2152 11.3055C26.4317 11.6168 26.8921 11.6168 27.1086 11.3055L28.0457 9.95861C28.8232 8.84096 28.0234 7.31029 26.6619 7.31029Z" fill="#FEE6C1"/>
<path d="M14.7932 17.2896C13.4317 17.2896 12.6319 15.759 13.4094 14.6413L14.3465 13.2944C14.563 12.9832 15.0235 12.9832 15.24 13.2944L16.177 14.6413C16.9545 15.759 16.1547 17.2896 14.7932 17.2896V17.2896Z" fill="#FEE6C1"/>
<path d="M22.7057 17.2896C21.3442 17.2896 20.5444 15.759 21.3219 14.6413L22.259 13.2944C22.4755 12.9832 22.936 12.9832 23.1525 13.2944L24.0896 14.6413C24.867 15.759 24.0673 17.2896 22.7057 17.2896V17.2896Z" fill="#FEE6C1"/>
<path d="M30.6181 17.2896C29.2567 17.2896 28.4569 15.759 29.2344 14.6413L30.1714 13.2944C30.388 12.9832 30.8484 12.9832 31.0649 13.2944L32.002 14.6413C32.7794 15.759 31.9796 17.2896 30.6181 17.2896Z" fill="#FEE6C1"/>
<path d="M34.1276 11.3055C34.3441 11.6168 34.8046 11.6168 35.0211 11.3055L35.9582 9.95861C36.1875 9.62888 36.2787 9.2634 36.2596 8.91166C35.3979 8.4504 34.4896 8.03245 33.5397 7.6631C32.8782 8.18123 32.6433 9.17185 33.1906 9.95852L34.1276 11.3055Z" fill="#FEE6C1"/>
<path d="M19.3442 9.95861C18.7844 9.15397 19.0423 8.13532 19.7387 7.6278C19.4678 7.43041 19.1307 7.31029 18.7494 7.31029C17.388 7.31029 16.5882 8.84096 17.3657 9.95861L18.3027 11.3055C18.5192 11.6168 18.9796 11.6168 19.1962 11.3055L19.7386 10.5257L19.3442 9.95861Z" fill="#FCD79B"/>
<path d="M27.2566 9.95861C26.6969 9.15397 26.9548 8.13532 27.6511 7.6278C27.3803 7.43041 27.0432 7.31029 26.6619 7.31029C25.3004 7.31029 24.5006 8.84096 25.2781 9.95861L26.2152 11.3055C26.4317 11.6168 26.8921 11.6168 27.1087 11.3055L27.6511 10.5257L27.2566 9.95861Z" fill="#FCD79B"/>
<path d="M15.388 14.6413L15.7825 14.0742L15.24 13.2944C15.0235 12.9832 14.5631 12.9832 14.3465 13.2944L13.4096 14.6413C12.632 15.759 13.4318 17.2896 14.7933 17.2896C15.1746 17.2896 15.5117 17.1695 15.7826 16.9721C15.0861 16.4646 14.8282 15.4459 15.388 14.6413V14.6413Z" fill="#FCD79B"/>
<path d="M23.3004 14.6413L23.6949 14.0742L23.1523 13.2944C22.9358 12.9832 22.4754 12.9832 22.2589 13.2944L21.3218 14.6413C20.5443 15.759 21.3441 17.2896 22.7056 17.2896C23.0868 17.2896 23.4239 17.1695 23.6948 16.9721C22.9985 16.4646 22.7407 15.4459 23.3004 14.6413V14.6413Z" fill="#FCD79B"/>
<path d="M31.213 14.6413L31.6075 14.0742L31.065 13.2944C30.8485 12.9832 30.388 12.9832 30.1715 13.2944L29.2345 14.6413C28.457 15.759 29.2568 17.2896 30.6183 17.2896C30.9996 17.2896 31.3367 17.1695 31.6076 16.9721C30.911 16.4646 30.6531 15.4459 31.213 14.6413V14.6413Z" fill="#FCD79B"/>
<path d="M35.1692 9.95861C34.7997 9.42763 34.7877 8.80421 35.0216 8.29542C34.5396 8.07171 34.046 7.86004 33.5397 7.66319C32.8782 8.18132 32.6433 9.17194 33.1906 9.95861L34.1276 11.3055C34.3441 11.6168 34.8046 11.6168 35.0211 11.3055L35.5637 10.5257L35.1692 9.95861Z" fill="#FCD79B"/>
<path d="M45.9723 20.3202C44.8294 11.6454 34.8809 5.02841 23 5.02841C11.128 5.02841 1.17046 11.6413 0.0275512 20.3201C-0.173611 21.8472 0.744151 23.3057 2.21293 23.7997C2.14806 23.9832 2.11096 24.1796 2.11096 24.385V25.7405C2.11096 26.014 2.17537 26.2721 2.28696 26.5033C1.42472 26.9801 0.839386 27.8988 0.839386 28.9519V30.7589C0.839386 31.6598 1.26803 32.4621 1.93163 32.9737C1.82004 33.0697 1.71402 33.1731 1.61564 33.2851C1.02312 33.9603 0.749901 34.8553 0.86589 35.7404C0.969661 36.5328 1.15411 37.3255 1.41403 38.0963C1.99389 39.816 3.60777 40.9715 5.4299 40.9715H21.4276C21.7998 40.9715 22.1014 40.6698 22.1014 40.2977C22.1014 39.9255 21.7998 39.6238 21.4276 39.6238H5.4299C4.18654 39.6238 3.08595 38.8369 2.69108 37.6658C2.4591 36.9778 2.29469 36.2712 2.20224 35.5654C2.13566 35.0574 2.28705 34.5634 2.62864 34.1741C2.97382 33.7808 3.47156 33.5552 3.99428 33.5552H19.8978C20.1779 33.8438 20.4421 34.1357 20.6603 34.3912C21.1859 35.0072 21.9515 35.361 22.7607 35.3619H22.7637C24.239 35.3619 24.8219 34.4015 25.6055 33.5592C25.6067 33.5578 25.6079 33.5566 25.6092 33.5552H42.0055C42.5283 33.5552 43.0261 33.7807 43.3712 34.1741C43.7128 34.5634 43.8642 35.0575 43.7976 35.5654C43.7051 36.2714 43.5406 36.9781 43.3087 37.6658C42.9138 38.837 41.8132 39.6238 40.5698 39.6238H24.5722C24.2 39.6238 23.8983 39.9255 23.8983 40.2977C23.8983 40.6698 24.2 40.9715 24.5722 40.9715H40.5698C42.3919 40.9715 44.0058 39.8161 44.5857 38.0964C44.8456 37.3259 45.03 36.5333 45.134 35.7405C45.25 34.8552 44.9768 33.9602 44.3842 33.285C44.2858 33.1727 44.1794 33.0692 44.0676 32.9731C44.4983 32.6411 44.8348 32.1844 45.0166 31.6415C45.1346 31.2886 44.9443 30.9068 44.5915 30.7886C44.2383 30.6707 43.8568 30.8609 43.7386 31.2138C43.5397 31.8082 42.9874 32.2075 42.3644 32.2075C41.6645 32.2075 27.6562 32.2075 26.9558 32.2075C29.5176 29.8215 32.691 27.8443 36.1611 27.5032H42.3644C42.9875 27.5032 43.5397 27.9026 43.7387 28.497C43.8569 28.8499 44.2384 29.0403 44.5916 28.9221C44.9445 28.804 45.1348 28.4221 45.0167 28.0692C44.7296 27.2117 44.0594 26.5651 43.2354 26.2946C43.2933 26.1201 43.326 25.9342 43.326 25.7405V24.385C43.326 24.227 43.3031 24.0746 43.264 23.9288C44.9969 23.6515 46.2002 22.0492 45.9723 20.3202V20.3202ZM34.587 10.7224L33.7564 9.52836C33.4902 9.14572 33.5352 8.72336 33.7291 8.41438C34.3711 8.67718 35.0157 8.9751 35.5549 9.25164C35.5241 9.34831 35.4782 9.4413 35.4177 9.52836L34.587 10.7224ZM19.6589 8.48194C19.8367 8.82219 19.8119 9.21337 19.5928 9.52836L18.7621 10.7224L17.9315 9.52836C17.7124 9.21328 17.6876 8.82201 17.8654 8.48185C18.2446 7.75591 19.28 7.75681 19.6589 8.48194V8.48194ZM11.6803 9.52836L10.8496 10.7224C10.8278 10.691 10.0131 9.52109 9.99275 9.48901C10.6049 9.15937 11.2454 8.85255 11.802 8.61222C11.9019 8.88696 11.8947 9.22011 11.6803 9.52836ZM29.5989 23.9701C29.8239 23.9701 30.0139 24.1601 30.0139 24.385V25.7406C30.0139 25.9656 29.8239 26.1556 29.5989 26.1556H15.8376C15.6126 26.1556 15.4226 25.9656 15.4226 25.7406V24.385C15.4226 24.1601 15.6126 23.9701 15.8376 23.9701H29.5989ZM23.8299 33.5244C23.5692 33.8284 23.1836 34.0143 22.7637 34.0143C22.7632 34.0143 22.7626 34.0143 22.7622 34.0143C22.3312 34.0139 21.937 33.8114 21.6854 33.5165C19.0895 30.4745 15.8288 28.5978 13.3262 27.5033H31.3585C28.473 28.8757 25.882 31.1294 23.8299 33.5244V33.5244ZM14.0749 24.385V25.7406C14.0749 25.8623 14.0908 26.0174 14.1242 26.1556C13.1615 26.1556 4.99829 26.1556 3.87353 26.1556C3.64855 26.1556 3.45853 25.9656 3.45853 25.7406V24.385C3.45853 24.1601 3.64855 23.9701 3.87353 23.9701H14.1242C14.0909 24.108 14.0749 24.2656 14.0749 24.385V24.385ZM3.63571 32.2076C2.8369 32.2076 2.18705 31.5578 2.18705 30.759V28.952C2.18705 28.1532 2.8369 27.5033 3.63571 27.5033H9.23212C9.29358 27.5179 9.36689 27.5375 9.42475 27.5527C10.5032 27.8393 14.7374 29.1086 18.4443 32.2076C17.6824 32.2076 4.39956 32.2076 3.63571 32.2076V32.2076ZM31.3123 26.1556C31.3456 26.0176 31.3616 25.86 31.3616 25.7406V24.385C31.3616 24.2634 31.3457 24.1082 31.3123 23.9701H41.5631C41.7881 23.9701 41.9781 24.1601 41.9781 24.385V25.7406C41.9781 25.9656 41.7881 26.1556 41.5631 26.1556C40.0081 26.1556 32.4827 26.1556 31.3123 26.1556V26.1556ZM42.749 22.6224C40.8351 22.6224 5.17223 22.6224 3.25099 22.6224C2.13207 22.6224 1.21206 21.6469 1.36363 20.4962C1.94232 16.1028 5.00215 12.5337 8.82594 10.1637C8.85334 10.209 8.88191 10.2539 8.91255 10.298H8.91263L9.84971 11.6449C10.3339 12.3409 11.3654 12.3408 11.8495 11.6449L12.7866 10.2979C13.2495 9.63249 13.3311 8.81976 13.0557 8.10882C14.527 7.56301 16.0796 7.14066 17.6858 6.84974C16.4356 7.4897 15.9963 9.10636 16.8252 10.2979L17.7622 11.6448C18.2464 12.3408 19.2779 12.3407 19.762 11.6448L20.6991 10.2979C21.6939 8.8681 20.8467 6.90185 19.1466 6.62333C21.5559 6.3122 24.078 6.28633 26.6149 6.59296C24.737 6.63986 23.6666 8.75831 24.7377 10.2979L25.6747 11.6448C26.1589 12.3408 27.1904 12.3407 27.6745 11.6448L28.6116 10.2979C29.5311 8.97618 28.8834 7.1544 27.3614 6.69341C29.1292 6.95315 30.8403 7.37003 32.4588 7.93398C32.1055 8.67745 32.1514 9.58092 32.6501 10.2979L33.5871 11.6448H33.5872C34.0713 12.3408 35.1029 12.3407 35.5869 11.6448L36.5241 10.2978C36.6114 10.1722 36.6841 10.0401 36.7449 9.90418C40.7383 12.254 44.0326 15.9128 44.6363 20.4961C44.788 21.6478 43.8669 22.6224 42.749 22.6224ZM26.6744 7.93865C27.0583 7.93865 27.3936 8.1417 27.5713 8.48194C27.7491 8.8221 27.7243 9.21328 27.5051 9.52836L26.6744 10.7224L25.8438 9.52836C25.3762 8.85606 25.8562 7.93865 26.6744 7.93865V7.93865Z" fill="black"/>
<path d="M15.8057 12.864C15.3215 12.1681 14.29 12.1682 13.8059 12.864L12.8688 14.211C12.3653 14.9348 12.3063 15.8698 12.7145 16.6512C13.5965 18.3389 16.0157 18.338 16.897 16.6511C17.3054 15.8697 17.2462 14.9347 16.7427 14.211L15.8057 12.864ZM15.7026 16.0271C15.3232 16.753 14.2879 16.7522 13.909 16.0271C13.7312 15.6868 13.756 15.2956 13.975 14.9806L14.8057 13.7866L15.6364 14.9806C15.8556 15.2956 15.8804 15.6868 15.7026 16.0271V16.0271Z" fill="black"/>
<path d="M23.7181 12.864C23.2339 12.1681 22.2024 12.1682 21.7183 12.864L20.7812 14.211C20.2777 14.9348 20.2187 15.8698 20.6269 16.6512C21.5089 18.3389 23.9281 18.3379 24.8095 16.6512C25.2178 15.8697 25.1587 14.9348 24.6551 14.211L23.7181 12.864ZM23.6151 16.0271C23.236 16.7527 22.2005 16.7524 21.8215 16.0271C21.6437 15.6868 21.6685 15.2956 21.8875 14.9806L22.7182 13.7866L23.5489 14.9806C23.7681 15.2957 23.7928 15.6869 23.6151 16.0271V16.0271Z" fill="black"/>
<path d="M31.6306 12.864C31.1465 12.1682 30.1151 12.1681 29.6308 12.864L28.6939 14.211C28.1904 14.9347 28.1312 15.8697 28.5394 16.6511C29.4214 18.3389 31.8406 18.3379 32.722 16.6511C33.1303 15.8696 33.0712 14.9347 32.5676 14.211L31.6306 12.864ZM31.5276 16.0271C31.1484 16.7527 30.113 16.7525 29.7339 16.0271C29.5561 15.6868 29.5809 15.2956 29.8001 14.9806L30.6307 13.7865L31.4614 14.9806C31.6806 15.2957 31.7054 15.6869 31.5276 16.0271V16.0271Z" fill="black"/>
</g>
<defs>
<clipPath id="clip0_1417_1627">
<rect width="46" height="46" fill="white"/>
</clipPath>
</defs>
</svg>
