<svg width="46" height="46" viewBox="0 0 46 46" fill="none" xmlns="http://www.w3.org/2000/svg">
<g clip-path="url(#clip0_1417_1682)">
<path d="M31.5663 8.42795C31.5663 6.88273 30.3185 5.63004 28.7791 5.63004C27.2398 5.63004 25.9919 6.88273 25.9919 8.42795C27.5312 8.42795 28.7791 9.68064 28.7791 11.2259C28.7791 9.68064 30.027 8.42795 31.5663 8.42795Z" fill="#FD2A39"/>
<path d="M28.6527 7.41074C28.906 6.76 29.3951 6.22786 30.0145 5.91978C29.6421 5.73461 29.2228 5.63004 28.7791 5.63004C27.2398 5.63004 25.992 6.88273 25.992 8.42795C27.5313 8.42795 28.7791 9.68064 28.7791 11.2259C28.7791 10.2573 29.2695 9.40383 30.0145 8.9016C29.7736 8.73917 29.506 8.61347 29.2198 8.53253C28.7398 8.39668 28.4717 7.87559 28.6527 7.41074V7.41074Z" fill="#E61E2B"/>
<path d="M25.992 8.42795C25.992 6.88273 24.7441 5.63004 23.2048 5.63004C21.6655 5.63004 20.4175 6.88273 20.4175 8.42795C21.9568 8.42795 23.2048 9.68064 23.2048 11.2259C23.2048 9.68064 24.4526 8.42795 25.992 8.42795Z" fill="#FD2A39"/>
<path d="M23.0784 7.41074C23.3316 6.76 23.8207 6.22786 24.4401 5.91987C24.0677 5.73471 23.6485 5.63013 23.2048 5.63013C21.6655 5.63013 20.4175 6.88282 20.4175 8.42804C21.9568 8.42804 23.2048 9.68074 23.2048 11.226C23.2048 10.2574 23.6951 9.40393 24.4401 8.9017C24.1992 8.73926 23.9317 8.61357 23.6454 8.53262C23.1654 8.39669 22.8974 7.87559 23.0784 7.41074V7.41074Z" fill="#E61E2B"/>
<path d="M20.4176 8.42795C20.4176 6.88273 19.1698 5.63004 17.6304 5.63004C16.0911 5.63004 14.8432 6.88273 14.8432 8.42795C16.3825 8.42795 17.6304 9.68064 17.6304 11.2259C17.6304 9.68064 18.8783 8.42795 20.4176 8.42795Z" fill="#FD2A39"/>
<path d="M17.504 7.41074C17.7573 6.76 18.2464 6.22786 18.8658 5.91987C18.4934 5.73471 18.0742 5.63013 17.6304 5.63013C16.0911 5.63013 14.8432 6.88282 14.8432 8.42804C16.3825 8.42804 17.6304 9.68074 17.6304 11.226C17.6304 10.2574 18.1208 9.40393 18.8658 8.9017C18.6248 8.73926 18.3573 8.61357 18.0711 8.53262C17.5911 8.39669 17.3231 7.87559 17.504 7.41074V7.41074Z" fill="#E61E2B"/>
<path d="M30.9178 13.1755H31.5605C31.4723 11.7101 30.261 10.549 28.7791 10.549C27.2398 10.549 25.9919 11.8017 25.9919 13.3469C26.3214 13.3469 26.6368 13.4054 26.9301 13.5108L30.9178 13.1755Z" fill="#E61E2B"/>
<path d="M15.4917 13.1755L19.4794 13.5107C19.7726 13.4053 20.0881 13.3468 20.4175 13.3468C20.4175 11.8016 19.1697 10.5489 17.6304 10.5489C16.1484 10.5489 14.9372 11.7101 14.8489 13.1755H15.4917V13.1755Z" fill="#E61E2B"/>
<path d="M23.2048 13.8239L24.6318 13.7039C25.0343 13.4772 25.4977 13.3469 25.992 13.3469C25.992 11.8017 24.7441 10.549 23.2048 10.549C21.6654 10.549 20.4175 11.8017 20.4175 13.3469C20.9119 13.3469 21.3753 13.4772 21.7777 13.7039L23.2048 13.8239Z" fill="#E61E2B"/>
<path d="M33.6225 13.1145C34.0764 12.6167 34.3534 11.9539 34.3534 11.2259C34.3534 9.68064 33.1056 8.3381 31.5662 8.3381C30.0269 8.3381 28.779 9.68064 28.779 11.2259C28.779 11.9539 29.0561 12.6167 29.51 13.1145H33.6225Z" fill="#FF4654"/>
<path d="M32.6557 8.5742C32.321 8.4229 31.9529 8.33818 31.5663 8.33818C30.027 8.33818 28.7791 9.68071 28.7791 11.2259C28.7791 11.9539 29.0562 12.6168 29.5101 13.1145H31.6888C31.2349 12.6168 30.9578 11.9539 30.9578 11.2259C30.9578 10.0687 31.6577 9.0253 32.6557 8.5742Z" fill="#FD2A39"/>
<path d="M28.0481 13.1145C28.502 12.6167 28.7791 11.9539 28.7791 11.2259C28.7791 9.68064 27.5313 8.3381 25.9919 8.3381C24.4526 8.3381 23.2047 9.68064 23.2047 11.2259C23.2047 11.9539 23.4817 12.6167 23.9356 13.1145H28.0481Z" fill="#FF4654"/>
<path d="M27.0813 8.5742C26.7467 8.4229 26.3785 8.33818 25.992 8.33818C24.4527 8.33818 23.2047 9.68071 23.2047 11.2259C23.2047 11.9539 23.4818 12.6168 23.9357 13.1145H26.1144C25.6605 12.6168 25.3835 11.9539 25.3835 11.2259C25.3835 10.0687 26.0833 9.0253 27.0813 8.5742Z" fill="#FD2A39"/>
<path d="M22.4738 13.1145C22.9277 12.6167 23.2048 11.9539 23.2048 11.2259C23.2048 9.68064 21.9569 8.3381 20.4176 8.3381C18.8783 8.3381 17.6303 9.68064 17.6303 11.2259C17.6303 11.9539 17.9074 12.6167 18.3613 13.1145H22.4738Z" fill="#FF4654"/>
<path d="M21.5069 8.5742C21.1723 8.4229 20.8042 8.33818 20.4176 8.33818C18.8783 8.33818 17.6304 9.68071 17.6304 11.2259C17.6304 11.9539 17.9075 12.6168 18.3614 13.1145H20.5401C20.0862 12.6168 19.8091 11.9539 19.8091 11.2259C19.8091 10.0687 20.509 9.0253 21.5069 8.5742Z" fill="#FD2A39"/>
<path d="M16.8994 13.1145C17.3533 12.6167 17.6304 11.9539 17.6304 11.2259C17.6304 9.68064 16.3825 8.3381 14.8431 8.3381C13.3038 8.3381 12.0559 9.68064 12.0559 11.2259C12.0559 11.9539 12.333 12.6167 12.7869 13.1145H16.8994Z" fill="#FF4654"/>
<path d="M15.9326 8.5742C15.5979 8.4229 15.2297 8.33818 14.8432 8.33818C13.3039 8.33818 12.056 9.68071 12.056 11.2259C12.056 11.9539 12.3331 12.6168 12.787 13.1145H14.9657C14.5118 12.6168 14.2347 11.9539 14.2347 11.2259C14.2348 10.0687 14.9347 9.0253 15.9326 8.5742Z" fill="#FD2A39"/>
<path d="M42.1188 31.1513C42.1197 31.1214 42.121 31.0916 42.121 31.0615V16.1699C42.121 14.4666 40.7401 13.0857 39.0368 13.0857H30.9178L23.2047 13.7339L15.4917 13.0857H4.6731C4.46071 13.0857 4.28848 13.2579 4.28848 13.4703V31.1513H42.1188Z" fill="#FEE6C1"/>
<path d="M9.42252 13.0857H4.6731C4.46071 13.0857 4.28848 13.2579 4.28848 13.4703V31.1514H9.03799V13.4703C9.03799 13.2579 9.21013 13.0857 9.42252 13.0857V13.0857Z" fill="#FCD79B"/>
<path d="M4.28848 31.0615V33.8509C4.28848 34.0633 4.46071 34.2356 4.6731 34.2356H39.0368C40.7401 34.2356 42.121 32.7648 42.121 31.0615H4.28848Z" fill="#CB6C35"/>
<path d="M9.03798 33.851V31.0616H4.28848V33.851C4.28848 34.0634 4.46071 34.2356 4.6731 34.2356H9.4226C9.21012 34.2356 9.03798 34.0634 9.03798 33.851V33.851Z" fill="#AE5E2E"/>
<path d="M15.4917 13.0857V18.2614C15.4917 19.0184 16.1054 19.6322 16.8624 19.6322H17.2062C17.9632 19.6322 18.5769 19.0184 18.5769 18.2614V17.5012C18.5769 16.6493 19.2676 15.9586 20.1196 15.9586C20.9715 15.9586 21.6622 16.6493 21.6622 17.5012V21.4864C21.6622 22.2435 22.2759 22.8572 23.0329 22.8572H23.3767C24.1337 22.8572 24.7474 22.2435 24.7474 21.4864V17.5012C24.7474 16.6493 25.438 15.9586 26.29 15.9586C27.142 15.9586 27.8326 16.6493 27.8326 17.5012V18.2614C27.8326 19.0184 28.4464 19.6322 29.2034 19.6322H29.5471C30.3041 19.6322 30.9179 19.0184 30.9179 18.2614V13.0857H15.4917Z" fill="#FF4654"/>
<path d="M20.1196 13.0857H15.4917V18.2614C15.4917 19.0184 16.1054 19.6322 16.8624 19.6322H17.2062C17.9632 19.6322 18.5769 19.0184 18.5769 18.2614V17.5012C18.5769 16.6493 19.2676 15.9586 20.1196 15.9586V13.0857Z" fill="#FD2A39"/>
<path d="M29.3752 24.7768C30.2272 24.7768 30.9178 24.0862 30.9178 23.2342C30.9178 22.3823 30.2272 21.6916 29.3752 21.6916C28.5232 21.6916 27.8326 22.3823 27.8326 23.2342C27.8326 24.0862 28.5232 24.7768 29.3752 24.7768Z" fill="#FF4654"/>
<path d="M2.93393 36.9034C3.60919 38.8621 5.49545 40.461 7.70309 40.461H38.2055C40.4132 40.461 42.2995 38.8621 42.9747 36.9034H2.93393Z" fill="#C9F0FE"/>
<path d="M10.3728 36.9034H2.93402C3.6092 38.8621 5.49556 40.4609 7.7032 40.4609H15.142C12.9343 40.4609 11.048 38.8621 10.3728 36.9034V36.9034Z" fill="#9BE8FD"/>
<path d="M43.997 34.1457H1.97782C1.25368 34.1457 0.661255 34.8192 0.661255 35.533V35.7842C0.661255 36.498 1.25368 37.0821 1.97782 37.0821H43.9971C44.7213 37.0821 45.3137 36.498 45.3137 35.7842V35.5331C45.3136 34.8192 44.7212 34.1457 43.997 34.1457V34.1457Z" fill="#9BE8FD"/>
<path d="M8.10005 35.7843V35.5331C8.10005 34.8193 8.69248 34.1458 9.41662 34.1458H1.97783C1.25368 34.1458 0.661255 34.8193 0.661255 35.5331V35.7843C0.661255 36.4981 1.25368 37.0821 1.97783 37.0821H9.41662C8.69248 37.0822 8.10005 36.4982 8.10005 35.7843Z" fill="#62DDFC"/>
<path d="M44.0097 33.4265H41.9297C42.4772 32.7735 42.8075 31.9328 42.8075 31.0161V24.384C42.8075 24.0117 42.5059 23.7101 42.1337 23.7101C41.7615 23.7101 41.4599 24.0117 41.4599 24.384V30.3423H24.5723C24.2 30.3423 23.8984 30.6439 23.8984 31.0161C23.8984 31.3883 24.2 31.6899 24.5723 31.6899H41.3633C41.0573 32.7299 40.1076 33.4264 39.0495 33.4264H4.9749V31.6899H21.4277C21.8 31.6899 22.1016 31.3883 22.1016 31.0161C22.1016 30.6439 21.8 30.3423 21.4277 30.3423H4.9749V13.7141H14.8305V18.2159C14.8305 19.3433 15.7477 20.2605 16.875 20.2605H17.2188C18.3461 20.2605 19.2633 19.3433 19.2633 18.2159V17.4558C19.2633 16.9767 19.6531 16.587 20.1321 16.587C20.6112 16.587 21.0009 16.9767 21.0009 17.4558V21.4409C21.0009 22.5682 21.9181 23.4854 23.0456 23.4854H23.3893C24.5167 23.4854 25.4339 22.5682 25.4339 21.4409V17.4558C25.4339 16.9767 25.8236 16.587 26.3026 16.587C26.7817 16.587 27.1714 16.9767 27.1714 17.4558V18.2159C27.1714 19.3433 28.0886 20.2605 29.216 20.2605H29.5597C30.6871 20.2605 31.6043 19.3433 31.6043 18.2159V13.7141H39.0495C40.3786 13.7141 41.4599 14.7954 41.4599 16.1246V21.2394C41.4599 21.6117 41.7615 21.9133 42.1337 21.9133C42.5059 21.9133 42.8075 21.6117 42.8075 21.2394V16.1246C42.8075 14.0524 41.1216 12.3665 39.0495 12.3665H34.8222C35.5831 10.3226 34.2853 8.13227 32.1965 7.7543C31.9043 6.13972 30.4893 4.91084 28.7918 4.91084C27.6496 4.91084 26.6353 5.46724 26.0046 6.323C25.3739 5.46733 24.3596 4.91084 23.2175 4.91084C22.0753 4.91084 21.061 5.46724 20.4303 6.323C19.7996 5.46733 18.7853 4.91084 17.6432 4.91084C15.9457 4.91084 14.5306 6.13972 14.2385 7.7543C12.1462 8.1329 10.8529 10.3259 11.6127 12.3665H4.68569C4.10207 12.3665 3.62725 12.8412 3.62725 13.4249V33.4265H1.99039C0.892864 33.4265 0 34.3193 0 35.4168V35.6717C0 36.7692 0.892864 37.662 1.99039 37.662H2.48642C3.39159 39.7305 5.43526 41.0892 7.71575 41.0892H38.2182C40.4987 41.0892 42.5424 39.7305 43.4476 37.662H44.0097C45.1072 37.662 46 36.7691 46 35.6717V35.4168C46 34.3193 45.1071 33.4265 44.0097 33.4265V33.4265ZM30.2567 18.2159C30.2567 18.6002 29.9441 18.9128 29.5597 18.9128H29.216C28.8317 18.9128 28.5191 18.6003 28.5191 18.2159V17.4558C28.5191 16.2335 27.5249 15.2393 26.3026 15.2393C25.0804 15.2393 24.0862 16.2335 24.0862 17.4558V21.4409C24.0862 21.8251 23.7736 22.1378 23.3893 22.1378H23.0456C22.6613 22.1378 22.3486 21.8252 22.3486 21.4409V17.4558C22.3486 16.2335 21.3543 15.2393 20.1321 15.2393C18.9099 15.2393 17.9157 16.2335 17.9157 17.4558V18.2159C17.9157 18.6002 17.6031 18.9128 17.2188 18.9128H16.875C16.4908 18.9128 16.1781 18.6003 16.1781 18.2159V13.7141H30.2566V18.2159H30.2567ZM20.4301 9.04562C22.1356 9.04562 23.137 10.9726 22.1646 12.3665H18.6958C17.7241 10.9737 18.7235 9.04562 20.4301 9.04562ZM26.0045 9.04562C27.7103 9.04562 28.7113 10.973 27.739 12.3665H24.2701C23.2986 10.9737 24.298 9.04562 26.0045 9.04562ZM33.3134 12.3665C31.747 12.3665 31.4161 12.3665 29.8445 12.3665C28.8728 10.9739 29.8724 9.04562 31.579 9.04562C33.2839 9.04562 34.286 10.9721 33.3134 12.3665ZM28.7918 6.2584C29.7523 6.2584 30.5652 6.90249 30.8212 7.78143C29.9929 7.96714 29.2749 8.45463 28.7918 9.10914C28.3083 8.45418 27.5901 7.96705 26.7623 7.78143C27.0183 6.90249 27.8312 6.2584 28.7918 6.2584ZM23.2174 6.2584C24.1779 6.2584 24.9908 6.90249 25.2469 7.78143C24.4091 7.96929 23.6939 8.46379 23.2174 9.10914C22.71 8.42111 21.9741 7.9577 21.1879 7.78143C21.4439 6.90249 22.2568 6.2584 23.2174 6.2584ZM17.643 6.2584C18.6035 6.2584 19.4164 6.90249 19.6725 7.78143C18.8651 7.96246 18.1388 8.43747 17.643 9.10914C17.1639 8.46002 16.4486 7.96866 15.6135 7.78143C15.8696 6.90249 16.6825 6.2584 17.643 6.2584ZM14.8559 9.04562C16.5616 9.04562 17.5626 10.973 16.5903 12.3665C15.042 12.3665 14.6823 12.3665 13.1215 12.3665C12.1497 10.9738 13.1493 9.04562 14.8559 9.04562V9.04562ZM38.2182 39.7416H7.71575C6.18123 39.7416 4.7865 38.9354 4.00315 37.6621H41.9308C41.1474 38.9354 39.7527 39.7416 38.2182 39.7416V39.7416ZM44.6524 35.6717C44.6524 36.026 44.3641 36.3143 44.0097 36.3143C43.8183 36.3143 2.80419 36.3143 1.99048 36.3143C1.63605 36.3143 1.34774 36.026 1.34774 35.6717V35.4168C1.34774 35.0625 1.63605 34.7742 1.99048 34.7742H44.0097C44.3641 34.7742 44.6524 35.0625 44.6524 35.4168V35.6717Z" fill="black"/>
<path d="M29.3879 20.9723C28.1656 20.9723 27.1714 21.9665 27.1714 23.1888C27.1714 24.411 28.1656 25.4052 29.3879 25.4052C30.6101 25.4052 31.6043 24.411 31.6043 23.1888C31.6043 21.9665 30.61 20.9723 29.3879 20.9723V20.9723ZM29.3879 24.0575C28.9088 24.0575 28.5191 23.6677 28.5191 23.1887C28.5191 22.7096 28.9088 22.3199 29.3879 22.3199C29.8669 22.3199 30.2567 22.7096 30.2567 23.1887C30.2567 23.6677 29.8669 24.0575 29.3879 24.0575Z" fill="black"/>
</g>
<defs>
<clipPath id="clip0_1417_1682">
<rect width="46" height="46" fill="white"/>
</clipPath>
</defs>
</svg>
