<svg width="46" height="46" viewBox="0 0 46 46" fill="none" xmlns="http://www.w3.org/2000/svg">
<g clip-path="url(#clip0_1417_1662)">
<path d="M37.5666 14.95V18.0167H8.43332V14.95C8.43585 14.1042 9.12086 13.4192 9.96665 13.4167H36.0333C36.8791 13.4192 37.5641 14.1042 37.5666 14.95Z" fill="#FF9801"/>
<path d="M36.0333 13.4167H33.7333C34.5791 13.4192 35.2641 14.1042 35.2666 14.95V18.0167H37.5666V14.95C37.5641 14.1042 36.8791 13.4192 36.0333 13.4167Z" fill="#F57C00"/>
<path d="M37.5666 18.0167V18.4613C37.5433 21.1524 36.6504 23.7637 35.0213 25.9057C33.5493 27.8607 31.8166 31.1573 30.9043 36.4167H25.1313C25.5179 34.8971 25.2921 33.2864 24.5026 31.9317C24.3166 31.6416 24.1008 31.3718 23.8586 31.1267C21.712 29.003 17.8786 29.2867 14.8196 31.6327C14.3541 29.1245 12.8393 26.9347 10.6567 25.6143C9.25125 23.4895 8.48006 21.0084 8.43332 18.4613V18.0167H37.5666Z" fill="#FF5722"/>
<path d="M35.2666 18.0167V18.4613C35.2433 21.1524 34.3504 23.7637 32.7213 25.9057C31.2493 27.8607 29.5166 31.1573 28.6043 36.4167H30.9043C31.8166 31.1573 33.5493 27.8607 35.0213 25.9057C36.6504 23.7637 37.5433 21.1524 37.5666 18.4613V18.0167H35.2666Z" fill="#D84315"/>
<path d="M39.8667 37.9117V37.996C39.8677 38.4517 39.6618 38.8832 39.307 39.169L36.4473 41.4537C36.1821 41.6667 35.8522 41.783 35.512 41.7833H21.781C21.9957 41.5993 22.2027 41.4077 22.4097 41.2007C23.7568 39.9 24.7016 38.2393 25.1313 36.4167H38.3717C38.7684 36.4159 39.1492 36.5731 39.4297 36.8536C39.7102 37.1342 39.8675 37.5149 39.8667 37.9117V37.9117Z" fill="#FF9801"/>
<path d="M38.3717 36.4167H36.0716C36.4684 36.4159 36.8491 36.5731 37.1297 36.8536C37.4102 37.1342 37.5675 37.5149 37.5667 37.9117V37.996C37.5677 38.4517 37.3618 38.8832 37.007 39.169L34.1473 41.4537C33.8821 41.6667 33.5522 41.783 33.212 41.7833H35.512C35.8522 41.783 36.1821 41.6667 36.4473 41.4537L39.307 39.169C39.6618 38.8832 39.8677 38.4517 39.8667 37.996V37.9117C39.8675 37.5149 39.7102 37.1342 39.4297 36.8536C39.1491 36.5731 38.7684 36.4159 38.3717 36.4167Z" fill="#F57C00"/>
<path d="M25.1313 36.4167C24.7016 38.2393 23.7568 39.9 22.4096 41.2007C22.2026 41.4077 21.9956 41.5993 21.781 41.7833C18.6606 44.4513 14.5513 44.8653 12.3126 42.642C12.2625 42.5948 12.2163 42.5435 12.1746 42.4887C11.9864 42.2874 11.817 42.0692 11.6686 41.837C13.5623 40.043 14.9883 41.4077 16.882 39.5217C18.8063 37.605 17.365 36.1637 19.2893 34.247C21.1753 32.361 22.609 33.7257 24.495 31.9317H24.5026C25.2921 33.2864 25.5179 34.8971 25.1313 36.4167V36.4167Z" fill="#6D4122"/>
<path d="M24.5026 31.9317H24.495C22.609 33.7257 21.1753 32.361 19.2893 34.247C17.365 36.1637 18.8063 37.605 16.882 39.5217C14.9883 41.4077 13.5623 40.043 11.6687 41.837C10.0817 39.33 10.8943 35.4123 13.7617 32.568C14.0939 32.2339 14.4473 31.9214 14.8197 31.6327C17.8787 29.2867 21.712 29.003 23.8586 31.1267C24.1008 31.3718 24.3166 31.6416 24.5026 31.9317V31.9317Z" fill="#91562D"/>
<path d="M13.7617 32.568C10.8943 35.4123 10.0817 39.33 11.6687 41.837C11.8171 42.0692 11.9864 42.2874 12.1747 42.4887C11.2983 43.2006 10.2701 43.7017 9.16933 43.953V43.9453C9.09266 40.8787 6.76199 40.8327 6.76199 37.697C6.76199 34.5 9.16933 34.5 9.16933 31.303C9.16933 28.1673 6.83866 28.1213 6.76199 25.0547C7.15722 24.9663 7.56069 24.9201 7.96566 24.9167C8.90713 24.9187 9.83281 25.1587 10.6567 25.6143C12.8394 26.9347 14.3541 29.1245 14.8197 31.6327C14.4473 31.9215 14.0939 32.2339 13.7617 32.568Z" fill="#783E22"/>
<path d="M6.76198 37.697C6.76198 40.8327 9.09265 40.8787 9.16931 43.9454V43.953C4.65365 44.9114 0.758982 40.3114 0.766649 34.5C0.758982 29.762 3.35798 25.8137 6.76198 25.0547C6.83865 28.1213 9.16931 28.1673 9.16931 31.303C9.16931 34.5 6.76198 34.5 6.76198 37.697Z" fill="#A0522D"/>
<path d="M7.66666 14.95V18.4613C7.67097 19.7038 7.85457 20.9391 8.21176 22.1291C8.33201 22.5351 8.75867 22.7668 9.16472 22.6466C9.57078 22.5263 9.80247 22.0997 9.68222 21.6936C9.40039 20.7469 9.24242 19.7676 9.21226 18.7803H13.0333C13.4567 18.7803 13.8 18.437 13.8 18.0136C13.8 17.5902 13.4567 17.2469 13.0333 17.2469H9.19999V14.95C9.19999 14.5266 9.54324 14.1833 9.96666 14.1833H36.0333C36.4567 14.1833 36.8 14.5266 36.8 14.95V17.25H17.6333C17.2099 17.25 16.8667 17.5933 16.8667 18.0167C16.8667 18.4401 17.2099 18.7833 17.6333 18.7833H36.7862C36.7008 21.1958 35.8705 23.5226 34.4095 25.4441C33.0541 27.2443 31.2662 30.4612 30.2695 35.65H28.244C27.8206 35.65 27.4773 35.9933 27.4773 36.4167C27.4773 36.8401 27.8206 37.1833 28.244 37.1833H38.3717C38.7737 37.1838 39.0996 37.5096 39.1 37.9117V37.996C39.1011 38.2186 39.0013 38.4298 38.8286 38.5702L35.9697 40.8549C35.8391 40.9593 35.6769 41.0163 35.5097 41.0167H25.944C25.5206 41.0167 25.1773 41.3599 25.1773 41.7833C25.1773 42.2068 25.5206 42.55 25.944 42.55H35.512C36.0258 42.5487 36.524 42.3736 36.9257 42.0532L39.79 39.7662C40.3257 39.3351 40.636 38.6836 40.6333 37.996V37.9117C40.6321 36.6631 39.6202 35.6513 38.3717 35.65H31.8358C32.5887 33.5309 34.257 31.05 37.95 31.05C44.5763 31.05 45.8375 24.4436 45.9578 23.6977C46.0991 22.8557 45.8623 21.9943 45.3105 21.3428C44.7588 20.6913 43.9481 20.316 43.0943 20.3167H38.1877C38.2819 19.7027 38.3306 19.0825 38.3333 18.4613V14.95C38.3333 13.6797 37.3036 12.65 36.0333 12.65H9.96666C8.6964 12.65 7.66666 13.6797 7.66666 14.95V14.95ZM43.0943 21.85C43.5002 21.8494 43.8855 22.0289 44.1462 22.3399C44.405 22.6455 44.5148 23.0502 44.446 23.4447C44.2819 24.4567 43.1963 29.5167 37.95 29.5167C36.1951 29.4668 34.4787 30.0368 33.1024 31.1267C33.7167 29.4265 34.5698 27.8224 35.6362 26.3626C36.6509 25.0092 37.4053 23.479 37.8611 21.85H43.0943Z" fill="black"/>
<path d="M24.3984 30.5831C21.7051 27.9082 16.688 28.556 13.2181 32.0275C11.3197 33.8178 10.2007 36.2824 10.1023 38.89C10.0266 40.4894 10.6292 42.0466 11.7619 43.1784C12.8946 44.3103 14.4523 44.9117 16.0517 44.8347C18.6674 44.7437 21.1439 43.6332 22.9517 41.7404C24.85 39.9504 25.9687 37.4861 26.0666 34.8787C26.1155 33.28 25.5134 31.7298 24.3984 30.5831V30.5831ZM14.3006 33.1131C15.8181 31.5063 17.9003 30.5517 20.1081 30.4505C21.2974 30.4112 22.4528 30.8503 23.3158 31.6695C23.3565 31.7101 23.3848 31.7607 23.4239 31.8036C22.9327 32.0858 22.3837 32.2523 21.8185 32.2905C19.422 32.4777 17.5172 34.3793 17.3259 36.7755C17.2318 38.4968 15.855 39.8703 14.1335 39.9602C13.3579 40.0249 12.6071 40.2647 11.9377 40.6617C11.7309 40.095 11.6286 39.4955 11.6357 38.8922C11.7455 36.6943 12.7003 34.6238 14.3006 33.1131V33.1131ZM21.8691 40.6533C18.9934 43.5298 14.9492 44.18 12.8539 42.0985C12.8133 42.0571 12.7849 42.0065 12.7458 41.9635C13.2371 41.6816 13.7861 41.5154 14.3512 41.4775C16.748 41.2906 18.6532 39.3889 18.8446 36.9924C18.9397 35.2725 20.3154 33.9006 22.0355 33.81C22.811 33.7448 23.5616 33.505 24.2312 33.1085C24.4374 33.6749 24.5398 34.2738 24.5333 34.8764C24.4236 37.0736 23.4691 39.1434 21.8691 40.6533V40.6533Z" fill="black"/>
<path d="M7.96795 44.85C8.43268 44.8524 8.896 44.7988 9.34795 44.6905C9.69998 44.6056 9.94456 44.2859 9.93445 43.9239C9.91132 42.6308 9.43051 41.3877 8.57745 40.4156C7.89276 39.6755 7.5189 38.7005 7.53325 37.6924C7.52341 36.6821 7.89712 35.7056 8.57898 34.96C10.3834 32.8605 10.3834 29.7578 8.57898 27.6583C8.08711 27.101 7.74727 26.4264 7.59228 25.6994C7.71955 25.6887 7.844 25.6833 7.96565 25.6833C10.005 25.6902 11.8756 26.9767 13.1023 29.21C13.2304 29.4566 13.4819 29.6146 13.7596 29.6229C14.0374 29.6313 14.2979 29.4887 14.4406 29.2502C14.5832 29.0118 14.5857 28.7148 14.447 28.474C12.9666 25.7723 10.5447 24.1554 7.96642 24.1469C7.50474 24.1477 7.04453 24.1991 6.59408 24.3003C2.76612 25.162 -0.00768133 29.45 -1.46641e-05 34.5C-0.00768133 40.1986 3.56575 44.8416 7.96795 44.85V44.85ZM6.10342 26.0667C6.30975 26.9948 6.74129 27.8579 7.35998 28.5798C8.04467 29.3199 8.41854 30.2949 8.40418 31.303C8.41419 32.3157 8.03838 33.2943 7.35308 34.04C5.55001 36.14 5.55001 39.2418 7.35308 41.3417C7.846 41.8995 8.18596 42.5754 8.33978 43.3037C8.22018 43.3136 8.09828 43.3182 7.97255 43.3182C4.41368 43.3098 1.52718 39.3553 1.53332 34.5C1.52718 30.6214 3.44155 27.1806 6.10342 26.0667V26.0667Z" fill="black"/>
<path d="M17.8817 8.3789C17.2559 8.84288 16.8809 9.57107 16.8666 10.35C16.8666 10.7734 17.2099 11.1167 17.6333 11.1167C18.0567 11.1167 18.4 10.7734 18.4 10.35C18.4 9.9981 18.5533 9.84707 18.9182 9.50667C19.5434 9.04279 19.9183 8.3154 19.9333 7.5371C19.9191 6.75817 19.5441 6.02998 18.9182 5.566C18.5533 5.2279 18.4 5.07687 18.4 4.72497C18.4 4.37307 18.5533 4.22357 18.9182 3.88164C19.5427 3.41928 19.9176 2.69354 19.9333 1.91667C19.9333 1.49325 19.5901 1.15 19.1666 1.15C18.7432 1.15 18.4 1.49325 18.4 1.91667C18.4 2.26704 18.2466 2.4173 17.8825 2.7554C17.2562 3.21842 16.8808 3.94627 16.8666 4.72497C16.8806 5.50396 17.2557 6.23225 17.8817 6.69607C18.2505 7.03417 18.4 7.1852 18.4 7.5394C18.4 7.8936 18.2505 8.0408 17.8817 8.3789Z" fill="black"/>
<path d="M22.4817 8.3789C21.8559 8.84288 21.4809 9.57107 21.4667 10.35C21.4667 10.7734 21.8099 11.1167 22.2333 11.1167C22.6568 11.1167 23 10.7734 23 10.35C23 9.9981 23.1533 9.84707 23.5183 9.50667C24.1434 9.04279 24.5183 8.3154 24.5333 7.5371C24.5191 6.75817 24.1441 6.02998 23.5183 5.566C23.1533 5.2279 23 5.07687 23 4.72497C23 4.37307 23.1533 4.22357 23.5183 3.88164C24.1428 3.41928 24.5177 2.69354 24.5333 1.91667C24.5333 1.49325 24.1901 1.15 23.7667 1.15C23.3433 1.15 23 1.49325 23 1.91667C23 2.26704 22.8467 2.4173 22.4825 2.7554C21.8563 3.21842 21.4809 3.94627 21.4667 4.72497C21.4807 5.50396 21.8557 6.23225 22.4817 6.69607C22.8505 7.03417 23 7.1852 23 7.5394C23 7.8936 22.8505 8.0408 22.4817 8.3789Z" fill="black"/>
<path d="M27.0817 8.3789C26.4559 8.84288 26.0809 9.57107 26.0667 10.35C26.0667 10.7734 26.4099 11.1167 26.8333 11.1167C27.2567 11.1167 27.6 10.7734 27.6 10.35C27.6 9.9981 27.7533 9.84707 28.1183 9.50667C28.7434 9.04279 29.1183 8.3154 29.1333 7.5371C29.1191 6.75817 28.7441 6.02998 28.1183 5.566C27.7533 5.2279 27.6 5.07687 27.6 4.72497C27.6 4.37307 27.7533 4.22357 28.1183 3.88164C28.7428 3.41928 29.1177 2.69354 29.1333 1.91667C29.1333 1.49325 28.7901 1.15 28.3667 1.15C27.9432 1.15 27.6 1.49325 27.6 1.91667C27.6 2.26704 27.4467 2.4173 27.0825 2.7554C26.4562 3.21842 26.0808 3.94627 26.0667 4.72497C26.0807 5.50396 26.4557 6.23225 27.0817 6.69607C27.4505 7.03417 27.6 7.1852 27.6 7.5394C27.6 7.8936 27.4505 8.0408 27.0817 8.3789Z" fill="black"/>
</g>
<defs>
<clipPath id="clip0_1417_1662">
<rect width="46" height="46" fill="white"/>
</clipPath>
</defs>
</svg>
