<svg width="46" height="46" viewBox="0 0 46 46" fill="none" xmlns="http://www.w3.org/2000/svg">
<path d="M12.3062 10.5065L13.7523 10.0391C14.3455 9.84738 14.9877 10.1759 15.1793 10.7691L16.4127 14.5857C16.5966 14.5657 16.7833 14.5553 16.9725 14.5553C17.3309 14.5553 17.6806 14.5924 18.0182 14.6624C18.0168 14.6268 18.0155 14.5912 18.0155 14.5553C18.0155 13.0484 19.2371 11.8268 20.744 11.8268C21.3329 11.8268 21.8777 12.014 22.3235 12.3313C23.1225 12.2477 23.9641 12.5177 24.5775 13.2081C24.692 13.337 24.9039 13.3158 24.9894 13.166C26.0455 11.3164 28.7397 11.4006 29.6802 13.3081C29.7527 13.4552 29.9474 13.4975 30.0745 13.3937C31.6034 12.1455 33.9312 12.9508 34.3485 14.8913C34.383 15.0517 34.553 15.138 34.7037 15.0735C35.6445 14.6714 36.6347 14.8543 37.3441 15.4093C37.7732 14.7628 37.9174 13.9353 37.6651 13.1377C37.2617 11.8628 35.986 11.1067 34.704 11.3179C34.5476 11.3436 34.4075 11.2234 34.4051 11.0649C34.3816 9.49897 33.0176 8.30836 31.4866 8.46173C31.1674 8.49371 30.8712 8.29309 30.7869 7.98349C30.2693 6.0824 28.0183 5.41621 26.5588 6.67151C26.4345 6.77842 26.2464 6.74742 26.1651 6.60493C25.1819 4.88084 22.7196 4.81507 21.6384 6.46639C21.5486 6.60359 21.3502 6.62209 21.2367 6.50368C19.7646 4.96879 17.1705 5.70129 16.7216 7.78332C16.6853 7.95187 16.4896 8.03596 16.3415 7.94764C14.5134 6.85676 12.2011 8.25931 12.3287 10.385C12.3313 10.4288 12.3225 10.4696 12.3062 10.5065V10.5065Z" fill="#A2E82D"/>
<path d="M23.1561 9.57553C23.3125 9.5263 23.3827 9.34904 23.3045 9.20484C22.4903 7.70391 23.2862 5.91539 24.8496 5.45799C23.7384 5.01785 22.3714 5.34722 21.6385 6.46649C21.5487 6.60368 21.3503 6.62219 21.2368 6.50378C19.7648 4.96888 17.1706 5.70138 16.7217 7.78342C16.6853 7.95197 16.4897 8.03606 16.3416 7.94774C14.5135 6.85686 12.2013 8.25941 12.3288 10.3851C12.3314 10.4287 12.3226 10.4696 12.3062 10.5064L13.7523 10.039C14.3455 9.84731 14.9877 10.1759 15.1793 10.769L16.4127 14.5857C16.5966 14.5656 16.7833 14.5552 16.9725 14.5552C17.3309 14.5552 17.6806 14.5923 18.0182 14.6623C18.0169 14.6267 18.0155 14.5912 18.0155 14.5552C18.0155 13.0484 19.237 11.8267 20.744 11.8267C20.9389 11.8267 21.1285 11.8491 21.3118 11.888C21.3988 10.8748 22.0561 9.92188 23.1561 9.57553V9.57553Z" fill="#98D829"/>
<path d="M38.862 18.2669C38.548 18.201 38.3261 17.9205 38.3391 17.5999C38.4191 15.6312 36.4739 14.317 34.7037 15.0736C34.5529 15.1381 34.3829 15.0517 34.3484 14.8914C33.931 12.9509 31.6034 12.1456 30.0744 13.3938C29.9474 13.4975 29.7527 13.4553 29.6802 13.3082C28.7396 11.4007 26.0454 11.3165 24.9893 13.1661C24.9038 13.3159 24.6919 13.337 24.5774 13.2082C23.9641 12.5178 23.1224 12.2478 22.3235 12.3314C24.2037 13.6692 23.5825 16.5952 21.3623 17.1905C22.148 18.6007 22.2011 20.2598 21.6086 21.6677H40.8523C40.8542 21.6549 40.8556 21.6421 40.8594 21.6293C41.3093 20.1291 40.368 18.5825 38.862 18.2669V18.2669Z" fill="#00C63A"/>
<path d="M28.749 21.6675C28.5633 20.4733 29.1955 19.1887 30.5021 18.7352C30.657 18.6814 30.723 18.4934 30.6358 18.3545C29.5863 16.6829 30.6734 14.4726 32.6505 14.2985C32.8138 14.2841 32.9206 14.1261 32.8752 13.9685C32.781 13.6408 32.7531 13.3162 32.7799 13.0048C31.9232 12.6473 30.8863 12.731 30.0745 13.3938C29.9474 13.4975 29.7528 13.4553 29.6803 13.3082C28.7397 11.4007 26.0455 11.3165 24.9894 13.1661C24.9039 13.3159 24.692 13.337 24.5775 13.2082C23.9642 12.5178 23.1225 12.2478 22.3236 12.3314C24.2038 13.6692 23.5826 16.5952 21.3624 17.1905C22.1481 18.6007 22.2012 20.2598 21.6087 21.6677C21.9264 21.6675 25.0808 21.6675 28.749 21.6675Z" fill="#06A32B"/>
<path d="M20.7491 11.7521C19.2031 11.7521 17.9498 13.0054 17.9498 14.5514C17.9498 14.5882 17.9511 14.6247 17.9526 14.6613C19.4684 14.9756 20.7446 15.9426 21.4757 17.255C22.6694 16.935 23.5484 15.8461 23.5484 14.5515C23.5485 13.0053 22.2952 11.7521 20.7491 11.7521Z" fill="#665E68"/>
<path d="M21.0943 14.5513C21.0943 13.5882 21.5808 12.7388 22.3214 12.2351C21.8732 11.9303 21.3321 11.752 20.7492 11.752C19.2031 11.752 17.9498 13.0053 17.9498 14.5513C17.9498 14.5882 17.9511 14.6246 17.9526 14.6612C19.4684 14.9755 20.7446 15.9425 21.4757 17.2549C21.7815 17.173 22.0664 17.0402 22.3214 16.8668C21.581 16.3632 21.0943 15.5144 21.0943 14.5513V14.5513Z" fill="#544E55"/>
<path d="M32.8727 14.904H28.0468C27.5139 14.904 27.078 15.34 27.078 15.8728V16.2142C28.5188 16.2882 29.6643 17.4798 29.6643 18.939C29.6643 20.2024 28.8054 21.2648 27.6399 21.5753C27.764 21.6334 27.9013 21.6675 28.0468 21.6675H32.8727C33.4055 21.6675 33.8414 21.2316 33.8414 20.6987V15.8728C33.8414 15.34 33.4055 14.904 32.8727 14.904V14.904Z" fill="#FEE6C1"/>
<path d="M30.6942 20.6987V15.8728C30.6942 15.34 31.1301 14.904 31.663 14.904H28.0468C27.5139 14.904 27.078 15.34 27.078 15.8728V16.2142C28.5188 16.2882 29.6643 17.4798 29.6643 18.939C29.6643 20.2024 28.8054 21.2648 27.6399 21.5753C27.764 21.6334 27.9013 21.6675 28.0468 21.6675H31.663C31.1302 21.6675 30.6942 21.2316 30.6942 20.6987V20.6987Z" fill="#FCD79B"/>
<path d="M26.972 21.7035C28.4988 21.7035 29.7365 20.4658 29.7365 18.939C29.7365 17.4122 28.4988 16.1745 26.972 16.1745C25.4452 16.1745 24.2075 17.4122 24.2075 18.939C24.2075 20.4658 25.4452 21.7035 26.972 21.7035Z" fill="#665E68"/>
<path d="M27.078 18.939C27.078 17.9378 27.6102 17.061 28.4072 16.5758C27.9888 16.3212 27.4976 16.1745 26.972 16.1745C25.4452 16.1745 24.2075 17.4122 24.2075 18.939C24.2075 20.4658 25.4452 21.7035 26.972 21.7035C27.4976 21.7035 27.9889 21.5568 28.4072 21.3022C27.6102 20.8171 27.078 19.9402 27.078 18.939Z" fill="#544E55"/>
<path d="M9.30069 14.5913C10.829 14.6126 12.1977 15.2908 13.1382 16.3569C13.9757 15.4075 15.1528 14.7648 16.4798 14.6204L15.2249 10.7371C15.0299 10.1335 14.3765 9.79931 13.7729 9.99436L9.47589 11.383C8.87232 11.578 8.5381 12.2314 8.73315 12.835L9.30069 14.5913Z" fill="#FEE6C1"/>
<path d="M12.7921 13.7081C12.3151 13.6323 11.9257 13.2855 11.7772 12.826L11.4739 11.8874C11.3176 11.4035 11.5019 10.8882 11.8919 10.6021L9.47579 11.383C8.87223 11.578 8.53801 12.2314 8.73306 12.8349L9.3006 14.5913C10.8289 14.6126 12.1977 15.2908 13.1381 16.3569C13.7256 15.691 14.4804 15.1768 15.3366 14.8788C14.6264 14.2767 13.7532 13.861 12.7921 13.7081Z" fill="#FCD79B"/>
<path d="M21.6984 21.6675C21.9556 21.0565 22.0979 20.3852 22.0979 19.6807C22.0979 16.85 19.8032 14.5553 16.9725 14.5553C14.1418 14.5553 11.8471 16.85 11.8471 19.6807C11.8471 20.3852 11.9894 21.0565 12.2466 21.6675H21.6984Z" fill="#FF7F87"/>
<path d="M18.5908 21.6675C19.167 21.1976 19.5352 20.4821 19.5352 19.6807C19.5352 18.2653 18.3878 17.118 16.9725 17.118C15.5572 17.118 14.4098 18.2653 14.4098 19.6807C14.4098 20.4821 14.778 21.1976 15.3542 21.6675H18.5908Z" fill="#FF4654"/>
<path d="M14.0103 21.6675C14.2675 21.0565 14.4098 20.3852 14.4098 19.6807C14.4098 16.85 12.1151 14.5553 9.28444 14.5553C6.45373 14.5553 4.15903 16.85 4.15903 19.6807C4.15903 20.3852 4.30134 21.0565 4.55856 21.6675H14.0103Z" fill="#FF7F87"/>
<path d="M11.4182 15.0207C10.7684 14.7226 10.0462 14.5553 9.28443 14.5553C6.45373 14.5553 4.15903 16.85 4.15903 19.6807C4.15903 20.3852 4.30134 21.0565 4.55856 21.6675H8.82614C8.56892 21.0565 8.42661 20.3852 8.42661 19.6807C8.4267 17.6118 9.65324 15.8303 11.4182 15.0207Z" fill="#FF636E"/>
<path d="M10.9028 21.6675C11.479 21.1976 11.8472 20.4821 11.8472 19.6807C11.8472 18.2653 10.6998 17.118 9.2845 17.118C7.8692 17.118 6.7218 18.2653 6.7218 19.6807C6.7218 20.4821 7.08998 21.1976 7.66624 21.6675H10.9028Z" fill="#FF4654"/>
<path d="M9.11003 17.1245C7.77612 17.2143 6.72171 18.324 6.72171 19.6807C6.72171 20.4822 7.08989 21.1976 7.66615 21.6675H8.82621C8.56899 21.0564 8.42667 20.3852 8.42667 19.6807C8.42667 18.7494 8.67581 17.8769 9.11003 17.1245Z" fill="#FD2A39"/>
<path d="M2.47653 24.4966C2.81506 29.3703 5.67765 34.0516 9.9966 36.9187C11.0969 37.6492 12.3945 38.027 13.7159 38.027H32.2589C33.5803 38.027 34.8779 37.6492 35.9781 36.9187C40.2971 34.0516 43.1597 29.3703 43.4982 24.4966H2.47653Z" fill="#00C2FB"/>
<path d="M10.81 24.4966H2.47653C2.81506 29.3703 5.67767 34.0516 9.99664 36.9188C11.097 37.6492 12.3946 38.0271 13.7159 38.0271H22.0493C20.7278 38.0271 19.4302 37.6492 18.3299 36.9188C14.0111 34.0516 11.1485 29.3703 10.81 24.4966V24.4966Z" fill="#00ABF2"/>
<path d="M33.2591 39.4637V39.2008C33.2591 38.4537 32.6468 37.8424 31.8983 37.8424H13.6815C12.9331 37.8424 12.3208 38.4536 12.3208 39.2008V39.4637C12.3208 40.2108 12.9331 40.8221 13.6815 40.8221H31.8983C32.6468 40.8221 33.2591 40.2108 33.2591 39.4637Z" fill="#62DDFC"/>
<path d="M20.6542 39.4637V39.2008C20.6542 38.4537 21.2665 37.8424 22.0149 37.8424H13.6815C12.9331 37.8424 12.3208 38.4536 12.3208 39.2008V39.4637C12.3208 40.2108 12.9331 40.822 13.6815 40.822H22.0149C21.2666 40.8221 20.6542 40.2108 20.6542 39.4637Z" fill="#00C2FB"/>
<path d="M43.9528 21.6093H2.02193C1.27354 21.6093 0.661163 22.3128 0.661163 23.0599V23.3229C0.661163 24.0699 1.27354 24.6812 2.02193 24.6812H43.9528C44.7012 24.6812 45.3136 24.07 45.3136 23.3229V23.0599C45.3135 22.3128 44.7012 21.6093 43.9528 21.6093Z" fill="#62DDFC"/>
<path d="M8.99462 23.3228V23.0598C8.99462 22.3128 9.60691 21.6092 10.3553 21.6092H2.02194C1.27354 21.6092 0.661163 22.3128 0.661163 23.0598V23.3228C0.661163 24.0699 1.27354 24.6811 2.02194 24.6811H10.3553C9.60691 24.6812 8.99462 24.0699 8.99462 23.3228Z" fill="#00C2FB"/>
<path d="M43.9654 20.9481H41.6537C41.7152 19.2952 40.5695 17.8945 39.0256 17.5646C39.057 16.6871 38.754 15.8583 38.1944 15.2309C39.1818 12.9896 37.4723 10.5011 35.0547 10.5649C34.7896 8.81193 33.1972 7.57613 31.445 7.7445C30.8396 5.5622 28.3534 4.644 26.5043 5.83685C25.2316 4.18481 22.7475 4.11662 21.3794 5.66822C19.6338 4.29137 17.0163 5.01757 16.2255 7.08927C14.1384 6.25633 11.8194 7.70317 11.6716 9.96183L9.33446 10.7171C8.38616 11.0236 7.86417 12.0444 8.17045 12.9925L8.46262 13.8967C5.16204 14.3744 2.87032 17.5927 3.64863 20.9481H2.03459C0.912719 20.9481 0 21.8609 0 22.9827V23.2462C0 24.3143 0.827548 25.1922 1.87512 25.2738C2.4034 29.9602 5.20337 34.2945 9.63607 37.2425C10.3743 37.7334 11.1925 38.0816 12.0549 38.278C11.9282 38.5431 11.8571 38.8396 11.8571 39.1525V39.4159C11.8571 40.5378 12.7698 41.4505 13.8917 41.4505H21.4278C21.8001 41.4505 22.1017 41.1488 22.1017 40.7767C22.1017 40.4045 21.8001 40.1028 21.4278 40.1028H13.8916C13.5128 40.1028 13.2046 39.7947 13.2046 39.4159V39.1525C13.2046 38.7737 13.5128 38.4655 13.8916 38.4655H32.1083C32.4871 38.4655 32.7953 38.7737 32.7953 39.1525V39.4159C32.7953 39.7947 32.4871 40.1028 32.1083 40.1028H24.5723C24.2 40.1028 23.8984 40.4045 23.8984 40.7767C23.8984 41.1488 24.2 41.4505 24.5723 41.4505H32.1083C33.2301 41.4505 34.1429 40.5378 34.1429 39.4159V39.1525C34.1429 38.8396 34.0718 38.5431 33.9451 38.278C34.8076 38.0816 35.6258 37.7334 36.3639 37.2425C37.8913 36.2268 39.2402 35.0376 40.373 33.7078C40.6144 33.4245 40.5804 32.9992 40.2971 32.7579C40.0138 32.5166 39.5885 32.5505 39.3472 32.8338C38.2955 34.0682 37.0407 35.1739 35.6176 36.1204C34.6363 36.773 33.4792 37.118 32.2715 37.118H32.1084H13.8916H13.7285C12.5208 37.118 11.3638 36.7731 10.3824 36.1204C6.33441 33.4283 3.76013 29.5098 3.2314 25.2808H42.7691C42.5507 27.0443 41.9827 28.7506 41.0761 30.3627C40.8937 30.687 41.0087 31.0978 41.3331 31.2802C41.6572 31.4626 42.0682 31.3475 42.2507 31.0232C43.2734 29.2045 43.9018 27.273 44.1253 25.2737C45.1725 25.1918 45.9999 24.314 45.9999 23.2461V22.9826C46 21.8609 45.0873 20.9481 43.9654 20.9481V20.9481ZM40.3072 20.9481H34.5014C34.5174 20.86 34.5279 20.7491 34.5279 20.6532V15.8273C34.5279 15.791 34.5267 15.755 34.5244 15.7193C34.8209 15.7478 34.9773 15.6331 35.219 15.563C36.4551 15.209 37.7352 16.1278 37.6784 17.5267C37.6519 18.1772 38.0968 18.7466 38.7363 18.8808C39.6963 19.0821 40.3728 19.9725 40.3072 20.9481ZM29.6595 20.9481C30.0906 20.3792 30.3507 19.6572 30.3507 18.8935C30.3507 17.3526 29.3185 16.0172 27.859 15.6142C27.9164 15.5599 27.9895 15.5324 28.0594 15.5324H32.8852C33.045 15.5324 33.1802 15.6674 33.1802 15.8273V20.6532C33.1802 20.8131 33.045 20.9481 32.8852 20.9481H29.6595ZM15.0962 19.6352C15.0962 18.5936 15.9436 17.7463 16.9851 17.7463C18.0265 17.7463 18.8739 18.5936 18.8739 19.6352C18.8739 20.1298 18.6827 20.5973 18.3427 20.9481H15.6274C15.2875 20.5973 15.0962 20.1298 15.0962 19.6352V19.6352ZM14.6477 17.4001C14.4804 17.0009 14.2652 16.6195 14.04 16.2998C17.315 13.398 22.5339 16.5372 21.24 20.9482H19.9433C20.1243 20.5404 20.2218 20.095 20.2218 19.6353C20.2217 16.7227 16.6569 15.2999 14.6477 17.4001V17.4001ZM20.7565 12.4552C21.7467 12.4552 22.596 13.1658 22.7765 14.1366C22.7772 14.1407 22.7779 14.1448 22.7786 14.149C22.9336 15.0108 22.5183 15.8885 21.7385 16.3137C21.0072 15.267 19.9543 14.4917 18.7416 14.1071C18.9367 13.1468 19.7789 12.4552 20.7565 12.4552ZM22.3775 17.5014C23.7788 16.7411 24.4808 15.0875 24.0158 13.5353C24.1039 13.6252 24.3686 13.9698 24.8776 13.9161C25.1747 13.8851 25.4399 13.7125 25.587 13.4547C26.3737 12.0773 28.3837 12.1312 29.0884 13.5606C29.3527 14.0966 30.0507 14.2476 30.5132 13.8702C31.4084 13.1392 32.7291 13.3345 33.3846 14.2624C33.2429 14.2172 33.0548 14.1847 32.8852 14.1847H28.0594C27.2679 14.1847 26.5874 14.7577 26.444 15.5286C24.812 15.7726 23.5463 17.186 23.5463 18.8935C23.5463 19.6575 23.8042 20.3771 24.2383 20.9481H22.6352C22.8897 19.8499 22.8234 18.6291 22.3775 17.5014V17.5014ZM24.8939 18.8935C24.8939 17.7606 25.8156 16.8389 26.9485 16.8389C28.0742 16.8389 29.0031 17.7531 29.0031 18.8935C29.0031 20.0202 28.0863 20.9481 26.9485 20.9481C25.8156 20.9481 24.8939 20.0264 24.8939 18.8935V18.8935ZM16.0089 8.48094C16.5526 8.80528 17.2597 8.49792 17.3929 7.87998C17.7284 6.32461 19.6625 5.77702 20.7631 6.92468C21.1768 7.35637 21.888 7.28944 22.2148 6.79009C23.0238 5.55483 24.8618 5.61206 25.5924 6.89323C25.8833 7.40327 26.5648 7.52061 27.0109 7.13689C28.0794 6.21779 29.756 6.67033 30.1495 8.1151C30.3205 8.74328 30.9174 9.15081 31.5666 9.08667C32.6825 8.9749 33.7262 9.83578 33.7441 11.0294C33.7526 11.5999 34.2642 12.0298 34.8262 11.9372C36.2276 11.7067 37.4386 13.0126 37.0594 14.4096C36.3784 14.113 35.6166 14.0571 34.8905 14.2553C34.1801 12.3086 31.8388 11.4746 30.0552 12.5485C28.8084 10.7129 26.0957 10.6079 24.7134 12.3477C24.1104 11.8501 23.34 11.5729 22.5168 11.5985C22.0013 11.2854 21.3817 11.1075 20.7566 11.1075C19.1028 11.1075 17.7212 12.2996 17.4181 13.852C17.302 13.8434 17.051 13.8348 16.9061 13.8365L15.8332 10.5164C15.527 9.56859 14.5063 9.04597 13.5578 9.35242L13.1308 9.49042C13.5301 8.40628 14.8817 7.8082 16.0089 8.48094V8.48094ZM9.749 11.9997C10.9763 11.603 12.5909 11.0812 13.9721 10.6348C14.212 10.5575 14.4734 10.6917 14.5507 10.9308L15.5477 14.0159C14.6984 14.2327 13.8432 14.6712 13.1405 15.2947C12.2514 14.5084 11.1082 13.9862 9.86858 13.8644L9.45297 12.5782C9.3757 12.3394 9.50921 12.0771 9.749 11.9997V11.9997ZM4.84552 19.6352C4.84552 17.1806 6.84256 15.1836 9.29709 15.1836C12.2764 15.1836 14.4387 18.0842 13.5506 20.9481H12.2552C13.2071 18.8041 11.626 16.3987 9.29709 16.3987C6.9705 16.3987 5.38647 18.8021 6.33908 20.9481H5.04219C4.91147 20.5251 4.84552 20.0851 4.84552 19.6352V19.6352ZM9.297 17.7463C10.9667 17.7463 11.8053 19.7605 10.6546 20.9481H7.93937C6.7865 19.7583 7.62977 17.7463 9.297 17.7463ZM44.6524 23.2461C44.6524 23.6248 44.3442 23.933 43.9654 23.933C43.4296 23.933 2.36773 23.933 2.0345 23.933C1.65572 23.933 1.34756 23.6248 1.34756 23.2461V22.9826C1.34756 22.6039 1.65572 22.2957 2.0345 22.2957H43.9654C44.3442 22.2957 44.6524 22.6039 44.6524 22.9826V23.2461Z" fill="black"/>
</svg>
