<svg width="46" height="46" viewBox="0 0 46 46" fill="none" xmlns="http://www.w3.org/2000/svg">
<path d="M27.6174 24.0121C27.7104 23.0836 28.3609 22.3196 29.2292 22.0593C29.237 20.1249 27.9003 18.3923 25.945 17.9593C25.4797 17.8564 25.012 18.1057 24.8382 18.5493C24.4083 19.6463 24.4413 20.9166 25.036 22.0388C25.9722 22.5965 26.8381 23.2596 27.6174 24.0121Z" fill="#00C63A"/>
<path d="M31.7308 25.4692C32.2813 25.4265 32.8075 25.4287 33.4548 25.5076C34.4836 24.9854 35.0933 23.8664 34.9377 22.6891C34.8967 22.3782 34.6371 22.145 34.3236 22.1375C33.4002 22.1152 32.4997 22.5534 31.9566 23.374C32.2226 24.0493 32.156 24.8351 31.7308 25.4692V25.4692Z" fill="#00C63A"/>
<path d="M26.844 21.3951C26.3742 20.3596 26.3624 19.2206 26.7325 18.2177C26.4862 18.1093 26.2264 18.0223 25.954 17.9613C25.4901 17.8576 25.0115 18.1066 24.8381 18.5493C24.4082 19.6463 24.4413 20.9166 25.0359 22.0388C25.9722 22.5965 26.8381 23.2596 27.6174 24.0121C27.6745 23.4423 27.9421 22.9352 28.3406 22.5676C27.9634 22.2775 27.5714 22.0057 27.1655 21.7543C27.0259 21.6678 26.9119 21.5446 26.844 21.3951V21.3951Z" fill="#06A32B"/>
<path d="M34.9554 22.8797C34.9516 22.819 34.9467 22.7581 34.9389 22.697C34.8986 22.382 34.6347 22.1442 34.3171 22.1373C33.3961 22.1172 32.4986 22.5553 31.9568 23.3739C32.2227 24.0493 32.1561 24.8351 31.7309 25.4692C32.178 25.4346 32.6101 25.4303 33.1029 25.4718C33.1882 25.1278 33.1915 24.7699 33.1152 24.4281C33.0582 24.1725 33.1349 23.9017 33.3151 23.7116C33.7582 23.2446 34.3398 22.9596 34.9554 22.8797V22.8797Z" fill="#06A32B"/>
<path d="M29.3288 26.0167C30.0876 25.7265 30.8978 25.5411 31.7417 25.4758C31.9844 25.1139 32.1261 24.6787 32.1261 24.2103C32.1261 22.9536 31.1073 21.9348 29.8506 21.9348C28.6713 21.9348 27.7016 22.8319 27.5866 23.9809C28.2295 24.6017 28.8132 25.2835 29.3288 26.0167Z" fill="#FF4654"/>
<path d="M30.2389 24.7952C29.4967 23.9529 29.7479 22.6206 30.7655 22.1466C30.7727 22.1433 30.7799 22.1399 30.7872 22.1366C30.5014 22.0073 30.1845 21.9347 29.8505 21.9347C28.6712 21.9347 27.7016 22.8318 27.5865 23.9808C28.2295 24.6017 28.8132 25.2835 29.3287 26.0167C29.8275 25.8259 30.3486 25.6816 30.8867 25.5857C30.6802 25.3145 30.4641 25.0507 30.2389 24.7952V24.7952Z" fill="#FD2A39"/>
<path d="M32.4106 25.4279C31.33 25.4279 30.1173 25.6293 29.1649 25.9935C30.632 28.0802 31.5432 30.586 31.6809 33.2964H40.9692C40.6032 28.8902 36.9115 25.4279 32.4106 25.4279V25.4279Z" fill="#FFB640"/>
<path d="M31.7153 25.4548C30.8317 25.5203 29.9172 25.7058 29.165 25.9935C30.6321 28.0801 31.5433 30.586 31.6811 33.2964H34.5634C34.2173 30.4297 33.2164 27.7649 31.7153 25.4548V25.4548Z" fill="#FFA90F"/>
<path d="M32.4106 28.0707C31.8054 28.0707 31.0422 28.1624 30.4921 28.3305C31.1749 29.8604 31.5914 31.5351 31.6809 33.2964H38.3119C37.956 30.3525 35.4506 28.0707 32.4106 28.0707Z" fill="#FFA90F"/>
<path d="M33.1508 28.1178C32.9081 28.0877 32.6614 28.0707 32.4106 28.0707C31.8054 28.0707 31.0422 28.1624 30.4921 28.3305C31.1749 29.8604 31.5914 31.5351 31.6809 33.2964H34.5633C34.3435 31.4758 33.8594 29.7366 33.1508 28.1178V28.1178Z" fill="#FF9B00"/>
<path d="M32.4105 30.7134C32.0999 30.7134 31.6197 30.7569 31.3347 30.8371C31.52 31.633 31.6381 32.4548 31.6808 33.2965H35.6342C35.3055 31.8187 33.9875 30.7134 32.4105 30.7134V30.7134Z" fill="#FFB640"/>
<path d="M34.1956 31.2378C33.6809 30.9063 33.0685 30.7134 32.4106 30.7134C32.0999 30.7134 31.6198 30.7569 31.3348 30.8371C31.5201 31.633 31.6382 32.4548 31.6809 33.2965H34.5633C34.4789 32.5975 34.3556 31.9106 34.1956 31.2378V31.2378Z" fill="#FFA90F"/>
<path d="M21.1635 10.9585H29.5455V13.1077H21.1635V10.9585Z" fill="#C9F0FE"/>
<path d="M44.094 9.72556H30.5853C29.9145 9.72556 29.3657 10.2744 29.3657 10.9452V13.321C29.3657 13.9918 29.9145 14.5407 30.5853 14.5407H44.094C44.7648 14.5407 45.3136 13.9918 45.3136 13.321V10.9452C45.3136 10.2744 44.7648 9.72556 44.094 9.72556Z" fill="#FF636E"/>
<path d="M33.4846 13.321V10.9452C33.4846 10.2744 34.0334 9.72556 34.7042 9.72556H30.5854C29.9146 9.72556 29.3658 10.2744 29.3658 10.9452V13.321C29.3658 13.9918 29.9146 14.5407 30.5854 14.5407H34.7042C34.0334 14.5406 33.4846 13.9918 33.4846 13.321Z" fill="#FF4654"/>
<path d="M19.0267 6.54005H15.7117C16.0869 6.54005 16.3698 6.88577 16.291 7.25269C16.1566 7.87918 15.8493 8.29174 15.5299 8.6893H18.3725C18.6151 8.6893 18.8118 8.88597 18.8118 9.12863V9.72358C18.961 9.59905 19.1527 9.52368 19.361 9.52368H20.4834C20.6598 9.52368 20.8242 9.57758 20.9611 9.66967V8.47439C20.9611 7.40606 20.095 6.54005 19.0267 6.54005Z" fill="#C9F0FE"/>
<path d="M20.4834 14.5425H19.361C19.1526 14.5425 18.961 14.4672 18.8118 14.3426V14.9375C18.8118 15.1801 18.6151 15.3769 18.3725 15.3769H16.3588C16.3601 15.4174 16.3619 15.4572 16.3619 15.4993C16.3619 16.4779 16.0165 17.029 15.6274 17.5261H19.0267C20.095 17.5261 20.961 16.6601 20.961 15.5918V14.3965C20.8242 14.4886 20.6598 14.5425 20.4834 14.5425V14.5425Z" fill="#C9F0FE"/>
<path d="M14.5533 10.9585C14.553 10.979 14.5519 10.9987 14.5519 11.0197C14.5519 12.0387 14.9268 12.5941 15.3352 13.1077H18.7709V10.9585H14.5533Z" fill="#C9F0FE"/>
<path d="M12.2041 21.3402C13.0433 20.962 13.9265 20.665 14.8438 20.4584C14.8294 20.3297 14.8214 20.1932 14.8214 20.0466C14.8214 17.7953 16.6315 17.7953 16.6315 15.5441C16.6315 13.2932 14.8214 13.2932 14.8214 11.0421C14.8214 9.05918 16.2259 8.82298 16.5605 7.2562C16.6393 6.88748 16.3565 6.54005 15.9812 6.54005H13.7506C13.7506 8.79109 11.9406 8.79109 11.9406 11.0421C11.9406 13.2931 13.7506 13.2931 13.7506 15.5441C13.7506 17.7954 11.9406 17.7954 11.9406 20.0466C11.9406 20.587 12.0456 20.9969 12.2041 21.3402V21.3402Z" fill="#FFC365"/>
<path d="M10.1258 22.5C10.7813 22.0568 11.4761 21.6681 12.2041 21.3402C12.0456 20.997 11.9406 20.587 11.9406 20.0466C11.9406 17.7953 13.7507 17.7953 13.7507 15.5441C13.7507 13.2932 11.9406 13.2932 11.9406 11.0421C11.9406 8.79109 13.7507 8.79109 13.7507 6.54005H10.87C10.87 8.79109 9.05988 8.79109 9.05988 11.0421C9.05988 13.2931 10.87 13.2931 10.87 15.5441C10.87 17.7954 9.05988 17.7954 9.05988 20.0466C9.05988 21.3063 9.62652 21.8612 10.1258 22.5V22.5Z" fill="#FFB640"/>
<path d="M7.97943 24.2873C8.63295 23.6229 9.3517 23.0233 10.1257 22.5C9.62644 21.8612 9.0598 21.3063 9.0598 20.0466C9.0598 17.7953 10.8699 17.7953 10.8699 15.5441C10.8699 13.2932 9.0598 13.2932 9.0598 11.0421C9.0598 8.79109 10.8699 8.79109 10.8699 6.54005H8.53987C8.24492 6.54005 7.99641 6.759 7.95445 7.05243C7.70361 8.80628 6.17914 8.97626 6.17914 11.0421C6.17914 13.2931 7.98922 13.2931 7.98922 15.5441C7.98922 17.7954 6.17914 17.7954 6.17914 20.0466C6.17905 22.2066 7.84421 22.2955 7.97943 24.2873V24.2873Z" fill="#FFA90F"/>
<path d="M31.8606 33.2965C31.4857 25.9177 25.3841 20.0503 17.9121 20.0503C10.4401 20.0503 4.3386 25.9177 3.96368 33.2965H31.8606Z" fill="#FFC365"/>
<path d="M20.6071 20.3104C19.7351 20.1399 18.8341 20.0502 17.9121 20.0502C10.4401 20.0502 4.33863 25.9177 3.96362 33.2965H9.35344C9.68218 26.8282 14.4116 21.5215 20.6071 20.3104V20.3104Z" fill="#FFB640"/>
<path d="M29.2128 33.2966C28.8411 27.3783 23.9242 22.693 17.9122 22.693C11.9003 22.693 6.98338 27.3783 6.61169 33.2966H29.2128Z" fill="#FFB640"/>
<path d="M14.4128 23.2441C10.0902 24.6475 6.90791 28.5806 6.61169 33.2965H9.35355C9.55902 29.2528 11.4845 25.6631 14.4128 23.2441V23.2441Z" fill="#FFA90F"/>
<path d="M26.4709 33.2965C26.1049 28.8902 22.4131 25.4279 17.9122 25.4279C13.4113 25.4279 9.71954 28.8902 9.35352 33.2965H26.4709Z" fill="#FFC365"/>
<path d="M23.8135 33.2965C23.4576 30.3525 20.9521 28.0707 17.9122 28.0707C14.8722 28.0707 12.3667 30.3524 12.0109 33.2965H23.8135Z" fill="#FFB640"/>
<path d="M21.136 33.2965C20.807 31.8187 19.4891 30.7134 17.9122 30.7134C16.3353 30.7134 15.0172 31.8186 14.6884 33.2965H21.136Z" fill="#FFC365"/>
<path d="M2.91211 35.9769C3.58081 37.9446 5.44893 39.5509 7.63536 39.5509H37.8441C40.0306 39.5509 41.8987 37.9447 42.5674 35.9769H2.91211Z" fill="#C9F0FE"/>
<path d="M10.2793 35.9769H2.91211C3.58082 37.9447 5.44894 39.5509 7.63538 39.5509H15.0026C12.8161 39.5509 10.948 37.9447 10.2793 35.9769V35.9769Z" fill="#9BE8FD"/>
<path d="M43.5799 33.2067H1.96515C1.24802 33.2067 0.661255 33.8833 0.661255 34.6003V34.8527C0.661255 35.5698 1.24802 36.1566 1.96515 36.1566H43.5799C44.297 36.1566 44.8837 35.5698 44.8837 34.8527V34.6003C44.8838 33.8833 44.297 33.2067 43.5799 33.2067Z" fill="#9BE8FD"/>
<path d="M8.02844 34.8528V34.6004C8.02844 33.8833 8.61521 33.2068 9.33234 33.2068H1.96516C1.24802 33.2068 0.661255 33.8834 0.661255 34.6004V34.8528C0.661255 35.5699 1.24802 36.1567 1.96516 36.1567H9.33234C8.61521 36.1566 8.02844 35.5699 8.02844 34.8528Z" fill="#62DDFC"/>
<path d="M18.5013 10.1138V13.9524C18.5013 14.4253 18.8881 14.8121 19.361 14.8121H20.4834C20.9563 14.8121 21.3431 14.4253 21.3431 13.9524V10.1138C21.3431 9.641 20.9563 9.25414 20.4834 9.25414H19.361C18.8881 9.25414 18.5013 9.641 18.5013 10.1138Z" fill="#9BE8FD"/>
<path d="M20.1373 13.9524V10.1138C20.1373 9.7304 20.3919 9.40355 20.7402 9.29367C20.659 9.26806 20.5727 9.25414 20.4834 9.25414H19.361C18.8881 9.25414 18.5013 9.641 18.5013 10.1138V13.9524C18.5013 14.4253 18.8881 14.8121 19.361 14.8121H20.4834C20.5728 14.8121 20.6591 14.7982 20.7402 14.7726C20.3919 14.6627 20.1373 14.3359 20.1373 13.9524Z" fill="#62DDFC"/>
<path d="M1.97772 36.7849H2.46476C3.36302 38.8336 5.38809 40.1792 7.64792 40.1792H21.2128C21.5851 40.1792 21.8867 39.8775 21.8867 39.5054C21.8867 39.1333 21.5851 38.8316 21.2128 38.8316H7.64792C6.13433 38.8316 4.75847 38.0386 3.98267 36.785H41.522C40.7462 38.0386 39.3704 38.8316 37.8567 38.8316H24.3574C23.9851 38.8316 23.6835 39.1333 23.6835 39.5054C23.6835 39.8775 23.9851 40.1792 24.3574 40.1792H37.8567C40.1165 40.1792 42.1417 38.8337 43.0399 36.7849H43.5925C44.683 36.7849 45.5702 35.8977 45.5702 34.8073V34.5549C45.5702 33.4643 44.683 32.5771 43.5925 32.5771H41.5786C41.0257 28.9187 38.3667 26.0279 34.9574 25.0605C35.486 24.3586 35.7386 23.4622 35.6185 22.5531C35.5338 21.9112 35.0025 21.4339 34.355 21.4184C33.5095 21.3973 32.7074 21.6864 32.079 22.2138C31.5405 21.6024 30.7528 21.2155 29.8759 21.2155C29.8632 21.2155 29.8507 21.2162 29.8382 21.2164C29.5294 19.2929 28.0588 17.6874 26.1097 17.2559C25.3205 17.0815 24.5328 17.5007 24.2377 18.2537C23.9393 19.0152 23.8433 19.8282 23.9426 20.6197C22.1045 19.7916 20.0668 19.331 17.9246 19.331C17.1114 19.331 16.3136 19.3981 15.5357 19.5256C15.621 18.9284 15.896 18.5722 16.2331 18.1546H19.0391C20.4773 18.1546 21.6472 16.9846 21.6472 15.5464V14.9164C21.8843 14.6464 22.0293 14.2936 22.0293 13.9069V13.7362H28.7634C28.9699 14.558 29.7128 15.169 30.5977 15.169H44.1064C45.1504 15.169 45.9997 14.3196 45.9997 13.2755V10.8997C45.9997 9.85564 45.1504 9.00626 44.1064 9.00626H38.9243C38.5521 9.00626 38.2505 9.30795 38.2505 9.68008C38.2505 10.0522 38.5521 10.3539 38.9243 10.3539H44.1064C44.4074 10.3539 44.6521 10.5987 44.6521 10.8997V13.2755C44.6521 13.5765 44.4073 13.8213 44.1064 13.8213H30.5979C30.2969 13.8213 30.0522 13.5765 30.0522 13.2755V13.0622V10.913V10.8996C30.0522 10.5986 30.297 10.3538 30.5979 10.3538H35.78C36.1523 10.3538 36.4539 10.0521 36.4539 9.67999C36.4539 9.30786 36.1523 9.00617 35.78 9.00617H30.5979C29.7864 9.00617 29.0945 9.52025 28.8257 10.2392H22.0295V10.0684C22.0295 9.6817 21.8845 9.32898 21.6474 9.05891V8.42892C21.6474 6.9908 20.4775 5.82077 19.0393 5.82077C17.8864 5.82077 9.84253 5.82077 8.55246 5.82077C7.92751 5.82077 7.38908 6.2885 7.30005 6.90859C7.09134 8.36019 5.51791 8.67015 5.51791 10.9743C5.51791 13.4778 7.3279 13.5558 7.3279 15.4538C7.3279 17.3441 5.51791 17.4363 5.51791 19.934C5.51791 22.1866 7.0324 22.5495 7.28325 23.9089C5.10616 26.2094 3.6666 29.2209 3.35044 32.5771H1.97763C0.887204 32.5772 0 33.4644 0 34.5549V34.8073C0 35.8978 0.887204 36.7849 1.97772 36.7849V36.7849ZM40.2149 32.5772H38.8938C38.14 29.0546 34.6587 26.7382 31.0625 27.4939C30.8635 27.0903 30.6463 26.6975 30.4124 26.3163C34.9376 25.1332 39.4178 28.1291 40.2149 32.5772ZM32.4998 32.5772C32.4646 32.2063 32.4041 31.7531 32.3301 31.3435C33.2823 31.3105 34.1604 31.8012 34.6504 32.5772H32.4998ZM36.1469 32.5772C35.5381 30.9609 33.882 29.8303 32.0265 30.0163C31.9075 29.5897 31.7697 29.1712 31.6142 28.7616C34.2907 28.3457 36.812 30.0255 37.5079 32.5772H36.1469ZM32.7285 23.4549C33.1254 23.0102 33.6902 22.76 34.2869 22.7651C34.378 23.5593 34.0022 24.3327 33.3343 24.7536C33.1556 24.736 32.959 24.7224 32.7583 24.715C32.8387 24.3036 32.8282 23.8621 32.7285 23.4549V23.4549ZM31.338 24.7741C30.7664 24.8408 30.1773 24.9659 29.6136 25.145C29.2262 24.6327 28.8055 24.1475 28.3557 23.6913C28.5601 23.0084 29.1866 22.5632 29.876 22.5632C31.0144 22.5632 31.7849 23.7338 31.338 24.7741V24.7741ZM25.4926 18.7453C25.5439 18.6143 25.6806 18.5408 25.8185 18.5715C27.2633 18.8914 28.3442 20.1046 28.5248 21.542C28.0119 21.8065 27.587 22.2181 27.3065 22.7254C26.761 22.2705 26.1825 21.8543 25.5745 21.4817C25.1757 20.6217 25.1441 19.6347 25.4926 18.7453V18.7453ZM9.74621 10.9743C9.74621 9.25189 11.1836 9.09745 11.5037 7.16842H13.0077C12.6867 8.36442 11.2794 8.81867 11.2794 10.9743C11.2794 13.4779 13.0895 13.5558 13.0895 15.4538C13.0895 17.3441 11.2794 17.4362 11.2794 19.934C11.2794 20.2699 11.3218 20.6093 11.384 20.8675C11.008 21.0552 10.641 21.2581 10.2842 21.4763C9.91521 20.996 9.74621 20.5747 9.74621 19.934C9.74621 18.0437 11.5563 17.9516 11.5563 15.4538C11.5564 12.9502 9.74621 12.8722 9.74621 10.9743V10.9743ZM12.6502 20.3088C12.6354 20.1928 12.627 20.0543 12.627 19.9341C12.627 18.0438 14.4371 17.9517 14.4371 15.4539C14.4371 12.9502 12.627 12.8723 12.627 10.9744C12.627 9.27309 14.0307 9.09538 14.3714 7.23787C14.3723 7.23329 14.3826 7.1801 14.3846 7.16851H15.8893C15.5746 8.34941 14.1962 8.80177 14.1617 10.9016C14.0866 13.4453 15.9703 13.5278 15.9703 15.4539C15.9703 17.3021 14.2207 17.4355 14.1617 19.8193C13.6462 19.9557 13.1419 20.1193 12.6502 20.3088V20.3088ZM18.0379 9.31766C17.9124 9.53984 17.8401 9.79562 17.8401 10.0684V10.2392H15.6071C15.7164 9.87729 15.9072 9.60515 16.1352 9.31766H18.0379ZM20.6819 10.0684V13.9069C20.6819 14.011 20.592 14.0928 20.496 14.0928H19.3737C19.2747 14.0928 19.1878 14.0077 19.1878 13.9069C19.1878 11.9584 19.1878 12.0171 19.1878 10.0684C19.1878 9.96884 19.2734 9.8825 19.3737 9.8825H20.496C20.5925 9.8825 20.6819 9.96444 20.6819 10.0684V10.0684ZM17.2416 14.6576C17.1706 14.3014 17.0554 13.9993 16.918 13.7361H17.8401V13.9069C17.8401 14.1796 17.9125 14.4354 18.0379 14.6575H17.2416V14.6576ZM17.84 12.3884H15.9517C15.7668 12.1277 15.6461 11.8906 15.5741 11.5868H17.84V12.3884ZM20.2998 15.5464C20.2998 16.2414 19.7343 16.8069 19.0393 16.8069H17.0837C17.1685 16.5856 17.2472 16.2842 17.2835 16.0053H18.3851C18.7997 16.0053 19.1621 15.7775 19.3536 15.4404C19.3603 15.4405 19.3669 15.4405 19.3737 15.4405H20.2999V15.5464H20.2998ZM28.7045 11.5868V12.3884H22.0295V11.5868H28.7045ZM20.2998 8.42892V8.53485H19.3736C19.3669 8.53485 19.3603 8.53485 19.3535 8.53494C19.1621 8.19785 18.7996 7.96991 18.385 7.96991H17.0351C17.1295 7.74881 17.2418 7.39788 17.2573 7.16833H19.0393C19.7343 7.16842 20.2998 7.7339 20.2998 8.42892V8.42892ZM8.67555 15.4539C8.67555 12.9504 6.86556 12.8723 6.86556 10.9744C6.86556 9.24282 8.31106 9.09601 8.62353 7.16851H10.1269C9.80407 8.37116 8.39856 8.81606 8.39856 10.9744C8.39856 13.478 10.2086 13.5559 10.2086 15.4539C10.2086 17.3442 8.39856 17.4363 8.39856 19.9341C8.39856 20.8429 8.65533 21.5439 9.16699 22.2328C8.89144 22.4385 8.62326 22.6535 8.36307 22.8777C7.80065 21.6311 6.86547 21.3772 6.86547 19.9341C6.86556 18.0437 8.67555 17.9516 8.67555 15.4539ZM8.47125 24.6273C16.4073 16.5986 29.9914 21.5329 31.1433 32.5771H29.841C29.1463 26.582 24.0301 21.9736 17.9247 21.9736C11.8194 21.9736 6.70331 26.582 6.00855 32.5771H4.70384C5.01012 29.6265 6.28589 26.8375 8.47125 24.6273ZM21.6485 32.5772C21.0742 31.0528 19.5869 29.9942 17.9247 29.9942C16.2626 29.9942 14.7754 31.0528 14.2011 32.5772H12.8401C13.4556 30.3204 15.5216 28.699 17.9248 28.699C20.3281 28.699 22.3941 30.3204 23.0097 32.5772H21.6485ZM20.1521 32.5772H15.6975C16.7368 30.9317 19.1147 30.9349 20.1521 32.5772V32.5772ZM24.3955 32.5772C23.7497 29.5594 21.067 27.3514 17.9247 27.3514C14.7826 27.3514 12.0998 29.5594 11.454 32.5772H10.133C10.7979 28.8666 14.0876 26.0563 17.9247 26.0563C21.7619 26.0563 25.0516 28.8665 25.7166 32.5772H24.3955ZM27.0802 32.5772C25.9779 25.2831 17.1046 22.1128 11.6373 27.1697C10.0848 28.6056 9.08209 30.5075 8.76926 32.5772H7.3659C8.05204 27.332 12.558 23.3214 17.9247 23.3214C23.2915 23.3214 27.7975 27.332 28.4834 32.5772H27.0802ZM1.34765 34.5549C1.34765 34.2074 1.6303 33.9248 1.97772 33.9248H43.5925C43.9399 33.9248 44.2225 34.2074 44.2225 34.5549V34.8073C44.2225 35.1547 43.9399 35.4373 43.5925 35.4373H1.97772C1.6303 35.4373 1.34765 35.1547 1.34765 34.8073V34.5549Z" fill="black"/>
</svg>
