<svg width="20" height="21" viewBox="0 0 20 21" fill="none" xmlns="http://www.w3.org/2000/svg">
<path opacity="0.3" d="M16 0.200012H4C1.8 0.200012 0 2.00001 0 4.20001V16.2C0 18.4 1.8 20.2 4 20.2H16C18.2 20.2 20 18.4 20 16.2V4.20001C20 2.00001 18.2 0.200012 16 0.200012ZM15 10.2C15 10.9 14.8 11.6 14.6 12.2H18V16.2C18 17.3 17.1 18.2 16 18.2H12V14.8C11.4 15.1 10.7 15.2 10 15.2C9.3 15.2 8.6 15 8 14.8V18.2H4C2.9 18.2 2 17.3 2 16.2V12.2H5.4C5.1 11.6 5 10.9 5 10.2C5 9.50001 5.2 8.80001 5.4 8.20001H2V4.20001C2 3.10001 2.9 2.20001 4 2.20001H8V5.60001C8.6 5.30001 9.3 5.20001 10 5.20001C10.7 5.20001 11.4 5.40001 12 5.60001V2.20001H16C17.1 2.20001 18 3.10001 18 4.20001V8.20001H14.6C14.8 8.80001 15 9.50001 15 10.2Z" fill="currentColor"/>
<path d="M12 1.40002C15.4 2.20002 18 4.80003 18.8 8.20003H14.6C14.1 7.00003 13.2 6.10003 12 5.60003V1.40002ZM5.40001 8.20003C5.90001 7.00003 6.80001 6.10003 8.00001 5.60003V1.40002C4.60001 2.20002 2.00001 4.80003 1.20001 8.20003H5.40001ZM14.6 12.2C14.1 13.4 13.2 14.3 12 14.8V19C15.4 18.2 18 15.6 18.8 12.2H14.6ZM8.00001 14.8C6.80001 14.3 5.90001 13.4 5.40001 12.2H1.20001C2.00001 15.6 4.60001 18.2 8.00001 19V14.8Z" fill="currentColor"/>
</svg>
