<svg width="22" height="23" viewBox="0 0 22 23" fill="none" xmlns="http://www.w3.org/2000/svg">
<path opacity="0.3" d="M21.1721 9.90759L19.6663 8.3801C19.5613 8.27722 19.4783 8.15406 19.4225 8.0181C19.3666 7.88214 19.339 7.73623 19.3413 7.58926V5.4226C19.3399 5.12576 19.2798 4.83214 19.1646 4.55858C19.0494 4.28503 18.8812 4.03693 18.6698 3.82856C18.4584 3.62018 18.2079 3.45562 17.9327 3.34434C17.6576 3.23305 17.3631 3.17724 17.0663 3.1801H14.8996C14.7526 3.18241 14.6067 3.15479 14.4708 3.09892C14.3348 3.04304 14.2116 2.96009 14.1088 2.8551L12.5921 1.3276C12.1696 0.905532 11.5968 0.668457 10.9996 0.668457C10.4024 0.668457 9.82962 0.905532 9.40711 1.3276L7.87961 2.83343C7.77673 2.93842 7.65357 3.02138 7.51761 3.07725C7.38165 3.13312 7.23575 3.16074 7.08877 3.15843H4.92211C4.62528 3.15984 4.33165 3.21989 4.05809 3.33512C3.78454 3.45035 3.53645 3.6185 3.32807 3.82989C3.11969 4.04129 2.95513 4.29178 2.84385 4.56696C2.73257 4.84215 2.67675 5.13661 2.67961 5.43343V7.6001C2.68192 7.74707 2.6543 7.89297 2.59843 8.02893C2.54255 8.16489 2.4596 8.28805 2.35461 8.39093L0.827108 9.90759C0.405044 10.3301 0.167969 10.9029 0.167969 11.5001C0.167969 12.0973 0.405044 12.6701 0.827108 13.0926L2.33294 14.6201C2.43793 14.723 2.52089 14.8461 2.57676 14.9821C2.63263 15.118 2.66025 15.264 2.65794 15.4109V17.5776C2.65935 17.8744 2.7194 18.1681 2.83463 18.4416C2.94986 18.7152 3.11801 18.9633 3.32941 19.1716C3.5408 19.38 3.79129 19.5446 4.06647 19.6559C4.34166 19.7671 4.63612 19.823 4.93294 19.8201H7.09961C7.24658 19.8178 7.39249 19.8454 7.52844 19.9013C7.6644 19.9571 7.78757 20.0401 7.89044 20.1451L9.41794 21.6726C9.84045 22.0947 10.4132 22.3317 11.0104 22.3317C11.6076 22.3317 12.1804 22.0947 12.6029 21.6726L14.1196 20.1668C14.2225 20.0618 14.3456 19.9788 14.4816 19.9229C14.6176 19.8671 14.7635 19.8394 14.9104 19.8418H17.0771C17.6747 19.8418 18.2479 19.6044 18.6705 19.1818C19.093 18.7592 19.3304 18.1861 19.3304 17.5884V15.4218C19.3281 15.2748 19.3557 15.1289 19.4116 14.9929C19.4675 14.857 19.5504 14.7338 19.6554 14.6309L21.1829 13.1034C21.3928 12.8933 21.5591 12.6438 21.6723 12.3691C21.7854 12.0945 21.8431 11.8003 21.8421 11.5033C21.8411 11.2063 21.7814 10.9124 21.6664 10.6385C21.5514 10.3647 21.3834 10.1163 21.1721 9.90759Z" fill="currentColor" fill-opacity="0.8"/>
<path d="M7.90276 8.65088H6.81943C6.36471 8.65088 5.99609 9.0195 5.99609 9.47421V15.0317C5.99609 15.4864 6.36471 15.855 6.81943 15.855H7.90276C8.35748 15.855 8.72609 15.4864 8.72609 15.0317V9.47421C8.72609 9.0195 8.35748 8.65088 7.90276 8.65088Z" fill="currentColor" fill-opacity="0.8"/>
<path d="M8.69141 10.1459L10.7714 7.00425C10.9133 6.7749 11.1313 6.60279 11.3873 6.51808C11.6433 6.43338 11.921 6.44147 12.1717 6.54096C12.4223 6.64044 12.63 6.82497 12.7582 7.0622C12.8864 7.29942 12.9271 7.57422 12.8731 7.83842L12.6022 9.38759C12.5864 9.47635 12.5902 9.56749 12.6134 9.65462C12.6366 9.74175 12.6785 9.82275 12.7364 9.89193C12.7942 9.96111 12.8665 10.0168 12.9481 10.055C13.0297 10.0933 13.1187 10.1132 13.2089 10.1134H15.3322C15.4753 10.116 15.6159 10.1516 15.7431 10.2174C15.8702 10.2831 15.9805 10.3772 16.0653 10.4925C16.1502 10.6078 16.2074 10.741 16.2324 10.8819C16.2575 11.0229 16.2497 11.1676 16.2097 11.3051L14.8664 15.6926C14.7942 15.9256 14.651 16.1303 14.4567 16.2779C14.2625 16.4256 14.0269 16.5088 13.7831 16.5159H11.1072C10.7461 16.5132 10.3944 16.3997 10.0997 16.1909L8.73474 15.1076L8.69141 10.1459Z" fill="currentColor" fill-opacity="0.8"/>
</svg>
