<svg width="24" height="24" viewBox="0 0 24 24" fill="none" xmlns="http://www.w3.org/2000/svg">
<path d="M17.5 11H6.5C4 11 2 9 2 6.5C2 4 4 2 6.5 2H17.5C20 2 22 4 22 6.5C22 9 20 11 17.5 11ZM15 6.5C15 7.9 16.1 9 17.5 9C18.9 9 20 7.9 20 6.5C20 5.1 18.9 4 17.5 4C16.1 4 15 5.1 15 6.5Z" fill="currentColor"/>
<path opacity="0.3" d="M17.5 22H6.5C4 22 2 20 2 17.5C2 15 4 13 6.5 13H17.5C20 13 22 15 22 17.5C22 20 20 22 17.5 22ZM4 17.5C4 18.9 5.1 20 6.5 20C7.9 20 9 18.9 9 17.5C9 16.1 7.9 15 6.5 15C5.1 15 4 16.1 4 17.5Z" fill="currentColor"/>
</svg>
