<svg width="24" height="24" viewBox="0 0 24 24" fill="none" xmlns="http://www.w3.org/2000/svg">
<path d="M11.9905 5.62598C10.7293 5.62574 9.49646 5.9995 8.44775 6.69997C7.39903 7.40045 6.58159 8.39619 6.09881 9.56126C5.61603 10.7263 5.48958 12.0084 5.73547 13.2453C5.98135 14.4823 6.58852 15.6185 7.48019 16.5104C8.37186 17.4022 9.50798 18.0096 10.7449 18.2557C11.9818 18.5019 13.2639 18.3757 14.429 17.8931C15.5942 17.4106 16.5901 16.5933 17.2908 15.5448C17.9915 14.4962 18.3655 13.2634 18.3655 12.0023C18.3637 10.3119 17.6916 8.69129 16.4964 7.49593C15.3013 6.30056 13.6808 5.62806 11.9905 5.62598Z" fill="currentColor"/>
<path d="M22.1258 10.8771H20.627C20.3286 10.8771 20.0424 10.9956 19.8314 11.2066C19.6204 11.4176 19.5018 11.7038 19.5018 12.0023C19.5018 12.3007 19.6204 12.5869 19.8314 12.7979C20.0424 13.0089 20.3286 13.1274 20.627 13.1274H22.1258C22.4242 13.1274 22.7104 13.0089 22.9214 12.7979C23.1324 12.5869 23.2509 12.3007 23.2509 12.0023C23.2509 11.7038 23.1324 11.4176 22.9214 11.2066C22.7104 10.9956 22.4242 10.8771 22.1258 10.8771Z" fill="currentColor"/>
<path d="M11.9905 19.4995C11.6923 19.5 11.4064 19.6187 11.1956 19.8296C10.9848 20.0405 10.8663 20.3265 10.866 20.6247V22.1249C10.866 22.4231 10.9845 22.7091 11.1953 22.9199C11.4062 23.1308 11.6922 23.2492 11.9904 23.2492C12.2886 23.2492 12.5746 23.1308 12.7854 22.9199C12.9963 22.7091 13.1147 22.4231 13.1147 22.1249V20.6247C13.1145 20.3265 12.996 20.0406 12.7853 19.8296C12.5745 19.6187 12.2887 19.5 11.9905 19.4995Z" fill="currentColor"/>
<path d="M4.49743 12.0023C4.49718 11.704 4.37865 11.4181 4.16785 11.2072C3.95705 10.9962 3.67119 10.8775 3.37298 10.8771H1.87445C1.57603 10.8771 1.28984 10.9956 1.07883 11.2066C0.867812 11.4176 0.749266 11.7038 0.749266 12.0023C0.749266 12.3007 0.867812 12.5869 1.07883 12.7979C1.28984 13.0089 1.57603 13.1274 1.87445 13.1274H3.37299C3.6712 13.127 3.95706 13.0083 4.16785 12.7973C4.37865 12.5864 4.49718 12.3005 4.49743 12.0023Z" fill="currentColor"/>
<path d="M11.9905 4.50058C12.2887 4.50012 12.5745 4.38141 12.7853 4.17048C12.9961 3.95954 13.1147 3.67361 13.1149 3.3754V1.87521C13.1149 1.57701 12.9965 1.29103 12.7856 1.08017C12.5748 0.869313 12.2888 0.750854 11.9906 0.750854C11.6924 0.750854 11.4064 0.869313 11.1955 1.08017C10.9847 1.29103 10.8662 1.57701 10.8662 1.87521V3.3754C10.8664 3.67359 10.9849 3.95952 11.1957 4.17046C11.4065 4.3814 11.6923 4.50012 11.9905 4.50058Z" fill="currentColor"/>
<path d="M18.8857 6.6972L19.9465 5.63642C20.0512 5.53209 20.1343 5.40813 20.1911 5.27163C20.2479 5.13513 20.2772 4.98877 20.2774 4.84093C20.2775 4.69309 20.2485 4.54667 20.192 4.41006C20.1355 4.27344 20.0526 4.14932 19.948 4.04478C19.8435 3.94024 19.7194 3.85734 19.5828 3.80083C19.4462 3.74432 19.2997 3.71531 19.1519 3.71545C19.0041 3.7156 18.8577 3.7449 18.7212 3.80167C18.5847 3.85845 18.4607 3.94159 18.3564 4.04633L17.2956 5.10714C17.1909 5.21147 17.1077 5.33543 17.0509 5.47194C16.9942 5.60844 16.9649 5.7548 16.9647 5.90264C16.9646 6.05048 16.9936 6.19689 17.0501 6.33351C17.1066 6.47012 17.1895 6.59425 17.294 6.69878C17.3986 6.80332 17.5227 6.88621 17.6593 6.94272C17.7959 6.99923 17.9424 7.02824 18.0902 7.02809C18.238 7.02795 18.3844 6.99865 18.5209 6.94187C18.6574 6.88509 18.7814 6.80195 18.8857 6.6972Z" fill="currentColor"/>
<path d="M18.8855 17.3073C18.7812 17.2026 18.6572 17.1195 18.5207 17.0627C18.3843 17.006 18.2379 16.9767 18.0901 16.9766C17.9423 16.9764 17.7959 17.0055 17.6593 17.062C17.5227 17.1185 17.3986 17.2014 17.2941 17.3059C17.1895 17.4104 17.1067 17.5345 17.0501 17.6711C16.9936 17.8077 16.9646 17.9541 16.9648 18.1019C16.9649 18.2497 16.9942 18.3961 17.0509 18.5326C17.1077 18.6691 17.1908 18.793 17.2955 18.8974L18.3563 19.9582C18.4606 20.0629 18.5846 20.146 18.721 20.2027C18.8575 20.2595 19.0039 20.2887 19.1517 20.2889C19.2995 20.289 19.4459 20.26 19.5825 20.2035C19.7191 20.147 19.8432 20.0641 19.9477 19.9595C20.0523 19.855 20.1351 19.7309 20.1916 19.5943C20.2482 19.4577 20.2772 19.3113 20.277 19.1635C20.2769 19.0157 20.2476 18.8694 20.1909 18.7329C20.1341 18.5964 20.051 18.4724 19.9463 18.3681L18.8855 17.3073Z" fill="currentColor"/>
<path d="M5.09528 17.3072L4.0345 18.368C3.92972 18.4723 3.84655 18.5963 3.78974 18.7328C3.73294 18.8693 3.70362 19.0156 3.70346 19.1635C3.7033 19.3114 3.7323 19.4578 3.78881 19.5944C3.84532 19.7311 3.92822 19.8552 4.03277 19.9598C4.13732 20.0643 4.26147 20.1472 4.3981 20.2037C4.53473 20.2602 4.68117 20.2892 4.82902 20.2891C4.97688 20.2889 5.12325 20.2596 5.25976 20.2028C5.39627 20.146 5.52024 20.0628 5.62456 19.958L6.68536 18.8973C6.79007 18.7929 6.87318 18.6689 6.92993 18.5325C6.98667 18.396 7.01595 18.2496 7.01608 18.1018C7.01621 17.954 6.98719 17.8076 6.93068 17.671C6.87417 17.5344 6.79129 17.4103 6.68676 17.3058C6.58224 17.2012 6.45813 17.1183 6.32153 17.0618C6.18494 17.0053 6.03855 16.9763 5.89073 16.9764C5.74291 16.9766 5.59657 17.0058 5.46007 17.0626C5.32358 17.1193 5.19962 17.2024 5.09528 17.3072Z" fill="currentColor"/>
<path d="M5.09541 6.69715C5.19979 6.8017 5.32374 6.88466 5.4602 6.94128C5.59665 6.9979 5.74292 7.02708 5.89065 7.02714C6.03839 7.0272 6.18469 6.99815 6.32119 6.94164C6.45769 6.88514 6.58171 6.80228 6.68618 6.69782C6.79064 6.59336 6.87349 6.46933 6.93 6.33283C6.9865 6.19633 7.01556 6.05003 7.01549 5.9023C7.01543 5.75457 6.98625 5.60829 6.92963 5.47184C6.87301 5.33539 6.79005 5.21143 6.6855 5.10706L5.6247 4.04626C5.5204 3.94137 5.39643 3.8581 5.25989 3.80121C5.12335 3.74432 4.97692 3.71493 4.82901 3.71472C4.68109 3.71452 4.53458 3.7435 4.39789 3.80001C4.26119 3.85652 4.13699 3.93945 4.03239 4.04404C3.9278 4.14864 3.84487 4.27284 3.78836 4.40954C3.73185 4.54624 3.70287 4.69274 3.70308 4.84066C3.70329 4.98858 3.73268 5.135 3.78957 5.27154C3.84646 5.40808 3.92974 5.53205 4.03462 5.63635L5.09541 6.69715Z" fill="currentColor"/>
</svg>
