<svg width="24" height="24" viewBox="0 0 24 24" fill="none" xmlns="http://www.w3.org/2000/svg">
<path d="M19.0647 5.43757C19.3421 5.43757 19.567 5.21271 19.567 4.93534C19.567 4.65796 19.3421 4.43311 19.0647 4.43311C18.7874 4.43311 18.5625 4.65796 18.5625 4.93534C18.5625 5.21271 18.7874 5.43757 19.0647 5.43757Z" fill="currentColor"/>
<path d="M20.0692 9.48884C20.3466 9.48884 20.5714 9.26398 20.5714 8.98661C20.5714 8.70923 20.3466 8.48438 20.0692 8.48438C19.7918 8.48438 19.567 8.70923 19.567 8.98661C19.567 9.26398 19.7918 9.48884 20.0692 9.48884Z" fill="currentColor"/>
<path d="M12.0335 20.5714C15.6943 20.5714 18.9426 18.2053 20.1168 14.7338C20.1884 14.5225 20.1114 14.289 19.9284 14.161C19.746 14.034 19.5003 14.0418 19.3257 14.1821C18.2432 15.0546 16.9371 15.5156 15.5491 15.5156C12.2257 15.5156 9.48884 12.8122 9.48884 9.48886C9.48884 7.41079 10.5773 5.47137 12.3449 4.35752C12.5342 4.23832 12.6 4.00733 12.5377 3.79251C12.4759 3.57768 12.2571 3.42859 12.0335 3.42859C7.32556 3.42859 3.42857 7.29209 3.42857 12C3.42857 16.7079 7.32556 20.5714 12.0335 20.5714Z" fill="currentColor"/>
<path d="M13.0379 7.47998C13.8688 7.47998 14.5446 8.15585 14.5446 8.98668C14.5446 9.26428 14.7693 9.48891 15.0469 9.48891C15.3245 9.48891 15.5491 9.26428 15.5491 8.98668C15.5491 8.15585 16.225 7.47998 17.0558 7.47998C17.3334 7.47998 17.558 7.25535 17.558 6.97775C17.558 6.70015 17.3334 6.47552 17.0558 6.47552C16.225 6.47552 15.5491 5.76616 15.5491 4.93534C15.5491 4.65774 15.3245 4.43311 15.0469 4.43311C14.7693 4.43311 14.5446 4.65774 14.5446 4.93534C14.5446 5.76616 13.8688 6.47552 13.0379 6.47552C12.7603 6.47552 12.5357 6.70015 12.5357 6.97775C12.5357 7.25535 12.7603 7.47998 13.0379 7.47998Z" fill="currentColor"/>
</svg>
