<svg width="24" height="24" viewBox="0 0 24 24" fill="none" xmlns="http://www.w3.org/2000/svg">
<path fill-rule="evenodd" clip-rule="evenodd" d="M1.34375 3.9463V15.2178C1.34375 16.119 2.08105 16.8563 2.98219 16.8563H8.65093V19.4594H6.15702C5.38853 19.4594 4.75981 19.9617 4.75981 20.5757V21.6921H19.2403V20.5757C19.2403 19.9617 18.6116 19.4594 17.8431 19.4594H15.3492V16.8563H21.0179C21.919 16.8563 22.6562 16.119 22.6562 15.2178V3.9463C22.6562 3.04516 21.9189 2.30786 21.0179 2.30786H2.98219C2.08105 2.30786 1.34375 3.04516 1.34375 3.9463ZM12.9034 9.9016C13.241 9.98792 13.5597 10.1216 13.852 10.2949L15.0393 9.4353L15.9893 10.3853L15.1297 11.5727C15.303 11.865 15.4366 12.1837 15.523 12.5212L16.97 12.7528V13.4089H13.9851C13.9766 12.3198 13.0912 11.4394 12 11.4394C10.9089 11.4394 10.0235 12.3198 10.015 13.4089H7.03006V12.7528L8.47712 12.5211C8.56345 12.1836 8.69703 11.8649 8.87037 11.5727L8.0107 10.3853L8.96078 9.4353L10.148 10.2949C10.4404 10.1215 10.759 9.98788 11.0966 9.9016L11.3282 8.45467H12.6718L12.9034 9.9016ZM16.1353 7.93758C15.6779 7.93758 15.3071 7.56681 15.3071 7.1094C15.3071 6.652 15.6779 6.28122 16.1353 6.28122C16.5926 6.28122 16.9634 6.652 16.9634 7.1094C16.9634 7.56681 16.5926 7.93758 16.1353 7.93758ZM2.71385 14.0964V3.90518C2.71385 3.78023 2.81612 3.67796 2.94107 3.67796H21.0589C21.1839 3.67796 21.2861 3.78023 21.2861 3.90518V14.0964C15.0954 14.0964 8.90462 14.0964 2.71385 14.0964Z" fill="currentColor"/>
</svg>
