<svg width="22" height="22" viewBox="0 0 22 22" fill="none" xmlns="http://www.w3.org/2000/svg">
<path opacity="0.3" d="M19.5997 3.52344H2.39639C2.09618 3.53047 1.8003 3.59658 1.52565 3.718C1.25101 3.83941 1.00298 4.01375 0.79573 4.23106C0.588484 4.44837 0.426087 4.70438 0.317815 4.98447C0.209544 5.26456 0.157521 5.56324 0.164719 5.86344C0.157521 6.16364 0.209544 6.46232 0.317815 6.74241C0.426087 7.0225 0.588484 7.27851 0.79573 7.49581C1.00298 7.71312 1.25101 7.88746 1.52565 8.00888C1.8003 8.1303 2.09618 8.19641 2.39639 8.20344H19.5997C19.8999 8.19641 20.1958 8.1303 20.4704 8.00888C20.7451 7.88746 20.9931 7.71312 21.2004 7.49581C21.4076 7.27851 21.57 7.0225 21.6783 6.74241C21.7866 6.46232 21.8386 6.16364 21.8314 5.86344C21.8386 5.56324 21.7866 5.26456 21.6783 4.98447C21.57 4.70438 21.4076 4.44837 21.2004 4.23106C20.9931 4.01375 20.7451 3.83941 20.4704 3.718C20.1958 3.59658 19.8999 3.53047 19.5997 3.52344Z" fill="currentColor" fill-opacity="0.8"/>
<path d="M2.39453 8.20361L4.01953 18.3111C4.15644 19.145 4.58173 19.9043 5.22121 20.4567C5.8607 21.009 6.6738 21.3194 7.5187 21.3336H14.5712C15.4215 21.3202 16.2395 21.006 16.8801 20.4468C17.5207 19.8875 17.9424 19.1193 18.0704 18.2786L19.5979 8.20361H2.39453ZM9.28453 16.3178C9.28453 16.5333 9.19893 16.7399 9.04656 16.8923C8.89418 17.0447 8.68752 17.1303 8.47203 17.1303C8.25654 17.1303 8.04988 17.0447 7.89751 16.8923C7.74513 16.7399 7.65953 16.5333 7.65953 16.3178V12.4069C7.65953 12.1915 7.74513 11.9848 7.89751 11.8324C8.04988 11.68 8.25654 11.5944 8.47203 11.5944C8.68752 11.5944 8.89418 11.68 9.04656 11.8324C9.19893 11.9848 9.28453 12.1915 9.28453 12.4069V16.3178ZM14.322 16.3178C14.322 16.5333 14.2364 16.7399 14.0841 16.8923C13.9317 17.0447 13.725 17.1303 13.5095 17.1303C13.294 17.1303 13.0874 17.0447 12.935 16.8923C12.7826 16.7399 12.697 16.5333 12.697 16.3178V12.4069C12.697 12.1915 12.7826 11.9848 12.935 11.8324C13.0874 11.68 13.294 11.5944 13.5095 11.5944C13.725 11.5944 13.9317 11.68 14.0841 11.8324C14.2364 11.9848 14.322 12.1915 14.322 12.4069V16.3178Z" fill="currentColor" fill-opacity="0.8"/>
<path d="M17.3895 4.87755C17.2529 4.87776 17.1185 4.84303 16.999 4.77667C16.8796 4.71031 16.7791 4.61452 16.707 4.49839L14.5945 1.24839C14.488 1.07063 14.4544 0.858502 14.5009 0.656521C14.5473 0.45454 14.6702 0.2784 14.8437 0.165055C15.0215 0.0626479 15.2311 0.0303209 15.4315 0.0744071C15.6319 0.118493 15.8086 0.235816 15.927 0.403388L18.0395 3.70755C18.1434 3.88599 18.1755 4.09728 18.1292 4.2985C18.0829 4.49972 17.9618 4.67577 17.7904 4.79089C17.6659 4.85225 17.5282 4.88202 17.3895 4.87755Z" fill="currentColor" fill-opacity="0.8"/>
<path d="M4.49988 4.8885C4.34679 4.8928 4.19591 4.85131 4.06655 4.76933C3.89514 4.65422 3.77399 4.47817 3.72771 4.27694C3.68143 4.07572 3.71349 3.86443 3.81738 3.686L5.98405 0.435999C6.09739 0.262485 6.27353 0.13961 6.47551 0.0931545C6.6775 0.0466989 6.88962 0.0802727 7.06738 0.186832C7.23676 0.303623 7.35627 0.479597 7.40239 0.680101C7.4485 0.880606 7.41788 1.09111 7.31655 1.27017L5.20405 4.52017C5.12881 4.63747 5.0243 4.73313 4.90082 4.79773C4.77733 4.86232 4.63914 4.8936 4.49988 4.8885Z" fill="currentColor" fill-opacity="0.8"/>
</svg>
