<svg width="24" height="24" viewBox="0 0 24 24" fill="none" xmlns="http://www.w3.org/2000/svg">
<path opacity="0.3" d="M20.5543 4.37824L12.1798 2.02473C12.0626 1.99176 11.9376 1.99176 11.8203 2.02473L3.44572 4.37824C3.18118 4.45258 3 4.6807 3 4.93945V13.569C3 14.6914 3.48509 15.8404 4.4417 16.984C5.17231 17.8575 6.18314 18.7345 7.446 19.5909C9.56752 21.0295 11.6566 21.912 11.7445 21.9488C11.8258 21.9829 11.9129 22 12.0001 22C12.0872 22 12.1744 21.983 12.2557 21.9488C12.3435 21.912 14.4326 21.0295 16.5541 19.5909C17.8169 18.7345 18.8277 17.8575 19.5584 16.984C20.515 15.8404 21 14.6914 21 13.569V4.93945C21 4.6807 20.8189 4.45258 20.5543 4.37824Z" fill="currentColor"/>
<rect x="9" y="13.0283" width="7.3536" height="1.2256" rx="0.6128" transform="rotate(-45 9 13.0283)" fill="currentColor"/>
<rect x="9.86664" y="7.93359" width="7.3536" height="1.2256" rx="0.6128" transform="rotate(45 9.86664 7.93359)" fill="currentColor"/>
</svg>
