<svg width="199" height="187" viewBox="0 0 199 187" fill="none" xmlns="http://www.w3.org/2000/svg">
<path d="M30.968 95.5192C22.455 91.7016 16.9675 82.7232 15.7304 73.4712C14.4933 64.2193 17.0247 54.7999 21.1199 46.4176C27.1014 34.1687 38.0968 22.81 51.742 22.4343C57.5521 22.2751 63.2927 24.1369 69.1027 23.8593C78.371 23.4142 86.4308 17.6777 93.8904 12.1657C101.35 6.65371 109.406 0.913077 118.678 0.468035C127.95 0.0229935 138.154 7.53154 136.802 16.71C136.357 19.7396 134.74 22.7528 135.532 25.717C136.978 31.1065 144.723 31.4617 149.778 29.0977C154.832 26.7337 159.695 22.7569 165.236 23.4306C170.478 24.0716 174.398 28.9425 175.627 34.0748C176.856 39.2071 175.974 44.5884 175.088 49.7901L169.907 80.1101C168.682 87.243 167.22 94.8741 162.063 99.9573C156.486 105.453 148.038 106.555 140.228 107.127C106 109.634 71.5908 107.567 37.909 100.982" fill="#303046"/>
<path d="M190.089 101.456C190.269 102.018 190.353 102.606 190.338 103.195C190.302 104.162 189.947 105.089 189.329 105.833C189.342 106.538 189.121 107.227 188.701 107.793C188.424 108.129 188.069 108.392 187.666 108.557C187.264 108.723 186.827 108.788 186.394 108.744C186.757 110.01 186.635 111.463 185.789 112.468C184.944 113.472 182.956 113.529 181.927 112.631L183.707 109.165C182.739 108.292 181.912 107.274 181.257 106.147C180.968 105.754 180.846 105.262 180.918 104.78C181.102 104.139 181.915 103.857 182.552 104.028C182.625 104.048 182.697 104.073 182.768 104.102C182.527 103.894 182.278 103.693 182.029 103.502C181.253 102.897 180.461 102.22 180.155 101.285C179.849 100.35 180.269 99.1083 181.229 98.896C181.78 98.8299 182.337 98.9445 182.817 99.2226C183.176 99.3901 183.527 99.5656 183.879 99.7493C183.425 98.7572 182.976 97.7691 182.523 96.781C182.408 96.6011 182.334 96.3985 182.304 96.1872C182.275 95.9759 182.291 95.7607 182.352 95.5562C182.459 95.3747 182.62 95.2312 182.812 95.1456C183.005 95.0599 183.219 95.0365 183.425 95.0785C183.835 95.174 184.221 95.3548 184.556 95.6092C185.953 96.5238 187.361 97.4507 188.48 98.6878C188.892 99.1394 189.251 99.6366 189.55 100.17C189.608 98.9433 189.291 97.7282 188.639 96.6871C187.869 95.5058 186.987 94.401 186.006 93.3881C185.414 92.7185 184.83 91.6978 185.406 91.0118C185.863 90.4606 186.737 90.5831 187.398 90.8608C188.378 91.2678 189.249 91.8977 189.943 92.7003C190.637 93.503 191.135 94.4564 191.396 95.4848C191.657 96.5132 191.675 97.5884 191.448 98.6249C191.221 99.6614 190.756 100.631 190.089 101.456ZM73.8798 150.835C73.4603 150.612 73.0602 150.354 72.6835 150.064C72.8668 150.668 72.9455 151.299 72.9162 151.929C72.8185 153.145 72.5618 154.342 72.1527 155.49C71.7614 156.94 71.2138 158.343 70.5195 159.675C69.8159 161.016 68.6932 162.09 67.3226 162.733C66.163 163.223 64.8728 163.272 63.6193 163.28C60.1013 163.308 56.5859 163.077 53.1016 162.59L54.0203 161.002C51.9502 163.897 49.1861 166.31 46.0749 167.514C40.1791 169.768 35.8675 166.179 31.1762 162.447C27.7873 159.748 24.5169 156.731 20.487 155.147C14.9301 152.954 8.01767 153.408 3.95105 149.051C-0.838258 143.923 1.45228 135.663 4.25727 129.232C12.4779 110.401 22.7866 92.551 34.9897 76.0192L28.8897 49.7005C24.1412 49.2106 14.4973 48.1327 14.4973 48.1327C18.9232 40.6486 23.684 32.0458 28.657 23.5615C32.4051 17.1635 40.571 12.4272 47.6672 16.6204C48.1957 16.9325 48.6958 17.2905 49.1616 17.6902C51.5624 19.7561 53.0077 22.7449 53.8243 25.803C54.6082 28.7223 54.8777 31.7437 55.2656 34.7406C56.522 34.2761 57.8909 34.2091 59.1867 34.5487C60.4824 34.8882 61.6425 35.6179 62.5097 36.6388C63.3769 37.6598 63.9093 38.9226 64.0348 40.2563C64.1602 41.5899 63.8726 42.9299 63.211 44.0946C62.3866 45.5252 61.0569 46.5956 59.4833 47.0956C62.8966 52.5872 66.1181 57.4336 69.5845 62.4597L69.7152 62.2066C81.7966 64.1419 93.7801 68.2698 104.134 74.7903C111.239 104.526 99.7902 129.518 73.8798 150.835Z" fill="white"/>
<path d="M190.939 77.1327L129.608 44.9198C125.424 42.7221 120.25 44.3325 118.053 48.5168L70.3969 139.249C68.1991 143.433 69.8096 148.607 73.9939 150.805L135.324 183.018C139.509 185.215 144.682 183.605 146.88 179.421L194.536 88.6884C196.734 84.5041 195.123 79.3304 190.939 77.1327Z" fill="white"/>
<path d="M108.43 90.9911C119.028 90.9911 127.619 82.3995 127.619 71.8012C127.619 61.2029 119.028 52.6113 108.43 52.6113C97.8313 52.6113 89.2397 61.2029 89.2397 71.8012C89.2397 82.3995 97.8313 90.9911 108.43 90.9911Z" fill="#FEAABC"/>
<path d="M146.487 132.429L153.901 120.486C154.685 119.225 155.49 117.914 155.718 116.444C155.947 114.974 155.457 113.284 154.167 112.541C152.803 111.757 151.043 112.259 149.716 113.109C148.389 113.958 147.267 115.126 145.85 115.803C144.433 116.481 142.498 116.522 141.501 115.301C140.42 113.978 140.685 111.541 139.052 110.969C138.145 110.651 137.186 111.177 136.255 111.418C135.324 111.659 134.005 111.316 134.001 110.353C130.796 113.986 129.012 118.367 126.382 122.43" fill="#9ED5F0"/>
<path d="M106.176 72.1565C106.519 66.0403 106.863 59.9254 107.209 53.8118C107.254 53.0279 108.479 53.0238 108.434 53.8118C108.102 59.6913 107.77 65.5721 107.438 71.4543H107.462L107.503 71.4828C113.838 70.3749 120.227 69.6062 126.644 69.1801C127.432 69.1311 127.428 70.3559 126.644 70.4049C120.691 70.8006 114.762 71.4956 108.879 72.4872L122.626 82.5068C123.259 82.9682 122.647 84.0298 122.01 83.5643L107.054 72.6628C106.965 72.716 106.864 72.7444 106.761 72.7453C106.657 72.7462 106.556 72.7194 106.466 72.6678C106.376 72.6162 106.302 72.5415 106.251 72.4516C106.2 72.3618 106.174 72.2599 106.176 72.1565ZM182.854 108.303L145.817 178.848C144.91 180.568 143.358 181.858 141.501 182.435C139.645 183.013 137.635 182.832 135.912 181.931L74.7821 149.827C74.1288 149.908 73.4633 149.953 72.7937 149.978C72.796 149.995 72.796 150.013 72.7937 150.031C73.1796 150.323 73.5894 150.582 74.0186 150.806L135.349 183.013C136.343 183.536 137.431 183.859 138.551 183.961C139.67 184.064 140.799 183.944 141.872 183.61C142.945 183.276 143.942 182.734 144.805 182.014C145.669 181.294 146.382 180.411 146.903 179.416L183.368 109.985L183.707 109.168C183.408 108.9 183.124 108.617 182.854 108.319V108.303ZM190.95 77.1091L129.62 44.9151C128.626 44.3916 127.537 44.0693 126.418 43.9668C125.299 43.8643 124.17 43.9835 123.097 44.3176C122.024 44.6517 121.027 45.1941 120.164 45.9139C119.3 46.6336 118.587 47.5166 118.065 48.5121L115.252 53.8649C115.636 54.0119 116.016 54.1711 116.387 54.3426L119.147 49.0838C119.771 47.8992 120.705 46.9074 121.851 46.2152C122.996 45.523 124.309 45.1567 125.648 45.156C126.835 45.1547 128.004 45.4449 129.053 46.0011L190.383 78.2075C192.102 79.1149 193.392 80.6668 193.97 82.5234C194.548 84.3799 194.366 86.3897 193.465 88.1127L190.579 93.6084C190.85 94.0417 191.07 94.5048 191.236 94.9884L194.551 88.6802C195.602 86.6696 195.813 84.3247 195.138 82.159C194.463 79.9933 192.957 78.1834 190.95 77.1255V77.1091ZM82.948 129.167C90.2973 133.704 97.7542 138.05 105.319 142.204C107.455 143.377 109.6 144.534 111.753 145.674C112.451 146.042 113.072 144.984 112.374 144.617C104.752 140.575 97.2329 136.339 89.8155 131.911C87.7196 130.656 85.636 129.389 83.5645 128.109C82.8949 127.685 82.2988 128.754 82.948 129.167ZM86.2144 124.598L95.2744 129.522C95.9645 129.898 96.5851 128.84 95.891 128.465L86.8309 123.54C86.1245 123.161 85.508 124.218 86.2021 124.598H86.2144ZM91.0037 118.955C96.4286 121.865 101.972 124.541 107.634 126.982C108.352 127.289 108.977 126.235 108.254 125.921C102.587 123.487 97.0383 120.809 91.6079 117.886C90.9138 117.522 90.2932 118.58 90.9914 118.955H91.0037ZM94.1394 114.362L97.7895 116.608C97.9302 116.689 98.097 116.712 98.2542 116.671C98.4115 116.631 98.5466 116.53 98.6306 116.391C98.7083 116.249 98.7287 116.083 98.6877 115.927C98.6467 115.77 98.5474 115.636 98.4101 115.55L94.76 113.305C94.6189 113.224 94.4517 113.202 94.2944 113.243C94.1371 113.284 94.0023 113.385 93.9189 113.525C93.8415 113.666 93.8212 113.832 93.8622 113.987C93.9032 114.143 94.0024 114.277 94.1394 114.362ZM123.537 119.556C122.847 119.176 122.226 120.233 122.92 120.613L126.272 122.446C125.145 124.387 124.032 126.335 122.932 128.289C122.549 128.979 123.606 129.6 123.99 128.91C125.092 126.942 126.211 124.983 127.346 123.034L146.989 133.809L152.705 136.933L147.806 137.251C147.022 137.3 147.018 138.525 147.806 138.476L156.813 137.892C157.286 137.859 157.695 137.206 157.246 136.847C155.461 135.408 153.993 133.616 152.934 131.584C152.566 130.886 151.509 131.506 151.876 132.205C152.764 133.894 153.921 135.428 155.302 136.745L154.665 136.786C154.645 136.711 154.609 136.642 154.56 136.583C154.512 136.523 154.452 136.474 154.383 136.439L130.294 123.263L127.946 121.969C131.033 116.699 134.233 111.497 137.545 106.363C138.906 104.273 140.277 102.196 141.657 100.133C141.704 100.066 141.735 99.9893 141.749 99.9085C141.762 99.8277 141.757 99.7449 141.734 99.6664C141.711 99.5878 141.67 99.5155 141.615 99.4549C141.56 99.3943 141.492 99.3469 141.416 99.3163L142.641 98.1159C141.903 100.86 141.161 103.605 140.416 106.351C140.378 106.506 140.401 106.669 140.482 106.807C140.563 106.944 140.693 107.045 140.847 107.087C141.001 107.13 141.165 107.111 141.304 107.034C141.444 106.958 141.549 106.83 141.596 106.678C142.535 103.21 143.472 99.7437 144.409 96.2786C144.442 96.1487 144.431 96.0117 144.38 95.8882C144.328 95.7647 144.237 95.6614 144.121 95.5941C144.005 95.5267 143.871 95.4989 143.738 95.5149C143.605 95.5308 143.48 95.5897 143.384 95.6825L135.581 103.293C135.014 103.844 135.879 104.71 136.447 104.159L139.501 101.186C135.1 107.795 130.889 114.529 126.868 121.389L123.537 119.556ZM188.57 81.1758L160.806 67.506L133.14 53.8812C130.915 52.787 128.412 51.2926 125.831 51.8398C123.81 52.2481 122.001 54.2405 122.544 56.3759C122.736 57.1394 123.92 56.8169 123.724 56.0534C123.239 54.1385 125.48 52.9054 127.089 52.9626C128.193 53.0532 129.269 53.3568 130.257 53.8567C131.327 54.3426 132.376 54.8856 133.434 55.4042L146.675 61.9369L173.063 74.9329L187.949 82.2618C188.631 82.5844 189.272 81.5473 188.545 81.1799L188.57 81.1758ZM169.878 87.6717C169.517 87.2521 169.059 86.9268 168.544 86.7241C168.029 86.5213 167.472 86.4472 166.922 86.5081C166.405 86.5905 165.924 86.8267 165.542 87.1859C165.199 87.488 164.823 88.0025 164.346 87.6432C163.529 87.0185 163.627 85.7568 163.492 84.8545C163.345 83.8828 162.962 82.862 161.986 82.4741C161.01 82.0863 160.014 82.5762 159.128 82.9845C158.773 83.197 158.369 83.3111 157.956 83.3152C157.515 83.2458 157.356 82.8375 157.299 82.4456C157.148 81.433 157.36 80.3633 156.784 79.4487C156.444 78.9645 155.983 78.5776 155.448 78.3262C154.912 78.0748 154.32 77.9678 153.73 78.0156C152.223 78.1013 150.954 78.9996 149.79 79.8774C149.165 80.3428 149.79 81.4085 150.407 80.9349C151.346 80.2285 152.391 79.3956 153.595 79.2486C154.469 79.1465 155.567 79.4854 155.882 80.3878C156.196 81.2901 155.91 82.2863 156.221 83.1927C156.366 83.635 156.665 84.0105 157.064 84.2516C157.462 84.4927 157.933 84.5834 158.393 84.5075C159.311 84.3768 160.055 83.7399 160.953 83.5765C161.949 83.3928 162.214 84.3931 162.325 85.1811C162.464 86.1692 162.464 87.1246 163.047 87.9861C163.631 88.8476 164.546 89.2886 165.497 88.8027C166.052 88.521 166.387 87.88 167.004 87.7289C167.266 87.6816 167.534 87.6876 167.794 87.7465C168.054 87.8055 168.299 87.9161 168.514 88.0719C169.65 88.815 169.939 90.3624 170.209 91.5914C170.38 92.3631 171.56 92.0364 171.389 91.2647C171.087 90.0154 170.76 88.6925 169.878 87.6717ZM160.079 93.9309C160.171 94.2244 160.356 94.4803 160.605 94.6606C160.855 94.8408 161.156 94.9357 161.463 94.9312C162.214 94.9312 162.774 94.3719 163.439 94.1146C164.578 93.6818 165.836 94.2045 166.885 94.6495C168.278 95.2415 169.658 95.9193 171.197 95.9438C171.359 95.9438 171.515 95.8793 171.63 95.7644C171.745 95.6496 171.809 95.4938 171.809 95.3314C171.809 95.1689 171.745 95.0132 171.63 94.8983C171.515 94.7834 171.359 94.7189 171.197 94.7189C168.474 94.6781 166.101 92.0732 163.301 92.8734C162.98 92.9739 162.671 93.1109 162.382 93.2817C162.178 93.396 161.614 93.837 161.353 93.69C160.994 93.494 161.508 92.4406 161.594 92.1752C162.031 90.8319 161.692 89.3172 160.336 88.6272C159.983 88.4661 159.6 88.3824 159.212 88.3816C158.823 88.3808 158.44 88.463 158.086 88.6227C157.732 88.7824 157.416 89.0159 157.16 89.3075C156.904 89.599 156.713 89.942 156.6 90.3134C156.368 91.0647 157.548 91.3872 157.784 90.636C157.867 90.354 158.034 90.1044 158.264 89.921C158.493 89.7376 158.774 89.6293 159.067 89.611C159.36 89.5927 159.652 89.6653 159.902 89.8187C160.153 89.9721 160.35 90.1991 160.467 90.4686C160.969 91.624 159.736 92.7591 160.079 93.9472V93.9309ZM97.5364 87.5983L74.9495 130.649C75.419 130.62 75.8886 130.604 76.3581 130.596L98.5857 88.2678C98.2223 88.0555 97.8753 87.831 97.5364 87.5983Z" fill="#3F4254"/>
<path d="M190.399 92.3305C189.399 91.1464 187.541 89.7296 185.908 90.0644C185.5 90.1385 185.135 90.3648 184.888 90.6977C184.641 91.0305 184.53 91.4449 184.577 91.8569C184.671 92.8123 185.336 93.5554 185.945 94.2413C186.896 95.3029 187.986 96.5237 188.558 97.8915C187.366 96.7387 186.036 95.7388 184.597 94.915C183.87 94.474 182.939 94.2291 182.209 94.7966C181.359 95.4499 181.706 96.4584 182.074 97.2709C182.258 97.6792 182.445 98.0874 182.629 98.4957C182.297 98.3356 181.933 98.2561 181.564 98.264C181.196 98.2718 180.835 98.3666 180.51 98.5406C180.159 98.7833 179.877 99.112 179.689 99.4952C179.502 99.8784 179.416 100.303 179.44 100.729C179.485 102.04 180.302 102.848 181.216 103.587C181.011 103.682 180.828 103.817 180.677 103.984C180.526 104.152 180.411 104.349 180.339 104.563C180.028 105.535 180.718 106.515 181.249 107.274C181.838 108.123 182.523 108.901 183.291 109.593C183.87 110.12 184.74 109.258 184.156 108.728C183.156 107.852 182.319 106.807 181.682 105.641C181.445 105.192 181.404 104.714 181.992 104.604C182.159 104.575 182.331 104.591 182.49 104.649C182.845 104.795 183.163 105.018 183.421 105.302C183.683 105.563 183.96 105.865 184.238 106.188C184.566 106.573 184.865 106.983 185.132 107.413C185.503 107.986 185.778 108.614 185.949 109.275C186.07 109.728 186.089 110.202 186.004 110.663C185.92 111.124 185.733 111.561 185.459 111.941C184.858 112.757 183.47 113.207 182.601 112.5C181.996 112.002 181.127 112.864 181.735 113.366C182.322 113.82 183.046 114.062 183.788 114.05C184.53 114.038 185.246 113.774 185.818 113.301C186.998 112.366 187.357 110.769 187.157 109.324C187.916 109.217 188.611 108.842 189.117 108.266C189.629 107.638 189.916 106.856 189.934 106.045C190.414 105.425 190.738 104.698 190.877 103.926C191.008 103.14 190.968 102.335 190.758 101.566C191.734 100.206 192.229 98.5594 192.164 96.8866C192.099 95.2139 191.478 93.6106 190.399 92.3305ZM187.231 108.087C187.109 108.122 186.985 108.145 186.859 108.156C186.267 106.731 185.371 105.452 184.234 104.408C183.882 104.053 183.466 103.768 183.009 103.567C182.338 103.077 181.72 102.517 181.167 101.897C180.947 101.662 180.793 101.372 180.721 101.058C180.649 100.744 180.662 100.416 180.759 100.108C181.074 99.2919 181.841 99.4757 182.498 99.7737C182.797 99.9044 183.095 100.047 183.397 100.182C184.012 100.484 184.612 100.816 185.193 101.178C185.835 101.578 186.441 102.031 187.006 102.534C187.88 103.322 188.639 104.408 188.721 105.596C188.743 105.916 188.714 106.237 188.635 106.547C188.559 106.854 188.42 107.142 188.227 107.392C187.979 107.726 187.629 107.969 187.231 108.087ZM188.864 102.779C187.729 101.276 186.006 100.194 184.336 99.3246C184.254 99.1531 184.177 98.9816 184.099 98.806C183.727 97.9894 183.282 97.1729 182.984 96.3563C182.65 95.4499 183.568 95.7561 184.046 96.0541C185.749 97.1198 187.798 98.4835 188.917 100.296C189.12 100.626 189.289 100.975 189.423 101.337L189.403 101.362H189.435C189.572 101.74 189.662 102.134 189.705 102.534C189.726 102.709 189.737 102.884 189.738 103.06C189.737 103.408 189.689 103.755 189.595 104.089C189.415 103.608 189.169 103.155 188.864 102.742V102.779ZM190.146 100.051C190.157 98.5915 189.713 97.1645 188.876 95.9684C188.36 95.2197 187.792 94.5075 187.178 93.8371C186.696 93.29 185.953 92.6571 185.81 91.8977C185.663 91.0811 186.72 91.2975 187.178 91.4894C187.867 91.7771 188.496 92.1927 189.031 92.7143C190.123 93.7365 190.81 95.1179 190.967 96.6053C191.076 97.8548 190.815 99.1088 190.215 100.211C190.183 100.1 190.158 100.06 190.134 100.015L190.146 100.051ZM57.6949 81.4862C57.6015 82.1407 57.7131 82.808 58.0143 83.3965C58.3156 83.985 58.7916 84.4659 59.3771 84.7729C59.9173 85.0822 60.5442 85.205 61.1612 85.1223C61.7781 85.0397 62.3507 84.7562 62.7904 84.3156C63.187 83.904 63.4731 83.3989 63.6223 82.8472C63.7715 82.2954 63.7789 81.7149 63.6438 81.1595C63.4808 80.6059 63.1542 80.1146 62.7067 79.7503C62.2592 79.3859 61.7119 79.1655 61.1368 79.118C60.5126 79.0377 59.8786 79.1446 59.3152 79.4252C58.7518 79.7058 58.2845 80.1474 57.9725 80.6941C57.8981 80.8419 57.8806 81.0119 57.9235 81.1718C57.8113 81.2309 57.7253 81.33 57.6826 81.4494L57.6949 81.4862ZM59.03 81.2983C59.079 81.2085 59.1321 81.1228 59.1852 81.037V81.0166C59.2178 80.9799 59.2505 80.939 59.2872 80.9023C59.3464 80.8399 59.4105 80.7826 59.4791 80.7308L59.5445 80.6859L59.7119 80.5798L59.8466 80.5103L59.9242 80.4818C60.0057 80.4503 60.0889 80.423 60.1732 80.4001C60.259 80.3756 60.3447 80.3593 60.4305 80.3429H60.508C60.576 80.3387 60.6442 80.3387 60.7122 80.3429H61.0143H61.0674L61.2144 80.3715C61.2962 80.3871 61.3768 80.409 61.4553 80.4368L61.5492 80.4695L61.6758 80.5308C61.7628 80.578 61.8473 80.6298 61.9289 80.6859H61.9493C61.982 80.7227 62.0228 80.7553 62.0596 80.7921L62.1616 80.9023V80.9227C62.2256 81.0215 62.2843 81.1238 62.3372 81.2289V81.2534C62.3546 81.3003 62.3696 81.348 62.3821 81.3963C62.4055 81.4797 62.4246 81.5642 62.4393 81.6495C62.4407 81.6753 62.4407 81.7012 62.4393 81.7271C62.4393 81.7761 62.4393 81.8291 62.4393 81.8781C62.4386 81.9832 62.4318 82.0882 62.4189 82.1925C62.4189 82.217 62.3944 82.3477 62.3862 82.3722C62.3657 82.4723 62.3371 82.5707 62.3005 82.6661C62.2921 82.6982 62.2811 82.7296 62.2678 82.76L62.227 82.8499C62.1735 82.9569 62.1135 83.0605 62.0473 83.1602L61.9861 83.2459L61.9289 83.3194C61.8623 83.3942 61.7914 83.4651 61.7166 83.5317L61.639 83.593L61.5615 83.646L61.4308 83.7236L61.3083 83.7808C61.2232 83.8141 61.1359 83.8414 61.047 83.8624L60.9368 83.8829H60.8061C60.7218 83.889 60.6372 83.889 60.553 83.8829H60.4509C60.3749 83.8668 60.2999 83.8463 60.2263 83.8216L60.0875 83.7767C60.0398 83.7497 59.9907 83.7252 59.9405 83.7032C59.8256 83.643 59.7151 83.5748 59.6098 83.4991L59.5281 83.4337C59.471 83.3806 59.4097 83.3276 59.3567 83.2704C59.3036 83.2132 59.275 83.1847 59.2383 83.1398L59.1852 83.0785C59.176 83.0611 59.1651 83.0447 59.1525 83.0295C59.0749 82.9152 59.0096 82.7968 58.9443 82.6784C58.9361 82.667 58.9292 82.6546 58.9239 82.6416C58.9239 82.6416 58.9239 82.6416 58.9239 82.609C58.9239 82.5763 58.8749 82.462 58.8545 82.3885C58.834 82.315 58.8259 82.2742 58.8136 82.2211V82.1843C58.8114 82.1544 58.8114 82.1244 58.8136 82.0945C58.8136 82.0374 58.8136 81.9761 58.8136 81.919C58.8136 81.8618 58.8422 81.6658 58.8136 81.7883C58.8282 81.6803 58.8199 81.5703 58.7891 81.4657C58.8879 81.4249 58.971 81.3533 59.0259 81.2616L59.03 81.2983ZM87.1983 84.4055C86.8513 86.2306 85.0466 87.3084 83.3032 87.239C83.4397 87.6616 83.4911 88.1071 83.4542 88.5497C83.2909 90.6524 81.376 92.5265 79.2161 91.5547C78.3653 91.153 77.7046 90.4353 77.3747 89.5541C77.135 89.7454 76.8732 89.9071 76.5949 90.0359C74.1859 91.1342 71.4953 89.2478 71.3973 86.6633C71.3034 84.1687 74.0512 82.3395 76.3499 83.103C77.0971 83.348 76.7582 84.532 76.0233 84.283C75.5307 84.1276 75.0038 84.1182 74.506 84.2559C74.0083 84.3936 73.561 84.6724 73.2183 85.0587C72.88 85.4405 72.6758 85.9224 72.6367 86.431C72.5977 86.9396 72.7259 87.447 73.0019 87.876C73.2595 88.3493 73.6676 88.7232 74.1616 88.9384C74.6556 89.1536 75.2073 89.1978 75.7293 89.0641C76.285 88.8945 76.7725 88.5528 77.1216 88.0883C77.1377 87.3984 77.3883 86.7346 77.832 86.2061C77.9184 86.1224 78.0273 86.0659 78.1454 86.0434C78.2635 86.0209 78.3856 86.0334 78.4967 86.0794C78.6077 86.1254 78.7029 86.2029 78.7706 86.3023C78.8382 86.4017 78.8753 86.5186 78.8773 86.6388C78.8551 87.2805 78.6696 87.9059 78.3383 88.4558C78.4894 89.6806 79.5918 90.9055 80.8126 90.5381C82.3437 90.1053 82.801 87.533 81.4454 86.6511C80.7962 86.2142 81.4005 85.1649 82.062 85.5936C82.5079 85.8836 83.0299 86.035 83.5619 86.0284C84.0939 86.0219 84.6119 85.8578 85.0507 85.5569C85.4724 85.2596 85.7852 84.8325 85.9415 84.3408C86.0978 83.8491 86.0889 83.3197 85.9163 82.8335C85.7802 82.3294 85.4832 81.8835 85.0705 81.5637C84.6578 81.2438 84.1519 81.0675 83.6298 81.0615C83.0845 81.0696 82.5545 81.2434 82.1103 81.56C81.6662 81.8765 81.3289 82.3207 81.1433 82.8335C80.9024 83.5807 79.7388 83.2663 79.9633 82.5069C80.1789 81.7718 80.1941 80.9925 80.0075 80.2495C79.8209 79.5066 79.4391 78.827 78.9017 78.281C77.1134 79.5917 77.1706 82.8335 79.1876 83.9318C79.8817 84.3075 79.261 85.365 78.5669 84.9893C75.6436 83.3929 75.6844 78.5056 78.6649 76.9867C78.7832 76.9231 78.9183 76.898 79.0515 76.9148C79.1847 76.9316 79.3093 76.9896 79.408 77.0807C80.4817 77.9788 81.17 79.2546 81.3311 80.6451C81.8117 80.2794 82.3709 80.0305 82.9643 79.9183C85.5651 79.4284 87.6964 81.8495 87.1983 84.4055ZM80.9432 142.383C81.1127 142.269 81.2653 142.132 81.3964 141.975C81.6698 141.684 81.8445 141.315 81.8958 140.919C81.9471 140.523 81.8724 140.121 81.6822 139.77C81.2739 139.052 80.4002 138.672 79.7061 138.296C78.2374 137.445 76.6608 136.796 75.0189 136.365C73.9228 136.115 72.7978 136.016 71.6749 136.071C72.3976 135.181 73.9001 134.936 74.9821 134.944C76.6725 134.965 79.0937 135.5 80.4124 134.091C81.7312 132.682 80.4778 130.722 78.9181 130.22C77.9375 129.978 76.9234 129.899 75.9171 129.988C74.7953 130.023 73.6762 130.12 72.565 130.277C70.7154 130.543 68.8291 131.021 67.4042 132.319C66.1384 133.458 65.4403 135.099 65.085 136.737C64.3174 140.268 65.2443 144.376 63.2355 147.573C62.2721 149.026 60.8117 150.079 59.128 150.533C58.9769 150.578 58.8259 150.611 58.6707 150.643C58.7973 149.236 58.7767 147.82 58.6095 146.417C58.2067 143.096 57.0716 139.905 55.2859 137.076C54.7065 136.17 54.061 135.309 53.3547 134.499C54.7388 132.592 55.584 130.175 56.3271 128.077C57.7644 124.017 58.7756 119.819 59.3444 115.55C59.6273 113.455 59.8045 111.347 59.8752 109.234C59.9038 108.446 58.6789 108.446 58.6503 109.234C58.472 114.519 57.6172 119.759 56.1066 124.827C55.4265 127.273 54.5344 129.656 53.4405 131.947C53.1592 132.513 52.84 133.058 52.485 133.581C52.3748 133.47 52.2727 133.356 52.1625 133.246C50.9376 132.074 49.5535 130.89 47.9734 130.261C46.4994 129.677 44.707 129.743 43.6577 131.057C43.2856 131.558 43.0293 132.136 42.9071 132.748C42.785 133.36 42.8001 133.992 42.9514 134.597C43.6863 137.884 47.5365 138.439 50.1986 137.223C51.0964 136.801 51.9024 136.208 52.5708 135.475C53.7876 136.914 54.8053 138.509 55.5963 140.219C57.3734 144.003 57.9504 148.241 57.2499 152.362C56.4382 156.564 54.361 160.418 51.2969 163.406C48.1775 166.469 43.87 168.563 39.5053 167.044C37.4108 166.314 35.553 164.978 33.8096 163.639C31.8947 162.165 30.0533 160.606 28.1588 159.111C26.3238 157.586 24.3276 156.267 22.2059 155.175C20.2912 154.295 18.2794 153.644 16.2121 153.236C12.3415 152.383 7.89104 151.872 4.89824 148.998C1.79111 146.013 1.5298 141.55 2.30556 137.565C3.1834 133.025 5.20446 128.803 7.12345 124.631C11.4334 115.264 16.267 106.147 21.6016 97.3239C24.2691 92.9116 27.0591 88.5782 29.9716 84.3238C31.4252 82.1952 32.91 80.0884 34.4261 78.0034C34.6752 77.6645 35.1366 77.1868 35.4346 76.7214C40.7522 77.6645 46.2043 77.5382 51.4725 76.3498C53.2756 75.9094 55.0409 75.3265 56.7517 74.6064C56.7004 74.6942 56.6749 74.7946 56.6782 74.8963C56.7455 76.6226 56.4041 78.3404 55.6818 79.9099C54.9595 81.4793 53.8768 82.856 52.5218 83.9278C51.1628 84.9657 49.5697 85.6541 47.8825 85.9324C46.1953 86.2108 44.4656 86.0706 42.8452 85.5242C40.983 84.9331 39.3201 83.8395 38.0396 82.364C37.521 81.7679 36.6595 82.6376 37.1699 83.2296C38.4275 84.6468 39.9994 85.7498 41.7599 86.4503C43.5204 87.1508 45.4204 87.4293 47.3079 87.2635C49.2062 87.073 51.0289 86.4199 52.6162 85.3614C54.2036 84.3029 55.5072 82.8714 56.4128 81.1922C57.3086 79.5762 57.8186 77.775 57.9031 75.9293C60.3664 77.1023 63.1483 77.4281 65.8159 76.8561C68.0084 76.3495 70.0175 75.2449 71.6199 73.6649C73.2222 72.0849 74.355 70.0915 74.8923 67.9063C75.076 67.1387 73.896 66.812 73.7123 67.5796C73.1019 70.0449 71.6652 72.2265 69.6416 73.7612C67.9161 75.0399 65.8516 75.7809 63.7068 75.8913C61.562 76.0017 59.4323 75.4766 57.5847 74.3818C57.5377 74.3538 57.4868 74.3332 57.4336 74.3206C60.3096 73.0651 63.0051 71.4311 65.4484 69.4619C67.7272 67.6005 69.7751 65.4731 71.5483 63.1251C77.7047 64.2152 83.7424 65.8928 89.5787 68.1349C89.6549 67.7293 89.7447 67.3292 89.8481 66.9345C86.0311 65.462 82.1239 64.2346 78.1505 63.2599C75.4557 62.5984 72.7338 62.054 69.9846 61.6267C69.9411 61.6226 69.8974 61.6226 69.8539 61.6267C69.0047 60.4018 68.1677 59.1769 67.3307 57.9153C70.1773 56.521 72.6981 54.5422 74.7284 52.108C76.7588 49.6738 78.2532 46.8389 79.1141 43.7883C79.2284 43.38 79.306 42.841 78.9793 42.5634C78.4812 42.1102 77.734 42.6777 77.2645 43.1636C75.5727 44.9236 73.2747 45.9739 70.8367 46.1013C68.3988 46.2287 66.0038 45.4236 64.1378 43.8495C64.5938 42.7539 64.7834 41.5657 64.6912 40.3825C64.5989 39.1994 64.2274 38.0549 63.607 37.0432C64.1923 35.1023 64.6022 33.1127 64.8319 31.0985C65.4239 25.4517 63.0395 18.1882 57.3438 13.6806C52.8933 10.1611 43.674 9.18933 39.5503 13.0845C33.4585 10.7531 27.3667 19.1191 27.9138 23.7859C26.5787 25.9009 25.4151 28.1506 24.182 30.3186C20.834 36.1572 17.535 42.0244 14.1135 47.8222C14.0622 47.9157 14.036 48.0209 14.0372 48.1275C14.0384 48.2341 14.067 48.3386 14.1204 48.4309C14.1737 48.5232 14.2499 48.6002 14.3417 48.6545C14.4334 48.7088 14.5377 48.7386 14.6442 48.7409C19.2743 49.2594 23.9003 49.7739 28.5263 50.2557L30.4983 58.7564C31.5871 63.4817 32.6759 68.2057 33.7647 72.9283C33.9934 73.9123 34.2179 74.8922 34.4466 75.8762C24.336 89.6065 15.5238 104.247 8.12377 119.609C6.33135 123.328 4.53077 127.072 3.02008 130.914C1.75845 134.128 0.749959 137.553 0.700963 141.032C0.651968 144.298 1.63188 147.54 4.02857 149.843C6.42526 152.146 9.7447 153.077 12.9335 153.771C16.4326 154.53 19.899 155.163 23.0388 156.984C26.5216 159.025 29.5062 161.81 32.6705 164.272C35.3897 166.391 38.3866 168.522 41.9388 168.763C45.4909 169.004 48.9125 167.179 51.5011 164.864C52.0965 164.325 52.6635 163.755 53.1996 163.157C55.3799 163.455 57.5724 163.668 59.769 163.774C61.8963 163.876 64.1378 164.035 66.2446 163.672C70.5439 162.929 72.022 158.527 73.0999 154.873C73.5771 153.485 73.7348 152.007 73.5612 150.549C74.8412 150.499 76.1086 150.278 77.3298 149.892C78.2526 149.578 80.3512 148.765 79.5918 147.385C79.1864 146.791 78.5853 146.357 77.8933 146.16C78.816 146.291 79.8082 146.532 80.7064 146.266C81.1178 146.172 81.4898 145.953 81.7713 145.638C82.0528 145.324 82.2299 144.93 82.2784 144.511C82.3314 143.608 81.6945 142.857 80.9432 142.383ZM48.6879 136.463C46.8342 136.945 44.6049 136.332 44.1395 134.266C43.7312 132.405 44.9561 130.727 46.9608 131.204C48.7736 131.637 50.4313 133.14 51.7379 134.532C50.9322 135.462 49.8674 136.13 48.6797 136.451L48.6879 136.463ZM32.842 63.4191C31.8267 59.0476 30.8114 54.6734 29.7961 50.2965C29.7389 50.0434 29.6777 49.7861 29.6205 49.5289C29.5829 49.4005 29.5051 49.2876 29.3985 49.2067C29.292 49.1259 29.1622 49.0814 29.0285 49.0798C24.5658 48.6184 20.1032 48.1244 15.6405 47.6262C18.3475 43.0207 20.981 38.3784 23.6267 33.7442C25.0966 31.1719 26.5719 28.6065 28.0527 26.0478C29.2775 23.9329 30.4738 21.8751 32.2295 20.1398C33.1955 19.185 34.2698 18.3463 35.4306 17.641C35.1819 19.38 35.1326 21.1416 35.2836 22.8917C35.5163 24.9536 36.2798 27.0196 37.7823 28.4486C39.5707 30.1512 42.1388 30.731 44.5968 30.9596C46.7281 31.1597 48.9574 31.1311 50.9049 30.2369L51.4521 31.025C51.9355 32.4671 52.4971 33.8819 53.1342 35.2631C52.8798 35.455 52.6397 35.6652 52.4156 35.8918C52.3523 35.9475 52.3011 36.0157 52.2653 36.0921C52.2295 36.1685 52.2099 36.2514 52.2077 36.3358C52.2054 36.4201 52.2207 36.504 52.2524 36.5822C52.2841 36.6603 52.3316 36.7311 52.392 36.7901C52.4523 36.849 52.5242 36.8948 52.6031 36.9247C52.682 36.9546 52.7662 36.9678 52.8505 36.9636C52.9347 36.9594 53.0172 36.9378 53.0927 36.9002C53.1683 36.8626 53.2352 36.8098 53.2894 36.7452C54.0435 35.9692 54.9938 35.4121 56.0392 35.1333C57.0847 34.8544 58.1862 34.8641 59.2266 35.1614C60.267 35.4587 61.2073 36.0325 61.9476 36.8216C62.6878 37.6108 63.2003 38.5858 63.4305 39.6431C63.6608 40.7003 63.6001 41.8002 63.255 42.8257C62.9099 43.8512 62.2932 44.764 61.4707 45.467C60.6481 46.1699 59.6504 46.6368 58.5836 46.8178C57.5169 46.9989 56.421 46.8874 55.4125 46.4953C55.2609 46.4362 55.0921 46.4399 54.9432 46.5053C54.7942 46.5708 54.6774 46.6928 54.6184 46.8444C54.5594 46.996 54.563 47.1648 54.6285 47.3137C54.6939 47.4626 54.8159 47.5795 54.9675 47.6385C55.7558 47.9407 56.5934 48.0944 57.4377 48.0917C58.0912 48.0896 58.7416 48.0032 59.373 47.8345C62.5278 52.8892 65.7996 57.8663 69.1884 62.7658C69.2392 62.845 69.307 62.9119 69.3868 62.9616C69.4667 63.0112 69.5566 63.0425 69.6501 63.0531C69.7436 63.0636 69.8382 63.0532 69.9271 63.0226C70.0161 62.992 70.0971 62.9419 70.1642 62.8761H70.2132C67.1989 66.734 63.4014 69.9095 59.0709 72.1934C54.5904 74.4967 49.6661 75.8071 44.6335 76.0354C41.6487 76.1762 38.6575 75.9927 35.7123 75.4883H35.6347C34.6983 71.4652 33.7647 67.4381 32.8338 63.4069L32.842 63.4191ZM78.5424 148.018V148.038V148.018ZM79.6612 145.192C78.7507 145.156 77.8361 144.96 76.9256 144.874C76.0151 144.788 75.1373 144.735 74.2431 144.707C72.9502 144.668 71.6586 144.692 70.3684 144.776C69.6849 144.71 68.9952 144.757 68.3269 144.915C68.2816 144.926 68.2378 144.943 68.1963 144.964C68.1582 144.962 68.12 144.962 68.0819 144.964C67.3062 145.054 67.298 146.283 68.0819 146.189C68.7025 146.111 69.3068 146.058 69.9438 146.013C70.4296 146.013 70.9155 146.054 71.3973 146.099C72.7288 146.225 74.0506 146.439 75.3537 146.74C76.3867 146.977 77.5135 147.218 78.3587 147.822C78.3179 147.793 78.3995 147.859 78.473 147.924L78.5098 147.953C78.4634 147.992 78.4197 148.034 78.3791 148.079C78.0452 148.304 77.6845 148.487 77.3053 148.622C74.8555 149.561 72.12 149.382 69.5477 149.386C69.3853 149.386 69.2295 149.45 69.1146 149.565C68.9998 149.68 68.9353 149.836 68.9353 149.998C68.9353 150.161 68.9998 150.316 69.1146 150.431C69.2295 150.546 69.3853 150.611 69.5477 150.611C70.4664 150.611 71.4054 150.611 72.3445 150.611C72.3851 150.8 72.4137 150.993 72.4303 151.186C72.5895 153.138 71.7852 155.179 71.1564 157C70.5684 158.695 69.7396 160.438 68.2616 161.545C66.7019 162.708 64.7176 162.651 62.8639 162.643C60.7734 162.643 58.6857 162.542 56.6007 162.341C55.7841 162.265 54.9675 162.172 54.1509 162.063C56.4634 159.111 57.9764 155.612 58.5442 151.905H58.6585C60.2721 151.596 61.7678 150.844 62.9782 149.733C65.7056 147.246 65.7465 143.49 65.9098 140.068C65.9264 138.444 66.222 136.835 66.7835 135.312C67.0841 134.562 67.5417 133.885 68.1255 133.326C68.7093 132.768 69.4058 132.341 70.1683 132.074C71.9811 131.429 73.9981 131.257 75.9089 131.212C76.8276 131.188 77.8688 131.106 78.7425 131.457C79.3386 131.698 80.0613 132.474 79.604 133.144C79.1957 133.744 78.224 133.789 77.583 133.805C76.55 133.83 75.5211 133.691 74.4922 133.728C73.0019 133.777 71.385 134.283 70.5194 135.581C70.3929 135.772 70.2914 135.977 70.2173 136.194C69.8988 136.234 69.5844 136.279 69.266 136.337C68.4902 136.471 68.8209 137.655 69.5926 137.516C71.0356 137.228 72.5175 137.189 73.9736 137.402C75.3076 137.652 76.5988 138.092 77.8075 138.709C78.5098 139.048 79.1998 139.419 79.8735 139.807C80.4369 140.13 81.0331 140.624 80.4288 141.236C80.198 141.457 79.9038 141.6 79.5877 141.644C78.1561 140.977 76.6476 140.489 75.0964 140.191C72.8306 139.745 70.5052 139.69 68.2207 140.028C67.445 140.142 67.7757 141.322 68.5474 141.212C71.0624 140.849 73.6251 141.007 76.0763 141.677H75.5129L69.2333 141.567C69.0709 141.567 68.9151 141.631 68.8003 141.746C68.6854 141.861 68.6209 142.017 68.6209 142.179C68.6209 142.342 68.6854 142.497 68.8003 142.612C68.9151 142.727 69.0709 142.792 69.2333 142.792L75.8395 142.865C76.8848 142.865 77.9382 142.926 78.9834 142.89L79.3917 142.865C80.0042 143.135 80.6942 143.478 80.9759 144.021C81.4005 144.911 80.3022 145.209 79.653 145.18L79.6612 145.192ZM52.926 41.6896C53.5776 40.6094 54.4644 39.69 55.5206 39.0001C56.5767 38.3101 57.7749 37.8673 59.0259 37.7047C59.3526 37.6598 59.6384 38.0231 59.6384 38.3171C59.6342 38.4782 59.5684 38.6316 59.4544 38.7456C59.3405 38.8596 59.1871 38.9254 59.0259 38.9296C57.9874 39.0842 56.9963 39.4677 56.1242 40.0524C55.2521 40.637 54.5209 41.4083 53.9835 42.3102C53.9012 42.4505 53.7666 42.5523 53.6092 42.5932C53.4519 42.6342 53.2847 42.611 53.1444 42.5287C53.0042 42.4464 52.9024 42.3117 52.8615 42.1544C52.8205 41.997 52.8437 41.8299 52.926 41.6896ZM38.9705 57.8663C40.1836 57.6052 41.3389 57.1251 42.3797 56.4495C43.3841 57.3151 44.6989 58.1603 46.0299 57.6458C47.3609 57.1314 47.9489 55.5676 47.7529 54.1875C47.5786 53.3014 47.2716 52.4466 46.8424 51.652C46.7891 51.5516 46.7045 51.4714 46.6015 51.4234C47.0751 50.3162 47.3515 49.1348 47.4181 47.9325C47.4589 47.1445 46.234 47.1445 46.1932 47.9325C46.1356 48.9998 45.8867 50.0481 45.4583 51.0273C45.1916 50.7346 44.8552 50.5141 44.4805 50.3864C44.1057 50.2586 43.7047 50.2277 43.3147 50.2965C42.7558 50.3939 42.2557 50.7026 41.9182 51.1587C41.5807 51.6148 41.4316 52.1832 41.5019 52.7463C41.2033 52.8307 40.9273 52.9809 40.6942 53.1858C40.4611 53.3906 40.2767 53.645 40.1545 53.9303C40.0113 54.2523 39.9761 54.612 40.0541 54.9556C40.1321 55.2993 40.3191 55.6085 40.5873 55.8371C40.6425 55.8825 40.7012 55.9234 40.7629 55.9595C40.0913 56.2907 39.3807 56.5363 38.6479 56.6904C37.8722 56.8455 38.2029 58.0255 38.9705 57.8663ZM45.593 53.2811C45.695 53.2777 45.7947 53.2508 45.8846 53.2027C45.9745 53.1546 46.0522 53.0864 46.1116 53.0035C46.3251 53.4592 46.4722 53.9432 46.5484 54.4407C46.5894 54.7502 46.5714 55.0647 46.4954 55.3675C46.4304 55.6216 46.3182 55.8612 46.1646 56.0739C45.9915 56.297 45.7503 56.4575 45.4777 56.5312C45.2051 56.6049 44.9159 56.5877 44.6539 56.4822C44.184 56.3105 43.7514 56.0499 43.3801 55.7146C44.2353 55.0187 44.9812 54.1984 45.593 53.2811ZM42.6941 52.289C42.7094 52.2253 42.7285 52.1626 42.7513 52.1012C42.7309 52.1542 42.8942 51.8848 42.8615 51.9215C42.9064 51.8725 42.9514 51.8235 43.0003 51.7786L43.0861 51.7092C43.1394 51.67 43.1953 51.6345 43.2535 51.603L43.3719 51.55L43.5475 51.4969H43.5924H43.6455C43.8598 51.4691 44.0773 51.5152 44.262 51.6275C44.5101 51.7707 44.7136 51.9798 44.8499 52.2318C44.6066 52.6366 44.3337 53.0228 44.0333 53.3873C43.6604 53.0822 43.2279 52.8583 42.7635 52.7299C42.7635 52.7054 42.7635 52.6891 42.7635 52.7299C42.7429 52.6727 42.7265 52.614 42.7145 52.5544C42.7145 52.5544 42.7145 52.4319 42.7145 52.4278C42.7179 52.4103 42.7179 52.3923 42.7145 52.3747C42.7127 52.3452 42.7058 52.3162 42.6941 52.289ZM41.2447 54.5142C41.2554 54.4413 41.2819 54.3716 41.3223 54.31C41.3999 54.1778 41.5101 54.0675 41.6422 53.9896C41.7744 53.9117 41.9242 53.8688 42.0776 53.865C42.3355 54.1314 42.6596 54.3245 43.0167 54.4244C42.8289 54.5958 42.6329 54.7592 42.4287 54.9143C42.3426 54.868 42.2455 54.8458 42.1477 54.8501C42.05 54.8544 41.9552 54.8851 41.8735 54.9388C41.8389 54.9652 41.802 54.9884 41.7632 55.0082H41.6734C41.6734 55.0082 41.5713 54.9715 41.5468 54.9674C41.5083 54.9392 41.4673 54.9146 41.4243 54.8939C41.3937 54.8674 41.3651 54.8387 41.3386 54.8082C41.3276 54.787 41.3153 54.7666 41.3018 54.7469C41.3018 54.7265 41.3018 54.7061 41.3018 54.6897C41.3018 54.6734 41.3018 54.6081 41.3018 54.5918C41.3018 54.5754 41.3018 54.5632 41.3018 54.5632C41.2826 54.5437 41.2606 54.5272 41.2365 54.5142H41.2447ZM34.5691 30.8331L33.2339 33.7769C33.1507 33.9155 33.0163 34.0159 32.8597 34.0564C32.7031 34.0968 32.5369 34.0742 32.3969 33.9933C32.2592 33.9092 32.1593 33.7752 32.1182 33.6191C32.0771 33.4631 32.098 33.2972 32.1764 33.1563L33.5034 30.192C33.5871 30.0596 33.7175 29.9634 33.8687 29.9226C34.02 29.8817 34.181 29.8992 34.32 29.9716C34.4607 30.0538 34.5643 30.1871 34.6092 30.3438C34.6541 30.5005 34.6368 30.6684 34.5609 30.8126L34.5691 30.8331ZM31.8008 29.8899L30.2493 33.1154C30.2104 33.188 30.1574 33.2519 30.0932 33.3035C30.0291 33.3551 29.9553 33.3932 29.8761 33.4156C29.7969 33.438 29.714 33.4443 29.6324 33.4339C29.5507 33.4236 29.472 33.3969 29.4009 33.3554C29.3298 33.314 29.2678 33.2586 29.2186 33.1927C29.1694 33.1267 29.1339 33.0515 29.1144 32.9716C29.0949 32.8916 29.0917 32.8086 29.105 32.7274C29.1183 32.6461 29.1478 32.5684 29.1918 32.4989L30.7433 29.2693C30.8256 29.1291 30.9603 29.0273 31.1176 28.9863C31.275 28.9453 31.4421 28.9686 31.5824 29.0509C31.7226 29.1332 31.8244 29.2678 31.8654 29.4251C31.9063 29.5825 31.8831 29.7497 31.8008 29.8899ZM29.8165 25.5334C29.7961 25.453 29.7961 25.3688 29.8165 25.2884C29.8203 25.2083 29.8457 25.1307 29.89 25.0639C29.9725 24.9269 30.1038 24.8262 30.2575 24.7821L31.074 24.5576C31.234 24.5179 31.4031 24.5397 31.5477 24.6188C31.6835 24.7025 31.7838 24.8333 31.8294 24.9863C31.8519 25.0664 31.8519 25.1511 31.8294 25.2313C31.8249 25.3125 31.7996 25.3913 31.7559 25.4599C31.6738 25.5955 31.5443 25.6959 31.3925 25.7416L30.5759 25.9621C30.4161 26.0039 30.2463 25.9819 30.1023 25.9009C30.0292 25.8599 29.9654 25.8043 29.9148 25.7376C29.8643 25.6708 29.828 25.5944 29.8083 25.513L29.8165 25.5334ZM36.0512 29.0039C35.8893 29.0012 35.7346 28.9369 35.6184 28.8242L34.5119 27.6402C34.3999 27.5235 34.3358 27.3691 34.3322 27.2074C34.3314 27.1269 34.3469 27.047 34.3778 26.9726C34.4086 26.8982 34.4543 26.8309 34.5119 26.7746C34.6266 26.6597 34.7823 26.5951 34.9447 26.595C35.1069 26.596 35.2622 26.6605 35.3775 26.7746L36.484 27.9587C36.5967 28.0749 36.6609 28.2296 36.6636 28.3915C36.6642 28.472 36.6486 28.5518 36.6178 28.6261C36.5869 28.7005 36.5414 28.7678 36.484 28.8242C36.4245 28.8784 36.355 28.9204 36.2793 28.9477C36.2037 28.9751 36.1234 28.9872 36.043 28.9835L36.0512 29.0039Z" fill="#3F4254"/>
</svg>
