<svg width="200" height="156" viewBox="0 0 200 156" fill="none" xmlns="http://www.w3.org/2000/svg">
<path d="M39.4514 72.8156C28.8842 67.6777 20.1388 58.5317 16.4221 47.4179C12.7053 36.3041 14.345 23.2955 21.487 13.9672C28.629 4.63893 41.3097 -0.316723 52.715 2.48905C65.4685 5.65921 75.1247 17.4289 88.1697 19.0686C97.0243 20.1618 105.624 16.3722 114.369 14.5138C123.078 12.6554 133.827 13.6393 138.528 21.1821C142.864 28.1783 140.022 37.2151 137.07 44.9036C132.844 55.9445 128.434 67.2405 120.673 76.1315C114.187 83.565 105.624 88.9943 99.065 96.3549C94.9474 100.983 91.5951 106.376 86.4937 109.874C78.4772 115.339 67.9827 114.829 58.29 114.137C51.2938 113.627 44.2248 113.117 37.5565 110.894C30.8882 108.671 24.6208 104.554 21.2321 98.3955C15.2561 87.5004 19.8474 74.0545 24.4751 62.5399" fill="#303046"/>
<path d="M186.408 50.7337C185.68 47.6729 184.769 44.6121 183.056 41.952C179.85 36.9964 174.529 36.3041 169.246 34.8101C166.659 34.0813 164.946 34.0084 162.541 35.3202C158.642 37.4336 154.78 39.6199 151.209 42.2435C148.111 44.5392 145.233 47.2356 142.974 50.4058C142.791 50.26 142.573 50.1143 142.391 49.9321L142.172 50.0414C139.986 50.6609 137.726 51.3168 136.014 53.0658C134.301 54.8149 133.354 58.0215 134.52 60.3171C130.184 59.807 126.03 62.7585 123.042 66.5481C120.017 70.3377 117.831 74.9654 115.171 79.1194C113.713 81.4151 111.709 83.7836 109.304 83.6014C107.847 83.4921 106.571 82.4353 105.15 81.9252C103.875 81.4879 102.235 81.7794 101.616 83.0548C101.543 83.1641 101.47 83.237 101.397 83.3463C100.851 79.9211 97.9354 77.6619 95.1296 76.9696C92.2509 76.2772 89.2266 76.7145 86.3115 76.3865C78.9874 75.4756 72.7927 69.6818 67.0354 64.0703L66.4525 64.6533C66.0881 59.5519 65.6143 47.017 65.6143 47.017C69.5132 46.0332 77.3841 43.9562 77.3841 43.9562C72.7928 38.2717 67.8007 31.7128 62.6264 25.2631C60.9138 23.1133 58.6181 21.2185 55.9945 20.4897C55.9945 20.4897 52.3872 15.1332 46.9214 24.9717C45.2452 27.9961 44.0792 31.0569 43.2775 33.8262C41.3827 33.2796 39.1599 33.7534 37.7388 35.1745C35.844 37.0328 35.6254 40.3488 37.2287 42.4622C38.2489 43.774 39.8886 44.5392 41.5283 44.612C41.5283 44.6849 41.5283 44.7578 41.5283 44.7578C38.7226 51.3896 36.1719 56.8918 33.3297 62.6492L33.9492 61.3738C15.8027 78.4271 1.37312 102.659 0.498594 127.874C0.243523 134.98 1.91963 142.596 6.62021 147.223C10.7742 151.341 16.6044 152.507 22.1431 152.252C27.6818 151.997 33.111 150.466 38.6133 149.883C43.1316 149.41 47.6865 149.519 52.1685 150.248C55.3751 150.794 58.5817 151.632 61.8247 151.487C64.9584 151.377 68.238 150.175 70.2786 147.478C71.4081 147.114 72.5378 146.64 73.558 146.021C74.3232 145.583 75.052 145 75.7443 144.345C75.38 145.146 75.0155 145.948 74.6147 146.713C75.9994 146.75 77.384 146.859 78.8052 147.005C78.7687 147.66 78.6959 148.316 78.6594 148.972C84.3439 150.138 90.1376 150.976 95.9313 151.487C98.3727 152.507 100.705 153.709 102.964 155.058C103.401 154.037 103.802 153.017 104.239 151.997C106.17 152.142 108.102 152.47 109.669 153.564C110.361 150.94 111.053 148.316 111.636 145.656C112.766 140.227 113.349 134.761 113.604 129.223C114.624 126.781 115.608 124.34 116.628 121.898C120.163 120.587 123.625 118.91 126.358 116.761C132.552 111.878 137.362 105.537 141.771 99.0514C144.832 94.5694 147.966 89.8688 148.767 84.5123C149.132 82.1074 149.059 79.5931 150.043 77.3704C150.771 75.7671 152.01 74.4188 152.776 72.8155C154.743 68.6251 153.104 63.1593 155.909 59.5154L155.836 59.224C156.966 59.2968 158.059 59.3332 159.189 59.3332C163.197 59.2968 167.132 58.5316 171.104 58.1308C171.213 58.1308 171.323 58.0943 171.432 58.0943C172.015 58.0215 172.635 57.985 173.218 57.9486C173.363 58.2037 173.509 58.4952 173.655 58.7502C173.801 59.0053 174.019 59.2604 174.274 59.2604C174.639 59.2239 174.821 58.7138 174.857 58.2765C174.857 58.1672 174.894 58.0215 174.894 57.9121C175.185 57.9121 175.477 57.9121 175.732 57.8757C175.951 58.4223 176.278 58.9689 176.789 58.896C177.262 58.8231 177.481 58.313 177.59 57.7299C177.918 57.6935 178.246 57.6571 178.574 57.5842C179.011 58.2401 179.631 58.7138 180.287 58.4223C180.87 58.1308 181.088 57.3656 181.161 56.6368C181.598 56.3453 181.926 55.9809 182.145 55.5072C182.51 54.5962 182.072 53.5395 181.343 52.8472C181.343 52.3735 181.38 51.8634 181.38 51.3897C181.416 50.588 181.416 49.8228 181.416 49.0211C182.145 49.9685 182.91 50.8795 183.712 51.7905C184.331 52.5192 185.388 53.248 186.117 52.665C186.663 52.2642 186.591 51.4261 186.408 50.7337ZM168.481 46.6891C168.517 46.2518 168.626 45.7781 168.772 45.3408C169.173 46.9077 170.193 48.2923 171.578 48.8025C171.505 49.677 171.469 50.5516 171.505 51.4261C170.886 51.3896 170.266 51.3168 169.72 51.0617C168.153 50.3694 168.335 48.1466 168.481 46.6891Z" fill="white"/>
<path d="M158.606 118.874H136.888C136.597 118.874 136.342 118.619 136.342 118.327C136.342 118.036 136.597 117.781 136.888 117.781H158.059V100.472C158.059 100.181 158.314 99.9258 158.606 99.9258H173.8V85.1682C173.8 84.8767 174.055 84.6216 174.347 84.6216H199.453C199.745 84.6216 200 84.8767 200 85.1682C200 85.4597 199.745 85.7147 199.453 85.7147H174.894V100.472C174.894 100.764 174.638 101.019 174.347 101.019H159.152V118.327C159.152 118.619 158.897 118.874 158.606 118.874Z" fill="white"/>
<path d="M94.5467 2.19771C93.9272 1.68757 93.3078 1.21387 92.5426 0.922363C91.6681 0.594415 90.6113 0.59438 89.8097 1.06808C89.6639 0.922327 89.4454 0.885898 89.2268 1.03165C87.2591 2.12481 86.0929 4.42045 86.1658 6.64321C86.2387 9.01172 87.7328 10.9794 89.9191 11.8539C92.069 12.7285 94.6926 12.3641 96.3323 10.6515C97.2069 9.74049 97.7899 8.538 97.7534 7.26265C97.717 5.95086 97.061 4.78482 96.1864 3.80098C95.7127 3.18152 95.1297 2.67142 94.5467 2.19771ZM95.7128 9.66763C93.1257 12.5827 87.8056 10.9429 87.2955 7.08045C87.0768 5.40428 87.7328 3.61879 89.0081 2.4892C89.2268 2.78071 89.7005 2.89002 89.9191 2.4892C90.3928 1.57823 91.5952 1.6147 92.4333 2.01552C93.4172 2.48922 94.3281 3.32729 95.1298 4.12894C95.8585 4.89415 96.5509 5.80511 96.6603 6.86183C96.806 7.88211 96.3687 8.93886 95.7128 9.66763ZM94.2188 5.1128C93.7815 6.20596 93.3442 7.29912 92.907 8.39228C92.8341 8.57447 92.7248 8.72023 92.5426 8.75667C92.3604 8.79311 92.1418 8.75666 91.996 8.6109C91.2672 7.73638 90.5022 6.86183 89.7734 5.95087C89.5912 5.73223 89.5548 5.4043 89.7734 5.18566C89.992 4.96703 90.3198 5.00347 90.5385 5.18566C90.7207 5.33142 90.8665 5.44073 91.0487 5.58648C91.1581 5.6958 91.2309 5.84154 91.1945 5.9873C91.5224 6.38812 91.8503 6.78896 92.2147 7.18979C92.5426 6.38814 92.8706 5.5865 93.1621 4.78485C93.2714 4.49334 93.5264 4.34758 93.8179 4.42046C94.073 4.49334 94.2917 4.85773 94.2188 5.1128ZM124.062 1.03165C121.293 -0.535209 118.123 0.52152 115.353 1.5418C114.697 1.79687 114.989 2.8536 115.645 2.59853C115.681 2.59853 115.754 2.5621 115.791 2.5621C114.406 4.01965 114.078 6.27882 114.88 8.10075C115.827 10.2142 118.268 11.4896 120.528 11.3074C122.896 11.0887 125.046 9.449 125.993 7.29912C126.503 6.09665 126.722 4.71198 126.248 3.47307C125.811 2.41635 125.009 1.57823 124.062 1.03165ZM125.301 5.91444C124.827 7.88212 123.224 9.55831 121.293 10.0684C119.471 10.5422 117.357 9.88624 116.264 8.31938C115.062 6.6432 115.39 4.2018 116.993 2.89001C117.321 2.63494 117.175 2.27057 116.92 2.08838C118.706 1.46892 120.6 0.958793 122.459 1.50537C124.426 2.12483 125.775 3.801 125.301 5.91444ZM123.916 4.12894C122.641 5.25853 121.694 6.71607 121.22 8.35581C121.111 8.68375 120.71 8.86596 120.418 8.68376C119.179 7.88211 118.195 6.78897 117.54 5.51362C117.212 4.89416 118.159 4.34758 118.487 4.96704C118.961 5.87801 119.616 6.7161 120.418 7.33555C121.001 5.80513 121.912 4.42045 123.151 3.36373C123.661 2.89003 124.426 3.65523 123.916 4.12894ZM112.73 7.04402C108.284 7.04402 103.875 7.08045 99.4296 7.08045C98.7373 7.08045 98.7373 5.9873 99.4296 5.9873C103.875 5.9873 108.284 5.95087 112.73 5.95087C113.422 5.95087 113.422 7.04402 112.73 7.04402ZM144.322 6.75254C139.585 7.18981 134.812 7.26267 130.038 6.97117C129.346 6.93473 129.346 5.84157 130.038 5.87801C134.812 6.16952 139.585 6.09665 144.322 5.65938C145.014 5.58651 145.014 6.67967 144.322 6.75254ZM158.97 7.80923C157.95 9.88623 155.253 10.36 153.213 10.032C150.917 9.66763 148.767 8.10075 148.403 5.73224C148.039 3.54593 149.569 1.32316 151.828 1.21385C152.521 1.17741 152.521 2.27057 151.828 2.307C150.917 2.37988 150.116 2.99933 149.715 3.80098C149.278 4.67551 149.387 5.76868 149.824 6.64321C150.735 8.39226 152.739 9.08459 154.598 9.04815C156.201 9.01171 158.096 8.21005 158.242 6.35168C158.351 4.56619 157.075 2.92648 155.618 2.05195C154.124 1.14099 152.338 0.849486 150.662 1.28675C149.97 1.46894 149.678 0.412213 150.371 0.23002C152.776 -0.389436 155.363 0.26645 157.221 1.90619C158.861 3.29086 159.991 5.73223 158.97 7.80923Z" fill="white"/>
<path d="M102.199 118.073C102.454 119.384 103.51 120.405 104.749 120.805C103.948 121.279 103.292 122.117 102.782 122.846C102.162 123.757 101.725 124.777 101.47 125.834C101.033 126.089 100.887 126.636 101.178 127.109C101.579 127.765 102.563 127.692 103.219 127.729C104.895 127.838 106.571 127.984 108.247 128.093C108.539 128.13 108.794 127.838 108.794 127.547C108.83 126.381 108.721 125.178 108.503 124.012C108.32 123.065 108.102 122.044 107.482 121.243C107.336 121.024 107.118 120.878 106.936 120.769C107.956 120.405 108.831 119.567 109.231 118.51C109.778 117.016 109.158 115.267 107.92 114.356C106.498 113.299 104.312 113.591 103.146 114.902C103.037 115.012 103 115.121 103 115.23C102.308 115.996 102.016 117.125 102.199 118.073ZM107.336 123.721C107.592 124.777 107.701 125.87 107.701 127C106.717 126.927 105.733 126.854 104.749 126.781C104.203 126.745 103.62 126.709 103.073 126.672C102.855 126.672 102.599 126.636 102.381 126.636C102.417 126.599 102.454 126.526 102.454 126.453C102.709 125.36 103.146 124.304 103.802 123.393C104.094 122.955 104.458 122.555 104.822 122.19C105.15 121.899 105.587 121.571 106.061 121.68C106.899 121.789 107.191 123.028 107.336 123.721ZM104.421 115.704C104.749 115.631 104.859 115.34 104.786 115.085C105.405 114.793 106.17 114.757 106.826 115.048C107.847 115.485 108.466 116.688 108.284 117.745C108.138 118.838 107.118 119.749 106.061 119.858C104.968 120.004 103.838 119.275 103.401 118.291C103 117.38 103.328 115.959 104.421 115.704ZM109.778 134.834C109.814 135.636 109.013 136.146 108.284 136.11C107.847 136.11 107.409 135.891 106.972 135.855C106.535 135.818 106.061 136.073 105.624 136.11C104.64 136.219 103.802 135.745 102.891 135.49C102.308 135.308 101.543 135.199 101.105 135.745C100.668 136.292 99.9031 135.527 100.34 134.98C101.361 133.705 103.073 134.434 104.312 134.834C104.749 134.98 105.187 135.089 105.624 135.017C106.061 134.944 106.462 134.761 106.899 134.761C107.154 134.761 108.685 135.272 108.685 134.834C108.648 134.142 109.742 134.142 109.778 134.834ZM95.9313 126.927C96.2592 122.299 96.6235 117.635 96.9515 113.008C96.9515 112.753 97.0972 112.607 97.2794 112.534C97.2794 112.242 97.5345 111.987 97.826 111.987C99.2835 111.914 100.741 111.842 102.162 111.769C102.454 111.769 102.709 112.024 102.709 112.315C102.709 112.607 102.454 112.862 102.162 112.862C100.778 112.935 99.3928 113.008 98.0082 113.044C97.6802 117.672 97.3159 122.299 96.988 126.927C96.988 127.619 95.8948 127.619 95.9313 126.927ZM100.122 130.717C99.5023 130.462 98.8099 130.644 98.409 131.118C97.9353 131.664 97.1701 130.863 97.6438 130.352C98.1539 129.769 98.9556 129.441 99.7208 129.514C100.595 129.587 101.142 130.097 101.761 130.68C102.527 131.409 103.693 131.081 104.64 131.008C105.733 130.935 106.863 130.826 107.956 130.753C108.648 130.717 108.648 131.81 107.956 131.846C106.899 131.919 105.879 131.992 104.822 132.101C103.948 132.174 102.927 132.393 102.053 132.138C101.652 132.029 101.324 131.773 100.996 131.482C100.741 131.19 100.486 130.899 100.122 130.717ZM54.3183 27.0853C54.3183 27.3768 54.0632 27.6319 53.7717 27.6319C53.6988 27.6319 53.6259 27.6319 53.5895 27.6319C53.5531 27.6319 53.5167 27.6319 53.4803 27.6319H53.4438C53.4074 27.6319 53.4073 27.6319 53.3708 27.6319C53.298 27.6319 53.2615 27.6683 53.1887 27.6683C53.0793 27.7048 52.9701 27.7412 52.8607 27.7777C52.8243 27.7777 52.8244 27.7777 52.788 27.8141C52.7515 27.8505 52.6785 27.8506 52.6421 27.887C52.5328 27.9599 52.4235 27.9963 52.3142 28.0692C52.2777 28.0692 52.2778 28.1056 52.2414 28.1056L52.2049 28.1421C52.1685 28.1785 52.1684 28.1785 52.132 28.2149C52.0591 28.2878 51.9499 28.3607 51.877 28.47C51.8406 28.5065 51.804 28.5429 51.7676 28.5793C51.7676 28.6157 51.7311 28.6158 51.7311 28.6522C51.5489 28.9073 51.2575 28.9802 50.966 28.8344C50.711 28.6886 50.6017 28.3243 50.7838 28.0692C51.4762 27.0854 52.6057 26.4659 53.8082 26.4659C54.0997 26.5388 54.3183 26.7938 54.3183 27.0853ZM58.5087 80.3951C58.5452 80.2857 58.5452 80.3586 58.5087 80.3951V80.3951ZM58.1079 80.9052C58.0714 80.9416 58.035 80.9781 58.1079 80.9052V80.9052ZM58.4723 79.3748C58.5087 79.4112 58.5087 79.4476 58.4723 79.3748V79.3748ZM57.6707 81.1238C57.6343 81.1238 57.5978 81.1238 57.6707 81.1238V81.1238ZM56.614 80.0671C56.614 80.0307 56.614 80.0307 56.614 79.9942C56.614 79.9942 56.614 80.0307 56.614 80.0671ZM57.4156 81.1238C57.4156 81.1238 57.4521 81.1238 57.4885 81.1238C57.4521 81.1238 57.4521 81.1238 57.525 81.1238H57.4885C57.525 81.1238 57.5248 81.1238 57.5613 81.1238C57.5613 81.1238 57.5614 81.1238 57.525 81.1238C57.5979 81.1238 57.6706 81.1238 57.7435 81.1238H57.7072H57.7435C57.7799 81.1238 57.78 81.1238 57.8164 81.0874C57.8529 81.0874 57.8894 81.0509 57.8894 81.0509C57.9623 81.0145 57.9987 80.9781 58.0716 80.9416C58.108 80.9052 58.1444 80.9052 58.1808 80.8687C58.1808 80.8687 58.1808 80.8687 58.1443 80.8687C58.1808 80.8323 58.2172 80.7959 58.2901 80.723C58.3265 80.6866 58.3266 80.6501 58.363 80.6501C58.4359 80.5408 58.5088 80.4315 58.5452 80.3222C58.5452 80.3222 58.5452 80.3222 58.5452 80.3586C58.5452 80.3222 58.5817 80.2857 58.5817 80.2857C58.6181 80.2128 58.6181 80.1764 58.6181 80.1035C58.6181 80.0306 58.6544 79.9942 58.6544 79.9213C58.618 80.1035 58.6544 79.9213 58.6544 79.8485C58.6544 79.812 58.6544 79.7756 58.6544 79.7391C58.6544 79.7391 58.6544 79.7027 58.6544 79.6663C58.6544 79.6663 58.6544 79.6663 58.6544 79.6299C58.6544 79.6299 58.6544 79.6298 58.6544 79.6663C58.6544 79.6298 58.6544 79.6298 58.6544 79.5934C58.6544 79.5569 58.6546 79.557 58.6181 79.5205V79.4841C58.5817 79.4476 58.5817 79.4112 58.5817 79.4477C58.5817 79.4112 58.5452 79.3748 58.5452 79.3383C58.5452 79.3019 58.5087 79.3019 58.5087 79.2655V79.3019C58.4723 79.2655 58.4359 79.229 58.3995 79.1926C58.363 79.1926 58.363 79.1561 58.3265 79.1561C58.2901 79.1561 58.2902 79.1197 58.2538 79.1197C58.2173 79.1197 58.1807 79.0833 58.1079 79.0833C58.035 79.0833 57.8894 79.0833 58.0716 79.0833C57.9623 79.0833 57.8528 79.0833 57.7435 79.0833C57.707 79.0833 57.6707 79.0833 57.6707 79.0833C57.5978 79.0833 57.5614 79.1197 57.4885 79.1197C57.4521 79.1197 57.4155 79.1561 57.3791 79.1561C57.3427 79.1926 57.3063 79.1926 57.2698 79.229C57.2334 79.2654 57.1606 79.3019 57.1241 79.3383C57.0877 79.3383 57.0876 79.3748 57.0512 79.3748C56.9783 79.4476 56.9054 79.5205 56.8325 79.5934C56.8325 79.6298 56.7962 79.6298 56.7962 79.6663C56.7598 79.7027 56.7597 79.7756 56.7233 79.812V79.8485C56.7233 79.8849 56.7233 79.8849 56.7233 79.9213C56.7233 79.9213 56.7233 79.9578 56.7233 79.9942V80.0307C56.7233 80.0307 56.7233 80.0307 56.7233 79.9942C56.7233 80.0307 56.7233 80.0671 56.7233 80.0671C56.7233 80.1035 56.7233 80.14 56.7233 80.14C56.7233 80.1764 56.7233 80.1764 56.7233 80.1764C56.7597 80.4679 56.6139 80.723 56.3224 80.7959C56.0673 80.8687 55.703 80.6866 55.6666 80.4315C55.5937 79.9942 55.6301 79.5934 55.8488 79.1926C56.031 78.8646 56.2861 78.5731 56.614 78.3545C57.1606 77.9901 57.8528 77.8079 58.5087 77.9901C59.2739 78.1723 59.7477 78.8282 59.857 79.5934C60.0028 80.978 58.6545 82.4356 57.2334 82.0712C56.9419 81.9983 56.7961 81.6704 56.869 81.4153C56.7961 81.1967 57.1241 81.0509 57.4156 81.1238ZM58.6181 79.7391C58.6181 79.7756 58.6181 79.7756 58.6181 79.812C58.6181 79.812 58.6181 79.812 58.6181 79.7391ZM56.3224 32.4054C56.4317 32.6969 56.3953 32.9884 56.1402 33.1706C55.9216 33.3164 55.5207 33.2435 55.375 32.9884C55.0106 32.1503 54.6099 31.3122 54.2455 30.4741C54.1362 30.1826 54.1726 29.8911 54.4277 29.7089C54.6463 29.5632 55.047 29.6361 55.1928 29.8911C55.5572 30.6928 55.958 31.5673 56.3224 32.4054ZM58.0351 32.6605C57.9622 32.1139 57.8164 31.6037 57.6342 31.0936C57.5978 30.9843 57.525 30.8385 57.4885 30.7292C57.4885 30.6928 57.452 30.6563 57.452 30.6563C57.4156 30.5835 57.3792 30.5106 57.3428 30.4377C57.2335 30.1826 57.0877 29.9276 56.9419 29.7089C56.7962 29.4539 56.9055 29.1259 57.1241 28.9437C57.3792 28.7979 57.7436 28.9073 57.8894 29.1259C58.4724 30.1097 58.8731 31.2393 59.0553 32.3689C59.0917 32.6604 58.9824 32.952 58.6909 33.0248C58.4358 33.1342 58.0715 32.952 58.0351 32.6605ZM56.9784 26.1379C56.7233 26.3201 56.3954 26.1744 56.2132 25.9557C56.031 25.7007 56.1767 25.3727 56.3954 25.1905C57.4156 24.5346 58.8002 24.3525 59.9298 24.7897C60.2213 24.899 60.3671 25.1541 60.2942 25.4456C60.2213 25.7007 59.8934 25.9193 59.6384 25.81C59.529 25.7735 59.3833 25.7371 59.274 25.7007C59.2011 25.7007 59.1282 25.6642 59.0918 25.6642C59.0553 25.6642 59.0188 25.6642 59.0188 25.6642C58.7638 25.6278 58.5088 25.6278 58.2538 25.6642H58.2173C58.1809 25.6642 58.1808 25.6642 58.1443 25.6642C58.0715 25.6642 57.9986 25.7007 57.9621 25.7007C57.8528 25.7371 57.7436 25.7735 57.6342 25.81C57.5978 25.81 57.525 25.8464 57.4885 25.8829C57.4885 25.8829 57.3792 25.9193 57.3428 25.9557C57.197 25.9922 57.0877 26.0651 56.9784 26.1379ZM45.573 39.183C45.7552 39.4016 45.7916 39.7296 45.573 39.9482C45.3908 40.1304 44.99 40.1668 44.8078 39.9482C43.6782 38.5271 41.9292 37.689 40.1072 37.7254C39.4149 37.7254 39.4149 36.6323 40.1072 36.6323C42.1842 36.5958 44.2248 37.5432 45.573 39.183ZM186.882 50.2968C186.7 49.6044 186.554 48.9121 186.336 48.2562C185.971 47.0173 185.57 45.7783 185.06 44.5759C184.076 42.3167 182.764 40.2033 180.797 38.6728C179.084 37.3246 177.08 36.4865 175.003 35.8306C173.983 35.5027 172.963 35.2476 171.906 34.9561C170.776 34.6646 169.61 34.3366 168.481 34.0451C167.351 33.79 166.185 33.6443 165.055 33.8265C163.78 34.0087 162.65 34.6281 161.521 35.2476C159.079 36.5958 156.638 37.944 154.306 39.438C150.006 42.2074 145.961 45.4869 142.901 49.6044C142.864 49.568 142.828 49.568 142.791 49.5315C142.609 49.3858 142.354 49.3129 142.135 49.4587C141.662 49.7502 140.969 49.823 140.423 50.0052C139.731 50.2239 139.075 50.4789 138.419 50.7704C137.18 51.3535 136.014 52.1551 135.176 53.2483C133.791 55.0338 133.099 57.548 133.754 59.7343C131.094 59.6979 128.58 60.8275 126.467 62.3944C123.88 64.3621 121.912 66.9128 120.199 69.6457C118.377 72.4879 116.847 75.4394 115.062 78.318C113.677 80.5408 111.49 83.966 108.43 82.8729C106.936 82.3263 105.624 81.1967 103.984 81.2331C103.11 81.2696 102.308 81.5611 101.725 82.1441C101.106 80.2857 99.7937 78.7189 98.0811 77.6622C95.6397 76.1317 92.7974 76.0589 89.9917 76.0589C88.4612 76.0589 86.9308 76.0224 85.4368 75.7673C84.1615 75.5123 82.8862 75.1479 81.6837 74.6377C79.133 73.581 76.8009 72.0141 74.6874 70.3015C72.1367 68.2974 69.8047 66.0382 67.4727 63.7791C67.3269 63.6333 67.1448 63.5968 66.9626 63.6333C66.6346 58.6776 66.4525 53.6855 66.2703 48.7299C66.2703 48.3291 66.2338 47.9282 66.2338 47.5274C69.659 46.6529 73.1206 45.7419 76.5458 44.8674C76.8738 44.7945 77.2383 44.6852 77.5662 44.6123C78.0035 44.503 78.0398 43.9928 77.8212 43.7013C75.1247 40.349 72.5012 36.9966 69.8412 33.6079C68.4201 31.8224 67.0354 30.0369 65.6143 28.2514C64.3025 26.6117 63.0637 24.8262 61.5332 23.3686C60.5494 22.4212 59.4925 21.6196 58.2901 20.9637C59.0917 20.7815 59.9662 20.4899 60.8408 19.9798C63.1728 18.5951 65.5779 12.8378 62.6264 8.82959C57.4157 16.1538 52.715 10.7973 45.2086 14.3682C39.4149 17.1011 39.6336 27.887 42.1478 33.1706C40.3988 33.0613 38.6132 33.6443 37.3743 34.8832C35.2973 36.9602 35.0423 40.5312 36.8277 42.8633C37.7752 44.1386 39.2691 44.9038 40.836 45.1589C38.7226 50.2238 36.4998 55.2524 34.0949 60.1716C34.022 60.3174 34.0219 60.4267 34.0584 60.536C13.5434 79.8849 0.826389 105.064 0.0247388 127.911C-0.26677 136.255 2.02897 143.434 6.32873 147.697C10.592 151.924 16.3128 152.908 20.8312 152.908C21.3414 152.908 21.815 152.908 22.2523 152.871C25.4953 152.726 28.7383 152.143 31.8721 151.56C34.1313 151.159 36.4633 150.722 38.7954 150.467C43.2774 149.993 47.7594 150.102 52.2049 150.831C52.9701 150.977 53.7717 151.122 54.537 151.268C56.9419 151.742 59.4561 152.216 61.9704 152.106C65.6507 151.96 68.7844 150.467 70.7157 148.025C72.0275 147.588 73.2664 147.041 74.396 146.276C74.3596 146.349 74.3232 146.458 74.2868 146.531C74.1046 146.896 74.3231 147.333 74.7604 147.369C75.9629 147.406 77.1653 147.515 78.3313 147.624C78.2949 148.098 78.2585 148.608 78.2221 149.082C78.2221 149.3 78.4043 149.556 78.6229 149.592C82.8134 150.43 87.0037 151.122 91.267 151.633C92.7974 151.815 94.3279 151.96 95.8583 152.07C96.2591 152.252 96.6601 152.398 97.0609 152.58C99.0286 153.491 100.923 154.475 102.782 155.604C103.11 155.787 103.438 155.604 103.583 155.276C103.948 154.402 104.312 153.527 104.677 152.653C106.353 152.799 108.029 153.163 109.486 154.11C109.778 154.293 110.215 154.11 110.288 153.782C111.017 150.977 111.782 148.207 112.365 145.365C112.948 142.559 113.349 139.717 113.677 136.875C113.932 134.397 114.114 131.883 114.26 129.405C115.207 127.109 116.118 124.85 117.066 122.555C118.341 119.457 119.616 116.396 120.892 113.299C121.001 113.044 120.782 112.68 120.527 112.643C118.487 112.352 116.41 112.024 114.369 111.659C114.369 111.076 114.333 110.53 114.333 109.947C114.333 109.619 114.078 109.437 113.786 109.4C108.138 108.926 102.49 108.562 96.8422 108.453C95.5304 108.198 94.2185 107.979 92.9068 107.76C90.3196 107.323 87.6961 106.886 85.1089 106.522C84.8174 106.303 84.2344 106.412 84.198 106.922C84.1615 107.505 84.1616 108.052 84.1252 108.635C83.9066 108.635 83.6513 108.635 83.4327 108.671C82.9954 108.708 82.8133 109.145 82.9591 109.473C82.9226 109.546 82.8861 109.619 82.8861 109.692C82.6675 110.967 82.4854 112.242 82.2668 113.518C80.6635 113.408 79.0601 113.445 77.6025 114.137C76.0721 114.83 74.6875 115.85 73.485 117.052C72.2461 118.291 71.2258 119.749 70.3878 121.279C69.7683 122.482 69.1124 123.648 68.3836 124.777C68.2743 124.959 68.165 125.105 68.0557 125.287C67.0719 120.623 63.8288 118.401 61.2781 117.927C59.6748 117.635 58.0715 117.781 56.5411 117.927C55.1928 118.036 53.8811 118.145 52.6058 118C50.966 117.818 49.4355 117.198 47.7593 116.542C46.6297 116.105 45.4274 115.631 44.2249 115.303C42.6216 114.902 40.6174 114.72 38.6862 115.485C38.6497 115.376 38.6496 115.303 38.6132 115.194C38.2488 114.028 37.7022 113.117 37.1557 112.242C36.9735 111.951 36.8277 111.696 36.6456 111.404C35.8439 109.983 35.443 108.671 35.5159 107.36C35.6252 105.319 36.682 103.862 37.7387 102.404L37.9209 102.185C38.6497 101.165 40.3259 98.5051 39.7793 95.845L38.7226 96.0637C39.1963 98.3229 37.7023 100.655 37.0464 101.566L36.8642 101.785C35.7711 103.278 34.5686 104.955 34.4592 107.323C34.3864 108.854 34.7872 110.384 35.7346 111.987C35.9168 112.279 36.0989 112.57 36.2447 112.862C36.7548 113.7 37.265 114.502 37.593 115.558C37.6294 115.704 37.6658 115.85 37.7022 115.996C36.8642 116.469 36.0262 117.162 35.2974 118.145L35.2245 118.255L35.188 118.401C35.0058 119.676 35.6618 120.66 36.3906 120.951C37.0465 121.206 37.7388 120.988 38.176 120.368C38.8319 119.421 39.0141 117.963 38.8683 116.615C40.3259 115.996 42.0385 115.923 43.9333 116.396C45.0629 116.688 46.229 117.162 47.3222 117.599C48.9619 118.255 50.6745 118.911 52.4236 119.129C53.8083 119.311 55.2293 119.166 56.5776 119.056C58.108 118.911 59.5654 118.801 61.023 119.056C63.355 119.494 66.3066 121.607 67.0353 126.162C66.343 127.583 61.9705 137.494 69.8776 147.296C68.165 149.592 65.2499 150.94 61.8612 151.086C59.4562 151.195 57.0147 150.722 54.6827 150.284C53.9175 150.139 53.1158 149.993 52.3142 149.847C47.7958 149.082 43.168 148.973 38.6132 149.446C36.2811 149.701 33.9127 150.139 31.6171 150.539C28.5198 151.086 25.3132 151.669 22.1431 151.815C17.6975 152.033 11.4665 151.341 7.02103 146.932C2.9399 142.924 0.790057 136 1.04513 127.984C1.81034 105.355 14.4545 80.3951 34.8601 61.2283C37.3379 65.1273 41.1276 68.1517 45.4638 69.7914C50.055 71.504 55.2293 71.4676 59.857 69.7914C62.517 68.844 64.9583 67.3865 67.0353 65.4552C67.1446 65.3459 67.2175 65.2366 67.2175 65.1273C71.0071 68.8076 74.9426 72.5607 79.6796 74.9657C82.0845 76.2046 84.6717 77.0063 87.3682 77.152C90.2833 77.3342 93.4169 76.8969 96.2227 78.0265C98.5548 78.9739 100.34 80.9052 100.887 83.3466C99.976 84.7312 99.4657 86.371 99.5022 88.0836C99.5386 88.7759 100.632 88.7759 100.595 88.0836C100.559 86.6989 100.923 85.3507 101.616 84.1847C101.798 84.1482 101.944 84.0025 102.016 83.8203C102.308 82.6907 103.438 82.2534 104.494 82.4356C105.915 82.6542 107.045 83.711 108.43 84.1118C111.381 84.9863 113.677 82.4356 115.207 80.2493C118.815 75.0021 121.147 68.7347 125.957 64.3621C128.325 62.2486 131.313 60.6089 134.556 60.9733C134.993 61.0097 135.176 60.4996 135.03 60.1352C134.046 58.0582 134.775 55.3617 136.269 53.722C137.107 52.7746 138.2 52.1187 139.366 51.645C139.949 51.3899 140.532 51.2077 141.115 51.0255C141.516 50.9162 141.953 50.8069 142.354 50.6611C146.399 53.9406 150.771 56.8557 155.363 59.3335C155.363 59.4064 155.399 59.4793 155.399 59.5157C153.14 62.6859 153.796 66.8399 153.067 70.4837C152.885 71.4311 152.557 72.3785 152.083 73.2166C151.537 74.2005 150.844 75.075 150.261 76.0589C149.022 78.063 148.767 80.2493 148.549 82.5449C148.33 84.7677 147.893 86.9175 147.091 89.031C146.253 91.1444 145.123 93.1486 143.921 95.0434C141.589 98.7601 139.075 102.404 136.415 105.939C133.463 109.874 130.147 113.591 126.139 116.433C125.556 116.834 126.102 117.781 126.685 117.38C131.24 114.137 134.848 109.91 138.127 105.428C139.767 103.169 141.37 100.837 142.937 98.5415C144.54 96.173 146.107 93.768 147.31 91.1809C148.549 88.5937 149.277 85.8973 149.569 83.055C149.715 81.5975 149.824 80.14 150.225 78.7189C150.626 77.3342 151.464 76.1682 152.265 75.0021C152.994 73.909 153.577 72.7794 153.905 71.5405C154.233 70.338 154.379 69.0991 154.452 67.8602C154.634 65.4916 154.634 62.9045 155.836 60.7911C155.982 60.4995 156.237 60.2445 156.346 59.953C159.006 60.0988 161.63 59.9894 164.254 59.6979C166.877 59.4064 169.464 58.9691 172.088 58.7505C172.38 58.7141 172.635 58.7141 172.926 58.7141C173.035 58.9327 173.181 59.1513 173.327 59.3699C173.618 59.7708 174.056 60.0988 174.566 59.953C175.039 59.8072 175.295 59.2971 175.404 58.8234C175.404 58.7505 175.44 58.714 175.44 58.6412H175.477C175.55 58.7869 175.659 58.9327 175.768 59.0785C176.315 59.7708 177.299 59.8072 177.845 59.0785C177.991 58.8963 178.064 58.6776 178.137 58.459C178.647 58.3861 179.157 58.2768 179.667 58.1311C180.687 57.8396 181.781 57.3658 182.4 56.4549C183.02 55.5803 182.983 54.4872 182.473 53.5762C182.327 53.2847 182.145 53.0661 181.926 52.8475C181.963 52.1551 181.999 51.4628 181.999 50.7704C182.036 50.8069 182.072 50.8798 182.109 50.9162C182.874 51.8272 183.675 53.0296 184.842 53.4669C185.935 53.8677 186.955 53.1754 187.064 52.0094C187.137 51.3535 186.991 50.8069 186.882 50.2968ZM119.507 113.591C117.758 117.818 116.045 122.044 114.296 126.271C114.369 124.085 114.369 121.862 114.369 119.676C114.369 117.38 114.333 115.085 114.296 112.789C116.009 113.081 117.758 113.336 119.507 113.591ZM37.1921 119.676C36.9735 120.004 36.7549 119.895 36.682 119.895C36.3541 119.749 36.0626 119.312 36.1355 118.656C36.6092 118.036 37.1557 117.562 37.7387 117.162C37.7752 118.109 37.6294 119.056 37.1921 119.676ZM78.3678 146.495C77.4204 146.422 76.473 146.312 75.5256 146.276C75.7807 145.766 75.9993 145.256 76.2179 144.746C77.2747 143.762 78.1856 142.596 78.7686 141.284C78.6229 143.033 78.4771 144.746 78.3678 146.495ZM102.745 154.329C101.506 153.6 100.195 152.908 98.8828 152.252C100.413 152.361 101.944 152.434 103.474 152.544C103.219 153.127 103 153.746 102.745 154.329ZM85.1454 107.651C86.858 107.906 88.5706 108.161 90.2468 108.453C90.2104 108.453 90.1375 108.453 90.1011 108.453C88.4249 108.489 86.7487 108.526 85.1089 108.599C85.1089 108.271 85.1454 107.943 85.1454 107.651ZM83.7971 109.983C83.7971 109.91 83.7971 109.837 83.7971 109.765C91.4856 109.4 99.2106 109.509 106.936 110.02C109.013 110.165 111.09 110.311 113.167 110.493C113.385 121.68 113.568 133.012 111.454 144.053C110.908 147.005 110.142 149.92 109.377 152.799C107.992 152.033 106.426 151.742 104.895 151.56C102.928 151.377 100.923 151.341 98.9556 151.195C94.6558 150.904 90.3562 150.43 86.0928 149.774C83.8336 149.41 81.5744 149.009 79.3517 148.572C79.5703 145.402 79.8617 142.195 80.1532 139.025C81.7201 139.353 83.2871 139.535 84.854 139.426C85.9471 139.353 88.5706 139.061 87.9875 137.312C87.8053 136.729 87.3316 136.292 86.8944 135.891C86.2749 135.344 85.6191 134.907 84.9267 134.47C84.7081 134.324 84.4896 134.215 84.3074 134.106C84.9997 134.361 85.6555 134.616 86.3478 134.907C87.5138 135.381 88.7163 136.146 90.0281 136.183C91.1213 136.219 92.2146 135.6 92.5061 134.506C92.7976 133.34 92.1052 132.32 91.34 131.518C91.8501 131.409 92.3238 131.227 92.761 130.826C94.838 128.931 91.9229 126.636 90.5382 125.433C88.7527 123.976 86.7852 122.737 84.6718 121.789C83.7972 121.388 82.8862 121.061 82.0116 120.769C82.704 120.004 83.7608 119.676 84.854 119.676C86.7852 119.676 88.5706 120.66 90.429 121.133C91.923 121.534 94.0001 121.68 94.8746 120.15C95.7856 118.583 94.6558 116.724 93.2711 115.923C92.4331 115.449 91.4856 115.157 90.5382 114.902C89.5544 114.611 88.5342 114.392 87.5139 114.21C86.1292 113.955 84.7446 113.736 83.3235 113.591C83.4328 112.388 83.6149 111.186 83.7971 109.983ZM86.8944 137.822C86.8944 137.859 86.8944 137.859 86.8944 137.822V137.822ZM86.9309 137.749C86.9309 137.713 86.9309 137.713 86.9309 137.749V137.749ZM67.2175 128.494C67.3997 128.239 67.5821 127.947 67.7278 127.692C68.5295 126.453 69.3311 125.178 70.0963 123.903C70.7887 122.7 71.3715 121.425 72.1367 120.259C73.0477 118.874 74.1774 117.599 75.5256 116.579C76.6917 115.704 78.0399 114.83 79.4974 114.647C81.1007 114.429 82.7404 114.647 84.3437 114.866C86.202 115.121 88.024 115.413 89.8095 115.923C91.3399 116.324 93.6721 116.834 93.9636 118.692C94.2551 120.66 91.7772 120.441 90.5747 120.113C88.7528 119.639 87.0037 118.728 85.1089 118.619C83.6514 118.546 82.0482 118.911 81.0279 120.04C80.9186 120.186 80.8091 120.332 80.6998 120.478C79.4609 120.15 78.1855 119.895 76.8738 119.785C76.1814 119.712 76.1814 120.805 76.8738 120.878C81.0278 121.316 85.0361 122.882 88.4249 125.324C89.263 125.943 90.0646 126.599 90.7934 127.292C91.3764 127.838 92.6517 128.858 92.0687 129.769C91.6315 130.462 90.8298 130.535 90.0646 130.425C88.4977 129.041 86.7123 127.838 84.854 126.891C82.3397 125.615 79.6431 124.777 76.8738 124.376C76.5822 124.34 76.2908 124.449 76.2179 124.741C76.1451 124.996 76.2908 125.36 76.5823 125.397C81.1007 126.016 85.4369 127.875 88.935 130.826C89.7002 131.482 90.757 132.247 91.1942 133.231C91.4129 133.705 91.4129 134.324 91.012 134.689C90.6477 135.017 90.101 135.053 89.6273 134.98C89.0443 134.907 88.4977 134.616 87.9875 134.397C87.4774 134.142 86.9309 133.923 86.3843 133.705C85.2182 133.231 84.0523 132.794 82.8498 132.393C80.955 131.773 79.0601 131.263 77.0924 130.826C77.056 130.826 77.0196 130.79 76.9832 130.79C76.3637 130.607 75.7442 130.389 75.0883 130.389C75.0519 130.389 74.979 130.389 74.9426 130.389C74.8697 130.389 74.7968 130.352 74.6874 130.352C73.9951 130.243 73.7037 131.3 74.396 131.409C75.1612 131.555 75.9628 131.701 76.728 131.846C77.3111 132.029 77.8941 132.247 78.4407 132.466C80.0805 133.122 81.6838 133.851 83.2142 134.725C84.4167 135.381 85.7284 136.11 86.6029 137.166C86.6394 137.239 86.5666 137.13 86.6759 137.239C86.7123 137.276 86.7487 137.312 86.7487 137.349C86.7851 137.385 86.7852 137.421 86.8216 137.458C86.8216 137.458 86.8216 137.458 86.8581 137.531C86.8581 137.567 86.8579 137.604 86.8944 137.64V137.677C86.8579 137.713 86.858 137.749 86.8216 137.749C86.8216 137.749 86.8216 137.749 86.7851 137.749C86.7123 137.786 86.6758 137.822 86.6029 137.859C86.6029 137.859 86.4571 137.932 86.3478 137.932C86.0927 138.005 85.8013 138.077 85.5098 138.114C81.9388 138.66 78.2949 137.312 74.9426 136.328C74.2502 136.146 73.9588 137.203 74.6511 137.385C75.8536 137.713 77.0561 138.114 78.295 138.442C78.295 138.66 78.2585 138.879 78.2221 139.098C77.9305 140.665 77.056 142.049 76.0357 143.179C74.5782 144.746 72.7926 145.802 70.8614 146.531C64.7397 139.28 66.0515 131.956 67.2175 128.494ZM34.6414 60.9368C34.6779 60.9368 34.6779 60.9368 34.7144 60.9368C34.7508 61.0097 34.8237 61.0826 34.8601 61.1554L34.6414 60.9368ZM53.4438 69.9007C48.889 70.0829 44.3706 68.6254 40.7268 65.8925C38.6862 64.362 36.9371 62.4672 35.6253 60.2809C35.5525 60.1352 35.4067 60.0623 35.261 60.0259C37.6295 55.1431 39.8157 50.1874 41.9292 45.1589C42.8766 45.1224 43.7875 44.9038 44.6256 44.4301C44.8806 44.2844 44.99 43.9564 44.8442 43.7013C44.6985 43.4463 44.3705 43.337 44.1155 43.4827C42.0385 44.6487 39.1235 44.0293 37.6659 42.1709C36.2448 40.2761 36.4269 37.2882 38.1031 35.612C39.7793 33.9358 42.7672 33.7536 44.6621 35.1747C44.9171 35.3569 45.2451 35.3205 45.4273 35.0654C45.6095 34.8103 45.5731 34.4824 45.3181 34.3002C45.1723 34.1909 45.0265 34.118 44.9172 34.0087L45.8282 34.0451C49.6178 31.713 48.9983 27.9963 49.9821 25.227C51.4032 21.2552 53.5167 21.3281 56.0674 21.1459C59.8571 22.3119 62.2255 25.6643 64.5576 28.6158C67.2905 32.041 69.9504 35.5026 72.6833 38.9643C73.9222 40.5312 75.1612 42.098 76.4001 43.6649C73.7765 44.3572 71.1165 45.0496 68.4929 45.7419C67.4726 45.997 66.4523 46.2521 65.4321 46.5071C65.2134 46.58 65.0312 46.7987 65.0312 47.0173C65.2134 51.4628 65.3956 55.9083 65.6143 60.3538C65.6871 61.7749 65.7601 63.196 65.8694 64.6535C65.8694 64.7264 65.9059 64.7993 65.9059 64.8357C62.4806 67.8966 58.0351 69.6821 53.4438 69.9007ZM174.274 58.6412C174.274 58.6412 174.274 58.6776 174.274 58.6412C174.238 58.6047 174.201 58.5683 174.201 58.5319C174.238 58.5319 174.274 58.5319 174.311 58.5319C174.311 58.5683 174.311 58.6047 174.274 58.6412ZM185.825 52.228C185.133 52.9568 183.785 51.062 183.42 50.6611C181.708 48.657 180.068 46.5436 178.574 44.3572C178.392 44.0657 178.173 43.7742 177.991 43.5191C177.809 43.2276 177.663 43.1548 177.335 43.0455C176.716 42.7904 176.096 42.5717 175.477 42.3896C174.311 42.0616 173.108 41.8794 171.942 42.0616C169.61 42.4624 168.226 44.3208 167.934 46.58C167.752 48.1469 167.606 50.2967 169.063 51.3534C170.011 52.0458 171.286 52.0093 172.379 52.0458C173.764 52.1187 175.149 52.1915 176.497 52.2644C176.861 52.3008 177.262 52.3009 177.663 52.3009C178.21 52.3373 178.793 52.4466 179.339 52.5559C180.396 52.811 181.635 53.722 181.453 54.9609C181.307 56.1269 179.849 56.6371 178.866 56.8557C177.663 57.1108 176.424 57.2201 175.185 57.293C173.801 57.4023 172.38 57.4387 170.995 57.6573C170.958 57.6573 170.958 57.6573 170.922 57.6938C169.829 57.8031 168.699 57.9124 167.606 58.0946C164.946 58.459 162.286 58.8234 159.589 58.8598C158.496 58.8963 157.403 58.8234 156.31 58.7869C156.237 58.6047 156.128 58.459 155.873 58.3497C154.561 57.6574 153.249 56.8922 151.974 56.1269C149.423 54.5601 146.909 52.8475 144.54 51.0255C144.249 50.8069 143.994 50.5883 143.739 50.3696C146.216 47.0537 149.35 44.2479 152.739 41.8794C154.889 40.3854 157.112 39.0372 159.407 37.7254C160.537 37.0695 161.703 36.4501 162.833 35.8306C163.816 35.3205 164.873 34.9196 166.003 34.8832C167.132 34.8468 168.189 35.1018 169.282 35.3934C170.302 35.6849 171.286 35.9399 172.307 36.195C174.274 36.7051 176.278 37.2517 178.1 38.1991C179.922 39.1465 181.489 40.4947 182.619 42.2438C184.003 44.3572 184.841 46.7257 185.461 49.1307C185.607 49.7137 185.752 50.2968 185.898 50.8798C185.971 51.2806 186.153 51.9365 185.825 52.228ZM176.533 46.1063C175.987 45.4504 175.112 45.0496 174.311 44.7216C173.108 44.2115 171.869 43.8471 170.557 43.7013C172.379 42.3895 175.076 43.337 177.044 44.1022C178.246 45.8877 179.521 47.6003 180.87 49.2765C180.87 50.151 180.87 51.0255 180.833 51.9C180.214 51.6085 179.521 51.4263 178.829 51.317C178.283 51.2441 177.772 51.1713 177.226 51.1348C177.153 50.2603 177.153 49.4222 177.153 48.5477C177.226 47.6732 177.153 46.7987 176.533 46.1063ZM174.711 48.1469C173.473 47.6367 172.744 46.4707 172.489 45.1954C173.108 45.3775 173.728 45.5961 174.311 45.8877C175.076 46.252 175.914 46.6529 176.06 47.5639C176.206 48.4748 176.023 49.4951 176.096 50.4061C176.096 50.6247 176.133 50.8798 176.133 51.0984C176.06 51.0984 175.95 51.0984 175.878 51.0984C175.805 51.0984 175.768 51.0984 175.695 51.1348C175.477 51.1348 175.258 51.0984 175.003 51.0984C174.967 50.2967 174.93 49.4587 174.967 48.657C175.003 48.4384 174.894 48.2197 174.711 48.1469ZM171.724 48.2926C170.485 47.8189 169.683 46.6529 169.355 45.414C169.428 45.1953 169.537 44.9403 169.683 44.7581C170.266 44.7945 170.813 44.8674 171.396 44.9767C171.541 46.6164 172.452 48.2562 173.91 49.0214C173.91 49.7137 173.91 50.4061 173.946 51.0984C173.436 51.062 172.926 51.062 172.416 51.0255C172.307 51.0255 172.197 51.0255 172.052 51.0255C172.015 50.3332 172.052 49.6044 172.124 48.9121C172.124 48.5477 171.906 48.3655 171.724 48.2926ZM170.958 50.8798C170.339 50.8069 169.756 50.6247 169.392 50.151C168.845 49.4222 168.881 48.3291 168.954 47.4545C168.954 47.3817 168.954 47.3452 168.954 47.2723C169.428 48.074 170.12 48.7299 170.995 49.1671C170.958 49.7137 170.958 50.2968 170.958 50.8798ZM63.1365 101.821C64.5212 99.9261 65.0313 97.5212 64.6305 95.2256C64.4483 94.2417 64.1203 93.2943 63.6101 92.4198C63.1 91.5088 62.3713 90.8165 61.679 90.0149C61.0231 89.2496 60.4035 88.4115 60.2942 87.3548C60.1484 86.2252 60.6951 85.2778 61.3146 84.4033C61.8976 83.6381 62.4441 82.9093 62.6992 81.9619C62.9178 81.1602 62.9178 80.2857 62.7356 79.4477C62.3713 77.7715 61.2781 76.1682 59.6384 75.5123C58.9825 75.2572 59.2739 74.2005 59.9298 74.4555C61.9704 75.2572 63.3915 77.152 63.7923 79.2655C63.9745 80.1764 63.9745 81.1238 63.7559 82.0348C63.5372 83.0551 62.9907 83.8932 62.3713 84.7313C61.7518 85.5694 61.0594 86.4803 61.3873 87.5734C61.6789 88.6302 62.6264 89.4318 63.3187 90.2335C66.2338 93.5494 66.6346 98.7237 64.011 102.331C63.6466 102.914 62.6992 102.368 63.1365 101.821ZM62.5899 53.2483C62.7357 53.5033 62.6628 53.8677 62.4077 54.0135C60.8409 54.8516 58.6546 54.1957 57.8894 52.5924C57.7801 52.3373 57.8165 52.0094 58.0716 51.8272C58.3266 51.6814 58.6909 51.7543 58.8366 52.0094C58.8731 52.0822 58.9097 52.1915 58.9825 52.2644C59.019 52.3008 59.0189 52.3373 59.0553 52.3737C59.0553 52.3737 59.0553 52.4102 59.0918 52.4102C59.2011 52.5559 59.3104 52.6652 59.4562 52.7746C59.4926 52.811 59.529 52.811 59.5654 52.8475C59.6383 52.8839 59.7112 52.9567 59.7841 52.9932C59.857 53.0296 59.9299 53.0661 60.0027 53.1025H60.0392C60.0757 53.1025 60.112 53.1389 60.1485 53.1389C60.2213 53.1754 60.3307 53.1754 60.4036 53.2118C60.44 53.2118 60.4764 53.2118 60.5129 53.2483H60.5858C60.7316 53.2483 60.8772 53.2847 61.0594 53.2483C61.0959 53.2483 61.1324 53.2483 61.1689 53.2483C61.1689 53.2483 61.1687 53.2483 61.2052 53.2483C61.2052 53.2483 61.2052 53.2483 61.2416 53.2483C61.3145 53.2483 61.3874 53.2118 61.4603 53.2118C61.5332 53.1754 61.6426 53.1754 61.7154 53.1389C61.7519 53.1025 61.7883 53.1025 61.8612 53.0661C62.1162 52.9203 62.4442 52.9932 62.5899 53.2483ZM57.4885 97.7398C57.6707 98.7237 58.4358 99.5253 59.4197 99.5618C60.5493 99.6346 61.5696 98.6873 61.8612 97.667C62.1527 96.6103 61.6424 95.4806 60.6586 95.0069C59.6383 94.5332 58.2902 94.6061 57.4885 95.4807C57.3063 95.6993 57.2699 96.0637 57.4885 96.2459C57.525 96.2823 57.5613 96.3187 57.5978 96.3187C57.4156 96.7924 57.3792 97.2661 57.4885 97.7398ZM58.9825 98.2864C58.9097 98.25 58.9825 98.2864 58.9825 98.2864V98.2864ZM58.5087 97.1204C58.5087 97.1204 58.5087 97.0839 58.5087 97.0475C58.5087 97.011 58.5087 96.9746 58.5087 96.9382C58.5087 96.9018 58.5452 96.8653 58.5452 96.7924C58.5452 96.756 58.5817 96.7195 58.5817 96.6831V96.6467C58.6181 96.6102 58.618 96.5738 58.6544 96.5373L58.6909 96.5009C58.6909 96.4645 58.7274 96.4645 58.7274 96.4645C58.7638 96.428 58.8002 96.3916 58.8366 96.3551L58.8731 96.3187C58.9096 96.2823 58.9824 96.2823 59.0188 96.2459C59.1646 96.173 59.274 95.9908 59.274 95.8086C59.3104 95.8086 59.3468 95.8086 59.3832 95.8086C59.4197 95.8086 59.4562 95.8086 59.4926 95.8086H59.5291C59.6384 95.845 59.7112 95.845 59.8206 95.8815C59.857 95.8815 59.8934 95.9179 59.9298 95.9179H59.9663C60.0392 95.9543 60.1121 95.9908 60.2214 96.0272C60.2579 96.0637 60.2942 96.0637 60.3307 96.1001C60.4035 96.173 60.4764 96.2094 60.5129 96.2823C60.5129 96.2823 60.5129 96.2823 60.5493 96.3187C60.5858 96.3552 60.5858 96.3916 60.6223 96.428C60.6587 96.4645 60.6586 96.5009 60.695 96.5373C60.695 96.5373 60.6951 96.5738 60.7315 96.5738C60.7315 96.6103 60.768 96.6831 60.768 96.7195C60.768 96.7195 60.768 96.7924 60.8045 96.8289C60.8045 96.8653 60.8045 96.9017 60.8045 96.9017C60.8045 96.9746 60.8045 97.011 60.8045 97.0839C60.8045 97.0839 60.8045 97.084 60.8045 97.1204C60.8045 97.1204 60.8045 97.1204 60.8045 97.1568C60.8045 97.1933 60.8044 97.2297 60.768 97.2661C60.768 97.3026 60.7315 97.3754 60.7315 97.4119C60.7315 97.4483 60.7315 97.4483 60.695 97.4848C60.6586 97.5577 60.6222 97.667 60.5493 97.7398C60.5129 97.7763 60.4764 97.8127 60.4764 97.8492C60.4764 97.8856 60.44 97.8856 60.4036 97.922C60.3307 97.9949 60.2578 98.0678 60.1849 98.1406L60.1485 98.1771C60.112 98.2135 60.0392 98.25 60.0027 98.2864C59.9663 98.3228 59.9299 98.3228 59.8935 98.3593C59.8571 98.3593 59.8206 98.3957 59.8206 98.3957C59.7477 98.4322 59.6383 98.4322 59.5654 98.4686C59.5654 98.4686 59.5656 98.4686 59.5291 98.4686C59.4927 98.4686 59.4197 98.4686 59.3832 98.4686C59.3468 98.4686 59.3469 98.4686 59.3104 98.4686C59.274 98.4686 59.2376 98.4686 59.1647 98.4322C59.1283 98.4322 59.0917 98.3957 59.0553 98.3957H59.0188C58.9824 98.3593 58.946 98.3593 58.9096 98.3228C58.9096 98.3228 58.9096 98.3228 58.8731 98.3228C58.8367 98.2864 58.7274 98.1771 58.7274 98.1771C58.691 98.1406 58.6544 98.1042 58.6544 98.0678C58.618 97.9949 58.5816 97.922 58.5452 97.8492C58.5452 97.8127 58.5087 97.7763 58.5087 97.7034C58.5087 97.667 58.4724 97.4483 58.436 97.4119V97.3754C58.436 97.339 58.436 97.3026 58.436 97.2661C58.5088 97.2297 58.5087 97.1568 58.5087 97.1204Z" fill="#3F4254"/>
<path d="M182.618 48.5474L182.363 48.6931C181.853 49.7863 181.38 50.9159 180.87 52.009C181.926 52.6649 182.691 53.8674 182.546 55.1427C182.327 56.6003 180.942 57.4384 179.63 57.8028C179.12 57.9485 178.61 58.0579 178.1 58.1307C176.934 60.6814 175.804 63.2321 174.638 65.7829C174.311 66.5481 173.946 67.3497 174.092 68.1514C174.238 69.1716 175.076 69.9004 175.804 70.5927C179.047 73.7265 181.598 77.5525 183.202 81.7794C188.011 74.7832 192.785 67.8234 197.595 60.8272C193.659 55.2885 188.849 51.3896 182.618 48.5474Z" fill="#9ED5F0"/>
<path d="M180.797 59.8434C181.198 62.9042 180.833 66.0015 179.74 68.9166C179.558 69.4268 180.287 69.8276 180.651 69.4632C183.858 66.0744 188.376 64.0339 193.04 63.8152C193.733 63.7788 193.733 62.6856 193.04 62.7221C188.085 62.9407 183.311 65.0906 179.886 68.698C180.177 68.8802 180.505 69.0624 180.797 69.2446C181.926 66.2566 182.291 63.0136 181.89 59.8798C181.781 59.1511 180.688 59.1511 180.797 59.8434Z" fill="#3F4254"/>
</svg>
