<svg width="200" height="162" viewBox="0 0 200 162" fill="none" xmlns="http://www.w3.org/2000/svg">
<path d="M26.2932 89.0937C17.4877 91.1289 7.56066 86.56 3.40711 78.5436C-0.787976 70.5273 1.16421 59.8112 7.89296 53.747C14.7048 47.5997 25.7117 45.7721 29.4914 37.4235C33.3542 28.8257 27.207 17.6526 32.3159 9.71934C35.3064 5.1089 41.1629 3.32287 46.604 2.86598C58.9401 1.82759 71.65 6.06422 80.9124 14.2882C89.3856 21.8062 94.9513 32.3562 104.214 38.8357C116.134 47.1428 132.956 47.8489 142.634 58.6897C150.11 67.0798 151.19 79.9974 146.912 90.3813C142.593 100.765 133.663 108.698 123.611 113.724C113.559 118.75 102.386 121.076 91.2963 122.821C84.8167 123.817 78.088 124.607 71.8576 122.613C64.9627 120.411 59.6047 115.095 54.205 110.277C45.8979 102.883 36.8847 96.3624 27.29 90.7551" fill="#303046"/>
<path d="M126.228 84.0677C125.812 84.4 125.106 84.9815 124.234 85.6876C124.109 85.4799 123.943 85.2723 123.735 85.1477C122.489 84.2754 120.828 85.3138 119.457 86.0614C115.968 87.889 111.815 87.349 107.91 87.889C107.537 87.9305 107.121 88.0136 106.747 88.0967L106.789 78.9173C106.955 77.5467 106.623 76.0514 106.041 75.2207L106.747 74.8053C107.993 74.5561 109.157 74.1823 110.319 73.7254L109.655 74.6807C109.406 75.4699 110.278 76.2175 111.067 76.2175C111.275 76.2175 111.441 76.176 111.649 76.1344L112.521 75.7191C112.604 75.6776 112.562 75.2622 112.479 74.7638C112.479 74.7638 112.479 74.7638 112.521 74.7638C113.144 75.1376 113.933 75.1376 114.598 74.9715C115.179 74.8468 115.719 74.5561 116.259 74.2653C116.633 74.1823 117.007 74.0577 117.339 73.8915C120.163 72.5209 122.032 69.4888 122.282 66.3736C122.323 65.9582 122.323 65.5429 122.282 65.1691C122.365 65.0445 122.489 64.9199 122.572 64.7537C123.112 63.8399 123.32 62.5939 122.78 61.6801C122.406 61.0155 121.7 60.6002 120.953 60.4756C120.869 60.2679 120.745 60.0187 120.662 59.811C119.873 57.9834 119.083 56.0313 117.214 55.0759C115.802 54.3698 114.141 54.4529 112.562 54.5775L110.486 56.9866C111.524 55.5328 112.645 54.2037 113.725 52.7915C115.761 50.1332 113.933 52.1685 115.511 49.344C117.131 46.395 117.879 42.4492 116.965 39.2094C116.591 37.8803 115.678 36.468 114.307 36.468C113.476 36.468 112.77 37.008 112.313 37.6726C111.856 38.3371 111.607 39.1263 111.399 39.9155C107.412 52.6253 101.555 58.7726 90.1332 65.626L88.8456 65.4183C84.7336 66.5397 81.5354 69.7795 79.1263 73.2685C76.7172 76.7575 74.9312 80.6618 72.4806 84.1508C70.3208 87.1829 67.7041 89.8412 65.0458 92.4994C64.0074 91.2949 62.886 90.1735 61.723 89.052L60.6846 89.675C59.8954 82.8217 57.0294 59.3541 57.0294 59.3541C61.6814 57.1527 71.0685 52.5423 71.0685 52.5423C63.8413 46.5612 55.908 39.5417 47.767 32.7298C41.6197 27.5794 31.6097 25.7519 25.9609 32.6052C25.5455 33.1037 25.1717 33.6436 24.8394 34.2251C23.1365 37.1742 22.7626 40.7462 23.0534 44.1521C23.3026 47.3919 24.1333 50.5486 24.8394 53.7468C22.555 53.7884 20.229 54.9098 18.9414 56.862C17.0308 59.6864 17.5707 63.8815 20.1459 66.1659C21.475 67.3289 23.261 67.9104 25.0055 67.8689C23.5102 74.6807 22.0149 80.7864 20.312 87.1413H21.2258C13.5833 98.1898 8.22523 107.452 6.8961 120.827C6.02385 129.715 6.72996 128.801 0.665771 135.364C0.665771 135.364 25.2548 122.53 35.3479 140.971C50.5084 168.592 84.4428 157.419 84.9413 154.678C85.4397 151.937 85.1905 149.071 86.0627 146.371C87.8903 140.473 94.1206 137.399 98.8141 133.453C107.869 125.811 110.901 114.596 109.406 103.216L109.323 103.174C114.722 103.174 120.537 97.6083 123.652 93.8286C125.272 91.8764 125.812 91.0872 126.975 88.8443C128.138 86.6014 127.889 84.6908 128.221 82.1986C126.601 83.5278 127.764 82.8217 126.228 84.0677Z" fill="white"/>
<path d="M143.921 7.06104C143.921 10.9654 140.765 14.1221 136.86 14.1221C132.956 14.1221 129.799 10.9654 129.799 7.06104C129.799 3.1567 132.956 0 136.86 0C140.765 0 143.921 3.1567 143.921 7.06104ZM179.85 78.0867C177.897 78.0867 176.319 79.6651 176.319 81.6173C176.319 83.5694 177.897 85.1478 179.85 85.1478C181.802 85.1478 183.38 83.5694 183.38 81.6173C183.38 79.6651 181.802 78.0867 179.85 78.0867Z" fill="#FFE945"/>
<path d="M176.527 19.0231C176.485 19.0231 176.485 19.0231 176.485 19.0231C176.527 18.9815 176.527 18.9815 176.527 19.0231ZM177.15 18.6493C177.192 18.6493 177.192 18.6493 177.15 18.6493C177.15 18.6077 177.192 18.6077 177.192 18.6077C177.192 18.6077 177.192 18.6077 177.15 18.6493ZM175.987 18.94C176.029 18.94 176.029 18.94 175.987 18.94C176.029 18.9815 176.029 18.9815 176.029 18.9815C176.029 18.94 175.987 18.94 175.987 18.94ZM177.358 20.0199C176.652 20.3522 175.862 20.3522 175.198 19.8953C174.949 20.0199 174.658 19.9784 174.492 19.7707C173.703 18.8569 173.661 17.5693 174.409 16.6555C174.99 15.9494 176.07 15.6172 176.942 15.9079C177.815 16.2402 178.438 17.0294 178.521 17.9432C178.645 18.8569 178.147 19.6876 177.358 20.0199ZM176.818 17.237L176.859 17.2786C176.901 17.2786 176.859 17.2786 176.818 17.237ZM177.316 18.2754C177.316 18.2339 177.316 18.2339 177.316 18.2339C177.316 18.1924 177.316 18.1508 177.316 18.1093C177.316 18.1508 177.358 18.1508 177.316 18.0678C177.316 18.0262 177.316 18.0262 177.316 17.9847C177.316 17.9431 177.275 17.9016 177.275 17.8601C177.275 17.8185 177.275 17.8186 177.275 17.8186C177.233 17.777 177.233 17.6939 177.192 17.6939C177.192 17.6524 177.15 17.6109 177.108 17.5693C177.108 17.5693 177.025 17.4447 177.067 17.5278C177.108 17.6109 177.067 17.5278 177.025 17.4863C176.984 17.4447 176.984 17.4447 176.942 17.4032C176.901 17.3617 176.901 17.3617 176.859 17.3201L176.818 17.2786C176.776 17.237 176.693 17.2371 176.693 17.1955C176.652 17.1955 176.652 17.154 176.61 17.154C176.527 17.154 176.485 17.1124 176.402 17.1124H176.361C176.319 17.1124 176.319 17.1124 176.278 17.1124C176.236 17.1124 176.195 17.1124 176.153 17.1124H176.07C176.029 17.1124 175.987 17.1124 175.946 17.154C175.904 17.154 175.904 17.154 175.862 17.1955C175.821 17.1955 175.821 17.1955 175.779 17.237C175.821 17.237 175.821 17.2371 175.862 17.1955C175.821 17.1955 175.696 17.2786 175.613 17.3201C175.613 17.3201 175.613 17.3201 175.572 17.3201C175.572 17.3201 175.53 17.3617 175.489 17.3617C175.447 17.4032 175.364 17.4863 175.322 17.5278C175.322 17.5693 175.281 17.5693 175.281 17.6109C175.239 17.6524 175.239 17.6939 175.198 17.7355C175.156 17.8186 175.156 17.9016 175.115 17.9847V18.0262V18.0678C175.115 18.1508 175.115 18.2339 175.115 18.317C175.115 18.317 175.115 18.317 175.115 18.3585C175.115 18.4 175.115 18.4416 175.156 18.4831C175.156 18.4831 175.198 18.6493 175.239 18.6908C175.447 18.6493 175.696 18.6908 175.862 18.8569C175.862 18.8569 175.862 18.8569 175.904 18.8985C175.945 18.8985 175.945 18.94 175.987 18.94C175.987 18.94 176.029 18.94 176.029 18.9815C176.029 18.9815 176.029 18.9815 176.07 19.0231C176.07 19.0231 176.07 19.0231 176.112 19.0231C176.153 19.0231 176.236 19.0646 176.278 19.0646C176.236 19.0646 176.236 19.0646 176.319 19.0646C176.361 19.0646 176.402 19.0646 176.402 19.0646C176.444 19.0646 176.485 19.0646 176.527 19.0646C176.527 19.0646 176.527 19.0646 176.485 19.0646H176.527C176.569 19.0646 176.61 19.0646 176.693 19.0231C176.735 19.0231 176.776 18.9815 176.818 18.9815C176.859 18.94 176.942 18.8985 177.025 18.8985C177.025 18.8985 177.067 18.8569 177.108 18.8569C177.15 18.8154 177.192 18.7739 177.233 18.7323L177.275 18.6908C177.275 18.6493 177.316 18.6077 177.316 18.6077L177.358 18.5246C177.358 18.4831 177.358 18.4831 177.358 18.4416C177.316 18.2754 177.316 18.2339 177.316 18.2754ZM177.316 18.2754V18.317V18.2754ZM177.316 18.0678V18.0262V18.0678ZM153.475 65.169C153.516 65.169 153.516 65.169 153.475 65.169C153.475 65.1275 153.516 65.1275 153.516 65.1275C153.516 65.1275 153.516 65.1275 153.475 65.169ZM152.312 65.4598C152.353 65.4598 152.353 65.4598 152.312 65.4598C152.353 65.5013 152.353 65.5013 152.353 65.5013C152.353 65.4598 152.312 65.4598 152.312 65.4598ZM152.81 65.5428C152.852 65.5428 152.852 65.5428 152.852 65.5428C152.852 65.5013 152.852 65.5013 152.81 65.5428ZM153.641 64.8367V64.7952V64.8367ZM151.564 66.4566C151.315 66.5812 151.024 66.5397 150.858 66.332C150.069 65.4182 150.027 64.1306 150.775 63.2169C151.356 62.5107 152.436 62.1785 153.309 62.4692C154.181 62.8015 154.804 63.5907 154.887 64.5044C154.97 65.3767 154.472 66.2074 153.682 66.5397C152.976 66.872 152.187 66.872 151.564 66.4566ZM153.142 63.7568L153.184 63.7983C153.226 63.7983 153.184 63.7983 153.142 63.7568ZM151.481 64.5044V64.546V64.5875C151.481 64.6706 151.481 64.7537 151.481 64.8367C151.481 64.8367 151.481 64.8367 151.481 64.8783C151.481 64.9198 151.481 64.9613 151.523 65.0029C151.523 65.0029 151.564 65.169 151.606 65.2106C151.813 65.169 152.063 65.2106 152.229 65.3767C152.229 65.3767 152.229 65.3767 152.27 65.4182C152.312 65.4182 152.312 65.4598 152.353 65.4598C152.353 65.4598 152.395 65.4598 152.395 65.5013C152.395 65.5013 152.395 65.5013 152.436 65.5428C152.436 65.5428 152.436 65.5428 152.478 65.5428C152.52 65.5428 152.603 65.5844 152.644 65.5844C152.603 65.5844 152.603 65.5844 152.686 65.5844C152.727 65.5844 152.769 65.5844 152.769 65.5844C152.81 65.5844 152.852 65.5844 152.893 65.5844C152.893 65.5844 152.893 65.5844 152.852 65.5844H152.893C152.935 65.5844 152.976 65.5844 153.059 65.5428C153.101 65.5428 153.143 65.5013 153.184 65.5013C153.226 65.4598 153.309 65.4182 153.392 65.4182C153.392 65.4182 153.433 65.3767 153.475 65.3767C153.516 65.3352 153.558 65.2936 153.599 65.2521L153.641 65.2106C153.641 65.169 153.682 65.1275 153.682 65.1275L153.724 65.0444C153.724 65.0029 153.724 65.0029 153.724 64.9613C153.724 64.9198 153.724 64.9198 153.724 64.9198C153.724 64.8783 153.724 64.8783 153.724 64.8783C153.724 64.8367 153.724 64.7952 153.724 64.7537C153.724 64.7952 153.766 64.7952 153.724 64.7121C153.724 64.6706 153.724 64.6706 153.724 64.629C153.724 64.5875 153.682 64.546 153.682 64.5044C153.682 64.4629 153.682 64.4629 153.682 64.4629C153.641 64.4214 153.641 64.3383 153.599 64.3383C153.599 64.2968 153.558 64.2552 153.516 64.2137C153.516 64.2137 153.433 64.0891 153.475 64.1722C153.516 64.2552 153.475 64.1722 153.433 64.1306C153.392 64.0891 153.392 64.0891 153.35 64.0476C153.309 64.006 153.309 64.006 153.267 63.9645L153.226 63.923C153.184 63.8814 153.101 63.8814 153.101 63.8399C153.059 63.8399 153.059 63.7983 153.018 63.7983C152.935 63.7983 152.893 63.7568 152.81 63.7568H152.769C152.727 63.7568 152.727 63.7568 152.686 63.7568C152.644 63.7568 152.603 63.7568 152.561 63.7568H152.478C152.436 63.7568 152.395 63.7568 152.353 63.7983C152.312 63.7983 152.312 63.7984 152.27 63.8399C152.229 63.8399 152.229 63.8399 152.187 63.8814C152.229 63.8814 152.229 63.8814 152.27 63.8399C152.229 63.8399 152.104 63.923 152.021 63.9645C152.021 63.9645 152.021 63.9645 151.979 63.9645C151.979 63.9645 151.938 64.006 151.896 64.006C151.855 64.0476 151.772 64.1306 151.73 64.1722C151.73 64.2137 151.689 64.2137 151.689 64.2552C151.647 64.2968 151.647 64.3383 151.606 64.3798C151.523 64.3383 151.481 64.4214 151.481 64.5044ZM153.641 64.5875V64.546V64.5875ZM173.37 56.3635C173.038 61.7216 170.837 67.2873 166.849 70.984C164.606 73.0608 161.906 74.5145 159.497 76.3836C157.047 78.2943 155.136 80.7033 153.932 83.5693C152.769 86.3937 152.229 89.5504 152.686 92.5825C153.101 95.2407 154.264 97.9821 156.465 99.6435C157.088 100.142 156.465 101.222 155.842 100.723C154.887 99.9758 154.056 99.1035 153.392 98.0651C150.277 93.247 150.858 86.7675 153.309 81.8248C154.638 79.1665 156.548 77.0066 158.874 75.2206C161.159 73.4761 163.693 72.0639 165.852 70.1117C169.632 66.6643 171.75 61.4724 172.083 56.405C172.373 52.0023 171.044 47.2257 167.265 44.6505C166.558 46.0212 165.645 47.2672 164.565 48.3887C162.903 50.0501 160.66 51.4623 158.21 51.4208C157.047 51.4208 155.884 51.0469 155.012 50.2578C154.015 49.344 153.682 47.8903 154.056 46.6027C154.804 43.9859 157.545 42.4906 160.037 41.9922C162.322 41.5353 164.689 41.8676 166.766 42.8645C168.635 38.3371 168.178 32.7713 165.395 28.7424C162.239 24.1735 156.299 23.052 151.107 23.9243C146.165 24.755 141.596 27.2056 137.733 30.3623C133.372 33.9343 129.841 38.4202 127.224 43.4044C126.851 44.1105 125.771 43.4875 126.144 42.7814C126.851 41.4522 127.598 40.1646 128.429 38.877C131.627 34.0589 135.739 29.8223 140.682 26.7487C145.126 24.0073 150.36 22.1382 155.635 22.4705C158.501 22.6367 161.408 23.5089 163.734 25.2534C165.977 26.9564 167.555 29.3654 168.386 32.0237C169.591 35.7619 169.383 39.9154 167.888 43.529C172.083 46.2704 173.661 51.5038 173.37 56.3635ZM165.935 44.692C166.06 44.4843 166.185 44.2767 166.268 44.0274C164.274 43.0306 161.948 42.7814 159.788 43.3629C158.625 43.6536 157.462 44.152 156.59 44.9828C155.676 45.8135 154.929 47.0595 155.261 48.3056C155.884 50.5901 158.957 50.3824 160.66 49.6347C162.903 48.721 164.689 46.7688 165.935 44.692ZM145.085 52.0853C142.883 54.4529 140.723 56.8619 138.522 59.2294C137.982 59.8109 138.854 60.6832 139.394 60.1017C141.596 57.7342 143.755 55.3251 145.957 52.9576C146.497 52.3761 145.625 51.5038 145.085 52.0853ZM144.835 60.8078C143.215 61.3893 141.596 61.9708 139.976 62.5107C139.643 62.6354 139.436 62.9261 139.56 63.2584C139.643 63.5491 140.017 63.7983 140.308 63.6737C141.928 63.0922 143.548 62.5107 145.168 61.9708C145.5 61.8462 145.708 61.5554 145.583 61.2232C145.5 60.9739 145.126 60.7247 144.835 60.8078Z" fill="white"/>
<path d="M128.138 149.902C130.672 149.735 133.205 150.109 135.573 150.94C135.282 149.154 135.781 147.243 136.902 145.831C138.771 148.531 140.308 151.522 141.388 154.637C144.96 152.601 148.532 150.566 152.104 148.531C152.768 148.157 153.433 147.742 153.807 147.119C154.638 145.665 153.599 143.879 152.519 142.591C151.439 141.304 150.235 139.725 150.775 138.147C152.436 138.355 154.139 138.562 155.801 138.77C156.133 136.818 157.005 134.949 158.334 133.412C153.599 130.297 146.995 130.297 142.302 133.495C143.34 134.907 142.966 137.15 141.512 138.189C140.059 139.227 137.816 138.77 136.86 137.316C132.416 139.684 129.259 144.377 128.761 149.362" fill="#9ED5F0"/>
<path d="M172.872 153.515C173.163 153.806 173.786 153.764 173.952 153.266C176.61 145.042 178.105 136.486 179.891 128.012C180.39 125.728 180.888 123.443 181.428 121.2C181.428 121.159 181.47 121.117 181.47 121.076C181.47 121.034 181.47 121.034 181.47 120.993C181.636 120.37 180.847 120.037 180.473 120.328C177.067 120.328 173.62 120.328 170.214 120.328C168.76 118.335 167.306 116.299 165.894 114.306C166.143 113.932 166.268 113.475 166.268 113.018C166.268 111.689 165.188 110.609 163.859 110.609H135.199C133.87 110.609 132.79 111.689 132.79 113.018C132.79 113.226 132.832 113.475 132.873 113.683C132.873 113.724 132.832 113.724 132.832 113.766C131.793 115.801 130.755 117.836 129.717 119.871C129.634 120.079 129.634 120.245 129.717 120.411C126.311 120.411 122.905 120.411 119.457 120.411C118.751 120.411 118.668 121.408 119.25 121.616C119.25 121.699 119.25 121.782 119.291 121.865C121.866 130.38 124.691 138.853 127.764 147.243C128.637 149.611 129.509 151.937 130.381 154.263C130.547 154.72 131.046 154.761 131.336 154.595C131.42 154.761 131.586 154.927 131.835 154.969C142.676 156.049 153.6 156.007 164.399 154.72C167.223 154.429 170.089 154.013 172.872 153.515ZM135.199 111.897H163.9C164.523 111.897 165.063 112.395 165.063 113.059C165.063 113.226 165.022 113.392 164.939 113.516C164.856 113.516 164.773 113.558 164.689 113.599C164.523 113.683 164.399 113.89 164.399 114.098C164.274 114.181 164.108 114.222 163.942 114.222H135.199C134.576 114.222 134.036 113.724 134.036 113.059C134.036 112.395 134.535 111.897 135.199 111.897ZM133.662 114.887C134.078 115.219 134.618 115.427 135.199 115.427H163.9C164.274 115.427 164.648 115.344 164.98 115.178C166.226 116.922 167.472 118.667 168.718 120.37C164.773 120.37 160.868 120.37 156.922 120.411C148.948 120.411 140.931 120.453 132.956 120.453C132.25 120.453 131.544 120.453 130.838 120.453C131.793 118.625 132.707 116.756 133.662 114.887ZM160.245 136.61C153.309 137.109 146.331 137.233 139.394 137.025C138.688 133.952 137.982 130.878 137.276 127.805C136.819 125.769 136.321 123.734 135.864 121.699C138.398 121.699 140.931 121.699 143.465 121.699C149.446 121.699 155.469 121.657 161.45 121.657C160.993 126.642 160.619 131.626 160.245 136.61ZM140.931 154.387C137.899 154.263 134.867 154.055 131.835 153.723C131.71 153.723 131.586 153.723 131.503 153.806C128.346 145.54 125.397 137.192 122.697 128.76C121.949 126.434 121.243 124.108 120.496 121.74C125.189 121.74 129.841 121.74 134.535 121.699C135.698 126.808 136.902 131.875 138.065 136.984C134.784 136.859 131.503 136.652 128.221 136.402C127.432 136.319 127.432 137.565 128.221 137.649C131.586 137.939 134.95 138.147 138.356 138.272C138.896 140.681 139.477 143.09 140.017 145.457C140.557 147.742 141.056 150.026 141.596 152.311C141.762 153.1 142.966 152.767 142.8 151.978C141.762 147.409 140.682 142.882 139.644 138.313C146.455 138.521 153.309 138.355 160.121 137.898C159.913 140.681 159.705 143.463 159.456 146.205C159.29 148.531 159.082 150.815 158.916 153.141C158.833 153.93 160.079 153.93 160.162 153.141C160.577 148.032 160.951 142.924 161.367 137.815C162.862 137.69 164.357 137.565 165.852 137.399C169.341 137.067 172.83 136.61 176.319 136.07C177.109 135.946 176.776 134.741 175.987 134.866C171.169 135.613 166.309 136.153 161.45 136.527C161.657 133.869 161.865 131.252 162.073 128.594C162.239 126.268 162.447 123.983 162.613 121.657C164.191 121.657 165.769 121.657 167.348 121.657C171.584 121.657 175.779 121.657 180.016 121.616C178.064 129.715 176.735 137.939 174.658 146.039C174.118 148.115 173.537 150.192 172.914 152.269C162.405 154.097 151.647 154.844 140.931 154.387ZM199.413 156.713C196.88 156.63 194.387 156.589 191.854 156.547C182.924 156.464 173.993 156.755 165.105 157.336C164.316 157.378 164.316 156.132 165.105 156.09C167.597 155.924 170.131 155.758 172.623 155.633C181.553 155.218 190.441 155.135 199.372 155.426C200.202 155.509 200.202 156.755 199.413 156.713ZM174.99 160.244C169.258 160.493 163.568 160.784 157.836 161.033C157.047 161.075 157.047 159.828 157.836 159.787C163.568 159.538 169.258 159.247 174.99 158.998C175.821 158.956 175.821 160.202 174.99 160.244Z" fill="white"/>
<path d="M93.3315 96.9022C92.9161 96.2376 93.9961 95.6146 94.4114 96.2792C95.9067 98.6052 98.3988 100.142 100.932 101.097C103.549 102.136 106.415 102.676 109.24 102.593C110.029 102.551 110.029 103.797 109.24 103.839C106.207 103.922 103.134 103.299 100.309 102.177C97.6096 101.056 94.9513 99.4359 93.3315 96.9022ZM22.2227 58.1911C21.4335 58.3573 21.7658 59.5618 22.555 59.3957C24.7564 58.9388 27.2069 59.5203 28.9514 60.974C29.2006 61.1817 29.5745 61.2232 29.8237 60.974C30.0314 60.7663 30.0729 60.3094 29.8237 60.1018C27.7054 58.3157 24.881 57.6096 22.2227 58.1911ZM49.6361 70.1118C48.847 70.2364 48.0578 70.2364 47.2686 70.1118C47.3517 70.0287 47.4348 69.9041 47.4763 69.7795C47.8501 69.0319 47.6424 68.1597 47.0194 67.6612C46.5625 67.2459 45.981 67.0797 45.358 67.1213C45.3164 66.789 45.1918 66.4567 44.9426 66.2075C44.0288 65.003 42.0767 65.003 41.1214 66.2075C40.9552 66.4152 40.8306 66.6644 40.706 66.8721C39.9168 66.0413 39.2522 65.0445 38.7953 63.9646C38.5046 63.2169 37.3001 63.5492 37.5908 64.2968C38.0893 65.5429 38.8369 66.6644 39.7092 67.6197C39.5846 67.7443 39.543 67.9104 39.5015 68.0766C39.3354 69.738 39.2522 71.6486 40.5814 72.8947C41.1213 73.4347 41.869 73.767 42.6581 73.6839C43.4058 73.6423 44.0704 73.2685 44.5688 72.7285C45.0257 72.2717 45.3996 71.6902 45.7318 71.1087C47.061 71.3994 48.4316 71.4825 49.8438 71.3164C50.1761 71.2748 50.3422 70.8595 50.2592 70.5687C50.3007 70.1949 49.9684 70.0703 49.6361 70.1118ZM46.0226 68.4504C46.2718 68.6165 46.4794 68.8658 46.3963 69.0734C46.3548 69.198 46.2718 69.3226 46.1472 69.4057C46.0641 69.4888 45.981 69.4888 45.8564 69.4473C45.6072 69.3642 45.3579 69.4472 45.2333 69.6134C44.9426 69.5303 44.6519 69.4057 44.3611 69.2811C44.735 69.0734 44.9841 68.6996 45.1503 68.3258C45.4826 68.3258 45.7734 68.3258 46.0226 68.4504ZM43.4889 66.5813C43.9042 66.7059 44.195 67.0797 44.1535 67.4951V67.5366C43.6966 67.8274 43.3227 68.2427 43.0735 68.6996C42.6166 68.4504 42.2013 68.1181 41.786 67.7858C41.8275 67.4536 41.9521 67.1213 42.2013 66.8721C42.5751 66.4982 43.032 66.4152 43.4889 66.5813ZM43.7381 71.8978C43.2812 72.3547 42.7412 72.5624 42.1182 72.3547C41.5782 72.1471 41.0798 71.524 40.9137 70.9425C40.706 70.3195 40.706 69.6134 40.7476 68.9488C40.9137 69.115 41.2044 69.1565 41.4121 69.0319C42.3674 69.738 43.4473 70.3195 44.6103 70.7348C44.3611 71.1502 44.1119 71.5656 43.7381 71.8978ZM41.4951 40.497C41.4536 40.3309 41.4952 40.1647 41.5783 39.9986C41.8275 39.4586 42.0352 38.9187 42.2844 38.3787C42.3674 38.2541 42.5335 38.1295 42.6581 38.088C42.8243 38.0464 42.9904 38.088 43.1566 38.171C43.2812 38.2541 43.4059 38.3787 43.4474 38.5448C43.4889 38.711 43.4473 38.8771 43.3642 39.0433C43.115 39.5832 42.9074 40.1232 42.6581 40.6632C42.5751 40.7878 42.409 40.9124 42.2844 40.9539C42.1182 40.9954 41.9521 40.9539 41.786 40.8708C41.6614 40.7878 41.5367 40.6632 41.4951 40.497ZM45.3995 35.7204C45.2749 35.5958 45.2333 35.4297 45.2333 35.2635C45.2333 35.0974 45.3165 34.9312 45.3995 34.8066C45.4411 34.7651 45.5241 34.7236 45.6072 34.682C45.6903 34.6405 45.7733 34.6405 45.8564 34.6405C46.1471 34.599 46.4795 34.599 46.7702 34.5574C46.9364 34.5574 47.1025 34.6405 47.2271 34.7236C47.3517 34.8482 47.3933 35.0143 47.3933 35.1805C47.3933 35.3466 47.3101 35.5127 47.2271 35.6374C47.1855 35.6789 47.1025 35.7204 47.0194 35.762C46.9363 35.8035 46.8533 35.8035 46.7702 35.8035C46.4795 35.845 46.1471 35.845 45.8564 35.8866C45.6902 35.9281 45.5241 35.845 45.3995 35.7204ZM47.5594 44.8167C47.6424 45.1075 47.4763 45.5228 47.144 45.5643C45.1503 45.9382 43.4889 47.2258 42.6581 49.0949C42.5335 49.3856 42.0767 49.4687 41.786 49.3025C41.4537 49.1364 41.4121 48.7626 41.5783 48.4303C42.4921 46.312 44.5272 44.6921 46.8117 44.3183C47.144 44.3183 47.4763 44.4844 47.5594 44.8167ZM53.1667 40.0817C53.2497 40.3724 53.042 40.7878 52.7513 40.8293C52.6267 40.8708 52.4606 40.8708 52.3359 40.9124C52.2529 40.9539 52.1698 40.9539 52.1283 40.9954L52.0452 41.037C51.9206 41.0785 51.7959 41.1616 51.6713 41.2446C51.6298 41.2862 51.5468 41.3277 51.5052 41.3692C51.4637 41.3692 51.4637 41.4108 51.4222 41.4108C51.2976 41.4939 51.2145 41.5769 51.0899 41.7015C51.0483 41.7431 51.0068 41.8261 50.9238 41.8677C50.8822 41.9092 50.8407 41.9923 50.7992 42.0338C50.7992 42.0754 50.7576 42.0754 50.7576 42.1169C50.716 42.1584 50.6745 42.2415 50.6329 42.283C50.5914 42.3246 50.5499 42.4076 50.5499 42.4907C50.5084 42.5322 50.4254 42.7399 50.5084 42.5738C50.4254 42.7399 50.3837 42.8645 50.2176 42.9476C50.093 43.0307 49.8853 43.0307 49.7192 43.0307C49.553 42.9891 49.4285 42.8645 49.3454 42.7399C49.2623 42.6153 49.2208 42.4076 49.2624 42.2415C49.5531 41.5769 49.9269 40.9954 50.5084 40.5385C51.0484 40.0816 51.713 39.7494 52.3775 39.6248C52.7513 39.5832 53.042 39.7494 53.1667 40.0817ZM90.7147 95.49C91.6285 95.7808 92.4593 96.3207 93.1654 96.9438C93.373 97.2761 93.9545 97.4007 94.2452 96.9438C96.1143 94.244 98.648 92.0841 101.514 90.5473C102.968 89.7997 104.504 89.2182 106.083 88.8443C107.786 88.429 109.53 88.3044 111.275 88.2213C113.061 88.1382 114.888 88.0551 116.674 87.6813C117.547 87.4737 118.419 87.2244 119.25 86.8506C120.039 86.4768 120.745 86.0199 121.534 85.6876C122.199 85.4384 123.071 85.2307 123.569 85.8953C123.943 86.3522 123.819 87.0168 123.652 87.5567C123.237 88.6782 122.448 89.1351 121.451 89.6335C119.54 90.6304 116.176 92.001 116.55 94.6593C116.674 95.4485 117.879 95.1162 117.754 94.327C117.63 93.3717 118.751 92.5825 119.457 92.1672C120.454 91.5026 121.534 91.0042 122.573 90.4642C123.694 89.8412 124.566 88.9274 124.94 87.6813C125.355 86.2691 124.815 84.6077 123.237 84.2754C121.409 83.9016 119.831 85.3138 118.253 85.9369C116.467 86.643 114.515 86.8091 112.604 86.9337C110.735 87.0583 108.824 87.0998 106.997 87.4321C105.294 87.7229 103.674 88.2628 102.095 88.9689C98.7727 90.4642 95.8236 92.8317 93.6638 95.7808C90.3825 93.2056 85.8551 93.4548 82.3661 95.6146C78.711 97.8575 76.3435 101.72 74.3913 105.5C72.1484 100.89 69.1163 96.7361 65.6689 92.9563C67.2888 91.3365 68.9086 89.7166 70.4039 87.9721C71.9822 86.103 73.3945 84.1508 74.6821 82.074C77.1742 77.962 79.251 73.4762 82.6984 70.0703C84.4845 68.3258 86.5612 66.872 89.0118 66.1659C89.1364 66.1244 89.2194 66.0829 89.261 65.9998C90.1332 68.6166 91.7947 71.0256 93.9545 72.7701C96.5297 74.8053 99.728 75.9268 103.009 75.9268C103.882 75.9268 104.712 75.8437 105.543 75.7191C105.584 75.8022 105.668 75.8853 105.709 76.0099C105.751 76.0514 105.792 76.1345 105.792 76.176C105.792 76.2176 105.792 76.2175 105.834 76.2591C105.834 76.2591 105.834 76.2591 105.834 76.3006C105.958 76.5914 106.041 76.8821 106.083 77.1729C106.083 77.2559 106.124 77.339 106.124 77.4221C106.124 77.4636 106.124 77.5051 106.124 77.5467C106.124 77.5467 106.124 77.5467 106.124 77.5882C106.124 77.7543 106.166 77.9205 106.166 78.0866C106.166 78.4189 106.166 78.7512 106.124 79.0835C106.083 79.4158 106.457 79.7065 106.747 79.7065C107.121 79.7065 107.329 79.4158 107.37 79.0835C107.454 78.3359 107.412 77.5882 107.246 76.8821C107.163 76.4252 106.997 76.0099 106.831 75.5945H106.872C107.578 75.4699 108.243 75.2622 108.949 75.0546C108.907 75.9683 109.696 76.799 110.569 76.9652C111.69 77.1729 112.646 76.5498 113.518 75.9683C113.559 75.9683 113.559 75.9268 113.601 75.9268C114.598 75.9683 115.511 75.553 116.384 75.0961C116.55 75.0545 116.674 75.013 116.841 74.9715C118.502 74.4315 119.914 73.1855 120.911 71.8148C121.991 70.361 122.614 68.575 122.78 66.789C122.822 66.3736 122.822 65.9998 122.822 65.5845C123.195 65.003 123.486 64.3384 123.569 63.6323C123.735 62.3447 123.196 61.0986 122.033 60.4756C121.783 60.351 121.534 60.2679 121.285 60.1848C120.62 58.565 119.914 56.862 118.627 55.6575C117.214 54.3283 115.428 54.0376 113.601 54.1206C113.767 53.8714 113.975 53.6222 114.141 53.3315C114.93 52.127 115.553 50.7978 116.135 49.4687C117.048 47.2258 117.713 44.8167 117.796 42.3661C117.879 40.3724 117.547 37.8387 115.802 36.5511C114.847 35.845 113.601 35.8866 112.645 36.5511C111.566 37.2988 111.109 38.5448 110.735 39.7909C110.029 42.0338 109.24 44.2767 108.243 46.3951C106.54 50.0917 104.297 53.4561 101.472 56.4051C98.1496 59.8525 94.2037 62.5939 90.0917 65.0445C89.8425 64.5461 89.1364 64.6291 88.9288 65.086C88.8042 65.0445 88.6796 65.0029 88.5134 65.0445C84.1106 66.2905 80.7878 69.738 78.2956 73.4347C76.8419 75.5945 75.5958 77.879 74.3082 80.1219C73.0206 82.3233 71.65 84.4416 70.0301 86.3937C68.3687 88.429 66.5411 90.2981 64.672 92.1256C63.592 91.0042 62.5122 89.8827 61.3907 88.8028C61.2661 88.6782 61.1414 88.6367 61.0168 88.6367C60.5599 84.6493 60.0615 80.6618 59.6047 76.6744C59.0232 71.9809 58.4832 67.2459 57.9017 62.5523C57.7771 61.6801 57.6941 60.8079 57.5695 59.9772C61.723 57.9835 65.8766 55.9482 70.0301 53.913C70.4455 53.7053 70.8608 53.4976 71.2346 53.3315C71.5669 53.1653 71.65 52.5838 71.3592 52.3346C66.4165 48.2226 61.5984 44.0275 56.7387 39.874C54.1635 37.6726 51.5883 35.4712 49.0131 33.3114C48.8885 33.2283 48.7639 33.1037 48.6393 33.0206C47.6425 28.0779 38.2969 21.6399 32.8973 26.2503C27.29 23.7997 18.2768 28.1194 15.037 33.3114C10.8835 39.9571 11.0912 48.2226 13.7495 53.7053C14.7048 55.699 15.8678 57.5681 17.1554 59.3541C16.657 61.8047 17.3215 64.5045 19.0245 66.3736C17.903 68.2843 16.2001 69.8211 14.1649 70.6933C11.4235 71.8979 8.14221 71.7732 5.4424 70.4441C4.77783 70.1118 3.82244 69.8211 3.49015 70.4441C3.28247 70.8595 3.53171 71.3579 3.82246 71.7732C7.72679 77.3805 14.1648 81.1603 20.9766 81.8664V81.9079C20.5197 83.6524 20.0628 85.4384 19.6059 87.1829C19.5229 87.4737 19.6475 87.7229 19.8552 87.8475C15.2448 93.2056 11.5065 99.3528 9.13902 106.082C7.93449 109.487 7.14536 112.976 6.68847 116.549C6.31465 119.664 6.14851 122.862 5.4424 125.936C4.65323 129.508 3.07484 132.789 0.208888 135.156C-0.414144 135.655 0.499677 136.569 1.08117 136.029C3.61484 133.91 5.27618 131.044 6.18996 127.888C7.06221 124.856 7.31142 121.699 7.6437 118.584C8.01752 115.095 8.59904 111.689 9.63743 108.324C10.7174 104.835 12.1712 101.43 13.9572 98.2314C15.9509 94.6593 18.3599 91.3365 21.0597 88.2628C30.9867 92.9564 41.9936 97.4007 53.1251 94.5762C55.908 93.8701 58.5662 92.7071 60.9338 91.0042C60.8507 91.1703 60.8507 91.3365 61.0168 91.5442C62.0137 92.9148 61.9306 94.9085 60.643 96.1131C59.397 97.2761 57.2787 97.1099 56.1157 95.9884C55.7419 95.6146 55.0773 95.9054 55.0358 96.4453C55.0358 97.7329 54.0389 98.6467 53.0006 99.2282C51.6714 99.9759 50.093 100.225 48.5562 100.308C45.0257 100.516 41.5782 99.5605 38.2969 98.3144C36.3863 97.5668 34.5173 96.7361 32.6482 95.8638C31.9421 95.5315 31.2775 96.6115 32.0251 96.9438C35.5972 98.6052 39.2522 100.267 43.1566 101.056C45.0672 101.471 47.0194 101.637 48.9301 101.513C50.5915 101.388 52.2529 101.097 53.7066 100.267C54.8281 99.6436 55.7419 98.7298 56.1157 97.5252C57.7771 98.4806 59.9369 98.356 61.4322 97.1099C62.969 95.8223 63.3428 93.4132 62.4706 91.6272C66.8318 96.0715 70.7362 101.014 73.3944 106.663C73.436 106.788 73.519 106.829 73.6021 106.912C71.4838 111.066 69.5732 115.552 66.2919 118.958C62.9691 122.405 58.3586 123.817 54.122 125.769C51.9206 126.766 49.6361 127.929 47.6424 129.425C47.6424 129.425 47.6425 129.383 47.6009 129.383C46.4379 127.389 44.7764 125.936 42.9489 124.565C41.0798 123.111 39.2523 121.74 38.0062 119.664C36.8017 117.67 36.054 115.427 34.8495 113.433C32.6481 109.654 28.6607 107.245 24.2579 107.12C23.2195 107.078 22.2227 107.203 21.2259 107.411C20.4367 107.577 20.7689 108.781 21.5581 108.615C25.3794 107.743 29.5745 109.114 32.2743 111.98C33.7696 113.599 34.6419 115.635 35.5556 117.587C36.4694 119.539 37.5078 121.45 39.0862 122.945C40.706 124.482 42.6166 125.686 44.2365 127.182C45.1918 128.054 46.0225 129.092 46.6871 130.214C45.9394 130.837 45.1919 131.543 44.5688 132.29C43.4058 133.703 42.5336 135.323 42.2844 137.15C42.0352 139.019 42.4505 141.262 43.6965 142.716C44.3611 143.464 45.3164 143.92 46.3133 143.754C47.2686 143.547 48.0162 142.757 48.4731 141.927C49.47 140.099 49.7192 137.732 49.5946 135.696C49.47 133.91 49.0131 132.166 48.2654 130.546C49.9684 129.258 51.8791 128.262 53.7066 127.348C57.6525 125.437 61.9307 124.191 65.4612 121.45C68.9917 118.667 71.193 114.596 73.1867 110.65C75.1805 106.705 77.0495 102.468 80.1232 99.2282C82.7814 96.1546 86.7688 94.1609 90.7147 95.49ZM111.898 75.3868C111.856 75.3868 111.815 75.4284 111.773 75.4284H111.732C111.649 75.4699 111.524 75.5114 111.441 75.5114C111.399 75.5114 111.358 75.553 111.275 75.553H111.192C111.15 75.553 111.109 75.553 111.109 75.553C111.067 75.553 111.026 75.553 110.984 75.553H110.943C110.943 75.553 110.943 75.553 110.984 75.553C110.943 75.553 110.901 75.553 110.901 75.5114C110.859 75.5114 110.818 75.4699 110.776 75.4699C110.776 75.4699 110.776 75.4699 110.735 75.4699C110.652 75.4284 110.61 75.3868 110.527 75.3453C110.486 75.3038 110.444 75.3038 110.444 75.2622C110.403 75.2207 110.403 75.2207 110.361 75.1792C110.361 75.1376 110.32 75.1376 110.32 75.0961C110.32 75.0545 110.32 75.0545 110.278 75.013C110.278 75.013 110.278 74.9715 110.278 74.93C110.278 74.93 110.278 74.8884 110.278 74.8469C110.32 74.7223 110.278 74.5561 110.236 74.4315C110.527 74.3069 110.86 74.1823 111.15 74.0577C111.316 74.5561 111.69 74.9715 112.105 75.2622C112.022 75.3038 111.981 75.3453 111.898 75.3868ZM113.476 74.473C113.061 74.4315 112.729 74.2654 112.479 73.9746C112.396 73.8915 112.313 73.6839 112.272 73.6008C112.272 73.5593 112.272 73.5593 112.272 73.5177C112.687 73.3101 113.061 73.1024 113.476 72.8532C113.518 73.4762 113.767 74.0577 114.265 74.4315C113.975 74.4731 113.725 74.5146 113.476 74.473ZM120.039 70.7764C119.374 71.8563 117.754 73.5177 116.051 73.6839C114.805 73.85 114.639 72.9778 114.805 72.0225C116.01 71.2333 117.173 70.4026 118.294 69.5303C119.416 68.6581 120.537 67.7858 121.617 66.8305C121.368 68.2427 120.786 69.5719 120.039 70.7764ZM117.796 56.2805C118.834 57.2358 119.416 58.565 119.956 59.811C118.253 59.9356 116.633 61.1817 115.387 62.3862L115.345 62.4277C115.345 62.3862 115.304 62.3862 115.304 62.3447C114.805 61.3063 114.058 60.351 113.019 59.811C111.939 59.2295 110.735 59.2295 109.572 59.5618C110.195 58.4404 111.026 57.3604 111.815 56.3636C112.106 55.9898 112.396 55.6159 112.687 55.2421C114.473 55.0344 116.384 54.9929 117.796 56.2805ZM110.236 62.5523C110.278 62.5523 110.319 62.5523 110.361 62.5523C110.486 62.5939 110.569 62.5939 110.693 62.6354C110.735 62.6354 110.901 62.7185 110.776 62.677C110.818 62.677 110.859 62.7185 110.901 62.7185C110.984 62.76 111.109 62.8431 111.192 62.8847C111.233 62.9262 111.275 62.9262 111.275 62.9677C111.275 62.9677 111.358 63.0092 111.358 63.0508C111.524 63.1754 111.649 63.3415 111.815 63.5077C111.856 63.5492 111.856 63.5908 111.898 63.6323C111.939 63.7154 112.022 63.7984 112.064 63.8815C112.106 63.9646 112.147 64.0476 112.189 64.1307C112.189 64.1307 112.189 64.1307 112.189 64.1722C112.189 64.2138 112.23 64.2553 112.23 64.2553C112.272 64.3799 112.313 64.5045 112.313 64.6291C112.064 64.7122 111.815 64.7953 111.566 64.8368C110.527 65.0029 109.364 64.5876 108.949 63.5907V63.5492C108.907 63.4246 108.866 63.3 108.824 63.1754C108.783 63.0508 108.741 62.9262 108.658 62.8847C108.658 62.8016 108.617 62.76 108.617 62.677C108.7 62.7185 108.824 62.7185 108.949 62.677C109.073 62.6354 109.24 62.5939 109.364 62.5523L109.53 62.5108C109.572 62.5108 109.613 62.5108 109.655 62.5108C109.78 62.5108 109.904 62.5108 110.029 62.5108C110.112 62.5524 110.278 62.5523 110.236 62.5523ZM112.189 62.137C111.192 61.3478 109.946 61.1401 108.741 61.514C108.783 61.3894 108.824 61.2232 108.866 61.0986C108.907 61.0986 108.949 61.0986 109.032 61.0571C110.236 60.5587 111.607 60.3094 112.77 61.0986C113.559 61.597 114.099 62.5108 114.432 63.3415C114.141 63.5907 113.85 63.84 113.559 64.0476C113.268 63.3 112.77 62.5939 112.189 62.137ZM100.974 58.5234C103.84 55.8652 106.291 52.75 108.16 49.261C109.198 47.3919 110.07 45.3982 110.818 43.4045C111.233 42.3246 111.607 41.2031 111.939 40.0817C112.272 39.0017 112.687 37.3819 113.975 37.1326C115.096 36.8834 115.844 38.0879 116.176 38.9602C116.467 39.7909 116.591 40.7047 116.591 41.6185C116.591 44.0275 115.968 46.395 115.096 48.638C114.556 50.0502 113.85 51.3793 113.019 52.6669C112.189 53.9545 111.233 55.1175 110.278 56.2805C109.406 57.402 108.575 58.6065 107.952 59.9356C107.329 61.3063 107.08 62.5939 107.744 63.923C108.035 64.8368 108.783 65.5429 109.697 65.9167C110.776 66.3321 111.939 66.2075 113.019 65.7506C114.224 65.2106 115.221 64.2553 116.176 63.3415C117.09 62.4693 118.087 61.514 119.374 61.1817C120.288 60.9325 121.534 61.0986 122.116 61.9293C122.905 63.0508 122.116 64.5045 121.285 65.3768C120.371 66.3736 119.25 67.1628 118.17 67.9935C117.09 68.8242 116.051 69.6965 114.888 70.4441C104.837 76.8406 95.9067 74.1823 92.2516 69.1565C91.5455 68.2012 90.964 67.1628 90.5486 66.0413C94.2453 63.84 97.8174 61.4309 100.974 58.5234ZM46.3133 94.0363C40.8306 94.1194 35.4726 92.7071 30.3637 90.7965C27.4147 89.675 24.5487 88.3874 21.7243 87.0168C21.6412 86.726 21.3504 86.5183 21.0597 86.5183C22.638 80.5788 24.0918 74.5976 25.4209 68.575C25.4209 68.5335 25.4209 68.5335 25.4209 68.4919C27.0408 68.3673 28.5777 67.7858 29.8237 66.7059C30.0729 66.4982 30.1145 66.0829 29.9068 65.8337C29.6991 65.5845 29.2837 65.5429 29.0345 65.7506C26.7085 67.7443 22.8042 67.7443 20.4782 65.7091C18.1522 63.6738 17.6538 59.811 19.3983 57.2358C21.1012 54.6606 24.881 53.6638 27.6639 55.0344C27.9546 55.2006 28.3285 55.076 28.4946 54.7437C28.6607 54.4529 28.5361 54.0791 28.2038 53.913C27.913 53.7468 27.5808 53.6638 27.2485 53.5392C27.3731 51.8777 27.4562 50.2163 27.4146 48.5964L27.7054 47.5996C29.9898 47.8072 32.2743 47.0181 34.3926 46.0628C36.8017 44.9413 39.2107 43.4045 40.4153 41.037C41.4121 39.0433 41.4537 36.6757 40.9553 34.4744C40.5399 32.6053 39.7092 30.8608 38.8785 29.1578C39.8338 29.3655 40.7475 29.6147 41.6198 29.947C43.6965 30.6946 45.6487 31.8576 47.3101 33.2283C49.8022 35.3051 52.2944 37.4234 54.745 39.5417C59.8124 43.8614 64.7966 48.2226 69.9055 52.4592C66.7072 54.0376 63.509 55.5744 60.2693 57.1527C59.0647 57.7342 57.8601 58.3157 56.6556 58.8972C56.4895 58.9803 56.3233 59.2295 56.3649 59.4372C56.6972 62.2201 57.0295 65.003 57.3618 67.7858C57.9848 72.9362 58.6078 78.1282 59.2309 83.2786C59.4801 85.4384 59.7292 87.5983 59.9784 89.7581C59.9784 89.8412 60.0201 89.9243 60.0616 90.0073C56.0326 92.7487 51.173 93.9947 46.3133 94.0363ZM61.3077 90.5888C61.3077 90.5888 61.3076 90.5473 61.3491 90.5473C61.3907 90.5058 61.4322 90.5058 61.4738 90.4642C61.4738 90.4227 61.5153 90.4227 61.5153 90.3811C61.5569 90.4227 61.5983 90.4642 61.6399 90.5058C61.5153 90.5058 61.3907 90.5473 61.3077 90.5888ZM48.307 137.981C48.1824 138.936 47.9747 139.933 47.5594 140.805C47.2271 141.511 46.604 142.425 45.6903 142.342C44.7765 142.217 44.195 141.179 43.9458 140.431C43.655 139.559 43.4889 138.645 43.4889 137.732C43.5304 136.112 44.2365 134.616 45.1919 133.329C45.8149 132.54 46.521 131.834 47.2686 131.169C47.3932 131.418 47.4763 131.709 47.6009 131.958C48.307 133.869 48.5978 135.946 48.307 137.981ZM47.5594 115.095C47.9747 115.386 48.4731 115.51 48.9715 115.469C49.0131 115.676 49.0547 115.842 49.1377 116.05C49.7608 117.338 51.4637 118.085 52.8344 118.085C54.1635 118.085 55.5342 117.13 55.5757 115.759C56.5726 115.469 57.4448 114.679 57.6525 113.475C57.8186 112.353 57.4032 111.232 56.4479 110.609C55.8664 110.194 55.1188 110.069 54.4127 110.152C54.2881 108.657 52.7928 107.452 51.256 108.117C50.0099 107.66 48.6809 107.535 47.6009 108.408C46.6872 109.155 46.2302 110.65 46.8533 111.689C46.1887 112.769 46.4379 114.347 47.5594 115.095ZM48.1408 111.232C47.5178 110.692 47.9331 109.695 48.5562 109.28C49.0546 108.948 49.5946 108.948 50.1761 109.072C49.8438 109.612 49.7192 110.235 49.9269 110.858C50.2591 111.897 51.3391 112.686 52.419 112.561C52.7513 112.52 53.042 112.312 53.042 111.938C53.042 111.647 52.7513 111.274 52.419 111.315C51.3806 111.44 50.6745 110.235 51.3806 109.529C51.6714 109.654 51.9206 109.82 52.1283 109.944C52.5021 110.194 52.8759 109.944 53.0006 109.612C53.2082 109.903 53.3328 110.318 53.1251 110.692C52.8759 111.232 53.4159 111.855 53.9974 111.564C55.2019 110.9 56.6556 111.938 56.4479 113.267C56.3233 113.973 55.825 114.43 55.285 114.555C54.745 113.766 53.6651 113.392 52.7929 113.932C52.4191 114.139 52.3775 114.596 52.6682 114.929C53.1251 115.427 53.7482 115.718 54.3297 115.842C54.1635 116.632 53.2497 116.922 52.5436 116.839C51.796 116.756 50.8822 116.382 50.4253 115.759C50.2591 115.552 50.1761 115.344 50.1761 115.095C50.633 114.804 51.0483 114.389 51.256 113.849C51.4221 113.516 51.0483 113.018 50.6745 113.06C49.9269 113.143 49.4285 113.6 49.1377 114.181C48.8054 114.223 48.4732 114.181 48.224 114.015C47.6425 113.558 47.684 112.603 48.1824 112.104C48.3901 111.897 48.39 111.44 48.1408 111.232ZM128.927 83.0294C128.595 85.3138 127.931 87.5983 126.975 89.7166C123.735 96.6945 117.007 100.765 110.278 103.88C110.901 108.864 110.61 113.973 109.157 118.791C107.869 123.111 105.668 127.099 102.677 130.463C101.14 132.207 99.4372 133.744 97.6096 135.156C95.8652 136.486 94.0791 137.732 92.3761 139.102C90.7562 140.431 89.178 141.844 87.9734 143.588C86.6028 145.623 86.0628 147.908 85.8551 150.317C85.6474 152.767 85.6059 155.26 84.5675 157.544C83.7368 159.413 82.2415 161.075 80.2063 161.573C79.4171 161.781 79.0848 160.576 79.874 160.368C82.1585 159.787 83.4461 157.586 84.0275 155.426C84.7752 152.601 84.4429 149.611 85.1906 146.745C86.2705 142.591 89.5518 139.642 92.8331 137.15C94.536 135.863 96.2805 134.658 97.9419 133.287C99.6864 131.834 101.306 130.214 102.719 128.428C108.16 121.574 110.029 112.769 109.073 104.212C108.575 104.088 108.284 103.34 108.866 103.091C110.943 102.177 112.978 101.18 114.93 100.017C118.087 98.1898 121.077 95.9884 123.362 93.0809C125.771 90.0489 127.141 86.3937 127.723 82.614C127.847 81.9079 129.052 82.2402 128.927 83.0294Z" fill="#3F4254"/>
<path d="M135.365 66.166C135.365 63.6738 132.416 62.3032 130.506 63.9646L111.192 80.7034C110.569 81.2434 110.195 82.0741 110.195 82.9048V87.0168C110.984 86.9753 111.773 86.9337 112.604 86.8922C114.515 86.7676 116.467 86.6014 118.253 85.8953C119.831 85.2723 121.409 83.8186 123.237 84.2339C123.985 84.4001 124.483 84.8154 124.774 85.3969L127.764 82.8217C127.764 82.7802 127.764 82.7386 127.806 82.6971C127.847 82.3233 128.138 82.1987 128.429 82.2402L134.452 77.0483C135.075 76.5083 135.448 75.6776 135.448 74.8469L135.365 66.166Z" fill="#9ED5F0"/>
<path d="M122.614 84.7325C123.902 83.7356 125.189 82.6973 126.477 81.7004C128.429 80.1636 130.464 78.6683 132.375 77.0484C132.873 76.6331 133.33 76.1762 133.496 75.5116C133.704 74.6809 133.538 73.7671 133.496 72.8949C133.33 69.9874 133.206 67.1214 133.039 64.214C132.998 63.4248 131.752 63.4248 131.793 64.214C131.918 66.7061 132.043 69.1567 132.167 71.6488C132.209 72.6872 132.333 73.7256 132.333 74.764C132.333 75.3455 132.042 75.6362 131.627 76.01C129.8 77.5469 127.889 78.9591 126.02 80.4128C124.068 81.9496 122.116 83.4864 120.122 85.0233" fill="#3F4254"/>
</svg>
