<svg width="200" height="215" viewBox="0 0 200 215" fill="none" xmlns="http://www.w3.org/2000/svg">
<path d="M45.0335 97.3153C39.6225 95.9522 35.1615 92.2761 30.9071 88.6825C22.4808 81.578 14.0132 74.4735 5.58691 67.4103C14.4676 68.4842 23.5547 68.0711 32.3114 66.1298C35.2441 65.4689 38.2594 64.6428 40.6138 62.7428C43.2987 60.5949 44.9096 57.4144 46.2727 54.2752C52.2619 40.8096 56.2686 24.4527 48.5858 11.8959C53.9555 21.2309 60.2339 30.0703 67.2558 38.2074C77.7473 23.9158 90.1802 11.0285 104.059 0C102.531 8.13715 104.183 16.8113 108.561 23.8332C110.337 26.6419 112.65 29.3267 115.748 30.4833C119.961 32.0529 124.67 30.6072 128.883 28.9963C139.829 24.9071 150.486 19.9917 160.73 14.3742C151.353 22.0983 141.275 31.1029 140.118 43.2053C139.912 45.2706 140.16 47.7077 141.812 48.9468C143.175 49.9382 144.992 49.8555 146.686 49.7316C159.904 48.699 173.121 47.625 186.339 46.5923C179.73 51.1772 173.452 56.2991 167.669 61.8753C165.645 63.858 163.621 67.2451 165.686 69.1864C166.884 70.3017 168.743 70.1364 170.354 69.9299C178.945 68.8972 187.743 69.6821 196.046 72.1604C197.409 72.5735 198.896 73.1104 199.598 74.3909C200.92 76.704 198.731 79.3888 196.707 81.1236C184.852 91.2021 171.8 99.8762 157.88 106.898C148.958 111.4 139.623 115.283 131.775 121.479C127.355 124.99 123.225 129.286 117.731 130.566C110.916 132.136 103.976 128.501 98.4 124.288C92.7825 120.075 87.4954 115.035 80.8039 113.094C75.269 111.483 69.1558 112.144 63.8274 109.955C55.649 106.609 50.1554 96.9436 41.316 96.7371" fill="#F4F6F9"/>
<path d="M182.25 101.363C181.383 106.114 179.276 110.575 177.046 114.87C173.865 121.025 170.437 127.014 166.802 132.921C165.191 135.523 163.456 138.208 160.978 140.025C157.302 142.71 152.469 143.164 147.884 142.586C144.91 146.056 141.895 149.525 138.26 152.334C137.103 153.243 135.864 154.069 134.46 154.565C130.536 155.887 126.075 153.986 122.027 154.028C121.738 154.399 121.407 154.73 121.035 155.06C115.088 160.678 107.033 163.941 98.8545 164.024C91.8326 164.106 84.852 161.834 79.1519 157.704C77.9127 158.571 76.7974 159.645 75.8887 160.884C72.9974 164.726 74.98 168.65 75.4757 174.309C75.1865 174.35 74.9387 174.433 74.6909 174.474C76.9214 178.646 78.2844 183.272 78.6562 188.022C73.0387 187.857 67.4211 188.807 62.1341 190.831L62.258 191.161C60.3992 188.311 58.9122 185.213 57.797 181.95C57.6731 181.578 57.5492 181.165 57.5079 180.752C56.3513 181.372 55.2361 182.033 54.1208 182.694C47.0989 177.324 40.5314 171.128 36.3182 163.363C32.1464 155.597 30.6181 146.056 33.8812 137.836C36.8552 130.401 44.2902 124.618 52.1795 124.494C50.5686 120.447 49.7838 116.027 49.949 111.69C50.2794 102.727 54.4926 94.259 60.2753 87.361C60.6058 86.9479 60.9775 86.5348 61.3079 86.163C55.0295 78.6455 48.7098 71.1692 42.4314 63.6516C57.9622 50.5578 75.1452 39.3641 93.4435 30.4834C95.3022 29.5747 97.574 28.7073 99.2676 29.8639C99.9697 30.3595 100.465 31.1444 100.92 31.8879C108.479 44.5273 116.038 57.208 123.596 69.8474C131.238 73.1932 137.888 78.976 141.895 86.3283C142.762 87.8979 143.506 89.5501 144.084 91.2436C144.373 90.9958 144.662 90.7479 144.91 90.5001C149.867 86.2044 155.567 82.4869 162.01 81.3303C168.454 80.2151 175.765 82.1564 179.606 87.4848C182.539 91.3675 183.117 96.6133 182.25 101.363ZM100.92 163.982C96.3349 163.982 92.6587 175.259 92.6587 189.179C92.6587 203.099 96.3762 214.375 100.92 214.375C105.463 214.375 109.181 203.099 109.181 189.179C109.181 175.259 105.505 163.982 100.92 163.982ZM55.4013 185.668C52.3447 186.494 51.3947 192.855 53.2947 199.835C55.1948 206.816 59.2014 211.855 62.2993 210.988C65.3559 210.162 66.3059 203.801 64.4058 196.82C62.5058 189.798 58.4579 184.8 55.4013 185.668ZM137.888 180.215C134.708 179.885 131.568 185.461 130.825 192.69C130.081 199.918 132.064 206.031 135.203 206.32C138.384 206.651 141.523 201.074 142.266 193.846C143.01 186.659 141.027 180.546 137.888 180.215Z" fill="white"/>
<path d="M168.123 158.406C167.421 157.993 168.082 156.919 168.743 157.332C173.369 160.099 177.995 162.908 182.621 165.675C183.323 166.088 182.663 167.162 182.002 166.749C177.375 163.982 172.749 161.173 168.123 158.406ZM161.514 165.345C164.158 167.988 166.801 170.632 169.445 173.276C170.023 173.854 170.89 172.945 170.312 172.408C167.669 169.765 165.025 167.121 162.382 164.478C161.803 163.899 160.936 164.767 161.514 165.345ZM21.5304 167.245C16.739 169.352 11.9476 171.499 7.15616 173.606C6.41266 173.936 7.07355 175.01 7.77574 174.68C12.5672 172.573 17.3586 170.426 22.15 168.319C22.8522 167.988 22.2326 166.956 21.5304 167.245ZM24.174 112.309C16.4086 113.796 8.47792 114.291 0.588601 113.755C-0.1962 113.713 -0.1962 114.952 0.588601 114.994C8.60184 115.531 16.6564 114.994 24.5044 113.507C25.2892 113.383 24.9588 112.185 24.174 112.309ZM21.3239 120.281C17.8955 120.983 14.4259 121.644 10.9976 122.346C10.2127 122.511 10.5432 123.709 11.328 123.544C14.7563 122.842 18.226 122.181 21.6543 121.479C22.4391 121.313 22.1087 120.116 21.3239 120.281ZM118.185 32.7961C119.218 30.4004 120.25 27.9633 121.283 25.5676C121.407 25.2785 121.365 24.9067 121.076 24.7002C120.828 24.535 120.374 24.6176 120.209 24.9067C119.176 27.3024 118.144 29.7394 117.111 32.1351C116.987 32.4243 117.028 32.7961 117.317 33.0026C117.565 33.1678 118.02 33.1265 118.185 32.7961ZM47.3462 26.5589C45.6114 24.4937 43.8766 22.4284 42.1831 20.3631C41.9766 20.1153 41.5222 20.1566 41.3157 20.3631C41.0678 20.6109 41.1092 20.9827 41.3157 21.2306C43.0505 23.2958 44.7853 25.3611 46.4788 27.4264C46.6854 27.6742 47.1397 27.6329 47.3462 27.4264C47.5941 27.1785 47.5528 26.8068 47.3462 26.5589ZM34.5829 23.3784C37.6395 25.8154 40.6548 28.2938 43.7114 30.7308C44.331 31.2265 45.1984 30.359 44.5788 29.8633C41.5222 27.4263 38.5069 24.9481 35.4503 22.5111C34.8307 22.0154 33.9633 22.8828 34.5829 23.3784Z" fill="#3F4254"/>
<path d="M121.985 164.272C122.315 170.591 122.356 176.911 122.109 183.231C122.109 183.726 121.572 183.892 121.241 183.768H121.2C117.565 184.098 113.93 184.429 110.295 184.759C109.51 184.842 109.51 183.602 110.295 183.52C113.848 183.189 117.358 182.859 120.911 182.57C121.117 176.457 121.076 170.344 120.746 164.272C119.011 164.189 117.317 164.106 115.582 163.941C114.798 163.859 114.798 162.619 115.582 162.702C117.482 162.867 119.424 162.991 121.324 163.032V162.785C121.324 162.867 121.324 162.95 121.324 163.032C127.726 163.239 134.128 162.867 140.489 161.917C141.274 161.793 141.605 162.991 140.82 163.115C134.583 164.065 128.304 164.437 121.985 164.272ZM105.173 190.831C105.008 191.616 106.206 191.946 106.371 191.161C107.487 185.957 107.239 180.546 105.71 175.424C105.463 174.681 104.306 174.97 104.513 175.755C106 180.67 106.247 185.874 105.173 190.831ZM98.6885 169.104C96.4993 172.574 95.384 176.705 95.5906 180.794C95.6319 181.579 96.871 181.579 96.8297 180.794C96.6645 176.911 97.6559 173.028 99.7624 169.724C100.175 169.063 99.1015 168.443 98.6885 169.104ZM137.144 184.016C137.929 183.685 138.342 184.346 138.507 185.007C139.126 186.99 139.25 189.137 138.92 191.161C138.879 191.492 139.003 191.822 139.333 191.905C139.622 191.987 140.035 191.822 140.076 191.492C140.283 190.17 140.366 188.848 140.242 187.485C140.118 186.246 139.911 184.883 139.333 183.768C138.755 182.735 137.598 182.363 136.524 182.859C135.368 183.396 134.955 184.635 134.624 185.75C134.418 186.535 135.615 186.866 135.822 186.081C136.111 185.379 136.359 184.346 137.144 184.016ZM55.8962 200.538C55.607 200.62 55.3592 200.992 55.4831 201.281C56.4331 203.842 57.7962 206.238 59.4897 208.386C59.8615 208.881 60.3158 209.294 60.9354 209.46C61.5137 209.584 62.1333 209.46 62.6289 209.129C63.7442 208.427 64.0333 207.105 64.1985 205.907C64.2398 205.577 64.1159 205.247 63.7855 205.164C63.4963 205.081 63.0833 205.247 63.042 205.577C62.9181 206.486 62.7941 207.642 61.9267 208.138C61.018 208.675 60.3571 207.518 59.9028 206.899C58.581 205.081 57.507 203.057 56.6809 200.951C56.557 200.662 56.2266 200.455 55.8962 200.538ZM181.34 106.94C179.895 110.823 177.953 114.54 175.971 118.175C173.906 122.016 171.758 125.816 169.527 129.534C167.503 132.962 165.521 136.721 162.547 139.447C159.903 141.884 156.475 143.041 152.922 143.289C151.311 143.412 149.701 143.33 148.131 143.165C146.396 145.189 144.661 147.171 142.803 149.071C141.274 150.6 139.622 152.128 137.846 153.408C137.557 153.078 137.268 152.789 136.979 152.5C137.061 152.417 137.144 152.376 137.268 152.293C140.944 149.608 144 146.097 146.974 142.669C144.703 141.512 142.348 140.48 139.953 139.612C137.598 138.786 135.202 138.125 132.807 137.588C131.691 137.341 130.411 137.01 129.337 137.464C128.924 137.63 128.635 137.878 128.346 138.167C128.346 138.208 128.346 138.249 128.346 138.291C128.387 139.612 127.561 140.728 126.446 141.306C124.546 144.858 122.687 148.452 120.828 152.004C120.332 152.417 119.837 152.871 119.424 153.367C119.382 153.45 119.341 153.532 119.3 153.615L118.763 154.441C118.68 154.482 118.598 154.482 118.515 154.524C118.391 154.689 118.267 154.854 118.143 155.061C118.061 154.978 117.978 154.854 117.978 154.73C114.921 155.763 111.576 155.969 108.271 155.763C107.321 155.721 106.371 155.639 105.463 155.556C105.669 157.002 105.339 158.489 104.306 159.604C103.563 160.43 102.571 160.967 101.497 161.091C101.621 161.793 101.704 162.495 101.828 163.198C106.371 162.743 110.791 161.298 114.756 158.985C115.5 158.53 116.243 158.076 116.945 157.58C116.739 158.158 116.574 158.778 116.45 159.398C115.582 159.935 114.715 160.43 113.806 160.885C110.502 162.537 106.991 163.693 103.356 164.23C107.156 167.204 109.841 177.076 109.841 189.096C109.841 189.385 109.841 189.716 109.841 190.005C111.865 189.922 113.889 189.964 115.872 190.087C120.746 190.459 125.578 191.574 130.163 193.351C130.163 193.103 130.204 192.855 130.246 192.566C131.031 184.883 134.459 179.183 138.011 179.555C141.563 179.926 143.753 186.205 142.968 193.888C142.596 197.44 141.646 200.786 140.283 203.181C138.92 205.618 137.226 206.899 135.574 206.899C135.45 206.899 135.368 206.899 135.244 206.899C133.468 206.734 131.981 205.04 131.072 202.231C130.37 200.083 130.081 197.44 130.163 194.631C123.72 192.111 116.78 190.914 109.882 191.244C109.51 204.668 105.752 214.871 101.002 214.871C96.3341 214.871 92.6166 204.957 92.1622 191.822C88.61 192.07 85.0577 192.566 81.5468 193.268C81.4642 193.309 81.4228 193.309 81.3402 193.309C81.2989 194.094 81.2576 194.879 81.2576 195.664C81.2163 196.449 79.9772 196.449 80.0185 195.664C80.1011 193.144 80.225 190.583 80.3076 188.063C80.3076 187.609 80.7207 187.403 81.0924 187.485C81.1337 187.32 81.2576 187.155 81.5055 187.114C84.9751 186.122 88.61 185.585 92.2035 185.544C92.6579 175.548 95.0123 167.535 98.1928 164.519C96.9123 164.519 95.5906 164.396 94.3101 164.23C88.9404 163.528 83.7773 161.463 79.3163 158.365C78.3663 159.067 77.4989 159.893 76.7554 160.843C75.351 162.619 74.9792 164.685 75.1858 166.915C75.2684 167.659 75.351 168.402 75.4749 169.146C75.6814 169.972 75.8879 170.757 76.0532 171.583C76.0945 171.789 76.0532 171.954 75.9705 172.078C76.0945 172.781 76.1771 173.483 76.2597 174.185C76.301 174.433 76.0532 174.722 75.8053 174.763H75.764C76.3836 175.961 76.9206 177.242 77.3749 178.522C78.4902 181.537 79.151 184.676 79.3989 187.898C79.3989 188.022 79.3576 188.146 79.275 188.27C78.9032 187.816 78.4902 187.361 78.0358 186.99C77.5815 182.818 76.3423 178.77 74.4422 175.052C68.8247 176.291 63.3724 178.274 58.3332 180.959C58.4571 181.62 58.7875 182.322 58.9941 182.859C59.3245 183.768 59.6963 184.676 60.1093 185.544C60.2745 185.916 60.4811 186.329 60.6463 186.7C60.5224 186.824 60.3984 186.948 60.3158 187.072C60.5224 187.279 60.6876 187.527 60.8941 187.733C62.505 189.757 63.9094 192.566 64.8181 195.705C69.7334 195.829 74.6488 195.994 79.5641 196.242C80.3489 196.283 80.3489 197.522 79.5641 197.481C74.7727 197.233 69.94 197.068 65.1485 196.944C67.0073 204.214 65.8507 210.492 62.4637 211.401C62.1746 211.484 61.9267 211.525 61.6376 211.525C58.3745 211.525 54.5744 206.651 52.7156 199.794C50.6917 192.359 51.8069 185.792 55.2766 184.842C56.3918 184.553 57.5897 184.842 58.7875 185.709C58.168 184.346 57.5897 182.942 57.1766 181.496C56.3092 181.992 55.4005 182.487 54.5744 183.024C54.4092 183.148 54.12 183.148 53.9548 183.024C48.9982 179.224 44.248 175.052 40.3653 170.137C33.5913 161.545 29.4194 149.98 32.8478 139.117C35.4087 131.021 42.9263 124.247 51.4765 123.71C50.2786 120.405 49.5764 116.894 49.4938 113.342C49.2873 104.131 53.2526 95.2917 58.8701 88.1459C59.4484 87.4024 60.068 86.6589 60.6876 85.9567C54.5331 78.6043 48.3373 71.252 42.1828 63.8997C41.9763 63.6518 41.8936 63.2387 42.1828 63.0322C42.9263 62.3713 43.7111 61.7518 44.4959 61.1322C50.6504 56.093 57.0114 51.3429 63.6203 46.8819C70.2291 42.4209 77.0445 38.3316 84.0251 34.5315C85.7599 33.5815 87.536 32.6728 89.3122 31.7641C91.047 30.8967 92.7405 29.9466 94.5166 29.2444C96.0863 28.5835 97.945 28.1706 99.5146 28.9967C100.299 29.4097 100.836 30.1119 101.291 30.8141C101.869 31.6815 102.365 32.5902 102.902 33.4989C107.404 41.0578 111.947 48.6167 116.45 56.1756C119.052 60.5127 121.613 64.8497 124.215 69.1454C128.139 70.8803 131.774 73.2346 134.955 76.126C139.002 79.8022 142.555 84.6349 144.579 89.922C149.37 85.7502 154.864 82.074 161.101 80.7109C167.379 79.3478 174.69 80.6696 179.193 85.5436C184.438 91.4503 183.901 100.042 181.34 106.94ZM59.8615 188.683C58.5397 187.072 57.2179 186.163 56.1027 186.163C55.9375 186.163 55.7722 186.205 55.5657 186.246C53.17 186.907 51.9308 192.442 53.8722 199.67C55.8135 206.899 59.6962 211.071 62.092 210.41C64.4877 209.749 65.7268 204.255 63.7855 197.109C61.9267 197.068 60.068 197.027 58.2092 197.027C57.4244 197.027 57.4244 195.788 58.2092 195.788C59.9441 195.829 61.6789 195.829 63.4137 195.87C62.5463 193.02 61.3071 190.5 59.8615 188.683ZM131.32 193.888C133.096 194.631 134.831 195.457 136.524 196.407C137.226 196.779 136.607 197.853 135.905 197.481C134.376 196.655 132.848 195.87 131.237 195.209C131.196 197.688 131.485 200.042 132.105 201.942C132.848 204.255 133.963 205.618 135.244 205.742C136.483 205.866 137.887 204.751 139.085 202.644C140.366 200.372 141.274 197.233 141.646 193.805C142.431 186.37 140.283 181.083 137.805 180.835C137.722 180.835 137.681 180.835 137.598 180.835C135.161 180.835 132.146 185.503 131.402 192.772C131.402 193.144 131.361 193.516 131.32 193.888ZM116.037 67.9889C115.293 71.252 114.674 74.5565 114.219 77.8609C112.608 89.5503 112.815 101.487 114.839 113.094C114.88 113.259 114.839 113.383 114.756 113.507C115.582 113.755 116.367 114.003 117.193 114.251C116.698 111.194 116.285 108.138 115.995 105.04C114.963 93.1025 115.83 81 118.515 69.3106C118.68 68.5258 119.878 68.8563 119.713 69.6411C118.969 72.9042 118.35 76.2087 117.895 79.5131C116.326 90.7069 116.491 102.148 118.267 113.301C118.969 112.64 119.63 111.979 120.291 111.277C121.117 110.368 122.026 109.377 122.398 108.138C122.439 108.014 122.48 107.848 122.48 107.725C122.233 107.931 121.943 108.096 121.572 108.179C120.622 108.468 119.424 108.22 118.845 107.353C118.226 106.403 118.598 105.246 119.424 104.585C120.332 103.883 121.489 103.842 122.398 104.544C122.522 104.627 122.646 104.751 122.769 104.875C122.976 104.131 123.059 103.388 123.1 102.685C123.306 99.9179 122.604 97.1505 121.2 94.7961C120.787 94.0939 121.861 93.4743 122.274 94.1765C122.976 95.3331 123.513 96.5722 123.843 97.8526C124.546 100.372 124.67 103.346 123.761 105.783C123.72 105.948 123.637 106.114 123.554 106.279C123.678 106.651 123.72 107.064 123.72 107.477C123.637 108.881 122.893 110.12 122.026 111.153C120.952 112.475 119.713 113.59 118.474 114.788C118.515 115.242 118.102 115.531 117.73 115.531C117.524 115.738 117.317 115.986 117.111 116.192C115.624 117.844 114.384 119.827 114.508 122.14C114.632 124.412 116.119 126.519 117.978 127.758C120.085 129.162 122.646 129.534 125.083 128.997C130.618 127.84 134.418 123.338 137.35 118.836C138.92 116.44 140.407 114.003 141.77 111.483C143.133 108.922 144.29 106.279 144.785 103.388C145.777 97.77 144.207 91.9047 141.563 86.9067C139.292 82.6523 136.111 78.9348 132.394 75.8782C127.685 71.9955 122.026 69.2693 116.037 67.9889ZM121.406 105.37C120.704 105.081 119.341 105.907 119.961 106.733C120.58 107.559 121.819 106.898 122.233 106.279C122.233 106.238 122.274 106.238 122.274 106.196C122.109 105.825 121.819 105.535 121.406 105.37ZM61.3898 85.2132C65.9333 80.1739 71.3031 75.9195 76.838 71.9542C76.301 70.715 76.1771 69.3107 76.6314 68.0302C77.1271 66.6258 78.2836 65.5518 79.6054 64.9735C75.8466 61.793 71.9639 53.9037 75.3097 49.8145C79.688 44.4448 85.1816 46.7992 86.4621 39.4056C90.1383 41.3469 90.3861 46.5514 89.1056 48.4102C88.6926 49.0297 88.1969 49.5254 87.7426 49.9384C88.8991 50.0211 90.0557 50.2689 91.1709 50.6406C92.8644 51.2602 94.4753 52.169 96.1275 52.9538C97.8211 53.7799 99.4733 54.606 101.167 55.4321C104.306 57.0017 107.445 58.5713 110.626 60.0996C110.956 60.2648 111.039 60.8431 110.75 61.0909C108.271 63.1975 105.793 65.304 103.273 67.3693C103.439 67.8649 103.645 68.3193 103.81 68.815C105.958 74.3912 108.106 79.9674 110.213 85.5436C110.337 85.9154 110.13 86.1632 109.841 86.2458C109.345 88.435 108.271 90.4177 106.826 92.1112C103.893 95.5809 99.432 97.5635 94.9297 97.3156C90.3861 97.0678 85.9664 94.7961 83.3229 91.0786C83.2403 90.9547 83.199 90.8307 83.199 90.7481C83.1577 90.6655 83.1577 90.5829 83.1577 90.459C83.2403 85.2132 83.1577 80.0088 82.9512 74.763C82.4968 74.8869 82.0011 74.9695 81.5055 74.9695C80.7207 74.9695 79.8945 74.8043 79.1924 74.4325C78.5315 74.1021 77.9532 73.6064 77.4988 72.9868C75.764 74.226 74.0705 75.4651 72.377 76.7869C72.4596 76.8282 72.5422 76.8695 72.6248 76.9521C74.9379 79.4717 77.0445 82.1979 78.9445 85.048C82.2903 90.0872 84.9751 95.5809 86.9578 101.281C88.8578 106.816 90.0144 112.599 90.4687 118.423C91.8731 117.886 93.2362 117.349 94.5993 116.729C98.2754 115.118 101.993 113.383 105.958 112.723C107.858 112.392 109.758 112.351 111.658 112.681C112.319 112.805 112.939 112.929 113.558 113.094C112.98 109.831 112.567 106.568 112.278 103.305C111.245 91.409 112.113 79.3478 114.756 67.6584C111.782 67.1214 108.726 66.9562 105.669 67.1628C104.884 67.2041 104.884 65.9649 105.669 65.9236C106.826 65.841 108.023 65.7997 109.18 65.841C113.6 65.9649 117.978 66.8737 122.109 68.4433C119.341 63.8171 116.574 59.1908 113.806 54.5646C109.387 47.171 104.967 39.7774 100.589 32.425C100.134 31.6815 99.7211 30.814 98.9776 30.2771C98.3167 29.8227 97.4493 29.7401 96.6645 29.864C94.8471 30.1531 93.1949 31.1445 91.584 31.9706C88.1143 33.7054 84.686 35.5229 81.2989 37.4229C74.5249 41.223 67.916 45.3536 61.5137 49.7733C55.2353 54.1103 49.1634 58.7365 43.3393 63.6518C45.1568 65.7997 46.9329 67.9476 48.7503 70.0955C53.0048 75.176 57.2179 80.1739 61.3898 85.2132ZM85.2229 120.281C86.586 119.868 87.9491 119.414 89.2709 118.96C89.023 115.697 88.5687 112.433 87.8665 109.212C86.586 103.388 84.5621 97.77 81.8359 92.4829C79.1098 87.2372 75.764 82.3218 71.7574 77.9435C71.6335 77.8196 71.5922 77.6543 71.5922 77.5304C71.0965 77.9435 70.5595 78.3565 70.0639 78.7696C71.9639 81.4131 73.864 84.0567 75.6814 86.7415C82.2076 96.4896 87.5774 108.22 85.2229 120.281ZM83.1577 65.4279C83.0751 65.7584 82.7446 65.9649 82.4142 65.9236C80.5555 65.5518 78.4489 66.7084 77.8293 68.4845C77.2097 70.2606 78.0771 72.5325 79.7706 73.3999C81.4642 74.2673 83.8186 73.689 84.8925 72.1607C85.099 71.8716 85.4708 71.8302 85.7599 71.9955C86.049 72.202 86.0904 72.5738 85.9251 72.8629C85.4708 73.5238 84.8925 74.0194 84.1903 74.3912C84.4381 79.7609 84.4794 85.1719 84.4381 90.5416C85.8012 92.483 87.7013 93.9286 89.8491 94.9199C93.6905 96.6547 98.1928 96.6548 101.91 94.6308C105.463 92.7308 108.106 89.3025 108.85 85.2959C108.437 84.1806 107.982 83.0653 107.569 81.9501C105.71 77.076 103.852 72.2433 101.952 67.3693C101.869 67.1628 101.952 66.8736 102.117 66.7497C104.471 64.767 106.867 62.7844 109.221 60.8018C107.776 60.0996 106.371 59.3973 104.967 58.6952C101.828 57.1256 98.7298 55.5559 95.5906 54.0276C94.8884 53.6972 94.1862 53.3255 93.4427 52.9538C93.5666 53.0777 93.6905 53.2015 93.8144 53.3255C94.021 53.6146 94.0623 53.9451 93.8144 54.1929C93.6079 54.4407 93.1536 54.4407 92.947 54.1929C92.8231 54.0277 92.6992 53.9038 92.534 53.7799C92.4927 53.7386 92.4927 53.7386 92.4514 53.6973C92.3688 53.656 92.2861 53.5733 92.2035 53.532C92.1622 53.532 92.1209 53.4907 92.0796 53.4907H92.0383C91.9557 53.4494 91.8731 53.4494 91.7905 53.4081C91.7492 53.4081 91.7492 53.4081 91.7079 53.4081C91.6666 53.4081 91.6666 53.4081 91.6666 53.4081C91.6253 53.4081 91.584 53.4081 91.5427 53.4081C91.5427 53.4081 91.5427 53.4081 91.5014 53.4081C91.4601 53.4081 91.4601 53.4081 91.5014 53.4081C91.4188 53.4081 91.2948 53.4494 91.2535 53.4494C91.2122 53.4494 91.1709 53.4907 91.1709 53.4907C91.1296 53.4907 91.0883 53.532 91.0883 53.5733L91.047 53.6146L91.0057 53.6559C91.0057 53.6559 91.0057 53.656 91.0057 53.6973C91.0057 53.7386 90.9644 53.7799 90.9644 53.7799C90.9644 53.8212 90.9231 53.8625 90.9231 53.9038C90.9231 53.9451 90.9231 54.0277 90.9231 53.945C90.9231 53.8624 90.9231 53.9864 90.9231 54.069C90.9231 54.1103 90.9231 54.1103 90.9231 54.1516C90.9231 54.1929 91.0057 54.3168 90.9231 54.1516C91.047 54.482 91.0057 54.8125 90.7165 55.019C90.4687 55.1842 90.0144 55.1016 89.8491 54.8125C89.6013 54.2755 89.6013 53.6972 89.8904 53.2015C90.1383 52.7059 90.6339 52.3755 91.1296 52.2516C91.3774 52.2103 91.6253 52.1689 91.8318 52.2102C90.0144 51.4254 88.073 50.9298 86.0491 51.2602C85.9664 51.2602 85.9251 51.2602 85.8425 51.2602C84.1077 52.2102 82.7033 53.0363 83.0338 56.3408C83.2816 58.7778 85.0577 61.3387 83.0751 64.4779L82.662 64.6844C82.7033 64.6844 82.7859 64.6845 82.8272 64.7258C82.9925 64.7671 83.199 65.0562 83.1577 65.4279ZM54.8222 128.377C55.8961 130.236 57.1766 131.971 58.6223 133.582C60.068 135.151 61.7202 136.721 63.8268 137.258C66.1399 137.877 68.5769 137.134 70.7248 136.225C71.84 135.771 72.914 135.234 73.9879 134.697C74.9792 134.201 75.9705 133.664 76.7966 132.921C77.9945 131.888 78.9858 130.525 78.6554 128.873C78.3663 127.51 77.5815 126.271 77.0858 124.99C76.5075 123.421 76.3836 121.81 77.0032 120.199C77.4162 119.166 77.9945 118.216 78.201 117.142C78.3663 116.027 78.1184 114.912 77.7467 113.838C76.9619 111.69 75.5575 109.872 74.814 107.725C74.1531 105.783 73.9466 103.594 75.1444 101.818C75.5988 101.157 76.6727 101.777 76.2184 102.438C75.6401 103.305 75.4336 104.296 75.5162 105.329C75.8879 109.873 80.8446 113.507 79.1924 118.34C78.8206 119.373 78.2423 120.323 77.9532 121.397C77.9119 121.603 77.8706 121.81 77.8706 122.016C79.4815 121.727 81.0924 121.397 82.7033 120.984C83.199 120.86 83.6947 120.736 84.1903 120.612C84.0664 120.488 84.0251 120.281 84.0664 120.075C84.7273 116.853 84.7686 113.549 84.3555 110.327C82.9098 98.6787 75.9293 88.8067 69.1965 79.5544C65.0659 83.0653 61.2658 86.948 58.1266 91.409C53.0874 98.6374 49.9069 107.353 50.8569 116.234C51.27 120.447 52.6743 124.66 54.8222 128.377ZM81.2989 137.877C81.3816 138.001 81.3402 137.754 81.2163 137.919L81.175 137.96C81.0924 138.125 81.175 138.332 81.2989 138.497C82.5794 138.538 83.8599 138.58 85.1403 138.621C84.9751 138.497 84.8512 138.291 84.8099 138.084C84.4795 135.193 82.0011 132.632 79.1511 132.219C77.9119 134.077 75.8879 135.193 73.9053 136.143C71.7161 137.217 69.4443 138.332 67.0073 138.662C66.2225 138.786 65.4377 138.786 64.6529 138.662C66.0986 140.315 67.7508 141.802 69.6095 142.999C70.5183 143.578 71.5096 144.28 72.5835 144.486C73.0792 144.61 73.5335 144.569 73.864 144.197C74.1944 143.867 74.4422 143.454 74.8553 143.206C75.9292 142.586 76.9619 143.412 77.8706 143.949C78.6967 144.445 79.7293 144.61 80.6794 144.28C81.5468 143.991 82.1663 143.206 82.249 142.297C82.2903 141.843 82.249 141.347 82.0011 140.934C81.7533 140.48 81.2989 140.191 80.9272 139.901C80.1837 139.282 79.4815 138.084 80.225 137.175C80.762 136.514 81.9185 136.473 82.3729 137.258C82.7859 137.919 81.712 138.538 81.2989 137.877ZM89.0643 153.532C91.5014 153.243 93.9384 153.284 96.3754 153.45C96.7471 152.665 97.3254 152.004 98.0276 151.591C97.2428 151.591 97.2841 150.393 98.0689 150.352C98.6885 150.31 99.3494 150.352 99.969 150.476C99.9277 149.402 99.845 148.286 99.8037 147.213C98.4407 147.378 97.0363 147.089 95.921 146.304C93.9797 144.982 92.9883 142.462 93.4427 140.191C89.8491 140.067 86.2556 139.943 82.662 139.86C82.7446 139.943 82.7859 139.984 82.8685 140.067C83.4881 140.893 83.6533 141.967 83.4055 142.958C82.9098 144.982 80.8859 146.015 78.9032 145.725C78.3663 145.643 77.8706 145.478 77.4162 145.23C76.9619 144.982 76.5488 144.569 76.0532 144.404C75.5162 144.197 75.2684 144.569 74.9379 144.941C74.6075 145.312 74.2357 145.602 73.7401 145.767C72.7487 146.056 71.6748 145.643 70.7661 145.189C69.7334 144.652 68.7834 144.032 67.8334 143.371C65.9746 142.008 64.3224 140.397 62.8767 138.58C62.7941 138.497 62.7528 138.414 62.7528 138.332C61.9267 138.043 61.1832 137.63 60.4397 137.093C58.6223 135.771 57.1353 134.036 55.8135 132.26C54.4918 130.484 53.3352 128.542 52.3852 126.519C52.1787 126.105 52.0134 125.651 51.8069 125.197C47.6351 125.403 43.5872 127.138 40.4067 129.906C36.6892 133.086 34.2522 137.423 33.2608 142.215C32.1869 147.419 32.8478 152.871 34.5826 157.869C38.0522 167.907 45.9416 175.672 54.2026 182.033C60.5223 178.15 67.5443 175.424 74.814 173.937C74.6488 172.491 74.3596 171.046 74.1118 169.6C73.9879 169.187 73.9053 168.815 73.7814 168.402L67.9573 155.019C66.9247 153.119 65.8507 151.219 64.8181 149.319C64.4464 148.617 65.479 147.997 65.8921 148.7C66.8008 150.352 67.7508 152.004 68.6182 153.656C70.5595 157.25 72.377 160.885 73.8227 164.726C74.0705 162.909 74.814 161.256 76.0945 159.769C79.3989 155.928 84.2729 154.069 89.0643 153.532ZM100.547 163.322C100.423 162.578 100.299 161.835 100.217 161.091C99.6385 161.009 99.0602 160.761 98.5233 160.389C96.7058 159.108 95.7558 156.795 96.045 154.606C94.1036 154.482 92.2036 154.441 90.2622 154.606C86.8339 154.895 83.2816 155.804 80.3489 157.704C85.1403 160.967 90.7992 162.95 96.5406 163.322C97.8624 163.404 99.2254 163.404 100.547 163.322ZM92.0383 190.666C92.0383 190.17 92.0383 189.674 92.0383 189.179C92.0383 188.394 92.0383 187.65 92.0796 186.907C88.61 186.948 85.1403 187.485 81.7533 188.435C81.6707 188.477 81.5468 188.477 81.4641 188.435C81.4228 189.674 81.3816 190.914 81.2989 192.153C84.8512 191.368 88.4448 190.914 92.0383 190.666ZM102.034 164.891C102.117 165.428 102.199 166.006 102.282 166.543C102.323 166.874 102.199 167.204 101.869 167.287C101.58 167.37 101.167 167.204 101.126 166.874C101.002 166.13 100.878 165.346 100.754 164.602C97.408 164.85 93.8971 173.111 93.3601 185.626C95.8797 185.668 98.4407 185.957 100.919 186.453C101.704 186.618 101.373 187.816 100.589 187.65C98.1928 187.155 95.7558 186.907 93.3188 186.866C93.2775 187.609 93.2775 188.394 93.2775 189.137C93.2775 189.633 93.2775 190.087 93.2775 190.542C94.7645 190.459 96.2515 190.418 97.7385 190.418C98.5233 190.418 98.5233 191.657 97.7385 191.657C96.2515 191.657 94.7645 191.698 93.2775 191.781C93.7318 204.999 97.408 213.673 100.878 213.673C104.595 213.673 108.519 203.801 108.519 189.096C108.56 175.961 105.38 166.626 102.034 164.891ZM103.026 153.326C102.53 152.789 101.91 152.376 101.249 152.087C101.249 152.128 101.208 152.21 101.167 152.252C101.043 152.417 100.878 152.5 100.63 152.458C100.547 152.458 100.423 152.417 100.341 152.376C99.5146 152.169 98.6472 152.458 98.0276 153.037C97.3254 153.739 97.1189 154.813 97.2015 155.804C97.3254 157.415 98.358 159.191 99.9276 159.769C100.093 159.811 100.258 159.852 100.423 159.893C100.465 159.852 100.506 159.852 100.547 159.811C100.712 159.769 100.919 159.811 101.084 159.893C102.282 159.811 103.397 158.985 103.934 157.869C104.678 156.424 104.141 154.482 103.026 153.326ZM123.843 143.578C123.348 143.784 122.811 143.949 122.274 143.949C120.787 143.991 119.424 143.206 118.391 142.173C117.73 143.33 116.367 144.115 115.004 143.908C114.095 143.784 113.269 143.206 112.732 142.462C112.113 143.206 111.163 143.702 110.171 143.702C108.478 143.66 107.115 142.338 106.495 140.81C106.371 140.48 106.289 140.191 106.206 139.86C105.297 139.984 104.347 140.108 103.439 140.315C103.48 141.223 103.48 142.091 103.521 142.999C103.521 143.495 103.562 143.991 103.562 144.486C103.562 144.982 103.563 145.271 103.191 145.643C102.571 146.221 101.786 146.634 100.96 146.923C101.043 148.204 101.084 149.484 101.167 150.765C102.612 151.26 103.893 152.169 104.678 153.532C104.843 153.78 104.967 154.028 105.05 154.317C105.752 154.4 106.454 154.441 107.156 154.524C111.121 154.813 115.211 154.647 118.845 153.119C120.291 150.352 121.737 147.584 123.224 144.776C123.43 144.404 123.637 143.991 123.843 143.578ZM126.983 137.836C126.735 137.01 125.95 136.349 125.083 136.308C124.587 136.267 124.174 135.606 124.628 135.234C126.198 133.995 127.933 132.673 128.676 130.773C128.883 130.153 129.007 129.575 129.007 128.956C128.346 129.286 127.685 129.575 126.983 129.782C124.628 130.566 121.943 130.732 119.589 129.864C117.441 129.079 115.541 127.551 114.426 125.569C113.269 123.545 113.063 121.149 113.93 119.001C114.467 117.597 115.376 116.399 116.367 115.283C114.302 114.705 112.278 113.92 110.171 113.797C106.165 113.549 102.241 114.912 98.6059 116.44C94.8884 117.968 91.2535 119.662 87.4534 120.901C84.3555 121.892 81.175 122.677 77.9532 123.255C77.9945 123.421 77.9945 123.545 78.0358 123.71C78.4076 125.156 79.2337 126.436 79.7293 127.882C80.1011 128.956 80.1424 130.071 79.8119 131.103C83.1577 131.847 85.7599 134.697 86.173 138.084C86.2143 138.332 86.0077 138.538 85.8012 138.621C88.6513 138.704 91.5014 138.786 94.3101 138.91C94.6819 138.91 95.0536 139.282 94.8884 139.695C94.1862 141.678 94.8884 144.115 96.7058 145.271C97.6145 145.849 98.7298 146.056 99.8037 145.932C99.7624 145.23 100.671 145.147 100.96 145.643C101.497 145.436 101.993 145.147 102.447 144.734C102.406 143.082 102.365 141.43 102.282 139.778C102.282 139.53 102.489 139.241 102.736 139.199C103.893 138.993 105.049 138.786 106.206 138.662C106.206 137.341 106.536 135.977 106.95 134.738C108.147 130.897 110.171 127.345 112.774 124.247C113.269 123.627 114.178 124.536 113.641 125.114C112.443 126.56 111.369 128.088 110.46 129.74C109.676 131.186 108.974 132.673 108.437 134.201C107.858 135.812 107.28 137.588 107.487 139.323C107.652 140.645 108.478 142.091 109.841 142.421C110.791 142.669 111.989 142.008 112.195 141.017C112.154 140.769 112.154 140.521 112.154 140.232C112.237 139.571 113.228 139.323 113.352 140.067C113.393 140.356 113.434 140.604 113.393 140.893C113.558 141.76 114.219 142.586 115.169 142.71C116.326 142.875 117.4 141.967 117.606 140.852C117.689 140.438 118.35 140.232 118.639 140.562C119.465 141.595 120.622 142.628 122.026 142.71C123.183 142.793 124.422 142.091 124.67 140.893C124.711 140.604 125 140.48 125.248 140.438C125.33 140.438 125.454 140.397 125.537 140.356C125.95 139.53 126.404 138.621 126.983 137.836ZM181.836 100.042C182.29 96.3657 181.877 92.4829 180.06 89.1785C178.449 86.2458 175.806 84.098 172.749 82.9001C166.057 80.2566 158.829 81.9914 152.799 85.5436C150.031 87.1958 147.387 89.1372 144.909 91.2851C146.314 95.4157 146.809 99.7527 145.983 104.09C145.446 106.857 144.331 109.459 143.009 111.938C141.687 114.457 140.159 116.894 138.589 119.29C136.359 122.76 133.674 126.147 130.163 128.295C130.328 129.41 130.122 130.566 129.626 131.64C128.924 133.169 127.685 134.367 126.363 135.399C127.024 135.73 127.561 136.225 127.891 136.845C128.428 136.432 129.089 136.143 129.791 136.06C131.031 135.895 132.27 136.225 133.468 136.473C138.631 137.63 143.587 139.447 148.255 141.925C148.296 141.925 148.296 141.967 148.338 141.967C151.435 142.339 154.533 142.215 157.549 141.099C161.183 139.736 163.579 136.804 165.603 133.623C167.875 130.071 169.982 126.436 172.047 122.76C174.112 119.084 176.136 115.407 177.953 111.607C179.771 108.014 181.34 104.131 181.836 100.042ZM79.3989 68.3193C79.1097 68.4845 79.0271 68.8976 79.1924 69.1868C79.3576 69.4759 79.7293 69.5585 80.0598 69.3933C81.2989 68.7737 82.8685 68.7737 84.1077 69.352C84.3968 69.4759 84.7686 69.4346 84.9751 69.1454C85.1403 68.8563 85.0577 68.4432 84.7686 68.278C83.0337 67.4932 81.0924 67.4932 79.3989 68.3193ZM85.3882 59.7278C88.4861 58.5299 91.5014 57.2082 94.5166 55.7625C95.2188 55.4321 95.8797 56.506 95.1362 56.8364C94.7232 57.0429 94.3514 57.2082 93.9384 57.3734C93.9797 57.4147 94.0623 57.456 94.1036 57.4973C94.2275 57.6213 94.2688 57.7451 94.3514 57.869C94.434 58.0756 94.434 58.2821 94.3927 58.4886C94.3514 58.6952 94.2275 58.9017 94.0623 59.0256C93.8971 59.1908 93.6905 59.3148 93.484 59.3561C93.2775 59.3974 93.0296 59.4387 92.8231 59.3561C92.5753 59.2735 92.3688 59.1083 92.2035 58.8604C92.0796 58.6539 92.0383 58.406 92.0796 58.1582C90.9644 58.6538 89.8904 59.1495 88.7752 59.6039C88.8165 59.6452 88.8578 59.7278 88.8991 59.7691C88.9404 59.8517 88.9817 59.9756 89.023 60.0583C89.0643 60.1409 89.0643 60.2648 89.0643 60.3887C89.0643 60.5952 89.023 60.8018 88.8991 61.0083C88.8578 61.0496 88.8578 61.0909 88.8165 61.1322C88.7752 61.1735 88.7752 61.2148 88.7339 61.2561C88.6513 61.3387 88.5687 61.38 88.4861 61.4213C88.4034 61.4627 88.3621 61.5039 88.2795 61.5039C88.1969 61.5039 88.1143 61.5453 88.0317 61.5453C87.9904 61.5453 87.9078 61.5453 87.8665 61.5453C87.7426 61.5453 87.66 61.5039 87.536 61.4626C87.4534 61.4213 87.3295 61.3801 87.2469 61.3388C87.2056 61.2975 87.123 61.2561 87.0817 61.2148C87.0404 61.1735 86.9991 61.0908 86.9578 61.0495C86.8752 60.9669 86.8751 60.843 86.8338 60.7604V60.7192C86.8338 60.7192 86.8338 60.7191 86.8338 60.6778C86.8338 60.5952 86.7925 60.5126 86.7925 60.43C86.4621 60.5539 86.0904 60.7191 85.7599 60.843C84.9751 61.2148 84.6447 60.0169 85.3882 59.7278ZM87.9904 60.43C87.9904 60.43 87.9904 60.4713 88.0317 60.4713C87.9904 60.43 87.9904 60.43 87.9904 60.43ZM84.7686 58.1169C85.7186 57.7452 86.6686 57.4147 87.6186 57.0429C87.9078 56.919 88.1556 56.6299 88.0317 56.2994C87.9491 56.0103 87.5774 55.7625 87.2882 55.8864C86.3382 56.2581 85.3882 56.5886 84.4381 56.9604C84.149 57.0843 83.9012 57.3734 84.0251 57.7039C84.0664 57.993 84.4381 58.2408 84.7686 58.1169ZM91.3774 53.4494C91.3774 53.4081 91.3774 53.4081 91.3774 53.4494V53.4494ZM93.1949 74.9695C93.071 74.9695 92.947 74.9695 92.8231 74.9695C92.8231 74.9695 92.7405 74.9695 92.6992 74.9695C92.6579 74.9695 92.6166 74.9695 92.5753 74.9282C92.3275 74.8869 92.0796 74.8043 91.8731 74.7216C91.5427 74.5977 91.0057 74.3086 90.7578 74.1021C90.5513 73.9368 90.3861 73.7716 90.2209 73.6064C90.1383 73.5238 90.0557 73.4412 89.9731 73.3173C89.8904 73.2347 89.973 73.3172 89.9317 73.2346C89.8904 73.1933 89.8491 73.1107 89.8078 73.0694C89.5187 72.6151 89.3535 72.2846 89.2296 71.7889C89.147 71.4585 88.7752 71.252 88.4861 71.3759C88.1556 71.4585 87.9904 71.8303 88.073 72.1194C88.6513 74.4325 90.8818 76.1673 93.2362 76.1673C93.9797 76.2086 93.9797 74.9695 93.1949 74.9695Z" fill="#3F4254"/>
<path d="M116.244 163.156C115.707 158.654 117.896 153.904 121.655 151.384C125.413 148.864 130.659 148.616 134.624 150.806C138.59 152.995 141.192 157.538 141.068 162.082" fill="#9ED5F0"/>
<path d="M58.0442 196.903C56.6398 192.979 58.4985 188.187 61.5964 185.957C64.653 183.726 68.577 183.561 72.1293 184.387C74.8141 184.965 77.499 186.163 79.3164 188.518C81.1339 190.913 81.7534 194.714 80.1838 197.316L79.9773 197.068C72.9554 196.324 65.8922 196.035 58.8703 196.242" fill="#9ED5F0"/>
</svg>
