<svg width="260" height="260" viewBox="0 0 260 260" fill="none" xmlns="http://www.w3.org/2000/svg">
<path opacity="0.2" d="M76.8728 120.204C71.6348 118.884 67.3165 115.326 63.1981 111.847C55.0412 104.97 46.8444 98.0923 38.6875 91.2549C47.2842 92.2945 56.0808 91.8946 64.5575 90.0153C67.3964 89.3756 70.3153 88.5759 72.5945 86.7366C75.1935 84.6574 76.7529 81.5786 78.0724 78.5398C83.8701 65.5048 87.7486 49.6708 80.3115 37.5155C85.5095 46.552 91.5872 55.1088 98.3845 62.9858C108.541 49.1511 120.576 36.6759 134.011 26C132.531 33.877 134.131 42.2737 138.369 49.0711C140.089 51.7901 142.328 54.389 145.326 55.5086C149.405 57.028 153.963 55.6286 158.042 54.0692C168.638 50.1107 178.954 45.3525 188.87 39.9146C179.793 47.3917 170.037 56.1084 168.917 67.8239C168.717 69.8231 168.957 72.1823 170.557 73.3818C171.876 74.3414 173.636 74.2614 175.275 74.1415C188.07 73.1418 200.865 72.1022 213.66 71.1026C207.263 75.5409 201.185 80.499 195.587 85.8969C193.628 87.8162 191.669 91.095 193.668 92.9743C194.827 94.0538 196.627 93.8938 198.186 93.6939C206.503 92.6943 215.02 93.4541 223.057 95.8531C224.376 96.253 225.816 96.7727 226.495 98.0123C227.775 100.251 225.656 102.85 223.696 104.53C212.221 114.286 199.586 122.683 186.111 129.48C177.474 133.838 168.438 137.597 160.841 143.595C156.562 146.993 152.564 151.152 147.246 152.391C140.648 153.911 133.931 150.392 128.533 146.314C123.095 142.235 117.977 137.357 111.499 135.478C106.142 133.918 100.224 134.558 95.0658 132.439C87.1489 129.2 81.8309 119.844 73.2742 119.644" fill="white"/>
<path d="M209.701 124.122C208.861 128.721 206.822 133.039 204.663 137.197C201.584 143.155 198.265 148.953 194.746 154.671C193.187 157.19 191.508 159.789 189.109 161.548C185.55 164.147 180.872 164.587 176.433 164.027C173.555 167.386 170.636 170.744 167.117 173.463C165.997 174.343 164.798 175.143 163.438 175.623C159.64 176.902 155.321 175.063 151.403 175.103C151.123 175.463 150.803 175.782 150.443 176.102C144.686 181.54 136.889 184.699 128.972 184.779C122.174 184.859 115.417 182.66 109.899 178.661C108.699 179.501 107.62 180.541 106.74 181.74C103.941 185.459 105.861 189.257 106.34 194.735C106.06 194.775 105.821 194.855 105.581 194.895C107.74 198.934 109.059 203.412 109.419 208.01C103.981 207.85 98.5433 208.77 93.4253 210.729L93.5452 211.049C91.7459 208.29 90.3065 205.291 89.2269 202.132C89.107 201.773 88.987 201.373 88.947 200.973C87.8274 201.573 86.7479 202.212 85.6683 202.852C78.8709 197.654 72.5133 191.656 68.4349 184.139C64.3965 176.622 62.917 167.386 66.0758 159.429C68.9547 152.232 76.1519 146.634 83.789 146.514C82.2296 142.595 81.4699 138.317 81.6298 134.118C81.9497 125.442 86.0281 117.245 91.626 110.568C91.9459 110.168 92.3057 109.768 92.6256 109.408C86.5479 102.131 80.4303 94.8936 74.3526 87.6164C89.3868 74.9412 106.02 64.1054 123.734 55.5087C125.533 54.629 127.732 53.7893 129.371 54.9089C130.051 55.3887 130.531 56.1485 130.971 56.8682C138.288 69.1035 145.605 81.3788 152.922 93.6141C160.32 96.8528 166.757 102.451 170.636 109.568C171.475 111.087 172.195 112.687 172.755 114.326C173.035 114.086 173.315 113.846 173.554 113.606C178.353 109.448 183.871 105.849 190.108 104.73C196.346 103.65 203.423 105.529 207.142 110.687C209.98 114.446 210.54 119.524 209.701 124.122ZM130.971 184.739C126.533 184.739 122.974 195.655 122.974 209.13C122.974 222.605 126.573 233.52 130.971 233.52C135.369 233.52 138.968 222.605 138.968 209.13C138.968 195.655 135.409 184.739 130.971 184.739ZM86.9078 205.731C83.9489 206.531 83.0293 212.688 84.8686 219.446C86.7079 226.203 90.5864 231.081 93.5852 230.242C96.5441 229.442 97.4637 223.284 95.6245 216.527C93.7852 209.729 89.8667 204.891 86.9078 205.731ZM166.757 200.453C163.678 200.133 160.639 205.531 159.92 212.528C159.2 219.526 161.119 225.443 164.158 225.723C167.237 226.043 170.276 220.645 170.995 213.648C171.715 206.691 169.796 200.773 166.757 200.453Z" fill="white"/>
<path d="M196.027 179.341C195.347 178.941 195.987 177.901 196.627 178.301C201.105 180.98 205.583 183.699 210.061 186.378C210.741 186.778 210.101 187.818 209.462 187.418C204.983 184.739 200.505 182.02 196.027 179.341ZM189.629 186.058C192.188 188.617 194.747 191.176 197.306 193.735C197.866 194.295 198.706 193.416 198.146 192.896C195.587 190.337 193.028 187.778 190.469 185.219C189.909 184.659 189.069 185.499 189.629 186.058ZM54.1213 187.898C49.4831 189.937 44.8449 192.016 40.2066 194.055C39.4869 194.375 40.1267 195.415 40.8064 195.095C45.4446 193.056 50.0828 190.977 54.7211 188.937C55.4008 188.617 54.801 187.618 54.1213 187.898ZM56.6803 134.718C49.1632 136.158 41.4861 136.637 33.8491 136.118C33.0894 136.078 33.0894 137.277 33.8491 137.317C41.6061 137.837 49.4031 137.317 57.0002 135.878C57.7599 135.758 57.44 134.598 56.6803 134.718ZM53.9214 142.435C50.6026 143.115 47.2439 143.755 43.9252 144.434C43.1655 144.594 43.4854 145.754 44.2451 145.594C47.5638 144.914 50.9225 144.274 54.2412 143.595C55.0009 143.435 54.6811 142.275 53.9214 142.435ZM147.685 57.7477C148.685 55.4285 149.685 53.0695 150.684 50.7503C150.804 50.4705 150.764 50.1106 150.484 49.9106C150.244 49.7507 149.805 49.8307 149.645 50.1106C148.645 52.4297 147.645 54.7888 146.646 57.1079C146.526 57.3878 146.566 57.7477 146.846 57.9476C147.086 58.1075 147.525 58.0675 147.685 57.7477ZM79.1117 51.7099C77.4323 49.7107 75.753 47.7115 74.1136 45.7122C73.9137 45.4723 73.4739 45.5123 73.2739 45.7122C73.034 45.9522 73.074 46.3121 73.2739 46.552C74.9533 48.5512 76.6326 50.5504 78.272 52.5497C78.4719 52.7896 78.9118 52.7496 79.1117 52.5497C79.3516 52.3097 79.3116 51.9498 79.1117 51.7099ZM66.7564 48.6311C69.7153 50.9902 72.6342 53.3893 75.593 55.7484C76.1928 56.2282 77.0325 55.3885 76.4327 54.9087C73.4738 52.5496 70.555 50.1506 67.5961 47.7915C66.9963 47.3117 66.1567 48.1513 66.7564 48.6311Z" fill="#24668A"/>
<path d="M151.363 185.019C151.683 191.137 151.723 197.254 151.483 203.372C151.483 203.852 150.963 204.012 150.643 203.892H150.603C147.085 204.212 143.566 204.531 140.047 204.851C139.288 204.931 139.288 203.732 140.047 203.652C143.486 203.332 146.885 203.012 150.323 202.732C150.523 196.814 150.483 190.897 150.163 185.019C148.484 184.939 146.845 184.859 145.165 184.699C144.406 184.619 144.406 183.419 145.165 183.499C147.005 183.659 148.884 183.779 150.723 183.819V183.579C150.723 183.659 150.723 183.739 150.723 183.819C156.921 184.019 163.119 183.659 169.276 182.74C170.036 182.62 170.356 183.779 169.596 183.899C163.558 184.819 157.481 185.179 151.363 185.019ZM135.089 210.729C134.929 211.489 136.089 211.809 136.249 211.049C137.328 206.011 137.089 200.773 135.609 195.815C135.369 195.095 134.25 195.375 134.45 196.135C135.889 200.893 136.129 205.931 135.089 210.729ZM128.812 189.697C126.693 193.056 125.613 197.054 125.813 201.013C125.853 201.772 127.052 201.772 127.012 201.013C126.852 197.254 127.812 193.496 129.851 190.297C130.251 189.657 129.212 189.057 128.812 189.697ZM166.037 204.132C166.797 203.812 167.197 204.451 167.357 205.091C167.957 207.01 168.077 209.09 167.757 211.049C167.717 211.369 167.837 211.689 168.157 211.769C168.436 211.849 168.836 211.689 168.876 211.369C169.076 210.089 169.156 208.81 169.036 207.49C168.916 206.291 168.716 204.971 168.157 203.892C167.597 202.892 166.477 202.532 165.438 203.012C164.318 203.532 163.918 204.731 163.598 205.811C163.398 206.571 164.558 206.891 164.758 206.131C165.038 205.451 165.278 204.451 166.037 204.132ZM87.3876 220.125C87.1077 220.205 86.8678 220.565 86.9878 220.845C87.9074 223.324 89.2269 225.643 90.8663 227.723C91.2262 228.202 91.666 228.602 92.2658 228.762C92.8255 228.882 93.4253 228.762 93.9051 228.442C94.9847 227.762 95.2646 226.483 95.4245 225.323C95.4645 225.004 95.3446 224.684 95.0247 224.604C94.7448 224.524 94.3449 224.684 94.305 225.004C94.185 225.883 94.065 227.003 93.2254 227.483C92.3457 228.002 91.706 226.883 91.2661 226.283C89.9866 224.524 88.947 222.564 88.1473 220.525C88.0274 220.245 87.7075 220.045 87.3876 220.125ZM208.821 129.52C207.422 133.279 205.542 136.877 203.623 140.396C201.624 144.115 199.545 147.793 197.385 151.392C195.426 154.711 193.507 158.349 190.628 160.988C188.069 163.347 184.75 164.467 181.312 164.707C179.752 164.827 178.193 164.747 176.673 164.587C174.994 166.546 173.315 168.465 171.515 170.305C170.036 171.784 168.436 173.263 166.717 174.503C166.437 174.183 166.157 173.903 165.877 173.623C165.957 173.543 166.037 173.503 166.157 173.423C169.716 170.824 172.675 167.426 175.554 164.107C173.355 162.987 171.075 161.988 168.756 161.148C166.477 160.348 164.158 159.709 161.839 159.189C160.759 158.949 159.52 158.629 158.48 159.069C158.08 159.229 157.801 159.469 157.521 159.749C157.521 159.789 157.521 159.829 157.521 159.869C157.561 161.148 156.761 162.228 155.681 162.787C153.842 166.226 152.043 169.705 150.243 173.143C149.764 173.543 149.284 173.983 148.884 174.463C148.844 174.543 148.804 174.623 148.764 174.703L148.244 175.503C148.164 175.543 148.084 175.543 148.004 175.582C147.884 175.742 147.764 175.902 147.644 176.102C147.564 176.022 147.485 175.902 147.485 175.782C144.526 176.782 141.287 176.982 138.088 176.782C137.168 176.742 136.249 176.662 135.369 176.582C135.569 177.982 135.249 179.421 134.25 180.501C133.53 181.3 132.57 181.82 131.531 181.94C131.651 182.62 131.731 183.3 131.851 183.979C136.249 183.539 140.527 182.14 144.366 179.901C145.085 179.461 145.805 179.021 146.485 178.541C146.285 179.101 146.125 179.701 146.005 180.301C145.165 180.821 144.326 181.3 143.446 181.74C140.247 183.34 136.849 184.459 133.33 184.979C137.009 187.858 139.608 197.414 139.608 209.05C139.608 209.329 139.608 209.649 139.608 209.929C141.567 209.849 143.526 209.889 145.445 210.009C150.163 210.369 154.842 211.449 159.28 213.168C159.28 212.928 159.32 212.688 159.36 212.408C160.12 204.971 163.438 199.453 166.877 199.813C170.316 200.173 172.435 206.251 171.675 213.688C171.315 217.127 170.396 220.365 169.076 222.684C167.757 225.044 166.117 226.283 164.518 226.283C164.398 226.283 164.318 226.283 164.198 226.283C162.479 226.123 161.039 224.484 160.16 221.765C159.48 219.686 159.2 217.127 159.28 214.408C153.042 211.969 146.325 210.809 139.648 211.129C139.288 224.124 135.649 234 131.051 234C126.533 234 122.934 224.404 122.494 211.689C119.055 211.929 115.617 212.408 112.218 213.088C112.138 213.128 112.098 213.128 112.018 213.128C111.978 213.888 111.938 214.648 111.938 215.407C111.898 216.167 110.699 216.167 110.739 215.407C110.819 212.968 110.939 210.489 111.019 208.05C111.019 207.61 111.418 207.41 111.778 207.49C111.818 207.33 111.938 207.17 112.178 207.13C115.537 206.171 119.055 205.651 122.534 205.611C122.974 195.935 125.253 188.178 128.332 185.259C127.092 185.259 125.813 185.139 124.573 184.979C119.375 184.299 114.377 182.3 110.059 179.301C109.139 179.981 108.3 180.781 107.58 181.7C106.22 183.419 105.861 185.419 106.06 187.578C106.14 188.298 106.22 189.017 106.34 189.737C106.54 190.537 106.74 191.296 106.9 192.096C106.94 192.296 106.9 192.456 106.82 192.576C106.94 193.256 107.02 193.935 107.1 194.615C107.14 194.855 106.9 195.135 106.66 195.175H106.62C107.22 196.335 107.74 197.574 108.18 198.814C109.259 201.732 109.899 204.771 110.139 207.89C110.139 208.01 110.099 208.13 110.019 208.25C109.659 207.81 109.259 207.37 108.819 207.01C108.38 202.972 107.18 199.053 105.341 195.455C99.9028 196.654 94.6248 198.574 89.7467 201.173C89.8667 201.812 90.1865 202.492 90.3865 203.012C90.7063 203.892 91.0662 204.771 91.4661 205.611C91.626 205.971 91.8259 206.371 91.9859 206.731C91.8659 206.851 91.746 206.97 91.666 207.09C91.8659 207.29 92.0258 207.53 92.2258 207.73C93.7852 209.689 95.1446 212.408 96.0243 215.447C100.782 215.567 105.541 215.727 110.299 215.967C111.059 216.007 111.059 217.206 110.299 217.167C105.661 216.927 100.982 216.767 96.3442 216.647C98.1435 223.684 97.0239 229.762 93.7452 230.641C93.4653 230.721 93.2254 230.761 92.9455 230.761C89.7867 230.761 86.1081 226.043 84.3088 219.406C82.3496 212.208 83.4291 205.851 86.7879 204.931C87.8674 204.651 89.027 204.931 90.1865 205.771C89.5868 204.451 89.027 203.092 88.6271 201.692C87.7875 202.172 86.9078 202.652 86.1081 203.172C85.9482 203.292 85.6683 203.292 85.5083 203.172C80.7102 199.493 76.1119 195.455 72.3534 190.697C65.7959 182.38 61.7575 171.184 65.0762 160.668C67.5552 152.831 74.8324 146.274 83.1093 145.754C81.9497 142.555 81.27 139.157 81.19 135.718C80.9901 126.801 84.8286 118.245 90.2665 111.327C90.8263 110.607 91.4261 109.888 92.0258 109.208C86.0681 102.091 80.0704 94.9735 74.1127 87.8563C73.9128 87.6164 73.8328 87.2165 74.1127 87.0166C74.8324 86.3768 75.5921 85.7771 76.3518 85.1773C82.3096 80.2992 88.4672 75.701 94.8648 71.3826C101.262 67.0643 107.86 63.1057 114.617 59.4272C116.297 58.5075 118.016 57.6279 119.735 56.7482C121.415 55.9085 123.054 54.9888 124.773 54.3091C126.293 53.6694 128.092 53.2696 129.611 54.0693C130.371 54.4691 130.891 55.1488 131.331 55.8285C131.891 56.6682 132.37 57.5479 132.89 58.4275C137.248 65.7447 141.647 73.062 146.005 80.3792C148.524 84.5775 151.003 88.7759 153.522 92.9343C157.321 94.6137 160.839 96.8927 163.918 99.6917C167.837 103.25 171.275 107.929 173.235 113.047C177.873 109.008 183.191 105.449 189.228 104.13C195.306 102.81 202.383 104.09 206.742 108.808C211.82 114.526 211.3 122.843 208.821 129.52ZM91.2261 208.65C89.9466 207.09 88.6671 206.211 87.5875 206.211C87.4276 206.211 87.2677 206.251 87.0677 206.291C84.7486 206.93 83.5491 212.288 85.4284 219.286C87.3076 226.283 91.0662 230.321 93.3853 229.682C95.7044 229.042 96.904 223.724 95.0247 216.807C93.2254 216.767 91.4261 216.727 89.6268 216.727C88.867 216.727 88.867 215.527 89.6268 215.527C91.3061 215.567 92.9855 215.567 94.6648 215.607C93.8252 212.848 92.6256 210.409 91.2261 208.65ZM160.4 213.688C162.119 214.408 163.798 215.207 165.438 216.127C166.117 216.487 165.518 217.526 164.838 217.167C163.358 216.367 161.879 215.607 160.32 214.967C160.28 217.366 160.56 219.646 161.159 221.485C161.879 223.724 162.959 225.043 164.198 225.163C165.398 225.283 166.757 224.204 167.917 222.165C169.156 219.965 170.036 216.927 170.396 213.608C171.155 206.411 169.076 201.293 166.677 201.053C166.597 201.053 166.557 201.053 166.477 201.053C164.118 201.053 161.199 205.571 160.48 212.608C160.48 212.968 160.44 213.328 160.4 213.688ZM145.605 91.8147C144.886 94.9735 144.286 98.1723 143.846 101.371C142.287 112.687 142.486 124.242 144.446 135.478C144.486 135.638 144.446 135.758 144.366 135.878C145.165 136.118 145.925 136.358 146.725 136.597C146.245 133.639 145.845 130.68 145.565 127.681C144.566 116.125 145.405 104.41 148.004 93.0942C148.164 92.3345 149.324 92.6544 149.164 93.4141C148.444 96.5729 147.844 99.7717 147.405 102.97C145.885 113.806 146.045 124.882 147.764 135.678C148.444 135.038 149.084 134.398 149.724 133.719C150.523 132.839 151.403 131.879 151.763 130.68C151.803 130.56 151.843 130.4 151.843 130.28C151.603 130.48 151.323 130.64 150.963 130.72C150.044 131 148.884 130.76 148.324 129.92C147.724 129 148.084 127.881 148.884 127.241C149.764 126.561 150.883 126.521 151.763 127.201C151.883 127.281 152.003 127.401 152.123 127.521C152.323 126.801 152.403 126.082 152.443 125.402C152.643 122.723 151.963 120.044 150.603 117.765C150.203 117.085 151.243 116.485 151.643 117.165C152.323 118.285 152.842 119.484 153.162 120.724C153.842 123.163 153.962 126.042 153.082 128.401C153.042 128.561 152.962 128.72 152.882 128.88C153.002 129.24 153.042 129.64 153.042 130.04C152.962 131.4 152.243 132.599 151.403 133.599C150.363 134.878 149.164 135.958 147.964 137.117C148.004 137.557 147.604 137.837 147.245 137.837C147.045 138.037 146.845 138.277 146.645 138.477C145.205 140.076 144.006 141.995 144.126 144.235C144.246 146.434 145.685 148.473 147.485 149.672C149.524 151.032 152.003 151.392 154.362 150.872C159.72 149.752 163.398 145.394 166.237 141.036C167.757 138.717 169.196 136.358 170.516 133.919C171.835 131.439 172.955 128.88 173.435 126.082C174.394 120.644 172.875 114.966 170.316 110.128C168.117 106.009 165.038 102.411 161.439 99.4518C156.881 95.6933 151.403 93.0542 145.605 91.8147ZM150.803 128.001C150.124 127.721 148.804 128.521 149.404 129.32C150.004 130.12 151.203 129.48 151.603 128.88C151.603 128.84 151.643 128.84 151.643 128.8C151.483 128.441 151.203 128.161 150.803 128.001ZM92.7056 108.488C97.1039 103.61 102.302 99.4918 107.66 95.6533C107.14 94.4537 107.02 93.0943 107.46 91.8547C107.94 90.4953 109.059 89.4556 110.339 88.8958C106.7 85.817 102.942 78.1799 106.18 74.2215C110.419 69.0235 115.737 71.3026 116.976 64.1454C120.535 66.0246 120.775 71.0627 119.535 72.862C119.135 73.4618 118.656 73.9416 118.216 74.3414C119.335 74.4214 120.455 74.6613 121.534 75.0212C123.174 75.6209 124.733 76.5006 126.333 77.2603C127.972 78.06 129.571 78.8597 131.211 79.6594C134.25 81.1788 137.288 82.6983 140.367 84.1777C140.687 84.3376 140.767 84.8974 140.487 85.1373C138.088 87.1765 135.689 89.2157 133.25 91.2149C133.41 91.6948 133.61 92.1346 133.77 92.6144C135.849 98.0123 137.928 103.41 139.967 108.808C140.087 109.168 139.887 109.408 139.608 109.488C139.128 111.607 138.088 113.526 136.689 115.166C133.85 118.524 129.531 120.444 125.173 120.204C120.775 119.964 116.496 117.765 113.937 114.166C113.857 114.046 113.817 113.926 113.817 113.846C113.777 113.766 113.777 113.686 113.777 113.566C113.857 108.488 113.777 103.45 113.578 98.3722C113.138 98.4922 112.658 98.5722 112.178 98.5722C111.418 98.5722 110.619 98.4122 109.939 98.0523C109.299 97.7325 108.739 97.2527 108.3 96.6529C106.62 97.8524 104.981 99.0519 103.341 100.331C103.421 100.371 103.501 100.411 103.581 100.491C105.821 102.93 107.86 105.569 109.699 108.328C112.938 113.206 115.537 118.524 117.456 124.042C119.295 129.4 120.415 134.998 120.855 140.636C122.214 140.116 123.534 139.596 124.853 138.997C128.412 137.437 132.01 135.758 135.849 135.118C137.688 134.798 139.528 134.758 141.367 135.078C142.007 135.198 142.606 135.318 143.206 135.478C142.646 132.319 142.247 129.16 141.967 126.002C140.967 114.486 141.807 102.81 144.366 91.4948C141.487 90.975 138.528 90.8151 135.569 91.015C134.809 91.055 134.809 89.8555 135.569 89.8155C136.689 89.7355 137.848 89.6955 138.968 89.7355C143.246 89.8555 147.485 90.7352 151.483 92.2546C148.804 87.7763 146.125 83.298 143.446 78.8197C139.168 71.6625 134.889 64.5053 130.651 57.388C130.211 56.6683 129.811 55.8285 129.092 55.3087C128.452 54.8689 127.612 54.7889 126.852 54.9089C125.093 55.1888 123.494 56.1484 121.934 56.9481C118.576 58.6275 115.257 60.3868 111.978 62.2261C105.421 65.9047 99.0231 69.9032 92.8255 74.1815C86.7479 78.3799 80.8701 82.8582 75.2323 87.6163C76.9916 89.6955 78.711 91.7748 80.4703 93.854C84.5887 98.7721 88.6671 103.61 92.7056 108.488ZM115.777 142.435C117.096 142.035 118.416 141.596 119.695 141.156C119.455 137.997 119.015 134.838 118.336 131.719C117.096 126.082 115.137 120.644 112.498 115.526C109.859 110.448 106.62 105.689 102.742 101.451C102.622 101.331 102.582 101.171 102.582 101.051C102.102 101.451 101.582 101.851 101.102 102.251C102.942 104.81 104.781 107.369 106.54 109.968C112.858 119.404 118.056 130.76 115.777 142.435ZM113.777 89.3357C113.698 89.6556 113.378 89.8555 113.058 89.8155C111.258 89.4556 109.219 90.5752 108.619 92.2945C108.02 94.0138 108.859 96.2131 110.499 97.0527C112.138 97.8924 114.417 97.3326 115.457 95.8532C115.657 95.5733 116.017 95.5333 116.297 95.6932C116.576 95.8931 116.616 96.253 116.456 96.5329C116.017 97.1727 115.457 97.6525 114.777 98.0123C115.017 103.21 115.057 108.448 115.017 113.646C116.336 115.526 118.176 116.925 120.255 117.885C123.974 119.564 128.332 119.564 131.93 117.605C135.369 115.765 137.928 112.447 138.648 108.568C138.248 107.489 137.808 106.409 137.408 105.33C135.609 100.611 133.81 95.9331 131.97 91.2149C131.891 91.015 131.97 90.7351 132.13 90.6152C134.41 88.6959 136.729 86.7767 139.008 84.8574C137.608 84.1777 136.249 83.4979 134.889 82.8182C131.851 81.2987 128.852 79.7793 125.813 78.2999C125.133 77.98 124.453 77.6202 123.734 77.2603C123.854 77.3803 123.974 77.5002 124.094 77.6202C124.293 77.9001 124.333 78.22 124.094 78.4599C123.894 78.6998 123.454 78.6998 123.254 78.4599C123.134 78.2999 123.014 78.18 122.854 78.06C122.814 78.02 122.814 78.0201 122.774 77.9801C122.694 77.9401 122.614 77.8601 122.534 77.8201C122.494 77.8201 122.454 77.7802 122.414 77.7802H122.374C122.294 77.7402 122.214 77.7401 122.134 77.7001C122.094 77.7001 122.094 77.7001 122.054 77.7001C122.014 77.7001 122.014 77.7001 122.014 77.7001C121.974 77.7001 121.934 77.7001 121.894 77.7001C121.894 77.7001 121.894 77.7001 121.854 77.7001C121.814 77.7001 121.814 77.7001 121.854 77.7001C121.774 77.7001 121.654 77.7401 121.614 77.7401C121.574 77.7401 121.534 77.7802 121.534 77.7802C121.494 77.7802 121.455 77.8201 121.455 77.8601L121.415 77.9L121.375 77.9401C121.375 77.9401 121.375 77.9401 121.375 77.9801C121.375 78.0201 121.335 78.06 121.335 78.06C121.335 78.1 121.295 78.14 121.295 78.18C121.295 78.22 121.295 78.2999 121.295 78.2199C121.295 78.14 121.295 78.2599 121.295 78.3399C121.295 78.3799 121.295 78.3799 121.295 78.4199C121.295 78.4598 121.375 78.5798 121.295 78.4199C121.415 78.7397 121.375 79.0597 121.095 79.2596C120.855 79.4195 120.415 79.3395 120.255 79.0596C120.015 78.5398 120.015 77.98 120.295 77.5002C120.535 77.0204 121.015 76.7006 121.495 76.5806C121.734 76.5406 121.974 76.5006 122.174 76.5406C120.415 75.7809 118.536 75.3011 116.576 75.6209C116.496 75.6209 116.456 75.6209 116.376 75.6209C114.697 76.5406 113.338 77.3403 113.658 80.5391C113.897 82.8982 115.617 85.3772 113.698 88.416L113.298 88.6159C113.338 88.6159 113.418 88.616 113.458 88.656C113.618 88.6959 113.817 88.9758 113.777 89.3357ZM86.348 150.272C87.3876 152.072 88.6271 153.751 90.0266 155.31C91.4261 156.83 93.0255 158.349 95.0647 158.869C97.3038 159.469 99.6629 158.749 101.742 157.869C102.822 157.429 103.861 156.91 104.901 156.39C105.861 155.91 106.82 155.39 107.62 154.671C108.779 153.671 109.739 152.351 109.419 150.752C109.139 149.433 108.38 148.233 107.9 146.993C107.34 145.474 107.22 143.915 107.82 142.355C108.22 141.356 108.779 140.436 108.979 139.396C109.139 138.317 108.899 137.237 108.539 136.198C107.78 134.118 106.42 132.359 105.701 130.28C105.061 128.401 104.861 126.282 106.02 124.562C106.46 123.922 107.5 124.522 107.06 125.162C106.5 126.002 106.3 126.961 106.38 127.961C106.74 132.359 111.538 135.878 109.939 140.556C109.579 141.556 109.019 142.475 108.739 143.515C108.699 143.715 108.659 143.915 108.659 144.115C110.219 143.835 111.778 143.515 113.338 143.115C113.817 142.995 114.297 142.875 114.777 142.755C114.657 142.635 114.617 142.435 114.657 142.235C115.297 139.117 115.337 135.918 114.937 132.799C113.538 121.523 106.78 111.967 100.263 103.01C96.2642 106.409 92.5856 110.168 89.5468 114.486C84.6687 121.483 81.5898 129.92 82.5095 138.517C82.9093 142.595 84.2688 146.674 86.348 150.272ZM111.978 159.469C112.058 159.589 112.018 159.349 111.898 159.509L111.858 159.549C111.778 159.709 111.858 159.909 111.978 160.068C113.218 160.108 114.457 160.148 115.697 160.188C115.537 160.068 115.417 159.869 115.377 159.669C115.057 156.87 112.658 154.391 109.899 153.991C108.699 155.79 106.74 156.87 104.821 157.789C102.702 158.829 100.503 159.909 98.1435 160.228C97.3838 160.348 96.6241 160.348 95.8644 160.228C97.2638 161.828 98.8632 163.267 100.663 164.427C101.542 164.987 102.502 165.666 103.541 165.866C104.021 165.986 104.461 165.946 104.781 165.586C105.101 165.266 105.341 164.867 105.741 164.627C106.78 164.027 107.78 164.827 108.659 165.346C109.459 165.826 110.459 165.986 111.378 165.666C112.218 165.386 112.818 164.627 112.898 163.747C112.938 163.307 112.898 162.827 112.658 162.428C112.418 161.988 111.978 161.708 111.618 161.428C110.899 160.828 110.219 159.669 110.939 158.789C111.458 158.149 112.578 158.109 113.018 158.869C113.418 159.509 112.378 160.108 111.978 159.469ZM119.495 174.623C121.854 174.343 124.213 174.383 126.573 174.543C126.932 173.783 127.492 173.143 128.172 172.744C127.412 172.744 127.452 171.584 128.212 171.544C128.812 171.504 129.451 171.544 130.051 171.664C130.011 170.624 129.931 169.545 129.891 168.505C128.572 168.665 127.212 168.385 126.133 167.626C124.253 166.346 123.294 163.907 123.734 161.708C120.255 161.588 116.776 161.468 113.298 161.388C113.378 161.468 113.418 161.508 113.498 161.588C114.097 162.388 114.257 163.427 114.017 164.387C113.538 166.346 111.578 167.346 109.659 167.066C109.139 166.986 108.659 166.826 108.22 166.586C107.78 166.346 107.38 165.946 106.9 165.786C106.38 165.586 106.14 165.946 105.821 166.306C105.501 166.666 105.141 166.946 104.661 167.106C103.701 167.386 102.662 166.986 101.782 166.546C100.782 166.026 99.8628 165.426 98.9432 164.787C97.1439 163.467 95.5445 161.908 94.145 160.148C94.065 160.069 94.0251 159.989 94.0251 159.909C93.2254 159.629 92.5057 159.229 91.7859 158.709C90.0266 157.429 88.5872 155.75 87.3076 154.031C86.0281 152.311 84.9086 150.432 83.9889 148.473C83.789 148.073 83.6291 147.633 83.4291 147.193C79.3907 147.393 75.4722 149.073 72.3934 151.752C68.7948 154.831 66.4357 159.029 65.476 163.667C64.4364 168.705 65.0762 173.983 66.7555 178.821C70.1142 188.538 77.7513 196.055 85.7482 202.212C91.8659 198.454 98.6633 195.815 105.701 194.375C105.541 192.976 105.261 191.576 105.021 190.177C104.901 189.777 104.821 189.417 104.701 189.017L99.0631 176.062C98.0635 174.223 97.0239 172.384 96.0243 170.544C95.6644 169.865 96.6641 169.265 97.0639 169.945C97.9436 171.544 98.8632 173.143 99.7029 174.743C101.582 178.222 103.341 181.74 104.741 185.459C104.981 183.699 105.701 182.1 106.94 180.661C110.139 176.942 114.857 175.143 119.495 174.623ZM130.611 184.099C130.491 183.38 130.371 182.66 130.291 181.94C129.731 181.86 129.172 181.62 128.652 181.26C126.892 180.021 125.973 177.782 126.253 175.662C124.373 175.542 122.534 175.503 120.655 175.662C117.336 175.942 113.897 176.822 111.059 178.661C115.697 181.82 121.175 183.739 126.732 184.099C128.012 184.179 129.331 184.179 130.611 184.099ZM122.374 210.569C122.374 210.089 122.374 209.609 122.374 209.13C122.374 208.37 122.374 207.65 122.414 206.93C119.055 206.97 115.697 207.49 112.418 208.41C112.338 208.45 112.218 208.45 112.138 208.41C112.098 209.609 112.058 210.809 111.978 212.009C115.417 211.249 118.896 210.809 122.374 210.569ZM132.05 185.619C132.13 186.138 132.21 186.698 132.29 187.218C132.33 187.538 132.21 187.858 131.891 187.938C131.611 188.018 131.211 187.858 131.171 187.538C131.051 186.818 130.931 186.059 130.811 185.339C127.572 185.579 124.173 193.576 123.654 205.691C126.093 205.731 128.572 206.011 130.971 206.491C131.731 206.651 131.411 207.81 130.651 207.65C128.332 207.17 125.973 206.93 123.614 206.89C123.574 207.61 123.574 208.37 123.574 209.09C123.574 209.569 123.574 210.009 123.574 210.449C125.013 210.369 126.453 210.329 127.892 210.329C128.652 210.329 128.652 211.529 127.892 211.529C126.453 211.529 125.013 211.569 123.574 211.649C124.014 224.444 127.572 232.84 130.931 232.84C134.529 232.84 138.328 223.284 138.328 209.05C138.368 196.335 135.289 187.298 132.05 185.619ZM133.01 174.423C132.53 173.903 131.93 173.503 131.291 173.223C131.291 173.263 131.251 173.343 131.211 173.383C131.091 173.543 130.931 173.623 130.691 173.583C130.611 173.583 130.491 173.543 130.411 173.503C129.611 173.303 128.772 173.583 128.172 174.143C127.492 174.823 127.292 175.862 127.372 176.822C127.492 178.381 128.492 180.101 130.011 180.661C130.171 180.701 130.331 180.741 130.491 180.78C130.531 180.741 130.571 180.741 130.611 180.701C130.771 180.661 130.971 180.701 131.131 180.78C132.29 180.701 133.37 179.901 133.89 178.821C134.609 177.422 134.09 175.543 133.01 174.423ZM153.162 164.987C152.683 165.186 152.163 165.346 151.643 165.346C150.203 165.386 148.884 164.627 147.884 163.627C147.245 164.747 145.925 165.506 144.606 165.306C143.726 165.187 142.926 164.627 142.406 163.907C141.807 164.627 140.887 165.107 139.927 165.107C138.288 165.067 136.969 163.787 136.369 162.308C136.249 161.988 136.169 161.708 136.089 161.388C135.209 161.508 134.29 161.628 133.41 161.828C133.45 162.707 133.45 163.547 133.49 164.427C133.49 164.907 133.53 165.386 133.53 165.866C133.53 166.346 133.53 166.626 133.17 166.986C132.57 167.546 131.811 167.945 131.011 168.225C131.091 169.465 131.131 170.704 131.211 171.944C132.61 172.424 133.85 173.303 134.609 174.623C134.769 174.863 134.889 175.103 134.969 175.383C135.649 175.463 136.329 175.503 137.009 175.582C140.847 175.862 144.806 175.702 148.324 174.223C149.724 171.544 151.123 168.865 152.563 166.146C152.762 165.786 152.962 165.386 153.162 164.987ZM156.201 159.429C155.961 158.629 155.202 157.989 154.362 157.949C153.882 157.909 153.482 157.27 153.922 156.91C155.441 155.71 157.121 154.431 157.841 152.591C158.04 151.992 158.16 151.432 158.16 150.832C157.521 151.152 156.881 151.432 156.201 151.632C153.922 152.391 151.323 152.551 149.044 151.712C146.965 150.952 145.125 149.473 144.046 147.553C142.926 145.594 142.726 143.275 143.566 141.196C144.086 139.836 144.965 138.677 145.925 137.597C143.926 137.037 141.967 136.278 139.927 136.158C136.049 135.918 132.25 137.237 128.732 138.717C125.133 140.196 121.614 141.836 117.936 143.035C114.937 143.995 111.858 144.754 108.739 145.314C108.779 145.474 108.779 145.594 108.819 145.754C109.179 147.153 109.979 148.393 110.459 149.792C110.819 150.832 110.859 151.912 110.539 152.911C113.777 153.631 116.297 156.39 116.696 159.669C116.736 159.909 116.536 160.108 116.336 160.188C119.095 160.268 121.854 160.348 124.573 160.468C124.933 160.468 125.293 160.828 125.133 161.228C124.453 163.147 125.133 165.506 126.892 166.626C127.772 167.186 128.852 167.386 129.891 167.266C129.851 166.586 130.731 166.506 131.011 166.986C131.531 166.786 132.01 166.506 132.45 166.106C132.41 164.507 132.37 162.907 132.29 161.308C132.29 161.068 132.49 160.788 132.73 160.748C133.85 160.548 134.969 160.348 136.089 160.228C136.089 158.949 136.409 157.629 136.809 156.43C137.968 152.711 139.927 149.273 142.446 146.274C142.926 145.674 143.806 146.554 143.286 147.113C142.127 148.513 141.087 149.992 140.207 151.592C139.448 152.991 138.768 154.431 138.248 155.91C137.688 157.469 137.128 159.189 137.328 160.868C137.488 162.148 138.288 163.547 139.608 163.867C140.527 164.107 141.687 163.467 141.887 162.508C141.847 162.268 141.847 162.028 141.847 161.748C141.927 161.108 142.886 160.868 143.006 161.588C143.046 161.868 143.086 162.108 143.046 162.388C143.206 163.227 143.846 164.027 144.766 164.147C145.885 164.307 146.925 163.427 147.125 162.348C147.205 161.948 147.844 161.748 148.124 162.068C148.924 163.067 150.044 164.067 151.403 164.147C152.523 164.227 153.722 163.547 153.962 162.388C154.002 162.108 154.282 161.988 154.522 161.948C154.602 161.948 154.722 161.908 154.802 161.868C155.202 161.068 155.641 160.188 156.201 159.429ZM209.301 122.843C209.741 119.284 209.341 115.526 207.581 112.327C206.022 109.488 203.463 107.409 200.504 106.249C194.027 103.69 187.029 105.369 181.192 108.808C178.513 110.408 175.954 112.287 173.555 114.366C174.914 118.365 175.394 122.563 174.594 126.761C174.074 129.44 172.995 131.959 171.715 134.358C170.436 136.797 168.956 139.156 167.437 141.476C165.278 144.834 162.679 148.113 159.28 150.192C159.44 151.272 159.24 152.391 158.76 153.431C158.08 154.91 156.881 156.07 155.601 157.07C156.241 157.389 156.761 157.869 157.081 158.469C157.601 158.069 158.24 157.789 158.92 157.709C160.12 157.549 161.319 157.869 162.479 158.109C167.477 159.229 172.275 160.988 176.793 163.387C176.833 163.387 176.833 163.427 176.873 163.427C179.872 163.787 182.871 163.667 185.79 162.587C189.308 161.268 191.628 158.429 193.587 155.35C195.786 151.912 197.825 148.393 199.824 144.834C201.824 141.276 203.783 137.717 205.542 134.039C207.302 130.56 208.821 126.801 209.301 122.843ZM110.139 92.1346C109.859 92.2945 109.779 92.6944 109.939 92.9743C110.099 93.2542 110.459 93.3342 110.779 93.1742C111.978 92.5745 113.498 92.5744 114.697 93.1342C114.977 93.2542 115.337 93.2142 115.537 92.9343C115.697 92.6544 115.617 92.2545 115.337 92.0946C113.658 91.3349 111.778 91.3349 110.139 92.1346ZM115.937 83.8178C118.935 82.6582 121.854 81.3788 124.773 79.9793C125.453 79.6594 126.093 80.699 125.373 81.0189C124.973 81.2188 124.613 81.3787 124.213 81.5387C124.253 81.5787 124.333 81.6187 124.373 81.6587C124.493 81.7786 124.533 81.8985 124.613 82.0185C124.693 82.2184 124.693 82.4183 124.653 82.6182C124.613 82.8182 124.493 83.0181 124.333 83.1381C124.173 83.298 123.974 83.418 123.774 83.458C123.574 83.4979 123.334 83.5379 123.134 83.458C122.894 83.378 122.694 83.2181 122.534 82.9782C122.414 82.7782 122.374 82.5383 122.414 82.2983C121.335 82.7782 120.295 83.258 119.215 83.6978C119.255 83.7378 119.295 83.8178 119.335 83.8578C119.375 83.9378 119.415 84.0577 119.455 84.1377C119.495 84.2176 119.495 84.3376 119.495 84.4576C119.495 84.6575 119.455 84.8574 119.335 85.0573C119.295 85.0973 119.295 85.1373 119.255 85.1773C119.215 85.2173 119.215 85.2572 119.175 85.2972C119.095 85.3772 119.015 85.4172 118.935 85.4572C118.856 85.4972 118.816 85.5371 118.736 85.5371C118.656 85.5371 118.576 85.5772 118.496 85.5772C118.456 85.5772 118.376 85.5772 118.336 85.5772C118.216 85.5772 118.136 85.5371 118.016 85.4971C117.936 85.4571 117.816 85.4172 117.736 85.3772C117.696 85.3373 117.616 85.2973 117.576 85.2573C117.536 85.2173 117.496 85.1373 117.456 85.0973C117.376 85.0173 117.376 84.8974 117.336 84.8174V84.7775C117.336 84.7775 117.336 84.7774 117.336 84.7374C117.336 84.6575 117.296 84.5775 117.296 84.4975C116.976 84.6175 116.616 84.7774 116.297 84.8973C115.537 85.2572 115.217 84.0977 115.937 83.8178ZM118.456 84.4975C118.456 84.4975 118.456 84.5375 118.496 84.5375C118.456 84.4975 118.456 84.4975 118.456 84.4975ZM115.337 82.2584C116.257 81.8986 117.176 81.5786 118.096 81.2188C118.376 81.0988 118.616 80.8189 118.496 80.499C118.416 80.2191 118.056 79.9792 117.776 80.0992C116.856 80.4591 115.937 80.779 115.017 81.1388C114.737 81.2588 114.497 81.5387 114.617 81.8586C114.657 82.1385 115.017 82.3784 115.337 82.2584ZM121.734 77.7401C121.734 77.7002 121.734 77.7002 121.734 77.7401V77.7401ZM123.494 98.5722C123.374 98.5722 123.254 98.5722 123.134 98.5722C123.134 98.5722 123.054 98.5722 123.014 98.5722C122.974 98.5722 122.934 98.5721 122.894 98.5321C122.654 98.4922 122.414 98.4122 122.214 98.3322C121.894 98.2123 121.375 97.9324 121.135 97.7325C120.935 97.5725 120.775 97.4126 120.615 97.2527C120.535 97.1727 120.455 97.0927 120.375 96.9728C120.295 96.8928 120.375 96.9727 120.335 96.8927C120.295 96.8527 120.255 96.7728 120.215 96.7328C119.935 96.293 119.775 95.9731 119.655 95.4933C119.575 95.1734 119.215 94.9735 118.935 95.0934C118.616 95.1734 118.456 95.5333 118.536 95.8132C119.095 98.0523 121.255 99.7317 123.534 99.7317C124.253 99.7717 124.253 98.5722 123.494 98.5722Z" fill="#24668A"/>
<path d="M145.806 183.939C145.287 179.581 147.406 174.983 151.044 172.544C154.683 170.104 159.761 169.865 163.6 171.984C167.438 174.103 169.957 178.501 169.837 182.9" fill="#50CD89"/>
<path d="M89.4684 216.607C88.1089 212.808 89.9082 208.17 92.9071 206.011C95.866 203.852 99.6645 203.692 103.103 204.491C105.702 205.051 108.301 206.211 110.061 208.49C111.82 210.809 112.42 214.487 110.9 217.007L110.7 216.767C103.903 216.047 97.0655 215.767 90.2681 215.967" fill="#50CD89"/>
</svg>
