<svg width="220" height="220" viewBox="0 0 220 220" fill="none" xmlns="http://www.w3.org/2000/svg">
<path d="M47.6375 118.726C39.834 115.226 34.8038 106.996 33.6697 98.515C32.5357 90.034 34.8562 81.3996 38.6101 73.7158C44.0932 62.4877 54.1723 52.0755 66.6804 51.7311C72.0063 51.5852 77.2685 53.2918 82.5944 53.0373C91.0903 52.6294 98.4784 47.3709 105.316 42.3182C112.154 37.2656 119.539 32.0033 128.038 31.5954C136.538 31.1874 145.891 38.0703 144.652 46.4839C144.244 49.2609 142.762 52.0231 143.488 54.7403C144.813 59.6806 151.913 60.0063 156.546 57.8392C161.18 55.6722 165.638 52.0268 170.716 52.6444C175.522 53.232 179.115 57.697 180.242 62.4016C181.368 67.1062 180.56 72.0391 179.748 76.8073L174.998 104.601C173.875 111.139 172.535 118.134 167.808 122.794C162.696 127.832 154.952 128.842 147.792 129.366C116.417 131.664 84.8751 129.769 54.0001 123.733" fill="#C6E2D2"/>
<path d="M193.497 124.167C193.663 124.681 193.74 125.221 193.726 125.761C193.693 126.647 193.368 127.497 192.801 128.179C192.813 128.825 192.611 129.457 192.225 129.975C191.971 130.283 191.646 130.524 191.277 130.676C190.908 130.828 190.507 130.887 190.11 130.847C190.443 132.008 190.331 133.34 189.556 134.261C188.782 135.181 186.959 135.234 186.016 134.41L187.648 131.233C186.76 130.433 186.002 129.5 185.402 128.467C185.137 128.107 185.025 127.656 185.091 127.213C185.26 126.626 186.005 126.367 186.588 126.525C186.656 126.543 186.722 126.566 186.787 126.592C186.566 126.401 186.338 126.218 186.109 126.042C185.398 125.488 184.672 124.867 184.391 124.009C184.111 123.152 184.496 122.015 185.376 121.82C185.881 121.759 186.392 121.864 186.832 122.119C187.161 122.273 187.483 122.434 187.805 122.602C187.389 121.693 186.978 120.787 186.562 119.881C186.457 119.716 186.389 119.531 186.362 119.337C186.335 119.143 186.349 118.946 186.405 118.758C186.503 118.592 186.651 118.461 186.827 118.382C187.004 118.304 187.2 118.282 187.389 118.321C187.765 118.408 188.119 118.574 188.426 118.807C189.706 119.645 190.997 120.495 192.023 121.629C192.4 122.043 192.729 122.499 193.003 122.988C193.057 121.863 192.766 120.749 192.169 119.795C191.463 118.712 190.654 117.7 189.755 116.771C189.212 116.157 188.677 115.222 189.205 114.593C189.624 114.088 190.425 114.2 191.031 114.454C191.929 114.827 192.728 115.405 193.364 116.141C194 116.876 194.456 117.75 194.696 118.693C194.935 119.636 194.951 120.621 194.743 121.571C194.535 122.522 194.109 123.41 193.497 124.167ZM86.9725 169.431C86.588 169.226 86.2212 168.989 85.8759 168.724C86.044 169.277 86.1161 169.856 86.0893 170.434C85.9997 171.548 85.7644 172.645 85.3894 173.698C85.0307 175.027 84.5287 176.313 83.8923 177.534C83.2474 178.763 82.2182 179.747 80.9618 180.337C79.8988 180.786 78.7161 180.831 77.5671 180.839C74.3422 180.864 71.1199 180.653 67.9259 180.206L68.768 178.75C66.8705 181.404 64.3367 183.616 61.4847 184.72C56.0803 186.786 52.128 183.496 47.8276 180.075C44.7211 177.601 41.7232 174.835 38.0292 173.383C32.9354 171.373 26.599 171.789 22.8712 167.795C18.481 163.095 20.5807 155.523 23.1519 149.628C30.6875 132.366 40.1371 116.004 51.3233 100.85L45.7317 76.7241C41.3789 76.275 32.5386 75.2869 32.5386 75.2869C36.5957 68.4266 40.9597 60.5407 45.5183 52.7633C48.9541 46.8985 56.4396 42.557 62.9444 46.4007C63.4288 46.6868 63.8872 47.0149 64.3142 47.3813C66.5149 49.2751 67.8398 52.0148 68.5884 54.8181C69.307 57.4941 69.554 60.2637 69.9095 63.0109C71.0613 62.5851 72.3161 62.5237 73.5039 62.8349C74.6917 63.1462 75.7551 63.815 76.55 64.7509C77.3449 65.6868 77.833 66.8444 77.948 68.0669C78.0629 69.2894 77.7993 70.5177 77.1929 71.5854C76.4371 72.8967 75.2182 73.878 73.7758 74.3363C76.9047 79.3702 79.8577 83.8128 83.0352 88.4201L83.155 88.188C94.2297 89.9621 105.215 93.746 114.706 99.7231C121.218 126.981 110.724 149.89 86.9725 169.431Z" fill="white"/>
<path d="M194.278 101.872L138.058 72.3431C134.223 70.3285 129.48 71.8047 127.466 75.6403L83.7811 158.812C81.7665 162.647 83.2427 167.39 87.0784 169.404L143.298 198.933C147.134 200.947 151.876 199.471 153.891 195.636L197.575 112.464C199.59 108.629 198.113 103.886 194.278 101.872Z" fill="white"/>
<path d="M118.643 114.574C128.359 114.574 136.234 106.698 136.234 96.9833C136.234 87.2682 128.359 79.3926 118.643 79.3926C108.928 79.3926 101.053 87.2682 101.053 96.9833C101.053 106.698 108.928 114.574 118.643 114.574Z" fill="#FEAABC"/>
<path d="M153.531 152.559L160.327 141.612C161.046 140.455 161.783 139.254 161.993 137.906C162.203 136.559 161.753 135.01 160.571 134.328C159.321 133.61 157.708 134.07 156.491 134.849C155.275 135.627 154.246 136.697 152.947 137.319C151.648 137.94 149.874 137.978 148.961 136.858C147.969 135.646 148.212 133.411 146.715 132.887C145.884 132.595 145.005 133.078 144.151 133.299C143.298 133.52 142.089 133.206 142.085 132.322C139.147 135.653 137.512 139.669 135.102 143.393" fill="#9ED5F0"/>
<path d="M116.579 97.3108C116.893 91.7042 117.209 86.0989 117.526 80.4948C117.567 79.7762 118.69 79.7724 118.649 80.4948C118.344 85.8843 118.04 91.275 117.735 96.667H117.758L117.795 96.6932C123.602 95.6776 129.459 94.973 135.341 94.5823C136.063 94.5374 136.06 95.6602 135.341 95.7051C129.884 96.0678 124.449 96.7049 119.057 97.6139L131.658 106.799C132.238 107.221 131.677 108.195 131.093 107.768L117.384 97.7749C117.302 97.8236 117.21 97.8497 117.115 97.8505C117.02 97.8513 116.927 97.8268 116.845 97.7794C116.763 97.7321 116.695 97.6637 116.648 97.5813C116.601 97.4989 116.577 97.4055 116.579 97.3108ZM186.867 130.445L152.917 195.111C152.085 196.688 150.662 197.87 148.961 198.4C147.259 198.929 145.416 198.763 143.837 197.937L87.8012 168.508C87.2024 168.583 86.5923 168.624 85.9785 168.647C85.9806 168.663 85.9806 168.679 85.9785 168.695C86.3323 168.963 86.7079 169.201 87.1013 169.407L143.321 198.929C144.232 199.409 145.23 199.704 146.256 199.798C147.282 199.892 148.316 199.783 149.3 199.477C150.284 199.17 151.198 198.673 151.989 198.013C152.781 197.354 153.434 196.544 153.912 195.632L187.339 131.987L187.649 131.238C187.375 130.992 187.114 130.733 186.867 130.46V130.445ZM194.289 101.851L138.07 72.3394C137.158 71.8595 136.16 71.5642 135.134 71.4702C134.108 71.3762 133.074 71.4855 132.09 71.7917C131.106 72.098 130.192 72.5952 129.401 73.255C128.609 73.9148 127.956 74.7241 127.478 75.6367L124.899 80.5434C125.251 80.6782 125.599 80.8241 125.939 80.9813L128.469 76.1607C129.041 75.0749 129.897 74.1657 130.948 73.5312C131.998 72.8967 133.201 72.5609 134.428 72.5602C135.516 72.5591 136.588 72.8251 137.549 73.335L193.768 102.857C195.345 103.689 196.527 105.112 197.057 106.814C197.586 108.515 197.42 110.358 196.594 111.937L193.948 116.975C194.197 117.372 194.399 117.797 194.551 118.24L197.59 112.457C198.553 110.614 198.746 108.465 198.127 106.48C197.508 104.494 196.128 102.835 194.289 101.866V101.851ZM95.2866 149.57C102.023 153.73 108.859 157.713 115.793 161.521C117.752 162.596 119.718 163.656 121.691 164.702C122.331 165.039 122.9 164.069 122.26 163.733C115.274 160.027 108.381 156.145 101.582 152.085C99.6606 150.935 97.7506 149.774 95.8518 148.601C95.238 148.212 94.6915 149.192 95.2866 149.57ZM98.2808 145.382L106.586 149.896C107.218 150.24 107.787 149.271 107.151 148.926L98.8459 144.413C98.1985 144.065 97.6333 145.034 98.2696 145.382H98.2808ZM102.671 140.21C107.644 142.877 112.725 145.33 117.915 147.568C118.574 147.849 119.146 146.883 118.484 146.595C113.289 144.364 108.203 141.909 103.225 139.229C102.589 138.896 102.02 139.865 102.66 140.21H102.671ZM105.545 135.999L108.891 138.058C109.02 138.132 109.173 138.153 109.317 138.116C109.461 138.079 109.585 137.987 109.662 137.859C109.734 137.729 109.752 137.577 109.715 137.434C109.677 137.29 109.586 137.167 109.46 137.088L106.114 135.03C105.985 134.956 105.832 134.935 105.687 134.973C105.543 135.011 105.42 135.104 105.343 135.232C105.272 135.361 105.254 135.513 105.291 135.656C105.329 135.799 105.42 135.921 105.545 135.999ZM132.493 140.76C131.86 140.412 131.291 141.381 131.928 141.729L135 143.41C133.968 145.189 132.947 146.974 131.939 148.765C131.587 149.398 132.556 149.967 132.908 149.334C133.919 147.53 134.944 145.735 135.985 143.949L153.991 153.826L159.231 156.689L154.74 156.981C154.021 157.026 154.017 158.148 154.74 158.104L162.996 157.568C163.43 157.538 163.804 156.94 163.393 156.61C161.757 155.291 160.412 153.649 159.44 151.786C159.104 151.146 158.134 151.715 158.471 152.355C159.285 153.903 160.345 155.309 161.611 156.517L161.027 156.554C161.008 156.486 160.976 156.423 160.931 156.368C160.887 156.313 160.832 156.268 160.769 156.236L138.687 144.158L136.535 142.972C139.364 138.141 142.298 133.373 145.334 128.667C146.582 126.751 147.838 124.847 149.103 122.956C149.146 122.894 149.175 122.824 149.187 122.75C149.2 122.676 149.195 122.6 149.174 122.528C149.152 122.456 149.115 122.39 149.065 122.334C149.014 122.279 148.952 122.235 148.882 122.207L150.005 121.107C149.329 123.622 148.649 126.138 147.965 128.656C147.93 128.798 147.952 128.948 148.026 129.073C148.1 129.199 148.22 129.292 148.361 129.331C148.501 129.37 148.652 129.352 148.78 129.282C148.908 129.212 149.004 129.095 149.047 128.955C149.908 125.777 150.767 122.599 151.626 119.423C151.656 119.304 151.646 119.178 151.599 119.065C151.551 118.952 151.468 118.857 151.362 118.795C151.256 118.733 151.132 118.708 151.01 118.723C150.889 118.737 150.775 118.791 150.686 118.876L143.534 125.853C143.014 126.358 143.807 127.151 144.327 126.646L147.127 123.921C143.092 129.98 139.232 136.153 135.547 142.44L132.493 140.76ZM192.107 105.578L166.656 93.0478L141.296 80.5584C139.256 79.5554 136.962 78.1855 134.596 78.6871C132.744 79.0613 131.086 80.8878 131.583 82.8452C131.759 83.5451 132.845 83.2494 132.665 82.5495C132.22 80.7942 134.274 79.6639 135.749 79.7163C136.761 79.7994 137.747 80.0777 138.653 80.5359C139.634 80.9813 140.596 81.4791 141.565 81.9544L153.703 87.9428L177.892 99.8558L191.538 106.574C192.163 106.87 192.75 105.919 192.084 105.582L192.107 105.578ZM174.973 111.533C174.642 111.148 174.222 110.85 173.75 110.664C173.278 110.478 172.767 110.411 172.263 110.466C171.788 110.542 171.348 110.758 170.998 111.088C170.683 111.365 170.339 111.836 169.901 111.507C169.153 110.934 169.243 109.778 169.119 108.951C168.984 108.06 168.632 107.124 167.738 106.769C166.843 106.413 165.93 106.862 165.118 107.236C164.793 107.431 164.423 107.536 164.044 107.54C163.64 107.476 163.494 107.102 163.441 106.742C163.303 105.814 163.497 104.834 162.97 103.995C162.658 103.551 162.236 103.197 161.745 102.966C161.254 102.736 160.711 102.638 160.17 102.682C158.789 102.76 157.625 103.584 156.558 104.388C155.986 104.815 156.558 105.792 157.124 105.358C157.984 104.71 158.943 103.947 160.047 103.812C160.848 103.718 161.854 104.029 162.143 104.856C162.431 105.683 162.169 106.596 162.453 107.427C162.587 107.833 162.861 108.177 163.226 108.398C163.591 108.619 164.023 108.702 164.444 108.632C165.286 108.513 165.968 107.929 166.791 107.779C167.704 107.611 167.948 108.528 168.049 109.25C168.176 110.156 168.176 111.032 168.711 111.821C169.246 112.611 170.085 113.015 170.957 112.57C171.466 112.312 171.773 111.724 172.338 111.585C172.578 111.542 172.824 111.548 173.062 111.602C173.3 111.656 173.525 111.757 173.723 111.9C174.763 112.581 175.029 113.999 175.276 115.126C175.433 115.833 176.515 115.534 176.357 114.827C176.08 113.681 175.781 112.469 174.973 111.533ZM165.99 117.271C166.075 117.54 166.244 117.774 166.472 117.939C166.701 118.105 166.977 118.192 167.259 118.188C167.948 118.188 168.46 117.675 169.07 117.439C170.115 117.042 171.267 117.521 172.229 117.929C173.505 118.472 174.771 119.093 176.182 119.116C176.33 119.116 176.473 119.057 176.578 118.951C176.684 118.846 176.743 118.703 176.743 118.554C176.743 118.405 176.684 118.263 176.578 118.157C176.473 118.052 176.33 117.993 176.182 117.993C173.685 117.956 171.511 115.568 168.943 116.301C168.649 116.393 168.366 116.519 168.101 116.676C167.914 116.78 167.397 117.185 167.158 117.05C166.828 116.87 167.3 115.905 167.379 115.661C167.779 114.43 167.468 113.041 166.226 112.409C165.902 112.261 165.551 112.184 165.195 112.184C164.839 112.183 164.487 112.258 164.163 112.405C163.839 112.551 163.549 112.765 163.315 113.032C163.08 113.3 162.905 113.614 162.801 113.955C162.588 114.643 163.67 114.939 163.887 114.25C163.962 113.992 164.116 113.763 164.326 113.595C164.537 113.427 164.794 113.328 165.062 113.311C165.331 113.294 165.599 113.36 165.828 113.501C166.058 113.642 166.238 113.85 166.346 114.097C166.806 115.156 165.676 116.196 165.99 117.286V117.271ZM108.659 111.466L87.9547 150.929C88.3851 150.903 88.8155 150.888 89.2459 150.88L109.621 112.079C109.288 111.885 108.97 111.679 108.659 111.466Z" fill="#3F4254"/>
<path d="M193.782 115.803C192.865 114.718 191.162 113.419 189.665 113.726C189.291 113.794 188.957 114.002 188.73 114.307C188.504 114.612 188.402 114.992 188.445 115.369C188.531 116.245 189.141 116.926 189.699 117.555C190.571 118.528 191.57 119.647 192.094 120.901C191.002 119.844 189.782 118.928 188.464 118.172C187.798 117.768 186.944 117.544 186.274 118.064C185.496 118.663 185.814 119.587 186.151 120.332C186.319 120.706 186.491 121.081 186.66 121.455C186.356 121.308 186.021 121.235 185.684 121.242C185.346 121.25 185.015 121.336 184.717 121.496C184.396 121.718 184.137 122.02 183.965 122.371C183.793 122.722 183.715 123.112 183.737 123.502C183.778 124.703 184.526 125.445 185.365 126.122C185.177 126.208 185.008 126.332 184.87 126.486C184.732 126.64 184.626 126.82 184.56 127.016C184.276 127.907 184.908 128.806 185.395 129.502C185.934 130.28 186.562 130.993 187.266 131.628C187.798 132.11 188.595 131.321 188.059 130.834C187.143 130.031 186.375 129.074 185.791 128.005C185.574 127.593 185.537 127.155 186.076 127.054C186.229 127.028 186.386 127.042 186.532 127.095C186.858 127.229 187.149 127.433 187.386 127.694C187.625 127.933 187.88 128.21 188.134 128.506C188.435 128.859 188.709 129.235 188.954 129.629C189.294 130.154 189.546 130.73 189.703 131.336C189.814 131.751 189.831 132.185 189.754 132.608C189.676 133.031 189.505 133.431 189.253 133.78C188.703 134.528 187.431 134.94 186.634 134.292C186.08 133.836 185.282 134.625 185.84 135.086C186.378 135.503 187.042 135.724 187.722 135.713C188.402 135.702 189.059 135.46 189.583 135.026C190.664 134.169 190.994 132.705 190.81 131.38C191.506 131.282 192.143 130.939 192.607 130.411C193.076 129.835 193.34 129.118 193.355 128.375C193.796 127.807 194.093 127.14 194.22 126.433C194.34 125.712 194.303 124.974 194.111 124.269C195.006 123.023 195.459 121.513 195.4 119.98C195.34 118.446 194.771 116.977 193.782 115.803ZM190.878 130.246C190.767 130.278 190.652 130.3 190.537 130.31C189.994 129.003 189.173 127.831 188.131 126.874C187.808 126.549 187.427 126.288 187.008 126.103C186.392 125.654 185.827 125.141 185.32 124.572C185.118 124.357 184.976 124.092 184.911 123.804C184.845 123.515 184.857 123.215 184.946 122.933C185.234 122.185 185.937 122.353 186.54 122.626C186.813 122.746 187.086 122.877 187.363 123.001C187.927 123.277 188.477 123.582 189.01 123.914C189.598 124.28 190.154 124.696 190.672 125.156C191.473 125.879 192.169 126.874 192.244 127.963C192.264 128.256 192.237 128.551 192.165 128.835C192.095 129.117 191.968 129.38 191.791 129.61C191.564 129.916 191.243 130.139 190.878 130.246ZM192.375 125.381C191.334 124.004 189.755 123.012 188.224 122.215C188.149 122.057 188.078 121.9 188.007 121.739C187.667 120.991 187.259 120.242 186.985 119.494C186.678 118.663 187.521 118.943 187.958 119.217C189.519 120.194 191.398 121.444 192.423 123.105C192.609 123.407 192.765 123.727 192.888 124.06L192.869 124.082H192.899C193.024 124.429 193.107 124.79 193.146 125.156C193.165 125.317 193.175 125.478 193.176 125.639C193.175 125.958 193.131 126.275 193.045 126.582C192.88 126.141 192.655 125.726 192.375 125.347V125.381ZM193.55 122.881C193.56 121.543 193.153 120.235 192.386 119.138C191.913 118.452 191.392 117.799 190.829 117.184C190.387 116.683 189.706 116.103 189.575 115.407C189.441 114.658 190.41 114.856 190.829 115.032C191.461 115.296 192.038 115.677 192.528 116.155C193.529 117.092 194.159 118.358 194.302 119.722C194.403 120.867 194.163 122.017 193.614 123.027C193.584 122.926 193.561 122.888 193.539 122.847L193.55 122.881ZM72.1367 105.863C72.0511 106.463 72.1534 107.074 72.4295 107.614C72.7056 108.153 73.142 108.594 73.6787 108.876C74.1738 109.159 74.7486 109.272 75.3141 109.196C75.8796 109.12 76.4045 108.86 76.8076 108.456C77.1711 108.079 77.4334 107.616 77.5701 107.11C77.7069 106.605 77.7136 106.072 77.5898 105.563C77.4404 105.056 77.141 104.605 76.7308 104.271C76.3206 103.937 75.8189 103.735 75.2918 103.692C74.7195 103.618 74.1384 103.716 73.6219 103.974C73.1055 104.231 72.6771 104.636 72.3912 105.137C72.3229 105.272 72.3069 105.428 72.3462 105.575C72.2434 105.629 72.1646 105.72 72.1254 105.829L72.1367 105.863ZM73.3605 105.691C73.4054 105.608 73.4541 105.53 73.5027 105.451V105.432C73.5327 105.399 73.5626 105.361 73.5963 105.328C73.6505 105.27 73.7093 105.218 73.7722 105.17L73.8321 105.129L73.9855 105.032L74.1091 104.968L74.1802 104.942C74.2549 104.913 74.3311 104.888 74.4085 104.867C74.4871 104.845 74.5657 104.83 74.6443 104.815H74.7154C74.7777 104.811 74.8402 104.811 74.9025 104.815H75.1795H75.2281L75.3629 104.841C75.4379 104.855 75.5117 104.875 75.5837 104.901L75.6698 104.931L75.7858 104.987C75.8656 105.03 75.9431 105.078 76.0178 105.129H76.0366C76.0665 105.163 76.1039 105.193 76.1376 105.226L76.2312 105.328V105.346C76.2898 105.437 76.3436 105.531 76.3921 105.627V105.649C76.4081 105.692 76.4218 105.736 76.4333 105.78C76.4547 105.857 76.4722 105.934 76.4857 106.012C76.487 106.036 76.487 106.06 76.4857 106.084C76.4857 106.128 76.4857 106.177 76.4857 106.222C76.485 106.318 76.4788 106.415 76.467 106.51C76.467 106.533 76.4445 106.652 76.437 106.675C76.4183 106.767 76.392 106.857 76.3584 106.944C76.3507 106.974 76.3407 107.003 76.3285 107.03L76.2911 107.113C76.242 107.211 76.187 107.306 76.1264 107.397L76.0702 107.476L76.0178 107.543C75.9568 107.612 75.8918 107.677 75.8232 107.738L75.7521 107.794L75.681 107.843L75.5612 107.914L75.449 107.966C75.371 107.997 75.2909 108.022 75.2094 108.041L75.1084 108.06H74.9886C74.9114 108.065 74.8338 108.065 74.7566 108.06H74.663C74.5933 108.045 74.5246 108.026 74.4571 108.004L74.3299 107.962C74.2861 107.938 74.2412 107.915 74.1951 107.895C74.0898 107.84 73.9885 107.777 73.892 107.708L73.8171 107.648C73.7647 107.599 73.7086 107.551 73.6599 107.498C73.6113 107.446 73.5851 107.42 73.5514 107.379L73.5027 107.322C73.4943 107.306 73.4843 107.291 73.4728 107.277C73.4017 107.173 73.3418 107.064 73.2819 106.956C73.2744 106.945 73.2681 106.934 73.2632 106.922C73.2632 106.922 73.2632 106.922 73.2632 106.892C73.2632 106.862 73.2183 106.757 73.1996 106.69C73.1809 106.622 73.1734 106.585 73.1622 106.536V106.503C73.1601 106.475 73.1601 106.448 73.1622 106.42C73.1622 106.368 73.1622 106.312 73.1622 106.259C73.1622 106.207 73.1884 106.027 73.1622 106.14C73.1755 106.041 73.1679 105.94 73.1397 105.844C73.2303 105.807 73.3064 105.741 73.3568 105.657L73.3605 105.691ZM99.1814 108.539C98.8633 110.212 97.209 111.2 95.6109 111.136C95.7361 111.524 95.7832 111.932 95.7494 112.338C95.5997 114.265 93.8444 115.983 91.8645 115.092C91.0845 114.724 90.4789 114.066 90.1765 113.258C89.9568 113.434 89.7168 113.582 89.4616 113.7C87.2534 114.707 84.787 112.978 84.6972 110.608C84.6111 108.322 87.1299 106.645 89.2371 107.345C89.922 107.569 89.6114 108.655 88.9377 108.426C88.4862 108.284 88.0031 108.275 87.5468 108.402C87.0906 108.528 86.6806 108.783 86.3664 109.138C86.0564 109.488 85.8692 109.929 85.8334 110.395C85.7975 110.862 85.9151 111.327 86.1681 111.72C86.4042 112.154 86.7783 112.497 87.2311 112.694C87.684 112.891 88.1897 112.932 88.6682 112.809C89.1776 112.654 89.6245 112.34 89.9445 111.915C89.9593 111.282 90.1889 110.674 90.5957 110.189C90.6749 110.113 90.7747 110.061 90.883 110.04C90.9912 110.02 91.1031 110.031 91.2049 110.073C91.3068 110.115 91.394 110.186 91.456 110.277C91.518 110.369 91.552 110.476 91.5538 110.586C91.5335 111.174 91.3635 111.747 91.0598 112.252C91.1983 113.374 92.2088 114.497 93.3279 114.16C94.7314 113.764 95.1506 111.406 93.908 110.597C93.3129 110.197 93.8668 109.235 94.4731 109.628C94.882 109.894 95.3604 110.032 95.8481 110.026C96.3357 110.02 96.8106 109.87 97.2128 109.594C97.5993 109.322 97.8861 108.93 98.0294 108.479C98.1727 108.029 98.1645 107.543 98.0062 107.098C97.8815 106.636 97.6093 106.227 97.231 105.934C96.8527 105.641 96.3889 105.479 95.9103 105.473C95.4104 105.481 94.9246 105.64 94.5175 105.93C94.1104 106.221 93.8012 106.628 93.631 107.098C93.4102 107.783 92.3435 107.495 92.5494 106.798C92.747 106.125 92.761 105.41 92.5899 104.729C92.4188 104.048 92.0689 103.425 91.5763 102.925C89.937 104.126 89.9894 107.098 91.8383 108.105C92.4745 108.449 91.9056 109.418 91.2694 109.074C88.5896 107.611 88.627 103.131 91.3592 101.738C91.4676 101.68 91.5915 101.657 91.7136 101.672C91.8357 101.688 91.9499 101.741 92.0404 101.824C93.0246 102.648 93.6555 103.817 93.8032 105.092C94.2438 104.756 94.7563 104.528 95.3003 104.426C97.6844 103.976 99.6381 106.196 99.1814 108.539ZM93.4476 161.685C93.603 161.581 93.7428 161.455 93.8631 161.311C94.1136 161.044 94.2738 160.706 94.3208 160.343C94.3679 159.98 94.2994 159.611 94.1251 159.29C93.7508 158.631 92.9498 158.283 92.3136 157.939C90.9673 157.159 89.5221 156.563 88.017 156.168C87.0123 155.939 85.9809 155.849 84.9517 155.899C85.6141 155.083 86.9915 154.858 87.9833 154.866C89.5328 154.885 91.7522 155.375 92.9611 154.084C94.17 152.792 93.021 150.996 91.5912 150.536C90.6923 150.313 89.7628 150.241 88.8404 150.322C87.812 150.355 86.7862 150.443 85.7676 150.588C84.0722 150.831 82.343 151.269 81.0368 152.459C79.8766 153.504 79.2366 155.008 78.911 156.509C78.2073 159.746 79.0569 163.512 77.2155 166.442C76.3325 167.775 74.9938 168.739 73.4503 169.156C73.3119 169.197 73.1734 169.227 73.0312 169.257C73.1472 167.967 73.1284 166.669 72.975 165.383C72.6058 162.338 71.5653 159.413 69.9285 156.82C69.3973 155.99 68.8056 155.201 68.1582 154.458C69.4269 152.71 70.2017 150.494 70.8829 148.571C72.2003 144.849 73.1273 141.001 73.6487 137.088C73.908 135.168 74.0704 133.235 74.1353 131.298C74.1615 130.576 73.0387 130.576 73.0125 131.298C72.849 136.143 72.0654 140.946 70.6807 145.592C70.0573 147.834 69.2396 150.018 68.2368 152.119C67.9789 152.637 67.6863 153.137 67.361 153.616C67.2599 153.515 67.1663 153.41 67.0653 153.309C65.9425 152.235 64.6737 151.149 63.2253 150.573C61.8742 150.038 60.2311 150.098 59.2692 151.303C58.9281 151.762 58.6932 152.292 58.5812 152.853C58.4692 153.414 58.4831 153.993 58.6217 154.548C59.2954 157.561 62.8248 158.07 65.265 156.954C66.088 156.568 66.8269 156.024 67.4396 155.352C68.555 156.671 69.4878 158.134 70.2129 159.702C71.842 163.17 72.3709 167.054 71.7287 170.832C70.9847 174.684 69.0806 178.217 66.2718 180.956C63.4124 183.763 59.4639 185.683 55.4629 184.291C53.5429 183.621 51.84 182.397 50.2418 181.17C48.4865 179.819 46.7985 178.389 45.0619 177.019C43.3798 175.621 41.55 174.411 39.6051 173.411C37.85 172.604 36.0058 172.008 34.1108 171.633C30.5627 170.851 26.4831 170.383 23.7397 167.748C20.8915 165.012 20.652 160.922 21.3631 157.269C22.1678 153.107 24.0204 149.237 25.7795 145.412C29.7303 136.826 34.1611 128.469 39.0511 120.381C41.4964 116.336 44.0539 112.364 46.7237 108.464C48.0561 106.513 49.4172 104.581 50.807 102.67C51.0353 102.36 51.4582 101.922 51.7314 101.495C56.6058 102.36 61.6036 102.244 66.4328 101.154C68.0857 100.751 69.7039 100.216 71.2721 99.5563C71.225 99.6367 71.2017 99.7288 71.2047 99.822C71.2664 101.404 70.9534 102.979 70.2913 104.418C69.6292 105.856 68.6367 107.118 67.3946 108.101C66.1489 109.052 64.6886 109.683 63.142 109.938C61.5954 110.194 60.0098 110.065 58.5244 109.564C56.8174 109.022 55.2931 108.02 54.1193 106.667C53.6439 106.121 52.8542 106.918 53.3221 107.461C54.4749 108.76 55.9158 109.771 57.5296 110.413C59.1433 111.055 60.8851 111.311 62.6152 111.159C64.3554 110.984 66.0261 110.385 67.4812 109.415C68.9363 108.445 70.1312 107.133 70.9614 105.593C71.7825 104.112 72.25 102.461 72.3275 100.769C74.5855 101.844 77.1356 102.143 79.5809 101.618C81.5907 101.154 83.4324 100.142 84.9012 98.6932C86.37 97.2449 87.4084 95.4176 87.9009 93.4145C88.0694 92.7108 86.9877 92.4114 86.8193 93.1151C86.2597 95.3749 84.9428 97.3747 83.0878 98.7815C81.5061 99.9537 79.6136 100.633 77.6476 100.734C75.6815 100.835 73.7293 100.354 72.0356 99.3504C71.9926 99.3247 71.9459 99.3058 71.8971 99.2943C74.5335 98.1434 77.0043 96.6456 79.2441 94.8404C81.333 93.1342 83.2102 91.1841 84.8357 89.0318C90.479 90.031 96.0135 91.5688 101.363 93.6241C101.433 93.2523 101.516 92.8855 101.61 92.5237C98.1115 91.1739 94.5299 90.0488 90.8876 89.1553C88.4174 88.549 85.9223 88.0499 83.4022 87.6582C83.3624 87.6545 83.3223 87.6545 83.2824 87.6582C82.504 86.5354 81.7367 85.4126 80.9694 84.2561C83.5789 82.978 85.8896 81.1641 87.7507 78.9327C89.6119 76.7014 90.9817 74.1028 91.7709 71.3063C91.8757 70.932 91.9468 70.438 91.6474 70.1835C91.1908 69.7681 90.5059 70.2883 90.0754 70.7337C88.5247 72.347 86.4181 73.3098 84.1833 73.4266C81.9486 73.5434 79.7531 72.8054 78.0426 71.3625C78.4607 70.3581 78.6345 69.2689 78.5499 68.1844C78.4653 67.0998 78.1247 66.0508 77.5561 65.1234C78.0926 63.3441 78.4684 61.5204 78.6789 59.674C79.2216 54.4978 77.0359 47.8396 71.8148 43.7076C67.7352 40.4814 59.2842 39.5906 55.5041 43.1612C49.92 41.0241 44.3358 48.6929 44.8374 52.9708C43.6135 54.9095 42.5468 56.9718 41.4165 58.9591C38.3475 64.3112 35.3234 69.6895 32.187 75.0041C32.1401 75.0898 32.116 75.1862 32.1171 75.2839C32.1182 75.3816 32.1444 75.4774 32.1933 75.5621C32.2422 75.6467 32.3121 75.7173 32.3962 75.7671C32.4803 75.8168 32.5759 75.8441 32.6736 75.8462C36.9178 76.3215 41.1583 76.7931 45.3988 77.2348L47.2065 85.0271C48.2045 89.3586 49.2026 93.6889 50.2007 98.018C50.4102 98.92 50.6161 99.8182 50.8257 100.72C41.5577 113.306 33.4799 126.727 26.6965 140.808C25.0534 144.218 23.4029 147.65 22.0181 151.172C20.8616 154.117 19.9371 157.258 19.8922 160.446C19.8473 163.44 20.7456 166.412 22.9425 168.523C25.1395 170.634 28.1823 171.487 31.1054 172.124C34.3129 172.82 37.4904 173.4 40.3686 175.069C43.5611 176.94 46.297 179.493 49.1976 181.75C51.6903 183.692 54.4374 185.646 57.6936 185.867C60.9497 186.088 64.0861 184.415 66.459 182.292C67.0048 181.798 67.5245 181.276 68.0159 180.728C70.0145 181.001 72.0244 181.196 74.038 181.293C75.9879 181.387 78.0426 181.533 79.9739 181.2C83.9149 180.518 85.2698 176.484 86.2579 173.134C86.6953 171.862 86.8399 170.507 86.6808 169.171C87.8541 169.125 89.0159 168.922 90.1353 168.568C90.9812 168.28 92.9049 167.535 92.2088 166.27C91.8372 165.725 91.2862 165.328 90.6518 165.147C91.4977 165.267 92.4072 165.488 93.2306 165.244C93.6076 165.158 93.9486 164.957 94.2067 164.669C94.4647 164.38 94.6271 164.019 94.6715 163.635C94.7201 162.808 94.1363 162.119 93.4476 161.685ZM63.8802 156.258C62.1811 156.7 60.1375 156.138 59.7109 154.245C59.3366 152.538 60.4594 151 62.2971 151.438C63.9588 151.834 65.4784 153.212 66.676 154.488C65.9375 155.34 64.9614 155.953 63.8728 156.247L63.8802 156.258ZM49.3548 89.3012C48.4241 85.2941 47.4934 81.2844 46.5627 77.2722C46.5103 77.0401 46.4542 76.8043 46.4018 76.5686C46.3674 76.4509 46.296 76.3474 46.1983 76.2732C46.1006 76.1991 45.9817 76.1583 45.8591 76.1569C41.7683 75.7339 37.6776 75.2811 33.5868 74.8245C36.0682 70.6027 38.4822 66.3472 40.9075 62.0993C42.2549 59.7414 43.6073 57.3897 44.9646 55.0443C46.0874 53.1055 47.184 51.2192 48.7934 49.6286C49.6789 48.7533 50.6636 47.9846 51.7277 47.338C51.4997 48.932 51.4545 50.5469 51.5929 52.1511C51.8063 54.0412 52.5062 55.935 53.8835 57.245C55.5228 58.8057 57.8769 59.3371 60.1301 59.5467C62.0837 59.7301 64.1273 59.7039 65.9125 58.8843L66.4141 59.6066C66.8573 60.9286 67.372 62.2255 67.9561 63.4915C67.7229 63.6675 67.5027 63.8601 67.2973 64.0679C67.2392 64.119 67.1923 64.1815 67.1595 64.2515C67.1267 64.3215 67.1087 64.3976 67.1067 64.4749C67.1047 64.5522 67.1186 64.6291 67.1477 64.7007C67.1768 64.7724 67.2203 64.8373 67.2757 64.8913C67.331 64.9453 67.3969 64.9873 67.4692 65.0147C67.5415 65.0421 67.6187 65.0542 67.6959 65.0504C67.7732 65.0465 67.8488 65.0267 67.918 64.9923C67.9873 64.9578 68.0486 64.9094 68.0983 64.8501C68.7895 64.1388 69.6606 63.6282 70.619 63.3726C71.5773 63.1169 72.587 63.1258 73.5407 63.3984C74.4944 63.6709 75.3564 64.1968 76.0349 64.9202C76.7135 65.6436 77.1833 66.5374 77.3943 67.5066C77.6054 68.4757 77.5497 69.4839 77.2334 70.424C76.9171 71.364 76.3518 72.2008 75.5978 72.8451C74.8438 73.4895 73.9292 73.9175 72.9513 74.0834C71.9735 74.2494 70.9689 74.1472 70.0445 73.7877C69.9055 73.7336 69.7508 73.737 69.6142 73.797C69.4777 73.857 69.3706 73.9688 69.3165 74.1077C69.2624 74.2467 69.2658 74.4015 69.3258 74.538C69.3858 74.6745 69.4976 74.7816 69.6365 74.8357C70.3592 75.1128 71.1269 75.2536 71.9009 75.2511C72.4999 75.2492 73.0962 75.17 73.6749 75.0153C76.5668 79.6488 79.5659 84.2112 82.6724 88.7024C82.7189 88.775 82.7811 88.8363 82.8543 88.8818C82.9275 88.9274 83.0099 88.956 83.0956 88.9657C83.1813 88.9754 83.268 88.9659 83.3496 88.9378C83.4311 88.9097 83.5053 88.8638 83.5669 88.8035H83.6118C80.8487 92.3399 77.3676 95.2508 73.3979 97.3443C69.2909 99.4557 64.777 100.657 60.1637 100.866C57.4277 100.995 54.6857 100.827 51.9859 100.365H51.9148C51.0565 96.6769 50.2007 92.9853 49.3473 89.29L49.3548 89.3012ZM91.2469 166.85V166.869V166.85ZM92.2724 164.26C91.4378 164.226 90.5994 164.047 89.7648 163.968C88.9302 163.89 88.1255 163.841 87.3058 163.815C86.1207 163.78 84.9367 163.801 83.754 163.878C83.1275 163.818 82.4953 163.861 81.8827 164.006C81.8412 164.016 81.801 164.031 81.7629 164.051C81.728 164.049 81.693 164.049 81.6581 164.051C80.947 164.133 80.9395 165.259 81.6581 165.173C82.227 165.102 82.7809 165.054 83.3648 165.012C83.8102 165.012 84.2555 165.05 84.6972 165.091C85.9178 165.206 87.1293 165.403 88.3239 165.679C89.2708 165.896 90.3038 166.117 91.0785 166.67C91.0411 166.644 91.1159 166.704 91.1833 166.764L91.217 166.79C91.1744 166.826 91.1344 166.865 91.0972 166.906C90.7911 167.113 90.4605 167.28 90.1129 167.404C87.8672 168.265 85.3596 168.1 83.0017 168.104C82.8528 168.104 82.71 168.163 82.6048 168.268C82.4995 168.374 82.4403 168.516 82.4403 168.665C82.4403 168.814 82.4995 168.957 82.6048 169.062C82.71 169.168 82.8528 169.227 83.0017 169.227C83.8438 169.227 84.7047 169.227 85.5655 169.227C85.6026 169.401 85.6289 169.577 85.6441 169.754C85.79 171.543 85.0527 173.415 84.4764 175.084C83.9374 176.637 83.1776 178.235 81.8228 179.25C80.3931 180.316 78.5741 180.264 76.8749 180.256C74.9587 180.256 73.0449 180.164 71.1336 179.98C70.3851 179.91 69.6365 179.825 68.888 179.725C71.0078 177.018 72.3947 173.811 72.9151 170.413H73.0199C74.4991 170.13 75.8701 169.44 76.9797 168.422C79.4798 166.143 79.5173 162.699 79.667 159.563C79.6822 158.074 79.9532 156.6 80.4679 155.203C80.7435 154.515 81.1629 153.895 81.698 153.383C82.2332 152.871 82.8717 152.48 83.5706 152.235C85.2324 151.643 87.0813 151.486 88.8329 151.445C89.675 151.423 90.6294 151.348 91.4303 151.67C91.9767 151.89 92.6392 152.602 92.22 153.215C91.8457 153.766 90.955 153.807 90.3674 153.822C89.4205 153.844 88.4773 153.717 87.5341 153.751C86.1681 153.796 84.686 154.26 83.8925 155.45C83.7765 155.624 83.6834 155.813 83.6155 156.011C83.3236 156.049 83.0354 156.09 82.7435 156.142C82.0324 156.266 82.3355 157.351 83.0429 157.224C84.3657 156.959 85.7241 156.924 87.0588 157.119C88.2817 157.348 89.4653 157.751 90.5732 158.317C91.217 158.627 91.8495 158.968 92.467 159.324C92.9835 159.619 93.53 160.072 92.976 160.633C92.7645 160.836 92.4949 160.967 92.205 161.008C90.8928 160.396 89.51 159.948 88.0881 159.675C86.0111 159.267 83.8794 159.216 81.7854 159.526C81.0742 159.63 81.3774 160.712 82.0848 160.611C84.3902 160.279 86.7394 160.424 88.9863 161.038H88.4698L82.7135 160.937C82.5647 160.937 82.4219 160.996 82.3166 161.101C82.2113 161.206 82.1521 161.349 82.1521 161.498C82.1521 161.647 82.2113 161.79 82.3166 161.895C82.4219 162 82.5647 162.059 82.7135 162.059L88.7692 162.127C89.7274 162.127 90.693 162.183 91.6511 162.149L92.0254 162.127C92.5868 162.374 93.2193 162.688 93.4776 163.186C93.8668 164.002 92.86 164.275 92.2649 164.249L92.2724 164.26ZM67.7652 69.3826C68.3624 68.3923 69.1754 67.5496 70.1435 66.9171C71.1117 66.2847 72.21 65.8788 73.3568 65.7297C73.6562 65.6885 73.9182 66.0216 73.9182 66.2911C73.9144 66.4388 73.854 66.5794 73.7496 66.6839C73.6451 66.7883 73.5045 66.8487 73.3568 66.8525C72.4048 66.9942 71.4963 67.3458 70.6969 67.8817C69.8975 68.4177 69.2272 69.1246 68.7345 69.9515C68.6591 70.08 68.5357 70.1733 68.3914 70.2109C68.2472 70.2484 68.094 70.2271 67.9654 70.1517C67.8369 70.0763 67.7436 69.9528 67.706 69.8086C67.6685 69.6644 67.6897 69.5111 67.7652 69.3826ZM54.9726 84.2112C56.0846 83.9718 57.1436 83.5317 58.0978 82.9124C59.0185 83.7059 60.2236 84.4806 61.4437 84.0091C62.6639 83.5375 63.2028 82.104 63.0232 80.839C62.8634 80.0267 62.582 79.2431 62.1885 78.5148C62.1397 78.4227 62.0622 78.3492 61.9677 78.3052C62.4019 77.2903 62.6552 76.2073 62.7163 75.1052C62.7537 74.3828 61.6309 74.3828 61.5935 75.1052C61.5407 76.0835 61.3125 77.0445 60.9198 77.9421C60.6753 77.6738 60.367 77.4717 60.0234 77.3546C59.6799 77.2374 59.3123 77.2091 58.9548 77.2722C58.4425 77.3614 57.984 77.6444 57.6747 78.0625C57.3653 78.4806 57.2286 79.0017 57.2931 79.5178C57.0193 79.5953 56.7664 79.7329 56.5527 79.9207C56.339 80.1085 56.17 80.3417 56.058 80.6032C55.9267 80.8983 55.8944 81.228 55.9659 81.543C56.0374 81.8581 56.2089 82.1415 56.4547 82.351C56.5053 82.3927 56.5591 82.4302 56.6157 82.4633C56 82.7669 55.3487 82.992 54.6769 83.1333C53.9658 83.2755 54.269 84.3571 54.9726 84.2112ZM61.0433 80.0081C61.1367 80.0049 61.2282 79.9803 61.3106 79.9362C61.393 79.8921 61.4642 79.8296 61.5186 79.7536C61.7143 80.1714 61.8492 80.615 61.9191 81.071C61.9566 81.3548 61.9401 81.643 61.8704 81.9206C61.8109 82.1536 61.708 82.3732 61.5673 82.5681C61.4085 82.7726 61.1875 82.9198 60.9376 82.9873C60.6877 83.0549 60.4226 83.0391 60.1825 82.9424C59.7516 82.785 59.3552 82.5461 59.0147 82.2388C59.7987 81.6008 60.4824 80.8489 61.0433 80.0081ZM58.386 79.0986C58.4 79.0402 58.4174 78.9827 58.4384 78.9265C58.4196 78.9751 58.5693 78.7281 58.5394 78.7618C58.5806 78.7169 58.6217 78.672 58.6667 78.6308L58.7453 78.5672C58.7941 78.5313 58.8454 78.4987 58.8987 78.4699L59.0072 78.4212L59.1682 78.3725H59.2093H59.258C59.4545 78.3471 59.6538 78.3893 59.8232 78.4923C60.0506 78.6235 60.2372 78.8153 60.3621 79.0462C60.1391 79.4173 59.8889 79.7713 59.6136 80.1054C59.2717 79.8258 58.8753 79.6205 58.4496 79.5028C58.4496 79.4654 58.4496 79.4804 58.4496 79.5028C58.4306 79.4504 58.4156 79.3966 58.4047 79.3419C58.4047 79.3419 58.4047 79.2296 58.4047 79.2259C58.4077 79.2098 58.4077 79.1933 58.4047 79.1772C58.403 79.1501 58.3967 79.1236 58.386 79.0986ZM57.0573 81.1384C57.0671 81.0716 57.0914 81.0077 57.1284 80.9513C57.1996 80.83 57.3006 80.7289 57.4217 80.6575C57.5429 80.5862 57.6802 80.5468 57.8208 80.5433C58.0572 80.7875 58.3543 80.9645 58.6816 81.0561C58.5095 81.2133 58.3298 81.363 58.1427 81.5052C58.0637 81.4627 57.9747 81.4424 57.8851 81.4464C57.7955 81.4503 57.7086 81.4784 57.6337 81.5276C57.602 81.5518 57.5681 81.5731 57.5326 81.5913H57.4503C57.4503 81.5913 57.3567 81.5576 57.3343 81.5538C57.299 81.528 57.2614 81.5055 57.222 81.4865C57.1939 81.4622 57.1677 81.4359 57.1434 81.4079C57.1333 81.3885 57.122 81.3698 57.1097 81.3517C57.1097 81.333 57.1097 81.3143 57.1097 81.2993C57.1097 81.2844 57.1097 81.2245 57.1097 81.2095C57.1097 81.1945 57.1097 81.1833 57.1097 81.1833C57.0921 81.1655 57.0719 81.1503 57.0498 81.1384H57.0573ZM50.938 59.4307L49.7141 62.1292C49.6378 62.2563 49.5146 62.3483 49.3711 62.3854C49.2276 62.4225 49.0752 62.4017 48.9468 62.3276C48.8206 62.2505 48.7291 62.1276 48.6914 61.9846C48.6537 61.8416 48.6728 61.6895 48.7447 61.5603L49.9611 58.8431C50.0378 58.7217 50.1573 58.6335 50.296 58.5961C50.4346 58.5587 50.5823 58.5747 50.7097 58.641C50.8387 58.7164 50.9336 58.8386 50.9748 58.9822C51.0159 59.1258 51 59.2798 50.9305 59.412L50.938 59.4307ZM48.4004 58.5661L46.9782 61.5229C46.9426 61.5894 46.8939 61.648 46.8351 61.6953C46.7764 61.7426 46.7087 61.7775 46.6361 61.7981C46.5635 61.8186 46.4875 61.8243 46.4127 61.8148C46.3378 61.8053 46.2657 61.7809 46.2005 61.7429C46.1353 61.7049 46.0785 61.6541 46.0334 61.5937C45.9882 61.5332 45.9558 61.4643 45.9379 61.391C45.92 61.3177 45.917 61.2416 45.9292 61.1672C45.9414 61.0927 45.9685 61.0215 46.0088 60.9577L47.4311 57.9973C47.5065 57.8687 47.6299 57.7754 47.7741 57.7378C47.9184 57.7003 48.0716 57.7216 48.2002 57.797C48.3287 57.8725 48.422 57.9959 48.4596 58.1401C48.4971 58.2844 48.4759 58.4376 48.4004 58.5661ZM46.5815 54.5727C46.5628 54.499 46.5628 54.4218 46.5815 54.3481C46.585 54.2747 46.6082 54.2036 46.6488 54.1423C46.7245 54.0167 46.8448 53.9245 46.9857 53.884L47.7342 53.6782C47.8809 53.6418 48.0358 53.6618 48.1684 53.7343C48.2929 53.811 48.3849 53.931 48.4266 54.0712C48.4472 54.1446 48.4472 54.2223 48.4266 54.2957C48.4225 54.3702 48.3993 54.4424 48.3592 54.5053C48.284 54.6296 48.1653 54.7216 48.0261 54.7636L47.2776 54.9657C47.1311 55.004 46.9754 54.9838 46.8435 54.9095C46.7765 54.872 46.718 54.821 46.6716 54.7599C46.6252 54.6987 46.592 54.6286 46.574 54.554L46.5815 54.5727ZM52.2966 57.754C52.1482 57.7515 52.0064 57.6926 51.8998 57.5893L50.8856 56.5039C50.7829 56.397 50.7241 56.2554 50.7209 56.1072C50.7201 56.0334 50.7343 55.9601 50.7626 55.892C50.7909 55.8238 50.8327 55.762 50.8856 55.7105C50.9908 55.6052 51.1335 55.5459 51.2823 55.5458C51.431 55.5467 51.5734 55.6058 51.679 55.7105L52.6933 56.7958C52.7966 56.9024 52.8555 57.0442 52.858 57.1926C52.8585 57.2664 52.8442 57.3395 52.816 57.4077C52.7877 57.4758 52.7459 57.5376 52.6933 57.5893C52.6388 57.639 52.5751 57.6774 52.5057 57.7025C52.4364 57.7275 52.3627 57.7387 52.2891 57.7353L52.2966 57.754Z" fill="#3F4254"/>
</svg>
