<svg width="28" height="28" viewBox="0 0 28 28" fill="none" xmlns="http://www.w3.org/2000/svg">
<path d="M14 26.6875C21.0071 26.6875 26.6875 21.0071 26.6875 14C26.6875 6.99289 21.0071 1.3125 14 1.3125C6.99289 1.3125 1.3125 6.99289 1.3125 14C1.3125 21.0071 6.99289 26.6875 14 26.6875Z" fill="#FF9478"/>
<path d="M14 24.9375C20.0406 24.9375 24.9375 20.0406 24.9375 14C24.9375 7.95939 20.0406 3.0625 14 3.0625C7.95939 3.0625 3.0625 7.95939 3.0625 14C3.0625 20.0406 7.95939 24.9375 14 24.9375Z" fill="#FF6243"/>
<path d="M14.0635 1.3125C14.2051 1.89051 14.306 2.47777 14.3653 3.06994C16.3853 3.13726 18.347 3.76293 20.033 4.87752C21.7189 5.99211 23.063 7.55202 23.9162 9.38416C24.7693 11.2163 25.0982 13.249 24.8662 15.2567C24.6343 17.2644 23.8506 19.1685 22.6021 20.7579C21.3536 22.3472 19.6892 23.5595 17.7936 24.2603C15.8979 24.9611 13.8451 25.1229 11.8631 24.7279C9.88102 24.3328 8.04718 23.3963 6.56506 22.0223C5.08294 20.6483 4.0105 18.8905 3.46677 16.9439C2.89782 17.0218 2.32428 17.0614 1.75002 17.0625C1.72858 17.0625 1.70627 17.0625 1.68658 17.0625C2.2599 19.3673 3.46863 21.4649 5.17525 23.1166C6.88187 24.7684 9.01784 25.9079 11.3401 26.4056C13.6624 26.9033 16.0778 26.7392 18.3114 25.9319C20.5451 25.1246 22.5072 23.7066 23.9747 21.8392C25.4422 19.9718 26.3561 17.7299 26.6123 15.3688C26.8686 13.0076 26.4569 10.6219 25.4242 8.48313C24.3915 6.34437 22.7793 4.53841 20.7708 3.27074C18.7624 2.00307 16.4385 1.32459 14.0635 1.3125V1.3125Z" fill="#FF7956"/>
<path d="M14 24.9375C16.8559 24.9176 19.5907 23.7814 21.6199 21.7718C23.6492 19.7621 24.8119 17.0385 24.8596 14.183C24.9073 11.3274 23.8362 8.56648 21.8752 6.4902C19.9142 4.41392 17.2189 3.18701 14.3653 3.07169C14.4117 3.5046 14.4358 3.93961 14.4375 4.375C14.437 7.44222 13.3255 10.4054 11.3085 12.7162C9.29154 15.027 6.50575 16.5289 3.46674 16.9439C4.10937 19.2434 5.48675 21.2694 7.38863 22.7127C9.29052 24.156 11.6124 24.9374 14 24.9375V24.9375Z" fill="#FF5023"/>
<path d="M20.3254 12.6254C20.2222 12.2365 20.0429 11.872 19.798 11.5528C19.553 11.2337 19.2472 10.9662 18.8983 10.766L18.1405 10.3285L18.578 9.57075C18.6364 9.4712 18.6745 9.36109 18.6901 9.24676C18.7058 9.13243 18.6986 9.01613 18.6691 8.90457C18.6396 8.79301 18.5884 8.68838 18.5183 8.59672C18.4482 8.50505 18.3606 8.42816 18.2607 8.37046C18.1608 8.31276 18.0504 8.2754 17.936 8.26052C17.8215 8.24565 17.7053 8.25356 17.5939 8.28379C17.4826 8.31403 17.3783 8.36599 17.2871 8.43669C17.1959 8.50739 17.1196 8.59543 17.0625 8.69575L16.625 9.4535L15.4875 8.79725L15.925 8.0395C16.0392 7.83864 16.0694 7.60076 16.0088 7.37777C15.9483 7.15478 15.802 6.96479 15.6019 6.84926C15.4018 6.73373 15.1641 6.70203 14.9407 6.76109C14.7173 6.82015 14.5264 6.96517 14.4095 7.1645L13.972 7.92225L12.499 7.07175C12.3065 6.95501 12.0776 6.91391 11.8566 6.95643C11.6356 6.99895 11.4382 7.12206 11.3028 7.30188C11.2339 7.40157 11.1863 7.51441 11.163 7.63334C11.1397 7.75227 11.1411 7.87473 11.1673 7.99307C11.1934 8.11141 11.2437 8.22308 11.315 8.3211C11.3863 8.41912 11.477 8.50139 11.5815 8.56275L12.3393 9.00025L8.83928 15.0622L8.12396 14.6492C7.93146 14.5326 7.70252 14.4917 7.48152 14.5343C7.26052 14.5769 7.06321 14.7 6.92784 14.8798C6.85893 14.9795 6.81133 15.0923 6.78801 15.2112C6.76469 15.3301 6.76616 15.4525 6.79231 15.5708C6.81847 15.6891 6.86876 15.8007 6.94003 15.8987C7.0113 15.9967 7.10203 16.0789 7.20653 16.1402L8.72203 17.0152L8.28453 17.773C8.22617 17.8725 8.18807 17.9827 8.17244 18.097C8.15681 18.2113 8.16394 18.3276 8.19344 18.4392C8.22294 18.5507 8.27421 18.6554 8.3443 18.747C8.4144 18.8387 8.50193 18.9156 8.60186 18.9733C8.7018 19.031 8.81216 19.0683 8.92659 19.0832C9.04102 19.0981 9.15727 19.0902 9.26863 19.06C9.38 19.0297 9.48428 18.9778 9.57548 18.9071C9.66668 18.8363 9.74299 18.7483 9.80003 18.648L10.2375 17.8902L11.375 18.5465L10.9375 19.3042C10.8792 19.4038 10.8411 19.5139 10.8254 19.6282C10.8098 19.7426 10.8169 19.8589 10.8464 19.9704C10.8759 20.082 10.9272 20.1866 10.9973 20.2783C11.0674 20.3699 11.1549 20.4468 11.2549 20.5045C11.3548 20.5622 11.4652 20.5996 11.5796 20.6145C11.694 20.6293 11.8103 20.6214 11.9216 20.5912C12.033 20.561 12.1373 20.509 12.2285 20.4383C12.3197 20.3676 12.396 20.2796 12.453 20.1792L12.8905 19.4215L13.5389 19.796C13.8986 20.008 14.2967 20.1466 14.7102 20.2038C15.1238 20.2611 15.5446 20.2357 15.9483 20.1293C16.352 20.0229 16.7306 19.8375 17.0622 19.5838C17.3938 19.3301 17.6718 19.0133 17.8802 18.6515C18.2491 17.9661 18.3413 17.1654 18.1379 16.4141C18.1355 16.403 18.1315 16.3922 18.1261 16.3822C18.5185 16.2823 18.8872 16.1054 19.2108 15.8618C19.5343 15.6183 19.8063 15.3129 20.0109 14.9634C20.2155 14.6139 20.3487 14.2273 20.4027 13.8259C20.4566 13.4246 20.4304 13.0165 20.3254 12.6254V12.6254ZM16.3162 17.8631C16.1415 18.1642 15.8548 18.3838 15.5186 18.474C15.1825 18.5641 14.8243 18.5176 14.5224 18.3444L10.3548 15.9381L11.6673 13.6631L15.8349 16.0694C16.1359 16.244 16.3556 16.5308 16.4458 16.8669C16.5359 17.2031 16.4893 17.5612 16.3162 17.8631ZM18.5037 14.0744C18.329 14.3754 18.0423 14.595 17.7061 14.6852C17.37 14.7754 17.0118 14.7288 16.7099 14.5556L12.5423 12.1494L13.8548 9.87437L18.0224 12.2806C18.3234 12.4553 18.5431 12.742 18.6333 13.0782C18.7234 13.4143 18.6768 13.7725 18.5037 14.0744Z" fill="#F1F2F2"/>
</svg>
