<svg width="24" height="24" viewBox="0 0 24 24" fill="none" xmlns="http://www.w3.org/2000/svg">
<path d="M13.1538 11.9011C13.1538 11.6469 13.2801 11.2773 13.4387 11.0736L18.1769 4.98358C18.3337 4.77985 18.258 4.61579 18.002 4.61579H5.99828C5.74408 4.61579 5.66475 4.77804 5.8234 4.98358L10.5616 11.0736C10.7184 11.2755 10.8464 11.6451 10.8464 11.9011V18.9234C10.8464 19.1776 11.0357 19.3092 11.2755 19.2137L12.725 18.6332C12.963 18.5394 13.1541 18.26 13.1541 18.0004L13.1538 11.9011ZM15 18.0003C15 19.0154 14.3473 19.9727 13.4117 20.3477L11.9604 20.9282C10.5054 21.5087 9 20.4829 9 18.9234V12.0723L4.36662 6.11568C3.26866 4.70402 4.20075 2.76953 5.99825 2.76953H18.0019C19.8102 2.76953 20.7243 4.71302 19.6336 6.11568L15.0002 12.0723L15 18.0003Z" fill="#495057"/>
</svg>
