<svg width="24" height="24" viewBox="0 0 24 24" fill="none" xmlns="http://www.w3.org/2000/svg">
<path d="M12.0001 0.599609C5.71234 0.599609 0.600098 5.71185 0.600098 11.9996C0.600098 18.2874 5.71234 23.3996 12.0001 23.3996C18.2879 23.3996 23.4001 18.2874 23.4001 11.9996C23.4001 5.71185 18.2879 0.599609 12.0001 0.599609ZM12.0001 7.12737C13.9679 7.12737 15.5756 8.73518 15.5756 10.7029C15.5756 12.6707 13.9678 14.2784 12.0001 14.2784C10.0324 14.2784 8.42458 12.6706 8.42458 10.7029C8.42458 8.73508 10.0324 7.12737 12.0001 7.12737ZM5.7601 18.9118V18.384C5.7601 16.8718 6.98448 15.624 8.5201 15.624H15.4801C16.9923 15.624 18.2401 16.8484 18.2401 18.384V18.9118C16.5845 20.3997 14.4001 21.3119 12.0001 21.3119C9.6001 21.3119 7.41562 20.3997 5.7601 18.9118Z" fill="#1C1E27"/>
</svg>
