<svg width="24" height="24" viewBox="0 0 24 24" fill="none" xmlns="http://www.w3.org/2000/svg">
<path d="M21.6091 14.7496C21.9827 14.7496 22.2857 15.0526 22.2857 15.4262V17.8627C22.2857 20.0299 20.5282 21.7873 18.361 21.7873H5.63885C3.47165 21.7873 1.71423 20.0299 1.71423 17.8627V15.4262C1.71423 15.0526 2.01719 14.7496 2.39085 14.7496C2.76451 14.7496 3.06746 15.0526 3.06746 15.4262V17.8627C3.06746 19.2826 4.21899 20.4341 5.63889 20.4341H18.3611C19.781 20.4341 20.9325 19.2826 20.9325 17.8627V15.4262C20.9325 15.0526 21.2354 14.7496 21.6091 14.7496ZM11.9999 2.16318C12.3583 2.16318 12.6524 2.44203 12.6749 2.79479L12.6765 2.83979V14.0039L15.5983 11.2774C15.8594 11.0331 16.2628 11.0363 16.5208 11.2758L16.5545 11.3103C16.7988 11.5715 16.7956 11.9749 16.5562 12.2328L16.5216 12.2666L12.4659 16.0521C12.4531 16.0642 12.441 16.0746 12.4282 16.0859C12.4242 16.0883 12.4209 16.0915 12.4177 16.0939C12.4097 16.1003 12.4008 16.1068 12.3928 16.1124C12.3872 16.1164 12.3816 16.1204 12.3751 16.1244C12.3695 16.1285 12.3639 16.1325 12.3575 16.1357C12.3518 16.1397 12.3462 16.1429 12.3398 16.1469C12.3309 16.1518 12.3221 16.1566 12.3125 16.1614L12.302 16.167C12.294 16.171 12.2851 16.1751 12.2771 16.1791C12.2707 16.1815 12.265 16.1839 12.2594 16.1863C12.2514 16.1895 12.2442 16.1927 12.2369 16.196L12.2168 16.2024C12.2112 16.2048 12.2056 16.2064 12.1992 16.208C12.1911 16.2104 12.1831 16.2128 12.1742 16.2152C12.1525 16.2217 12.1292 16.2265 12.1067 16.2297C12.1011 16.2305 12.0947 16.2313 12.0891 16.2321L12.0441 16.2369L11.9999 16.2377C11.9653 16.2377 11.9308 16.2353 11.8962 16.2305L11.8649 16.2249C11.6576 16.2667 11.4341 16.2112 11.2678 16.0561L7.20744 12.2665C6.93423 12.0117 6.91977 11.5834 7.17449 11.3102C7.42923 11.037 7.85752 11.0226 8.13073 11.2773L11.3234 14.2568V2.8397C11.3234 2.46604 11.6263 2.16318 11.9999 2.16318Z" fill="#495057" stroke="#495057" stroke-width="0.5"/>
</svg>
