<svg width="93" height="26" viewBox="0 0 93 26" fill="none" xmlns="http://www.w3.org/2000/svg">
<path d="M91.819 9.12311C91.819 14.1945 88.3814 18.6873 82.7994 18.6873C78.1705 18.6873 74.937 15.6241 74.937 10.5186C74.937 4.83453 78.9533 1.12457 83.9907 1.12457C88.6877 1.12457 91.819 4.28995 91.819 9.12311ZM87.3943 10.2463C87.3943 5.99177 86.2031 3.09868 83.0717 3.09868C80.1786 3.09868 79.3277 5.58333 79.3277 9.25926C79.3277 13.4798 80.4509 16.7132 83.5823 16.7132C86.2031 16.7132 87.3943 14.3988 87.3943 10.2463Z" fill="#fff"/>
<path d="M63.6443 11.7766C62.6912 11.7766 61.7723 11.6745 60.9554 11.5043C60.615 11.9468 60.4108 12.4233 60.4108 12.8317C60.4108 13.5805 61.0575 14.0911 62.5551 14.0911H65.1759C69.5325 14.0911 72.4597 15.3844 72.4597 18.5839C72.4597 22.1236 68.8518 25.8676 62.5891 25.8676C58.0283 25.8676 55.5776 23.7574 55.5776 21.3408C55.5776 19.3667 57.1093 18.2095 59.4237 17.2905C57.8581 16.7459 57.3135 15.6908 57.3135 14.6016C57.3135 13.2061 58.5048 12.0489 59.9343 11.198C57.8581 10.4151 56.5307 8.91753 56.5307 6.7392C56.5307 3.57382 59.3216 1.1232 63.6102 1.1232C65.7205 1.1232 67.6605 1.73585 68.9199 2.82502C70.5196 2.00815 70.3835 0 72.0853 0C73.0383 0 73.685 0.544582 73.685 1.36145C73.685 2.92713 71.4386 3.53978 69.7027 3.67593C70.2473 4.42473 70.5536 5.30967 70.5536 6.33076C70.5536 9.70036 67.3542 11.7766 63.6443 11.7766ZM62.2488 17.6649C61.6021 17.6649 61.0235 17.6308 60.5129 17.5287C59.4918 18.3796 59.1515 19.4007 59.1515 20.4218C59.1515 22.5321 60.581 23.9956 63.6443 23.9956C66.6395 23.9956 68.7497 22.6001 68.7497 20.2516C68.7497 18.6179 67.6946 17.6649 64.8696 17.6649H62.2488ZM66.2651 6.60305C66.2651 4.1184 64.9376 2.82502 63.3379 2.82502C61.568 2.82502 60.615 4.32262 60.615 6.43287C60.615 8.6112 61.6701 10.1088 63.6102 10.1088C65.4141 10.1088 66.2651 8.67927 66.2651 6.60305Z" fill="#fff"/>
<path d="M41.113 15.0114C41.113 15.9644 41.3853 16.4409 41.998 16.6792C42.3043 16.8153 42.6787 16.8494 43.3935 16.9174V18.1768H34.7823V16.9174C35.2588 16.8834 35.8374 16.8494 36.1778 16.6792C36.8244 16.475 37.0627 15.9644 37.0627 15.0114V4.63032C37.0627 3.57519 36.8585 3.23483 35.8374 3.23483C35.429 3.23483 34.7823 3.26886 34.4419 3.3029V2.11163C35.5651 1.70319 37.8796 1.12457 39.207 1.12457C40.7046 1.12457 41.113 1.8053 41.113 3.23483V3.88152C42.8489 2.24777 44.789 1.12457 47.1034 1.12457C50.1665 1.12457 51.7662 2.79235 51.7662 6.87671V15.0114C51.7662 15.9644 52.0385 16.4409 52.6512 16.6792C52.9575 16.8153 53.3319 16.8494 54.0467 16.9174V18.1768H45.4356V16.9174C45.9122 16.8834 46.4908 16.8494 46.8311 16.6792C47.4776 16.475 47.7159 15.9644 47.7159 15.0114V7.99991C47.7159 5.44719 47.1034 4.0517 44.4145 4.0517C43.2573 4.0517 42.4064 4.28995 41.113 4.73242V15.0114Z" fill="#fff"/>
<path d="M30.5434 7.2506V14.8067C30.5434 16.5085 31.2922 16.9509 32.6877 16.9509C32.8579 16.9509 33.0281 16.9509 33.2663 16.9169V17.8359C32.4154 18.2103 31.4284 18.5847 29.9988 18.5847C27.2759 18.5847 26.4931 17.3934 26.4931 15.6575V15.6235C25.4039 17.3253 23.4979 18.5507 21.3876 18.5507C19.0051 18.5507 17.2012 17.019 17.2012 14.5003C17.2012 11.9476 19.0391 10.5181 22.4768 9.70121L26.4931 8.7482V8.03343C26.4931 5.31052 25.6762 4.25537 23.0214 4.25537C21.5578 4.25537 19.4476 4.5617 17.7117 4.97016V3.16621C19.9241 1.97494 22.7831 1.22614 25.1316 1.22614C28.6714 1.22614 30.5434 2.99603 30.5434 7.2506ZM21.1154 13.3431C21.1154 14.7726 21.9663 15.5895 23.6681 15.5895C24.6211 15.5895 25.7443 15.2832 26.4931 14.9088V10.2798L24.3488 10.8244C22.2045 11.369 21.1154 11.9476 21.1154 13.3431Z" fill="#fff"/>
<path d="M0.381608 6.63755L1.26655 1.63422H13.826L14.4046 2.58723L5.45304 16.44H9.23108C11.2392 16.44 13.1112 14.8743 13.5877 12.6279L14.6429 12.7641L13.8941 18.1759H0.721973L0.211426 17.2909L9.16301 3.37007H5.52111C3.07048 3.37007 2.25361 4.93573 1.53885 6.80773L0.381608 6.63755Z" fill="#fff"/>
</svg>
