<svg height="512" viewBox="0 0 64 64" width="512" xmlns="http://www.w3.org/2000/svg"><g id="Layer_50" data-name="Layer 50"><circle cx="32" cy="32" fill="#ffe477" r="29"/><circle cx="32" cy="32" fill="#ffda44" r="25"/><path d="m32.145 3a29.023 29.023 0 0 1 .69 4.017 25 25 0 1 1 -24.911 31.712 29.35 29.35 0 0 1 -3.924.271c-.049 0-.1 0-.145 0a29 29 0 1 0 28.29-36z" fill="#ffde55"/><path d="m32 57a25 25 0 0 0 .835-49.979 29.013 29.013 0 0 1 .165 2.979 29 29 0 0 1 -25.076 28.729 25 25 0 0 0 24.076 18.271z" fill="#ffcd00"/><g fill="#f1f2f2"><path d="m32 20.686 7.778 7.778 4.243-4.242-12.021-12.021-12.021 12.021 4.243 4.242z"/><path d="m32 43.314-7.778-7.778-4.243 4.242 12.021 12.021 12.021-12.021-4.243-4.242z"/><path d="m29 29h6v6h-6z" transform="matrix(.707 -.707 .707 .707 -13.255 32)"/><path d="m44.556 29h6v6h-6z" transform="matrix(.707 -.707 .707 .707 -8.698 43)"/><path d="m13.444 29h6v6h-6z" transform="matrix(.707 -.707 .707 .707 -17.811 21)"/></g></g></svg>