<?xml version="1.0" encoding="UTF-8"?>
<svg xmlns="http://www.w3.org/2000/svg" viewBox="0 0 64 64" width="512" height="512"><g id="Layer_51" data-name="Layer 51"><circle cx="32" cy="32" r="29" style="fill:#ff9478"/><circle cx="32" cy="32" r="25" style="fill:#ff6243"/><path d="M32.145,3a29.023,29.023,0,0,1,.69,4.017A25,25,0,1,1,7.924,38.729,29.35,29.35,0,0,1,4,39c-.049,0-.1,0-.145,0A29,29,0,1,0,32.145,3Z" style="fill:#ff7956"/><path d="M32,57a25,25,0,0,0,.835-49.979A29.013,29.013,0,0,1,33,10,29,29,0,0,1,7.924,38.729,25,25,0,0,0,32,57Z" style="fill:#ff5023"/><path d="M46.458,28.858a6.958,6.958,0,0,0-3.262-4.25l-1.732-1,1-1.732a2,2,0,1,0-3.464-2l-1,1.732-2.6-1.5,1-1.732a2,2,0,0,0-3.464-2l-1,1.732-3.367-1.944a2.075,2.075,0,0,0-2.734.526,2.014,2.014,0,0,0,.637,2.882l1.732,1-8,13.856-1.635-.944a2.076,2.076,0,0,0-2.734.527,2.013,2.013,0,0,0,.637,2.881l3.464,2-1,1.732a2,2,0,1,0,3.464,2l1-1.732,2.6,1.5-1,1.732a2,2,0,1,0,3.464,2l1-1.732,1.482.856a7.22,7.22,0,0,0,9.923-2.616,6.955,6.955,0,0,0,.589-5.114.271.271,0,0,0-.027-.073,6.991,6.991,0,0,0,5.027-8.587ZM37.294,40.83a3.009,3.009,0,0,1-4.1,1.1l-9.526-5.5,3-5.2,9.526,5.5A3.009,3.009,0,0,1,37.294,40.83Zm5-8.66a3.009,3.009,0,0,1-4.1,1.1l-9.526-5.5,3-5.2,9.526,5.5A3.009,3.009,0,0,1,42.294,32.17Z" style="fill:#f1f2f2"/></g></svg>
