<svg height="512" viewBox="0 0 64 64" width="512" xmlns="http://www.w3.org/2000/svg"><g id="Layer_41" data-name="Layer 41"><circle cx="32" cy="32" fill="#bddbff" r="29"/><path d="m33.853 3.065a29.338 29.338 0 0 1 .147 2.935 29 29 0 0 1 -29 29c-.623 0-1.239-.026-1.853-.065a29 29 0 1 0 30.706-31.87z" fill="#9bc9ff"/><circle cx="32" cy="32" fill="#9bc9ff" r="25"/><path d="m32 57a25 25 0 0 0 1.973-49.915 28.988 28.988 0 0 1 -26.8 27.826 25 25 0 0 0 24.827 22.089z" fill="#57a4ff"/><path d="m46 40.083v-16.166l-14-8.083-14 8.083v16.166l14 8.083zm-24-13.856 10-5.774 10 5.774v11.546l-10 5.774-10-5.774z" fill="#005ece"/></g></svg>