<svg height="512" viewBox="0 0 64 64" width="512" xmlns="http://www.w3.org/2000/svg"><g id="Layer_48" data-name="Layer 48"><circle cx="32" cy="32" fill="#ff5023" r="29"/><circle cx="32" cy="32" fill="#ed1c24" r="25"/><path d="m32.145 3a29.023 29.023 0 0 1 .69 4.017 25 25 0 1 1 -24.911 31.712 29.35 29.35 0 0 1 -3.924.271c-.049 0-.1 0-.145 0a29 29 0 1 0 28.29-36z" fill="#ed1c24"/><path d="m32 57a25 25 0 0 0 .835-49.979 29.013 29.013 0 0 1 .165 2.979 29 29 0 0 1 -25.076 28.729 25 25 0 0 0 24.076 18.271z" fill="#d80027"/><path d="m46 18a3.01 3.01 0 0 0 -2.82 2h-22.36a3 3 0 1 0 -2.82 4 2.2 2.2 0 0 0 .36-.04l3.17 6.34a2.992 2.992 0 0 0 2.35 4.69l5.96 11.93a3 3 0 1 0 4.32 0l5.96-11.93a2.992 2.992 0 0 0 2.35-4.69l3.17-6.34a2.2 2.2 0 0 0 .36.04 3 3 0 0 0 0-6zm-4.24 4-9.76 4.88-9.76-4.88zm-18.58 7.13-2.94-5.89 9.52 4.76-3.68 1.84a2.984 2.984 0 0 0 -2.08-.84 2.76 2.76 0 0 0 -.82.13zm9.18 16.91a1.64 1.64 0 0 0 -.72 0l-5.83-11.66a2.993 2.993 0 0 0 1.19-2.38 2.2 2.2 0 0 0 -.04-.36l5.04-2.52 5.04 2.52a2.2 2.2 0 0 0 -.04.36 2.993 2.993 0 0 0 1.19 2.38zm8.46-16.91a2.76 2.76 0 0 0 -.82-.13 2.984 2.984 0 0 0 -2.08.84l-3.68-1.84 9.52-4.76z" fill="#f1f2f2"/></g></svg>