<svg height="512" viewBox="0 0 64 64" width="512" xmlns="http://www.w3.org/2000/svg"><g id="Layer_47" data-name="Layer 47"><circle cx="32" cy="32" fill="#00d7df" r="29"/><circle cx="32" cy="32" fill="#00b6bd" r="25"/><path d="m32.145 3a29.023 29.023 0 0 1 .69 4.017 25 25 0 1 1 -24.911 31.712 29.35 29.35 0 0 1 -3.924.271c-.049 0-.1 0-.145 0a29 29 0 1 0 28.29-36z" fill="#00b6bd"/><path d="m32 57a25 25 0 0 0 .835-49.979 29.013 29.013 0 0 1 .165 2.979 29 29 0 0 1 -25.076 28.729 25 25 0 0 0 24.076 18.271z" fill="#009698"/><path d="m41.969 15a7.221 7.221 0 0 0 -8.87 5.17l-1.737 6.482-5.312-1.423a1.5 1.5 0 0 0 -.777 2.9l5.313 1.423-1.035 3.864-5.313-1.423a1.5 1.5 0 1 0 -.777 2.9l5.313 1.424-1.812 6.761a3 3 0 0 1 -4.228 1.911 3.1 3.1 0 0 1 -1.523-3.628 1.831 1.831 0 0 0 -1.294-2.241l-.329-.088a1.831 1.831 0 0 0 -2.241 1.294l-.044.164a7.006 7.006 0 0 0 4.728 8.51 7.221 7.221 0 0 0 8.87-5.17l1.737-6.482 5.312 1.424a1.5 1.5 0 0 0 .777-2.9l-5.313-1.424 1.035-3.863 5.313 1.423a1.5 1.5 0 1 0 .777-2.9l-5.313-1.424 1.812-6.761a3 3 0 0 1 3.884-2.055 2.871 2.871 0 0 1 1.658 1.5 3.339 3.339 0 0 1 .209 2.272 1.831 1.831 0 0 0 1.294 2.241l.329.088a1.831 1.831 0 0 0 2.241-1.294l.044-.164a7.006 7.006 0 0 0 -4.728-8.511z" fill="#f1f2f2"/></g></svg>