<svg width="24" height="24" viewBox="0 0 24 24" fill="none" xmlns="http://www.w3.org/2000/svg">
<path opacity="0.3" d="M12.5 22C11.9 22 11.5 21.6 11.5 21V3C11.5 2.4 11.9 2 12.5 2C13.1 2 13.5 2.4 13.5 3V21C13.5 21.6 13.1 22 12.5 22Z" fill="currentColor"/>
<path d="M17.8 14.7C17.8 15.5 17.6 16.3 17.2 16.9C16.8 17.6 16.2 18.1 15.3 18.4C14.5 18.8 13.5 19 12.4 19C11.1 19 10 18.7 9.10001 18.2C8.50001 17.8 8.00001 17.4 7.60001 16.7C7.20001 16.1 7 15.5 7 14.9C7 14.6 7.09999 14.3 7.29999 14C7.49999 13.8 7.80001 13.6 8.20001 13.6C8.50001 13.6 8.69999 13.7 8.89999 13.9C9.09999 14.1 9.29999 14.4 9.39999 14.7C9.59999 15.1 9.8 15.5 10 15.8C10.2 16.1 10.5 16.3 10.8 16.5C11.2 16.7 11.6 16.8 12.2 16.8C13 16.8 13.7 16.6 14.2 16.2C14.7 15.8 15 15.3 15 14.8C15 14.4 14.9 14 14.6 13.7C14.3 13.4 14 13.2 13.5 13.1C13.1 13 12.5 12.8 11.8 12.6C10.8 12.4 9.99999 12.1 9.39999 11.8C8.69999 11.5 8.19999 11.1 7.79999 10.6C7.39999 10.1 7.20001 9.39998 7.20001 8.59998C7.20001 7.89998 7.39999 7.19998 7.79999 6.59998C8.19999 5.99998 8.80001 5.60005 9.60001 5.30005C10.4 5.00005 11.3 4.80005 12.3 4.80005C13.1 4.80005 13.8 4.89998 14.5 5.09998C15.1 5.29998 15.6 5.60002 16 5.90002C16.4 6.20002 16.7 6.6 16.9 7C17.1 7.4 17.2 7.69998 17.2 8.09998C17.2 8.39998 17.1 8.7 16.9 9C16.7 9.3 16.4 9.40002 16 9.40002C15.7 9.40002 15.4 9.29995 15.3 9.19995C15.2 9.09995 15 8.80002 14.8 8.40002C14.6 7.90002 14.3 7.49995 13.9 7.19995C13.5 6.89995 13 6.80005 12.2 6.80005C11.5 6.80005 10.9 7.00005 10.5 7.30005C10.1 7.60005 9.79999 8.00002 9.79999 8.40002C9.79999 8.70002 9.9 8.89998 10 9.09998C10.1 9.29998 10.4 9.49998 10.6 9.59998C10.8 9.69998 11.1 9.90002 11.4 9.90002C11.7 10 12.1 10.1 12.7 10.3C13.5 10.5 14.2 10.7 14.8 10.9C15.4 11.1 15.9 11.4 16.4 11.7C16.8 12 17.2 12.4 17.4 12.9C17.6 13.4 17.8 14 17.8 14.7Z" fill="currentColor"/>
</svg>
