<svg width="24" height="24" viewBox="0 0 24 24" fill="none" xmlns="http://www.w3.org/2000/svg">
<path opacity="0.3" d="M18 20.3C20.2091 20.3 22 18.5092 22 16.3C22 14.0909 20.2091 12.3 18 12.3C15.7909 12.3 14 14.0909 14 16.3C14 18.5092 15.7909 20.3 18 20.3Z" fill="currentColor"/>
<path d="M18 18.3C17.4 18.3 17 17.9 17 17.3V15.3C17 14.7 17.4 14.3 18 14.3C18.6 14.3 19 14.7 19 15.3V17.3C19 17.9 18.6 18.3 18 18.3Z" fill="currentColor"/>
<path d="M14.4 18.1001C14.5 18.5001 14.4 19.0001 14 19.2001C13.8 19.3001 13.7 19.3 13.5 19.3C13.2 19.3 12.8 19.1 12.6 18.8V18.7001C12.1 18.9001 11.6 19.0001 11 19.1001V19.2001C11 19.8001 10.6 20.2001 10 20.2001C9.4 20.2001 9 19.8001 9 19.2001V19.1001C8.4 19.0001 7.89999 18.9001 7.39999 18.7001V18.8C7.19999 19.1 6.9 19.3 6.5 19.3C6.3 19.3 6.2 19.3001 6 19.2001C5.5 18.9001 5.40001 18.3 5.60001 17.8V17.7001C5.20001 17.4001 4.79999 17 4.39999 16.5H4.3C4.1 16.6 4 16.6001 3.8 16.6001C3.5 16.6001 3.09999 16.4001 2.89999 16.1001C2.59999 15.6001 2.8 15.0001 3.3 14.7001H3.39999C3.19999 14.2001 3.1 13.7001 3 13.1001C2.4 13.1001 2 12.7001 2 12.1001C2 11.5001 2.4 11.1001 3 11.1001H3.10001C3.20001 10.5001 3.3 10 3.5 9.5H3.39999C2.89999 9.2 2.8 8.6001 3 8.1001C3.3 7.6001 3.89999 7.50007 4.39999 7.70007H4.5C4.8 7.30007 5.2 6.9 5.7 6.5V6.40002C5.4 5.90002 5.60001 5.3 6.10001 5C6.60001 4.7 7.2 4.90002 7.5 5.40002V5.5C8 5.3 8.50001 5.2001 9.10001 5.1001V5C9.10001 4.4 9.50001 4 10.1 4C10.7 4 11.1 4.4 11.1 5V5.1001C11.7 5.2001 12.2 5.3 12.7 5.5V5.40002C13 4.90002 13.6 4.8 14.1 5C14.6 5.3 14.7 5.90002 14.5 6.40002V6.5C14.9 6.8 15.3 7.20007 15.7 7.70007H15.8C16.3 7.40007 16.9 7.6001 17.2 8.1001C17.5 8.6001 17.3 9.2 16.8 9.5H16.7C16.9 10 17 10.5001 17.1 11.1001H17.2C17.8 11.1001 18.2 11.5001 18.2 12.1001C16 12.1001 14.2 13.9001 14.2 16.1001C14 17.0001 14.2 17.6001 14.4 18.1001ZM11.8 8.40002H8.89999C8.59999 8.40002 8.4 8.5001 8.2 8.6001C8.1 8.7001 7.99999 9.00005 7.89999 9.30005L7.39999 11.9C7.39999 12.1 7.3 12.3 7.3 12.3C7.3 12.5 7.4 12.6001 7.5 12.7001C7.6 12.8001 7.8 12.9 8 12.9C8.2 12.9 8.40001 12.8001 8.60001 12.6001C8.90001 12.4001 9.1 12.3001 9.2 12.2001C9.3 12.1001 9.59999 12.1001 9.89999 12.1001C10.2 12.1001 10.4 12.2 10.6 12.3C10.8 12.4 11 12.6 11.1 12.9C11.2 13.2 11.3 13.5 11.3 13.8C11.3 14.1 11.2 14.4001 11.1 14.7001C11 15.0001 10.8 15.2 10.6 15.3C10.4 15.4 10.1 15.5 9.89999 15.5C9.59999 15.5 9.30001 15.4001 9.10001 15.2001C8.80001 15.0001 8.7 14.8 8.5 14.4C8.3 14 8.1 13.9 7.8 13.9C7.6 13.9 7.5 14.0001 7.3 14.1001C7.2 14.2001 7.10001 14.4 7.10001 14.5C7.10001 14.7 7.19999 15 7.39999 15.3C7.59999 15.6 7.9 15.9001 8.3 16.1001C8.7 16.3001 9.19999 16.5 9.89999 16.5C10.5 16.5 11 16.4001 11.5 16.1001C12 15.8001 12.3 15.5001 12.5 15.1001C12.7 14.7001 12.9 14.2001 12.9 13.6001C12.9 13.2001 12.8 12.9001 12.7 12.6001C12.6 12.3001 12.4 12 12.2 11.8C12 11.6 11.7 11.4 11.4 11.3C11.1 11.2 10.8 11.1001 10.4 11.1001C9.99999 11.1001 9.5 11.2 9 11.5L9.3 9.70007H11.9C12.2 9.70007 12.4 9.6 12.5 9.5C12.6 9.4 12.7 9.2 12.7 9C12.6 8.6 12.3 8.40002 11.8 8.40002Z" fill="currentColor"/>
</svg>
