<svg width="24" height="24" viewBox="0 0 24 24" fill="none" xmlns="http://www.w3.org/2000/svg">
<path opacity="0.3" d="M3 3V17H7V21H15V9H20V3H3Z" fill="currentColor"/>
<path d="M20 22H3C2.4 22 2 21.6 2 21V3C2 2.4 2.4 2 3 2H20C20.6 2 21 2.4 21 3V21C21 21.6 20.6 22 20 22ZM19 4H4V8H19V4ZM6 18H4V20H6V18ZM6 14H4V16H6V14ZM6 10H4V12H6V10ZM10 18H8V20H10V18ZM10 14H8V16H10V14ZM10 10H8V12H10V10ZM14 18H12V20H14V18ZM14 14H12V16H14V14ZM14 10H12V12H14V10ZM19 14H17V20H19V14ZM19 10H17V12H19V10Z" fill="currentColor"/>
</svg>
