<svg width="24" height="24" viewBox="0 0 24 24" fill="none" xmlns="http://www.w3.org/2000/svg">
<path d="M6 20C6 20.6 5.6 21 5 21C4.4 21 4 20.6 4 20H6ZM18 20C18 20.6 18.4 21 19 21C19.6 21 20 20.6 20 20H18Z" fill="currentColor"/>
<path opacity="0.3" d="M21 20H3C2.4 20 2 19.6 2 19V3C2 2.4 2.4 2 3 2H21C21.6 2 22 2.4 22 3V19C22 19.6 21.6 20 21 20ZM12 10H10.7C10.5 9.7 10.3 9.50005 10 9.30005V8C10 7.4 9.6 7 9 7C8.4 7 8 7.4 8 8V9.30005C7.7 9.50005 7.5 9.7 7.3 10H6C5.4 10 5 10.4 5 11C5 11.6 5.4 12 6 12H7.3C7.5 12.3 7.7 12.5 8 12.7V14C8 14.6 8.4 15 9 15C9.6 15 10 14.6 10 14V12.7C10.3 12.5 10.5 12.3 10.7 12H12C12.6 12 13 11.6 13 11C13 10.4 12.6 10 12 10Z" fill="currentColor"/>
<path d="M18.5 11C18.5 10.2 17.8 9.5 17 9.5C16.2 9.5 15.5 10.2 15.5 11C15.5 11.4 15.7 11.8 16 12.1V13C16 13.6 16.4 14 17 14C17.6 14 18 13.6 18 13V12.1C18.3 11.8 18.5 11.4 18.5 11Z" fill="currentColor"/>
</svg>
