<svg width="173" height="170" viewBox="0 0 173 170" fill="none" xmlns="http://www.w3.org/2000/svg">
<path d="M75.8156 3.80431C81.6963 1.36845 88.3037 1.36845 94.1844 3.8043L135.92 21.0916C141.8 23.5275 146.473 28.1997 148.908 34.0803L166.196 75.8156C168.632 81.6963 168.632 88.3037 166.196 94.1844L148.908 135.92C146.473 141.8 141.8 146.473 135.92 148.908L94.1844 166.196C88.3037 168.632 81.6963 168.632 75.8156 166.196L34.0803 148.908C28.1997 146.473 23.5275 141.8 21.0916 135.92L3.80431 94.1844C1.36845 88.3037 1.36845 81.6963 3.8043 75.8156L21.0916 34.0803C23.5275 28.1997 28.1997 23.5275 34.0803 21.0916L75.8156 3.80431Z" fill="#FCFAFF"/>
<path d="M78.8771 22.5362C82.7975 20.9123 87.2025 20.9123 91.1229 22.5362L124.839 36.5019C128.759 38.1258 131.874 41.2405 133.498 45.161L147.464 78.8771C149.088 82.7975 149.088 87.2025 147.464 91.1229L133.498 124.839C131.874 128.759 128.759 131.874 124.839 133.498L91.1229 147.464C87.2025 149.088 82.7975 149.088 78.8771 147.464L45.161 133.498C41.2405 131.874 38.1258 128.759 36.5019 124.839L22.5362 91.1229C20.9123 87.2025 20.9123 82.7975 22.5362 78.8771L36.5019 45.161C38.1258 41.2405 41.2405 38.1258 45.161 36.5019L78.8771 22.5362Z" fill="#F8F6FF"/>
<path d="M79.6424 52.2192C83.0728 50.7983 86.9272 50.7983 90.3576 52.2192L104.391 58.0321C107.822 59.453 110.547 62.1784 111.968 65.6088L117.781 79.6424C119.202 83.0728 119.202 86.9272 117.781 90.3576L111.968 104.391C110.547 107.822 107.822 110.547 104.391 111.968L90.3576 117.781C86.9272 119.202 83.0728 119.202 79.6424 117.781L65.6088 111.968C62.1784 110.547 59.453 107.822 58.0321 104.391L52.2192 90.3576C50.7983 86.9272 50.7983 83.0728 52.2192 79.6424L58.0321 65.6088C59.453 62.1784 62.1784 59.453 65.6088 58.0321L79.6424 52.2192Z" fill="#ECE7FF"/>
<g clip-path="url(#clip0_8779_2752)">
<path d="M97.7639 86.5259C97.7639 94.2449 91.5056 100.502 83.7866 100.502C81.8931 100.502 80.0879 100.126 78.4417 99.4434C73.9414 97.5794 70.6267 93.4324 69.9414 88.4468C69.8545 87.8191 69.8101 87.1775 69.8101 86.5259C69.8101 78.8062 76.0676 72.5486 83.7866 72.5486C91.5056 72.5486 97.7639 78.8062 97.7639 86.5259Z" fill="#937DE2"/>
<path d="M83.7866 72.5486C83.0476 72.5486 82.3223 72.6064 81.6143 72.7168C88.3018 73.7605 93.4194 79.5452 93.4194 86.5259C93.4194 93.5056 88.3023 99.2901 81.6155 100.334C82.323 100.444 83.0479 100.502 83.7866 100.502C91.5056 100.502 97.7639 94.2449 97.7639 86.5259C97.7639 78.8062 91.5056 72.5486 83.7866 72.5486V72.5486Z" fill="#7570D6"/>
<path d="M99.5086 85.4924L91.5271 90.7776C90.9585 91.1543 90.2698 91.3037 89.5964 91.1961C88.9216 91.0886 88.2312 91.2361 87.6611 91.6135L86.593 92.3213L80.6113 83.5042L82.0789 77.1641C82.1931 76.6707 82.2495 76.1704 82.2495 75.6721C82.2495 74.3831 81.8726 73.1106 81.1494 72.0183C80.9717 71.7498 80.8867 71.4458 80.8867 71.146C80.8867 70.6331 81.1355 70.1301 81.5952 69.8257C82.2148 69.415 83.0361 69.4915 83.5696 70.0088L84.5203 70.9297C85.6077 71.9846 86.4463 73.269 86.9731 74.6895L87.4888 76.0774L92.7976 72.5698C93.6455 72.0085 94.7927 72.2539 95.334 73.1223C95.8562 73.959 95.5881 75.0645 94.7654 75.6091C94.7554 75.6157 94.7549 75.6262 94.7581 75.6343C94.7627 75.6428 94.7727 75.6489 94.7839 75.6443C94.9937 75.5632 95.2131 75.5242 95.4309 75.5242C95.7783 75.5242 96.1228 75.6243 96.4175 75.8147C96.6204 75.946 96.8001 76.1206 96.9422 76.3347C97.2161 76.7488 97.2979 77.2344 97.2083 77.6856C97.0674 78.3967 96.5508 78.7629 96.4492 78.832C96.4319 78.844 96.4273 78.8677 96.4392 78.8857C96.4392 78.8865 96.44 78.887 96.4407 78.887C96.4519 78.9031 96.4751 78.9077 96.4917 78.897C96.6362 78.8618 96.7835 78.8452 96.9309 78.8452C97.2903 78.8452 97.648 78.9475 97.9519 79.1411C98.1575 79.2725 98.3394 79.4463 98.48 79.6592C99.032 80.4924 98.8037 81.6157 97.9697 82.1677C97.9492 82.1816 97.9287 82.1956 97.9082 82.2087C97.8963 82.2183 97.8928 82.2334 97.8989 82.2441C97.9002 82.2466 97.9028 82.2493 97.9055 82.2507C97.9148 82.2581 97.9295 82.2586 97.9414 82.2493C98.4595 82.0728 99.0235 82.1531 99.4773 82.447C99.6863 82.5811 99.8714 82.7615 100.018 82.9832C100.57 83.8174 100.342 84.9404 99.5086 85.4924V85.4924Z" fill="#FDD7BD"/>
<path d="M86.6697 93.9947L83.3027 96.2244L78.4417 99.4436C73.9414 97.5794 70.6267 93.4326 69.9414 88.4468L75.5828 84.711L79.0169 82.4368C79.4121 82.1746 79.9456 82.2835 80.2075 82.6795L86.9124 92.803C87.1746 93.1992 87.0657 93.732 86.6697 93.9947V93.9947Z" fill="#87DBFF"/>
<path d="M86.6694 93.9947L83.3025 96.2244L75.5825 84.711L79.0166 82.4368C79.4119 82.1746 79.9453 82.2835 80.2073 82.6795L86.9121 92.803C87.1743 93.1992 87.0654 93.732 86.6694 93.9947V93.9947Z" fill="#6FC7FF"/>
<path d="M96.4177 75.8147L93.762 77.2358C93.385 77.437 92.918 77.332 92.6646 76.989L94.7583 75.6343C94.7629 75.6431 94.773 75.6489 94.7842 75.6443C94.9939 75.5632 95.2134 75.5242 95.4312 75.5242C95.7788 75.5242 96.123 75.6245 96.4177 75.8147V75.8147Z" fill="#FAC5AA"/>
<path d="M97.9522 79.1414L95.3542 80.5305C94.9773 80.7322 94.5103 80.6274 94.2568 80.2844L96.3506 78.9297L96.4409 78.8872C96.4521 78.9033 96.4753 78.908 96.4919 78.8972C96.6367 78.8621 96.7839 78.8455 96.9312 78.8455C97.2908 78.8455 97.6484 78.9475 97.9522 79.1414Z" fill="#FAC5AA"/>
<path d="M99.4778 82.4473L97.1895 83.6714C96.8135 83.8723 96.3462 83.7676 96.0923 83.4246L97.906 82.251C97.9153 82.2583 97.9299 82.2588 97.9419 82.2495C98.46 82.073 99.0239 82.1533 99.4778 82.4473Z" fill="#FAC5AA"/>
<path d="M100.433 82.7087C100.101 82.2078 99.5984 81.8626 99.0137 81.7317C99.3909 81.0103 99.3755 80.1101 98.895 79.3848C98.5532 78.8684 98.0376 78.5349 97.4763 78.4087C97.5764 78.2178 97.6504 78.0117 97.6946 77.7944C97.8172 77.1902 97.6975 76.5745 97.357 76.0605C97.0252 75.5593 96.5222 75.2141 95.9375 75.0835C96.3147 74.3621 96.2993 73.4619 95.8189 72.7363C95.1165 71.6755 93.6814 71.3838 92.6204 72.0864L90.323 73.6079C89.0984 72.9868 87.7959 72.5461 86.4441 72.2952C86.0169 71.6465 85.52 71.0435 84.9639 70.5044L84.0134 69.5832C83.3174 68.9084 82.2258 68.8071 81.4177 69.3425C80.4617 69.9756 80.199 71.2685 80.832 72.2246C80.8569 72.2624 80.8814 72.3005 80.9055 72.3386C77.79 72.969 74.9507 74.6223 72.8491 77.0449C70.5686 79.6741 69.3125 83.0413 69.3125 86.5261C69.3125 87.1941 69.3582 87.8633 69.4485 88.5147C70.1445 93.5784 73.5176 97.9422 78.251 99.9033C80.0064 100.631 81.8689 101 83.7861 101C86.8225 101 89.729 100.07 92.1917 98.311C94.6008 96.5899 96.4033 94.2146 97.4046 91.4421C97.4981 91.1838 97.364 90.8984 97.1057 90.8052C96.8472 90.7119 96.562 90.8457 96.4688 91.1043C95.5364 93.686 93.8574 95.898 91.6131 97.5012C89.3203 99.1392 86.6138 100.005 83.7861 100.005C82.3242 100.005 80.8967 99.7742 79.5305 99.3191L83.5789 96.6382C83.5791 96.638 83.5794 96.638 83.5796 96.6377C83.5798 96.6377 83.5798 96.6375 83.5801 96.6372L86.9446 94.4092H86.9448C87.2468 94.209 87.4531 93.9033 87.5254 93.5481C87.5977 93.1929 87.5274 92.8306 87.3272 92.5286L87.2827 92.4612L87.9363 92.0283C88.4026 91.7195 88.9634 91.5984 89.5156 91.687C90.3152 91.8154 91.1272 91.6397 91.802 91.1926L97.2229 87.6028C97.1858 88.073 97.1248 88.5405 97.0396 89.0003C96.9893 89.2705 97.1677 89.5303 97.438 89.5803C97.4685 89.5862 97.4993 89.5889 97.5293 89.5889C97.7644 89.5889 97.9734 89.4214 98.0178 89.1819C98.1558 88.4399 98.2351 87.6799 98.2556 86.919L99.7832 85.9072C100.297 85.5669 100.648 85.0466 100.771 84.4426C100.893 83.8384 100.773 83.2227 100.433 82.7087V82.7087ZM89.3569 74.2476L87.8367 75.2544L87.5374 74.448C87.4124 74.1116 87.2691 73.7817 87.1104 73.459C87.8816 73.6545 88.6326 73.9182 89.3569 74.2476ZM73.6008 77.697C75.6206 75.3686 78.3718 73.8035 81.3816 73.2607C81.8645 74.4307 81.9802 75.7378 81.6917 76.9836L80.4785 82.2246C80.2878 82.021 80.0403 81.8806 79.7615 81.824C79.406 81.7515 79.044 81.822 78.742 82.0222L75.3057 84.2976C75.3054 84.2976 75.3054 84.2976 75.3052 84.2979C75.3052 84.2979 75.3049 84.2979 75.3049 84.2981L70.3489 87.5801C70.3218 87.2305 70.3076 86.8782 70.3076 86.5261C70.3076 83.281 71.4773 80.1453 73.6008 77.697V77.697ZM86.5503 93.3496C86.531 93.4443 86.4758 93.5261 86.395 93.5796H86.3953L83.4402 95.5364L77.9556 87.3569C77.8025 87.1287 77.4934 87.0679 77.2651 87.221C77.0371 87.374 76.9761 87.6829 77.1292 87.9111L82.6104 96.0859L78.3919 98.8797C74.2 97.0462 71.2002 93.1741 70.479 88.6685L75.4409 85.3933L76.012 86.2454C76.1082 86.3884 76.2654 86.4658 76.4258 86.4658C76.521 86.4658 76.6174 86.4387 76.7024 86.3816C76.9307 86.2285 76.9917 85.9194 76.8386 85.6912L76.2715 84.8452L79.2915 82.8518C79.3718 82.7983 79.4683 82.7798 79.563 82.7991C79.6577 82.8184 79.7395 82.8735 79.793 82.9541L86.4976 93.0781C86.5508 93.1585 86.5696 93.2549 86.5503 93.3496V93.3496ZM99.7954 84.2444C99.7256 84.5881 99.5261 84.884 99.2337 85.0776L97.4873 86.2341C97.4868 86.2344 97.4863 86.2349 97.4856 86.2351L91.2525 90.363C90.7861 90.6719 90.2254 90.7932 89.6731 90.7044C88.8738 90.5762 88.0618 90.7517 87.3867 91.1987L86.7332 91.6316L81.242 83.3398L82.6614 77.2083C83.0269 75.6287 82.8342 73.9648 82.1379 72.5154C82.1316 72.5002 82.1248 72.4856 82.117 72.4712C81.9832 72.1973 81.8313 71.9314 81.6616 71.675C81.3316 71.1765 81.4685 70.5024 81.9673 70.1721C82.3887 69.8931 82.958 69.9458 83.3208 70.2976L84.2713 71.219C85.2993 72.2158 86.1062 73.4521 86.6043 74.7944L87.1218 76.1887C87.1228 76.1914 87.1238 76.1936 87.1248 76.196C87.126 76.1992 87.1275 76.2026 87.1287 76.2058C87.1323 76.2144 87.1358 76.2222 87.1394 76.2288C87.1494 76.2498 87.1604 76.2705 87.1736 76.2903C87.3255 76.5195 87.634 76.5823 87.8631 76.4304L93.1699 72.9163C93.7735 72.5166 94.5896 72.6824 94.9893 73.2859C95.3889 73.8894 95.2232 74.7056 94.6196 75.1052L94.159 75.4104C94.159 75.4104 94.1587 75.4104 94.1585 75.4106L93.1309 76.0913C93.1294 76.0923 93.1284 76.0933 93.127 76.094C93.1211 76.0981 93.1155 76.102 93.1109 76.106C92.8985 76.262 92.8435 76.5586 92.9907 76.7808C93.1424 77.01 93.4512 77.0728 93.6804 76.9209L94.7088 76.2397C95.001 76.0466 95.3508 75.9785 95.6944 76.0483C96.0379 76.1182 96.334 76.3176 96.5274 76.6101C96.721 76.9023 96.7893 77.2527 96.7195 77.5962C96.6497 77.9399 96.4502 78.2358 96.1577 78.4294L94.669 79.4155C94.4397 79.5671 94.377 79.8757 94.5288 80.105C94.6245 80.2495 94.7827 80.3279 94.9441 80.3279C95.0383 80.3279 95.1338 80.301 95.2183 80.2451L95.4487 80.0925L96.2461 79.5645C96.8499 79.1648 97.6658 79.3306 98.0655 79.9341C98.4651 80.5378 98.2993 81.3538 97.6958 81.7537L96.9522 82.2461C96.9483 82.2485 96.9444 82.2512 96.9404 82.2539L96.2071 82.7395C95.9778 82.8911 95.9151 83.2 96.0669 83.4292C96.1626 83.5737 96.3208 83.6521 96.4822 83.6521C96.5764 83.6521 96.6719 83.6252 96.7564 83.5693L96.9868 83.4168C96.9868 83.4168 96.9868 83.4165 96.9871 83.4165L97.7844 82.8887C98.0767 82.6951 98.4268 82.6267 98.7705 82.6968C99.1143 82.7664 99.4102 82.9661 99.6038 83.2583C99.7971 83.5505 99.8653 83.9009 99.7954 84.2444V84.2444Z" fill="black"/>
</g>
<path d="M12.6583 30.8004C12.5454 32.5516 11.1343 34.6585 12.8276 36.1361C14.2952 37.3948 16.1297 36.4645 17.7949 36.5739C19.6294 36.7108 18.8392 38.3525 18.6134 39.5565C18.444 40.4595 18.3594 41.4445 18.7827 42.3202C19.4601 43.6883 21.2946 44.5639 22.6493 43.5788C23.496 42.9495 22.6493 41.5266 21.8026 42.156C20.4197 43.1684 20.1374 40.7331 20.2785 39.9943C20.4197 39.2008 20.7019 38.4073 20.7301 37.5864C20.7583 36.4371 20.1374 35.5342 19.0367 35.1511C17.682 34.6859 16.4684 35.2058 15.1137 35.1784C12.6583 35.1237 14.2952 32.2232 14.3799 30.8004C14.4364 29.7332 12.743 29.7332 12.6583 30.8004V30.8004Z" fill="#FF9C07"/>
<path d="M22.8288 32.4192C22.1458 33.8921 21.4901 35.6377 22.5829 37.1105C22.9928 37.656 23.5392 37.9833 24.1949 38.0924C24.6321 38.147 25.2059 37.9561 25.5884 38.1197C26.2168 38.3652 26.572 39.1016 26.2714 39.7562C25.8069 40.7108 27.2277 41.5291 27.6922 40.5745C28.2659 39.3471 28.0474 37.9288 26.9545 37.0287C26.3534 36.5377 25.8069 36.5377 25.0693 36.4559C23.0747 36.265 23.6212 34.6012 24.2496 33.2647C24.6867 32.3101 23.266 31.4646 22.8288 32.4192V32.4192Z" fill="#FF9C07"/>
<path d="M167.67 60.8508C167.501 58.8474 170.026 57.7187 171.092 59.6092C171.99 61.2458 170.222 62.6849 168.68 62.1488C167.67 61.782 167.221 63.4186 168.231 63.7854C171.344 64.9141 174.29 61.3587 172.41 58.537C170.391 55.5177 165.706 57.2954 166.015 60.8508C166.071 61.9231 167.754 61.9513 167.67 60.8508V60.8508Z" fill="#4AD7B5"/>
<path fill-rule="evenodd" clip-rule="evenodd" d="M58.7302 141.39L55.4603 140.229L52.5714 142L52.7619 138.806L50 136.832L53.3968 136.019L54.6032 133L56.5079 135.729L60 135.845L57.7778 138.313L58.7302 141.39Z" stroke="#6FC7FF" stroke-width="1.2"/>
<defs>
<clipPath id="clip0_8779_2752">
<rect width="32" height="32" fill="white" transform="translate(69 69)"/>
</clipPath>
</defs>
</svg>
