<svg width="24" height="24" viewBox="0 0 24 24" fill="none" xmlns="http://www.w3.org/2000/svg">
<g clip-path="url(#clip0_8779_2849)">
<path d="M12 0.000244141C5.37253 0.000244141 0 5.37277 0 12.0002C0 18.6277 5.37253 24.0002 12 24.0002C18.6274 24.0002 24 18.6277 24 12.0002C24 5.37277 18.6273 0.000244141 12 0.000244141ZM8.79836 17.8017H6.16364V9.28964H8.79836V17.8017ZM7.46845 8.17493C6.60798 8.17493 5.91041 7.47168 5.91041 6.60432C5.91041 5.73686 6.60807 5.03365 7.46845 5.03365C8.32882 5.03365 9.02638 5.73686 9.02638 6.60432C9.02643 7.47173 8.32887 8.17493 7.46845 8.17493ZM18.672 17.8017H16.05V13.3336C16.05 12.1081 15.5845 11.424 14.6155 11.424C13.5609 11.424 13.01 12.1365 13.01 13.3336V17.8017H10.483V9.28964H13.01V10.4361C13.01 10.4361 13.7701 9.03 15.575 9.03C17.3799 9.03 18.672 10.1321 18.672 12.412L18.672 17.8017Z" fill="url(#paint0_linear_8779_2849)"/>
</g>
<defs>
<linearGradient id="paint0_linear_8779_2849" x1="3.51471" y1="3.51495" x2="20.4852" y2="20.4855" gradientUnits="userSpaceOnUse">
<stop stop-color="#2489BE"/>
<stop offset="1" stop-color="#0575B3"/>
</linearGradient>
<clipPath id="clip0_8779_2849">
<rect width="24" height="24" fill="white"/>
</clipPath>
</defs>
</svg>
