<svg width="173" height="170" viewBox="0 0 173 170" fill="none" xmlns="http://www.w3.org/2000/svg">
<path d="M75.8156 3.80431C81.6963 1.36845 88.3037 1.36845 94.1844 3.8043L135.92 21.0916C141.8 23.5275 146.473 28.1997 148.908 34.0803L166.196 75.8156C168.632 81.6963 168.632 88.3037 166.196 94.1844L148.908 135.92C146.473 141.8 141.8 146.473 135.92 148.908L94.1844 166.196C88.3037 168.632 81.6963 168.632 75.8156 166.196L34.0803 148.908C28.1997 146.473 23.5275 141.8 21.0916 135.92L3.80431 94.1844C1.36845 88.3037 1.36845 81.6963 3.8043 75.8156L21.0916 34.0803C23.5275 28.1997 28.1997 23.5275 34.0803 21.0916L75.8156 3.80431Z" fill="#FCFAFF"/>
<path d="M78.8771 22.5362C82.7975 20.9123 87.2025 20.9123 91.1229 22.5362L124.839 36.5019C128.759 38.1258 131.874 41.2405 133.498 45.161L147.464 78.8771C149.088 82.7975 149.088 87.2025 147.464 91.1229L133.498 124.839C131.874 128.759 128.759 131.874 124.839 133.498L91.1229 147.464C87.2025 149.088 82.7975 149.088 78.8771 147.464L45.161 133.498C41.2405 131.874 38.1258 128.759 36.5019 124.839L22.5362 91.1229C20.9123 87.2025 20.9123 82.7975 22.5362 78.8771L36.5019 45.161C38.1258 41.2405 41.2405 38.1258 45.161 36.5019L78.8771 22.5362Z" fill="#F8F6FF"/>
<path d="M79.6424 52.2192C83.0728 50.7983 86.9272 50.7983 90.3576 52.2192L104.391 58.0321C107.822 59.453 110.547 62.1784 111.968 65.6088L117.781 79.6424C119.202 83.0728 119.202 86.9272 117.781 90.3576L111.968 104.391C110.547 107.822 107.822 110.547 104.391 111.968L90.3576 117.781C86.9272 119.202 83.0728 119.202 79.6424 117.781L65.6088 111.968C62.1784 110.547 59.453 107.822 58.0321 104.391L52.2192 90.3576C50.7983 86.9272 50.7983 83.0728 52.2192 79.6424L58.0321 65.6088C59.453 62.1784 62.1784 59.453 65.6088 58.0321L79.6424 52.2192Z" fill="#ECE7FF"/>
<g clip-path="url(#clip0_8882_3408)">
<path d="M96.457 80.7888L81.9753 95.2703C81.321 95.9249 80.26 95.9249 79.6054 95.2703L71.0837 86.7486C70.4291 86.094 70.4291 85.033 71.0837 84.3787L85.5652 69.897C86.2197 69.2427 87.2807 69.2427 87.935 69.897L96.457 78.419C97.1113 79.0733 97.1113 80.1343 96.457 80.7888V80.7888Z" fill="#8CBAFA"/>
<path d="M96.4566 78.4192L95.3929 77.3555C95.9756 77.9382 95.9175 78.9412 95.2632 79.5957L80.7815 94.0772C80.1272 94.7317 79.1243 94.7898 78.5415 94.2071L79.605 95.2705C80.2595 95.9251 81.3206 95.9251 81.9749 95.2705L96.4566 80.7891C97.1109 80.1345 97.1109 79.0735 96.4566 78.4192V78.4192Z" fill="#5692D8"/>
<path d="M85.3283 73.1977L83.9093 74.6166C83.3512 75.1745 83.3512 76.0788 83.9093 76.6367C84.4672 77.1945 85.3715 77.1945 85.9293 76.6367L87.3483 75.2177C87.9061 74.6599 87.9061 73.7556 87.3483 73.1977C86.7904 72.6398 85.8861 72.6398 85.3283 73.1977V73.1977Z" fill="#FFCD34"/>
<path d="M97.8243 85.0659H77.3442C76.4187 85.0659 75.6685 85.8162 75.6685 86.7415V98.7932C75.6685 99.7188 76.4187 100.469 77.3442 100.469H97.8243C98.7496 100.469 99.4998 99.7188 99.4998 98.7932V86.7415C99.4998 85.8162 98.7496 85.0659 97.8243 85.0659V85.0659Z" fill="#FFCD34"/>
<path d="M97.8242 85.0659H96.3242C97.2495 85.0659 97.9998 85.8162 97.9998 86.7415V98.7932C97.9998 99.7188 97.2495 100.469 96.3242 100.469H97.8242C98.7495 100.469 99.4998 99.7188 99.4998 98.7932V86.7415C99.4998 85.8162 98.7495 85.0659 97.8242 85.0659V85.0659Z" fill="#E69012"/>
<path d="M75.6685 88.8516H99.4998V91.7468H75.6685V88.8516Z" fill="#575B7A"/>
<path d="M98 88.8516H99.5V91.7468H98V88.8516Z" fill="#252D4C"/>
<path d="M93.6426 96.373V98.1587C93.6426 98.2969 93.7544 98.4087 93.8926 98.4087H96.7329C96.8711 98.4087 96.9829 98.2969 96.9829 98.1587V96.373C96.9829 96.2349 96.8711 96.123 96.7329 96.123H93.8926C93.7544 96.123 93.6426 96.2349 93.6426 96.373Z" fill="#E9E9EA"/>
<path d="M85.0791 96.373V98.1587C85.0791 98.2969 85.1912 98.4087 85.3291 98.4087H91.3367C91.4749 98.4087 91.5867 98.2969 91.5867 98.1587V96.373C91.5867 96.2349 91.4749 96.123 91.3367 96.123H85.3291C85.1912 96.123 85.0791 96.2349 85.0791 96.373Z" fill="#E9E9EA"/>
<path d="M71.415 86.4172C70.9443 85.9465 70.9443 85.1807 71.415 84.7102L82.9016 73.2236C83.0847 73.0405 83.0847 72.7436 82.9016 72.5608C82.7185 72.3774 82.4217 72.3777 82.2388 72.5608L70.752 84.0474C69.916 84.8833 69.916 86.2439 70.752 87.0801L73.6453 89.9731C73.7366 90.0645 73.8567 90.1104 73.9766 90.1104C74.0967 90.1104 74.2166 90.0647 74.3081 89.9731C74.4912 89.79 74.4912 89.4932 74.3081 89.3103L71.415 86.4172Z" fill="black"/>
<path d="M80.63 78.2729L73.5367 85.3662C73.3536 85.5493 73.3536 85.8461 73.5367 86.0293C73.6283 86.1206 73.7482 86.1665 73.8683 86.1665C73.9882 86.1665 74.108 86.1208 74.1996 86.0293L81.2929 78.936C81.476 78.7529 81.476 78.456 81.2929 78.2729C81.11 78.09 80.8131 78.09 80.63 78.2729V78.2729Z" fill="black"/>
<path d="M84.9192 77.5231C85.405 77.5231 85.8909 77.3383 86.2607 76.9684L87.6797 75.5494C88.4194 74.8097 88.4194 73.6061 87.6797 72.8663C86.9399 72.1266 85.7363 72.1266 84.9966 72.8663L83.5776 74.2853C83.2192 74.6437 83.022 75.12 83.022 75.6268C83.022 76.1334 83.2192 76.61 83.5776 76.9684C83.9475 77.3383 84.4334 77.5231 84.9192 77.5231V77.5231ZM84.2405 74.9481L85.6594 73.5292C86.0337 73.1549 86.6426 73.1549 87.0166 73.5292C87.3909 73.9034 87.3909 74.5123 87.0166 74.8864L85.5977 76.3053C85.2236 76.6796 84.6147 76.6796 84.2405 76.3053C84.0593 76.1242 83.9595 75.8832 83.9595 75.6268C83.9595 75.3705 84.0593 75.1293 84.2405 74.9481V74.9481Z" fill="black"/>
<path d="M97.824 84.597H93.3118L96.7884 81.1204C97.6246 80.2842 97.6246 78.9236 96.7884 78.0874L88.2664 69.5657C87.8614 69.1606 87.3228 68.9375 86.75 68.9375C86.1773 68.9375 85.6387 69.1606 85.2334 69.5657L83.5635 71.2356C83.3806 71.4187 83.3806 71.7153 83.5635 71.8984C83.7466 72.0815 84.0435 72.0815 84.2263 71.8984L85.8965 70.2285C86.1243 70.0005 86.4275 69.875 86.75 69.875C87.0723 69.875 87.3755 70.0005 87.6035 70.2285L96.1253 78.7503C96.596 79.221 96.596 79.9866 96.1253 80.4573L91.9859 84.5967H80.1399L83.5471 81.1895C83.7302 81.0066 83.7302 80.7097 83.5471 80.5266C83.364 80.3435 83.0672 80.3435 82.8843 80.5266L78.8142 84.597H77.3442C76.1616 84.597 75.1997 85.5589 75.1997 86.7412V98.793C75.1997 99.9754 76.1616 100.938 77.3442 100.938H97.824C99.0066 100.938 99.9686 99.9754 99.9686 98.793V97.0606C99.9686 96.8016 99.7588 96.5919 99.4998 96.5919C99.241 96.5919 99.0311 96.8016 99.0311 97.0606V98.793C99.0311 99.4586 98.4898 100 97.824 100H77.3442C76.6787 100 76.1372 99.4586 76.1372 98.793V92.2156H99.0311V95.1856C99.0311 95.4444 99.2408 95.6544 99.4998 95.6544C99.7588 95.6544 99.9686 95.4444 99.9686 95.1856V86.7415C99.9686 85.5589 99.0066 84.597 97.824 84.597V84.597ZM77.3442 85.5345H97.824C98.4895 85.5345 99.0311 86.076 99.0311 86.7415V88.3831H76.1372V86.7415C76.1372 86.076 76.6787 85.5345 77.3442 85.5345ZM76.1372 91.2781V89.3206H99.0311V91.2781H76.1372Z" fill="black"/>
<path d="M93.8926 95.6543C93.4963 95.6543 93.1738 95.9768 93.1738 96.373V98.1587C93.1738 98.5552 93.4963 98.8774 93.8926 98.8774H96.7329C97.1292 98.8774 97.4517 98.5552 97.4517 98.1587V96.373C97.4517 95.9768 97.1292 95.6543 96.7329 95.6543H93.8926ZM96.5142 97.9399H94.1113V96.5918H96.5142V97.9399Z" fill="black"/>
<path d="M85.3286 95.6543C84.9324 95.6543 84.6099 95.9768 84.6099 96.373V98.1587C84.6099 98.5552 84.9324 98.8774 85.3286 98.8774H91.3362C91.7324 98.8774 92.0549 98.5552 92.0549 98.1587V96.373C92.0549 95.9768 91.7324 95.6543 91.3362 95.6543H85.3286ZM91.1174 97.9399H85.5474V96.5918H91.1174V97.9399Z" fill="black"/>
<path d="M79.6367 97.9399C79.3779 97.9399 79.168 98.1499 79.168 98.4087C79.168 98.6677 79.3779 98.8774 79.6367 98.8774H82.6299C82.8887 98.8774 83.0986 98.6677 83.0986 98.4087C83.0986 98.1499 82.8887 97.9399 82.6299 97.9399H79.6367Z" fill="black"/>
</g>
<path d="M12.6583 30.8004C12.5454 32.5516 11.1343 34.6585 12.8276 36.1361C14.2952 37.3948 16.1297 36.4645 17.7949 36.5739C19.6294 36.7108 18.8392 38.3525 18.6134 39.5565C18.444 40.4595 18.3594 41.4445 18.7827 42.3202C19.4601 43.6883 21.2946 44.5639 22.6493 43.5788C23.496 42.9495 22.6493 41.5266 21.8026 42.156C20.4197 43.1684 20.1374 40.7331 20.2785 39.9943C20.4197 39.2008 20.7019 38.4073 20.7301 37.5864C20.7583 36.4371 20.1374 35.5342 19.0367 35.1511C17.682 34.6859 16.4684 35.2058 15.1137 35.1784C12.6583 35.1237 14.2952 32.2232 14.3799 30.8004C14.4364 29.7332 12.743 29.7332 12.6583 30.8004V30.8004Z" fill="#FF9C07"/>
<path d="M22.8288 32.4192C22.1458 33.8921 21.4901 35.6377 22.5829 37.1105C22.9928 37.656 23.5392 37.9833 24.1949 38.0924C24.6321 38.147 25.2059 37.9561 25.5884 38.1197C26.2168 38.3652 26.572 39.1016 26.2714 39.7562C25.8069 40.7108 27.2277 41.5291 27.6922 40.5745C28.2659 39.3471 28.0474 37.9288 26.9545 37.0287C26.3534 36.5377 25.8069 36.5377 25.0693 36.4559C23.0747 36.265 23.6212 34.6012 24.2496 33.2647C24.6867 32.3101 23.266 31.4646 22.8288 32.4192V32.4192Z" fill="#FF9C07"/>
<path d="M167.67 60.8508C167.501 58.8474 170.026 57.7187 171.092 59.6092C171.99 61.2458 170.222 62.6849 168.68 62.1488C167.67 61.782 167.221 63.4186 168.231 63.7854C171.344 64.9141 174.29 61.3587 172.41 58.537C170.391 55.5177 165.706 57.2954 166.015 60.8508C166.071 61.9231 167.754 61.9513 167.67 60.8508V60.8508Z" fill="#4AD7B5"/>
<path fill-rule="evenodd" clip-rule="evenodd" d="M58.7302 141.39L55.4603 140.229L52.5714 142L52.7619 138.806L50 136.832L53.3968 136.019L54.6032 133L56.5079 135.729L60 135.845L57.7778 138.313L58.7302 141.39Z" stroke="#6FC7FF" stroke-width="1.2"/>
<defs>
<clipPath id="clip0_8882_3408">
<rect width="32" height="32" fill="white" transform="translate(69 69)"/>
</clipPath>
</defs>
</svg>
