<svg width="24" height="24" viewBox="0 0 24 24" fill="none" xmlns="http://www.w3.org/2000/svg">
<g clip-path="url(#clip0_8779_2846)">
<path d="M12 24C18.6274 24 24 18.6274 24 12C24 5.37258 18.6274 0 12 0C5.37258 0 0 5.37258 0 12C0 18.6274 5.37258 24 12 24Z" fill="#3C5A9A"/>
<path d="M15.9018 3.68335H13.2436C11.666 3.68335 9.9114 4.34683 9.9114 6.63352C9.9191 7.43029 9.9114 8.19336 9.9114 9.05215H8.08643V11.9562H9.96787V20.3166H13.4251V11.9011H15.707L15.9135 9.044H13.3656C13.3656 9.044 13.3713 7.77305 13.3656 7.40397C13.3656 6.50032 14.3058 6.55207 14.3624 6.55207C14.8098 6.55207 15.6798 6.55337 15.9031 6.55207V3.68335H15.9018V3.68335Z" fill="white"/>
</g>
<defs>
<clipPath id="clip0_8779_2846">
<rect width="24" height="24" fill="white"/>
</clipPath>
</defs>
</svg>
