<svg width="173" height="170" viewBox="0 0 173 170" fill="none" xmlns="http://www.w3.org/2000/svg">
<path d="M75.8156 3.80431C81.6963 1.36845 88.3037 1.36845 94.1844 3.8043L135.92 21.0916C141.8 23.5275 146.473 28.1997 148.908 34.0803L166.196 75.8156C168.632 81.6963 168.632 88.3037 166.196 94.1844L148.908 135.92C146.473 141.8 141.8 146.473 135.92 148.908L94.1844 166.196C88.3037 168.632 81.6963 168.632 75.8156 166.196L34.0803 148.908C28.1997 146.473 23.5275 141.8 21.0916 135.92L3.80431 94.1844C1.36845 88.3037 1.36845 81.6963 3.8043 75.8156L21.0916 34.0803C23.5275 28.1997 28.1997 23.5275 34.0803 21.0916L75.8156 3.80431Z" fill="#FCFAFF"/>
<path d="M78.8771 22.5362C82.7975 20.9123 87.2025 20.9123 91.1229 22.5362L124.839 36.5019C128.759 38.1258 131.874 41.2405 133.498 45.161L147.464 78.8771C149.088 82.7975 149.088 87.2025 147.464 91.1229L133.498 124.839C131.874 128.759 128.759 131.874 124.839 133.498L91.1229 147.464C87.2025 149.088 82.7975 149.088 78.8771 147.464L45.161 133.498C41.2405 131.874 38.1258 128.759 36.5019 124.839L22.5362 91.1229C20.9123 87.2025 20.9123 82.7975 22.5362 78.8771L36.5019 45.161C38.1258 41.2405 41.2405 38.1258 45.161 36.5019L78.8771 22.5362Z" fill="#F8F6FF"/>
<path d="M79.6424 52.2192C83.0728 50.7983 86.9272 50.7983 90.3576 52.2192L104.391 58.0321C107.822 59.453 110.547 62.1784 111.968 65.6088L117.781 79.6424C119.202 83.0728 119.202 86.9272 117.781 90.3576L111.968 104.391C110.547 107.822 107.822 110.547 104.391 111.968L90.3576 117.781C86.9272 119.202 83.0728 119.202 79.6424 117.781L65.6088 111.968C62.1784 110.547 59.453 107.822 58.0321 104.391L52.2192 90.3576C50.7983 86.9272 50.7983 83.0728 52.2192 79.6424L58.0321 65.6088C59.453 62.1784 62.1784 59.453 65.6088 58.0321L79.6424 52.2192Z" fill="#ECE7FF"/>
<g clip-path="url(#clip0_8880_3095)">
<path d="M88.3081 94.0824L90.7201 91.6663L91.3391 91.4998L93.3543 99.0205L90.049 97.9699L87.7121 100.533L85.8042 93.4139L88.3081 94.0824Z" fill="#F07281"/>
<path d="M91.662 92.7044L91.3665 92.7836L88.6817 95.4728L86.177 94.8038L85.8042 93.4139L88.3082 94.0823L90.7199 91.6663L91.3391 91.4998L91.662 92.7044Z" fill="#FEE45A"/>
<path d="M88.4416 93.9488L89.6394 98.4187L87.7121 100.532L85.8042 93.4138L88.3082 94.0822L88.4416 93.9488Z" fill="#EB5569"/>
<path d="M79.2965 91.6759L81.7127 94.088L84.1931 93.4213L82.2876 100.532L79.9508 97.9698L76.6455 99.0204L78.6594 91.5059L79.2965 91.6759Z" fill="#F07281"/>
<path d="M84.1935 93.4213L83.8207 94.8123L81.3416 95.4795L78.6524 92.7947L78.3369 92.7105L78.6599 91.5059L79.2971 91.6761L81.7132 94.0878L84.1935 93.4213Z" fill="#FEE45A"/>
<path d="M81.2177 93.5936L80.0231 98.0499L79.9508 97.97L76.6455 99.0206L78.6594 91.5061L79.2967 91.6764L81.2177 93.5936Z" fill="#EB5569"/>
<path d="M91.662 92.7044L91.3665 92.7836L88.6817 95.4728L86.177 94.8038L85.8042 93.4139L88.3082 94.0823L90.7199 91.6663L91.3391 91.4998L91.662 92.7044Z" fill="#EB5569"/>
<path d="M84.193 93.4215L83.8202 94.8125L81.3411 95.4797L78.6519 92.7949L78.3364 92.7107L78.6594 91.5061L79.2966 91.6764L81.7127 94.088L84.193 93.4215Z" fill="#EB5569"/>
<path d="M94.0174 90.7798L90.7204 91.6663L88.3084 94.0824L85.0099 93.2016L81.7129 94.0881L79.2967 91.676L75.9982 90.7952L75.1118 87.4982L72.6956 85.0862L73.5764 81.7877L72.6899 78.4907L75.102 76.0745L75.9828 72.776L79.2798 71.8896L81.6918 69.4735L84.9903 70.3542L88.2873 69.4678L90.7035 71.8798L94.002 72.7606L94.8884 76.0576L97.3046 78.4696L96.4238 81.7681L97.3103 85.0651L94.8982 87.4813L94.0174 90.7798Z" fill="#FDB441"/>
<path d="M85.0001 91.1305C90.1654 91.1305 94.3527 86.9432 94.3527 81.7779C94.3527 76.6126 90.1654 72.4253 85.0001 72.4253C79.8348 72.4253 75.6475 76.6126 75.6475 81.7779C75.6475 86.9432 79.8348 91.1305 85.0001 91.1305Z" fill="#FEE97D"/>
<path d="M87.1823 90.8743C86.4821 91.042 85.7514 91.1305 85.0001 91.1305C79.835 91.1305 75.6475 86.943 75.6475 81.7779C75.6475 76.6128 79.835 72.4253 85.0001 72.4253C85.7514 72.4253 86.4821 72.5139 87.1823 72.6815C83.0697 73.6642 80.012 77.3641 80.012 81.7779C80.012 86.1918 83.0696 89.8917 87.1823 90.8743Z" fill="#FEE45A"/>
<path d="M81.5695 79.3582V87.5978H77.6788C76.4069 86.0004 75.6475 83.9778 75.6475 81.778C75.6475 80.9413 75.7572 80.1301 75.9636 79.3582H81.5695V79.3582Z" fill="#8AC9FE"/>
<path d="M81.5695 79.3582V87.5978H77.6788C76.4069 86.0004 75.6475 83.9778 75.6475 81.778C75.6475 80.9413 75.7572 80.1301 75.9636 79.3582H81.5695V79.3582Z" fill="#8AC9FE"/>
<path d="M88.7636 85.4257H89.2432C89.773 85.4257 90.2025 85.8552 90.2025 86.385C90.2025 86.9147 89.773 87.3442 89.2432 87.3442H84.0984C83.8393 87.3442 83.5886 87.2565 83.383 87.0988C82.8406 86.683 82.2668 86.5949 81.5693 86.5535V80.4538C83.2096 78.5796 85.2883 78.4036 85.1429 75.6029C85.1177 75.1183 85.5039 74.7114 85.9892 74.7114C86.3604 74.7114 86.6904 74.9524 86.7987 75.3074C87.239 76.7504 87.3491 78.1826 86.7678 79.6704H90.2758C90.8055 79.6704 91.235 80.0999 91.235 80.6297C91.235 81.1594 90.8056 81.5889 90.2758 81.5889H89.0825H89.951C90.4807 81.5889 90.9102 82.0184 90.9102 82.5482C90.9102 83.0779 90.4808 83.5074 89.951 83.5074H89.0825H89.6321C90.1618 83.5074 90.5913 83.9369 90.5913 84.4667C90.5913 84.9964 90.1619 85.4259 89.6321 85.4259H88.7636V85.4257Z" fill="#FFF3DE"/>
<path d="M88.7636 85.4257H89.2432C89.773 85.4257 90.2025 85.8552 90.2025 86.385C90.2025 86.9147 89.773 87.3442 89.2432 87.3442H84.0984C83.8393 87.3442 83.5886 87.2565 83.383 87.0988C82.8406 86.683 82.2668 86.5949 81.5693 86.5535V80.4538C83.2096 78.5796 85.2883 78.4036 85.1429 75.6029C85.1177 75.1183 85.5039 74.7114 85.9892 74.7114C86.3604 74.7114 86.6904 74.9524 86.7987 75.3074C87.239 76.7504 87.3491 78.1826 86.7678 79.6704H90.2758C90.8055 79.6704 91.235 80.0999 91.235 80.6297C91.235 81.1594 90.8056 81.5889 90.2758 81.5889H89.0825H89.951C90.4807 81.5889 90.9102 82.0184 90.9102 82.5482C90.9102 83.0779 90.4808 83.5074 89.951 83.5074H89.0825H89.6321C90.1618 83.5074 90.5913 83.9369 90.5913 84.4667C90.5913 84.9964 90.1619 85.4259 89.6321 85.4259H88.7636V85.4257Z" fill="#F1B0A2"/>
<path d="M87.1529 77.9679C86.5145 78.7121 85.5446 79.199 84.6456 80.0802C84.4205 80.3009 84.2919 80.6019 84.2919 80.9172V85.5201C84.2919 86.0622 84.6585 86.542 85.1858 86.6679C85.6151 86.7704 86.0033 86.962 86.3834 87.3441H84.0987C83.8397 87.3441 83.589 87.2564 83.3834 87.0989C82.8411 86.6832 82.2672 86.5951 81.5698 86.5536V80.454C83.2113 78.5784 85.2918 78.4034 85.1428 75.5969C85.1176 75.1147 85.5064 74.7114 85.9894 74.7114C86.1749 74.7114 86.3506 74.7717 86.493 74.8763C86.6353 74.9809 86.745 75.1294 86.7991 75.3072C87.0693 76.1931 87.2151 77.0746 87.1529 77.9679Z" fill="#EB9C8D"/>
<path d="M97.7619 84.9434L96.9083 81.7678L97.7565 78.591C97.7997 78.4292 97.7533 78.2566 97.6348 78.1383L95.3074 75.8152L94.4538 72.6396C94.4103 72.4779 94.2838 72.3516 94.122 72.3085L90.9453 71.4602L88.6178 69.137C88.4993 69.0187 88.3267 68.9725 88.165 69.0162L84.9894 69.8698L81.8127 69.0216C81.651 68.9785 81.4784 69.0247 81.36 69.1433L79.0369 71.4707L75.8613 72.3243C75.6996 72.3678 75.5734 72.4943 75.5301 72.6561L74.6819 75.8329L72.3587 78.1603C72.2404 78.2788 72.1943 78.4514 72.2377 78.6131L73.0914 81.7881L72.5657 83.7574C72.4989 84.0075 72.6476 84.2644 72.8977 84.3312C73.1478 84.3981 73.4047 84.2493 73.4715 83.9992L74.0297 81.9086C74.0509 81.8291 74.0509 81.7454 74.0295 81.6659L73.2134 78.631L75.4341 76.4063C75.4922 76.3481 75.534 76.2756 75.5552 76.1961L76.3661 73.1594L79.4016 72.3434C79.481 72.322 79.5535 72.2801 79.6117 72.2219L81.8323 69.9972L84.8689 70.808C84.9483 70.8293 85.032 70.8292 85.1115 70.8078L88.1471 69.9918L90.3718 72.2125C90.43 72.2706 90.5025 72.3124 90.582 72.3336L93.6186 73.1445L94.4346 76.18C94.456 76.2594 94.498 76.3319 94.5561 76.39L96.7809 78.6107L95.97 81.6473C95.9488 81.7268 95.9488 81.8105 95.9702 81.8899L96.7863 84.9255L94.5656 87.1502C94.5075 87.2085 94.4657 87.281 94.4445 87.3604L93.6336 90.3971L90.5982 91.213C90.5187 91.2344 90.4461 91.2763 90.388 91.3345L88.1674 93.5592L85.131 92.7479C85.0513 92.7266 84.9676 92.7267 84.888 92.7481L81.8526 93.5647L79.6279 91.344C79.5696 91.2859 79.4971 91.244 79.4177 91.2229L78.7824 91.0531C78.782 91.053 78.7816 91.0528 78.7812 91.0527C78.7807 91.0526 78.7803 91.0525 78.7799 91.0524L76.3811 90.4115L75.5651 87.3766C75.5436 87.2971 75.5017 87.2246 75.4435 87.1665L73.8629 85.589C73.6796 85.4061 73.3827 85.4064 73.2 85.5897C73.0171 85.7729 73.0174 86.0697 73.2007 86.2526L74.6924 87.7413L75.546 90.9162C75.5895 91.0779 75.7159 91.2041 75.8777 91.2473L78.0857 91.8373L76.1934 98.898C76.149 99.0635 76.1985 99.24 76.3224 99.3583C76.4462 99.4767 76.6248 99.5181 76.7881 99.4661L79.807 98.5065L81.9414 100.847C82.0314 100.946 82.1577 101 82.2878 101C82.3247 101 82.3619 100.996 82.3986 100.987C82.5651 100.946 82.6962 100.818 82.7405 100.653L84.576 93.8027L85.0103 93.6859L85.4215 93.7958L87.259 100.653C87.3033 100.818 87.4344 100.946 87.6009 100.987C87.6377 100.996 87.6748 101 87.7117 101C87.8418 101 87.9682 100.946 88.0581 100.847L90.1926 98.5064L93.2116 99.4661C93.3749 99.5181 93.5535 99.4767 93.6773 99.3583C93.8012 99.24 93.8507 99.0635 93.8063 98.898L93.0463 96.0618C92.9794 95.8118 92.7223 95.6634 92.4722 95.7304C92.2221 95.7974 92.0738 96.0544 92.1408 96.3045L92.679 98.3131L90.1906 97.522C90.0163 97.4666 89.8255 97.5177 89.7022 97.6529L87.9427 99.5823L86.4669 94.0752L88.187 94.5348C88.3486 94.578 88.5213 94.5317 88.6397 94.413L90.9628 92.0857L91.0072 92.0738L91.5933 94.2619C91.6494 94.4714 91.8388 94.6095 92.0458 94.6095C92.086 94.6095 92.1268 94.6044 92.1673 94.5935C92.4174 94.5265 92.5658 94.2695 92.4988 94.0194L91.9125 91.8305L94.1383 91.2321C94.3001 91.1886 94.4263 91.0622 94.4695 90.9004L95.3178 87.7236L97.6409 85.3962C97.7593 85.2777 97.8054 85.1051 97.7619 84.9434ZM82.0568 99.5823L80.2975 97.653C80.1741 97.5178 79.9835 97.4667 79.8091 97.5221L77.3207 98.313L78.9914 92.0792L79.0546 92.0961L81.3819 94.4192C81.471 94.5081 81.5905 94.5562 81.7131 94.5562C81.7537 94.5562 81.7946 94.551 81.8348 94.5402L83.5301 94.0842L82.0568 99.5823Z" fill="black"/>
<path d="M84.9998 72.895C86.3029 72.895 87.558 73.1706 88.7301 73.714C88.9651 73.823 89.2436 73.7208 89.3525 73.486C89.4614 73.2511 89.3593 72.9724 89.1245 72.8635C87.8279 72.2623 86.4402 71.9575 84.9998 71.9575C80.5646 71.9575 76.6679 74.9423 75.5166 79.2182C75.5161 79.2196 75.5158 79.2211 75.5153 79.2226C75.514 79.2275 75.5126 79.2323 75.5113 79.2371C75.2909 80.0619 75.1792 80.9168 75.1792 81.7781C75.1792 84.024 75.9169 86.1373 77.3124 87.8893C77.3133 87.8905 77.3143 87.8916 77.3152 87.8928C77.3166 87.8945 77.3179 87.8962 77.3194 87.8979C79.1948 90.25 81.9934 91.5988 84.9998 91.5988C90.4149 91.5988 94.8204 87.1933 94.8204 81.7781C94.8204 78.8485 93.5263 76.0935 91.2699 74.2194C91.0708 74.054 90.7752 74.0813 90.6098 74.2805C90.4443 74.4797 90.4717 74.7752 90.6709 74.9406C92.7121 76.636 93.8829 79.1282 93.8829 81.7782C93.8829 86.6764 89.8979 90.6613 84.9998 90.6613C82.6195 90.6613 80.3831 89.7265 78.7244 88.0663H81.5694C81.8284 88.0663 82.0382 87.8565 82.0382 87.5976V87.0663C82.4598 87.1231 82.7858 87.2314 83.0977 87.4705C83.3854 87.6911 83.7408 87.8126 84.0983 87.8126H89.2428C90.0301 87.8126 90.6707 87.172 90.6707 86.3846C90.6707 86.1086 90.5919 85.8505 90.4558 85.6318C90.8209 85.3729 91.0596 84.947 91.0596 84.4663C91.0596 84.1753 90.9721 83.9044 90.822 83.6784C91.1602 83.417 91.3784 83.0075 91.3784 82.548C91.3784 82.2583 91.2916 81.9885 91.1428 81.7631C91.4832 81.502 91.7031 81.091 91.7031 80.6297C91.7031 79.8423 91.0626 79.2018 90.2752 79.2018H87.4168C87.7584 77.9593 87.7013 76.6609 87.2468 75.171C87.0774 74.616 86.572 74.2431 85.9889 74.2431C85.6298 74.2431 85.2819 74.3926 85.0345 74.6531C84.7871 74.9136 84.6559 75.2689 84.6745 75.6277C84.7603 77.2791 84.0266 77.8267 82.9158 78.6556C82.6368 78.8638 82.3384 79.0868 82.0374 79.343C82.0291 79.0914 81.8231 78.8898 81.5694 78.8898H76.5969C77.8178 75.3309 81.1888 72.895 84.9998 72.895ZM83.4765 79.4068C84.6315 78.5448 85.7226 77.7307 85.6108 75.579C85.6053 75.4743 85.6421 75.3746 85.7143 75.2985C85.7865 75.2225 85.884 75.1806 85.9889 75.1806C86.1541 75.1806 86.3026 75.2891 86.3499 75.4445C86.8182 76.9792 86.8121 78.2678 86.3308 79.5C86.2745 79.6442 86.2931 79.807 86.3804 79.9348C86.4677 80.0627 86.6126 80.1392 86.7674 80.1392H90.2751C90.5455 80.1392 90.7655 80.3592 90.7655 80.6296C90.7655 80.9001 90.5455 81.1201 90.2751 81.1201H89.0819C88.8229 81.1201 88.6131 81.33 88.6131 81.5888C88.6131 81.8477 88.8229 82.0576 89.0819 82.0576H89.9503C90.2207 82.0576 90.4408 82.2776 90.4408 82.548C90.4408 82.8184 90.2207 83.0384 89.9503 83.0384H89.0819C88.8229 83.0384 88.6131 83.2483 88.6131 83.5071C88.6131 83.766 88.8229 83.9759 89.0819 83.9759H89.6314C89.9019 83.9759 90.1219 84.1959 90.1219 84.4663C90.1219 84.7368 89.9019 84.9568 89.6314 84.9568H88.7629C88.504 84.9568 88.2942 85.1666 88.2942 85.4255C88.2942 85.6844 88.504 85.8943 88.7629 85.8943H89.2426C89.513 85.8943 89.733 86.1143 89.733 86.3847C89.733 86.6551 89.513 86.8751 89.2426 86.8751H84.0981C83.9457 86.8751 83.7929 86.8223 83.6679 86.7265C83.137 86.3194 82.5805 86.1815 82.038 86.1213V80.6342C82.4998 80.1362 82.9956 79.7658 83.4765 79.4068ZM81.1007 80.5615C81.1007 80.5619 81.1006 80.5623 81.1006 80.5626V86.6619C81.1006 86.6623 81.1007 86.6627 81.1007 86.6631V87.1287H77.9089C76.7357 85.5796 76.1166 83.7346 76.1166 81.7781C76.1166 81.119 76.1897 80.4645 76.3324 79.8271H81.1007V80.5615Z" fill="black"/>
</g>
<path d="M12.6583 30.8004C12.5454 32.5516 11.1343 34.6585 12.8276 36.1361C14.2952 37.3948 16.1297 36.4645 17.7949 36.5739C19.6294 36.7108 18.8392 38.3525 18.6134 39.5565C18.444 40.4595 18.3594 41.4445 18.7827 42.3202C19.4601 43.6883 21.2946 44.5639 22.6493 43.5788C23.496 42.9495 22.6493 41.5266 21.8026 42.156C20.4197 43.1684 20.1374 40.7331 20.2785 39.9943C20.4197 39.2008 20.7019 38.4073 20.7301 37.5864C20.7583 36.4371 20.1374 35.5342 19.0367 35.1511C17.682 34.6859 16.4684 35.2058 15.1137 35.1784C12.6583 35.1237 14.2952 32.2232 14.3799 30.8004C14.4364 29.7332 12.743 29.7332 12.6583 30.8004Z" fill="#FF9C07"/>
<path d="M22.8288 32.4192C22.1458 33.8921 21.4901 35.6377 22.5829 37.1105C22.9928 37.656 23.5392 37.9833 24.1949 38.0924C24.6321 38.147 25.2059 37.9561 25.5884 38.1197C26.2168 38.3652 26.572 39.1016 26.2714 39.7562C25.8069 40.7108 27.2277 41.5291 27.6922 40.5745C28.2659 39.3471 28.0474 37.9288 26.9545 37.0287C26.3534 36.5377 25.8069 36.5377 25.0693 36.4559C23.0747 36.265 23.6212 34.6012 24.2496 33.2647C24.6867 32.3101 23.266 31.4646 22.8288 32.4192Z" fill="#FF9C07"/>
<path d="M167.67 60.8508C167.501 58.8474 170.026 57.7187 171.092 59.6092C171.99 61.2458 170.222 62.6849 168.68 62.1488C167.67 61.782 167.221 63.4186 168.231 63.7854C171.344 64.9141 174.29 61.3587 172.41 58.537C170.391 55.5177 165.706 57.2954 166.015 60.8508C166.071 61.9231 167.754 61.9513 167.67 60.8508Z" fill="#4AD7B5"/>
<path fill-rule="evenodd" clip-rule="evenodd" d="M58.7302 141.39L55.4603 140.229L52.5714 142L52.7619 138.806L50 136.832L53.3968 136.019L54.6032 133L56.5079 135.729L60 135.845L57.7778 138.313L58.7302 141.39Z" stroke="#6FC7FF" stroke-width="1.2"/>
<defs>
<clipPath id="clip0_8880_3095">
<rect width="32" height="32" fill="white" transform="translate(69 69)"/>
</clipPath>
</defs>
</svg>
