<svg width="24" height="24" viewBox="0 0 24 24" fill="none" xmlns="http://www.w3.org/2000/svg">
<path d="M11.9999 0.796875C18.1874 0.796875 23.1937 5.80313 23.1937 11.9813C23.1937 18.1594 18.1874 23.175 11.9999 23.175C5.8124 23.175 0.806152 18.1688 0.806152 11.9906C0.806152 5.8125 5.8124 0.796875 11.9999 0.796875Z" fill="#E74D89"/>
<path d="M12 23.9719C5.38125 23.9719 0 18.6 0 11.9906C0 5.37188 5.38125 0 12 0C18.6187 0 24 5.37188 24 11.9813C24 18.5906 18.6187 23.9719 12 23.9719ZM22.1156 13.6219C21.7687 13.5094 18.9469 12.675 15.7313 13.1813C17.0719 16.8563 17.6156 19.8562 17.7188 20.475C20.025 18.9281 21.6656 16.4719 22.1156 13.6219ZM16.0031 21.4219C15.8531 20.5219 15.2531 17.3906 13.8187 13.6594C13.8 13.6687 13.7719 13.6781 13.7531 13.6781C7.96875 15.6937 5.89688 19.6969 5.70938 20.0719C7.44375 21.4219 9.62813 22.2281 12 22.2281C13.4156 22.2375 14.775 21.9469 16.0031 21.4219V21.4219ZM4.3875 18.8438C4.62187 18.45 7.43437 13.8 12.7219 12.0844C12.8531 12.0375 12.9938 12 13.125 11.9625C12.8719 11.3812 12.5906 10.8 12.2906 10.2281C7.17188 11.7562 2.20313 11.6906 1.75313 11.6812C1.75313 11.7844 1.74375 11.8875 1.74375 11.9906C1.75313 14.625 2.74687 17.025 4.3875 18.8438V18.8438ZM1.96875 9.9C2.42813 9.90937 6.64687 9.92813 11.4469 8.65313C9.75 5.63438 7.9125 3.10313 7.65 2.7375C4.77187 4.0875 2.63437 6.73125 1.96875 9.9ZM9.6 2.04375C9.88125 2.41875 11.7469 4.95 13.425 8.03437C17.0719 6.66562 18.6094 4.60312 18.7969 4.34062C16.9875 2.7375 14.6062 1.7625 12 1.7625C11.175 1.7625 10.3688 1.86562 9.6 2.04375V2.04375ZM19.9313 5.52188C19.7156 5.8125 18 8.01562 14.2125 9.5625C14.4469 10.05 14.6812 10.5469 14.8969 11.0438C14.9719 11.2219 15.0469 11.4 15.1219 11.5688C18.5344 11.1375 21.9187 11.8313 22.2562 11.8969C22.2281 9.4875 21.3656 7.26563 19.9313 5.52188V5.52188Z" fill="#B2215A"/>
</svg>
