<svg width="24" height="24" viewBox="0 0 24 24" fill="none" xmlns="http://www.w3.org/2000/svg">
<g clip-path="url(#clip0_8779_2851)">
<rect width="23.8471" height="23.8471" fill="#5DA8DC"/>
<path d="M9.58014 18.3539C15.1418 18.3539 18.1832 13.7446 18.1832 9.74767C18.1832 9.61677 18.1806 9.48647 18.1747 9.35671C18.7665 8.92834 19.2772 8.39795 19.6829 7.7904C19.1411 8.03135 18.5581 8.19353 17.9465 8.26664C18.5708 7.89219 19.05 7.29978 19.2762 6.59364C18.6826 6.94587 18.0333 7.19418 17.3561 7.32785C16.8044 6.73991 16.0189 6.37219 15.149 6.37219C13.4793 6.37219 12.1252 7.72678 12.1252 9.39651C12.1252 9.6339 12.1518 9.86473 12.2036 10.0862C9.69061 9.95971 7.46224 8.75609 5.97089 6.92593C5.70229 7.38753 5.56101 7.91215 5.56148 8.44622C5.56148 9.49563 6.09527 10.422 6.90703 10.964C6.42686 10.9493 5.95723 10.8196 5.53763 10.5857C5.53718 10.5984 5.53718 10.6108 5.53718 10.6243C5.53718 12.0892 6.57942 13.3122 7.96296 13.5894C7.70311 13.6602 7.43498 13.696 7.16566 13.6958C6.97116 13.6958 6.78161 13.6767 6.59739 13.6413C6.98234 14.8431 8.09856 15.7177 9.42198 15.7421C8.38708 16.5536 7.08343 17.0369 5.66656 17.0369C5.42553 17.0371 5.1847 17.0231 4.94531 16.995C6.2835 17.853 7.87247 18.3537 9.58029 18.3537" fill="white"/>
</g>
<defs>
<clipPath id="clip0_8779_2851">
<rect width="23.8471" height="24" rx="11.9236" fill="white"/>
</clipPath>
</defs>
</svg>
