<svg width="173" height="170" viewBox="0 0 173 170" fill="none" xmlns="http://www.w3.org/2000/svg">
<path d="M75.8156 3.80431C81.6963 1.36845 88.3037 1.36845 94.1844 3.8043L135.92 21.0916C141.8 23.5275 146.473 28.1997 148.908 34.0803L166.196 75.8156C168.632 81.6963 168.632 88.3037 166.196 94.1844L148.908 135.92C146.473 141.8 141.8 146.473 135.92 148.908L94.1844 166.196C88.3037 168.632 81.6963 168.632 75.8156 166.196L34.0803 148.908C28.1997 146.473 23.5275 141.8 21.0916 135.92L3.80431 94.1844C1.36845 88.3037 1.36845 81.6963 3.8043 75.8156L21.0916 34.0803C23.5275 28.1997 28.1997 23.5275 34.0803 21.0916L75.8156 3.80431Z" fill="#FCFAFF"/>
<path d="M78.8771 22.5362C82.7975 20.9123 87.2025 20.9123 91.1229 22.5362L124.839 36.5019C128.759 38.1258 131.874 41.2405 133.498 45.161L147.464 78.8771C149.088 82.7975 149.088 87.2025 147.464 91.1229L133.498 124.839C131.874 128.759 128.759 131.874 124.839 133.498L91.1229 147.464C87.2025 149.088 82.7975 149.088 78.8771 147.464L45.161 133.498C41.2405 131.874 38.1258 128.759 36.5019 124.839L22.5362 91.1229C20.9123 87.2025 20.9123 82.7975 22.5362 78.8771L36.5019 45.161C38.1258 41.2405 41.2405 38.1258 45.161 36.5019L78.8771 22.5362Z" fill="#F8F6FF"/>
<path d="M79.6424 52.2192C83.0728 50.7983 86.9272 50.7983 90.3576 52.2192L104.391 58.0321C107.822 59.453 110.547 62.1784 111.968 65.6088L117.781 79.6424C119.202 83.0728 119.202 86.9272 117.781 90.3576L111.968 104.391C110.547 107.822 107.822 110.547 104.391 111.968L90.3576 117.781C86.9272 119.202 83.0728 119.202 79.6424 117.781L65.6088 111.968C62.1784 110.547 59.453 107.822 58.0321 104.391L52.2192 90.3576C50.7983 86.9272 50.7983 83.0728 52.2192 79.6424L58.0321 65.6088C59.453 62.1784 62.1784 59.453 65.6088 58.0321L79.6424 52.2192Z" fill="#ECE7FF"/>
<path d="M100.529 71.9773V98.0146C100.529 99.019 99.7153 99.8337 98.71 99.8337H71.2896C70.2842 99.8337 69.4702 99.019 69.4702 98.0146V71.9773C69.4702 70.9727 70.2842 70.1582 71.2896 70.1582H98.71C99.7153 70.1582 100.529 70.9727 100.529 71.9773V71.9773Z" fill="#EFF2FA"/>
<path d="M98.71 70.1582H94.3452C95.3503 70.1582 96.1643 70.9727 96.1643 71.9773V98.0146C96.1643 99.019 95.3503 99.8337 94.3452 99.8337H98.71C99.7153 99.8337 100.529 99.019 100.529 98.0146V71.9773C100.529 70.9727 99.7153 70.1582 98.71 70.1582V70.1582Z" fill="#D7DEED"/>
<path d="M100.529 71.9773V78.0066H69.4702V71.9773C69.4702 70.9727 70.2842 70.1582 71.2896 70.1582H98.71C99.7153 70.1582 100.529 70.9727 100.529 71.9773Z" fill="#5C546A"/>
<path d="M98.71 70.1582H94.3452C95.3503 70.1582 96.1643 70.9727 96.1643 71.9773V78.0066H100.529V71.9773C100.529 70.9727 99.7153 70.1582 98.71 70.1582V70.1582Z" fill="#4F495B"/>
<path d="M89.4177 75.2112H80.5823C79.9749 75.2112 79.4824 74.7188 79.4824 74.1113V74.104C79.4824 73.4966 79.9749 73.0042 80.5823 73.0042H89.4177C90.0251 73.0042 90.5176 73.4966 90.5176 74.104V74.1113C90.5178 74.7188 90.0254 75.2112 89.4177 75.2112V75.2112Z" fill="white"/>
<path d="M75.8811 75.2112H75.8738C75.2664 75.2112 74.7739 74.7188 74.7739 74.1113V74.104C74.7739 73.4966 75.2664 73.0042 75.8738 73.0042H75.8811C76.4885 73.0042 76.981 73.4966 76.981 74.104V74.1113C76.981 74.7188 76.4885 75.2112 75.8811 75.2112Z" fill="#FFD782"/>
<path d="M94.2283 75.2112H94.2209C93.6135 75.2112 93.1211 74.7188 93.1211 74.1113V74.104C93.1211 73.4966 93.6135 73.0042 94.2209 73.0042H94.2283C94.8357 73.0042 95.3281 73.4966 95.3281 74.104V74.1113C95.3281 74.7188 94.8357 75.2112 94.2283 75.2112V75.2112Z" fill="#FFD782"/>
<path d="M84.9817 92.7241H84.9448C81.873 92.7241 79.3828 90.2341 79.3828 87.1624V87.1255C79.3828 84.0537 81.873 81.5635 84.9448 81.5635H84.9817C88.0535 81.5635 90.5435 84.0537 90.5435 87.1255V87.1624C90.5435 90.2341 88.0535 92.7241 84.9817 92.7241V92.7241Z" fill="#5ED4CD"/>
<path d="M85.2364 89.3689C84.9944 89.3689 84.7625 89.2727 84.5914 89.1016L82.6553 87.1655C82.2991 86.8093 82.2991 86.2317 82.6553 85.8755C83.0118 85.5193 83.5892 85.5193 83.9454 85.8755L85.2364 87.1665L90.6502 81.8308C91.0064 81.4744 91.584 81.4744 91.94 81.8308C92.2962 82.187 92.2962 82.7646 91.94 83.1206L85.8814 89.1016C85.7103 89.2727 85.4783 89.3689 85.2364 89.3689V89.3689Z" fill="#2FA39B"/>
<path d="M98.7104 69.6875H71.2895C70.0271 69.6875 69 70.7146 69 71.9773V98.0146C69 99.277 70.0271 100.304 71.2895 100.304H98.7104C99.9728 100.304 101 99.277 101 98.0146V71.9773C101 70.7146 99.9728 69.6875 98.7104 69.6875V69.6875ZM98.7104 99.3637H71.2895C70.5457 99.3637 69.9407 98.7585 69.9407 98.0146V78.477H71.4553C71.7151 78.477 71.9255 78.2666 71.9255 78.0068C71.9255 77.7471 71.7151 77.5364 71.4553 77.5364H69.9407V71.9773C69.9407 71.2334 70.5457 70.6282 71.2895 70.6282H98.7104C99.4543 70.6282 100.059 71.2334 100.059 71.9773V77.5366H73.4932C73.2334 77.5366 73.0229 77.7471 73.0229 78.0068C73.0229 78.2666 73.2334 78.477 73.4932 78.477H100.059V98.0146C100.059 98.7585 99.4543 99.3637 98.7104 99.3637V99.3637Z" fill="black"/>
<path d="M80.5854 75.6814H89.4141C90.2817 75.6814 90.9878 74.9756 90.9878 74.1077C90.9878 73.2397 90.2817 72.5337 89.4141 72.5337H80.5854C79.7178 72.5337 79.0117 73.2397 79.0117 74.1077C79.0117 74.9756 79.7178 75.6814 80.5854 75.6814V75.6814ZM80.5854 73.4744H89.4141C89.7632 73.4744 90.0471 73.7583 90.0471 74.1077C90.0471 74.4568 89.7632 74.7407 89.4141 74.7407H80.5854C80.2363 74.7407 79.9524 74.4568 79.9524 74.1077C79.9524 73.7583 80.2363 73.4744 80.5854 73.4744V73.4744Z" fill="black"/>
<path d="M75.877 75.6814C76.7449 75.6814 77.4509 74.9756 77.4509 74.1077C77.4509 73.2397 76.7449 72.5337 75.877 72.5337C75.0093 72.5337 74.3032 73.2397 74.3032 74.1077C74.3032 74.9756 75.0093 75.6814 75.877 75.6814ZM75.877 73.4744C76.2263 73.4744 76.5103 73.7583 76.5103 74.1077C76.5103 74.4568 76.2263 74.7407 75.877 74.7407C75.5278 74.7407 75.2439 74.4568 75.2439 74.1077C75.2439 73.7583 75.5281 73.4744 75.877 73.4744Z" fill="black"/>
<path d="M94.2244 75.6814C95.092 75.6814 95.7981 74.9756 95.7981 74.1077C95.7981 73.2397 95.092 72.5337 94.2244 72.5337C93.3564 72.5337 92.6504 73.2397 92.6504 74.1077C92.6504 74.9756 93.3564 75.6814 94.2244 75.6814ZM94.2244 73.4744C94.5735 73.4744 94.8574 73.7583 94.8574 74.1077C94.8574 74.4568 94.5735 74.7407 94.2244 74.7407C93.8752 74.7407 93.5911 74.4568 93.5911 74.1077C93.5911 73.7583 93.8752 73.4744 94.2244 73.4744Z" fill="black"/>
<path d="M91.2949 81.0933C90.9255 81.0933 90.5784 81.2371 90.3196 81.4956L89.0837 82.7139C87.9604 81.6672 86.5059 81.093 84.9626 81.093C83.3462 81.093 81.8269 81.7224 80.6848 82.8655C79.5417 84.0078 78.9121 85.5271 78.9121 87.1436C78.9121 90.48 81.6265 93.1943 84.9626 93.1943C86.5786 93.1943 88.0981 92.5649 89.2415 91.4221C90.384 90.2791 91.0134 88.7595 91.0134 87.1436C91.0134 86.425 90.8894 85.7256 90.6448 85.0598L92.2725 83.4531C92.8113 82.9141 92.8113 82.0371 92.2725 81.498C92.0112 81.2371 91.6641 81.0933 91.2949 81.0933V81.0933ZM91.6096 82.7861L89.7563 84.6155C89.7551 84.6167 89.7539 84.6177 89.7529 84.6187L88.6147 85.7424C88.4297 85.9248 88.428 86.2227 88.6104 86.4075C88.7927 86.5925 89.0906 86.5942 89.2754 86.4119L89.8938 85.8013C90.012 86.2358 90.0728 86.6848 90.0728 87.1436C90.0728 88.5083 89.5413 89.7917 88.5764 90.7571C87.6108 91.7222 86.3276 92.2537 84.9629 92.2537C82.145 92.2537 79.8528 89.9612 79.8528 87.1436C79.8528 85.7786 80.3845 84.4954 81.3499 83.5305C82.3147 82.5652 83.5977 82.0337 84.9629 82.0337C86.2522 82.0337 87.4685 82.5085 88.4131 83.375L85.2385 86.5039L84.2778 85.543C83.7388 85.0042 82.8618 85.0042 82.3225 85.5432C81.7837 86.0823 81.7837 86.9592 82.3225 87.4983L84.2585 89.4343C84.5198 89.6953 84.8667 89.8391 85.2361 89.8391C85.6055 89.8391 85.9526 89.6953 86.2117 89.4363L87.8232 87.8452C88.0083 87.6628 88.01 87.365 87.8276 87.1802C87.645 86.9951 87.3474 86.9934 87.1626 87.1758L85.5486 88.7688C85.4651 88.8523 85.3542 88.8984 85.2361 88.8984C85.1182 88.8984 85.0071 88.8523 84.9236 88.769L82.9878 86.833C82.8154 86.6606 82.8154 86.3804 82.9875 86.208C83.1599 86.0359 83.4404 86.0359 83.6125 86.208L84.9036 87.499C85.0864 87.6819 85.3823 87.6829 85.5662 87.5015L90.9824 82.1631C91.0659 82.0798 91.1768 82.0337 91.2949 82.0337C91.4128 82.0337 91.5237 82.0798 91.6072 82.1631C91.7795 82.3357 91.7795 82.616 91.6096 82.7861V82.7861Z" fill="black"/>
<path d="M90.3914 94.5864H79.5352C79.2754 94.5864 79.0649 94.7971 79.0649 95.0569C79.0649 95.3167 79.2754 95.5271 79.5352 95.5271H90.3914C90.6511 95.5271 90.8616 95.3167 90.8616 95.0569C90.8616 94.7971 90.6511 94.5864 90.3914 94.5864Z" fill="black"/>
<path d="M87.6128 96.7483H82.3137C82.054 96.7483 81.8433 96.959 81.8433 97.2188C81.8433 97.4785 82.054 97.689 82.3137 97.689H87.6128C87.8726 97.689 88.083 97.4785 88.083 97.2188C88.083 96.959 87.8726 96.7483 87.6128 96.7483Z" fill="black"/>
<path d="M12.6583 30.8004C12.5454 32.5516 11.1343 34.6585 12.8276 36.1361C14.2952 37.3948 16.1297 36.4645 17.7949 36.5739C19.6294 36.7108 18.8392 38.3525 18.6134 39.5565C18.444 40.4595 18.3594 41.4445 18.7827 42.3202C19.4601 43.6883 21.2946 44.5639 22.6493 43.5788C23.496 42.9495 22.6493 41.5266 21.8026 42.156C20.4197 43.1684 20.1374 40.7331 20.2785 39.9943C20.4197 39.2008 20.7019 38.4073 20.7301 37.5864C20.7583 36.4371 20.1374 35.5342 19.0367 35.1511C17.682 34.6859 16.4684 35.2058 15.1137 35.1784C12.6583 35.1237 14.2952 32.2232 14.3799 30.8004C14.4364 29.7332 12.743 29.7332 12.6583 30.8004V30.8004Z" fill="#FF9C07"/>
<path d="M22.8288 32.4192C22.1458 33.8921 21.4901 35.6377 22.5829 37.1105C22.9928 37.656 23.5392 37.9833 24.1949 38.0924C24.6321 38.147 25.2059 37.9561 25.5884 38.1197C26.2168 38.3652 26.572 39.1016 26.2714 39.7562C25.8069 40.7108 27.2277 41.5291 27.6922 40.5745C28.2659 39.3471 28.0474 37.9288 26.9545 37.0287C26.3534 36.5377 25.8069 36.5377 25.0693 36.4559C23.0747 36.265 23.6212 34.6012 24.2496 33.2647C24.6867 32.3101 23.266 31.4646 22.8288 32.4192V32.4192Z" fill="#FF9C07"/>
<path d="M167.67 60.8508C167.501 58.8474 170.026 57.7187 171.092 59.6092C171.99 61.2458 170.222 62.6849 168.68 62.1488C167.67 61.782 167.221 63.4186 168.231 63.7854C171.344 64.9141 174.29 61.3587 172.41 58.537C170.391 55.5177 165.706 57.2954 166.015 60.8508C166.071 61.9231 167.754 61.9513 167.67 60.8508V60.8508Z" fill="#4AD7B5"/>
<path fill-rule="evenodd" clip-rule="evenodd" d="M58.7302 141.39L55.4603 140.229L52.5714 142L52.7619 138.806L50 136.832L53.3968 136.019L54.6032 133L56.5079 135.729L60 135.845L57.7778 138.313L58.7302 141.39Z" stroke="#6FC7FF" stroke-width="1.2"/>
</svg>
