<svg width="140" height="36" viewBox="0 0 140 36" fill="none" xmlns="http://www.w3.org/2000/svg">
<path d="M40.632 26H43.728L44.448 16.472C44.52 15.344 44.472 13.808 44.472 13.808H44.52C44.52 13.808 45.048 15.488 45.456 16.472L48.192 23.072H50.904L53.664 16.472C54.072 15.488 54.576 13.832 54.576 13.832H54.624C54.624 13.832 54.576 15.344 54.648 16.472L55.368 26H58.44L57.072 8.96H53.76L50.424 17.384C50.04 18.392 49.584 19.88 49.584 19.88H49.536C49.536 19.88 49.056 18.392 48.672 17.384L45.336 8.96H42.024L40.632 26ZM60.6463 19.88C60.6463 23.36 63.1663 26.288 67.2223 26.288C70.2703 26.288 72.1423 24.536 72.1423 24.536L70.9663 22.352C70.9663 22.352 69.4063 23.696 67.4383 23.696C65.6143 23.696 63.9583 22.592 63.7663 20.456H72.2143C72.2143 20.456 72.2863 19.64 72.2863 19.28C72.2863 16.04 70.3903 13.472 66.8623 13.472C63.2143 13.472 60.6463 16.112 60.6463 19.88ZM63.8623 18.368C64.1503 16.784 65.2303 15.824 66.7903 15.824C68.1343 15.824 69.1663 16.712 69.2143 18.368H63.8623ZM75.0874 21.512C75.0874 25.616 78.4714 26.12 80.1754 26.12C80.7514 26.12 81.1114 26.048 81.1114 26.048V23.384C81.1114 23.384 80.8954 23.432 80.5594 23.432C79.7194 23.432 78.1354 23.144 78.1354 21.128V16.376H80.9194V13.952H78.1354V10.424H75.1594V13.952H73.5034V16.376H75.0874V21.512ZM83.3662 26H86.4142V21.152C86.4142 20.432 86.4862 19.76 86.6782 19.16C87.2542 17.336 88.7182 16.592 90.0142 16.592C90.4222 16.592 90.7342 16.64 90.7342 16.64V13.64C90.7342 13.64 90.4702 13.592 90.1822 13.592C88.3102 13.592 86.8462 14.984 86.2942 16.736H86.2462C86.2462 16.736 86.2942 16.328 86.2942 15.872V13.76H83.3662V26ZM91.6361 19.88C91.6361 23.648 94.6361 26.288 98.3801 26.288C102.1 26.288 105.1 23.648 105.1 19.88C105.1 16.136 102.1 13.472 98.3561 13.472C94.6361 13.472 91.6361 16.136 91.6361 19.88ZM94.7321 19.88C94.7321 17.624 96.3881 16.064 98.3801 16.064C100.348 16.064 102.004 17.624 102.004 19.88C102.004 22.16 100.348 23.696 98.3801 23.696C96.3881 23.696 94.7321 22.16 94.7321 19.88ZM107.308 26H110.356V20.384C110.356 19.808 110.404 19.256 110.572 18.752C111.028 17.288 112.228 16.256 113.86 16.256C115.42 16.256 115.804 17.264 115.804 18.752V26H118.828V18.128C118.828 14.888 117.292 13.472 114.58 13.472C112.108 13.472 110.764 14.984 110.236 16.016H110.188C110.188 16.016 110.236 15.632 110.236 15.176V13.76H107.308V26ZM121.787 11.672H124.811V8.96H121.787V11.672ZM121.787 26H124.835V13.76H121.787V26ZM127.057 19.88C127.057 23.432 129.649 26.288 133.705 26.288C136.993 26.288 138.745 24.296 138.745 24.296L137.569 22.136C137.569 22.136 136.033 23.696 133.969 23.696C131.641 23.696 130.153 21.92 130.153 19.856C130.153 17.768 131.617 16.064 133.873 16.064C135.793 16.064 137.065 17.384 137.065 17.384L138.409 15.296C138.409 15.296 136.897 13.472 133.705 13.472C129.649 13.472 127.057 16.4 127.057 19.88Z" fill="#181C32"/>
<g clip-path="url(#clip0_8670_2703)">
<path d="M24.009 7.09091L29.9838 25.6941C30.3095 26.7084 29.5529 27.746 28.4876 27.746H24.0941C23.4095 27.746 22.8036 27.3027 22.5964 26.6502L16.6896 8.04699C16.3678 7.03369 17.1241 6 18.1873 6H22.5128C23.1956 6 23.8002 6.44086 24.009 7.09091Z" fill="#50CD89"/>
<g filter="url(#filter0_i_8670_2703)">
<path d="M18.2871 20.85L14.074 7.35504C13.8224 6.54894 13.076 6 12.2315 6C11.2036 6 10.356 6.8055 10.3037 7.83205L9.78971 17.919C9.77148 18.2772 9.81469 18.636 9.9175 18.9796L12.2046 26.625C12.4036 27.2903 13.0157 27.746 13.7101 27.746H15.836C16.52 27.746 17.1254 27.3036 17.3332 26.652L18.2786 23.687C18.5726 22.7646 18.5756 21.7741 18.2871 20.85Z" fill="#ECECEC"/>
<path d="M18.2871 20.85L14.074 7.35504C13.8224 6.54894 13.076 6 12.2315 6C11.2036 6 10.356 6.8055 10.3037 7.83205L9.78971 17.919C9.77148 18.2772 9.81469 18.636 9.9175 18.9796L12.2046 26.625C12.4036 27.2903 13.0157 27.746 13.7101 27.746H15.836C16.52 27.746 17.1254 27.3036 17.3332 26.652L18.2786 23.687C18.5726 22.7646 18.5756 21.7741 18.2871 20.85Z" fill="url(#paint0_linear_8670_2703)"/>
</g>
<path d="M7.98159 6H12.3088C13.3684 6 14.1243 7.02728 13.809 8.03891L7.96293 26.8008C7.75833 27.4575 7.15046 27.9048 6.46265 27.9048H2.13551C1.0759 27.9048 0.320005 26.8775 0.635224 25.8658L6.48131 7.10395C6.68595 6.44729 7.29381 6 7.98159 6Z" fill="#50CD89"/>
</g>
<defs>
<filter id="filter0_i_8670_2703" x="5.78564" y="6" width="12.7158" height="24.746" filterUnits="userSpaceOnUse" color-interpolation-filters="sRGB">
<feFlood flood-opacity="0" result="BackgroundImageFix"/>
<feBlend mode="normal" in="SourceGraphic" in2="BackgroundImageFix" result="shape"/>
<feColorMatrix in="SourceAlpha" type="matrix" values="0 0 0 0 0 0 0 0 0 0 0 0 0 0 0 0 0 0 127 0" result="hardAlpha"/>
<feOffset dx="-4" dy="3"/>
<feGaussianBlur stdDeviation="2"/>
<feComposite in2="hardAlpha" operator="arithmetic" k2="-1" k3="1"/>
<feColorMatrix type="matrix" values="0 0 0 0 0.904167 0 0 0 0 0.892865 0 0 0 0 0.892865 0 0 0 0.4 0"/>
<feBlend mode="normal" in2="shape" result="effect1_innerShadow_8670_2703"/>
</filter>
<linearGradient id="paint0_linear_8670_2703" x1="11.3931" y1="15.625" x2="15.9109" y2="16.8036" gradientUnits="userSpaceOnUse">
<stop stop-opacity="0.25"/>
<stop offset="0.911458" stop-color="white" stop-opacity="0"/>
</linearGradient>
<clipPath id="clip0_8670_2703">
<rect width="30.6429" height="22" fill="white" transform="translate(0 6)"/>
</clipPath>
</defs>
</svg>
