<svg width="131" height="36" viewBox="0 0 131 36" fill="none" xmlns="http://www.w3.org/2000/svg">
<path d="M40.496 25H43.334L43.994 16.266C44.06 15.232 44.016 13.824 44.016 13.824H44.06C44.06 13.824 44.544 15.364 44.918 16.266L47.426 22.316H49.912L52.442 16.266C52.816 15.364 53.278 13.846 53.278 13.846H53.322C53.322 13.846 53.278 15.232 53.344 16.266L54.004 25H56.82L55.566 9.38H52.53L49.472 17.102C49.12 18.026 48.702 19.39 48.702 19.39H48.658C48.658 19.39 48.218 18.026 47.866 17.102L44.808 9.38H41.772L40.496 25ZM58.8425 19.39C58.8425 22.58 61.1525 25.264 64.8705 25.264C67.6645 25.264 69.3805 23.658 69.3805 23.658L68.3025 21.656C68.3025 21.656 66.8725 22.888 65.0685 22.888C63.3965 22.888 61.8785 21.876 61.7025 19.918H69.4465C69.4465 19.918 69.5125 19.17 69.5125 18.84C69.5125 15.87 67.7745 13.516 64.5405 13.516C61.1965 13.516 58.8425 15.936 58.8425 19.39ZM61.7905 18.004C62.0545 16.552 63.0445 15.672 64.4745 15.672C65.7065 15.672 66.6525 16.486 66.6965 18.004H61.7905ZM72.0801 20.886C72.0801 24.648 75.1821 25.11 76.7441 25.11C77.2721 25.11 77.6021 25.044 77.6021 25.044V22.602C77.6021 22.602 77.4041 22.646 77.0961 22.646C76.3261 22.646 74.8741 22.382 74.8741 20.534V16.178H77.4261V13.956H74.8741V10.722H72.1461V13.956H70.6281V16.178H72.0801V20.886ZM79.6691 25H82.4631V20.556C82.4631 19.896 82.5291 19.28 82.7051 18.73C83.2331 17.058 84.5751 16.376 85.7631 16.376C86.1371 16.376 86.4231 16.42 86.4231 16.42V13.67C86.4231 13.67 86.1811 13.626 85.9171 13.626C84.2011 13.626 82.8591 14.902 82.3531 16.508H82.3091C82.3091 16.508 82.3531 16.134 82.3531 15.716V13.78H79.6691V25ZM87.2498 19.39C87.2498 22.844 89.9998 25.264 93.4318 25.264C96.8418 25.264 99.5918 22.844 99.5918 19.39C99.5918 15.958 96.8418 13.516 93.4098 13.516C89.9998 13.516 87.2498 15.958 87.2498 19.39ZM90.0878 19.39C90.0878 17.322 91.6058 15.892 93.4318 15.892C95.2358 15.892 96.7538 17.322 96.7538 19.39C96.7538 21.48 95.2358 22.888 93.4318 22.888C91.6058 22.888 90.0878 21.48 90.0878 19.39ZM101.616 25H104.41V19.852C104.41 19.324 104.454 18.818 104.608 18.356C105.026 17.014 106.126 16.068 107.622 16.068C109.052 16.068 109.404 16.992 109.404 18.356V25H112.176V17.784C112.176 14.814 110.768 13.516 108.282 13.516C106.016 13.516 104.784 14.902 104.3 15.848H104.256C104.256 15.848 104.3 15.496 104.3 15.078V13.78H101.616V25ZM114.888 11.866H117.66V9.38H114.888V11.866ZM114.888 25H117.682V13.78H114.888V25ZM119.719 19.39C119.719 22.646 122.095 25.264 125.813 25.264C128.827 25.264 130.433 23.438 130.433 23.438L129.355 21.458C129.355 21.458 127.947 22.888 126.055 22.888C123.921 22.888 122.557 21.26 122.557 19.368C122.557 17.454 123.899 15.892 125.967 15.892C127.727 15.892 128.893 17.102 128.893 17.102L130.125 15.188C130.125 15.188 128.739 13.516 125.813 13.516C122.095 13.516 119.719 16.2 119.719 19.39Z" fill="black"/>
<g clip-path="url(#clip0_9269_2885)">
<path d="M24.009 7.09091L29.9838 25.6941C30.3095 26.7084 29.5529 27.746 28.4876 27.746H24.0941C23.4095 27.746 22.8036 27.3027 22.5964 26.6502L16.6896 8.04699C16.3678 7.03369 17.1241 6 18.1873 6H22.5128C23.1956 6 23.8002 6.44086 24.009 7.09091Z" fill="#F1416C"/>
<g filter="url(#filter0_i_9269_2885)">
<path d="M18.2871 20.85L14.074 7.35504C13.8224 6.54894 13.076 6 12.2315 6C11.2036 6 10.356 6.8055 10.3037 7.83205L9.78971 17.919C9.77148 18.2772 9.81469 18.636 9.9175 18.9796L12.2046 26.625C12.4036 27.2903 13.0157 27.746 13.7101 27.746H15.836C16.52 27.746 17.1254 27.3036 17.3332 26.652L18.2786 23.687C18.5726 22.7646 18.5756 21.7741 18.2871 20.85Z" fill="#ECECEC"/>
<path d="M18.2871 20.85L14.074 7.35504C13.8224 6.54894 13.076 6 12.2315 6C11.2036 6 10.356 6.8055 10.3037 7.83205L9.78971 17.919C9.77148 18.2772 9.81469 18.636 9.9175 18.9796L12.2046 26.625C12.4036 27.2903 13.0157 27.746 13.7101 27.746H15.836C16.52 27.746 17.1254 27.3036 17.3332 26.652L18.2786 23.687C18.5726 22.7646 18.5756 21.7741 18.2871 20.85Z" fill="url(#paint0_linear_9269_2885)"/>
</g>
<path d="M7.98159 6H12.3088C13.3684 6 14.1243 7.02728 13.809 8.03891L7.96293 26.8008C7.75833 27.4575 7.15046 27.9048 6.46265 27.9048H2.13551C1.0759 27.9048 0.320005 26.8775 0.635224 25.8658L6.48131 7.10395C6.68595 6.44729 7.29381 6 7.98159 6Z" fill="#F1416C"/>
</g>
<defs>
<filter id="filter0_i_9269_2885" x="5.78564" y="6" width="12.7158" height="24.7461" filterUnits="userSpaceOnUse" color-interpolation-filters="sRGB">
<feFlood flood-opacity="0" result="BackgroundImageFix"/>
<feBlend mode="normal" in="SourceGraphic" in2="BackgroundImageFix" result="shape"/>
<feColorMatrix in="SourceAlpha" type="matrix" values="0 0 0 0 0 0 0 0 0 0 0 0 0 0 0 0 0 0 127 0" result="hardAlpha"/>
<feOffset dx="-4" dy="3"/>
<feGaussianBlur stdDeviation="2"/>
<feComposite in2="hardAlpha" operator="arithmetic" k2="-1" k3="1"/>
<feColorMatrix type="matrix" values="0 0 0 0 0.904167 0 0 0 0 0.892865 0 0 0 0 0.892865 0 0 0 0.4 0"/>
<feBlend mode="normal" in2="shape" result="effect1_innerShadow_9269_2885"/>
</filter>
<linearGradient id="paint0_linear_9269_2885" x1="11.3931" y1="15.625" x2="15.9109" y2="16.8036" gradientUnits="userSpaceOnUse">
<stop stop-opacity="0.25"/>
<stop offset="0.911458" stop-color="white" stop-opacity="0"/>
</linearGradient>
<clipPath id="clip0_9269_2885">
<rect width="30.6429" height="22" fill="white" transform="translate(0 6)"/>
</clipPath>
</defs>
</svg>
