<svg width="24" height="24" viewBox="0 0 24 24" fill="none" xmlns="http://www.w3.org/2000/svg">
<path opacity="0.3" d="M21.6 11.2L19.3 8.89998V5.59993C19.3 4.99993 18.9 4.59993 18.3 4.59993H14.9L12.6 2.3C12.2 1.9 11.6 1.9 11.2 2.3L8.9 4.59993H5.6C5 4.59993 4.6 4.99993 4.6 5.59993V8.89998L2.3 11.2C1.9 11.6 1.9 12.1999 2.3 12.5999L4.6 14.9V18.2C4.6 18.8 5 19.2 5.6 19.2H8.9L11.2 21.5C11.6 21.9 12.2 21.9 12.6 21.5L14.9 19.2H18.2C18.8 19.2 19.2 18.8 19.2 18.2V14.9L21.5 12.5999C22 12.1999 22 11.6 21.6 11.2Z" fill="currentColor"/>
<path d="M11.3 9.40002C11.3 10.2 11.1 10.9 10.7 11.3C10.3 11.7 9.8 11.9 9.2 11.9C8.8 11.9 8.40001 11.8 8.10001 11.6C7.80001 11.4 7.50001 11.2 7.40001 10.8C7.20001 10.4 7.10001 10 7.10001 9.40002C7.10001 8.80002 7.20001 8.4 7.30001 8C7.40001 7.6 7.7 7.29998 8 7.09998C8.3 6.89998 8.7 6.80005 9.2 6.80005C9.5 6.80005 9.80001 6.9 10.1 7C10.4 7.1 10.6 7.3 10.8 7.5C11 7.7 11.1 8.00005 11.2 8.30005C11.3 8.60005 11.3 9.00002 11.3 9.40002ZM10.1 9.40002C10.1 8.80002 10 8.39998 9.90001 8.09998C9.80001 7.79998 9.6 7.70007 9.2 7.70007C9 7.70007 8.8 7.80002 8.7 7.90002C8.6 8.00002 8.50001 8.2 8.40001 8.5C8.40001 8.7 8.30001 9.10002 8.30001 9.40002C8.30001 9.80002 8.30001 10.1 8.40001 10.4C8.40001 10.6 8.5 10.8 8.7 11C8.8 11.1 9 11.2001 9.2 11.2001C9.5 11.2001 9.70001 11.1 9.90001 10.8C10 10.4 10.1 10 10.1 9.40002ZM14.9 7.80005L9.40001 16.7001C9.30001 16.9001 9.10001 17.1 8.90001 17.1C8.80001 17.1 8.70001 17.1 8.60001 17C8.50001 16.9 8.40001 16.8001 8.40001 16.7001C8.40001 16.6001 8.4 16.5 8.5 16.4L14 7.5C14.1 7.3 14.2 7.19998 14.3 7.09998C14.4 6.99998 14.5 7 14.6 7C14.7 7 14.8 6.99998 14.9 7.09998C15 7.19998 15 7.30002 15 7.40002C15.2 7.30002 15.1 7.50005 14.9 7.80005ZM16.6 14.2001C16.6 15.0001 16.4 15.7 16 16.1C15.6 16.5 15.1 16.7001 14.5 16.7001C14.1 16.7001 13.7 16.6 13.4 16.4C13.1 16.2 12.8 16 12.7 15.6C12.5 15.2 12.4 14.8001 12.4 14.2001C12.4 13.3001 12.6 12.7 12.9 12.3C13.2 11.9 13.7 11.7001 14.5 11.7001C14.8 11.7001 15.1 11.8 15.4 11.9C15.7 12 15.9 12.2 16.1 12.4C16.3 12.6 16.4 12.9001 16.5 13.2001C16.6 13.4001 16.6 13.8001 16.6 14.2001ZM15.4 14.1C15.4 13.5 15.3 13.1 15.2 12.9C15.1 12.6 14.9 12.5 14.5 12.5C14.3 12.5 14.1 12.6001 14 12.7001C13.9 12.8001 13.8 13.0001 13.7 13.2001C13.6 13.4001 13.6 13.8 13.6 14.1C13.6 14.7 13.7 15.1 13.8 15.4C13.9 15.7 14.1 15.8 14.5 15.8C14.8 15.8 15 15.7 15.2 15.4C15.3 15.2 15.4 14.7 15.4 14.1Z" fill="currentColor"/>
</svg>
