<svg width="24" height="24" viewBox="0 0 24 24" fill="none" xmlns="http://www.w3.org/2000/svg">
<path d="M20 8H16C15.4 8 15 8.4 15 9V16H10V17C10 17.6 10.4 18 11 18H16C16 16.9 16.9 16 18 16C19.1 16 20 16.9 20 18H21C21.6 18 22 17.6 22 17V13L20 8Z" fill="currentColor"/>
<path opacity="0.3" d="M20 18C20 19.1 19.1 20 18 20C16.9 20 16 19.1 16 18C16 16.9 16.9 16 18 16C19.1 16 20 16.9 20 18ZM15 4C15 3.4 14.6 3 14 3H3C2.4 3 2 3.4 2 4V13C2 13.6 2.4 14 3 14H15V4ZM6 16C4.9 16 4 16.9 4 18C4 19.1 4.9 20 6 20C7.1 20 8 19.1 8 18C8 16.9 7.1 16 6 16Z" fill="currentColor"/>
</svg>
