<svg width="24" height="24" viewBox="0 0 24 24" fill="none" xmlns="http://www.w3.org/2000/svg">
<path d="M21 9V11C21 11.6 20.6 12 20 12H14V8H20C20.6 8 21 8.4 21 9ZM10 8H4C3.4 8 3 8.4 3 9V11C3 11.6 3.4 12 4 12H10V8Z" fill="currentColor"/>
<path d="M15 2C13.3 2 12 3.3 12 5V8H15C16.7 8 18 6.7 18 5C18 3.3 16.7 2 15 2Z" fill="currentColor"/>
<path opacity="0.3" d="M9 2C10.7 2 12 3.3 12 5V8H9C7.3 8 6 6.7 6 5C6 3.3 7.3 2 9 2ZM4 12V21C4 21.6 4.4 22 5 22H10V12H4ZM20 12V21C20 21.6 19.6 22 19 22H14V12H20Z" fill="currentColor"/>
</svg>
