<svg width="24" height="24" viewBox="0 0 24 24" fill="none" xmlns="http://www.w3.org/2000/svg">
<path d="M6.8 15.8C7.3 15.7 7.9 16 8 16.5C8.2 17.4 8.99999 18 9.89999 18H17.9C19 18 19.9 17.1 19.9 16V8C19.9 6.9 19 6 17.9 6H9.89999C8.79999 6 7.89999 6.9 7.89999 8V9.4H5.89999V8C5.89999 5.8 7.69999 4 9.89999 4H17.9C20.1 4 21.9 5.8 21.9 8V16C21.9 18.2 20.1 20 17.9 20H9.89999C8.09999 20 6.5 18.8 6 17.1C6 16.5 6.3 16 6.8 15.8Z" fill="currentColor"/>
<path opacity="0.3" d="M12 9.39999H2L6.3 13.7C6.7 14.1 7.3 14.1 7.7 13.7L12 9.39999Z" fill="currentColor"/>
</svg>
