<svg width="24" height="24" viewBox="0 0 24 24" fill="none" xmlns="http://www.w3.org/2000/svg">
<path opacity="0.3" d="M11 13H7C6.4 13 6 12.6 6 12C6 11.4 6.4 11 7 11H11V13ZM17 11H13V13H17C17.6 13 18 12.6 18 12C18 11.4 17.6 11 17 11Z" fill="currentColor"/>
<path d="M21 22H3C2.4 22 2 21.6 2 21V3C2 2.4 2.4 2 3 2H21C21.6 2 22 2.4 22 3V21C22 21.6 21.6 22 21 22ZM17 11H13V7C13 6.4 12.6 6 12 6C11.4 6 11 6.4 11 7V11H7C6.4 11 6 11.4 6 12C6 12.6 6.4 13 7 13H11V17C11 17.6 11.4 18 12 18C12.6 18 13 17.6 13 17V13H17C17.6 13 18 12.6 18 12C18 11.4 17.6 11 17 11Z" fill="currentColor"/>
</svg>
