<svg width="24" height="24" viewBox="0 0 24 24" fill="none" xmlns="http://www.w3.org/2000/svg">
<path opacity="0.3" d="M12 10.6L14.8 7.8C15.2 7.4 15.8 7.4 16.2 7.8C16.6 8.2 16.6 8.80002 16.2 9.20002L13.4 12L12 10.6ZM10.6 12L7.8 14.8C7.4 15.2 7.4 15.8 7.8 16.2C8 16.4 8.3 16.5 8.5 16.5C8.7 16.5 8.99999 16.4 9.19999 16.2L12 13.4L10.6 12Z" fill="currentColor"/>
<path d="M22 12C22 17.5 17.5 22 12 22C6.5 22 2 17.5 2 12C2 6.5 6.5 2 12 2C17.5 2 22 6.5 22 12ZM13.4 12L16.2 9.20001C16.6 8.80001 16.6 8.19999 16.2 7.79999C15.8 7.39999 15.2 7.39999 14.8 7.79999L12 10.6L9.2 7.79999C8.8 7.39999 8.2 7.39999 7.8 7.79999C7.4 8.19999 7.4 8.80001 7.8 9.20001L10.6 12L7.8 14.8C7.4 15.2 7.4 15.8 7.8 16.2C8 16.4 8.3 16.5 8.5 16.5C8.7 16.5 9 16.4 9.2 16.2L12 13.4L14.8 16.2C15 16.4 15.3 16.5 15.5 16.5C15.7 16.5 16 16.4 16.2 16.2C16.6 15.8 16.6 15.2 16.2 14.8L13.4 12Z" fill="currentColor"/>
</svg>
