<svg width="24" height="24" viewBox="0 0 24 24" fill="none" xmlns="http://www.w3.org/2000/svg">
<rect opacity="0.3" x="8.5" y="11" width="12" height="2" rx="1" fill="currentColor"/>
<path d="M10.3687 11.6927L12.1244 10.2297C12.5946 9.83785 12.6268 9.12683 12.194 8.69401C11.8043 8.3043 11.1784 8.28591 10.7664 8.65206L7.84084 11.2526C7.39332 11.6504 7.39332 12.3496 7.84084 12.7474L10.7664 15.3479C11.1784 15.7141 11.8043 15.6957 12.194 15.306C12.6268 14.8732 12.5946 14.1621 12.1244 13.7703L10.3687 12.3073C10.1768 12.1474 10.1768 11.8526 10.3687 11.6927Z" fill="currentColor"/>
<path opacity="0.5" d="M16 5V6C16 6.55228 15.5523 7 15 7C14.4477 7 14 6.55228 14 6C14 5.44772 13.5523 5 13 5H6C5.44771 5 5 5.44772 5 6V18C5 18.5523 5.44771 19 6 19H13C13.5523 19 14 18.5523 14 18C14 17.4477 14.4477 17 15 17C15.5523 17 16 17.4477 16 18V19C16 20.1046 15.1046 21 14 21H5C3.89543 21 3 20.1046 3 19V5C3 3.89543 3.89543 3 5 3H14C15.1046 3 16 3.89543 16 5Z" fill="currentColor"/>
</svg>
