<svg width="24" height="24" viewBox="0 0 24 24" fill="none" xmlns="http://www.w3.org/2000/svg">
<path d="M18.4 18H16C15.7 18 15.5 17.9 15.3 17.7L12.5 14.9C12.1 14.5 12.1 13.9 12.5 13.5C12.9 13.1 13.5 13.1 13.9 13.5L16.4 16H18.4V18ZM16 6C15.7 6 15.5 6.09999 15.3 6.29999L11 10.6L6.70001 6.29999C6.50001 6.09999 6.3 6 6 6H3C2.4 6 2 6.4 2 7C2 7.6 2.4 8 3 8H5.60001L9.60001 12L5.60001 16H3C2.4 16 2 16.4 2 17C2 17.6 2.4 18 3 18H6C6.3 18 6.50001 17.9 6.70001 17.7L16.4 8H18.4V6H16Z" fill="currentColor"/>
<path opacity="0.3" d="M21.7 6.29999C22.1 6.69999 22.1 7.30001 21.7 7.70001L18.4 11V3L21.7 6.29999ZM18.4 13V21L21.7 17.7C22.1 17.3 22.1 16.7 21.7 16.3L18.4 13Z" fill="currentColor"/>
</svg>
