<svg width="24" height="24" viewBox="0 0 24 24" fill="none" xmlns="http://www.w3.org/2000/svg">
<path opacity="0.5" d="M11.4343 14.3657L7.25 18.55C6.83579 18.9643 6.16421 18.9643 5.75 18.55C5.33579 18.1358 5.33579 17.4643 5.75 17.05L11.2929 11.5072C11.6834 11.1166 12.3166 11.1166 12.7071 11.5072L18.25 17.05C18.6642 17.4643 18.6642 18.1358 18.25 18.55C17.8358 18.9643 17.1642 18.9643 16.75 18.55L12.5657 14.3657C12.2533 14.0533 11.7467 14.0533 11.4343 14.3657Z" fill="currentColor"/>
<path d="M11.4343 8.36573L7.25 12.55C6.83579 12.9643 6.16421 12.9643 5.75 12.55C5.33579 12.1358 5.33579 11.4643 5.75 11.05L11.2929 5.50716C11.6834 5.11663 12.3166 5.11663 12.7071 5.50715L18.25 11.05C18.6642 11.4643 18.6642 12.1358 18.25 12.55C17.8358 12.9643 17.1642 12.9643 16.75 12.55L12.5657 8.36573C12.2533 8.05331 11.7467 8.05332 11.4343 8.36573Z" fill="currentColor"/>
</svg>
