<svg width="24" height="24" viewBox="0 0 24 24" fill="none" xmlns="http://www.w3.org/2000/svg">
<path d="M17.1 15.8C16.6 15.7 16 16 15.9 16.5C15.7 17.4 14.9 18 14 18H6C4.9 18 4 17.1 4 16V8C4 6.9 4.9 6 6 6H14C15.1 6 16 6.9 16 8V9.4H18V8C18 5.8 16.2 4 14 4H6C3.8 4 2 5.8 2 8V16C2 18.2 3.8 20 6 20H14C15.8 20 17.4 18.8 17.9 17.1C17.9 16.5 17.6 16 17.1 15.8Z" fill="currentColor"/>
<path opacity="0.3" d="M11.9 9.39999H21.9L17.6 13.7C17.2 14.1 16.6 14.1 16.2 13.7L11.9 9.39999Z" fill="currentColor"/>
</svg>
