<svg width="24" height="24" viewBox="0 0 24 24" fill="none" xmlns="http://www.w3.org/2000/svg">
<path opacity="0.3" d="M10.3 14.3L11 13.6L7.70002 10.3C7.30002 9.9 6.7 9.9 6.3 10.3C5.9 10.7 5.9 11.3 6.3 11.7L10.3 15.7C9.9 15.3 9.9 14.7 10.3 14.3Z" fill="currentColor"/>
<path d="M21 22H3C2.4 22 2 21.6 2 21V3C2 2.4 2.4 2 3 2H21C21.6 2 22 2.4 22 3V21C22 21.6 21.6 22 21 22ZM11.7 15.7L17.7 9.70001C18.1 9.30001 18.1 8.69999 17.7 8.29999C17.3 7.89999 16.7 7.89999 16.3 8.29999L11 13.6L7.70001 10.3C7.30001 9.89999 6.69999 9.89999 6.29999 10.3C5.89999 10.7 5.89999 11.3 6.29999 11.7L10.3 15.7C10.5 15.9 10.8 16 11 16C11.2 16 11.5 15.9 11.7 15.7Z" fill="currentColor"/>
</svg>
