<svg width="24" height="24" viewBox="0 0 24 24" fill="none" xmlns="http://www.w3.org/2000/svg">
<path opacity="0.3" d="M12.025 4.725C9.725 2.425 6.025 2.425 3.725 4.725C1.425 7.025 1.425 10.725 3.725 13.025L11.325 20.625C11.725 21.025 12.325 21.025 12.725 20.625L20.325 13.025C22.625 10.725 22.625 7.025 20.325 4.725C18.025 2.425 14.325 2.425 12.025 4.725Z" fill="currentColor"/>
<path d="M14.025 17.125H13.925C13.525 17.025 13.125 16.725 13.025 16.325L11.925 11.125L11.025 14.325C10.925 14.725 10.625 15.025 10.225 15.025C9.825 15.125 9.425 14.925 9.225 14.625L7.725 12.325L6.525 12.925C6.425 13.025 6.225 13.025 6.125 13.025H3.125C2.525 13.025 2.125 12.625 2.125 12.025C2.125 11.425 2.525 11.025 3.125 11.025H5.925L7.725 10.125C8.225 9.925 8.725 10.025 9.025 10.425L9.825 11.625L11.225 6.72498C11.325 6.32498 11.725 6.02502 12.225 6.02502C12.725 6.02502 13.025 6.32495 13.125 6.82495L14.525 13.025L15.225 11.525C15.425 11.225 15.725 10.925 16.125 10.925H21.125C21.725 10.925 22.125 11.325 22.125 11.925C22.125 12.525 21.725 12.925 21.125 12.925H16.725L15.025 16.325C14.725 16.925 14.425 17.125 14.025 17.125Z" fill="currentColor"/>
</svg>
