<svg width="296" height="193" viewBox="0 0 296 193" fill="none" xmlns="http://www.w3.org/2000/svg">
<path d="M425.654 6.46167L294.536 193.706L238.408 6.46167H425.654Z" fill="url(#paint0_linear_3209_966)"/>
<path d="M163.76 113.04L86.0656 122.881L8.34619 132.687L64.8196 52.0242L163.76 113.04Z" fill="url(#paint1_linear_3209_966)"/>
<path d="M294.536 193.706H107.29L64.8196 52.0242L163.76 113.04L294.536 193.706Z" fill="url(#paint2_linear_3209_966)"/>
<path d="M294.536 193.706H107.29L238.408 6.46167L294.536 193.706Z" fill="url(#paint3_linear_3209_966)"/>
<path d="M64.8196 52.0242L86.0488 122.881L82.1462 123.173L64.8196 52.0242Z" fill="#15468D"/>
<path d="M107.29 193.706L163.76 113.057L160.438 110.987L107.29 193.706Z" fill="#15468D"/>
<path d="M294.536 193.706L244.559 6.46167H238.408L294.536 193.706Z" fill="#4DBCED"/>
<defs>
<linearGradient id="paint0_linear_3209_966" x1="251.035" y1="100.087" x2="433.766" y2="100.087" gradientUnits="userSpaceOnUse">
<stop stop-color="#329FD9"/>
<stop offset="1" stop-color="#15468D"/>
</linearGradient>
<linearGradient id="paint1_linear_3209_966" x1="59.6425" y1="157.467" x2="131.861" y2="58.4415" gradientUnits="userSpaceOnUse">
<stop stop-color="#329FD9"/>
<stop offset="1" stop-color="#15468D"/>
</linearGradient>
<linearGradient id="paint2_linear_3209_966" x1="41.2901" y1="92.4504" x2="165.479" y2="171.23" gradientUnits="userSpaceOnUse">
<stop stop-color="#329FD9"/>
<stop offset="1" stop-color="#15468D"/>
</linearGradient>
<linearGradient id="paint3_linear_3209_966" x1="200.909" y1="192.579" x2="200.909" y2="6.55882" gradientUnits="userSpaceOnUse">
<stop stop-color="#329FD9"/>
<stop offset="1" stop-color="#15468D"/>
</linearGradient>
</defs>
</svg>
