<svg width="24" height="24" viewBox="0 0 24 24" fill="none" xmlns="http://www.w3.org/2000/svg">
<path opacity="0.3" d="M14 10V20C14 20.6 13.6 21 13 21H10C9.4 21 9 20.6 9 20V10C9 9.4 9.4 9 10 9H13C13.6 9 14 9.4 14 10ZM20 9H17C16.4 9 16 9.4 16 10V20C16 20.6 16.4 21 17 21H20C20.6 21 21 20.6 21 20V10C21 9.4 20.6 9 20 9Z" fill="currentColor"/>
<path d="M7 10V20C7 20.6 6.6 21 6 21H3C2.4 21 2 20.6 2 20V10C2 9.4 2.4 9 3 9H6C6.6 9 7 9.4 7 10ZM21 6V3C21 2.4 20.6 2 20 2H3C2.4 2 2 2.4 2 3V6C2 6.6 2.4 7 3 7H20C20.6 7 21 6.6 21 6Z" fill="currentColor"/>
</svg>
