<svg width="24" height="24" viewBox="0 0 24 24" fill="none" xmlns="http://www.w3.org/2000/svg">
<path opacity="0.3" d="M20 14H11C10.4 14 10 13.6 10 13V10C10 9.4 10.4 9 11 9H20C20.6 9 21 9.4 21 10V13C21 13.6 20.6 14 20 14ZM21 20V17C21 16.4 20.6 16 20 16H11C10.4 16 10 16.4 10 17V20C10 20.6 10.4 21 11 21H20C20.6 21 21 20.6 21 20Z" fill="currentColor"/>
<path d="M20 7H3C2.4 7 2 6.6 2 6V3C2 2.4 2.4 2 3 2H20C20.6 2 21 2.4 21 3V6C21 6.6 20.6 7 20 7ZM7 9H3C2.4 9 2 9.4 2 10V20C2 20.6 2.4 21 3 21H7C7.6 21 8 20.6 8 20V10C8 9.4 7.6 9 7 9Z" fill="currentColor"/>
</svg>
