<svg width="24" height="24" viewBox="0 0 24 24" fill="none" xmlns="http://www.w3.org/2000/svg">
<path d="M3 7.19995H10C10.6 7.19995 11 6.79995 11 6.19995V3.19995C11 2.59995 10.6 2.19995 10 2.19995H3C2.4 2.19995 2 2.59995 2 3.19995V6.19995C2 6.69995 2.4 7.19995 3 7.19995Z" fill="currentColor"/>
<path opacity="0.3" d="M10.1 22H3.10001C2.50001 22 2.10001 21.6 2.10001 21V10C2.10001 9.4 2.50001 9 3.10001 9H10.1C10.7 9 11.1 9.4 11.1 9V20C11.1 21.6 10.7 22 10.1 22ZM13.1 18V21C13.1 21.6 13.5 22 14.1 22H21.1C21.7 22 22.1 21.6 22.1 21V18C22.1 17.4 21.7 17 21.1 17H14.1C13.5 17 13.1 17.4 13.1 18ZM21.1 2H14.1C13.5 2 13.1 2.4 13.1 3V14C13.1 14.6 13.5 15 14.1 15H21.1C21.7 15 22.1 14.6 22.1 14V3C22.1 2.4 21.7 2 21.1 2Z" fill="currentColor"/>
</svg>
