<svg width="184" height="64" viewBox="0 0 184 64" fill="none" xmlns="http://www.w3.org/2000/svg">
<path d="M0 50.1274V44.4782L14.9502 22.8827H1.65315V14.6592H28.1036V20.2369L13.1533 41.9039H28.6067V50.1274H0Z" fill="#5048ED"/>
<path d="M48.5441 50.9855C46.0045 50.9855 43.6326 50.5803 41.4284 49.7698C39.2242 48.9117 37.3075 47.6961 35.6783 46.1229C34.0491 44.502 32.7793 42.5475 31.8688 40.2592C30.9584 37.971 30.5032 35.349 30.5032 32.3933C30.5032 29.533 30.9824 26.9587 31.9407 24.6704C32.8991 22.3345 34.1449 20.3799 35.6783 18.8067C37.2596 17.1858 39.0565 15.9464 41.069 15.0883C43.0815 14.2302 45.1659 13.8011 47.3222 13.8011C49.8618 13.8011 52.066 14.2302 53.9348 15.0883C55.8515 15.9464 57.4328 17.1382 58.6786 18.6637C59.9724 20.1892 60.9308 22.0007 61.5537 24.0983C62.1766 26.1482 62.4881 28.3888 62.4881 30.8201C62.4881 31.7736 62.4402 32.6793 62.3443 33.5374C62.2485 34.3955 62.1527 35.0391 62.0568 35.4682H40.7096C41.1888 38.0425 42.243 39.9493 43.8722 41.1888C45.5493 42.3806 47.5858 42.9765 49.9816 42.9765C52.5213 42.9765 55.0848 42.1899 57.6724 40.6168L61.1943 46.981C59.3734 48.2205 57.337 49.1978 55.0848 49.9129C52.8806 50.6279 50.7004 50.9855 48.5441 50.9855ZM40.6377 28.5318H53.5036C53.5036 26.5296 53.0483 24.9088 52.1379 23.6693C51.2275 22.4298 49.6941 21.8101 47.5378 21.8101C45.8607 21.8101 44.3753 22.3583 43.0815 23.4548C41.8357 24.5512 41.0211 26.2436 40.6377 28.5318Z" fill="#5048ED"/>
<path d="M77.7811 50.9855C75.9602 50.9855 74.4268 50.6994 73.181 50.1274C71.9351 49.5553 70.9289 48.7687 70.1622 47.7676C69.4434 46.7188 68.9163 45.4793 68.5809 44.0492C68.2455 42.5713 68.0778 40.9266 68.0778 39.1151V0H78.6436V39.5441C78.6436 40.6406 78.8352 41.4034 79.2186 41.8324C79.6498 42.2615 80.0811 42.476 80.5123 42.476C80.7519 42.476 80.9436 42.476 81.0874 42.476C81.279 42.476 81.5186 42.4283 81.8061 42.333L83.0999 50.1274C82.5249 50.3657 81.7822 50.5564 80.8717 50.6994C80.0092 50.8901 78.979 50.9855 77.7811 50.9855Z" fill="#5048ED"/>
<path d="M100.661 50.9855C98.4567 50.9855 96.564 50.6518 94.9827 49.9844C93.4493 49.3169 92.1795 48.3873 91.1732 47.1955C90.2149 46.0037 89.4961 44.5736 89.017 42.905C88.5857 41.1888 88.3701 39.3058 88.3701 37.2559V22.8827H83.4825V15.0883L88.9451 14.6592L90.167 5.22011H98.9359V14.6592H107.489V22.8827H98.9359V37.1129C98.9359 39.1151 99.3432 40.5691 100.158 41.4749C101.02 42.333 102.146 42.762 103.536 42.762C104.111 42.762 104.686 42.6905 105.261 42.5475C105.884 42.4045 106.435 42.2376 106.914 42.0469L108.567 49.6983C107.609 49.9844 106.483 50.2704 105.189 50.5564C103.895 50.8425 102.386 50.9855 100.661 50.9855Z" fill="#5048ED"/>
<path d="M112.736 50.1274V0H123.302V12.2994L122.799 18.6637C124.141 17.4719 125.698 16.3754 127.471 15.3743C129.244 14.3255 131.352 13.8011 133.796 13.8011C137.677 13.8011 140.48 15.0644 142.206 17.5911C143.978 20.1177 144.865 23.6216 144.865 28.1028V50.1274H134.299V29.4615C134.299 26.8872 133.94 25.1233 133.221 24.1698C132.55 23.2164 131.448 22.7397 129.915 22.7397C128.573 22.7397 127.423 23.0495 126.465 23.6693C125.506 24.2413 124.452 25.0756 123.302 26.1721V50.1274H112.736Z" fill="#5048ED"/>
<path d="M156.04 64C154.938 64 154.004 63.9285 153.237 63.7855C152.47 63.6901 151.728 63.5233 151.009 63.2849L152.878 55.276C153.213 55.3713 153.596 55.4667 154.028 55.562C154.459 55.6574 154.866 55.705 155.25 55.705C157.023 55.705 158.388 55.276 159.346 54.4179C160.305 53.5598 161.024 52.4395 161.503 51.057L162.006 49.1978L148.278 14.6592H158.915L164.018 29.8905C164.546 31.5114 165.025 33.1561 165.456 34.8246C165.887 36.4931 166.342 38.2093 166.822 39.9732H167.109C167.492 38.3047 167.876 36.6361 168.259 34.9676C168.69 33.2514 169.122 31.559 169.553 29.8905L173.865 14.6592H184L171.637 50.4849C170.775 52.7255 169.864 54.6801 168.906 56.3486C167.996 58.0648 166.917 59.4711 165.672 60.5676C164.474 61.7117 163.084 62.5698 161.503 63.1419C159.969 63.714 158.149 64 156.04 64Z" fill="#5048ED"/>
</svg>