<svg width="216" height="76" viewBox="0 0 216 76" fill="none" xmlns="http://www.w3.org/2000/svg">
<path d="M0.192 59V52.364L17.664 26.996H2.124V17.336H33.036V23.888L15.564 49.34H33.624V59H0.192ZM56.9244 60.008C53.9564 60.008 51.1844 59.532 48.6084 58.58C46.0324 57.572 43.7924 56.144 41.8884 54.296C39.9844 52.392 38.5004 50.096 37.4364 47.408C36.3724 44.72 35.8404 41.64 35.8404 38.168C35.8404 34.808 36.4004 31.784 37.5204 29.096C38.6404 26.352 40.0964 24.056 41.8884 22.208C43.7364 20.304 45.8364 18.848 48.1884 17.84C50.5404 16.832 52.9764 16.328 55.4964 16.328C58.4644 16.328 61.0404 16.832 63.2244 17.84C65.4644 18.848 67.3124 20.248 68.7684 22.04C70.2804 23.832 71.4004 25.96 72.1284 28.424C72.8564 30.832 73.2204 33.464 73.2204 36.32C73.2204 37.44 73.1644 38.504 73.0524 39.512C72.9404 40.52 72.8284 41.276 72.7164 41.78H47.7684C48.3284 44.804 49.5604 47.044 51.4644 48.5C53.4244 49.9 55.8044 50.6 58.6044 50.6C61.5724 50.6 64.5684 49.676 67.5924 47.828L71.7084 55.304C69.5804 56.76 67.2004 57.908 64.5684 58.748C61.9924 59.588 59.4444 60.008 56.9244 60.008ZM47.6844 33.632H62.7204C62.7204 31.28 62.1884 29.376 61.1244 27.92C60.0604 26.464 58.2684 25.736 55.7484 25.736C53.7884 25.736 52.0524 26.38 50.5404 27.668C49.0844 28.956 48.1324 30.944 47.6844 33.632ZM91.093 60.008C88.965 60.008 87.173 59.672 85.717 59C84.261 58.328 83.085 57.404 82.189 56.228C81.349 54.996 80.733 53.54 80.341 51.86C79.949 50.124 79.753 48.192 79.753 46.064V0.115997H92.101V46.568C92.101 47.856 92.325 48.752 92.773 49.256C93.277 49.76 93.781 50.012 94.285 50.012C94.565 50.012 94.789 50.012 94.957 50.012C95.181 50.012 95.461 49.956 95.797 49.844L97.309 59C96.637 59.28 95.769 59.504 94.705 59.672C93.697 59.896 92.493 60.008 91.093 60.008ZM117.832 60.008C115.256 60.008 113.044 59.616 111.196 58.832C109.404 58.048 107.92 56.956 106.744 55.556C105.624 54.156 104.784 52.476 104.224 50.516C103.72 48.5 103.468 46.288 103.468 43.88V26.996H97.7561V17.84L104.14 17.336L105.568 6.248H115.816V17.336H125.812V26.996H115.816V43.712C115.816 46.064 116.292 47.772 117.244 48.836C118.252 49.844 119.568 50.348 121.192 50.348C121.864 50.348 122.536 50.264 123.208 50.096C123.936 49.928 124.58 49.732 125.14 49.508L127.072 58.496C125.952 58.832 124.636 59.168 123.124 59.504C121.612 59.84 119.848 60.008 117.832 60.008ZM131.944 59V0.115997H144.292V14.564L143.704 22.04C145.272 20.64 147.092 19.352 149.164 18.176C151.236 16.944 153.7 16.328 156.556 16.328C161.092 16.328 164.368 17.812 166.384 20.78C168.456 23.748 169.492 27.864 169.492 33.128V59H157.144V34.724C157.144 31.7 156.724 29.628 155.884 28.508C155.1 27.388 153.812 26.828 152.02 26.828C150.452 26.828 149.108 27.192 147.988 27.92C146.868 28.592 145.636 29.572 144.292 30.86V59H131.944ZM182.553 75.296C181.265 75.296 180.173 75.212 179.277 75.044C178.381 74.932 177.513 74.736 176.673 74.456L178.857 65.048C179.249 65.16 179.697 65.272 180.201 65.384C180.705 65.496 181.181 65.552 181.629 65.552C183.701 65.552 185.297 65.048 186.417 64.04C187.537 63.032 188.377 61.716 188.937 60.092L189.525 57.908L173.481 17.336H185.913L191.877 35.228C192.493 37.132 193.053 39.064 193.557 41.024C194.061 42.984 194.593 45 195.153 47.072H195.489C195.937 45.112 196.385 43.152 196.833 41.192C197.337 39.176 197.841 37.188 198.345 35.228L203.385 17.336H215.229L200.781 59.42C199.773 62.052 198.709 64.348 197.589 66.308C196.525 68.324 195.265 69.976 193.809 71.264C192.409 72.608 190.785 73.616 188.937 74.288C187.145 74.96 185.017 75.296 182.553 75.296Z" fill="#5048ED"/>
</svg>