<svg width="24" height="24" viewBox="0 0 24 24" fill="none" xmlns="http://www.w3.org/2000/svg">
<path opacity="0.3" d="M21 18.3V4H20H5C4.4 4 4 4.4 4 5V20C10.9 20 16.7 15.6 19 9.5V18.3C18.4 18.6 18 19.3 18 20C18 21.1 18.9 22 20 22C21.1 22 22 21.1 22 20C22 19.3 21.6 18.6 21 18.3Z" fill="currentColor"/>
<path d="M22 4C22 2.9 21.1 2 20 2C18.9 2 18 2.9 18 4C18 4.7 18.4 5.29995 18.9 5.69995C18.1 12.6 12.6 18.2 5.70001 18.9C5.30001 18.4 4.7 18 4 18C2.9 18 2 18.9 2 20C2 21.1 2.9 22 4 22C4.8 22 5.39999 21.6 5.79999 20.9C13.8 20.1 20.1 13.7 20.9 5.80005C21.6 5.40005 22 4.8 22 4Z" fill="currentColor"/>
</svg>
