<svg width="24" height="24" viewBox="0 0 24 24" fill="none" xmlns="http://www.w3.org/2000/svg">
<path opacity="0.3" d="M22 4H5C4.4 4 4 4.4 4 5V22H13C13.6 22 14 21.6 14 21V18H17C17.6 18 18 17.6 18 17V14H21C21.6 14 22 13.6 22 13V4Z" fill="currentColor"/>
<path d="M13 18H10V15C10 14.4 10.4 14 11 14H14V17C14 17.6 13.6 18 13 18ZM3 18C2.4 18 2 18.4 2 19V21C2 21.6 2.4 22 3 22H9C9.6 22 10 21.6 10 21V18H3ZM18 13V10H15C14.4 10 14 10.4 14 11V14H17C17.6 14 18 13.6 18 13ZM21 2H19C18.4 2 18 2.4 18 3V10H21C21.6 10 22 9.6 22 9V3C22 2.4 21.6 2 21 2Z" fill="currentColor"/>
</svg>
