<svg width="24" height="24" viewBox="0 0 24 24" fill="none" xmlns="http://www.w3.org/2000/svg">
<path d="M18.5 5.20007H14.2V19.5C14.2 20.3 14 20.9 13.7 21.3C13.3 21.7 12.9 21.9 12.3 21.9C11.7 21.9 11.2 21.7 10.9 21.3C10.6 20.9 10.3 20.3 10.3 19.5V5.20007H6C5.3 5.20007 4.8 5.10005 4.5 4.80005C4.2 4.50005 4 4.09998 4 3.59998C4 3.09998 4.2 2.70002 4.5 2.40002C4.8 2.10002 5.3 2 6 2H18.7C19.4 2 19.9 2.2 20.2 2.5C20.5 2.8 20.7 3.20007 20.7 3.70007C20.7 4.20007 20.5 4.60002 20.2 4.90002C19.7 5.00002 19.2 5.20007 18.5 5.20007Z" fill="currentColor"/>
</svg>
