<svg width="24" height="24" viewBox="0 0 24 24" fill="none" xmlns="http://www.w3.org/2000/svg">
<path opacity="0.3" d="M8.38 22H21C21.2652 22 21.5196 21.8947 21.7071 21.7072C21.8946 21.5196 22 21.2652 22 21C22 20.7348 21.8946 20.4804 21.7071 20.2928C21.5196 20.1053 21.2652 20 21 20H10L8.38 22Z" fill="currentColor"/>
<path d="M15.622 15.6219L9.855 21.3879C9.66117 21.582 9.43101 21.7359 9.17766 21.8409C8.92431 21.946 8.65275 22 8.37849 22C8.10424 22 7.83268 21.946 7.57933 21.8409C7.32598 21.7359 7.09582 21.582 6.90199 21.3879L2.612 17.098C2.41797 16.9042 2.26404 16.674 2.15903 16.4207C2.05401 16.1673 1.99997 15.8957 1.99997 15.6215C1.99997 15.3472 2.05401 15.0757 2.15903 14.8224C2.26404 14.569 2.41797 14.3388 2.612 14.145L8.37801 8.37805L15.622 15.6219Z" fill="currentColor"/>
<path opacity="0.3" d="M8.37801 8.37805L14.145 2.61206C14.3388 2.41803 14.569 2.26408 14.8223 2.15906C15.0757 2.05404 15.3473 2 15.6215 2C15.8958 2 16.1673 2.05404 16.4207 2.15906C16.674 2.26408 16.9042 2.41803 17.098 2.61206L21.388 6.90198C21.582 7.0958 21.736 7.326 21.841 7.57935C21.946 7.83269 22 8.10429 22 8.37854C22 8.65279 21.946 8.92426 21.841 9.17761C21.736 9.43096 21.582 9.66116 21.388 9.85498L15.622 15.6219L8.37801 8.37805Z" fill="currentColor"/>
</svg>
