<svg width="24" height="24" viewBox="0 0 24 24" fill="none" xmlns="http://www.w3.org/2000/svg">
<path opacity="0.3" d="M16.163 17.55C17.0515 16.6633 17.6785 15.5488 17.975 14.329C18.2389 13.1884 18.8119 12.1425 19.631 11.306L12.694 4.36902C11.8574 5.18796 10.8115 5.76088 9.67099 6.02502C8.15617 6.3947 6.81277 7.27001 5.86261 8.50635C4.91245 9.74268 4.41238 11.266 4.44501 12.825C4.46196 13.6211 4.31769 14.4125 4.0209 15.1515C3.72412 15.8905 3.28092 16.5617 2.71799 17.125L2.28699 17.556C2.10306 17.7402 1.99976 17.9897 1.99976 18.25C1.99976 18.5103 2.10306 18.7598 2.28699 18.944L5.06201 21.719C5.24614 21.9029 5.49575 22.0062 5.75601 22.0062C6.01627 22.0062 6.26588 21.9029 6.45001 21.719L6.88101 21.288C7.44427 20.725 8.11556 20.2819 8.85452 19.9851C9.59349 19.6883 10.3848 19.5441 11.181 19.561C12.1042 19.58 13.0217 19.4114 13.878 19.0658C14.7343 18.7201 15.5116 18.2046 16.163 17.55Z" fill="currentColor"/>
<path d="M19.631 11.306L12.694 4.36902L14.775 2.28699C14.9591 2.10306 15.2087 1.99976 15.469 1.99976C15.7293 1.99976 15.9789 2.10306 16.163 2.28699L21.713 7.83704C21.8969 8.02117 22.0002 8.27075 22.0002 8.53101C22.0002 8.79126 21.8969 9.04085 21.713 9.22498L19.631 11.306ZM13.041 10.959C12.6427 10.5604 12.1194 10.3112 11.5589 10.2532C10.9985 10.1952 10.4352 10.332 9.96375 10.6405C9.4923 10.949 9.14148 11.4105 8.97034 11.9473C8.79919 12.4841 8.81813 13.0635 9.02399 13.588L2.98099 19.631L4.36899 21.019L10.412 14.975C10.9364 15.1816 11.5161 15.2011 12.0533 15.0303C12.5904 14.8594 13.0523 14.5086 13.361 14.037C13.6697 13.5654 13.8065 13.0018 13.7482 12.4412C13.6899 11.8805 13.4401 11.357 13.041 10.959Z" fill="currentColor"/>
</svg>
