<svg width="20" height="20" viewBox="0 0 20 20" fill="none" xmlns="http://www.w3.org/2000/svg">
<g clip-path="url(#clip0_1793_10)">
<path d="M16.4227 19.6592C12.1545 20.1146 7.85001 20.1146 3.58182 19.6592C2.75298 19.5717 1.97918 19.2027 1.38942 18.6138C0.799671 18.0249 0.429601 17.2516 0.340911 16.4228C-0.114451 12.1547 -0.114451 7.85013 0.340911 3.58194C0.428438 2.7531 0.797422 1.9793 1.38635 1.38955C1.97527 0.799793 2.74855 0.429724 3.57727 0.341033C7.84547 -0.114329 12.15 -0.114329 16.4182 0.341033C17.247 0.42856 18.0208 0.797544 18.6106 1.38647C19.2003 1.9754 19.5704 2.74868 19.6591 3.5774C20.1145 7.84559 20.1145 12.1501 19.6591 16.4183C19.5716 17.2471 19.2026 18.0209 18.6137 18.6107C18.0247 19.2005 17.2514 19.5705 16.4227 19.6592V19.6592Z" fill="#0B66C3"/>
<path d="M7.20456 5.45455C7.20456 5.79167 7.10459 6.12123 6.9173 6.40154C6.73 6.68185 6.46378 6.90033 6.15232 7.02934C5.84085 7.15835 5.49813 7.19211 5.16748 7.12634C4.83683 7.06057 4.53311 6.89823 4.29472 6.65984C4.05634 6.42146 3.89399 6.11774 3.82822 5.78709C3.76245 5.45644 3.79621 5.11371 3.92522 4.80224C4.05424 4.49078 4.27271 4.22457 4.55302 4.03727C4.83333 3.84997 5.16289 3.75 5.50002 3.75C5.95209 3.75 6.38565 3.92959 6.70531 4.24925C7.02498 4.56891 7.20456 5.00247 7.20456 5.45455Z" fill="white"/>
<path d="M6.81819 8.29529V15.826C6.81849 15.8815 6.8078 15.9366 6.78675 15.988C6.7657 16.0394 6.73469 16.0862 6.69551 16.1255C6.65633 16.1649 6.60976 16.1962 6.55846 16.2175C6.50716 16.2389 6.45215 16.2498 6.3966 16.2498H4.60001C4.54445 16.25 4.48941 16.2391 4.43806 16.218C4.3867 16.1968 4.34004 16.1656 4.30076 16.1264C4.26147 16.0871 4.23034 16.0404 4.20915 15.9891C4.18796 15.9377 4.17713 15.8827 4.17728 15.8271V8.29529C4.17728 8.18317 4.22182 8.07565 4.30109 7.99637C4.38037 7.9171 4.48789 7.87256 4.60001 7.87256H6.3966C6.50851 7.87286 6.61574 7.91753 6.69478 7.99677C6.77381 8.07602 6.81819 8.18337 6.81819 8.29529V8.29529Z" fill="white"/>
<path d="M16.2091 12.2157V15.8612C16.2093 15.9123 16.1993 15.9629 16.1798 16.0101C16.1603 16.0573 16.1317 16.1002 16.0956 16.1363C16.0595 16.1725 16.0166 16.2011 15.9694 16.2206C15.9221 16.24 15.8715 16.25 15.8205 16.2498H13.8886C13.8376 16.25 13.787 16.24 13.7397 16.2206C13.6925 16.2011 13.6496 16.1725 13.6135 16.1363C13.5774 16.1002 13.5488 16.0573 13.5293 16.0101C13.5098 15.9629 13.4999 15.9123 13.5 15.8612V12.3282C13.5 11.801 13.6546 10.0191 12.1216 10.0191C10.9341 10.0191 10.6921 11.2385 10.6443 11.7862V15.8612C10.6443 15.9633 10.6042 16.0613 10.5325 16.134C10.4609 16.2067 10.3635 16.2483 10.2614 16.2498H8.39547C8.34448 16.2498 8.294 16.2398 8.24691 16.2202C8.19983 16.2007 8.15706 16.172 8.12106 16.1359C8.08506 16.0998 8.05654 16.057 8.03714 16.0098C8.01773 15.9627 8.00782 15.9122 8.00797 15.8612V8.26233C8.00782 8.21135 8.01773 8.16084 8.03714 8.11369C8.05654 8.06655 8.08506 8.0237 8.12106 7.98759C8.15706 7.95149 8.19983 7.92284 8.24691 7.9033C8.294 7.88375 8.34448 7.87369 8.39547 7.8737H10.2614C10.3644 7.8737 10.4633 7.91464 10.5362 7.98752C10.6091 8.06041 10.65 8.15926 10.65 8.26233V8.91915C11.0909 8.25779 11.7443 7.74756 13.1386 7.74756C16.2273 7.74756 16.2091 10.6316 16.2091 12.2157V12.2157Z" fill="white"/>
</g>
<defs>
<clipPath id="clip0_1793_10">
<rect width="20" height="20" fill="white"/>
</clipPath>
</defs>
</svg>
