<svg width="24" height="24" viewBox="0 0 24 24" fill="none" xmlns="http://www.w3.org/2000/svg">
<path opacity="0.3" d="M5.72502 20.1899C5.71502 20.1829 5.70401 20.179 5.69401 20.173C4.66853 19.48 3.87892 18.4906 3.43067 17.3369C2.98243 16.1833 2.89688 14.9202 3.18546 13.7167C3.47405 12.5131 4.12303 11.4263 5.04569 10.6013C5.96836 9.77636 7.12077 9.25259 8.34901 9.09998C8.49301 9.08498 8.67602 9.07397 8.87602 9.06897C9.11095 9.06456 9.33992 9.14308 9.52278 9.29065C9.70563 9.43822 9.83071 9.64541 9.87602 9.87598C9.86302 9.87598 9.85301 9.86902 9.84001 9.86902C9.64001 9.87402 9.457 9.88502 9.313 9.90002C8.18466 10.0339 7.11668 10.4822 6.23097 11.194C5.34525 11.9057 4.67748 12.8521 4.30387 13.9252C3.93026 14.9982 3.86585 16.1548 4.11802 17.2627C4.37019 18.3706 4.92879 19.3854 5.73002 20.191L5.72502 20.1899ZM18.252 6.69495C18.6924 6.96887 19.1764 7.16543 19.683 7.276C19.6261 7.08315 19.5171 6.90974 19.368 6.77478C19.219 6.63982 19.0356 6.54852 18.838 6.51099C18.3152 6.40512 17.8149 6.20855 17.36 5.93005C17.6224 6.222 17.9212 6.47898 18.249 6.69495H18.252ZM8.779 18.395C9.202 18.608 9.67239 18.7093 10.1455 18.6895C10.6187 18.6696 11.0789 18.5292 11.4826 18.2816C11.8863 18.034 12.22 17.6873 12.4522 17.2745C12.6843 16.8618 12.8071 16.3965 12.809 15.923V3.80005C12.809 3.53483 12.9144 3.28043 13.1019 3.0929C13.2894 2.90536 13.5438 2.80005 13.809 2.80005H15.109C15.143 2.80005 15.171 2.81402 15.209 2.81702C15.1441 2.58472 15.0058 2.37967 14.8148 2.23242C14.6237 2.08518 14.3902 2.00361 14.149 2H12.849C12.5838 2 12.3295 2.10531 12.1419 2.29285C11.9544 2.48038 11.849 2.73478 11.849 3V15.126C11.8473 15.5988 11.725 16.0633 11.4937 16.4756C11.2624 16.8879 10.9297 17.2344 10.5271 17.4823C10.1246 17.7302 9.66541 17.8713 9.19309 17.8922C8.72078 17.9131 8.25094 17.8133 7.82801 17.6021C8.08083 17.9363 8.40592 18.2091 8.779 18.4V18.395ZM17.29 5.89502C17.312 5.90902 17.338 5.91705 17.36 5.93005C16.7829 5.31815 16.3857 4.55892 16.212 3.73596C16.1661 3.4943 16.0431 3.27412 15.8613 3.1084C15.6795 2.94268 15.4489 2.84042 15.204 2.81702C15.2215 2.85569 15.2365 2.89545 15.249 2.93604C15.3725 3.5419 15.617 4.11659 15.9676 4.62585C16.3183 5.13512 16.7681 5.56851 17.29 5.90002V5.89502ZM9.91102 11.355C9.90901 11.6105 9.80922 11.8556 9.63218 12.0399C9.45514 12.2242 9.21425 12.3337 8.95899 12.3459C8.24648 12.3859 7.57535 12.6935 7.0799 13.2072C6.58446 13.7208 6.30125 14.4025 6.287 15.116C6.28677 15.6307 6.42963 16.1354 6.69962 16.5737C6.96962 17.012 7.35616 17.3667 7.81602 17.598H7.826C7.45283 17.1152 7.25027 16.5222 7.25001 15.912C7.26404 15.1984 7.54715 14.5165 8.04264 14.0028C8.53814 13.4891 9.20941 13.1817 9.92201 13.142C10.1771 13.1295 10.4177 13.0198 10.5946 12.8356C10.7714 12.6513 10.871 12.4064 10.873 12.151V10.864C10.8711 10.6 10.765 10.3474 10.5776 10.1614C10.3903 9.97535 10.137 9.87097 9.87299 9.87097C9.89293 9.93376 9.90634 9.99843 9.913 10.064L9.91102 11.355ZM19.8 7.31104C19.76 7.30304 19.723 7.285 19.683 7.276C19.7148 7.36988 19.7327 7.46794 19.736 7.56702V8.87305C19.736 9.00783 19.7072 9.141 19.6517 9.26379C19.5961 9.38659 19.5149 9.49613 19.4137 9.58508C19.3124 9.67404 19.1934 9.74036 19.0644 9.77966C18.9355 9.81896 18.7997 9.83033 18.666 9.81299C17.3993 9.64132 16.1936 9.16274 15.154 8.41895V14.912C15.1748 16.4605 14.617 17.9611 13.5898 19.12C12.5625 20.2789 11.1398 21.0127 9.60002 21.178C8.23377 21.2965 6.86771 20.9482 5.72502 20.1899C6.00882 20.4809 6.32067 20.7433 6.65602 20.973C7.80538 21.7435 9.18352 22.0981 10.562 21.978C12.1019 21.8128 13.5247 21.0789 14.5521 19.92C15.5795 18.7612 16.1376 17.2606 16.117 15.712V9.21899C17.1563 9.96278 18.3616 10.4414 19.628 10.613C19.7617 10.6304 19.8975 10.619 20.0264 10.5797C20.1554 10.5404 20.2744 10.4741 20.3757 10.3851C20.4769 10.2962 20.5581 10.1866 20.6137 10.0638C20.6692 9.94105 20.698 9.80776 20.698 9.67297V8.36694C20.695 8.11381 20.6036 7.86973 20.4396 7.67688C20.2757 7.48403 20.0494 7.35465 19.8 7.31104Z" fill="currentColor"/>
<path d="M15.149 14.912V8.41895C16.1886 9.16274 17.3943 9.64132 18.661 9.81299C18.7947 9.83033 18.9305 9.81896 19.0594 9.77966C19.1884 9.74036 19.3074 9.67404 19.4087 9.58508C19.5099 9.49613 19.5911 9.38659 19.6466 9.26379C19.7022 9.141 19.731 9.00783 19.731 8.87305V7.56702C19.7277 7.46794 19.7098 7.36988 19.678 7.276C19.1714 7.16543 18.6874 6.96887 18.247 6.69495C17.9182 6.47919 17.6184 6.22219 17.355 5.93005C17.333 5.91705 17.307 5.90902 17.285 5.89502C16.7636 5.56407 16.3142 5.13154 15.9635 4.62317C15.6129 4.1148 15.3681 3.541 15.244 2.93604C15.2315 2.89545 15.2165 2.85569 15.199 2.81702C15.166 2.81702 15.138 2.80005 15.099 2.80005H13.799C13.5338 2.80005 13.2794 2.90536 13.0919 3.0929C12.9044 3.28043 12.799 3.53483 12.799 3.80005V15.926C12.7986 16.5066 12.616 17.0725 12.277 17.5438C11.938 18.0152 11.4597 18.3683 10.9093 18.5533C10.359 18.7384 9.76452 18.7462 9.20957 18.5756C8.65462 18.4049 8.16721 18.0644 7.81602 17.6021H7.80601C7.34614 17.3707 6.95964 17.016 6.68964 16.5778C6.41964 16.1395 6.27679 15.6348 6.27701 15.12C6.29127 14.4065 6.57445 13.7247 7.06989 13.2111C7.56534 12.6974 8.2365 12.3899 8.94901 12.35C9.20427 12.3377 9.44516 12.2282 9.6222 12.0439C9.79924 11.8597 9.899 11.6146 9.90101 11.359V10.072C9.89434 10.0065 9.88093 9.94182 9.861 9.87903C9.848 9.87903 9.83802 9.87195 9.82502 9.87195C9.62502 9.87695 9.44201 9.88795 9.29801 9.90295C8.51517 9.85635 7.73118 9.97297 6.99573 10.2452C6.26029 10.5175 5.58941 10.9396 5.02564 11.4847C4.46187 12.0299 4.01752 12.6861 3.72071 13.412C3.42389 14.1379 3.2811 14.9176 3.3014 15.7015C3.32169 16.4855 3.50462 17.2568 3.8386 17.9663C4.17258 18.6759 4.6503 19.3082 5.24152 19.8235C5.83274 20.3387 6.52456 20.7255 7.27311 20.9594C8.02166 21.1932 8.81062 21.2691 9.59 21.182C11.1314 21.0179 12.5559 20.2839 13.5843 19.124C14.6127 17.9641 15.1707 16.462 15.149 14.912Z" fill="currentColor"/>
</svg>
