<svg width="24" height="24" viewBox="0 0 24 24" fill="none" xmlns="http://www.w3.org/2000/svg">
<path opacity="0.3" d="M12 22C17.5228 22 22 17.5228 22 12C22 6.47715 17.5228 2 12 2C6.47715 2 2 6.47715 2 12C2 17.5228 6.47715 22 12 22Z" fill="currentColor"/>
<path d="M13.643 9.36206C13.6427 9.05034 13.7663 8.75122 13.9864 8.53052C14.2065 8.30982 14.5053 8.18559 14.817 8.18506H15.992V5.23999H13.643C13.1796 5.24052 12.7209 5.33229 12.293 5.51013C11.8651 5.68798 11.4764 5.94841 11.1491 6.27649C10.8219 6.60457 10.5625 6.99389 10.3857 7.42224C10.209 7.85059 10.1183 8.30956 10.119 8.77295V11.718H7.769V14.663H10.119V21.817C11.2812 22.0479 12.4762 22.0604 13.643 21.854V14.663H15.992L17.167 11.718H13.643V9.36206Z" fill="currentColor"/>
</svg>
