<svg width="24" height="24" viewBox="0 0 24 24" fill="none" xmlns="http://www.w3.org/2000/svg">
<path d="M15.0082 5.05202C15.5082 4.45202 15.9082 3.65207 16.0082 2.85207C16.1082 2.25207 15.5082 1.85202 15.0082 2.05202C14.2082 2.35202 13.5082 2.85205 12.9082 3.45205C12.4082 4.05205 12.0082 4.8521 11.9082 5.7521C11.9082 6.2521 12.4082 6.65205 12.8082 6.45205C13.7082 6.35205 14.5082 5.75202 15.0082 5.05202Z" fill="currentColor"/>
<path opacity="0.3" d="M18.4082 10.0519C18.8082 9.65195 18.8082 8.95195 18.3082 8.55195C17.6082 8.05195 16.8082 7.65195 15.9082 7.55195C14.6082 7.45195 13.5082 8.35199 12.2082 8.35199C11.0082 8.35199 10.1082 7.55195 8.70818 7.55195C7.30818 7.55195 5.80818 8.45197 4.80818 9.95197C3.50818 12.052 3.70818 15.952 5.90818 19.352C6.70818 20.552 7.70818 21.852 9.10818 21.952C10.3082 21.952 10.7082 21.152 12.3082 21.152C13.9082 21.152 14.3082 21.952 15.5082 21.952C16.9082 21.952 18.0082 20.452 18.7082 19.252C19.1082 18.652 19.3082 18.352 19.5082 17.852C19.7082 17.452 19.5082 16.852 19.1082 16.652C16.8082 15.052 16.5082 11.8519 18.4082 10.0519Z" fill="currentColor"/>
</svg>
