<svg width="24" height="24" viewBox="0 0 24 24" fill="none" xmlns="http://www.w3.org/2000/svg">
<path d="M21 6.30005C20.5 5.30005 19.9 5.19998 18.7 5.09998C17.5 4.99998 14.5 5 11.9 5C9.29999 5 6.29998 4.99998 5.09998 5.09998C3.89998 5.19998 3.29999 5.30005 2.79999 6.30005C2.19999 7.30005 2 8.90002 2 11.9C2 14.8 2.29999 16.5 2.79999 17.5C3.29999 18.5 3.89998 18.6001 5.09998 18.7001C6.29998 18.8001 9.29999 18.8 11.9 18.8C14.5 18.8 17.5 18.8001 18.7 18.7001C19.9 18.6001 20.5 18.4 21 17.5C21.6 16.5 21.8 14.9 21.8 11.9C21.8 9.00002 21.5 7.30005 21 6.30005ZM9.89999 15.7001V8.20007L14.5 11C15.3 11.5 15.3 12.5 14.5 13L9.89999 15.7001Z" fill="currentColor"/>
</svg>
