<svg width="24" height="24" viewBox="0 0 24 24" fill="none" xmlns="http://www.w3.org/2000/svg">
<path opacity="0.3" d="M21 13H15V11H21C21.6 11 22 10.6 22 10C22 9.4 21.6 9 21 9H15V3C15 2.4 14.6 2 14 2C13.4 2 13 2.4 13 3V9H11V3C11 2.4 10.6 2 10 2C9.4 2 9 2.4 9 3V9H3C2.4 9 2 9.4 2 10C2 10.6 2.4 11 3 11H9V13H3C2.4 13 2 13.4 2 14C2 14.6 2.4 15 3 15H9V21C9 21.6 9.4 22 10 22C10.6 22 11 21.6 11 21V15H13V21C13 21.6 13.4 22 14 22C14.6 22 15 21.6 15 21V15H21C21.6 15 22 14.6 22 14C22 13.4 21.6 13 21 13Z" fill="currentColor"/>
<path d="M16 17H8C7.4 17 7 16.6 7 16V8C7 7.4 7.4 7 8 7H16C16.6 7 17 7.4 17 8V16C17 16.6 16.6 17 16 17ZM14 10H10V14H14V10Z" fill="currentColor"/>
</svg>
