<svg width="24" height="24" viewBox="0 0 24 24" fill="none" xmlns="http://www.w3.org/2000/svg">
<path opacity="0.3" d="M20.335 15.537C21.725 14.425 21.57 12.812 21.553 11.224C21.4407 9.50899 20.742 7.88483 19.574 6.624C18.5503 5.40102 17.2668 4.4216 15.817 3.757C14.4297 3.26981 12.9703 3.01966 11.5 3.01701C8.79576 2.83108 6.11997 3.66483 4 5.35398C2.289 6.72498 1.23101 9.12497 2.68601 11.089C3.22897 11.6881 3.93029 12.1214 4.709 12.339C5.44803 12.6142 6.24681 12.6888 7.024 12.555C6.88513 12.9965 6.85078 13.4644 6.92367 13.9215C6.99656 14.3786 7.17469 14.8125 7.444 15.189C7.73891 15.5299 8.10631 15.8006 8.51931 15.9812C8.93232 16.1619 9.38047 16.2478 9.831 16.233C10.0739 16.2296 10.3141 16.1807 10.539 16.089C10.7371 15.9871 10.9288 15.8732 11.113 15.748C12.1594 15.2831 13.3275 15.1668 14.445 15.416C15.7795 15.7213 17.1299 15.952 18.49 16.107C18.7927 16.1438 19.0993 16.1313 19.398 16.07C19.7445 15.9606 20.0639 15.7789 20.335 15.537Z" fill="currentColor"/>
<path d="M19.008 16.114C18.9486 16.6061 18.7934 17.0817 18.551 17.514C18.229 18.114 17.581 18.314 17.103 18.752C16.457 19.343 16.595 20.38 16.632 21.164C16.6522 21.3437 16.621 21.5254 16.542 21.688C16.4335 21.835 16.2751 21.9373 16.0965 21.9758C15.9179 22.0143 15.7314 21.9863 15.572 21.897C15.2577 21.7083 15.0072 21.4296 14.853 21.097C14.581 20.607 14.362 20.085 14.053 19.612C13.3182 18.7548 12.4201 18.0525 11.411 17.546C10.9334 17.1942 10.5857 16.6942 10.422 16.124C10.459 16.111 10.499 16.106 10.536 16.09C10.7336 15.9879 10.925 15.8741 11.109 15.749C12.1554 15.2842 13.3234 15.1678 14.441 15.417C15.7754 15.7223 17.1259 15.953 18.486 16.108C18.6598 16.1191 18.834 16.1211 19.008 16.114ZM18.8 10.278V3C18.8 2.73478 18.6946 2.48044 18.5071 2.29291C18.3196 2.10537 18.0652 2 17.8 2C17.5348 2 17.2804 2.10537 17.0929 2.29291C16.9053 2.48044 16.8 2.73478 16.8 3V10.278C16.4187 10.4981 16.1207 10.8379 15.9522 11.2447C15.7838 11.6514 15.7542 12.1024 15.8681 12.5277C15.9821 12.953 16.2332 13.3287 16.5825 13.5967C16.9318 13.8648 17.3597 14.0101 17.8 14.0101C18.2403 14.0101 18.6682 13.8648 19.0175 13.5967C19.3668 13.3287 19.6179 12.953 19.7318 12.5277C19.8458 12.1024 19.8162 11.6514 19.6477 11.2447C19.4793 10.8379 19.1813 10.4981 18.8 10.278ZM13.8 2C13.5348 2 13.2804 2.10537 13.0929 2.29291C12.9053 2.48044 12.8 2.73478 12.8 3V8.586L12.312 9.07397C11.8792 8.95363 11.4188 8.98003 11.0026 9.14899C10.5864 9.31794 10.2379 9.61994 10.0115 10.0079C9.78508 10.3958 9.69351 10.8478 9.75109 11.2933C9.80867 11.7387 10.0122 12.1526 10.3298 12.4702C10.6474 12.7878 11.0612 12.9913 11.5067 13.0489C11.9522 13.1065 12.4042 13.0149 12.7921 12.7885C13.18 12.5621 13.4821 12.2136 13.651 11.7974C13.82 11.3812 13.8463 10.9207 13.726 10.488L14.507 9.70697C14.6945 9.51948 14.7999 9.26519 14.8 9V3C14.8 2.73478 14.6946 2.48044 14.5071 2.29291C14.3196 2.10537 14.0652 2 13.8 2ZM9.79999 2C9.53478 2 9.28042 2.10537 9.09289 2.29291C8.90535 2.48044 8.79999 2.73478 8.79999 3V4.586L7.31199 6.07397C6.87924 5.95363 6.41882 5.98004 6.00263 6.14899C5.58644 6.31794 5.23792 6.61994 5.0115 7.00787C4.78508 7.39581 4.69351 7.84781 4.75109 8.29327C4.80867 8.73874 5.01216 9.1526 5.32977 9.47021C5.64739 9.78783 6.06124 9.99131 6.50671 10.0489C6.95218 10.1065 7.40417 10.0149 7.7921 9.78851C8.18004 9.56209 8.48207 9.21355 8.65102 8.79736C8.81997 8.38117 8.84634 7.92073 8.726 7.48798L10.507 5.70697C10.6945 5.51948 10.7999 5.26519 10.8 5V3C10.8 2.73478 10.6946 2.48044 10.5071 2.29291C10.3196 2.10537 10.0652 2 9.79999 2Z" fill="currentColor"/>
</svg>
