<svg width="24" height="24" viewBox="0 0 24 24" fill="none" xmlns="http://www.w3.org/2000/svg">
<path d="M11 15.9C9.5 13 6.5 11 3 11C3 15.6 6.5 19.4 11 19.9V15.9Z" fill="currentColor"/>
<path opacity="0.3" d="M21 11C17.5 11 14.5 13 13 15.9V11C13 10.4 12.6 10 12 10C11.4 10 11 10.4 11 11V21C11 21.6 11.4 22 12 22C12.6 22 13 21.6 13 21V19.9C17.5 19.4 21 15.6 21 11Z" fill="currentColor"/>
<path opacity="0.3" d="M12 9C13.933 9 15.5 7.433 15.5 5.5C15.5 3.567 13.933 2 12 2C10.067 2 8.5 3.567 8.5 5.5C8.5 7.433 10.067 9 12 9Z" fill="currentColor"/>
<path d="M14 11L12 12L10 11V8.40002H14V11Z" fill="currentColor"/>
</svg>
