<svg width="24" height="24" viewBox="0 0 24 24" fill="none" xmlns="http://www.w3.org/2000/svg">
<path d="M5 11.3V11C5 9.9 5.9 9 7 9H17C18.1 9 19 9.9 19 11V11.3C18.7 11.1 18.4 11 18 11H6C5.6 11 5.3 11.1 5 11.3ZM4 13H3C2.4 13 2 13.4 2 14V18C2 18.6 2.4 19 3 19H4V13ZM22 18V14C22 13.4 21.6 13 21 13H20V19H21C21.6 19 22 18.6 22 18Z" fill="currentColor"/>
<path opacity="0.3" d="M18 21H6C4.9 21 4 20.1 4 19V13C4 11.9 4.9 11 6 11H18C19.1 11 20 11.9 20 13V19C20 20.1 19.1 21 18 21ZM14 3C14 2.4 13.6 2 13 2H11C10.4 2 10 2.4 10 3V9H14V3ZM6 12C5.4 12 5 12.4 5 13C5 13.6 5.4 14 6 14C6.6 14 7 13.6 7 13C7 12.4 6.6 12 6 12ZM18 12C17.4 12 17 12.4 17 13C17 13.6 17.4 14 18 14C18.6 14 19 13.6 19 13C19 12.4 18.6 12 18 12ZM6 18C5.4 18 5 18.4 5 19C5 19.6 5.4 20 6 20C6.6 20 7 19.6 7 19C7 18.4 6.6 18 6 18ZM18 18C17.4 18 17 18.4 17 19C17 19.6 17.4 20 18 20C18.6 20 19 19.6 19 19C19 18.4 18.6 18 18 18Z" fill="currentColor"/>
</svg>
