<svg width="24" height="24" viewBox="0 0 24 24" fill="none" xmlns="http://www.w3.org/2000/svg">
<path d="M8 18L10 14L9.60001 13.2C9.30001 12.6 9.69999 12 10.4 12H13.7C14.3 12 14.7 12.7 14.5 13.2L14 14L16 18H8ZM6 6H4V8H6V6ZM7 11C7 11.6 7.4 12 8 12C8.6 12 9 11.6 9 11V10H7V11ZM10 6V8H20V6H10Z" fill="currentColor"/>
<path opacity="0.3" d="M21 22H3C2.4 22 2 21.6 2 21V3C2 2.4 2.4 2 3 2H21C21.6 2 22 2.4 22 3V21C22 21.6 21.6 22 21 22ZM20 4H4V18H20V4ZM10 9V6H6V9C6 9.6 6.4 10 7 10H9C9.6 10 10 9.6 10 9Z" fill="currentColor"/>
</svg>
