<svg width="24" height="24" viewBox="0 0 24 24" fill="none" xmlns="http://www.w3.org/2000/svg">
<path d="M13 9V8C13 7.4 13.4 7 14 7H15C16.7 7 18 5.7 18 4V3C18 2.4 17.6 2 17 2C16.4 2 16 2.4 16 3V4C16 4.6 15.6 5 15 5H14C12.3 5 11 6.3 11 8V9H13Z" fill="currentColor"/>
<path opacity="0.3" d="M21 22H3C2.4 22 2 21.6 2 21V10C2 9.4 2.4 9 3 9H21C21.6 9 22 9.4 22 10V21C22 21.6 21.6 22 21 22ZM5 12C4.4 12 4 12.4 4 13C4 13.6 4.4 14 5 14C5.6 14 6 13.6 6 13C6 12.4 5.6 12 5 12ZM8 12C7.4 12 7 12.4 7 13C7 13.6 7.4 14 8 14C8.6 14 9 13.6 9 13C9 12.4 8.6 12 8 12ZM11 12C10.4 12 10 12.4 10 13C10 13.6 10.4 14 11 14C11.6 14 12 13.6 12 13C12 12.4 11.6 12 11 12ZM14 12C13.4 12 13 12.4 13 13C13 13.6 13.4 14 14 14C14.6 14 15 13.6 15 13C15 12.4 14.6 12 14 12ZM9 15C8.4 15 8 15.4 8 16C8 16.6 8.4 17 9 17C9.6 17 10 16.6 10 16C10 15.4 9.6 15 9 15ZM12 15C11.4 15 11 15.4 11 16C11 16.6 11.4 17 12 17C12.6 17 13 16.6 13 16C13 15.4 12.6 15 12 15ZM15 15C14.4 15 14 15.4 14 16C14 16.6 14.4 17 15 17C15.6 17 16 16.6 16 16C16 15.4 15.6 15 15 15ZM19 18C18.4 18 18 18.4 18 19C18 19.6 18.4 20 19 20C19.6 20 20 19.6 20 19C20 18.4 19.6 18 19 18ZM7 19C7 18.4 6.6 18 6 18H5C4.4 18 4 18.4 4 19C4 19.6 4.4 20 5 20H6C6.6 20 7 19.6 7 19ZM7 16C7 15.4 6.6 15 6 15H5C4.4 15 4 15.4 4 16C4 16.6 4.4 17 5 17H6C6.6 17 7 16.6 7 16ZM17 14H19C19.6 14 20 13.6 20 13C20 12.4 19.6 12 19 12H17C16.4 12 16 12.4 16 13C16 13.6 16.4 14 17 14ZM18 17H19C19.6 17 20 16.6 20 16C20 15.4 19.6 15 19 15H18C17.4 15 17 15.4 17 16C17 16.6 17.4 17 18 17ZM17 19C17 18.4 16.6 18 16 18H9C8.4 18 8 18.4 8 19C8 19.6 8.4 20 9 20H16C16.6 20 17 19.6 17 19Z" fill="currentColor"/>
</svg>
