<svg width="24" height="24" viewBox="0 0 24 24" fill="none" xmlns="http://www.w3.org/2000/svg">
<path opacity="0.3" d="M22 14V18C22 19.1 21.1 20 20 20C20 20.6 19.6 21 19 21C18.4 21 18 20.6 18 20H6C6 20.6 5.6 21 5 21C4.4 21 4 20.6 4 20C2.9 20 2 19.1 2 18V14C2 12.9 2.9 12 4 12H20C21.1 12 22 12.9 22 14ZM6 15C5.4 15 5 15.4 5 16C5 16.6 5.4 17 6 17C6.6 17 7 16.6 7 16C7 15.4 6.6 15 6 15ZM10 15C9.4 15 9 15.4 9 16C9 16.6 9.4 17 10 17C10.6 17 11 16.6 11 16C11 15.4 10.6 15 10 15ZM14 15C13.4 15 13 15.4 13 16C13 16.6 13.4 17 14 17C14.6 17 15 16.6 15 16C15 15.4 14.6 15 14 15Z" fill="currentColor"/>
<path d="M18 2C18.6 2 19 2.4 19 3V12H17V3C17 2.4 17.4 2 18 2Z" fill="currentColor"/>
</svg>
