<svg width="24" height="24" viewBox="0 0 24 24" fill="none" xmlns="http://www.w3.org/2000/svg">
<path opacity="0.3" d="M15 19H7C5.9 19 5 18.1 5 17V7C5 5.9 5.9 5 7 5H15C16.1 5 17 5.9 17 7V17C17 18.1 16.1 19 15 19Z" fill="currentColor"/>
<path d="M8.5 2H13.4C14 2 14.5 2.4 14.6 3L14.9 5H6.89999L7.2 3C7.4 2.4 7.9 2 8.5 2ZM7.3 21C7.4 21.6 7.9 22 8.5 22H13.4C14 22 14.5 21.6 14.6 21L14.9 19H6.89999L7.3 21ZM18.3 10.2C18.5 9.39995 18.5 8.49995 18.3 7.69995C18.2 7.29995 17.8 6.90002 17.3 6.90002H17V10.9H17.3C17.8 11 18.2 10.7 18.3 10.2Z" fill="currentColor"/>
</svg>
