<svg width="24" height="24" viewBox="0 0 24 24" fill="none" xmlns="http://www.w3.org/2000/svg">
<path d="M10.613 16.163L7.837 13.387C7.65313 13.203 7.54983 12.9536 7.54983 12.6935C7.54983 12.4334 7.65313 12.184 7.837 12L14.775 5.06201C14.9589 4.87814 15.2084 4.7749 15.4685 4.7749C15.7286 4.7749 15.978 4.87814 16.162 5.06201L18.938 7.83801C19.1219 8.02197 19.2252 8.2714 19.2252 8.53149C19.2252 8.79159 19.1219 9.04102 18.938 9.22498L12 16.163C11.816 16.3468 11.5666 16.4502 11.3065 16.4502C11.0464 16.4502 10.797 16.3468 10.613 16.163ZM4.71301 17.203L2.48498 20.322C2.3675 20.4863 2.31218 20.687 2.32879 20.8883C2.3454 21.0896 2.43288 21.2784 2.57571 21.4213C2.71853 21.5641 2.90743 21.6516 3.10873 21.6682C3.31003 21.6848 3.51067 21.6294 3.67498 21.512L6.794 19.2841L4.71301 17.203Z" fill="currentColor"/>
<path opacity="0.3" d="M7.83701 12L2.28699 6.44995C2.10306 6.26582 1.99976 6.01624 1.99976 5.75598C1.99976 5.49572 2.10306 5.24614 2.28699 5.06201L5.06201 2.28699C5.24614 2.10306 5.49575 1.99976 5.75601 1.99976C6.01627 1.99976 6.26588 2.10306 6.45001 2.28699L12 7.83704L7.83701 12ZM18.937 21.713L21.712 18.938C21.8959 18.7539 21.9992 18.5043 21.9992 18.244C21.9992 17.9838 21.8959 17.7342 21.712 17.55L16.162 12L12 16.163L17.55 21.713C17.7341 21.8969 17.9837 22.0002 18.244 22.0002C18.5042 22.0002 18.7539 21.8969 18.938 21.713H18.937ZM9.146 21.634C9.25064 21.7386 9.37833 21.8172 9.51883 21.8636C9.65933 21.9101 9.80874 21.923 9.95511 21.9014C10.1015 21.8797 10.2407 21.824 10.3618 21.7389C10.4828 21.6537 10.5822 21.5415 10.652 21.411C11.0778 20.2848 11.1695 19.0596 10.9161 17.8826C10.6628 16.7055 10.0752 15.6265 9.22385 14.7751C8.37248 13.9238 7.29352 13.3362 6.11646 13.0829C4.93939 12.8296 3.71424 12.9213 2.58801 13.347C2.45756 13.4169 2.34528 13.5162 2.26013 13.6372C2.17499 13.7582 2.11933 13.8976 2.09766 14.0439C2.07598 14.1903 2.08889 14.3397 2.13531 14.4802C2.18174 14.6207 2.26038 14.7484 2.36499 14.853L9.146 21.634ZM19.181 6.83398C19.3013 6.79376 19.4094 6.72347 19.495 6.62976C19.5806 6.53605 19.6408 6.42209 19.6699 6.29858C19.6991 6.17508 19.6962 6.04615 19.6615 5.92407C19.6269 5.802 19.5616 5.69074 19.472 5.60095L18.401 4.53003C18.3112 4.44036 18.2 4.37509 18.0779 4.34045C17.9559 4.30582 17.827 4.30288 17.7035 4.33203C17.58 4.36118 17.4659 4.42139 17.3722 4.50696C17.2785 4.59252 17.2082 4.7007 17.168 4.82104L16.855 5.75903L18.243 7.14697L19.181 6.83398Z" fill="currentColor"/>
</svg>
