<svg width="24" height="24" viewBox="0 0 24 24" fill="none" xmlns="http://www.w3.org/2000/svg">
<path d="M8.39961 20.5073C7.29961 20.5073 6.39961 19.6073 6.39961 18.5073C6.39961 17.4073 7.29961 16.5073 8.39961 16.5073H9.89961C11.7996 16.5073 13.3996 14.9073 13.3996 13.0073C13.3996 11.1073 11.7996 9.50732 9.89961 9.50732H8.09961L6.59961 11.2073C6.49961 11.3073 6.29961 11.4073 6.09961 11.5073C6.19961 11.5073 6.19961 11.5073 6.29961 11.5073H9.79961C10.5996 11.5073 11.2996 12.2073 11.2996 13.0073C11.2996 13.8073 10.5996 14.5073 9.79961 14.5073H8.39961C6.19961 14.5073 4.39961 16.3073 4.39961 18.5073C4.39961 20.7073 6.19961 22.5073 8.39961 22.5073H15.3996V20.5073H8.39961Z" fill="currentColor"/>
<path opacity="0.3" d="M8.89961 8.7073L6.69961 11.2073C6.29961 11.6073 5.59961 11.6073 5.19961 11.2073L2.99961 8.7073C2.19961 7.8073 1.7996 6.50732 2.0996 5.10732C2.3996 3.60732 3.5996 2.40732 5.0996 2.10732C7.6996 1.50732 9.99961 3.50734 9.99961 6.00734C9.89961 7.00734 9.49961 8.0073 8.89961 8.7073Z" fill="currentColor"/>
<path d="M5.89961 7.50732C6.72804 7.50732 7.39961 6.83575 7.39961 6.00732C7.39961 5.1789 6.72804 4.50732 5.89961 4.50732C5.07119 4.50732 4.39961 5.1789 4.39961 6.00732C4.39961 6.83575 5.07119 7.50732 5.89961 7.50732Z" fill="currentColor"/>
<path opacity="0.3" d="M17.3996 22.5073H15.3996V13.5073C15.3996 12.9073 15.7996 12.5073 16.3996 12.5073C16.9996 12.5073 17.3996 12.9073 17.3996 13.5073V22.5073Z" fill="currentColor"/>
<path d="M21.3996 18.5073H15.3996V13.5073H21.3996C22.1996 13.5073 22.5996 14.4073 22.0996 15.0073L21.2996 16.0073L22.0996 17.0073C22.6996 17.6073 22.1996 18.5073 21.3996 18.5073Z" fill="currentColor"/>
</svg>
