<svg width="24" height="24" viewBox="0 0 24 24" fill="none" xmlns="http://www.w3.org/2000/svg">
<path d="M6 21C6 21.6 6.4 22 7 22H17C17.6 22 18 21.6 18 21V20H6V21Z" fill="currentColor"/>
<path d="M12 4C11.4 4 11 3.6 11 3V2H13V3C13 3.6 12.6 4 12 4Z" fill="currentColor"/>
<path opacity="0.3" d="M18 3V20H6V3C6 2.4 6.4 2 7 2H17C17.6 2 18 2.4 18 3ZM16 11C16 8.5 13.7 6.49998 11.1 7.09998C9.60001 7.39998 8.50001 8.6001 8.10001 10.1001C7.80001 11.5001 8.2 12.7 9 13.7L11.2 16.2C11.6 16.6 12.3 16.6 12.7 16.2L14.9 13.7C15.6 13 16 12 16 11Z" fill="currentColor"/>
<path d="M12 12.5C12.8284 12.5 13.5 11.8284 13.5 11C13.5 10.1716 12.8284 9.5 12 9.5C11.1716 9.5 10.5 10.1716 10.5 11C10.5 11.8284 11.1716 12.5 12 12.5Z" fill="currentColor"/>
</svg>
