<svg width="24" height="24" viewBox="0 0 24 24" fill="none" xmlns="http://www.w3.org/2000/svg">
<path opacity="0.3" d="M21 11H18.9C18.5 7.9 16 5.49998 13 5.09998V3C13 2.4 12.6 2 12 2C11.4 2 11 2.4 11 3V5.09998C7.9 5.49998 5.50001 8 5.10001 11H3C2.4 11 2 11.4 2 12C2 12.6 2.4 13 3 13H5.10001C5.50001 16.1 8 18.4999 11 18.8999V21C11 21.6 11.4 22 12 22C12.6 22 13 21.6 13 21V18.8999C16.1 18.4999 18.5 16 18.9 13H21C21.6 13 22 12.6 22 12C22 11.4 21.6 11 21 11ZM12 17C9.2 17 7 14.8 7 12C7 9.2 9.2 7 12 7C14.8 7 17 9.2 17 12C17 14.8 14.8 17 12 17Z" fill="currentColor"/>
<path d="M12 15C13.6569 15 15 13.6569 15 12C15 10.3431 13.6569 9 12 9C10.3431 9 9 10.3431 9 12C9 13.6569 10.3431 15 12 15Z" fill="currentColor"/>
</svg>
