<svg width="24" height="24" viewBox="0 0 24 24" fill="none" xmlns="http://www.w3.org/2000/svg">
<path d="M17.5 7.89998L14.8 14.8L13.4 13.3999C14.2 12.5999 14.2 11.4001 13.4 10.6001C12.6 9.80006 11.4 9.80006 10.6 10.6001L9.20001 9.19991L16.1 6.49996C17 6.19996 17.8 6.99998 17.5 7.89998ZM12.7 11.3C12.3 10.9 11.7 10.9 11.3 11.3C10.9 11.7 10.9 12.2999 11.3 12.6999C11.7 13.0999 12.3 13.0999 12.7 12.6999C13.1 12.2999 13.1 11.7 12.7 11.3Z" fill="currentColor"/>
<path opacity="0.3" d="M22 12C22 17.5 17.5 22 12 22C6.5 22 2 17.5 2 12C2 6.5 6.5 2 12 2C17.5 2 22 6.5 22 12ZM16.1 6.5L9.20001 9.19995L6.5 16.1001C6.2 17.0001 6.99999 17.8 7.89999 17.5L14.8 14.8L17.5 7.90002C17.8 7.00002 17 6.2 16.1 6.5Z" fill="currentColor"/>
</svg>
