<svg width="30" height="30" viewBox="0 0 30 30" fill="none" xmlns="http://www.w3.org/2000/svg">
<g clip-path="url(#clip0_1680_332)">
<path d="M8.01953 5.06836H21.8637V25.0262H8.01953V5.06836Z" fill="#6B7D8E"/>
<path d="M21.2773 5.06836H26.0553C27.9586 5.06836 29.5018 6.61148 29.5018 8.5151V21.5795C29.5018 23.4831 27.9586 25.0262 26.0553 25.0262H21.2773V5.06836Z" fill="#FF938A"/>
<path d="M8.60529 5.06836H3.82737C1.92398 5.06836 0.380859 6.61148 0.380859 8.5151V21.5795C0.380859 23.4831 1.92398 25.0262 3.82737 25.0262H8.60529V5.06836Z" fill="#76E7E7"/>
<path d="M0.380859 8.5151V21.5795C0.380859 23.4831 1.92398 25.0262 3.82737 25.0262H7.88843C5.98481 25.0262 4.44169 23.4831 4.44169 21.5795V8.5151C4.44169 6.61148 5.98481 5.06859 7.88797 5.06836H3.82737C1.92398 5.06836 0.380859 6.61148 0.380859 8.5151Z" fill="#2EDDDA"/>
<path d="M29.5022 8.5151V21.5795C29.5022 23.4831 27.9591 25.0262 26.0557 25.0262H21.9946C23.8982 25.0262 25.4414 23.4831 25.4414 21.5795V8.5151C25.4414 6.61148 23.8982 5.06859 21.9951 5.06836H26.0557C27.9591 5.06836 29.5022 6.61148 29.5022 8.5151Z" fill="#FB695B"/>
<path d="M26.2686 9.66016C26.2686 10.1456 25.8751 10.5391 25.3896 10.5391C24.9044 10.5391 24.5107 10.1456 24.5107 9.66016C24.5107 9.1747 24.9044 8.78125 25.3896 8.78125C25.8751 8.78125 26.2686 9.1747 26.2686 9.66016Z" fill="#546370"/>
<path d="M26.2686 13.9043C26.2686 14.3898 25.8751 14.7832 25.3896 14.7832C24.9044 14.7832 24.5107 14.3898 24.5107 13.9043C24.5107 13.4188 24.9044 13.0254 25.3896 13.0254C25.8751 13.0254 26.2686 13.4188 26.2686 13.9043Z" fill="#546370"/>
<path d="M28.3911 11.7827C28.3911 12.2679 27.9977 12.6616 27.5122 12.6616C27.0267 12.6616 26.6333 12.2679 26.6333 11.7827C26.6333 11.2973 27.0267 10.9038 27.5122 10.9038C27.9977 10.9038 28.3911 11.2973 28.3911 11.7827Z" fill="#546370"/>
<path d="M24.1465 11.7827C24.1465 12.2679 23.7528 12.6616 23.2676 12.6616C22.7821 12.6616 22.3887 12.2679 22.3887 11.7827C22.3887 11.2973 22.7821 10.9038 23.2676 10.9038C23.7528 10.9038 24.1465 11.2973 24.1465 11.7827Z" fill="#546370"/>
<path d="M27.13 19.573C27.13 20.5341 26.3509 21.3132 25.3899 21.3132C24.429 21.3132 23.6499 20.5341 23.6499 19.573C23.6499 18.6119 24.429 17.833 25.3899 17.833C26.3509 17.833 27.13 18.6119 27.13 19.573Z" fill="#546370"/>
<path d="M5.37256 20.4346C5.37256 20.9198 4.97888 21.3135 4.49365 21.3135C4.00819 21.3135 3.61475 20.9198 3.61475 20.4346C3.61475 19.9491 4.00819 19.5557 4.49365 19.5557C4.97888 19.5557 5.37256 19.9491 5.37256 20.4346Z" fill="#546370"/>
<path d="M5.37256 16.1899C5.37256 16.6754 4.97888 17.0688 4.49365 17.0688C4.00819 17.0688 3.61475 16.6754 3.61475 16.1899C3.61475 15.7045 4.00819 15.311 4.49365 15.311C4.97888 15.311 5.37256 15.7045 5.37256 16.1899Z" fill="#546370"/>
<path d="M7.49414 18.312C7.49414 18.7975 7.10069 19.1909 6.61524 19.1909C6.12978 19.1909 5.73633 18.7975 5.73633 18.312C5.73633 17.8266 6.12978 17.4331 6.61524 17.4331C7.10069 17.4331 7.49414 17.8266 7.49414 18.312Z" fill="#546370"/>
<path d="M3.25001 18.312C3.25001 18.7975 2.85656 19.1909 2.3711 19.1909C1.88564 19.1909 1.49219 18.7975 1.49219 18.312C1.49219 17.8266 1.88564 17.4331 2.3711 17.4331C2.85656 17.4331 3.25001 17.8266 3.25001 18.312Z" fill="#546370"/>
<path d="M6.23308 10.5212C6.23308 11.4823 5.45397 12.2614 4.49312 12.2614C3.53204 12.2614 2.75293 11.4823 2.75293 10.5212C2.75293 9.56036 3.53204 8.78125 4.49312 8.78125C5.45397 8.78125 6.23308 9.56036 6.23308 10.5212Z" fill="#546370"/>
<path d="M15.8225 15.1449C15.8225 14.5251 15.4281 14.0225 14.9415 14.0225C14.4549 14.0225 14.0605 14.5251 14.0605 15.1449C14.0605 15.7647 14.4549 16.2671 14.9415 16.2671C15.4281 16.2671 15.8225 15.7647 15.8225 15.1449Z" fill="#454545"/>
<path d="M18.563 13.8271C18.3204 13.8271 18.1235 14.024 18.1235 14.2666V14.9961C18.1235 15.2389 18.3204 15.4355 18.563 15.4355C18.8058 15.4355 19.0024 15.2389 19.0024 14.9961V14.2666C19.0024 14.024 18.8058 13.8271 18.563 13.8271Z" fill="black"/>
<path d="M11.3198 13.8271C11.077 13.8271 10.8804 14.024 10.8804 14.2666V14.9961C10.8804 15.2389 11.077 15.4355 11.3198 15.4355C11.5624 15.4355 11.7593 15.2389 11.7593 14.9961V14.2666C11.7593 14.024 11.5624 13.8271 11.3198 13.8271Z" fill="black"/>
<path d="M26.0555 4.62891H5.60121C5.35836 4.62891 5.16175 4.82575 5.16175 5.06836C5.16175 5.31098 5.35836 5.50781 5.60121 5.50781H8.16583V24.5865H3.82737C2.16935 24.5868 0.820314 23.2375 0.820314 21.5795V8.5151C0.820314 6.85685 2.16935 5.50781 3.82737 5.50781C4.07021 5.50781 4.26682 5.3112 4.26682 5.06836C4.26682 4.82575 4.07021 4.62891 3.82737 4.62891C1.6848 4.62891 -0.0585938 6.37207 -0.0585938 8.5151V21.5795C-0.0585938 23.7223 1.6848 25.4657 3.82737 25.4657H26.0553C28.1981 25.4657 29.9415 23.7223 29.9415 21.5795V8.5151C29.9415 6.37207 28.1981 4.62891 26.0555 4.62891ZM9.04474 5.50781H20.8381V24.5865H9.04474V5.50781ZM29.0626 21.5795C29.0626 23.2375 27.7135 24.5865 26.0555 24.5865H21.717V5.50781H26.0555C27.7135 5.50781 29.0626 6.85685 29.0626 8.51487V21.5795Z" fill="black"/>
<path d="M25.3896 10.9785C26.1168 10.9785 26.708 10.3871 26.708 9.66016C26.708 8.93323 26.1168 8.3418 25.3896 8.3418C24.6627 8.3418 24.0713 8.93323 24.0713 9.66016C24.0713 10.3871 24.6627 10.9785 25.3896 10.9785ZM25.3896 9.2207C25.632 9.2207 25.8291 9.41777 25.8291 9.66016C25.8291 9.90254 25.632 10.0996 25.3896 10.0996C25.1475 10.0996 24.9502 9.90254 24.9502 9.66016C24.9502 9.41777 25.1475 9.2207 25.3896 9.2207Z" fill="black"/>
<path d="M24.0713 13.9043C24.0713 14.6312 24.6627 15.2227 25.3896 15.2227C26.1168 15.2227 26.708 14.6312 26.708 13.9043C26.708 13.1774 26.1168 12.5859 25.3896 12.5859C24.6627 12.5859 24.0713 13.1774 24.0713 13.9043ZM25.3896 13.4648C25.632 13.4648 25.8291 13.6619 25.8291 13.9043C25.8291 14.1467 25.632 14.3438 25.3896 14.3438C25.1475 14.3438 24.9502 14.1467 24.9502 13.9043C24.9502 13.6619 25.1475 13.4648 25.3896 13.4648Z" fill="black"/>
<path d="M26.1934 11.7822C26.1934 12.5092 26.7848 13.1006 27.5117 13.1006C28.2386 13.1006 28.8301 12.5092 28.8301 11.7822C28.8301 11.0553 28.2386 10.4639 27.5117 10.4639C26.7848 10.4639 26.1934 11.0553 26.1934 11.7822ZM27.9512 11.7822C27.9512 12.0246 27.7541 12.2217 27.5117 12.2217C27.2693 12.2217 27.0723 12.0246 27.0723 11.7822C27.0723 11.5401 27.2693 11.3428 27.5117 11.3428C27.7541 11.3428 27.9512 11.5401 27.9512 11.7822Z" fill="black"/>
<path d="M24.586 11.7822C24.586 11.0553 23.9945 10.4639 23.2676 10.4639C22.5407 10.4639 21.9492 11.0553 21.9492 11.7822C21.9492 12.5092 22.5407 13.1006 23.2676 13.1006C23.9945 13.1006 24.586 12.5094 24.586 11.7822ZM22.8281 11.7822C22.8281 11.5401 23.0252 11.3428 23.2676 11.3428C23.51 11.3428 23.7071 11.5401 23.7071 11.7822C23.7071 12.0246 23.51 12.2217 23.2676 12.2217C23.0252 12.2217 22.8281 12.0246 22.8281 11.7822Z" fill="black"/>
<path d="M25.3899 17.3936C24.1882 17.3936 23.2104 18.3713 23.2104 19.573C23.2104 20.7748 24.1882 21.7524 25.3899 21.7524C25.7593 21.7524 26.1246 21.6583 26.4457 21.48C26.6581 21.3624 26.7345 21.0948 26.6169 20.8827C26.499 20.6705 26.2317 20.5936 26.0195 20.7114C25.8284 20.8176 25.6107 20.8737 25.3899 20.8737C24.6728 20.8737 24.0894 20.2903 24.0894 19.573C24.0894 18.8559 24.6728 18.2725 25.3899 18.2725C26.1072 18.2725 26.6906 18.8559 26.6906 19.573C26.6906 19.8158 26.8872 20.0124 27.13 20.0124C27.3727 20.0124 27.5695 19.8158 27.5695 19.573C27.5695 18.3713 26.5917 17.3936 25.3899 17.3936Z" fill="black"/>
<path d="M4.49317 21.7529C5.2201 21.7529 5.81153 21.1615 5.81153 20.4346C5.81153 19.7076 5.2201 19.1162 4.49317 19.1162C3.76601 19.1162 3.1748 19.7076 3.1748 20.4346C3.1748 21.1615 3.76601 21.7529 4.49317 21.7529ZM4.49317 19.9951C4.73533 19.9951 4.93262 20.1922 4.93262 20.4346C4.93262 20.6767 4.73533 20.874 4.49317 20.874C4.25078 20.874 4.05371 20.6767 4.05371 20.4346C4.05371 20.1922 4.25078 19.9951 4.49317 19.9951Z" fill="black"/>
<path d="M4.49317 17.5083C5.2201 17.5083 5.81153 16.9169 5.81153 16.1899C5.81153 15.463 5.2201 14.8716 4.49317 14.8716C3.76601 14.8716 3.1748 15.463 3.1748 16.1899C3.1748 16.9169 3.76601 17.5083 4.49317 17.5083ZM4.49317 15.7505C4.73533 15.7505 4.93262 15.9476 4.93262 16.1899C4.93262 16.4323 4.73533 16.6294 4.49317 16.6294C4.25078 16.6294 4.05371 16.4323 4.05371 16.1899C4.05371 15.9476 4.25078 15.7505 4.49317 15.7505Z" fill="black"/>
<path d="M7.9336 18.312C7.9336 17.5851 7.34216 16.9937 6.61524 16.9937C5.88831 16.9937 5.29688 17.5851 5.29688 18.312C5.29688 19.0389 5.88831 19.6304 6.61524 19.6304C7.34216 19.6304 7.9336 19.0389 7.9336 18.312ZM6.17578 18.312C6.17578 18.0696 6.37285 17.8726 6.61524 17.8726C6.85762 17.8726 7.05469 18.0696 7.05469 18.312C7.05469 18.5544 6.85762 18.7515 6.61524 18.7515C6.37308 18.7515 6.17578 18.5544 6.17578 18.312Z" fill="black"/>
<path d="M1.05273 18.312C1.05273 19.0389 1.64417 19.6304 2.3711 19.6304C3.09803 19.6304 3.68946 19.0389 3.68946 18.312C3.68946 17.5851 3.09803 16.9937 2.3711 16.9937C1.64417 16.9937 1.05273 17.5851 1.05273 18.312ZM2.81055 18.312C2.81055 18.5544 2.61348 18.7515 2.3711 18.7515C2.12871 18.7515 1.93164 18.5544 1.93164 18.312C1.93164 18.0696 2.12871 17.8726 2.3711 17.8726C2.61348 17.8726 2.81055 18.0696 2.81055 18.312Z" fill="black"/>
<path d="M4.49312 8.3418C3.29126 8.3418 2.31348 9.31958 2.31348 10.5212C2.31348 11.7231 3.29126 12.7006 4.49312 12.7006C5.69475 12.7006 6.67254 11.7229 6.67254 10.5212C6.67254 9.31958 5.69475 8.3418 4.49312 8.3418ZM4.49312 11.8217C3.77581 11.8217 3.19238 11.2383 3.19238 10.5212C3.19238 9.80413 3.77581 9.22071 4.49312 9.22071C5.21021 9.22071 5.79363 9.80413 5.79363 10.5212C5.79363 11.2383 5.21021 11.8217 4.49312 11.8217Z" fill="black"/>
<path d="M14.9415 13.583C14.2134 13.583 13.6211 14.2836 13.6211 15.1449C13.6211 16.0059 14.2134 16.7066 14.9415 16.7066C15.6696 16.7066 16.2619 16.0059 16.2619 15.1449C16.2619 14.2836 15.6696 13.583 14.9415 13.583ZM14.9415 15.8276C14.7328 15.8276 14.5 15.5473 14.5 15.1449C14.5 14.7425 14.7328 14.4619 14.9415 14.4619C15.1502 14.4619 15.383 14.7425 15.383 15.1449C15.383 15.5473 15.1502 15.8276 14.9415 15.8276Z" fill="black"/>
</g>
<defs>
<clipPath id="clip0_1680_332">
<rect width="30" height="30" fill="white"/>
</clipPath>
</defs>
</svg>
