<svg width="30" height="30" viewBox="0 0 30 30" fill="none" xmlns="http://www.w3.org/2000/svg">
<g clip-path="url(#clip0_1734_2357)">
<path d="M12.6885 13.9236L15.9592 11.2124C16.0745 11.1168 16.0993 10.9496 16.0166 10.8247L14.3854 8.35904C14.2862 8.20904 14.0766 8.18285 13.9435 8.30385L12.6885 9.44478V13.9236Z" fill="#7CD7F1"/>
<path d="M0.439941 3.01998V17.9266C0.439941 18.0886 0.57125 18.2199 0.733262 18.2199H11.7433C11.9053 18.2199 12.0366 18.0886 12.0366 17.9266V15.7062L12.6883 13.9238V1.55748C12.6883 1.39547 12.557 1.26416 12.3949 1.26416H3.68334C3.52133 1.26416 3.39002 1.39547 3.39002 1.55748V2.72666H0.733262C0.571309 2.72666 0.439941 2.85797 0.439941 3.01998Z" fill="#ED5E4A"/>
<path d="M12.688 1.55748V13.9243L12.0363 15.7065V17.9269C12.0363 18.0889 11.905 18.2202 11.7429 18.2202H10.1309V15.7065L10.7826 13.9243V1.26416H12.3947C12.5567 1.26416 12.688 1.39547 12.688 1.55748Z" fill="#D85041"/>
<path d="M16.5286 10.8018L14.5634 7.83109C14.443 7.64922 14.1979 7.57199 13.9748 7.69047C13.9552 7.7009 13.9373 7.71479 13.9208 7.72979L13.1282 8.45037V1.11754C13.1282 0.955527 12.9969 0.824219 12.8348 0.824219H3.24334C3.08133 0.824219 2.95002 0.955527 2.95002 1.11754V2.28672H0.29332C0.131309 2.28672 0 2.41803 0 2.58004V18.3666C0 18.5286 0.131309 18.6599 0.29332 18.6599H12.1833C12.3454 18.6599 12.4767 18.5286 12.4767 18.3666V15.7842L13.0607 14.1866L16.4425 11.3833C16.6155 11.2399 16.6526 10.9892 16.5286 10.8018ZM12.2483 9.445V13.8459L11.7625 15.1749H9.94406C9.70318 15.1749 9.49307 15.3605 9.48586 15.6013C9.47836 15.8505 9.67811 16.0548 9.92561 16.0548H11.5966V17.4866C11.5966 17.6487 11.4653 17.78 11.3033 17.78H1.17328C1.01127 17.78 0.879961 17.6487 0.879961 17.4866V16.0548H6.8274C7.06828 16.0548 7.2784 15.8692 7.28561 15.6284C7.29311 15.3792 7.09336 15.1749 6.84586 15.1749H0.879961V8.14398H12.2483V9.445ZM12.2483 7.26402H0.879961V3.45994C0.879961 3.29793 1.01127 3.16662 1.17328 3.16662H2.95002V6.17307C2.95002 6.414 3.1357 6.62406 3.37652 6.63127C3.62566 6.63871 3.82998 6.43896 3.82998 6.19152V2.72664V1.9975C3.82998 1.83549 3.96129 1.70418 4.1233 1.70418H5.94135V6.17312C5.94135 6.41406 6.12703 6.62412 6.36785 6.63133C6.61699 6.63877 6.82131 6.43902 6.82131 6.19158V1.70418H9.09486V6.17312C9.09486 6.41406 9.28055 6.62412 9.52137 6.63133C9.77051 6.63877 9.97482 6.43902 9.97482 6.19158V1.70418H11.9551C12.1171 1.70418 12.2484 1.83549 12.2484 1.9975V7.26402H12.2483ZM13.1282 12.9876V9.63959L13.8595 8.97479C13.9926 8.85379 14.2022 8.87998 14.3014 9.02998L15.4315 10.7382C15.5142 10.8631 15.4894 11.0303 15.3741 11.1259L13.1282 12.9876Z" fill="black"/>
<path d="M17.3114 24.4397L14.0407 21.7285C13.9254 21.6329 13.9006 21.4658 13.9833 21.3408L15.6145 18.8752C15.7137 18.7252 15.9233 18.699 16.0564 18.82L17.3114 19.9609V24.4397Z" fill="#7CD7F1"/>
<path d="M29.5598 13.5361V28.4427C29.5598 28.6047 29.4285 28.736 29.2665 28.736H18.2565C18.0945 28.736 17.9631 28.6047 17.9631 28.4427V26.2223L17.3115 24.4399V12.0736C17.3115 11.9116 17.4428 11.7803 17.6048 11.7803H26.3165C26.4785 11.7803 26.6098 11.9116 26.6098 12.0736V13.2428H29.2665C29.4285 13.2428 29.5598 13.3741 29.5598 13.5361Z" fill="#ED5E4A"/>
<path d="M29.5603 13.5359V28.4428C29.5603 28.6048 29.4289 28.7362 29.2669 28.7362H27.8232V13.2427H29.2669C29.4289 13.2427 29.5603 13.374 29.5603 13.5359Z" fill="#D85041"/>
<path d="M29.7068 12.8023H27.0501V11.6332C27.0501 11.4712 26.9188 11.3398 26.7568 11.3398H17.1652C17.0032 11.3398 16.8719 11.4712 16.8719 11.6332V18.9661L16.0996 18.264C16.0046 18.1776 15.8769 18.1371 15.7491 18.1529C15.6217 18.1689 15.5076 18.2397 15.4367 18.3468L13.4715 21.3175C13.3475 21.5049 13.3847 21.7556 13.5576 21.899L16.9395 24.7023L17.5235 26.2998V28.8823C17.5235 29.0443 17.6548 29.1756 17.8168 29.1756H19.2239C19.4714 29.1756 19.6711 28.9712 19.6636 28.7221C19.6564 28.4813 19.4463 28.2956 19.2054 28.2956H18.6968C18.5348 28.2956 18.4035 28.1643 18.4035 28.0023V26.5705H29.1202V28.0023C29.1202 28.1643 28.9889 28.2956 28.8269 28.2956H22.333C22.0855 28.2956 21.8858 28.5 21.8933 28.7492C21.9005 28.99 22.1106 29.1756 22.3515 29.1756H29.7068C29.8688 29.1756 30.0002 29.0443 30.0002 28.8823V13.0957C30.0002 12.9337 29.8688 12.8023 29.7068 12.8023ZM18.0452 12.2198H20.0254V16.7072C20.0254 16.9502 20.2224 17.1472 20.4654 17.1472C20.7084 17.1472 20.9054 16.9502 20.9054 16.7072V12.2198H23.179V16.7072C23.179 16.9502 23.3759 17.1472 23.6189 17.1472C23.862 17.1472 24.0589 16.9502 24.0589 16.7072V12.2198H26.1703V13.2423V16.7071C26.1703 16.9501 26.3672 17.1471 26.6103 17.1471C26.8533 17.1471 27.0502 16.9501 27.0502 16.7071V13.6822H28.827C28.989 13.6822 29.1203 13.8136 29.1203 13.9756V17.7796H17.7519V12.513C17.7519 12.3511 17.8832 12.2198 18.0452 12.2198ZM14.5686 21.2539L15.6987 19.5457C15.798 19.3957 16.0076 19.3695 16.1406 19.4905L16.8719 20.1553V23.5033L14.626 21.6416C14.5107 21.546 14.4859 21.3788 14.5686 21.2539ZM18.2377 25.6905L17.7519 24.3616V19.9606V18.6596H29.1202V25.6904L18.2377 25.6905Z" fill="black"/>
</g>
<defs>
<clipPath id="clip0_1734_2357">
<rect width="30" height="30" fill="white"/>
</clipPath>
</defs>
</svg>
