<svg width="30" height="30" viewBox="0 0 30 30" fill="none" xmlns="http://www.w3.org/2000/svg">
<path d="M29.2675 22.3763H0.732422C0.570645 22.3763 0.439453 22.2451 0.439453 22.0834V19.3599H29.5604V22.0834C29.5604 22.2451 29.4292 22.3763 29.2675 22.3763Z" fill="#E8EAE9"/>
<path d="M29.2377 22.3763H26.5142V19.3599H29.5306V22.0834C29.5306 22.2451 29.3995 22.3763 29.2377 22.3763Z" fill="#D6D4D4"/>
<path d="M10.1424 7.70597C10.2807 7.57179 10.5076 7.60624 10.6021 7.77423C14.479 14.6646 24.0708 14.8736 24.0708 14.8736C29.9974 15.0015 29.5529 19.3599 29.5529 19.3599H0.439453V9.93664C0.439453 9.74966 0.611778 9.61033 0.794415 9.65035C2.04399 9.92386 6.32222 10.6498 9.25836 8.56314L10.1424 7.70597Z" fill="#9DD74E"/>
<path d="M29.5526 19.3596L26.5144 19.3597C25.9806 18.0542 25.7762 16.5231 22.1955 16.4458C22.1955 16.4458 12.3113 16.2301 8.08203 9.22935C8.48984 9.0483 8.88477 8.82857 9.25801 8.56314L10.142 7.70597C10.2803 7.57179 10.5072 7.60624 10.6017 7.77423C14.4788 14.6643 24.0706 14.8737 24.0706 14.8737C29.9973 15.0014 29.5526 19.3596 29.5526 19.3596Z" fill="#80C11A"/>
<path d="M28.9103 16.2398C27.8933 15.089 26.2682 14.4815 24.0803 14.4343C24.057 14.4338 21.7132 14.3732 18.9229 13.4889C18.5165 13.3601 18.0874 13.2089 17.6454 13.0322L17.6943 12.952C17.8195 12.7465 17.7705 12.4709 17.5689 12.3395C17.3603 12.2036 17.0821 12.2677 16.9534 12.4788L16.8296 12.6817C16.3007 12.4382 15.7623 12.1571 15.2296 11.8326L15.3 11.7619C15.4698 11.5916 15.4867 11.3122 15.3215 11.1372C15.1506 10.9562 14.8651 10.9532 14.6905 11.1285L14.478 11.3417C14.0504 11.0423 13.6319 10.7119 13.23 10.3484C13.374 10.1789 13.3719 9.92026 13.2053 9.75315C13.0437 9.59102 12.7806 9.5892 12.604 9.73481L12.6021 9.73633C11.9983 9.1024 11.4479 8.38123 10.9851 7.55875C10.8657 7.34646 10.654 7.20888 10.4095 7.18685C10.1925 7.16734 9.979 7.25212 9.82262 7.40377L8.97687 8.22379C7.91158 8.97203 6.54089 9.41031 4.90231 9.52668C4.6602 9.54391 4.47792 9.75408 4.49509 9.99619C4.5122 10.2383 4.72261 10.4201 4.96454 10.4034C6.05075 10.3263 7.0339 10.1157 7.90677 9.77693C10.5627 13.8883 15.101 15.6373 18.483 16.3804C18.5148 16.3874 18.5465 16.3908 18.5777 16.3908C18.7831 16.3908 18.9677 16.2459 19.0087 16.0348C19.0547 15.7983 18.8917 15.5705 18.6565 15.5187C17.974 15.3683 17.2425 15.1751 16.4898 14.9276L17.181 13.7938C17.6567 13.9875 18.1489 14.1655 18.6573 14.3266C20.4096 14.882 21.9747 15.1253 22.9646 15.2315V18.9203H0.878908V18.1992H1.8917C2.04475 18.1992 2.18139 18.0873 2.19586 17.935C2.2125 17.7602 2.07551 17.6133 1.90424 17.6133H0.878908V10.1173C1.11557 10.1656 1.4345 10.2244 1.81043 10.2776C2.03168 10.309 2.25112 10.1765 2.30918 9.96068C2.37932 9.70018 2.20518 9.44565 1.94661 9.4092C1.49948 9.34627 1.13807 9.2752 0.907912 9.22522C0.703478 9.1808 0.486681 9.21496 0.315001 9.33449C0.115664 9.4733 0 9.69631 0 9.9366V19.3598V22.5227C0 22.6845 0.131192 22.8157 0.292969 22.8157H24.5324C24.773 22.8157 24.9828 22.6303 24.99 22.3897C24.9975 22.1409 24.798 21.9368 24.5508 21.9368H1.17188C1.0101 21.9368 0.878908 21.8056 0.878908 21.6438V21.3074H21.9248C22.1655 21.3074 22.3753 21.122 22.3825 20.8815C22.3899 20.6326 22.1904 20.4285 21.9432 20.4285H0.878908V19.7992H29.121V21.6438C29.121 21.8056 28.9898 21.9368 28.828 21.9368H27.7137C27.4731 21.9368 27.2633 22.1223 27.2561 22.3628C27.2486 22.6116 27.4481 22.8157 27.6953 22.8157H29.7069C29.8687 22.8157 29.9999 22.6845 29.9999 22.5227V19.3598C29.9999 19.3423 29.9986 19.3251 29.9966 19.3081C30.0145 18.9225 30.0006 17.4734 28.9103 16.2398ZM12.6586 13.168C12.1368 12.8436 11.6274 12.4827 11.1397 12.0812L12.547 10.921C12.9504 11.2942 13.3827 11.6468 13.8442 11.9774L12.671 13.1542C12.6666 13.1586 12.6628 13.1634 12.6586 13.168ZM8.71619 9.40908C8.99556 9.26178 9.26182 9.09977 9.51295 8.92129C9.53111 8.90834 9.54828 8.8941 9.56428 8.87857L10.3127 8.15283C10.7621 8.92234 11.2992 9.63906 11.9193 10.2993L10.5559 11.4234C10.5274 11.4469 10.5031 11.4735 10.4822 11.5019C9.83439 10.8903 9.23732 10.1962 8.71619 9.40908ZM15.643 14.6283C14.9116 14.3512 14.1702 14.0202 13.4431 13.6246L14.5878 12.4764C15.1458 12.8264 15.7404 13.1475 16.3677 13.4395L15.643 14.6283ZM23.8437 18.9204V15.304C23.97 15.3107 24.0452 15.3126 24.0613 15.313C25.987 15.3546 27.3938 15.8588 28.2428 16.8118C28.909 17.5595 29.0744 18.4279 29.111 18.9204H23.8437Z" fill="black"/>
<path d="M22.4121 18.1992C22.5739 18.1992 22.7051 18.0681 22.7051 17.9063C22.7051 17.7444 22.5739 17.6133 22.4121 17.6133H20.9473C20.7854 17.6133 20.6543 17.7444 20.6543 17.9063C20.6543 18.0681 20.7854 18.1992 20.9473 18.1992H22.4121Z" fill="black"/>
<path d="M3.36914 18.1992H4.83399C4.99577 18.1992 5.12696 18.0681 5.12696 17.9063C5.12696 17.7444 4.99577 17.6133 4.83399 17.6133H3.36914C3.20736 17.6133 3.07617 17.7444 3.07617 17.9063C3.07617 18.0681 3.20736 18.1992 3.36914 18.1992Z" fill="black"/>
<path d="M13.6231 18.1992C13.7848 18.1992 13.916 18.0681 13.916 17.9063C13.916 17.7444 13.7848 17.6133 13.6231 17.6133H12.1582C11.9964 17.6133 11.8652 17.7444 11.8652 17.9063C11.8652 18.0681 11.9964 18.1992 12.1582 18.1992H13.6231Z" fill="black"/>
<path d="M19.4824 18.1992C19.6443 18.1992 19.7754 18.0681 19.7754 17.9063C19.7754 17.7444 19.6443 17.6133 19.4824 17.6133H18.0176C17.8557 17.6133 17.7246 17.7444 17.7246 17.9063C17.7246 18.0681 17.8557 18.1992 18.0176 18.1992H19.4824Z" fill="black"/>
<path d="M16.5527 18.1992C16.7146 18.1992 16.8457 18.0681 16.8457 17.9063C16.8457 17.7444 16.7146 17.6133 16.5527 17.6133H15.0879C14.9261 17.6133 14.7949 17.7444 14.7949 17.9063C14.7949 18.0681 14.9261 18.1992 15.0879 18.1992H16.5527Z" fill="black"/>
<path d="M10.6934 18.1992C10.8551 18.1992 10.9863 18.0681 10.9863 17.9063C10.9863 17.7444 10.8551 17.6133 10.6934 17.6133H9.22852C9.06674 17.6133 8.93555 17.7444 8.93555 17.9063C8.93555 18.0681 9.06674 18.1992 9.22852 18.1992H10.6934Z" fill="black"/>
<path d="M7.76368 18.1992C7.92545 18.1992 8.05665 18.0681 8.05665 17.9063C8.05665 17.7444 7.92545 17.6133 7.76368 17.6133H6.29883C6.13705 17.6133 6.00586 17.7444 6.00586 17.9063C6.00586 18.0681 6.13705 18.1992 6.29883 18.1992H7.76368Z" fill="black"/>
</svg>
