<svg width="30" height="30" viewBox="0 0 30 30" fill="none" xmlns="http://www.w3.org/2000/svg">
<g clip-path="url(#clip0_1680_469)">
<path d="M23.0594 7.31027V0.729356C23.0594 0.568164 22.9287 0.4375 22.7675 0.4375H19.934C19.7831 0.4375 19.6573 0.55293 19.6436 0.703223C19.4496 2.83469 18.73 4.17491 17.9132 5.01743C16.326 6.6546 13.6736 6.6546 12.0864 5.01743C11.2697 4.17497 10.5501 2.83475 10.356 0.703223C10.3423 0.552989 10.2165 0.4375 10.0656 0.4375H7.23209C7.0709 0.4375 6.94024 0.568164 6.94024 0.729356V7.31021C6.94024 7.85601 6.80729 8.39361 6.55293 8.87654L5.9459 10.029C5.69154 10.5119 5.55859 11.0495 5.55859 11.5953V29.2703C5.55859 29.4314 5.68926 29.5621 5.85045 29.5621H14.9998H24.1491C24.3103 29.5621 24.441 29.4314 24.441 29.2703V11.5954C24.441 11.0496 24.308 10.512 24.0537 10.029L23.4467 8.8766C23.1922 8.39367 23.0594 7.85607 23.0594 7.31027Z" fill="#7CD7F1"/>
<path d="M24.4413 11.5953V29.2703C24.4413 29.4314 24.3106 29.5621 24.1494 29.5621H22.1994V11.5953C22.1994 11.0496 22.0663 10.512 21.8119 10.0287L21.2048 8.8766C20.9504 8.39332 20.8179 7.85578 20.8179 7.31003V0.4375H22.7679C22.9291 0.4375 23.0597 0.568164 23.0597 0.729356V7.31009C23.0597 7.85584 23.1922 8.39338 23.4467 8.87666L24.0537 10.0288C24.3082 10.512 24.4413 11.0496 24.4413 11.5953Z" fill="#68C9E0"/>
<path d="M17.2293 11.2646H14.7494C14.621 11.2646 14.5077 11.3486 14.4702 11.4714L12.6638 17.3955C12.6066 17.583 12.7469 17.7724 12.9429 17.7724H14.8259C15.0259 17.7724 15.1666 17.9691 15.1021 18.1584L13.6824 22.3242C13.5733 22.6442 14.0046 22.8626 14.1979 22.5853L18.4156 16.5386C18.5505 16.3451 18.4121 16.0798 18.1762 16.0798H15.9228C15.7099 16.0798 15.5687 15.8592 15.6577 15.6659L17.4943 11.6785C17.5834 11.4852 17.4421 11.2646 17.2293 11.2646Z" fill="#FFD527"/>
<path d="M24.4411 9.8252L23.834 8.67271C23.6137 8.25435 23.4972 7.78332 23.4972 7.31041V0.729552C23.4972 0.327305 23.1699 0 22.7676 0H19.9341C19.5545 0 19.2423 0.285352 19.2078 0.663751C19.0484 2.41383 18.5072 3.7762 17.5991 4.71294C16.9146 5.41894 15.9915 5.80777 15 5.80777C14.0084 5.80777 13.0853 5.41894 12.4009 4.71294C11.4928 3.77614 10.9515 2.41383 10.7922 0.663693C10.7576 0.285352 10.4454 0 10.0658 0H7.23229C6.82998 0 6.50274 0.327305 6.50274 0.729552V7.31041C6.50274 7.78326 6.38625 8.25435 6.16588 8.67271L5.55885 9.82514C5.27244 10.3688 5.12109 10.981 5.12109 11.5955V12.5194C5.12109 12.7612 5.31709 12.9572 5.55885 12.9572C5.80061 12.9572 5.9966 12.7612 5.9966 12.5194V11.5955C5.9966 11.1226 6.11309 10.6515 6.33346 10.2332L6.94049 9.08076C7.2269 8.53707 7.37825 7.92488 7.37825 7.31041V0.87551H9.93306C10.1267 2.76721 10.7452 4.26288 11.7724 5.32237C12.6232 6.19999 13.7694 6.68333 15 6.68333C16.2305 6.68333 17.377 6.19993 18.2277 5.32237C19.2548 4.26288 19.8733 2.76721 20.067 0.87551H22.6218V7.31046C22.6218 7.925 22.7732 8.53713 23.0595 9.08082L23.6666 10.2333C23.8869 10.6517 24.0034 11.1227 24.0034 11.5956V21.6246C24.0034 21.8664 24.1994 22.0623 24.4412 22.0623C24.6829 22.0623 24.8789 21.8664 24.8789 21.6246V11.5956C24.8788 10.981 24.7275 10.3689 24.4411 9.8252Z" fill="black"/>
<path d="M24.4411 24.3093C24.1994 24.3093 24.0034 24.5053 24.0034 24.747V29.1245H5.9966V15.6712C5.9966 15.4294 5.80061 15.2334 5.55885 15.2334C5.31709 15.2334 5.12109 15.4294 5.12109 15.6712V29.2704C5.12109 29.6727 5.4484 29.9999 5.85065 29.9999H24.1493C24.5516 29.9999 24.8788 29.6726 24.8788 29.2704V24.747C24.8789 24.5053 24.6829 24.3093 24.4411 24.3093Z" fill="black"/>
<path d="M17.8434 11.1632C17.7085 10.9528 17.4789 10.8271 17.2291 10.8271H14.7491C14.426 10.8271 14.1455 11.0348 14.0513 11.3439L12.2448 17.2681C12.1777 17.4883 12.2194 17.7301 12.3564 17.9151C12.4934 18.1 12.7125 18.2105 12.9427 18.2105H14.6217L13.2678 22.1834C13.1493 22.531 13.3011 22.9037 13.6287 23.0696C13.7357 23.1238 13.8493 23.1498 13.9612 23.1498C14.192 23.1498 14.4153 23.039 14.5568 22.8361L18.7745 16.7894C18.9305 16.5656 18.9491 16.2764 18.8229 16.0346C18.6967 15.7927 18.4489 15.6424 18.1761 15.6424H16.1505L17.8918 11.862C17.9962 11.6349 17.9782 11.3737 17.8434 11.1632ZM15.26 15.483C15.1554 15.71 15.1734 15.9712 15.3081 16.1817C15.4429 16.3922 15.6726 16.5178 15.9225 16.5178H17.8963L14.4297 21.4878L15.5162 18.2999C15.5919 18.0776 15.5556 17.8309 15.4189 17.6399C15.2822 17.449 15.0604 17.3349 14.8257 17.3349H13.1397L14.8572 11.7026H17.0012L15.26 15.483Z" fill="black"/>
</g>
<defs>
<clipPath id="clip0_1680_469">
<rect width="30" height="30" fill="white"/>
</clipPath>
</defs>
</svg>
