<svg width="30" height="30" viewBox="0 0 30 30" fill="none" xmlns="http://www.w3.org/2000/svg">
<path d="M20.008 6.5009C19.9761 6.36982 19.8588 6.27783 19.724 6.27783H14.427H14.1896H8.89257C8.75768 6.27783 8.64044 6.36988 8.6085 6.5009C8.38532 7.41719 7.57087 10.9936 7.62407 14.1897C7.63286 14.7185 7.63286 15.2472 7.62407 15.7759C7.57087 18.9721 8.38532 22.5485 8.6085 23.4648C8.64044 23.5959 8.75768 23.6879 8.89257 23.6879H14.1896H14.427H19.724C19.8588 23.6879 19.9761 23.5958 20.008 23.4648C20.2312 22.5486 21.0457 18.9722 20.9925 15.776C20.9837 15.2472 20.9837 14.7185 20.9925 14.1897C21.0457 10.9936 20.2312 7.41719 20.008 6.5009Z" fill="#7CD7F1"/>
<path d="M17.3492 29.561H11.2675C11.106 29.561 10.9751 29.4301 10.9751 29.2686V22.8945H17.6416V29.2686C17.6415 29.4301 17.5106 29.561 17.3492 29.561Z" fill="#9DD74E"/>
<path d="M21.4003 16.1468H20.9927V14.1899H21.4003C21.9407 14.1899 22.3787 14.628 22.3787 15.1684C22.3787 15.7088 21.9406 16.1468 21.4003 16.1468Z" fill="#ED5E4A"/>
<path d="M20.9924 15.776C21.0454 18.9722 20.2309 22.5485 20.0077 23.4647C19.9758 23.5958 19.8586 23.6878 19.7237 23.6878H17.9146C17.9146 23.6878 19.0163 19.4772 18.9549 15.776C18.9461 15.2473 18.9461 14.7188 18.9549 14.1902C19.0163 10.489 17.9146 6.27832 17.9146 6.27832H19.7237C19.8586 6.27832 19.9758 6.37037 20.0077 6.50139C20.2309 7.41762 21.0454 10.9938 20.9924 14.1902C20.9836 14.7188 20.9836 15.2473 20.9924 15.776Z" fill="#68C9E0"/>
<path d="M19.0472 14.983C19.0472 17.6002 16.9255 19.722 14.3083 19.722C12.1628 19.722 10.3503 18.2962 9.76662 16.3405C9.6383 15.9105 9.56934 15.4548 9.56934 14.9831C9.56934 12.3659 11.691 10.2441 14.3083 10.2441C16.9255 10.2441 19.0472 12.3658 19.0472 14.983Z" fill="#E8EAE9"/>
<path d="M19.0473 14.9835C19.0473 17.6004 16.925 19.7221 14.308 19.7221C12.5168 19.7221 10.9571 18.728 10.1519 17.2613C10.9413 17.8508 11.9209 18.1993 12.9817 18.1993C15.5992 18.1993 17.7209 16.0777 17.7209 13.4607C17.7209 12.6343 17.5092 11.8571 17.1379 11.1812C18.2964 12.0455 19.0473 13.4268 19.0473 14.9835Z" fill="#D6D4D4"/>
<path d="M17.6411 7.10541H10.9746V0.731348C10.9746 0.569863 11.1055 0.438965 11.267 0.438965H17.3487C17.5102 0.438965 17.6411 0.569863 17.6411 0.731348V7.10541H17.6411Z" fill="#9DD74E"/>
<path d="M14.7468 17.6253V15.1901L17.0789 13.2741C17.2661 13.1203 17.2932 12.8439 17.1394 12.6568C16.9856 12.4696 16.7092 12.4425 16.5221 12.5963L14.0298 14.6439C13.9284 14.7272 13.8696 14.8516 13.8696 14.9828V17.6253C13.8696 17.8675 14.066 18.0638 14.3082 18.0638C14.5504 18.0638 14.7468 17.8675 14.7468 17.6253Z" fill="black"/>
<path d="M14.3084 9.80518C11.4535 9.80518 9.13086 12.1278 9.13086 14.9827C9.13086 15.442 9.19115 15.8978 9.31004 16.3374C9.37326 16.5712 9.61402 16.7096 9.84793 16.6463C10.0818 16.5831 10.2201 16.3422 10.1568 16.1084C10.0581 15.7434 10.008 15.3647 10.008 14.9827C10.008 12.6115 11.9371 10.6824 14.3083 10.6824C16.6795 10.6824 18.6086 12.6115 18.6086 14.9827C18.6086 17.3539 16.6795 19.283 14.3083 19.283C13.394 19.283 12.521 19 11.7839 18.4645C11.5879 18.3221 11.3136 18.3656 11.1713 18.5616C11.0289 18.7576 11.0724 19.0319 11.2684 19.1742C12.1563 19.8192 13.2076 20.1602 14.3083 20.1602C17.1632 20.1602 19.4858 17.8375 19.4858 14.9827C19.4858 12.1278 17.1632 9.80518 14.3084 9.80518Z" fill="black"/>
<path d="M12.2709 25.5269C12.1094 25.5269 11.9785 25.6578 11.9785 25.8192V27.2812C11.9785 27.4427 12.1094 27.5736 12.2709 27.5736C12.4324 27.5736 12.5633 27.4427 12.5633 27.2812V25.8192C12.5633 25.6578 12.4324 25.5269 12.2709 25.5269Z" fill="black"/>
<path d="M16.3456 25.5269C16.1841 25.5269 16.0532 25.6578 16.0532 25.8192V27.2812C16.0532 27.4427 16.1841 27.5736 16.3456 27.5736C16.5071 27.5736 16.638 27.4427 16.638 27.2812V25.8192C16.638 25.6578 16.507 25.5269 16.3456 25.5269Z" fill="black"/>
<path d="M21.4321 13.752C21.4263 12.9261 21.3693 12.0229 21.2606 11.0576L21.2452 10.9236C21.2175 10.683 21.0004 10.5103 20.7593 10.538C20.5187 10.5656 20.346 10.7831 20.3736 11.0238L20.3889 11.1567C20.5132 12.26 20.5686 13.278 20.5535 14.1825C20.5447 14.7125 20.5447 15.2499 20.5535 15.7799V16.1466C20.5535 16.1581 20.5543 16.1694 20.5552 16.1807C20.5402 19.0796 19.8642 22.1798 19.6085 23.2493H18.0797V22.8948C18.0797 22.6526 17.8833 22.4562 17.6411 22.4562H10.9746C10.7324 22.4562 10.536 22.6526 10.536 22.8948V23.2493H9.00727C8.73985 22.1308 8.01212 18.7908 8.06221 15.7833C8.07106 15.2522 8.07106 14.7136 8.06221 14.1825C8.01212 11.1751 8.73985 7.83504 9.00727 6.71648H10.536V7.10502C10.536 7.34725 10.7324 7.54359 10.9746 7.54359H17.6411C17.8833 7.54359 18.0797 7.34725 18.0797 7.10502V6.71648H19.6084C19.6415 6.855 19.6754 7.00178 19.7097 7.15447C19.7721 7.43279 19.8333 7.72148 19.8916 8.01258C19.9334 8.221 20.1165 8.36508 20.3212 8.36508C20.3497 8.36508 20.3787 8.36227 20.4079 8.35647C20.6454 8.30889 20.7993 8.07773 20.7517 7.8402C20.6921 7.54266 20.6295 7.24734 20.5657 6.96252C20.5209 6.76289 20.4765 6.57264 20.4338 6.39709C20.3538 6.06861 20.0617 5.83922 19.7236 5.83922H18.0798V0.731016C18.0798 0.327949 17.7518 0 17.3487 0H11.2671C10.864 0 10.536 0.327949 10.536 0.731016V5.83939H8.8922C8.55405 5.83939 8.26202 6.06879 8.18198 6.39727C7.9346 7.41293 7.13151 10.9771 7.18518 14.1971C7.19386 14.7186 7.19386 15.2473 7.18518 15.7687C7.13157 18.9888 7.9346 22.553 8.18198 23.5687C8.26202 23.8972 8.55405 24.1266 8.8922 24.1266H10.536V29.269C10.536 29.6721 10.864 30 11.2671 30H17.3487C17.7518 30 18.0798 29.6721 18.0798 29.269V24.1266H19.7236C20.0617 24.1266 20.3538 23.8972 20.4338 23.5687C20.6605 22.6382 21.3533 19.5688 21.4267 16.5846C22.1956 16.57 22.8167 15.9405 22.8167 15.1682C22.8167 14.3977 22.1985 13.7693 21.4321 13.752ZM11.4133 0.877207H11.9782V1.84213C11.9782 2.00361 12.1091 2.13451 12.2705 2.13451C12.432 2.13451 12.5629 2.00361 12.5629 1.84213V0.877207H16.0528V1.84213C16.0528 2.00361 16.1837 2.13451 16.3452 2.13451C16.5067 2.13451 16.6376 2.00361 16.6376 1.84213V0.877207H17.2025V6.6665H16.6376V6.22811C16.6376 6.06662 16.5067 5.93572 16.3452 5.93572C16.1837 5.93572 16.0528 6.06662 16.0528 6.22811V6.6665H12.5629V6.22811C12.5629 6.06662 12.432 5.93572 12.2705 5.93572C12.1091 5.93572 11.9782 6.06662 11.9782 6.22811V6.6665H11.4133V0.877207ZM17.2025 29.1228H16.6376V28.7429C16.6376 28.5814 16.5067 28.4505 16.3453 28.4505C16.1838 28.4505 16.0529 28.5814 16.0529 28.7429V29.1228H12.563V28.7429C12.563 28.5814 12.4321 28.4505 12.2706 28.4505C12.1091 28.4505 11.9782 28.5814 11.9782 28.7429V29.1228H11.4133V23.3335H11.9782V24.3569C11.9782 24.5184 12.1091 24.6493 12.2706 24.6493C12.4321 24.6493 12.563 24.5184 12.563 24.3569V23.3335H16.0529V24.3569C16.0529 24.5184 16.1838 24.6493 16.3453 24.6493C16.5067 24.6493 16.6376 24.5184 16.6376 24.3569V23.3335H17.2025V29.1228ZM21.4307 15.7072V14.6292C21.714 14.6453 21.9396 14.8809 21.9396 15.1682C21.9395 15.4554 21.714 15.691 21.4307 15.7072Z" fill="black"/>
<path d="M12.2709 5.05852C12.4324 5.05852 12.5633 4.92762 12.5633 4.76613V3.3041C12.5633 3.14262 12.4324 3.01172 12.2709 3.01172C12.1094 3.01172 11.9785 3.14262 11.9785 3.3041V4.76607C11.9785 4.92762 12.1094 5.05852 12.2709 5.05852Z" fill="black"/>
<path d="M16.3456 5.05852C16.5071 5.05852 16.638 4.92762 16.638 4.76613V3.3041C16.638 3.14262 16.5071 3.01172 16.3456 3.01172C16.1841 3.01172 16.0532 3.14262 16.0532 3.3041V4.76607C16.0532 4.92762 16.1841 5.05852 16.3456 5.05852Z" fill="black"/>
</svg>
