<svg width="68" height="24" viewBox="0 0 68 24" fill="none" xmlns="http://www.w3.org/2000/svg">
<path d="M0 18.7978V16.6793L5.52509 8.58101H0.610947V5.49721H10.3861V7.58883L4.86101 15.714H10.572V18.7978H0Z" fill="#5048ED"/>
<path d="M17.9402 19.1196C17.0017 19.1196 16.1251 18.9676 15.3105 18.6637C14.4959 18.3419 13.7875 17.886 13.1855 17.2961C12.5834 16.6883 12.1141 15.9553 11.7776 15.0972C11.4412 14.2391 11.2729 13.2559 11.2729 12.1475C11.2729 11.0749 11.45 10.1095 11.8042 9.2514C12.1584 8.37542 12.6188 7.64246 13.1855 7.05251C13.7698 6.44469 14.4339 5.97989 15.1777 5.6581C15.9214 5.33631 16.6918 5.17542 17.4886 5.17542C18.4272 5.17542 19.2418 5.33631 19.9324 5.6581C20.6408 5.97989 21.2252 6.42682 21.6856 6.99888C22.1637 7.57095 22.5179 8.25028 22.7481 9.03687C22.9783 9.80559 23.0934 10.6458 23.0934 11.5575C23.0934 11.9151 23.0757 12.2548 23.0403 12.5765C23.0049 12.8983 22.9695 13.1397 22.934 13.3006H15.0449C15.2219 14.2659 15.6115 14.981 16.2136 15.4458C16.8334 15.8927 17.586 16.1162 18.4715 16.1162C19.41 16.1162 20.3574 15.8212 21.3137 15.2313L22.6153 17.6179C21.9424 18.0827 21.1897 18.4492 20.3574 18.7173C19.5428 18.9855 18.7371 19.1196 17.9402 19.1196ZM15.0183 10.6994H19.7731C19.7731 9.9486 19.6048 9.34078 19.2684 8.87598C18.9319 8.41117 18.3652 8.17877 17.5683 8.17877C16.9485 8.17877 16.3996 8.38436 15.9214 8.79553C15.461 9.2067 15.16 9.84134 15.0183 10.6994Z" fill="#5048ED"/>
<path d="M28.7452 19.1196C28.0722 19.1196 27.5056 19.0123 27.0451 18.7978C26.5847 18.5832 26.2128 18.2883 25.9295 17.9128C25.6639 17.5196 25.4691 17.0547 25.3451 16.5184C25.2212 15.9642 25.1592 15.3475 25.1592 14.6682V0H29.0639V14.8291C29.0639 15.2402 29.1348 15.5263 29.2764 15.6872C29.4358 15.848 29.5952 15.9285 29.7546 15.9285C29.8431 15.9285 29.9139 15.9285 29.9671 15.9285C30.0379 15.9285 30.1264 15.9106 30.2327 15.8749L30.7108 18.7978C30.4983 18.8872 30.2238 18.9587 29.8874 19.0123C29.5686 19.0838 29.1879 19.1196 28.7452 19.1196Z" fill="#5048ED"/>
<path d="M37.2008 19.1196C36.3862 19.1196 35.6867 18.9944 35.1023 18.7441C34.5356 18.4939 34.0663 18.1453 33.6945 17.6983C33.3403 17.2514 33.0747 16.7151 32.8976 16.0894C32.7382 15.4458 32.6585 14.7397 32.6585 13.9709V8.58101H30.8522V5.6581L32.871 5.49721L33.3226 1.95754H36.5633V5.49721H39.7242V8.58101H36.5633V13.9173C36.5633 14.6682 36.7138 15.2134 37.0148 15.5531C37.3336 15.8749 37.7497 16.0358 38.2633 16.0358C38.4758 16.0358 38.6883 16.0089 38.9008 15.9553C39.131 15.9017 39.3347 15.8391 39.5117 15.7676L40.1227 18.6369C39.7685 18.7441 39.3524 18.8514 38.8742 18.9587C38.3961 19.0659 37.8383 19.1196 37.2008 19.1196Z" fill="#5048ED"/>
<path d="M41.6634 18.7978V0H45.5682V4.61229L45.3822 6.99888C45.8781 6.55196 46.4536 6.14078 47.1088 5.76536C47.764 5.37207 48.5432 5.17542 49.4464 5.17542C50.8807 5.17542 51.9167 5.64916 52.5542 6.59665C53.2094 7.54413 53.537 8.8581 53.537 10.5385V18.7978H49.6323V11.048C49.6323 10.0827 49.4995 9.42123 49.2338 9.06369C48.9859 8.70615 48.5786 8.52738 48.012 8.52738C47.5161 8.52738 47.0911 8.64358 46.7369 8.87598C46.3828 9.0905 45.9932 9.40335 45.5682 9.81453V18.7978H41.6634Z" fill="#5048ED"/>
<path d="M57.667 24C57.2597 24 56.9144 23.9732 56.6311 23.9196C56.3477 23.8838 56.0733 23.8212 55.8076 23.7318L56.4983 20.7285C56.6222 20.7642 56.7639 20.8 56.9233 20.8358C57.0826 20.8715 57.2332 20.8894 57.3748 20.8894C58.0301 20.8894 58.5348 20.7285 58.8889 20.4067C59.2431 20.0849 59.5087 19.6648 59.6858 19.1464L59.8718 18.4492L54.7982 5.49721H58.7295L60.6155 11.2089C60.8103 11.8168 60.9874 12.4335 61.1468 13.0592C61.3061 13.6849 61.4744 14.3285 61.6515 14.9899H61.7577C61.8994 14.3642 62.0411 13.7385 62.1827 13.1129C62.3421 12.4693 62.5015 11.8346 62.6609 11.2089L64.2546 5.49721H68L63.4312 18.9318C63.1124 19.7721 62.776 20.505 62.4218 21.1307C62.0853 21.7743 61.6869 22.3017 61.2265 22.7129C60.7837 23.1419 60.2702 23.4637 59.6858 23.6782C59.1191 23.8927 58.4462 24 57.667 24Z" fill="#5048ED"/>
</svg>