<svg width="387" height="358" viewBox="0 0 387 358" fill="none" xmlns="http://www.w3.org/2000/svg">
<path fill-rule="evenodd" clip-rule="evenodd" d="M283.353 50.5368C283.515 49.998 284.009 49.6282 284.572 49.6253C284.575 49.6253 284.578 49.6253 284.581 49.6253C285.093 49.6279 285.505 50.0446 285.503 50.5561C285.502 50.7421 285.501 50.8507 285.501 50.8817C285.501 50.8837 285.501 50.8859 285.501 50.8885C285.501 51.495 285.016 51.9899 284.409 52.0014L284.245 52.0046C284.195 52.0055 284.145 52.0026 284.096 51.9959C283.559 51.9236 283.183 51.43 283.255 50.8933C283.26 50.8551 283.293 50.7362 283.353 50.5368ZM287.708 71.4437C287.87 70.905 288.365 70.5351 288.928 70.5322C288.931 70.5322 288.934 70.5322 288.937 70.5322C289.449 70.5348 289.861 70.9516 289.858 71.4631C289.858 71.6491 289.857 71.7576 289.857 71.7887C289.857 71.7906 289.857 71.7929 289.857 71.7954C289.857 72.4019 289.371 72.8968 288.765 72.9084L288.601 72.9115C288.551 72.9124 288.501 72.9096 288.452 72.9029C287.915 72.8306 287.538 72.3369 287.611 71.8003C287.616 71.762 287.648 71.6432 287.708 71.4437ZM158.382 56.2134C158.462 56.3963 158.507 56.506 158.516 56.5425C158.653 57.0718 158.335 57.6116 157.805 57.7482C157.759 57.7601 157.712 57.7687 157.665 57.7739L157.48 57.7941C156.874 57.8601 156.328 57.4256 156.256 56.8201C156.252 56.7899 156.239 56.6858 156.218 56.5078C156.154 55.9877 156.524 55.5144 157.044 55.4505C157.609 55.381 158.154 55.6912 158.382 56.2134ZM156.996 75.0923C157.087 75.3013 157.138 75.4267 157.149 75.4684C157.305 76.0733 156.941 76.6902 156.337 76.8464C156.284 76.86 156.23 76.8698 156.176 76.8757L155.964 76.8987C155.272 76.9742 154.648 76.4776 154.565 75.7857C154.561 75.7511 154.547 75.6321 154.522 75.4287C154.449 74.8343 154.871 74.2934 155.466 74.2204C156.112 74.141 156.734 74.4955 156.996 75.0923ZM201.507 11.4013C201.787 10.4613 202.652 9.81714 203.633 9.81714C204.534 9.81714 205.266 10.5482 205.266 11.4501C205.266 11.7607 205.266 11.9423 205.266 11.9949C205.27 13.0459 204.427 13.9041 203.376 13.9185L203.061 13.9228C202.979 13.924 202.897 13.9192 202.816 13.9085C201.882 13.786 201.223 12.9293 201.346 11.9949C201.354 11.9303 201.408 11.7324 201.507 11.4013Z" fill="#EDEDFD"/>
<path fill-rule="evenodd" clip-rule="evenodd" d="M180.018 180.294C181.025 188.159 181.823 192.66 182.414 193.796C183.299 195.5 187.858 197.063 188.729 197.063C189.31 197.063 210.798 198.878 253.192 202.507C256.387 202.507 259.145 201.563 261.468 199.676C262.405 198.915 262.31 197.826 262.775 196.192C263.233 194.579 263.669 191.167 264.081 185.956L253.192 180.294H180.018Z" fill="white"/>
<path d="M157.174 55.2486C156.474 55.3345 155.977 55.9708 156.063 56.6699C156.085 56.8473 156.098 56.9514 156.101 56.981C156.194 57.7644 156.901 58.3266 157.685 58.2412L157.87 58.221C157.933 58.2141 157.996 58.2027 158.057 58.1869C158.761 58.0051 159.184 57.2871 159.002 56.5832C158.986 56.5217 158.941 56.4099 158.851 56.2048C158.565 55.5504 157.883 55.1616 157.174 55.2486ZM158.253 56.4667C158.323 56.6274 158.367 56.735 158.37 56.7466C158.461 57.1011 158.248 57.4628 157.894 57.5543C157.863 57.5623 157.831 57.568 157.8 57.5715L157.614 57.5917C157.186 57.6383 156.801 57.3315 156.75 56.9039C156.746 56.8731 156.733 56.769 156.712 56.5904C156.67 56.2493 156.912 55.939 157.253 55.8971C157.676 55.8452 158.082 56.0769 158.253 56.4667ZM155.596 74.0185C154.822 74.1135 154.272 74.8174 154.367 75.5909C154.392 75.7936 154.407 75.9126 154.411 75.9466C154.514 76.8164 155.299 77.4407 156.17 77.3458L156.381 77.3228C156.451 77.3152 156.52 77.3025 156.588 77.285C157.368 77.0837 157.836 76.2886 157.635 75.5091C157.618 75.4424 157.566 75.3149 157.465 75.0837C157.146 74.3546 156.386 73.9215 155.596 74.0185ZM156.866 75.3456C156.948 75.5324 156.998 75.6557 157.002 75.6725C157.113 76.1026 156.855 76.5414 156.425 76.6524C156.387 76.6621 156.349 76.6691 156.311 76.6733L156.099 76.6963C155.584 76.7524 155.121 76.3835 155.059 75.8695C155.055 75.8343 155.041 75.7153 155.016 75.5113C154.965 75.096 155.26 74.718 155.675 74.667C156.179 74.6052 156.663 74.8811 156.866 75.3456ZM284.58 49.1382C283.874 49.1418 283.253 49.6061 283.05 50.2824C282.983 50.5051 282.95 50.6257 282.942 50.6893C282.845 51.4048 283.347 52.0629 284.062 52.1593C284.128 52.1682 284.195 52.172 284.262 52.1708L284.426 52.1676C285.21 52.1527 285.838 51.5126 285.838 50.7281L285.838 50.7217C285.838 50.6913 285.839 50.5828 285.84 50.3974C285.843 49.7055 285.285 49.1417 284.593 49.1382C284.587 49.1382 284.587 49.1382 284.58 49.1382ZM283.589 50.7766C283.591 50.7636 283.623 50.6466 283.676 50.4704C283.796 50.0692 284.165 49.7937 284.584 49.7915C284.587 49.7915 284.587 49.7915 284.59 49.7915C284.921 49.7932 285.188 50.063 285.186 50.3941C285.185 50.5807 285.185 50.6892 285.185 50.7209L285.185 50.728C285.185 51.1566 284.842 51.5063 284.413 51.5144L284.249 51.5175C284.216 51.5182 284.183 51.5163 284.15 51.5118C283.792 51.4636 283.541 51.1344 283.589 50.7766ZM288.936 70.0451C288.23 70.0488 287.609 70.5131 287.406 71.1893C287.339 71.412 287.306 71.5326 287.297 71.5963C287.201 72.3117 287.703 72.9698 288.418 73.0662C288.484 73.0751 288.551 73.079 288.617 73.0777L288.781 73.0746C289.566 73.0597 290.194 72.4195 290.194 71.635L290.194 71.6287C290.194 71.5982 290.194 71.4897 290.195 71.3043C290.199 70.6124 289.641 70.0486 288.949 70.0451C288.942 70.0451 288.942 70.0451 288.936 70.0451ZM287.945 71.6835C287.946 71.6706 287.978 71.5535 288.031 71.3773C288.152 70.9761 288.52 70.7006 288.939 70.6985C288.942 70.6985 288.942 70.6985 288.945 70.6985C289.277 70.7001 289.544 70.9699 289.542 71.301C289.541 71.4876 289.541 71.5962 289.54 71.6278L289.54 71.6349C289.54 72.0635 289.197 72.4132 288.769 72.4214L288.605 72.4245C288.572 72.4251 288.538 72.4232 288.505 72.4187C288.147 72.3705 287.896 72.0413 287.945 71.6835ZM201.006 12.038C200.86 13.1513 201.644 14.172 202.758 14.318C202.854 14.3307 202.952 14.3364 203.05 14.335L203.365 14.3307C204.595 14.3138 205.582 13.3094 205.577 12.0792C205.577 12.0272 205.576 11.8456 205.576 11.5356C205.576 10.4533 204.699 9.57602 203.617 9.57602C202.491 9.57602 201.5 10.3151 201.178 11.3934C201.072 11.7477 201.018 11.9478 201.006 12.038ZM203.617 10.2294C204.338 10.2294 204.923 10.8142 204.923 11.5356C204.923 11.8469 204.923 12.0285 204.923 12.0818C204.927 12.9536 204.227 13.6655 203.356 13.6774L203.041 13.6817C202.974 13.6827 202.908 13.6788 202.842 13.6702C202.087 13.5712 201.555 12.8784 201.654 12.123C201.659 12.0838 201.712 11.8881 201.804 11.5802C202.043 10.7787 202.78 10.2294 203.617 10.2294Z" fill="#4F48ED"/>
<path d="M181.838 70.2005L179.08 75.9764L157.238 75.3216L157.219 75.9747L179.486 76.6422L182.57 70.1831L195.538 69.8752L195.523 69.2221L182.192 69.5386L179.927 60.6376L158.502 56.6668L158.383 57.3092L179.397 61.2038L181.687 70.2041L181.838 70.2005Z" fill="#4F48ED"/>
<path fill-rule="evenodd" clip-rule="evenodd" d="M229.019 98.1903L260.597 92.0924L246.441 130.204H234.246L229.019 98.1903Z" fill="#4F48ED"/>
<path fill-rule="evenodd" clip-rule="evenodd" d="M189.601 136.955L139.159 124.971C132.198 123.317 124.862 124.803 119.093 129.035L84.053 154.741C78.3351 158.935 74.7259 165.411 74.1655 172.48L69.3857 232.779H80.7103L87.3793 176.759C87.989 171.638 90.6369 166.979 94.7247 163.834L126.572 139.336C129.267 137.263 132.706 136.409 136.057 136.98L188.294 145.884L189.601 136.955Z" fill="white"/>
<path d="M189.967 136.707L139.234 124.653C132.18 122.977 124.746 124.483 118.9 128.772L83.8597 154.477C78.0653 158.728 74.4077 165.29 73.8398 172.454L69.0321 233.105H81.0004L87.7037 176.798C88.3029 171.764 90.9057 167.184 94.9238 164.093L126.772 139.595C129.394 137.577 132.74 136.746 136.003 137.302L188.569 146.263L189.967 136.707ZM188.019 145.506L136.112 136.658C132.671 136.072 129.14 136.948 126.373 139.077L94.5255 163.575C90.368 166.773 87.6749 171.512 87.0549 176.721L80.4202 232.452H69.7393L74.4911 172.506C75.044 165.531 78.6049 159.143 84.2462 155.004L119.286 129.298C124.978 125.123 132.216 123.657 139.083 125.289L189.234 137.204L188.019 145.506Z" fill="#4F48ED"/>
<path fill-rule="evenodd" clip-rule="evenodd" d="M188.536 196.727L185.245 183.56L247.312 187.698L248.022 189.538L253.19 202.172C256.922 202.012 259.472 201.377 260.828 200.292C262.037 199.326 262.971 195.697 263.564 189.487L254.063 182.339L258.855 131.075L269.09 149.369L264.407 187.24C264.408 187.256 264.408 187.271 264.407 187.287C263.818 195.089 262.793 199.557 261.236 200.802C259.737 202.002 257.045 202.668 253.148 202.827L253.192 202.943L188.729 197.498L188.702 197.389C184.778 197.25 181.523 194.303 180.999 190.41L179.675 180.59L180.322 180.503L181.646 190.323C182.12 193.838 185.015 196.513 188.536 196.727Z" fill="#4F48ED"/>
<path d="M177.405 76.7943L179.665 88.0953C181.785 98.6978 192.091 105.58 202.697 103.477L260.379 92.0389L253.972 64.9325C249.468 45.8773 231.208 33.3757 211.814 36.0693C209.242 36.4265 206.486 36.9024 203.545 37.4969C185.486 41.1473 173.792 58.7282 177.405 76.7943Z" fill="white"/>
<mask id="mask0_1_15" style="mask-type:alpha" maskUnits="userSpaceOnUse" x="176" y="35" width="85" height="69">
<path d="M177.405 76.7947L179.665 88.0957C181.785 98.6981 192.091 105.581 202.697 103.478L260.379 92.0393L253.972 64.9328C249.468 45.8777 231.208 33.3761 211.814 36.0697C209.242 36.4269 206.486 36.9028 203.545 37.4973C185.486 41.1476 173.792 58.7286 177.405 76.7947Z" fill="white"/>
</mask>
<g mask="url(#mask0_1_15)">
<path fill-rule="evenodd" clip-rule="evenodd" d="M176.969 97.1016L222.652 89.4878C227.114 88.7441 230.265 84.7077 229.903 80.198L229.009 69.0641C228.585 63.7889 223.965 59.8559 218.69 60.2794C218.321 60.309 217.954 60.36 217.591 60.4321L170 69.879L176.969 97.1016Z" fill="#EDEDFD"/>
<path d="M176.727 97.2553L222.705 89.5922C227.335 88.8205 230.604 84.6328 230.228 79.9539L229.334 68.8201C228.896 63.365 224.119 59.2979 218.664 59.7359C218.283 59.7665 217.903 59.8193 217.528 59.8938L169.598 69.4079L176.727 97.2553ZM170.402 69.9144L217.655 60.5346C218.006 60.465 218.36 60.4158 218.716 60.3872C223.812 59.978 228.274 63.777 228.683 68.8724L229.577 80.0062C229.926 84.3469 226.893 88.2318 222.598 88.9477L177.211 96.5122L170.402 69.9144Z" fill="#4F48ED"/>
</g>
<path d="M204.068 26.2595L203.974 13.9092C203.974 13.7288 203.828 13.5825 203.647 13.5825C203.467 13.5825 203.321 13.7288 203.321 13.9092L203.415 26.5862C203.415 26.7666 203.561 26.9129 203.741 26.9129H212.567L207.59 36.453C207.506 36.6129 207.568 36.8103 207.728 36.8937C207.888 36.9772 208.085 36.9151 208.169 36.7552L213.396 26.7373C213.509 26.5198 213.351 26.2595 213.106 26.2595H204.068Z" fill="#4F48ED"/>
<path d="M177.085 76.8584L179.345 88.1594C181.501 98.9386 191.978 105.936 202.761 103.798L260.443 92.3594C260.624 92.3234 260.74 92.1439 260.697 91.9638L254.29 64.8574C249.747 45.6382 231.33 33.029 211.769 35.7458C209.19 36.104 206.427 36.581 203.48 37.1767C185.245 40.8628 173.436 58.6157 177.085 76.8584ZM202.634 103.157C192.205 105.225 182.071 98.457 179.985 88.0313L177.725 76.7303C174.147 58.8409 185.728 41.4318 203.609 37.8171C206.544 37.2239 209.294 36.7492 211.859 36.3929C231.086 33.7225 249.189 46.1165 253.654 65.0076L259.983 91.7844L202.634 103.157Z" fill="#4F48ED"/>
<path fill-rule="evenodd" clip-rule="evenodd" d="M186.43 130.119L179.287 176.485C178.774 179.814 181.056 182.928 184.385 183.44C184.555 183.467 184.727 183.486 184.899 183.497L247.39 187.756C250.532 187.97 253.319 185.757 253.824 182.65L261.274 136.773C261.814 133.449 259.557 130.316 256.233 129.777C256.061 129.749 255.888 129.728 255.715 129.715L192.917 124.967C189.741 124.727 186.915 126.971 186.43 130.119Z" fill="white"/>
<path d="M186.108 130.069L178.964 176.436C178.424 179.942 180.829 183.223 184.335 183.763C184.515 183.791 184.696 183.811 184.877 183.824L247.368 188.082C250.678 188.307 253.615 185.976 254.147 182.702L261.597 136.826C262.166 133.323 259.788 130.023 256.285 129.454C256.104 129.425 255.922 129.403 255.74 129.39L192.942 124.641C189.596 124.388 186.619 126.753 186.108 130.069ZM186.753 130.169C187.212 127.19 189.887 125.066 192.892 125.293L255.691 130.041C255.855 130.053 256.018 130.073 256.181 130.099C259.327 130.61 261.463 133.575 260.952 136.721L253.502 182.597C253.024 185.539 250.386 187.633 247.413 187.43L184.921 183.172C184.758 183.161 184.596 183.143 184.435 183.118C181.285 182.632 179.124 179.685 179.61 176.535L186.753 130.169Z" fill="#4F48ED"/>
<path fill-rule="evenodd" clip-rule="evenodd" d="M66.7158 232.227C66.5193 236.015 69.431 239.245 73.2191 239.442C73.3308 239.447 73.4425 239.45 73.5543 239.451L77.2863 239.462C81.1239 239.474 84.2443 236.372 84.2558 232.534C84.2558 232.524 84.2558 232.513 84.2558 232.503C84.25 228.614 81.1556 225.433 77.2682 225.32L74.2984 225.234C70.2907 225.117 66.9235 228.223 66.7158 232.227Z" fill="white"/>
<path fill-rule="evenodd" clip-rule="evenodd" d="M149.371 314.355L181.325 298.893L140.916 270.455L109.457 283.197" fill="white"/>
<path d="M66.4985 232.434C66.2926 236.402 69.3428 239.786 73.3111 239.992C73.428 239.998 73.5451 240.001 73.6622 240.001L77.3942 240.013C81.4122 240.025 84.6793 236.777 84.6914 232.759L84.6914 232.726C84.6853 228.661 81.4504 225.336 77.3866 225.218L74.4168 225.131C70.2317 225.01 66.7154 228.252 66.4985 232.434ZM67.1509 232.468C67.3494 228.641 70.5676 225.673 74.3979 225.784L77.3676 225.871C81.0785 225.979 84.0325 229.015 84.0381 232.727L84.038 232.757C84.027 236.415 81.0534 239.37 77.3962 239.359L73.6642 239.348C73.5577 239.348 73.4513 239.345 73.3449 239.339C69.7369 239.152 66.9638 236.076 67.1509 232.468Z" fill="#4F48ED"/>
<path fill-rule="evenodd" clip-rule="evenodd" d="M64.5955 314.355L30.4039 329.256C10.4444 307.772 0.499064 296.737 0.567983 296.153C0.636901 295.569 12.397 291.213 35.8484 283.086L64.5955 314.355Z" fill="white"/>
<path fill-rule="evenodd" clip-rule="evenodd" d="M68.0782 357.223L145.173 356.696L149.529 314.446H64.5944L46.9542 322.069L49.132 339.709L68.0782 357.223Z" fill="white"/>
<path fill-rule="evenodd" clip-rule="evenodd" d="M95.9548 314.446V339.709L109.457 331.433L122.089 339.709V314.446H95.9548Z" fill="#EDEDFD"/>
<path d="M67.7558 357.186L48.8245 339.87L46.4529 322.526L30.3186 329.558L0 295.919L35.9398 282.923L64.8224 314.028H149.296L180.684 298.84L140.874 270.824L109.675 283.739L109.43 283.134L140.959 270.085L181.968 298.945L149.844 314.489L145.469 356.929L67.7781 357.46L67.7558 357.186ZM67.6779 356.23L64.2996 314.749L47.0752 322.255L49.4398 339.548L67.6779 356.23ZM64.9496 314.682L68.38 356.803L144.879 356.28L149.168 314.682H64.9496ZM35.7553 283.685L1.13561 296.204L30.4889 328.771L64.0424 314.148L35.7553 283.685Z" fill="#4F48ED"/>
<path d="M121.91 339.982C122.127 340.125 122.415 339.969 122.415 339.709V314.446C122.415 314.266 122.269 314.12 122.089 314.12H95.955C95.7746 314.12 95.6283 314.266 95.6283 314.446V339.709C95.6283 339.964 95.908 340.121 96.1257 339.987L109.452 331.82L121.91 339.982ZM121.762 314.773V339.104L109.636 331.16C109.531 331.091 109.394 331.089 109.287 331.155L96.2816 339.126V314.773H121.762Z" fill="#4F48ED"/>
<path d="M183.828 77.2778C183.622 76.2152 184.316 75.1864 185.378 74.9798C186.441 74.7733 187.47 75.4672 187.676 76.5298L188.84 82.5157C189.046 83.5783 188.352 84.6071 187.29 84.8137C186.227 85.0202 185.198 84.3263 184.992 83.2636L183.828 77.2778Z" fill="white"/>
<path d="M214.508 73.4336C214.361 72.2398 215.21 71.1532 216.404 71.0066C217.598 70.86 218.684 71.709 218.831 72.9028L219.574 78.9552C219.721 80.149 218.872 81.2356 217.678 81.3822C216.484 81.5287 215.397 80.6798 215.251 79.486L214.508 73.4336Z" fill="white"/>
<path d="M216.62 70.9802L216.188 71.0333C215.113 71.1652 214.349 72.1432 214.481 73.2176L215.278 79.7023C215.409 80.7767 216.387 81.5408 217.462 81.4088L217.894 81.3558C218.969 81.2238 219.733 80.2459 219.601 79.1715L218.804 72.6868C218.672 71.6123 217.695 70.8483 216.62 70.9802ZM216.7 71.6287C217.416 71.5407 218.068 72.0501 218.156 72.7664L218.952 79.2511C219.04 79.9674 218.531 80.6193 217.814 80.7073L217.382 80.7604C216.666 80.8483 216.014 80.339 215.926 79.6227L215.13 73.138C215.042 72.4217 215.551 71.7697 216.267 71.6818L216.7 71.6287ZM216.51 71.8714C215.794 71.9593 215.285 72.6113 215.372 73.3276L216.116 79.38C216.204 80.0963 216.855 80.6056 217.572 80.5177C218.288 80.4297 218.797 79.7778 218.709 79.0615L217.966 73.0091C217.878 72.2928 217.226 71.7834 216.51 71.8714ZM219.485 71.0578C219.665 71.0768 219.826 70.9467 219.845 70.7673C219.864 70.5879 219.733 70.4271 219.554 70.4081L213.521 69.77C213.342 69.751 213.181 69.8811 213.162 70.0605C213.143 70.2399 213.273 70.4008 213.452 70.4197L219.485 71.0578ZM182.749 75.6283L188.411 73.4505C188.58 73.3857 188.664 73.1967 188.599 73.0283C188.534 72.8599 188.345 72.7759 188.177 72.8407L182.514 75.0185C182.346 75.0833 182.262 75.2723 182.327 75.4407C182.392 75.6091 182.581 75.6931 182.749 75.6283ZM199.975 84.233C200.825 83.1835 201.92 82.5919 203.278 82.4492C205.533 82.2121 206.037 82.2738 207.776 83.0288C207.941 83.1007 208.133 83.0248 208.205 82.8593C208.277 82.6938 208.201 82.5014 208.036 82.4296C206.187 81.6266 205.571 81.5512 203.209 81.7994C201.68 81.9602 200.426 82.6373 199.467 83.8218C199.353 83.962 199.375 84.1678 199.515 84.2813C199.655 84.3948 199.861 84.3732 199.975 84.233ZM185.639 74.7254L185.208 74.7936C184.139 74.9629 183.41 75.9669 183.579 77.0361L184.601 83.489C184.771 84.5582 185.775 85.2877 186.844 85.1183L187.274 85.0502C188.343 84.8808 189.072 83.8768 188.903 82.8077L187.881 76.3547C187.712 75.2855 186.708 74.5561 185.639 74.7254ZM185.741 75.3707C186.454 75.2578 187.123 75.7441 187.236 76.4569L188.258 82.9099C188.371 83.6227 187.884 84.292 187.172 84.4049L186.741 84.473C186.029 84.5859 185.359 84.0996 185.246 83.3868L184.224 76.9339C184.112 76.2211 184.598 75.5518 185.311 75.4389L185.741 75.3707ZM185.56 75.6199C184.847 75.7328 184.361 76.4021 184.474 77.1149L185.427 83.1377C185.54 83.8504 186.21 84.3368 186.922 84.2239C187.635 84.111 188.122 83.4416 188.009 82.7289L187.055 76.7061C186.942 75.9933 186.273 75.507 185.56 75.6199Z" fill="#4F48ED"/>
<path fill-rule="evenodd" clip-rule="evenodd" d="M149.094 314.355H64.5954L35.8484 283.212H109.458L149.094 314.355ZM58.0976 334.263C56.5945 334.694 54.6773 332.606 53.8154 329.6C52.9534 326.594 53.4731 323.808 54.9761 323.377C56.4791 322.946 58.3963 325.033 59.2583 328.039C60.1203 331.046 59.6006 333.832 58.0976 334.263Z" fill="#4F48ED"/>
<path fill-rule="evenodd" clip-rule="evenodd" d="M229.469 198.349L241.318 266.535L237.295 342.976L225.201 353.877C224.486 354.522 224.429 355.623 225.073 356.338C225.403 356.704 225.874 356.914 226.367 356.914H264.517C259.088 315.936 254.694 285.374 251.336 265.228C248.092 245.764 243.645 223.013 237.996 196.977C237.648 195.375 236.23 194.232 234.591 194.232C234.205 194.232 233.834 194.232 233.478 194.232C233.182 194.232 232.862 194.251 232.517 194.289C230.604 194.502 229.226 196.225 229.439 198.138C229.447 198.208 229.457 198.279 229.469 198.349Z" fill="white"/>
<path d="M236.871 342.823L224.878 353.634C224.029 354.399 223.961 355.708 224.726 356.556C225.119 356.992 225.677 357.24 226.263 357.24H264.413C264.611 357.24 264.763 357.066 264.737 356.87C259.308 315.889 254.913 285.324 251.554 265.174C248.309 245.704 243.861 222.949 238.211 196.908C237.831 195.155 236.28 193.905 234.487 193.905H233.374C233.066 193.905 232.733 193.925 232.376 193.964C230.285 194.197 228.777 196.082 229.01 198.174C229.019 198.251 229.03 198.328 229.043 198.405L240.886 266.554L236.871 342.823ZM236.864 342.958L236.972 342.733L236.871 342.823L236.864 342.958ZM264.04 356.587H226.263C225.862 356.587 225.48 356.417 225.212 356.119C224.688 355.538 224.735 354.643 225.315 354.12L237.409 343.218C237.474 343.16 237.512 343.079 237.517 342.993L241.541 266.552L241.536 266.479L229.687 198.293C229.676 198.229 229.667 198.165 229.66 198.101C229.467 196.368 230.715 194.807 232.449 194.614C232.783 194.577 233.091 194.558 233.374 194.558H234.487C235.973 194.558 237.257 195.594 237.573 197.046C243.22 223.078 247.666 245.823 250.91 265.282C254.257 285.362 258.634 315.798 264.04 356.587Z" fill="#4F48ED"/>
<path fill-rule="evenodd" clip-rule="evenodd" d="M238.427 265.835C238.027 262.471 240.425 259.418 243.788 259.01L246.013 258.741C249.386 258.332 252.469 260.687 252.962 264.048C252.969 264.091 252.974 264.134 252.98 264.176C253.388 267.452 251.064 270.437 247.788 270.846L245.234 271.164C245.223 271.165 245.212 271.167 245.201 271.168C241.858 271.566 238.825 269.178 238.427 265.835ZM242.345 265.243C242.526 266.713 243.863 267.76 245.334 267.583L246.526 267.439C247.948 267.267 248.962 265.975 248.79 264.553C248.787 264.527 248.784 264.502 248.78 264.477C248.557 263.003 247.207 261.972 245.727 262.146L244.681 262.268C243.218 262.44 242.171 263.765 242.343 265.228C242.344 265.233 242.344 265.238 242.345 265.243Z" fill="#EDEDFD"/>
<path d="M237.943 266.028C237.522 262.485 240.047 259.27 243.589 258.841L245.815 258.571C249.363 258.141 252.607 260.619 253.126 264.155C253.133 264.2 253.139 264.245 253.145 264.291C253.575 267.745 251.124 270.894 247.669 271.324L245.115 271.643L245.08 271.647C241.558 272.066 238.363 269.55 237.943 266.028ZM238.592 265.951C238.969 269.115 241.839 271.375 245.003 270.998L245.035 270.994L247.589 270.676C250.685 270.29 252.882 267.467 252.496 264.371C252.491 264.331 252.486 264.29 252.48 264.25C252.012 261.064 249.09 258.832 245.893 259.219L243.668 259.489C240.484 259.875 238.213 262.766 238.592 265.951ZM241.859 265.421C241.667 263.779 242.841 262.291 244.484 262.099L245.53 261.976C247.184 261.782 248.695 262.935 248.943 264.582C248.948 264.611 248.952 264.64 248.955 264.668C249.148 266.27 248.007 267.725 246.405 267.918L245.214 268.062C243.564 268.261 242.064 267.087 241.861 265.437L241.859 265.421ZM245.136 267.413L246.327 267.269C247.57 267.119 248.456 265.99 248.306 264.747C248.304 264.724 248.301 264.702 248.297 264.68C248.101 263.381 246.91 262.472 245.606 262.625L244.56 262.748C243.276 262.898 242.357 264.061 242.508 265.345L242.51 265.357C242.668 266.649 243.843 267.569 245.136 267.413Z" fill="#4F48ED"/>
<path fill-rule="evenodd" clip-rule="evenodd" d="M211.967 196.902L190.472 265.805L222.229 324.246L220.252 344.56C220.159 345.518 220.86 346.37 221.817 346.463C222.288 346.509 222.757 346.361 223.117 346.054L252.501 320.98L245.532 314.011L200.734 266.214L220.257 198.417C220.758 196.677 219.753 194.861 218.014 194.36C217.719 194.275 217.413 194.232 217.106 194.232C216.799 194.232 216.483 194.213 216.159 194.175C214.288 193.96 212.528 195.104 211.967 196.902Z" fill="white"/>
<path d="M222.095 324.403L222.057 324.215L222.047 324.315L222.095 324.403ZM220.079 344.528C219.969 345.666 220.801 346.677 221.938 346.788C222.497 346.842 223.054 346.667 223.481 346.303L252.865 321.228C253.01 321.105 253.019 320.884 252.884 320.749L245.915 313.78L201.252 266.126L220.723 198.508C221.274 196.594 220.17 194.597 218.256 194.046C217.932 193.952 217.596 193.905 217.259 193.905C216.964 193.905 216.661 193.887 216.348 193.851C214.322 193.617 212.415 194.857 211.808 196.805L190.312 265.708C190.286 265.792 190.295 265.883 190.337 265.961L222.047 324.315L220.079 344.528ZM223.057 345.806C222.765 346.055 222.384 346.175 222.001 346.138C221.223 346.062 220.654 345.37 220.73 344.592L222.707 324.278C222.713 324.213 222.7 324.148 222.669 324.091L190.977 265.77L212.431 197C212.946 195.352 214.559 194.302 216.274 194.5C216.61 194.539 216.939 194.558 217.259 194.558C217.535 194.558 217.81 194.597 218.075 194.674C219.642 195.125 220.546 196.76 220.095 198.327L200.573 266.124C200.541 266.235 200.57 266.354 200.648 266.438L245.446 314.234L252.172 320.961L223.057 345.806Z" fill="#4F48ED"/>
<path fill-rule="evenodd" clip-rule="evenodd" d="M188.842 267.846C188.211 264.566 190.305 261.38 193.565 260.658L195.886 260.143C199.038 259.445 202.171 261.387 202.947 264.52C203.718 267.633 201.823 270.781 198.712 271.557L195.793 272.285C195.693 272.31 195.592 272.332 195.491 272.351C192.411 272.943 189.433 270.926 188.842 267.846ZM192.753 267.181C193.032 268.536 194.355 269.408 195.71 269.129C195.732 269.125 195.755 269.12 195.777 269.115L197.226 268.775C198.531 268.469 199.341 267.163 199.035 265.858C199.03 265.837 199.025 265.816 199.019 265.795C198.663 264.443 197.312 263.606 195.943 263.89L194.755 264.137C193.362 264.426 192.467 265.788 192.753 267.181Z" fill="#EDEDFD"/>
<path d="M188.565 268.043C187.901 264.589 190.106 261.235 193.539 260.474L195.86 259.96C199.184 259.223 202.49 261.272 203.309 264.577C204.123 267.864 202.121 271.19 198.835 272.009L195.917 272.737C195.811 272.763 195.704 272.787 195.597 272.807C192.339 273.433 189.191 271.3 188.565 268.043ZM189.207 267.919C189.765 270.822 192.57 272.724 195.474 272.166C195.569 272.147 195.664 272.127 195.758 272.103L198.677 271.375C201.613 270.643 203.402 267.671 202.674 264.734C201.941 261.773 198.98 259.937 196.001 260.597L193.68 261.112C190.593 261.796 188.61 264.813 189.207 267.919ZM192.478 267.382C192.155 265.813 193.164 264.278 194.733 263.952L195.921 263.706C197.46 263.386 198.98 264.327 199.38 265.847C199.386 265.871 199.392 265.895 199.398 265.919C199.745 267.4 198.826 268.881 197.345 269.228L195.896 269.568C195.871 269.574 195.845 269.579 195.82 269.585C194.289 269.899 192.792 268.913 192.478 267.382ZM193.118 267.251C193.36 268.428 194.511 269.187 195.688 268.945C195.708 268.941 195.727 268.936 195.747 268.932L197.196 268.592C198.325 268.328 199.026 267.198 198.761 266.068C198.757 266.05 198.753 266.031 198.748 266.013C198.436 264.829 197.252 264.096 196.054 264.345L194.866 264.592C193.65 264.845 192.867 266.034 193.118 267.251Z" fill="#4F48ED"/>
<path fill-rule="evenodd" clip-rule="evenodd" d="M146.47 225.252C147.078 223.197 148.971 221.791 151.114 221.803C153.093 221.815 154.695 223.416 154.706 225.395C154.71 226.04 154.713 226.418 154.714 226.529C154.714 226.532 154.714 226.535 154.714 226.538C154.731 228.798 152.913 230.644 150.654 230.661L149.86 230.668C149.693 230.669 149.527 230.659 149.362 230.638C147.325 230.38 145.882 228.518 146.141 226.48C146.158 226.344 146.268 225.934 146.47 225.252ZM126.87 177.776C127.477 175.721 129.371 174.315 131.514 174.327C133.493 174.338 135.094 175.94 135.106 177.919C135.11 178.564 135.112 178.942 135.113 179.053C135.113 179.056 135.113 179.059 135.113 179.062C135.131 181.322 133.313 183.168 131.053 183.185L130.259 183.191C130.093 183.193 129.927 183.183 129.762 183.162C127.724 182.903 126.282 181.042 126.541 179.004C126.558 178.868 126.668 178.458 126.87 177.776ZM328.97 168.193C329.578 166.138 331.471 164.732 333.614 164.745C335.593 164.756 337.195 166.357 337.206 168.336C337.21 168.981 337.213 169.36 337.214 169.471C337.214 169.474 337.214 169.477 337.214 169.479C337.231 171.739 335.414 173.585 333.154 173.603L332.36 173.609C332.194 173.61 332.027 173.601 331.863 173.58C329.825 173.321 328.382 171.459 328.641 169.421C328.658 169.285 328.768 168.876 328.97 168.193ZM286.285 240.061C286.893 238.006 288.786 236.6 290.929 236.612C292.908 236.624 294.51 238.225 294.521 240.204C294.525 240.849 294.528 241.227 294.529 241.339C294.529 241.341 294.529 241.344 294.529 241.347C294.546 243.607 292.729 245.453 290.469 245.471L289.675 245.477C289.509 245.478 289.342 245.468 289.178 245.447C287.14 245.189 285.697 243.327 285.956 241.289C285.973 241.153 286.083 240.743 286.285 240.061ZM342.472 266.195C343.08 264.139 344.973 262.734 347.117 262.746C349.096 262.757 350.697 264.359 350.709 266.338C350.713 266.983 350.715 267.361 350.716 267.472C350.716 267.475 350.716 267.478 350.716 267.481C350.734 269.74 348.916 271.587 346.656 271.604L345.862 271.61C345.696 271.612 345.53 271.602 345.365 271.581C343.327 271.322 341.885 269.461 342.143 267.423C342.161 267.287 342.27 266.877 342.472 266.195ZM295.432 97.1969C296.04 95.1417 297.933 93.7359 300.076 93.7483C302.055 93.7597 303.656 95.3609 303.668 97.3398C303.672 97.985 303.674 98.3632 303.676 98.4745C303.676 98.4773 303.676 98.4801 303.676 98.4829C303.693 100.743 301.875 102.589 299.615 102.607L298.822 102.613C298.655 102.614 298.489 102.604 298.324 102.583C296.286 102.325 294.844 100.463 295.103 98.425C295.12 98.2888 295.23 97.8795 295.432 97.1969ZM38.0151 208.701C38.623 206.645 40.5163 205.24 42.6595 205.252C44.6384 205.263 46.2399 206.865 46.2516 208.843C46.2554 209.489 46.2578 209.867 46.2589 209.978C46.259 209.981 46.259 209.984 46.259 209.986C46.2766 212.246 44.4588 214.093 42.1989 214.11L41.405 214.116C41.2388 214.118 41.0727 214.108 40.9078 214.087C38.8699 213.828 37.4276 211.966 37.6863 209.929C37.7035 209.792 37.8131 209.383 38.0151 208.701ZM90.2824 113.748C90.8903 111.693 92.7836 110.287 94.9268 110.3C96.9057 110.311 98.5072 111.912 98.5189 113.891C98.5227 114.536 98.5252 114.915 98.5263 115.026C98.5263 115.029 98.5263 115.031 98.5263 115.034C98.5439 117.294 96.7261 119.14 94.4662 119.158L93.6723 119.164C93.5061 119.165 93.34 119.155 93.1751 119.135C91.1372 118.876 89.6949 117.014 89.9536 114.976C89.9709 114.84 90.0805 114.431 90.2824 113.748Z" fill="#EDEDFD"/>
<path fill-rule="evenodd" clip-rule="evenodd" d="M67.075 264.074C63.3557 261.652 60.8059 257.546 60.5558 252.775C60.1404 244.847 66.23 238.084 74.1574 237.669C82.0848 237.253 88.848 243.343 89.2635 251.27C89.5182 256.13 87.3278 260.553 83.7679 263.343L78.3993 256.482C79.8017 255.383 80.6645 253.641 80.5642 251.726C80.4005 248.603 77.7362 246.204 74.6133 246.368C71.4904 246.532 69.0915 249.196 69.2551 252.319C69.3536 254.199 70.3581 255.816 71.8233 256.77L67.075 264.074Z" fill="#EDEDFD"/>
<path d="M67.374 264.663L67.1 264.485C63.1865 261.936 60.682 257.682 60.4329 252.929C60.008 244.821 66.2361 237.904 74.3436 237.479C82.4512 237.055 89.3681 243.283 89.793 251.39C90.0468 256.233 87.9177 260.802 84.1727 263.738L83.9154 263.939L78.1442 256.564L78.401 256.362C79.7608 255.296 80.5334 253.638 80.4413 251.88C80.287 248.937 77.7765 246.677 74.8337 246.831C71.891 246.985 69.6304 249.496 69.7847 252.439C69.8751 254.164 70.7839 255.708 72.2048 256.633L72.4784 256.812L67.374 264.663ZM67.1846 263.756L71.5796 256.995C70.14 255.943 69.2279 254.298 69.1322 252.473C68.9591 249.17 71.4964 246.352 74.7995 246.179C78.1026 246.006 80.9206 248.543 81.0937 251.846C81.1913 253.708 80.4243 255.47 79.0556 256.668L84.0247 263.019C87.4452 260.208 89.3773 255.941 89.1406 251.424C88.7345 243.677 82.125 237.726 74.3778 238.132C66.6306 238.538 60.6794 245.147 61.0854 252.895C61.3176 257.326 63.6005 261.303 67.1846 263.756Z" fill="#4F48ED"/>
<path fill-rule="evenodd" clip-rule="evenodd" d="M270.381 154.753L352.762 122.396C354.553 121.693 356.576 122.574 357.279 124.366C357.364 124.581 357.427 124.805 357.467 125.033L373.892 217.975C374.101 219.159 373.311 220.289 372.127 220.499C371.717 220.571 371.296 220.525 370.913 220.365L268.089 177.68V188.133L371.91 233.427C377.201 235.735 383.363 233.317 385.671 228.025C386.468 226.199 386.726 224.182 386.415 222.213L369.924 117.878C368.835 110.987 362.366 106.284 355.475 107.373C354.454 107.535 353.456 107.821 352.504 108.226L266.582 144.765C264.694 145.568 263.526 147.485 263.679 149.531C263.724 150.135 263.815 150.734 263.951 151.329C263.956 151.348 263.96 151.367 263.965 151.386C264.568 153.962 267.146 155.562 269.722 154.958C269.947 154.906 270.167 154.837 270.381 154.753Z" fill="white"/>
<path d="M270.631 155.057L353.011 122.7C354.635 122.063 356.467 122.862 357.105 124.485C357.182 124.681 357.239 124.883 357.275 125.09L373.7 218.032C373.878 219.039 373.207 219.999 372.2 220.177C371.852 220.238 371.494 220.199 371.168 220.064L267.893 177.191V188.347L371.909 233.726C377.366 236.107 383.72 233.613 386.101 228.156C386.922 226.272 387.189 224.193 386.868 222.162L370.376 117.827C369.259 110.758 362.623 105.933 355.554 107.051C354.506 107.216 353.483 107.51 352.506 107.925L266.584 144.465C264.567 145.323 263.32 147.37 263.484 149.556C263.53 150.175 263.623 150.791 263.763 151.402C263.77 151.431 263.77 151.431 263.777 151.461C264.421 154.213 267.175 155.921 269.927 155.277C270.166 155.22 270.402 155.147 270.631 155.057ZM268.546 178.169L370.917 220.667C371.359 220.85 371.843 220.903 372.313 220.82C373.676 220.58 374.585 219.28 374.344 217.918L357.919 124.976C357.875 124.727 357.806 124.482 357.713 124.246C356.944 122.287 354.732 121.323 352.772 122.092L270.392 154.449C270.192 154.527 269.987 154.591 269.778 154.64C267.377 155.203 264.975 153.712 264.413 151.312C264.406 151.284 264.406 151.284 264.4 151.256C264.267 150.677 264.179 150.094 264.135 149.507C263.993 147.6 265.08 145.814 266.84 145.066L352.762 108.526C353.689 108.132 354.661 107.853 355.656 107.696C362.369 106.635 368.67 111.216 369.731 117.929L386.222 222.264C386.524 224.172 386.274 226.125 385.502 227.895C383.265 233.021 377.297 235.364 372.17 233.127L268.546 187.92V178.169Z" fill="#4F48ED"/>
<path fill-rule="evenodd" clip-rule="evenodd" d="M271.275 217.675C267.106 216.152 263.698 212.725 262.381 208.132C260.193 200.501 264.605 192.542 272.236 190.353C279.867 188.165 287.827 192.578 290.015 200.208C291.356 204.887 290.217 209.689 287.376 213.208L280.601 207.731C281.72 206.344 282.169 204.452 281.641 202.609C280.779 199.603 277.643 197.865 274.637 198.727C271.631 199.589 269.893 202.725 270.755 205.731C271.274 207.54 272.616 208.89 274.259 209.49L271.275 217.675Z" fill="#EDEDFD"/>
<path d="M271.455 218.126L271.148 218.013C266.761 216.41 263.364 212.828 262.052 208.253C259.814 200.449 264.327 192.308 272.131 190.071C279.935 187.833 288.076 192.345 290.314 200.149C291.65 204.811 290.604 209.742 287.615 213.445L287.41 213.699L280.127 207.811L280.332 207.557C281.417 206.212 281.797 204.423 281.312 202.731C280.5 199.898 277.545 198.26 274.712 199.072C271.88 199.885 270.242 202.839 271.054 205.672C271.53 207.333 272.763 208.633 274.356 209.215L274.662 209.327L271.455 218.126ZM273.828 209.708C272.189 209.007 270.93 207.609 270.426 205.852C269.514 202.673 271.353 199.356 274.532 198.444C277.712 197.533 281.028 199.371 281.94 202.55C282.454 204.342 282.103 206.233 281.039 207.707L287.309 212.777C290.01 209.269 290.932 204.677 289.686 200.329C287.547 192.872 279.768 188.56 272.311 190.699C264.854 192.837 260.542 200.616 262.68 208.073C263.903 212.339 267.022 215.7 271.066 217.284L273.828 209.708Z" fill="#4F48ED"/>
<path fill-rule="evenodd" clip-rule="evenodd" d="M273.593 192.663C277.349 192.133 279.965 188.659 279.435 184.903C279.419 184.792 279.401 184.682 279.38 184.572L278.679 180.906C277.958 177.137 274.318 174.666 270.548 175.387C270.538 175.389 270.528 175.391 270.518 175.393C266.701 176.141 264.169 179.785 264.8 183.623L265.282 186.554C265.932 190.511 269.623 193.223 273.593 192.663Z" fill="white"/>
<path d="M273.562 192.888C277.496 192.333 280.236 188.693 279.681 184.758C279.665 184.642 279.645 184.527 279.623 184.412L278.922 180.746C278.167 176.8 274.356 174.212 270.41 174.967L270.378 174.973C266.388 175.755 263.741 179.565 264.401 183.577L264.882 186.508C265.562 190.64 269.416 193.473 273.562 192.888ZM273.47 192.241C269.676 192.776 266.149 190.184 265.527 186.402L265.045 183.471C264.443 179.807 266.86 176.328 270.503 175.615L270.533 175.609C274.125 174.922 277.594 177.277 278.281 180.869L278.982 184.535C279.002 184.639 279.019 184.744 279.034 184.85C279.539 188.427 277.048 191.736 273.47 192.241Z" fill="#4F48ED"/>
<path d="M197.179 131.954L251.416 135.872C253.095 135.994 254.358 137.454 254.237 139.133C254.233 139.196 254.226 139.259 254.218 139.322L248.991 177.947C248.772 179.569 247.311 180.728 245.682 180.574L190.62 175.351C188.943 175.192 187.713 173.704 187.872 172.028C187.879 171.961 187.887 171.894 187.898 171.828L193.95 134.507C194.203 132.948 195.604 131.84 197.179 131.954ZM190.913 172.284L245.985 177.584L251.256 138.918L196.96 134.995L190.913 172.284ZM211.841 156.338C209.676 156.338 207.92 154.583 207.92 152.418C207.92 150.253 209.676 148.497 211.841 148.497C214.006 148.497 215.761 150.253 215.761 152.418C215.761 154.583 214.006 156.338 211.841 156.338ZM205.838 161.015L234.08 162.989L233.959 164.727L205.716 162.753L205.838 161.015ZM229.792 157.629L226.229 153.383L230.476 149.819L234.039 154.066L229.792 157.629Z" fill="#EDEDFD"/>
<path fill-rule="evenodd" clip-rule="evenodd" d="M356.421 107.555C359.202 107.302 361.307 107.52 362.736 108.208C364.166 108.897 365.98 110.566 368.181 113.217L356.856 123.453C356.275 123.017 355.84 122.727 355.549 122.582C355.259 122.437 354.751 122.292 354.025 122.146L356.421 107.555ZM123.196 126.932C125.082 125.957 126.818 125.306 128.404 124.977C129.991 124.649 132.459 124.432 135.809 124.324L132.978 136.955L131.453 137.173L129.942 137.669L123.196 126.932ZM74.3494 170.958C74.9503 168.389 75.5462 166.42 76.137 165.049C76.7279 163.678 77.8313 161.706 79.4474 159.131L89.4216 170.058L88.7256 171.432L88.2649 172.954L74.3494 170.958ZM386.692 223.632C385.945 227.324 385.002 229.792 383.861 231.037C382.72 232.281 380.47 233.297 377.11 234.086L371.883 220.583C372.678 220.347 373.191 220.115 373.423 219.888C373.655 219.661 373.868 219.239 374.061 218.623L386.692 223.632Z" fill="#4F48ED"/>
<path d="M258.86 68.6501L262.994 74.9692L287.553 71.2979L287.65 71.9441L262.676 75.6773L258.262 68.9281L243.207 70.4216C243.027 70.4394 242.867 70.3083 242.849 70.1288C242.831 69.9493 242.963 69.7893 243.142 69.7715L258.25 68.2727L259.571 57.8703L283.147 50.4027C283.319 50.3482 283.503 50.4435 283.557 50.6154C283.612 50.7874 283.517 50.971 283.345 51.0255L260.167 58.367L258.86 68.6501Z" fill="#4F48ED"/>
<path d="M197.194 167.988C197.005 167.971 196.87 167.797 196.9 167.61L201.038 142.13C201.065 141.962 201.216 141.843 201.385 141.856L244.723 145.123C244.912 145.137 245.049 145.308 245.022 145.495L241.32 171.628C241.296 171.8 241.141 171.923 240.968 171.908L197.194 167.988ZM201.635 142.53L197.601 167.368L240.717 171.229L244.327 145.748L201.635 142.53ZM197.005 131.725L251.242 135.643C253.101 135.778 254.5 137.394 254.365 139.253C254.36 139.323 254.353 139.393 254.344 139.463L249.118 178.088C248.875 179.883 247.258 181.167 245.454 180.995L190.391 175.773C188.535 175.597 187.174 173.95 187.35 172.094C187.357 172.019 187.366 171.946 187.378 171.872L193.43 134.551C193.71 132.826 195.261 131.599 197.005 131.725ZM196.958 132.377C195.552 132.275 194.301 133.264 194.075 134.656L188.023 171.977C188.013 172.036 188.006 172.095 188 172.155C187.858 173.652 188.956 174.98 190.453 175.122L245.516 180.345C246.97 180.483 248.274 179.448 248.47 178L253.696 139.375C253.704 139.319 253.71 139.263 253.714 139.206C253.822 137.707 252.694 136.403 251.195 136.295L196.958 132.377ZM190.337 172.672L196.487 134.744L251.429 138.714L246.069 178.035L190.337 172.672ZM245.507 177.325L250.688 139.315L197.037 135.439L191.094 172.089L245.507 177.325ZM211.814 156.664C209.469 156.664 207.567 154.763 207.567 152.418C207.567 150.072 209.469 148.171 211.814 148.171C214.159 148.171 216.061 150.072 216.061 152.418C216.061 154.763 214.159 156.664 211.814 156.664ZM211.814 156.011C213.799 156.011 215.407 154.402 215.407 152.418C215.407 150.433 213.799 148.824 211.814 148.824C209.83 148.824 208.221 150.433 208.221 152.418C208.221 154.402 209.83 156.011 211.814 156.011ZM205.508 160.666L234.403 162.686L234.236 165.076L205.341 163.056L205.508 160.666ZM206.039 162.45L233.629 164.379L233.705 163.293L206.115 161.363L206.039 162.45ZM229.726 158.09L225.742 153.342L230.49 149.359L234.473 154.106L229.726 158.09ZM233.553 154.026L230.409 150.279L226.663 153.423L229.806 157.169L233.553 154.026Z" fill="#4F48ED"/>
<path d="M242.304 343.302V342.649V343.302ZM242.304 342.649C242.739 342.649 242.739 343.302 242.304 343.302H237.295C236.859 343.302 236.859 342.649 237.295 342.649H242.304H247.313C247.748 342.649 247.748 343.302 247.313 343.302H242.304C241.868 343.302 241.868 342.649 242.304 342.649ZM226.724 321.121L226.305 320.621L226.724 321.121ZM226.724 321.121L222.696 324.497C222.362 324.777 221.942 324.276 222.276 323.996L226.305 320.621L230.334 317.245C230.668 316.965 231.087 317.466 230.753 317.746L226.724 321.121Z" fill="#4F48ED"/>
</svg>
