<svg width="836" height="323" viewBox="0 0 836 323" fill="none" xmlns="http://www.w3.org/2000/svg">
<path d="M0 256.97H149.646V311.774H212.671V256.97H251.338V204.145H212.671V0H130.16L0 205.058V256.97ZM150.864 204.145H66.3739V201.709L148.428 71.8543H150.864V204.145Z" fill="#23232E"/>
<path d="M427.236 322.888C505.636 322.888 552.981 263.212 553.133 160.454C553.285 58.4578 505.332 0 427.236 0C348.988 0 301.491 58.3055 301.339 160.454C301.034 262.908 348.683 322.736 427.236 322.888ZM427.236 268.236C391.461 268.236 368.321 232.309 368.474 160.454C368.626 89.6657 391.613 54.043 427.236 54.043C462.706 54.043 485.846 89.6657 485.846 160.454C485.998 232.309 462.859 268.236 427.236 268.236Z" fill="#23232E"/>
<path d="M718.336 311.95C786.538 311.95 835.317 274.439 835.169 222.546C835.317 184.739 811.298 157.754 766.671 152.12V149.748C800.623 143.669 824.049 119.65 823.901 85.5491C824.049 37.6594 782.09 0 719.226 0C656.954 0 610.102 36.4733 609.213 88.9592H670.743C671.484 65.8298 692.686 50.855 718.929 50.855C744.876 50.855 762.223 66.5712 762.074 89.4041C762.223 113.275 741.91 129.436 712.702 129.436H684.383V176.584H712.702C747.099 176.584 768.598 193.783 768.45 218.247C768.598 242.414 747.841 259.02 718.484 259.02C690.166 259.02 668.964 244.193 667.778 221.953H603.134C604.172 275.032 651.617 311.95 718.336 311.95Z" fill="#23232E"/>
</svg>
