<svg width="855" height="323" viewBox="0 0 855 323" fill="none" xmlns="http://www.w3.org/2000/svg">
<path d="M0 256.97H149.646V311.774H212.671V256.97H251.338V204.145H212.671V0H130.16L0 205.058V256.97ZM150.864 204.145H66.3739V201.709L148.428 71.8543H150.864V204.145Z" fill="#23232E"/>
<path d="M427.236 322.888C505.636 322.888 552.981 263.212 553.133 160.454C553.285 58.4578 505.332 0 427.236 0C348.988 0 301.491 58.3055 301.339 160.454C301.034 262.908 348.683 322.736 427.236 322.888ZM427.236 268.236C391.461 268.236 368.321 232.309 368.474 160.454C368.626 89.6657 391.613 54.043 427.236 54.043C462.706 54.043 485.846 89.6657 485.846 160.454C485.998 232.309 462.859 268.236 427.236 268.236Z" fill="#23232E"/>
<path d="M603.134 256.97H752.78V311.774H815.805V256.97H854.472V204.145H815.805V0H733.294L603.134 205.058V256.97ZM753.998 204.145H669.508V201.709L751.562 71.8543H753.998V204.145Z" fill="#23232E"/>
</svg>
