<svg width="838" height="323" viewBox="0 0 838 323" fill="none" xmlns="http://www.w3.org/2000/svg">
<path d="M115.29 323C186.238 323 234.471 276.79 234.315 212.377C234.471 151.387 191.84 107.511 134.428 107.511C106.422 107.511 82.3059 119.18 71.1036 134.895H69.2365L77.4827 55.078H216.734V0H21.9379L6.84586 168.035L66.7471 178.77C76.5491 165.545 95.5308 157.299 114.357 157.299C146.408 157.455 169.435 180.637 169.435 214.089C169.435 247.229 146.875 270.1 115.29 270.1C88.5294 270.1 66.9027 253.297 65.3468 228.558H0C1.2447 283.636 49.3213 323 115.29 323Z" fill="#23232E"/>
<path d="M410.214 322.888C488.614 322.888 535.959 263.212 536.111 160.454C536.263 58.4578 488.31 0 410.214 0C331.966 0 284.469 58.3055 284.317 160.454C284.012 262.908 331.661 322.736 410.214 322.888ZM410.214 268.236C374.439 268.236 351.299 232.309 351.452 160.454C351.604 89.6657 374.591 54.043 410.214 54.043C445.684 54.043 468.824 89.6657 468.824 160.454C468.976 232.309 445.837 268.236 410.214 268.236Z" fill="#23232E"/>
<path d="M586.111 256.97H735.757V311.774H798.782V256.97H837.449V204.145H798.782V0H716.271L586.111 205.058V256.97ZM736.975 204.145H652.485V201.709L734.539 71.8543H736.975V204.145Z" fill="#23232E"/>
</svg>
