<svg width="326" height="347" viewBox="0 0 326 347" fill="none" xmlns="http://www.w3.org/2000/svg">
<path d="M140.723 191.488H132.263V347H140.723V191.488Z" fill="#E0E0E0"/>
<path d="M145.046 186.17C145.046 187.857 144.546 189.506 143.609 190.908C142.672 192.311 141.34 193.404 139.781 194.049C138.223 194.695 136.508 194.864 134.854 194.535C133.199 194.206 131.68 193.393 130.487 192.201C129.294 191.008 128.482 189.488 128.153 187.834C127.824 186.18 127.993 184.465 128.638 182.906C129.284 181.348 130.377 180.016 131.779 179.079C133.182 178.142 134.831 177.642 136.518 177.642C137.638 177.64 138.747 177.86 139.783 178.288C140.818 178.716 141.759 179.345 142.551 180.137C143.343 180.929 143.971 181.87 144.399 182.905C144.828 183.94 145.047 185.05 145.046 186.17Z" fill="#4F48ED"/>
<path d="M308.833 191.488H300.373V347H308.833V191.488Z" fill="#E0E0E0"/>
<path d="M313.146 186.17C313.146 187.857 312.645 189.507 311.708 190.909C310.77 192.312 309.438 193.405 307.879 194.05C306.32 194.695 304.604 194.864 302.95 194.534C301.295 194.204 299.776 193.391 298.583 192.197C297.391 191.003 296.58 189.483 296.252 187.828C295.924 186.173 296.094 184.458 296.741 182.9C297.388 181.341 298.483 180.01 299.886 179.074C301.29 178.138 302.94 177.64 304.627 177.642C305.747 177.642 306.855 177.862 307.889 178.291C308.923 178.72 309.863 179.348 310.654 180.14C311.445 180.932 312.073 181.872 312.5 182.907C312.928 183.942 313.147 185.051 313.146 186.17Z" fill="#4F48ED"/>
<path d="M324.855 206.496H108.122V245.274H324.855V206.496Z" fill="#4F48ED"/>
<path d="M132.644 206.496L132.263 207.14L109.996 245.274H108.112V206.496H132.644Z" fill="#F5F5F5"/>
<path d="M187.425 206.496L164.757 245.274H135.142L144.148 229.866L157.809 206.496H187.425Z" fill="#F5F5F5"/>
<path d="M242.176 206.496L219.518 245.274H189.903L212.561 206.496H242.176Z" fill="#F5F5F5"/>
<path d="M296.938 206.506L274.26 245.274H244.655L267.322 206.506H296.938Z" fill="#F5F5F5"/>
<path d="M324.845 206.506V245.274H299.416L322.084 206.506H324.845Z" fill="#F5F5F5"/>
<path d="M324.855 266.4H108.122V305.178H324.855V266.4Z" fill="#4F48ED"/>
<path d="M132.644 266.4L132.263 267.044L109.996 305.178H108.112V266.4H132.644Z" fill="#F5F5F5"/>
<path d="M187.425 266.4L164.757 305.178H135.142L144.148 289.78L157.809 266.4H187.425Z" fill="#F5F5F5"/>
<path d="M242.176 266.4L219.518 305.178H189.903L212.561 266.4H242.176Z" fill="#F5F5F5"/>
<path d="M296.938 266.409L274.26 305.178H244.655L267.322 266.409H296.938Z" fill="#F5F5F5"/>
<path d="M324.845 266.409V305.178H299.416L322.084 266.409H324.845Z" fill="#F5F5F5"/>
<path d="M324.845 245.274C324.845 245.274 324.845 245.04 324.845 244.6C324.845 244.161 324.845 243.508 324.845 242.649C324.845 240.922 324.845 238.394 324.787 235.106C324.787 228.51 324.718 218.84 324.66 206.476L324.884 206.701L108.171 206.906L108.59 206.476V245.254L108.171 244.825L262.463 245.02L308.208 245.137L320.571 245.196H323.782H324.894C324.894 245.196 324.553 245.196 323.84 245.196H320.679L308.413 245.244L262.756 245.371L108.171 245.557H107.741V206.066H108.181L324.894 206.271H325.118V206.496C325.118 218.918 325.021 228.627 324.992 235.262C324.992 238.515 324.992 241.01 324.992 242.746C324.992 243.566 324.992 244.2 324.992 244.649C324.992 245.098 324.845 245.274 324.845 245.274Z" fill="#263238"/>
<path d="M324.845 305.178C324.845 305.178 324.845 304.943 324.845 304.514C324.845 304.085 324.845 303.411 324.845 302.562C324.845 300.835 324.845 298.318 324.787 295.02C324.787 288.423 324.718 278.763 324.66 266.39L324.884 266.614L108.171 266.819L108.59 266.39V305.168L108.171 304.748L262.463 304.934L308.208 305.06H320.571H323.782H324.894C324.894 305.06 324.553 305.06 323.84 305.06H320.679L308.413 305.119L262.756 305.236L108.171 305.431H107.741V265.97H108.181L324.894 266.175H325.118V266.4C325.118 278.831 325.021 288.531 324.992 295.166C324.992 298.419 324.992 300.913 324.992 302.65C324.992 303.47 324.992 304.104 324.992 304.553C324.992 305.002 324.845 305.178 324.845 305.178Z" fill="#263238"/>
<path d="M72.6483 110.01H63.7686V346.922H72.6483V110.01Z" fill="#E0E0E0"/>
<path d="M72.6481 346.922C72.6481 346.922 72.6481 346.493 72.6481 345.693C72.6481 344.893 72.6481 343.673 72.6481 342.112C72.6481 338.96 72.6481 334.305 72.6481 328.363C72.6481 316.429 72.6481 299.157 72.57 277.768C72.57 235.019 72.5017 175.827 72.4627 110.01L72.7164 110.264H63.8367L64.0904 110.01C63.9928 224.178 63.9148 320.088 63.8953 346.922L63.8367 346.854H70.5404C72.0041 346.854 72.7164 346.854 72.7164 346.854H70.5794H63.8367H63.7684V346.796C63.7684 319.961 63.6708 224.041 63.583 109.883V109.629H72.9701V109.883C72.9701 175.778 72.8921 235.038 72.8628 277.827C72.8628 299.196 72.8042 316.439 72.7847 328.363C72.7847 334.305 72.7847 338.911 72.7847 342.024C72.7847 343.575 72.7847 344.756 72.7847 345.566C72.7847 346.376 72.6481 346.922 72.6481 346.922Z" fill="#263238"/>
<path d="M89.2278 115.397C115.289 103.788 127.006 73.2502 115.397 47.1886C103.788 21.1271 73.2502 9.41079 47.1886 21.0196C21.1271 32.6284 9.41079 63.1662 21.0196 89.2278C32.6284 115.289 63.1663 127.006 89.2278 115.397Z" fill="#4F48ED"/>
<path d="M114.705 66.275C114.65 66.0281 114.621 65.7764 114.617 65.5237C114.617 64.987 114.529 64.2551 114.461 63.3184C114.461 62.8305 114.393 62.284 114.363 61.6888C114.334 61.0936 114.168 60.4495 114.061 59.7372C113.855 58.1181 113.529 56.5166 113.085 54.9461C112.001 50.6055 110.26 46.456 107.923 42.6414C104.875 37.5628 100.88 33.1172 96.155 29.5462C90.4441 25.1945 83.7883 22.2493 76.727 20.9495C68.6212 19.4575 60.2641 20.1547 52.5176 22.9694C50.4568 23.7146 48.4486 24.5981 46.5068 25.6138C45.531 26.1407 44.604 26.7555 43.6379 27.3312C42.6696 27.916 41.7435 28.5681 40.8667 29.2828C39.0274 30.6494 37.2802 32.1358 35.6364 33.7324C34.0127 35.4058 32.5064 37.1892 31.1283 39.07C28.2661 42.9175 26.0421 47.2007 24.5417 51.7553C21.3804 61.187 21.3804 71.3923 24.5417 80.8241C26.0407 85.3773 28.2612 89.6603 31.1185 93.5094C32.5024 95.3915 34.0118 97.178 35.6364 98.8567C37.2794 100.447 39.0232 101.93 40.8569 103.297C41.7366 104.012 42.6659 104.664 43.6379 105.248C44.6137 105.814 45.5407 106.429 46.5068 106.956C56.9755 112.525 69.1823 113.865 80.6096 110.698C92.037 107.532 101.814 100.101 107.923 89.938C110.257 86.1213 111.997 81.9724 113.085 77.6332C113.528 76.0625 113.854 74.4611 114.061 72.8421C114.168 72.1395 114.295 71.4955 114.363 70.8905C114.432 70.2855 114.432 69.7586 114.461 69.2707C114.529 68.2949 114.578 67.6021 114.617 67.0654C114.621 66.8126 114.65 66.5609 114.705 66.3141C114.724 66.5641 114.724 66.8153 114.705 67.0654C114.705 67.6021 114.705 68.3437 114.646 69.2805C114.646 69.7684 114.646 70.3148 114.578 70.91C114.51 71.5053 114.412 72.159 114.324 72.8616C114.139 74.4915 113.836 76.1058 113.417 77.6918C112.378 82.0884 110.667 86.2982 108.343 90.1721C104.971 95.8921 100.418 100.827 94.9884 104.649C89.5585 108.47 83.3762 111.089 76.8539 112.332C68.6171 113.891 60.1133 113.217 52.2249 110.381C50.126 109.629 48.0817 108.732 46.1067 107.697C45.1309 107.161 44.1551 106.536 43.1793 105.96C42.1858 105.381 41.2367 104.729 40.3397 104.009C36.5041 101.26 33.1479 97.8969 30.4062 94.0558C27.4835 90.1362 25.2131 85.7703 23.683 81.1266C20.4501 71.5162 20.4501 61.1119 23.683 51.5015C25.216 46.8639 27.4825 42.5021 30.3964 38.5821C31.8098 36.6705 33.3484 34.8548 35.0022 33.1469C36.6794 31.5244 38.4625 30.0151 40.3397 28.629C41.2348 27.9112 42.1806 27.259 43.1695 26.6774C44.1453 26.0919 45.1211 25.4674 46.0969 24.9307C48.0749 23.9051 50.1188 23.0119 52.2151 22.2571C60.1022 19.414 68.6077 18.7401 76.8441 20.3055C83.3634 21.5569 89.5422 24.1797 94.971 28.0002C100.4 31.8207 104.954 36.7515 108.333 42.4657C110.654 46.3412 112.365 50.5505 113.407 54.9461C113.829 56.548 114.132 58.1787 114.314 59.825C114.402 60.5276 114.519 61.1814 114.568 61.7766C114.617 62.3719 114.568 62.9183 114.636 63.4062C114.636 64.382 114.636 65.0845 114.695 65.631C114.712 65.8452 114.716 66.0604 114.705 66.275Z" fill="white"/>
<path d="M95.1109 60.4496H41.3156V71.6712H95.1109V60.4496Z" fill="#FAFAFA"/>
</svg>
