<svg width="242" height="270" viewBox="0 0 242 270" fill="none" xmlns="http://www.w3.org/2000/svg">
<path d="M199.906 227.963C204.196 230.651 208.958 233.729 214.231 232.983C219.101 232.296 224.363 230.11 226.527 225.359C227.139 224.002 227.299 223.042 225.604 222.787C223.028 222.418 220.086 223.799 217.701 224.579C214.636 225.628 211.48 226.387 208.274 226.847C206.015 227.135 203.739 227.203 201.474 227.434L200.626 227.537L200.296 227.583L200.168 227.509C200.134 227.488 200.095 227.475 200.055 227.473C200.015 227.471 199.975 227.478 199.939 227.495C199.916 227.516 199.9 227.544 199.893 227.574C199.867 227.6 199.846 227.63 199.832 227.664C199.819 227.698 199.812 227.735 199.813 227.771C199.814 227.808 199.823 227.844 199.839 227.877C199.855 227.91 199.878 227.939 199.906 227.963Z" fill="#C5C5F2"/>
<path d="M195.718 229.72C195.582 224.659 195.35 218.994 198.671 214.831C201.737 210.985 206.293 207.563 211.484 208.113C212.964 208.274 213.873 208.625 213.231 210.214C212.24 212.621 209.557 214.453 207.672 216.111C205.213 218.218 202.955 220.551 200.93 223.079C199.535 224.878 198.32 226.804 196.97 228.638L196.451 229.317L196.243 229.577L196.242 229.725C196.243 229.765 196.234 229.805 196.216 229.84C196.198 229.876 196.171 229.907 196.137 229.929C196.108 229.939 196.076 229.938 196.046 229.928C196.011 229.938 195.974 229.941 195.938 229.935C195.902 229.93 195.867 229.917 195.836 229.897C195.805 229.878 195.778 229.852 195.758 229.821C195.738 229.791 195.724 229.756 195.718 229.72Z" fill="#C5C5F2"/>
<path d="M199.864 227.557C203.762 229.716 207.824 232.298 212.413 231.46C214.557 231.024 216.62 230.252 218.523 229.172C219.383 228.708 221.963 227.316 221.912 226.129C221.825 224 213.548 227.694 212.553 227.936C208.879 228.733 205.061 228.561 201.474 227.434L200.626 227.537C203.128 228.361 205.749 228.772 208.384 228.753C212.058 228.703 214.973 227.162 218.429 226.144C219.162 225.923 221.509 225.094 221.446 226.412C221.404 227.283 218.896 228.664 218.347 228.953C216.546 229.971 214.6 230.706 212.575 231.133C207.941 232.05 203.853 229.558 199.874 227.471C199.862 227.498 199.859 227.528 199.864 227.557Z" fill="white"/>
<path d="M201.103 217.365C202.203 215.272 203.597 213.347 205.245 211.651C205.821 211.063 208.56 208.302 209.646 208.995C210.338 209.46 209.646 210.955 209.415 211.493C208.522 213.609 206.696 215.291 205.188 217.013C202.132 220.509 199.339 224.227 196.832 228.136C196.684 228.392 196.605 228.689 196.492 228.953C196.379 229.216 196.307 229.411 196.201 229.64L196.076 229.857C196.047 229.906 196.013 229.965 195.979 230.025C195.935 230.052 195.883 230.063 195.832 230.055C195.781 230.047 195.734 230.021 195.7 229.982C195.797 229.815 195.839 229.628 195.916 229.449C195.836 229.587 195.762 229.715 195.683 229.854L195.839 229.378C195.86 229.351 195.878 229.321 195.89 229.289C196.021 229.062 196.152 228.835 196.278 228.618C197.663 224.775 199.274 221.018 201.103 217.365ZM197.217 227.174C198.681 224.888 200.268 222.686 201.949 220.55C203.288 218.824 204.714 217.173 206.16 215.535C207.017 214.643 207.797 213.68 208.492 212.658C208.965 211.838 210.63 208.773 207.994 209.738C206.082 210.45 204.147 213.188 203.046 214.776C201.838 216.552 200.799 218.436 199.941 220.404C198.96 222.627 198.113 224.915 197.217 227.174Z" fill="white"/>
<path d="M186.613 239.933L186.771 240.024C190.907 242.136 196.039 245.599 200.908 244.87C204.514 244.321 209.215 241.877 210.293 238.118C211.547 233.895 203.944 235.44 202.021 235.763C196.82 236.761 191.68 238.055 186.626 239.638L186.586 239.707C186.464 239.781 186.553 239.833 186.613 239.933Z" fill="#C5C5F2"/>
<path d="M186.544 239.735L187.485 239.7C191.078 239.555 194.664 239.253 198.245 238.794C199.15 238.685 205.994 237.268 205.843 239.102C205.746 240.204 203.237 241.11 202.415 241.438C200.938 242.01 199.376 242.336 197.794 242.401C194.156 242.525 190.705 241.006 187.208 240.066C187.05 240.005 186.887 239.959 186.721 239.93L186.642 239.884C186.543 239.827 186.464 239.781 186.544 239.735ZM195.76 242.004C197.372 242.166 199 242.051 200.574 241.665C201.625 241.416 205.378 240.386 205.316 239.034C205.288 238.308 204.847 238.434 204.029 238.37C203.657 238.353 203.274 238.355 202.895 238.373C201.968 238.43 201.033 238.614 200.138 238.729C198.525 238.969 196.92 239.174 195.291 239.351C192.64 239.636 189.99 239.804 187.32 239.894C190.172 240.606 192.912 241.741 195.799 242.026L195.76 242.004Z" fill="white"/>
<path d="M184.056 227.43C182.453 232.641 182.444 238.212 184.03 243.428L184.07 243.518C184.103 243.549 184.145 243.57 184.19 243.577C184.235 243.584 184.282 243.578 184.323 243.558C184.373 243.545 184.415 243.512 184.44 243.468C184.466 243.424 184.473 243.371 184.46 243.321C184.424 243.22 184.396 243.116 184.376 243.01C186.856 237.165 189.242 231.346 191.849 225.509C192.462 224.152 196.185 215.355 192.9 215.234C190.862 215.163 188.811 218.465 187.811 219.901C186.178 222.202 184.911 224.742 184.056 227.43Z" fill="#C5C5F2"/>
<path d="M189.734 220.946C190.134 220.572 190.644 220.235 190.97 220.857C191.603 222.038 189.76 226.119 189.303 227.276C187.433 232.064 186.035 236.902 184.601 241.824L184.235 243.073L184.294 243.541C184.252 243.561 184.206 243.567 184.161 243.56C184.116 243.552 184.074 243.532 184.041 243.501L184.109 243.382C184.08 243.181 184.047 242.965 184.034 242.76C183.688 239.411 183.865 236.029 184.559 232.734C184.976 230.635 185.613 228.586 186.458 226.62C187.235 224.819 188.273 222.313 189.734 220.946ZM184.202 242.423C184.206 242.53 184.225 242.634 184.225 242.725C184.311 242.577 184.302 242.388 184.347 242.217C185.203 238.333 186.316 234.509 187.679 230.772C188.374 228.884 189.189 227.039 189.83 225.133C190.088 224.321 190.933 222.059 190.525 221.376C190.117 220.693 189.669 221.514 189.332 221.938C188.995 222.361 188.791 222.875 188.609 223.191C185.145 228.975 183.602 235.708 184.202 242.423Z" fill="white"/>
<path d="M178.258 254.334L179.027 254.779C179.438 254.068 179.848 253.358 180.252 252.657C181.998 249.862 183.763 247.078 185.577 244.323C186.61 242.762 187.653 241.206 188.754 239.71C188.782 239.661 188.816 239.602 188.845 239.552C188.873 239.503 188.999 239.286 189.122 239.186C189.245 239.086 189.287 238.9 189.416 238.79C191.872 235.386 194.846 232.388 198.23 229.905C199.377 229.081 200.561 228.33 201.764 227.59L202.118 227.387C202.128 227.358 202.144 227.331 202.164 227.308L202.53 227.085L202.804 226.928C206.546 224.733 210.444 222.812 214.308 220.859C215.399 220.292 216.505 219.72 217.592 219.137C217.66 219.112 217.723 219.078 217.782 219.036C217.865 219.005 217.945 218.959 218.034 218.918C222.839 216.429 227.679 213.79 232.576 211.393C232.76 211.302 232.597 211.037 232.413 211.128C229.138 212.698 225.827 214.194 222.514 215.716C222.074 215.909 221.632 216.127 221.214 216.281L218.61 217.488C216.837 218.28 215.143 219.117 213.427 219.969C208.508 222.237 203.734 224.807 199.131 227.662C198.796 227.877 198.466 228.107 198.135 228.337C197.805 228.568 197.72 228.624 197.517 228.77C197.314 228.916 197.042 229.114 196.812 229.284C192.853 232.361 189.468 236.112 186.81 240.364L186.221 241.248C186.141 241.386 186.062 241.524 185.976 241.672C185.939 241.747 185.897 241.82 185.851 241.889C185.794 241.988 185.737 242.087 185.68 242.185C185.64 242.254 185.6 242.324 185.554 242.402L185.104 243.182C183.339 245.966 181.614 248.772 179.914 251.58C179.381 252.548 178.827 253.439 178.258 254.334Z" fill="#C5C5F2"/>
<path d="M230.318 216.969C234.228 215.28 240.556 210.815 239.148 205.778C238.912 204.827 238.334 203.996 237.525 203.443C236.715 202.891 235.731 202.656 234.759 202.783C232.334 203.041 230.214 204.935 228.544 206.551C224.069 210.861 220.049 215.567 215.271 219.558C215.271 219.558 214.863 219.901 214.751 219.981C214.639 220.061 214.788 220.213 214.919 220.078C215.049 219.943 215.235 219.827 215.391 219.693C220.33 219.229 225.674 218.998 230.318 216.969Z" fill="#C5C5F2"/>
<path d="M215.236 219.551C215.268 219.529 215.302 219.509 215.337 219.491C216.815 218.686 218.245 217.793 219.617 216.817C222.439 214.778 225.127 212.559 227.663 210.174C228.657 209.273 233.409 204.78 234.065 208.041C234.35 209.416 233.307 210.972 232.535 212.013C231.279 213.676 229.706 215.075 227.908 216.131C224.294 218.084 220.305 219.244 216.207 219.533L215.651 219.607L215.498 219.689L215.388 219.744C215.367 219.743 215.347 219.737 215.328 219.728C215.31 219.718 215.294 219.705 215.281 219.689C215.268 219.673 215.258 219.654 215.253 219.634C215.248 219.614 215.247 219.593 215.25 219.572C215.245 219.566 215.24 219.559 215.236 219.551ZM216.442 219.445C219.81 219.06 223.101 218.169 226.203 216.804C227.795 216.037 229.261 215.034 230.553 213.829C231.127 213.301 231.657 212.727 232.136 212.111C232.501 211.651 232.824 211.16 233.103 210.643C233.746 209.528 233.95 208.014 233.351 207.523C232.753 207.033 232.078 207.222 231.003 207.852C230.635 208.062 230.283 208.298 229.95 208.56C229.114 209.2 228.311 209.883 227.545 210.606C226.265 211.774 224.975 212.937 223.642 214.062C222.717 214.844 221.822 215.551 220.866 216.249C219.241 217.461 217.534 218.56 215.758 219.536L216.442 219.445Z" fill="white"/>
<path d="M191.652 187.342C190.374 190.815 189.37 194.291 188.381 197.817C187.821 199.814 187.283 201.823 186.669 203.82C186.046 206.019 185.603 208.352 184.022 210.086C183.965 210.171 183.918 210.262 183.882 210.358C183.891 210.405 183.912 210.449 183.944 210.485C183.976 210.521 184.016 210.548 184.062 210.563C184.108 210.578 184.157 210.581 184.204 210.571C184.25 210.561 184.294 210.538 184.329 210.505C184.357 210.46 184.381 210.413 184.402 210.364C184.969 209.984 185.493 209.542 185.961 209.046C187.373 207.846 188.71 206.562 189.965 205.2C192.573 202.442 194.822 199.367 196.659 196.046C198.306 193.071 199.546 189.889 200.345 186.584C200.978 183.935 201.96 180.021 201.121 177.345C200.377 174.91 197.71 176.828 196.575 177.91C194.132 180.384 192.84 184.098 191.652 187.342Z" fill="#C5C5F2"/>
<path d="M171.938 199.166C173.122 202.363 174.519 205.397 175.96 208.457C176.777 210.19 177.617 211.917 178.391 213.683C179.285 215.595 180.402 217.492 180.262 219.659C180.271 219.753 180.292 219.845 180.324 219.934C180.36 219.961 180.404 219.979 180.452 219.985C180.499 219.991 180.547 219.985 180.592 219.968C180.637 219.951 180.676 219.923 180.706 219.888C180.736 219.852 180.756 219.81 180.763 219.766C180.756 219.717 180.745 219.67 180.731 219.623C180.933 219.014 181.062 218.389 181.115 217.758C181.457 216.066 181.689 214.36 181.81 212.649C182.105 209.145 181.923 205.636 181.268 202.205C180.682 199.132 179.651 196.16 178.201 193.369C177.034 191.138 175.345 187.811 173.019 186.452C170.919 185.204 170.052 188.159 169.85 189.601C169.504 192.808 170.828 196.182 171.938 199.166Z" fill="#C5C5F2"/>
<path d="M198.077 181.974C199.253 182.579 198.158 186.821 197.725 188.678C197.054 191.608 196.025 194.445 194.659 197.123C192.178 201.917 188.902 206.256 184.971 209.954C184.81 210.106 184.661 210.263 184.506 210.403C184.351 210.544 184.506 210.403 184.506 210.403C184.506 210.403 184.466 210.48 184.444 210.523C184.412 210.562 184.369 210.59 184.32 210.605C184.272 210.619 184.221 210.619 184.172 210.605C184.124 210.59 184.081 210.562 184.049 210.523C184.017 210.484 183.997 210.437 183.991 210.386C184.269 210.034 184.525 209.67 184.776 209.29C185.027 208.909 185.227 208.627 185.445 208.257C187.621 204.443 189.391 200.412 190.727 196.229C192.348 191.473 196.521 181.173 198.077 181.974ZM185.155 209.168C184.821 209.657 184.453 210.184 184.114 210.601C184.43 210.282 184.741 209.974 185.023 209.692C188.376 206.329 191.259 202.528 193.593 198.392C194.896 196.056 195.949 193.589 196.734 191.031C197.148 189.654 197.483 188.254 197.736 186.838C197.825 186.237 198.612 182.621 197.798 182.409C197.231 182.255 195.637 185.056 195.593 185.116C195.302 185.682 195.005 186.259 194.708 186.836C194.097 188.022 193.584 189.259 193.072 190.496C191.984 193.172 191.043 195.909 190.053 198.581C188.838 202.288 187.194 205.841 185.155 209.168Z" fill="white"/>
<path d="M171.851 188.441C173.401 187.944 175.121 192.038 175.581 193.018C176.884 196.027 177.93 199.14 178.708 202.325C180.203 207.414 180.89 212.706 180.743 218.009L180.784 218.195L180.672 218.413L180.639 218.478C180.645 218.511 180.641 218.545 180.625 218.575C180.61 218.604 180.585 218.628 180.555 218.642L180.492 218.389C180.352 217.725 180.19 217.077 180.017 216.423L179.922 216.099C178.502 211.634 176.795 207.264 174.813 203.019C173.491 200.036 172.449 196.937 171.701 193.762C171.562 192.988 170.532 188.864 171.851 188.441ZM171.632 191.193C172 196.738 174.829 202.104 176.999 207.118C178.548 210.466 179.767 213.957 180.639 217.542C180.595 212.739 179.908 207.963 178.598 203.342C177.946 200.683 177.143 198.063 176.193 195.495C175.694 194.099 175.089 192.743 174.384 191.438C173.957 190.661 173.444 189.935 172.854 189.274C171.663 188.083 171.567 190.25 171.627 191.204L171.632 191.193Z" fill="white"/>
<path d="M175.89 228.963C175.893 229.012 175.909 229.059 175.937 229.1C175.964 229.141 176.002 229.173 176.046 229.195L175.952 229.243C175.941 229.247 175.931 229.252 175.922 229.259C175.914 229.267 175.906 229.276 175.901 229.286C175.896 229.296 175.893 229.307 175.892 229.319C175.891 229.33 175.892 229.341 175.896 229.352C175.899 229.363 175.905 229.373 175.912 229.382C175.919 229.391 175.928 229.398 175.939 229.403C175.949 229.408 175.96 229.411 175.971 229.412C175.983 229.413 175.994 229.412 176.005 229.408C182.095 227.393 188.492 224.434 193.214 220.049C195.242 218.218 196.957 216.069 198.293 213.685C199.145 212.031 201.006 208.762 200.208 206.809C198.594 202.908 190.703 211.899 189.499 213.249C187.324 215.709 185.382 218.359 183.261 220.874C180.94 223.618 178.419 226.189 175.908 228.766C175.891 228.796 175.88 228.829 175.877 228.863C175.874 228.897 175.878 228.931 175.89 228.963Z" fill="#C5C5F2"/>
<path d="M175.89 228.963C176.176 228.78 176.463 228.598 176.745 228.398C181.393 225.319 185.535 221.538 189.026 217.191C190.72 214.958 192.6 212.871 194.645 210.954C195.165 210.506 197.015 208.677 197.38 210.269C197.573 211.098 195.024 215.06 194.279 216.026C192.545 218.232 190.541 220.212 188.314 221.919C184.63 224.839 180.595 227.286 176.303 229.204L175.929 229.369C175.925 229.359 175.923 229.349 175.924 229.338C175.924 229.328 175.927 229.318 175.932 229.309C175.936 229.299 175.943 229.291 175.951 229.285C175.959 229.278 175.969 229.273 175.979 229.271C176.006 229.248 176.038 229.231 176.073 229.223C176.021 229.2 175.977 229.164 175.945 229.119C175.913 229.073 175.893 229.019 175.89 228.963ZM186.252 223.089C188.531 221.489 190.637 219.656 192.536 217.621C193.286 216.803 193.984 215.939 194.625 215.033C195.141 214.338 195.601 213.604 196.003 212.837C196.972 210.954 197.061 210.38 196.779 210.152C196.497 209.925 196.227 210.075 195.095 210.91C194.378 211.47 193.718 212.099 193.124 212.787C192.269 213.725 191.448 214.679 190.598 215.742C188.954 217.732 187.337 219.75 185.546 221.624C183 224.318 180.107 226.663 176.945 228.598C180.193 227.019 183.305 225.176 186.252 223.089Z" fill="white"/>
<path d="M168.153 212.479C167.602 214.704 167.541 217.022 167.976 219.272C168.668 223.759 170.326 228.082 171.287 232.501C171.433 233.155 171.573 233.819 171.647 234.477C171.619 234.531 171.604 235.391 171.637 235.325C171.671 235.26 171.778 235.053 171.871 234.551C172.567 232.155 174.568 224.923 174.601 220.686C174.675 218.038 174.428 215.391 173.866 212.803C173.552 211.595 172.756 208.914 171.248 208.633C169.74 208.353 168.484 211.328 168.153 212.479Z" fill="#C5C5F2"/>
<path d="M170.949 212.238C172.779 212.079 173.067 220.323 173.12 221.397C173.325 225.389 173.006 229.391 172.17 233.3C172.083 233.737 171.985 234.169 171.881 234.611C171.778 235.053 171.653 235.375 171.648 235.386C171.642 235.397 171.673 234.614 171.663 234.526L171.601 234.192C171.504 233.632 171.39 233.078 171.265 232.545C170.907 229.414 170.495 226.283 170.208 223.148C169.971 220.888 169.917 218.613 170.047 216.345C170.102 215.782 170.126 212.338 170.949 212.238ZM170.416 214.236C169.535 220.818 171.304 227.278 171.841 233.806C171.856 233.909 171.862 234.014 171.86 234.118C171.932 233.977 171.935 233.785 171.964 233.621C172.579 230.39 172.885 227.108 172.878 223.82C172.872 221.813 172.74 219.809 172.482 217.819C172.396 216.722 172.235 215.631 172 214.556C171.88 214.094 171.5 212.852 171.133 212.843C170.767 212.833 170.487 213.804 170.416 214.236Z" fill="white"/>
<path d="M177.841 159.387C177.086 170.992 185.649 180.975 185.634 192.534L185.611 193.596C185.608 193.63 185.614 193.665 185.629 193.696C185.643 193.728 185.665 193.755 185.692 193.776C185.72 193.797 185.752 193.811 185.786 193.816C185.82 193.822 185.855 193.818 185.888 193.807C185.917 193.792 185.94 193.768 185.955 193.739C185.97 193.709 185.976 193.676 185.972 193.644L185.98 193.386C188.045 187.092 188.968 180.479 188.705 173.86C188.573 168.284 187.441 162.511 184.127 157.9C183.336 156.763 181.775 154.445 180.041 154.737C178.308 155.029 177.928 157.959 177.841 159.387Z" fill="#C5C5F2"/>
<path d="M181.362 161.668C182.081 161.555 182.634 162.433 182.974 162.896C183.788 164.075 184.461 165.346 184.978 166.681C186.045 169.404 186.7 172.27 186.921 175.186C187.449 180.18 187.357 185.22 186.647 190.191C186.47 191.311 186.249 192.409 185.973 193.507C185.912 193.626 185.904 193.774 185.864 193.905C185.833 193.918 185.8 193.924 185.766 193.923C185.732 193.921 185.699 193.913 185.669 193.897C185.639 193.882 185.613 193.86 185.592 193.833C185.571 193.806 185.556 193.776 185.549 193.743C185.58 193.387 185.584 193.059 185.594 192.719C185.605 192.693 185.618 192.667 185.633 192.643C185.81 190.325 185.764 187.996 185.495 185.688C184.916 182.137 184.11 178.627 183.082 175.179C182.705 173.746 178.838 162.103 181.362 161.668ZM180.906 164.186C181.209 167.061 181.824 169.893 182.74 172.635C183.474 175.436 184.23 178.221 184.909 181.021C185.464 183.249 185.824 185.522 185.985 187.812C186.127 189.72 186.099 191.636 185.902 193.539C186.29 191.697 186.564 189.833 186.722 187.958C186.722 187.958 186.722 187.958 186.75 187.903C186.99 184.565 187.022 181.215 186.846 177.873C186.85 177.831 186.848 177.789 186.842 177.747C186.767 174.801 186.336 171.875 185.558 169.032C185.119 167.483 184.501 165.991 183.715 164.586C182.819 163.01 181.924 161.833 181.363 162.095C180.801 162.356 180.833 163.392 180.878 164.241L180.906 164.186Z" fill="white"/>
<path d="M186.533 177.919C186.401 181.225 186.182 184.54 185.957 187.867C185.857 189.426 185.734 190.974 185.634 192.534C185.619 192.558 185.606 192.583 185.595 192.61C185.545 193.162 185.511 193.737 185.471 194.295C185.3 199.435 184.715 204.554 183.721 209.6C183.061 212.223 182.164 214.78 181.042 217.24C180.913 217.491 180.79 217.73 180.661 217.98C180.594 218.111 180.521 218.253 180.454 218.383C180.42 218.462 180.381 218.538 180.336 218.612C179.342 220.73 178.196 222.77 177.148 224.806C175.637 227.608 173.952 230.293 172.251 232.956C172.213 233.042 172.17 233.126 172.122 233.207C172.061 233.326 171.993 233.457 171.926 233.588C171.887 233.65 171.853 233.715 171.825 233.784L171.64 234.143C171.094 234.991 170.542 235.849 169.995 236.725L170.855 237.167C172.847 234.713 174.648 232.109 176.241 229.378C176.276 229.323 176.306 229.265 176.33 229.204C176.47 228.932 176.61 228.66 176.751 228.388C176.891 228.115 177.098 227.713 177.272 227.375C177.686 226.57 178.155 225.792 178.586 225.009C181.213 220.438 183.292 215.574 184.778 210.516C184.82 210.38 184.854 210.241 184.882 210.101C184.915 210.049 184.943 209.995 184.966 209.938L185.04 209.632L185.15 209.152C185.213 208.868 185.272 208.567 185.324 208.278L185.371 208.026C186.081 203.411 186.478 198.752 186.558 194.083C186.59 193.246 186.621 192.408 186.642 191.565C186.664 191.095 186.669 190.629 186.669 190.202L186.694 188.067C186.694 188.067 186.694 188.067 186.722 188.013C186.761 184.673 186.745 181.333 186.817 177.983C186.803 177.769 186.535 177.755 186.533 177.919Z" fill="#C5C5F2"/>
<path opacity="0.2" d="M181.034 16.2654L9.40247 18.1386V12.9354H181.034V16.2654Z" fill="black"/>
<path opacity="0.2" d="M9.4147 242.066L181.046 240.193L181.046 245.396L9.4147 245.396L9.4147 242.066Z" fill="black"/>
<path d="M159.266 182.914C166.134 192.463 169.207 237.125 169.207 237.125H21.2289C21.2289 237.125 24.2896 192.463 31.17 182.914C42.1885 167.659 88.711 134.873 88.711 127.356V124.565C88.356 116.876 42.1885 84.2861 31.17 69.1051C24.3018 59.5435 21.2289 21.4562 21.2289 21.4562H169.207C169.207 21.4562 166.147 59.5435 159.266 69.1051C148.248 84.3473 101.725 117.133 101.725 124.651V127.454C102.129 135.13 148.333 167.721 159.266 182.914Z" fill="#E0E0FF"/>
<path d="M169.538 237.431H20.8984V237.101C21.0209 235.276 24.0448 192.255 30.9008 182.73C36.0795 175.532 48.9956 164.562 61.5077 153.972C74.7054 142.77 88.3439 131.201 88.3439 127.356V124.565C88.1602 120.66 75.2196 109.678 61.52 98.0593C49.0201 87.4571 36.0917 76.4876 30.913 69.2766C24.0693 59.7639 21.0331 23.0479 20.9107 21.5298V21.1992H169.538V21.5298C169.416 23.0968 166.392 59.8129 159.536 69.2766C154.357 76.4876 141.441 87.4448 128.929 98.0348C115.731 109.237 102.093 120.806 102.093 124.651V127.454C102.276 131.36 115.217 142.329 128.916 153.948C141.416 164.562 154.345 175.519 159.523 182.73C166.379 192.255 169.403 235.276 169.526 237.101L169.538 237.431ZM21.6208 236.819H168.877C168.583 232.73 165.461 192.035 159.083 183.085C153.843 175.985 140.976 164.966 128.5 154.413C114.103 142.17 101.664 131.654 101.468 127.479V124.663C101.468 120.537 114.005 109.898 128.525 97.5819C140.988 87.0163 153.879 76.0713 159.021 68.9338C165.437 60.021 168.559 25.5454 168.816 21.7746H21.6208C21.9391 25.5454 25.0732 60.021 31.4762 68.9338C36.6181 76.0836 49.5221 87.0286 61.9974 97.6064C76.3949 109.849 88.8336 120.378 89.0295 124.54V127.356C89.0295 131.482 76.4929 142.121 61.9729 154.437C49.4486 164.966 36.5569 175.985 31.415 183.085C24.9753 192.035 21.8534 232.73 21.6208 236.819Z" fill="#4F48ED"/>
<path opacity="0.8" d="M151.737 179.743C158.201 188.742 161.09 237.113 161.09 237.113H30.2886C30.2886 237.113 33.1656 188.742 39.6421 179.743C49.975 165.395 93.7429 134.543 93.7429 127.466V124.834C93.4123 117.611 49.926 86.8817 39.6421 72.6556C33.1779 63.6572 30.2886 21.236 30.2886 21.236H161.09C161.09 21.236 158.213 63.6449 151.737 72.6556C141.404 87.0041 97.6238 117.856 97.6238 124.932V127.564C97.9666 134.788 141.453 165.456 151.737 179.743Z" fill="#EDEDFD"/>
<path d="M159.536 237.125H30.9008C30.9008 237.125 83.361 173.328 95.212 173.328C107.063 173.328 159.536 237.125 159.536 237.125Z" fill="#4F48ED"/>
<path opacity="0.1" d="M159.536 237.125H30.9008C30.9008 237.125 83.361 173.328 95.212 173.328C107.063 173.328 159.536 237.125 159.536 237.125Z" fill="black"/>
<path opacity="0.1" d="M125.941 226.4C125.941 226.579 125.888 226.755 125.789 226.904C125.689 227.053 125.548 227.169 125.382 227.237C125.216 227.306 125.034 227.324 124.859 227.289C124.683 227.254 124.521 227.168 124.395 227.041C124.268 226.914 124.182 226.753 124.147 226.577C124.112 226.401 124.13 226.219 124.198 226.054C124.267 225.888 124.383 225.746 124.532 225.647C124.681 225.547 124.856 225.494 125.035 225.494C125.154 225.494 125.272 225.518 125.382 225.563C125.492 225.609 125.592 225.675 125.676 225.76C125.76 225.844 125.827 225.944 125.872 226.054C125.918 226.163 125.941 226.281 125.941 226.4Z" fill="black"/>
<path opacity="0.1" d="M61.1159 214.929C61.1127 215.17 61.0146 215.401 60.8427 215.57C60.6709 215.74 60.4392 215.835 60.1977 215.835C59.9575 215.835 59.727 215.739 59.5571 215.569C59.3872 215.399 59.2917 215.169 59.2917 214.929C59.2917 214.689 59.3872 214.458 59.5571 214.288C59.727 214.118 59.9575 214.023 60.1977 214.023C60.4392 214.023 60.6709 214.118 60.8427 214.287C61.0146 214.457 61.1127 214.687 61.1159 214.929Z" fill="black"/>
<path opacity="0.1" d="M128.059 222.703C128.062 222.839 128.024 222.973 127.95 223.087C127.876 223.201 127.77 223.291 127.645 223.345C127.52 223.399 127.382 223.414 127.248 223.389C127.114 223.364 126.991 223.3 126.894 223.204C126.796 223.109 126.73 222.987 126.702 222.853C126.675 222.72 126.688 222.582 126.739 222.456C126.791 222.33 126.879 222.222 126.992 222.146C127.105 222.07 127.238 222.03 127.374 222.03C127.554 222.03 127.726 222.1 127.854 222.226C127.983 222.352 128.056 222.523 128.059 222.703Z" fill="black"/>
<path opacity="0.1" d="M119.416 198.144C119.416 198.324 119.345 198.496 119.219 198.624C119.093 198.753 118.922 198.826 118.743 198.829C118.606 198.832 118.473 198.794 118.358 198.72C118.244 198.646 118.154 198.54 118.1 198.415C118.047 198.29 118.031 198.152 118.056 198.018C118.081 197.884 118.146 197.761 118.241 197.664C118.337 197.566 118.459 197.5 118.592 197.472C118.725 197.445 118.864 197.458 118.99 197.509C119.116 197.561 119.224 197.649 119.299 197.762C119.375 197.875 119.416 198.008 119.416 198.144Z" fill="black"/>
<path opacity="0.1" d="M46.7551 229.13C46.7575 229.266 46.7194 229.4 46.6456 229.514C46.5717 229.629 46.4655 229.719 46.3405 229.772C46.2154 229.826 46.0772 229.841 45.9434 229.816C45.8096 229.791 45.6863 229.727 45.5892 229.632C45.4921 229.536 45.4256 229.414 45.3981 229.281C45.3707 229.148 45.3835 229.009 45.435 228.883C45.4866 228.757 45.5744 228.649 45.6874 228.573C45.8004 228.497 45.9334 228.457 46.0695 228.457C46.2493 228.457 46.4218 228.527 46.55 228.653C46.6783 228.779 46.7519 228.951 46.7551 229.13Z" fill="black"/>
<path opacity="0.1" d="M86.1646 193.467C86.1646 193.555 86.1472 193.643 86.1133 193.725C86.0795 193.806 86.0299 193.881 85.9673 193.943C85.9048 194.006 85.8306 194.055 85.7489 194.089C85.6672 194.123 85.5797 194.14 85.4912 194.14C85.4028 194.14 85.3152 194.123 85.2336 194.089C85.1519 194.055 85.0776 194.006 85.0151 193.943C84.9526 193.881 84.903 193.806 84.8691 193.725C84.8353 193.643 84.8179 193.555 84.8179 193.467C84.8162 193.378 84.8325 193.29 84.8657 193.207C84.899 193.125 84.9485 193.05 85.0114 192.987C85.0743 192.924 85.1491 192.875 85.2316 192.842C85.314 192.808 85.4024 192.792 85.4912 192.794C85.6698 192.794 85.8411 192.865 85.9673 192.991C86.0936 193.117 86.1646 193.288 86.1646 193.467Z" fill="black"/>
<path opacity="0.1" d="M84.8179 188.729C84.8147 188.854 84.763 188.972 84.6738 189.059C84.5846 189.146 84.465 189.195 84.3405 189.195C84.2171 189.195 84.0987 189.145 84.0115 189.058C83.9243 188.971 83.8752 188.853 83.8752 188.729C83.8752 188.606 83.9243 188.488 84.0115 188.4C84.0987 188.313 84.2171 188.264 84.3405 188.264C84.465 188.264 84.5846 188.313 84.6738 188.4C84.763 188.486 84.8147 188.605 84.8179 188.729Z" fill="black"/>
<path opacity="0.1" d="M94.5998 221.565C94.6022 221.659 94.5763 221.753 94.5254 221.833C94.4744 221.913 94.4007 221.976 94.3137 222.014C94.2267 222.052 94.1303 222.064 94.0369 222.046C93.9435 222.029 93.8573 221.985 93.7893 221.919C93.7213 221.852 93.6746 221.767 93.6551 221.674C93.6357 221.582 93.6444 221.485 93.6802 221.397C93.7159 221.309 93.7771 221.234 93.8558 221.181C93.9346 221.128 94.0274 221.099 94.1223 221.099C94.1845 221.098 94.2463 221.108 94.3041 221.131C94.362 221.154 94.4147 221.188 94.4592 221.231C94.5037 221.274 94.5391 221.326 94.5633 221.384C94.5874 221.441 94.5998 221.502 94.5998 221.565Z" fill="black"/>
<path opacity="0.1" d="M65.5111 224.686C65.5135 224.781 65.4876 224.875 65.4366 224.955C65.3856 225.035 65.3119 225.098 65.2249 225.136C65.1379 225.174 65.0416 225.185 64.9482 225.168C64.8547 225.151 64.7685 225.107 64.7005 225.04C64.6325 224.974 64.5858 224.889 64.5664 224.796C64.547 224.703 64.5556 224.607 64.5914 224.519C64.6271 224.431 64.6883 224.355 64.7671 224.302C64.8458 224.249 64.9386 224.221 65.0336 224.221C65.0957 224.219 65.1575 224.23 65.2154 224.253C65.2732 224.275 65.326 224.309 65.3705 224.353C65.415 224.396 65.4504 224.448 65.4745 224.505C65.4987 224.563 65.5111 224.624 65.5111 224.686Z" fill="black"/>
<path opacity="0.1" d="M124.595 205.22C124.595 205.312 124.567 205.402 124.516 205.479C124.465 205.555 124.392 205.615 124.307 205.65C124.222 205.685 124.129 205.695 124.039 205.677C123.948 205.659 123.866 205.614 123.8 205.549C123.735 205.484 123.691 205.401 123.673 205.311C123.655 205.221 123.664 205.127 123.7 205.042C123.735 204.957 123.794 204.885 123.871 204.834C123.947 204.782 124.037 204.755 124.129 204.755C124.253 204.755 124.371 204.804 124.458 204.891C124.546 204.979 124.595 205.097 124.595 205.22Z" fill="black"/>
<path opacity="0.1" d="M136.899 229.13C137.156 229.13 137.364 228.922 137.364 228.665C137.364 228.408 137.156 228.2 136.899 228.2C136.642 228.2 136.433 228.408 136.433 228.665C136.433 228.922 136.642 229.13 136.899 229.13Z" fill="black"/>
<path d="M96.3016 168.186C96.3016 170.769 99.1175 175.825 99.1175 175.825H92.2493C92.2493 175.825 95.0651 170.769 95.0651 168.186V137.395C95.0651 121.039 93.7307 118.774 92.4452 116.815C89.1029 114.795 84.3772 110.51 79.3209 105.393H112.046C106.977 110.522 102.252 114.82 98.9094 116.827C97.6851 118.774 96.3139 121.1 96.3139 137.383L96.3016 168.186Z" fill="#4F48ED"/>
<path opacity="0.1" d="M96.3016 168.186C96.3016 170.769 99.1175 175.825 99.1175 175.825H92.2493C92.2493 175.825 95.0651 170.769 95.0651 168.186V137.395C95.0651 121.039 93.7307 118.774 92.4452 116.815C89.1029 114.795 84.3772 110.51 79.3209 105.393H112.046C106.977 110.522 102.252 114.82 98.9094 116.827C97.6851 118.774 96.3139 121.1 96.3139 137.383L96.3016 168.186Z" fill="black"/>
<path opacity="0.1" d="M91.4045 109.372C91.4021 109.235 91.4406 109.101 91.515 108.986C91.5894 108.872 91.6963 108.782 91.822 108.728C91.9478 108.675 92.0867 108.66 92.2208 108.686C92.3549 108.712 92.4782 108.778 92.5748 108.875C92.6714 108.971 92.7369 109.095 92.763 109.229C92.7891 109.363 92.7745 109.502 92.7211 109.627C92.6677 109.753 92.5779 109.86 92.4633 109.934C92.3487 110.009 92.2145 110.047 92.0779 110.045C91.8993 110.045 91.728 109.974 91.6018 109.848C91.4755 109.721 91.4045 109.55 91.4045 109.372Z" fill="black"/>
<path opacity="0.1" d="M88.2581 111.722C88.2762 111.61 88.3336 111.508 88.4199 111.435C88.5063 111.361 88.616 111.321 88.7294 111.321C88.8429 111.321 88.9526 111.361 89.0389 111.435C89.1253 111.508 89.1827 111.61 89.2008 111.722C89.2118 111.791 89.2079 111.86 89.1893 111.927C89.1707 111.994 89.1378 112.055 89.093 112.108C89.0482 112.161 88.9925 112.203 88.9297 112.232C88.8669 112.261 88.7986 112.276 88.7294 112.276C88.6603 112.276 88.5919 112.261 88.5292 112.232C88.4664 112.203 88.4107 112.161 88.3659 112.108C88.321 112.055 88.2882 111.994 88.2696 111.927C88.251 111.86 88.247 111.791 88.2581 111.722Z" fill="black"/>
<path opacity="0.1" d="M105.704 108.233C105.704 108.109 105.753 107.989 105.84 107.9C105.927 107.811 106.045 107.759 106.169 107.756C106.295 107.759 106.415 107.81 106.504 107.899C106.592 107.988 106.644 108.107 106.647 108.233C106.644 108.358 106.592 108.476 106.503 108.563C106.414 108.65 106.294 108.698 106.169 108.698C106.046 108.698 105.928 108.649 105.84 108.562C105.753 108.475 105.704 108.356 105.704 108.233Z" fill="black"/>
<path d="M36.5937 230.318C36.0749 221.862 36.1813 213.379 36.912 204.939C37.2548 200.715 37.7322 196.516 38.4913 192.231C38.7239 191.117 38.8953 190.088 39.2259 188.925L39.4707 188.056L39.5809 187.627C39.5809 187.468 39.7278 187.26 39.8013 187.076C40.0627 186.405 40.3822 185.758 40.7562 185.142C41.9846 183.208 43.3642 181.374 44.882 179.657C50.5277 173.29 56.6683 167.378 63.2462 161.979C69.7303 156.527 76.6091 151.564 83.8263 147.128C78.5496 153.813 72.8935 160.032 67.2128 166.178C61.5322 172.324 55.6924 178.298 50.3913 184.395C49.1234 185.809 47.9574 187.31 46.9021 188.888C46.7221 189.164 46.5586 189.45 46.4124 189.745C46.3767 189.803 46.348 189.865 46.3267 189.929L46.2165 190.247L46.0206 190.884C45.7268 191.729 45.5187 192.757 45.2371 193.688C44.2821 197.617 43.4374 201.707 42.5559 205.771C40.8297 213.937 39.03 222.152 36.5937 230.318Z" fill="white"/>
<path d="M83.8752 106.887C77.0421 102.068 70.4821 96.8729 64.2256 91.326C57.9573 85.8494 51.8849 80.1809 46.0084 74.3207L44.9065 73.2189L44.3556 72.6679L43.7067 71.9946C42.8083 70.9456 42.0623 69.7751 41.4908 68.5177C40.5599 66.4555 39.7943 64.3226 39.2013 62.1392C38.0849 58.0309 37.2303 53.8558 36.6426 49.6393C35.4047 41.3221 34.9538 32.9067 35.2959 24.5049C37.9649 32.4994 40.0951 40.5307 42.3355 48.4273C43.4741 52.3694 44.5637 56.3116 45.8859 60.0579C46.4712 61.8567 47.1831 63.6118 48.0162 65.3101C48.3043 65.9398 48.6748 66.5285 49.118 67.0608L51.2115 69.1421C57.0717 75.0023 62.7565 81.0502 68.2657 87.2858C73.8311 93.5225 79.0425 100.066 83.8752 106.887Z" fill="white"/>
<path d="M9.74181 21.1293V13.2748H180.695V21.1293H9.74181Z" fill="#EDEDFD" stroke="#4F48ED" stroke-width="0.678691"/>
<path d="M180.707 237.203L180.707 245.057L9.75404 245.057L9.75404 237.202L180.707 237.203Z" fill="#EDEDFD" stroke="#4F48ED" stroke-width="0.678691"/>
<path d="M0.339345 13.2746V0.339345H190.109V13.2746H0.339345Z" fill="white" stroke="#4F48ED" stroke-width="0.678691"/>
<path d="M190.109 245.057L190.109 257.992L0.339355 257.992L0.339357 245.057L190.109 245.057Z" fill="white" stroke="#4F48ED" stroke-width="0.678691"/>
</svg>
