<svg width="310" height="372" viewBox="0 0 310 372" fill="none" xmlns="http://www.w3.org/2000/svg">
<path d="M10.5292 309.406C13.2391 308.502 18.0447 304.085 18.0447 304.076C18.0447 304.067 14.1785 301.827 13.9166 301.719C10.8724 300.436 4.23309 299.749 1.82126 302.559C1.43978 303.037 1.16237 303.589 1.00682 304.18C0.851267 304.772 0.820996 305.389 0.917945 305.993C1.0149 306.597 1.23693 307.174 1.56982 307.687C1.9027 308.2 2.33909 308.638 2.85103 308.972C4.98284 310.49 8.18055 310.164 10.5292 309.406Z" fill="#C5C5F2"/>
<path d="M60.5815 266.823C60.6448 266.823 58.5942 262.822 58.4316 262.578C56.625 259.868 51.44 255.595 47.881 256.607C47.2942 256.792 46.7528 257.097 46.2918 257.505C45.8308 257.912 45.4606 258.412 45.2051 258.971C44.9496 259.531 44.8145 260.138 44.8087 260.753C44.8028 261.368 44.9263 261.977 45.1711 262.542C46.1376 264.963 48.983 266.462 51.3678 267.122C54.168 267.898 60.5725 266.832 60.5815 266.823Z" fill="#C5C5F2"/>
<path d="M24.702 321.971C27.0326 320.444 30.2483 315.341 30.5013 314.934C33.4168 316.779 36.4527 318.427 39.5886 319.866C41.3952 320.715 43.2741 321.519 45.153 322.296C44.2496 322.061 43.4276 321.872 43.3463 321.853C40.0673 321.42 33.4822 322.513 31.9014 325.855C31.6536 326.42 31.5278 327.03 31.5322 327.647C31.5366 328.263 31.671 328.872 31.9268 329.433C32.1826 329.994 32.554 330.495 33.0166 330.903C33.4791 331.31 34.0226 331.616 34.6113 331.799C37.0683 332.702 40.0312 331.519 42.1359 330.164C44.2406 328.809 47.0589 324.482 47.7906 323.335L49.9586 324.238C53.4363 325.62 56.905 326.948 60.2744 328.43C61.4577 328.935 62.6049 329.486 63.7611 330.019C62.9482 329.821 62.2707 329.658 62.1623 329.649C58.8833 329.215 52.3072 330.308 50.7174 333.651C50.4696 334.215 50.3439 334.825 50.3483 335.441C50.3528 336.057 50.4873 336.665 50.7432 337.225C50.9991 337.785 51.3704 338.285 51.833 338.692C52.2956 339.099 52.8388 339.403 53.4273 339.585C55.8933 340.489 58.8923 339.305 60.9519 337.95C63.0114 336.595 65.5949 332.693 66.4801 331.338C67.6363 331.925 68.8016 332.513 69.9036 333.145C70.6444 333.587 71.3941 333.958 72.1167 334.446L74.2666 335.828C75.5945 336.731 76.9766 337.707 78.2593 338.646C79.1626 339.296 79.9936 339.929 80.8427 340.561C79.6684 340.046 77.3469 339.071 77.1392 339.016C73.9685 338.113 67.2931 338.176 65.2245 341.238C64.8931 341.757 64.6747 342.339 64.5838 342.948C64.4928 343.556 64.5313 344.177 64.6967 344.769C64.8621 345.362 65.1507 345.913 65.5436 346.386C65.9366 346.86 66.425 347.245 66.9769 347.516C69.2713 348.754 72.3968 348.068 74.6641 347.038C77.1301 345.909 80.9873 341.546 81.4208 340.995C82.821 342.051 84.1759 343.09 85.4315 344.093C89.099 346.993 92.1522 349.603 94.4646 351.645L96.2713 350.001C93.8504 347.959 90.6165 345.303 86.7233 342.359C85.3051 341.284 83.7695 340.155 82.2067 339.016C83.0405 337.347 83.7764 335.631 84.4108 333.877C87.184 334.157 92.4051 332.72 93.0826 332.531C93.6697 334.184 94.2207 335.801 94.7176 337.327C96.1448 341.69 97.2378 345.457 98.0417 348.447L100.065 346.64C99.2251 343.849 98.1411 340.444 96.7952 336.604C96.208 334.924 95.5486 333.145 94.844 331.32C95.4673 330.968 100.49 328.041 102.071 325.837C103.507 323.832 104.78 320.878 104.004 318.376C103.84 317.784 103.553 317.233 103.163 316.759C102.773 316.285 102.288 315.897 101.739 315.622C101.19 315.347 100.589 315.191 99.9754 315.162C99.3619 315.134 98.7493 315.235 98.1772 315.458C94.7718 316.912 93.4168 323.443 93.7149 326.731C93.7149 326.93 94.1665 329.017 94.4556 330.345C94.1665 329.595 93.8956 328.872 93.5523 328.113C92.9561 326.596 92.3148 325.105 91.6373 323.497C91.2759 322.73 90.9237 321.962 90.5533 321.185C90.1829 320.408 89.7494 319.622 89.3429 318.827C88.3763 317.021 87.3014 315.214 86.1723 313.408C87.5001 312.884 92.1702 310.951 93.9046 309.18C95.6389 307.41 97.3372 304.663 96.9397 302.107C96.8699 301.497 96.6722 300.908 96.3596 300.379C96.0469 299.85 95.6263 299.393 95.1251 299.038C94.624 298.682 94.0535 298.436 93.451 298.316C92.8485 298.196 92.2274 298.204 91.6282 298.34C88.015 299.244 85.7116 305.513 85.5128 308.81C85.5128 309.008 85.6212 311.393 85.7116 312.703C85.025 311.637 84.3476 310.571 83.6249 309.514C81.5292 306.47 79.3071 303.453 77.1121 300.436C76.4346 299.533 75.7752 298.584 75.1157 297.654C75.5855 297.473 81.186 295.296 83.1281 293.318C84.8534 291.511 86.5607 288.801 86.1723 286.236C86.1013 285.625 85.9025 285.036 85.5889 284.507C85.2753 283.978 84.8538 283.521 84.352 283.166C83.8501 282.811 83.2791 282.565 82.6761 282.445C82.073 282.325 81.4514 282.333 80.8518 282.469C77.2385 283.372 74.9351 289.641 74.7364 292.939C74.7364 293.191 74.8989 296.615 74.9893 297.455C73.5259 295.405 72.0897 293.354 70.7528 291.276C68.9301 288.482 67.2945 285.57 65.8568 282.559C66.0736 282.478 71.9271 280.229 73.9143 278.196C75.6397 276.39 77.3469 273.68 76.9585 271.124C76.8887 270.513 76.691 269.924 76.3783 269.395C76.0657 268.867 75.6451 268.41 75.1439 268.054C74.6428 267.699 74.0723 267.453 73.4698 267.333C72.8673 267.213 72.2462 267.221 71.647 267.357C68.0338 268.26 65.7304 274.529 65.5316 277.826C65.5316 278.043 65.649 280.653 65.7394 281.891L65.5406 281.945C64.1663 278.88 63.0719 275.696 62.2707 272.433C61.81 270.627 61.4667 268.901 61.1686 267.212C62.2978 266.905 67.4918 265.451 69.461 263.816C71.4302 262.181 73.3633 259.724 73.264 257.113C73.2589 256.499 73.1249 255.892 72.8705 255.332C72.6161 254.773 72.2471 254.273 71.7872 253.865C71.3274 253.457 70.7871 253.15 70.2012 252.965C69.6153 252.779 68.9969 252.718 68.3861 252.786C64.7277 253.301 61.7197 259.263 61.1596 262.524C61.1596 262.696 61.0151 264.529 60.9519 265.866C60.8344 265.099 60.6899 264.313 60.5905 263.572C60.2021 260.799 60.0124 258.242 59.8588 255.975C59.7866 254.683 59.7505 253.509 59.7234 252.416C60.6718 251.513 64.4838 247.899 65.4774 245.614C66.4711 243.329 67.0582 240.194 65.7665 237.918C65.4804 237.373 65.0828 236.895 64.5995 236.514C64.1163 236.133 63.5582 235.858 62.9617 235.707C62.3652 235.557 61.7436 235.533 61.1374 235.638C60.5312 235.744 59.9539 235.976 59.4433 236.319C56.4263 238.469 56.5076 245.144 57.5102 248.297C57.6006 248.568 59.4343 252.669 59.4885 252.624L59.5427 252.57C59.5427 253.617 59.5427 254.747 59.6149 255.984C59.7143 258.26 59.8408 260.835 60.175 263.626C60.5009 266.634 61.0015 269.62 61.6745 272.569C62.4118 275.88 63.4458 279.118 64.7638 282.243L64.818 282.352C64.1134 281.53 62.0629 279.299 61.8823 279.145C59.3891 276.977 53.2918 274.258 50.1392 276.173C49.6216 276.505 49.1798 276.942 48.8427 277.456C48.5055 277.97 48.2805 278.55 48.1825 279.157C48.0845 279.764 48.1156 280.384 48.2737 280.979C48.4319 281.573 48.7136 282.127 49.1004 282.605C50.6722 284.691 53.8067 285.387 56.2817 285.396C59.0639 285.396 64.5561 282.912 64.9987 282.686C66.4134 285.835 68.0369 288.886 69.8585 291.818C70.9063 293.526 72.0174 295.224 73.1556 296.904C72.5232 296.218 71.9542 295.603 71.8638 295.522C69.3707 293.363 63.2733 290.635 60.1208 292.55C59.6032 292.882 59.1614 293.319 58.8242 293.833C58.4871 294.347 58.2621 294.927 58.1641 295.534C58.0661 296.141 58.0971 296.761 58.2553 297.356C58.4135 297.95 58.6952 298.504 59.082 298.982C60.6447 301.077 63.7882 301.764 66.2633 301.773C68.7384 301.782 73.4898 299.749 74.7364 299.198C75.179 299.84 75.6397 300.49 76.0642 301.132C78.196 304.194 80.3369 307.256 82.3874 310.309C83.101 311.393 83.7604 312.477 84.4198 313.561C83.8598 312.947 83.381 312.441 83.2997 312.369C80.8066 310.201 74.7093 307.482 71.5567 309.397C71.0398 309.729 70.5988 310.167 70.2625 310.682C69.9262 311.196 69.7022 311.776 69.605 312.383C69.5078 312.989 69.5397 313.61 69.6985 314.204C69.8574 314.797 70.1397 315.351 70.5269 315.828C72.0897 317.915 75.2332 318.611 77.6992 318.62C80.1652 318.629 84.474 316.813 85.9555 316.145C86.6058 317.274 87.2562 318.403 87.8253 319.532C88.2047 320.309 88.6202 321.031 88.9454 321.835C89.2706 322.639 89.641 323.407 89.9752 324.175C90.5804 325.693 91.2037 327.246 91.7818 328.737C92.1702 329.766 92.5225 330.76 92.8748 331.754C92.1883 330.67 90.7791 328.583 90.6436 328.421C88.6751 326.272 86.1863 324.667 83.4172 323.759C83.2115 323.509 82.9815 323.279 82.7306 323.073C82.2683 322.668 81.726 322.366 81.1391 322.185C80.5522 322.003 79.9337 321.947 79.3237 322.021C78.7138 322.094 78.1262 322.295 77.5989 322.61C77.0715 322.925 76.6164 323.347 76.2629 323.85C74.2215 326.939 76.6965 333.136 78.7651 335.719C78.8825 335.873 80.3911 337.372 81.3576 338.303L79.3161 336.975C77.9883 336.072 76.6062 335.168 75.179 334.184L73.002 332.847C72.2794 332.386 71.4664 331.989 70.6895 331.555C68.8829 330.579 66.995 329.676 65.08 328.845C65.893 327.68 68.6932 323.497 69.19 321.059C69.6869 318.62 69.5694 315.422 67.826 313.48C67.43 313.01 66.9395 312.629 66.3864 312.361C65.8334 312.093 65.2301 311.944 64.6159 311.924C64.0017 311.905 63.3902 312.015 62.8212 312.247C62.2522 312.479 61.7384 312.828 61.3132 313.272C58.8291 315.982 60.3376 322.513 61.9816 325.376C62.09 325.557 63.4992 327.472 64.3031 328.511C63.1469 328.005 61.9907 327.49 60.8073 327.011C57.3747 325.629 53.8609 324.301 50.3651 323.028C49.2901 322.63 48.2242 322.215 47.1583 321.808C47.4564 321.402 50.9251 316.497 51.449 313.769C51.9188 311.348 51.8374 308.132 50.085 306.19C49.689 305.72 49.1985 305.339 48.6454 305.071C48.0924 304.803 47.4891 304.654 46.8749 304.635C46.2607 304.615 45.6492 304.725 45.0802 304.957C44.5112 305.189 43.9974 305.539 43.5722 305.982C41.0881 308.692 42.5966 315.223 44.2496 318.087C44.3671 318.303 46.4086 321.059 46.9596 321.7C44.611 320.797 42.2804 319.893 40.0131 318.891C36.9524 317.565 33.9831 316.038 31.1246 314.32C31.2601 314.13 34.9094 309.026 35.4424 306.235C35.9031 303.814 35.8218 300.599 34.0784 298.656C33.6823 298.187 33.1918 297.805 32.6388 297.537C32.0857 297.269 31.4825 297.121 30.8682 297.101C30.254 297.082 29.6425 297.191 29.0735 297.424C28.5045 297.656 27.9907 298.005 27.5655 298.449C25.0814 301.159 26.5899 307.69 28.234 310.553C28.3424 310.743 29.896 312.847 30.6639 313.832L30.5193 313.986C27.6859 312.183 25.0195 310.13 22.5521 307.852C21.1701 306.615 19.9235 305.359 18.7402 304.103C19.517 303.2 23.0219 299.162 23.7897 296.696C24.5575 294.23 24.7833 291.132 23.2658 289.018C22.9213 288.509 22.4738 288.078 21.9521 287.752C21.4304 287.427 20.8462 287.215 20.2374 287.13C19.6285 287.045 19.0085 287.088 18.4176 287.258C17.8267 287.428 17.278 287.72 16.8071 288.115C14.043 290.572 14.8288 297.202 16.1477 300.228C16.2199 300.391 17.1413 301.981 17.8278 303.128C17.3039 302.559 16.7529 301.981 16.2561 301.421C14.4495 299.325 12.8325 297.292 11.4595 295.477C10.6827 294.438 10.0052 293.49 9.37286 292.595C9.68902 291.331 10.8814 286.227 10.4297 283.743C9.97807 281.259 8.74957 278.323 6.41903 277.167C5.88108 276.871 5.28685 276.692 4.67504 276.641C4.06324 276.59 3.44756 276.668 2.86811 276.871C2.28865 277.074 1.75841 277.397 1.31189 277.818C0.865373 278.239 0.512595 278.75 0.276528 279.317C-1.05134 282.767 2.6974 288.286 5.2628 290.364C5.48862 290.545 9.28252 292.948 9.30059 292.884C9.3025 292.857 9.3025 292.83 9.30059 292.803C9.88774 293.706 10.5291 294.61 11.2427 295.621C12.5796 297.428 14.1152 299.542 15.9309 301.683C17.8646 304.012 19.9305 306.229 22.1186 308.322C24.5622 310.658 27.2071 312.774 30.0225 314.645L30.1309 314.708C29.0921 314.41 26.1473 313.678 25.9125 313.651C22.6334 313.218 16.0573 314.311 14.4675 317.653C14.2197 318.218 14.0939 318.828 14.0983 319.445C14.1027 320.061 14.2372 320.67 14.493 321.231C14.7487 321.792 15.1201 322.293 15.5827 322.701C16.0453 323.108 16.5887 323.414 17.1775 323.597C19.6435 324.482 22.6425 323.335 24.702 321.971Z" fill="#C5C5F2"/>
<path d="M201.244 103.695C203.177 106.929 210.142 111.671 210.151 111.671C210.16 111.671 211.885 106.134 211.957 105.763C212.698 101.545 211.65 92.9454 207.441 90.7052C206.726 90.3523 205.944 90.154 205.147 90.1232C204.35 90.0923 203.555 90.2296 202.815 90.5261C202.074 90.8226 201.405 91.2717 200.849 91.8442C200.294 92.4167 199.865 93.0997 199.591 93.8487C198.281 96.9923 199.6 100.949 201.244 103.695Z" fill="#C5C5F2"/>
<path d="M269.543 154.768C269.543 154.849 274.06 151.1 274.304 150.829C277.258 147.713 281.124 139.99 278.82 135.753C278.418 135.064 277.876 134.467 277.228 134.002C276.58 133.536 275.841 133.212 275.06 133.051C274.278 132.89 273.472 132.896 272.692 133.067C271.913 133.238 271.179 133.572 270.537 134.046C267.746 135.97 266.671 139.999 266.517 143.196C266.346 146.954 269.543 154.759 269.543 154.768Z" fill="#C5C5F2"/>
<path d="M189.42 125.257C192.03 127.759 199.419 130.36 200.006 130.559C198.516 134.783 197.309 139.101 196.393 143.486C195.842 146.033 195.363 148.625 194.921 151.227C194.921 150.007 194.921 148.914 194.921 148.761C194.523 144.497 191.244 136.476 186.556 135.437C185.773 135.285 184.966 135.299 184.188 135.479C183.41 135.659 182.68 136.001 182.043 136.483C181.406 136.964 180.878 137.574 180.493 138.274C180.108 138.973 179.875 139.745 179.808 140.541C179.411 143.91 181.741 147.379 184.054 149.574C186.366 151.769 192.653 154.172 194.315 154.768C194.153 155.762 193.981 156.764 193.828 157.758C193.078 162.554 192.355 167.342 191.497 172.021C191.199 173.665 190.838 175.282 190.485 176.899C190.485 175.815 190.485 174.903 190.485 174.767C190.088 170.495 186.809 162.482 182.121 161.434C181.337 161.283 180.531 161.299 179.754 161.48C178.976 161.662 178.246 162.005 177.61 162.487C176.975 162.969 176.448 163.58 176.064 164.28C175.68 164.979 175.448 165.752 175.382 166.547C174.985 169.907 177.306 173.376 179.619 175.58C181.931 177.784 187.613 179.934 189.555 180.657C189.149 182.301 188.742 183.945 188.272 185.517C187.92 186.582 187.667 187.63 187.261 188.687L186.122 191.804C185.337 193.755 184.533 195.778 183.711 197.675C183.151 198.985 182.591 200.231 182.03 201.487C182.347 199.852 182.934 196.636 182.934 196.365C183.187 192.084 181.127 183.665 176.683 181.912C175.931 181.643 175.131 181.535 174.335 181.596C173.538 181.656 172.764 181.884 172.061 182.264C171.359 182.644 170.745 183.168 170.259 183.802C169.772 184.435 169.425 185.164 169.24 185.941C168.336 189.202 170.143 192.987 172.058 195.525C174.208 198.325 180.829 201.903 181.66 202.345C180.757 204.414 179.799 206.428 178.896 208.307C176.276 213.79 173.856 218.397 171.94 221.929L174.551 223.79C176.448 220.177 178.869 215.29 181.47 209.508C182.428 207.404 183.413 205.136 184.397 202.797C186.747 203.377 189.13 203.815 191.533 204.107C191.985 207.72 195.3 213.899 195.734 214.693C193.81 215.913 191.931 217.078 190.133 218.144C185.029 221.215 180.54 223.69 177.026 225.56L179.872 227.593C183.169 225.732 187.161 223.383 191.615 220.574C193.575 219.346 195.643 217.991 197.748 216.581C198.371 217.268 203.52 222.778 206.781 224.151C209.735 225.389 213.836 226.156 216.772 224.449C217.476 224.074 218.093 223.555 218.583 222.925C219.073 222.295 219.424 221.569 219.614 220.794C219.804 220.019 219.829 219.213 219.686 218.428C219.544 217.643 219.237 216.897 218.786 216.238C215.968 212.345 207.314 212.516 203.231 213.844C202.996 213.926 200.476 215.064 198.904 215.814C199.762 215.235 200.603 214.675 201.479 214.07C203.222 212.878 204.929 211.64 206.763 210.321L209.383 208.289C210.286 207.621 211.126 206.817 212.011 206.076C214.026 204.323 215.986 202.463 217.91 200.512C218.958 202.029 222.752 207.386 225.489 209.066C228.226 210.746 232.164 212.119 235.317 210.872C236.07 210.608 236.759 210.188 237.339 209.64C237.918 209.091 238.376 208.427 238.682 207.689C238.988 206.952 239.135 206.159 239.114 205.361C239.093 204.563 238.904 203.779 238.56 203.059C236.365 198.786 227.774 197.639 223.547 198.335C223.285 198.38 220.304 199.238 218.678 199.708C219.825 198.542 220.981 197.377 222.101 196.149C225.353 192.626 228.533 188.922 231.713 185.309C232.688 184.189 233.682 183.087 234.657 181.985C235.028 182.527 239.391 188.985 242.462 190.873C245.172 192.544 249.137 193.926 252.299 192.68C253.051 192.414 253.739 191.994 254.318 191.445C254.897 190.896 255.354 190.231 255.659 189.494C255.964 188.757 256.11 187.964 256.089 187.167C256.067 186.369 255.878 185.586 255.533 184.866C253.338 180.594 244.747 179.446 240.52 180.142C240.204 180.187 235.913 181.407 234.838 181.768C237.006 179.329 239.183 176.917 241.432 174.623C244.447 171.515 247.661 168.607 251.052 165.915C251.224 166.168 255.75 172.933 258.893 174.867C261.603 176.538 265.569 177.911 268.73 176.673C269.482 176.408 270.17 175.987 270.749 175.438C271.328 174.889 271.785 174.225 272.09 173.488C272.395 172.751 272.542 171.958 272.52 171.16C272.498 170.363 272.309 169.579 271.964 168.86C269.769 164.587 261.178 163.44 256.951 164.144C256.671 164.144 253.41 165.111 251.865 165.581L251.739 165.337C255.228 162.72 258.943 160.42 262.841 158.462C264.972 157.36 267.068 156.43 269.164 155.563C269.877 156.909 273.211 163.024 275.848 165.075C278.486 167.125 282.171 168.841 285.423 167.956C286.2 167.775 286.93 167.433 287.565 166.951C288.2 166.47 288.727 165.86 289.112 165.161C289.496 164.462 289.729 163.691 289.795 162.896C289.862 162.101 289.76 161.302 289.497 160.549C287.781 156.033 279.38 153.973 275.098 154.226C274.864 154.226 272.506 154.632 270.799 154.93C271.702 154.56 272.696 154.154 273.599 153.81C276.995 152.519 280.175 151.543 283.011 150.703C284.619 150.233 286.092 149.8 287.465 149.493C288.856 150.45 294.502 154.235 297.735 154.822C300.969 155.409 305.061 155.265 307.554 152.97C308.161 152.452 308.651 151.811 308.993 151.09C309.335 150.369 309.521 149.585 309.54 148.787C309.559 147.99 309.409 147.197 309.102 146.461C308.794 145.725 308.334 145.062 307.753 144.515C304.14 141.327 295.748 143.35 292.054 145.518C291.728 145.708 287.076 149.222 287.149 149.276L287.23 149.33C285.902 149.637 284.475 149.989 282.921 150.396C280.076 151.182 276.851 152.094 273.418 153.314C269.703 154.608 266.066 156.116 262.524 157.83C258.55 159.72 254.751 161.957 251.17 164.515L251.052 164.614C251.883 163.485 254.124 160.251 254.268 159.98C256.292 156.195 257.981 147.704 254.648 144.244C254.076 143.688 253.395 143.257 252.646 142.98C251.898 142.703 251.1 142.587 250.304 142.638C249.508 142.689 248.732 142.907 248.025 143.277C247.318 143.647 246.697 144.161 246.202 144.786C244.016 147.379 244.043 151.552 244.747 154.678C245.542 158.2 250.266 164.442 250.646 164.939C247.07 167.637 243.678 170.57 240.493 173.719C238.623 175.526 236.807 177.441 235.001 179.365C235.696 178.362 236.301 177.459 236.374 177.324C238.397 173.548 240.086 165.048 236.753 161.597C236.184 161.038 235.503 160.605 234.755 160.327C234.008 160.048 233.21 159.931 232.413 159.982C231.617 160.033 230.841 160.252 230.135 160.623C229.429 160.995 228.809 161.511 228.316 162.139C226.121 164.722 226.148 168.896 226.853 172.021C227.557 175.147 231.496 180.603 232.553 182.012L230.493 184.243C227.223 187.856 223.98 191.424 220.683 194.848C219.527 196.058 218.334 197.205 217.151 198.362C217.765 197.458 218.28 196.718 218.344 196.555C220.367 192.779 222.056 184.279 218.723 180.828C218.153 180.27 217.472 179.837 216.724 179.559C215.976 179.281 215.178 179.163 214.381 179.213C213.585 179.263 212.808 179.481 212.101 179.851C211.394 180.221 210.772 180.736 210.277 181.361C208.091 183.954 208.118 188.127 208.823 191.253C209.527 194.378 213.077 199.301 214.333 200.99C213.086 202.128 211.84 203.276 210.575 204.332C209.672 205.028 208.904 205.76 207.983 206.419L205.318 208.388C203.583 209.59 201.795 210.827 200.07 211.956C198.868 212.742 197.721 213.474 196.556 214.215C197.73 213.022 199.97 210.647 200.169 210.43C202.317 207.327 203.636 203.726 203.999 199.97C204.254 199.636 204.478 199.279 204.667 198.904C205.046 198.201 205.273 197.427 205.333 196.631C205.393 195.835 205.285 195.035 205.015 194.284C204.746 193.533 204.322 192.846 203.77 192.27C203.218 191.693 202.552 191.239 201.813 190.936C197.296 189.247 190.187 194.161 187.523 197.522C187.36 197.72 185.897 200.06 184.993 201.55C185.391 200.593 185.788 199.671 186.186 198.678C186.981 196.727 187.721 194.757 188.516 192.635C188.869 191.596 189.23 190.548 189.582 189.491C189.934 188.434 190.223 187.305 190.558 186.203C191.271 183.62 191.868 180.982 192.409 178.299C194.117 178.995 200.232 181.37 203.448 181.262C206.664 181.154 210.674 180.124 212.653 177.351C213.134 176.714 213.475 175.983 213.655 175.206C213.835 174.429 213.849 173.622 213.696 172.839C213.544 172.056 213.228 171.314 212.77 170.661C212.311 170.008 211.72 169.459 211.036 169.049C206.853 166.692 199.058 170.476 195.914 173.385C195.716 173.575 193.692 175.914 192.608 177.224C192.915 175.616 193.241 174.008 193.512 172.364C194.27 167.622 194.894 162.807 195.544 158.002C195.734 156.529 195.95 155.066 196.158 153.603C196.763 153.856 203.972 156.836 207.576 156.71C210.774 156.602 214.803 155.572 216.772 152.799C217.253 152.163 217.595 151.432 217.776 150.656C217.956 149.879 217.971 149.072 217.819 148.289C217.668 147.506 217.353 146.764 216.895 146.111C216.438 145.457 215.848 144.908 215.164 144.497C210.973 142.149 203.177 145.924 200.033 148.842C199.799 149.059 196.89 152.455 196.194 153.359C196.655 150.134 197.098 146.918 197.748 143.766C198.558 139.506 199.641 135.303 200.991 131.182C201.271 131.3 208.777 134.452 212.472 134.326C215.67 134.209 219.698 133.188 221.668 130.415C222.149 129.778 222.491 129.047 222.672 128.269C222.853 127.492 222.867 126.685 222.716 125.901C222.564 125.117 222.249 124.374 221.792 123.72C221.334 123.066 220.744 122.515 220.06 122.104C215.868 119.756 208.082 123.531 204.929 126.449C204.722 126.639 202.509 129.213 201.479 130.46L201.244 130.324C202.693 126.22 204.507 122.254 206.664 118.473C207.838 116.377 209.067 114.435 210.277 112.574C211.614 113.306 217.765 116.567 221.117 116.829C224.314 117.064 228.443 116.486 230.692 113.947C231.24 113.367 231.659 112.679 231.923 111.926C232.187 111.173 232.29 110.373 232.224 109.578C232.158 108.783 231.926 108.011 231.542 107.312C231.158 106.612 230.632 106.002 229.996 105.519C226.094 102.719 217.937 105.619 214.486 108.175C214.306 108.311 212.553 109.928 211.298 111.129C211.867 110.298 212.445 109.431 213.014 108.645C215.128 105.7 217.251 103.126 219.138 100.858C220.231 99.5847 221.243 98.4465 222.192 97.3987C223.881 97.3987 230.683 97.471 233.7 96.1792C236.717 94.8875 240.023 92.5028 240.872 89.2147C241.092 88.4463 241.147 87.6401 241.033 86.849C240.92 86.0579 240.641 85.2995 240.215 84.6235C239.789 83.9474 239.225 83.3689 238.56 82.9257C237.895 82.4825 237.144 82.1846 236.356 82.0515C231.604 81.365 225.696 87.7062 223.809 91.5543C223.646 91.8885 221.704 97.3897 221.785 97.3897H221.894C220.99 98.3833 219.951 99.4582 218.886 100.66C216.943 102.882 214.757 105.42 212.562 108.329C210.168 111.447 207.958 114.701 205.941 118.075C203.67 121.844 201.739 125.807 200.169 129.918L200.115 130.071C200.196 128.662 200.268 124.733 200.241 124.426C199.844 120.153 196.565 112.141 191.877 111.102C191.094 110.951 190.288 110.966 189.511 111.147C188.735 111.328 188.005 111.67 187.369 112.151C186.734 112.633 186.207 113.243 185.822 113.941C185.438 114.64 185.205 115.411 185.138 116.206C184.786 119.575 187.107 123.044 189.42 125.257Z" fill="#C5C5F2"/>
<path d="M145.439 336.333C145.375 336.144 145.312 335.954 145.24 335.764C145.168 335.575 145.113 335.376 145.041 335.186C144.969 334.997 144.915 334.807 144.842 334.617C144.77 334.427 144.716 334.229 144.644 334.039C144.571 333.849 144.517 333.66 144.445 333.47C144.373 333.28 144.318 333.082 144.246 332.892L144.047 332.323C143.984 332.124 143.912 331.934 143.849 331.745L143.65 331.176C143.587 330.977 143.514 330.787 143.451 330.597L143.253 330.028C143.189 329.83 143.117 329.64 143.054 329.45L142.864 328.845C142.801 328.646 142.729 328.457 142.665 328.267L142.458 327.698C142.394 327.499 142.331 327.309 142.259 327.12C142.187 326.93 142.132 326.74 142.06 326.551C141.988 326.361 141.934 326.162 141.861 325.972C141.789 325.783 141.735 325.593 141.663 325.403C138.718 316.443 129.613 309.866 119.595 309.866C109.884 309.866 101.438 315.521 97.9154 323.488C97.8251 323.669 97.7438 323.859 97.6625 324.039L97.4186 324.599C97.3283 324.78 97.247 324.961 97.1657 325.15C97.0844 325.34 96.994 325.521 96.9128 325.701L96.6689 326.253C96.5785 326.442 96.4972 326.623 96.4159 326.813C96.3346 327.002 96.2443 327.174 96.163 327.364C96.0817 327.553 95.9914 327.725 95.9101 327.915L95.6662 328.466C95.5758 328.646 95.4946 328.836 95.4133 329.017C95.332 329.197 95.2416 329.387 95.1603 329.568L94.9164 330.128C94.8261 330.308 94.7448 330.489 94.6635 330.679C94.5822 330.868 94.4919 331.049 94.4106 331.23L94.1667 331.781C94.0763 331.97 93.9951 332.151 93.9138 332.341C93.8325 332.531 93.7421 332.702 93.6608 332.892L93.4169 333.443C93.3266 333.624 93.2453 333.813 93.164 333.994C93.0827 334.175 92.9924 334.364 92.9111 334.554C91.3613 337.854 90.5652 341.458 90.5805 345.105C90.5805 359.648 103.137 371.535 118.664 371.535C133.858 371.535 147.074 359.648 147.074 345.105C147.071 342.332 146.585 339.581 145.637 336.975C145.574 336.713 145.511 336.523 145.439 336.333Z" fill="#4F48ED"/>
<path d="M123.949 136.26C77.3651 136.26 45.6499 163.675 45.6499 203.655V207.269C45.6583 207.866 45.8207 208.451 46.1214 208.966C46.4221 209.482 46.8508 209.912 47.3662 210.214C47.5611 210.401 47.7727 210.57 47.9985 210.719C48.1943 210.91 48.4092 211.079 48.6399 211.225C48.8356 211.415 49.0505 211.585 49.2812 211.731C49.4752 211.923 49.6903 212.093 49.9226 212.237C50.1151 212.427 50.327 212.597 50.5549 212.743C50.7504 212.936 50.9653 213.109 51.1962 213.258C51.3943 213.445 51.6089 213.615 51.8376 213.764C52.0338 213.953 52.2487 214.123 52.4789 214.269C52.672 214.459 52.8838 214.629 53.1112 214.775C53.3234 214.98 53.5566 215.161 53.8068 215.317C53.991 215.485 54.1872 215.639 54.3939 215.778C54.592 215.966 54.8067 216.135 55.0353 216.284C55.2302 216.471 55.4418 216.641 55.6676 216.79C55.8657 216.977 56.0803 217.147 56.3089 217.295C56.5052 217.485 56.7201 217.655 56.9503 217.801C57.1433 217.991 57.3552 218.16 57.5826 218.307C57.7789 218.497 57.9937 218.666 58.224 218.813C58.417 219.003 58.6289 219.172 58.8563 219.319C59.0544 219.506 59.269 219.676 59.4976 219.825C59.6907 220.014 59.9025 220.184 60.13 220.331C61.1737 221.249 62.5355 221.722 63.9239 221.649L92.9743 222.733C95.9643 222.733 97.5902 221.378 97.5902 218.388V215.408C97.5902 203.457 107.364 195.047 122.883 195.047C137.002 195.047 146.504 202.644 146.504 214.324C146.505 215.654 146.378 216.982 146.125 218.289C131.546 237.403 93.5976 245.831 93.5976 282.93V291.855C93.5976 295.468 95.5758 297.464 99.2162 297.464H134.192C137.806 297.464 139.811 295.486 139.811 291.855V285.902C139.811 255.84 198.951 255.505 198.951 200.666C198.951 162.022 169.539 136.26 123.949 136.26Z" fill="#4F48ED"/>
<path d="M93.5523 291.872V282.948C93.5523 237.023 151.698 235.072 151.698 202.336C151.698 188.127 140.136 178.85 122.955 178.85C104.121 178.85 92.2425 189.094 92.2425 203.628V207.241C92.2425 210.855 90.2552 212.535 86.6239 212.535L51.2684 211.207C47.9713 211.207 45.6588 209.554 45.6588 207.241V203.628C45.6588 163.648 77.374 136.232 123.958 136.232C169.548 136.232 198.932 161.995 198.932 200.656C198.932 255.496 139.793 255.83 139.793 285.893V291.845C139.793 295.459 137.805 297.455 134.174 297.455H99.1709C95.5306 297.482 93.5523 295.504 93.5523 291.872ZM90.5804 345.104C90.5804 330.57 103.462 318.674 118.99 318.674C133.858 318.674 147.073 330.57 147.073 345.104C147.073 359.639 133.831 371.49 118.664 371.49C103.118 371.49 90.5804 359.603 90.5804 345.104Z" fill="#EDEDFD" stroke="#4F48ED" stroke-miterlimit="10"/>
<path d="M79.515 139.918L77.6271 144.037C77.6271 144.037 66.6609 145.22 66.6609 146.042C66.6609 146.864 66.7783 152.528 67.3745 152.763C67.8277 152.939 68.3305 152.939 68.7837 152.763L84.9348 148.635L86.4705 141.327L79.515 139.918Z" fill="white" stroke="#4F48ED" stroke-linecap="round" stroke-linejoin="round"/>
<path d="M76.4436 147.28C74.438 148.923 72.2746 150.363 69.9849 151.58C67.3744 152.754 67.275 154.533 68.1061 154.533C68.9371 154.533 76.3081 151.444 76.3081 151.444C76.3081 151.444 83.0016 149.692 83.9682 149.159C84.9347 148.626 85.0431 145.663 85.0431 145.663" fill="white"/>
<path d="M76.4436 147.28C74.438 148.923 72.2746 150.363 69.9849 151.58C67.3744 152.754 67.275 154.533 68.1061 154.533C68.9371 154.533 76.3081 151.444 76.3081 151.444C76.3081 151.444 83.0016 149.692 83.9682 149.159C84.9347 148.626 85.0431 145.663 85.0431 145.663" stroke="#4F48ED" stroke-linecap="round" stroke-linejoin="round"/>
<path d="M89.1622 60.7698L82.4235 112.421L77.7354 140.387L88.1415 142.844L95.9009 109.765L99.5774 88.944L89.1622 60.7698Z" fill="white" stroke="#4F48ED" stroke-linecap="round" stroke-linejoin="round"/>
<path d="M143.541 23.3728L139.431 22.7224L131.013 19.5337L130.705 29.5333L143.758 30.7347L143.541 23.3728Z" fill="white" stroke="#4F48ED" stroke-linecap="round" stroke-linejoin="round"/>
<path d="M95.4944 206.537C92.4312 210.109 89.5693 213.848 86.922 217.738C83.4442 223.049 84.6727 228.758 88.9634 230.195C93.2542 231.631 98.7553 227.738 100.192 224.675C101.628 221.613 101.212 219.987 103.453 216.925C105.693 213.863 107.535 210.801 106.723 206.718C105.91 202.635 97.6984 203.682 95.4944 206.537Z" fill="#EDEDFD" stroke="#4F48ED" stroke-linecap="round" stroke-linejoin="round"/>
<path d="M99.7761 225.443C99.487 224.829 99.1528 224.178 98.7554 223.483C95.4763 217.711 89.7223 218.171 86.109 219.246C83.7333 224.097 85.0883 228.921 88.9816 230.222C92.8748 231.522 97.8972 228.343 99.7761 225.443Z" fill="white" stroke="#4F48ED" stroke-linecap="round" stroke-linejoin="round"/>
<path d="M98.7556 223.483C97.5361 225.289 95.9011 230.221 89.5689 228.18C87.8031 227.727 86.2237 226.732 85.0524 225.335C85.1892 226.436 85.6314 227.478 86.329 228.341C87.0265 229.205 87.9516 229.856 88.9998 230.221C93.2815 231.649 98.7917 227.764 100.228 224.702C101.664 221.64 101.249 220.014 103.489 216.952C105.729 213.89 107.572 210.827 106.759 206.744C106.759 211.64 104.952 212.453 102.676 215.109C100.4 217.765 99.9841 221.64 98.7556 223.483Z" fill="#4F48ED" stroke="#4F48ED" stroke-linecap="round" stroke-linejoin="round"/>
<path d="M155.736 206.537C158.799 210.109 161.661 213.848 164.308 217.738C167.786 223.049 166.558 228.758 162.267 230.195C157.976 231.631 152.475 227.738 151.039 224.675C149.603 221.613 150.018 219.987 147.778 216.925C145.538 213.863 143.695 210.801 144.508 206.718C145.321 202.635 153.496 203.682 155.736 206.537Z" fill="#EDEDFD" stroke="#4F48ED" stroke-linecap="round" stroke-linejoin="round"/>
<path d="M151.464 225.443C151.744 224.829 152.078 224.178 152.475 223.483C155.754 217.711 161.508 218.171 165.122 219.246C167.497 224.097 166.142 228.921 162.249 230.222C158.356 231.522 153.333 228.343 151.464 225.443Z" fill="white" stroke="#4F48ED" stroke-linecap="round" stroke-linejoin="round"/>
<path d="M152.475 223.483C153.695 225.289 155.33 230.221 161.662 228.18C163.428 227.727 165.007 226.732 166.179 225.335C166.042 226.436 165.599 227.478 164.902 228.341C164.204 229.205 163.279 229.856 162.231 230.221C157.949 231.649 152.439 227.764 151.003 224.702C149.567 221.64 149.982 220.014 147.742 216.952C145.502 213.89 143.659 210.827 144.472 206.744C144.472 211.64 146.279 212.453 148.555 215.109C150.831 217.765 151.247 221.64 152.475 223.483Z" fill="#4F48ED" stroke="#4F48ED" stroke-linecap="round" stroke-linejoin="round"/>
<path d="M165.311 136.106C165.311 132.429 158.988 128.346 158.988 128.346C149.458 118.654 132.259 119.936 125.909 120.804C119.586 119.9 102.369 118.654 92.8387 128.346C92.8387 128.346 86.5155 132.429 86.5155 136.106C86.5155 139.782 94.4827 206.13 94.4827 206.13C94.4827 206.13 94.2749 209.599 99.9929 210.005C105.711 210.412 108.123 207.151 108.123 207.151L110.372 151.01C110.372 151.01 119.559 144.47 121.212 144.272C121.808 144.19 122.585 144.064 123.452 143.955V144.064C125.069 143.727 126.739 143.727 128.357 144.064V143.955C129.26 144.064 129.992 144.19 130.597 144.272C132.232 144.47 141.437 151.01 141.437 151.01L143.686 207.151C143.686 207.151 146.134 210.412 151.816 210.005C157.498 209.599 157.326 206.13 157.326 206.13C157.326 206.13 165.311 139.782 165.311 136.106Z" fill="white" stroke="#4F48ED" stroke-linecap="round" stroke-linejoin="round"/>
<path d="M141.428 151.01C141.428 151.01 140.199 137.533 146.125 132.429" stroke="#4F48ED" stroke-linecap="round" stroke-linejoin="round"/>
<path d="M110.399 151.01C110.399 151.01 111.013 139.782 109.785 135.699C108.556 131.616 106.515 129.981 106.515 129.981" stroke="#4F48ED" stroke-linecap="round" stroke-linejoin="round"/>
<path d="M117.951 124.263C117.951 124.263 124.482 131.815 125.71 138.147" stroke="#4F48ED" stroke-linecap="round" stroke-linejoin="round"/>
<path d="M132.241 124.697C132.241 124.697 128.565 128.78 128.158 131.842" stroke="#4F48ED" stroke-linecap="round" stroke-linejoin="round"/>
<path d="M123.054 45.2598C123.054 45.2598 117.138 44.4378 115.096 46.4792C113.055 48.5207 106.108 56.0453 106.108 56.0453L109.785 120.966C109.785 120.966 118.158 124.236 125.304 124.236C132.449 124.236 140.615 121.58 142.466 120.153C144.318 118.726 142.674 49.1079 142.674 49.1079C142.674 49.1079 127.508 44.6455 123.054 45.2598Z" fill="#EDEDFD" stroke="#4F48ED" stroke-linecap="round" stroke-linejoin="round"/>
<path d="M133.876 46.687C136.984 46.2151 140.119 45.9405 143.261 45.865C147.344 45.865 151.391 46.0728 151.391 46.0728L161.599 36.2719L141.057 31.5747L142.692 22.1893C142.692 22.1893 157.796 21.1685 165.347 22.5957C172.899 24.023 184.741 27.6995 185.356 27.6995C185.97 27.6995 186.783 29.9487 186.169 31.5747C185.554 33.2006 166.35 54.4465 160.614 59.9566C156.862 63.6339 153.318 67.5181 150 71.5913L147.38 117.118C147.38 117.118 154.119 120.795 155.348 122.014C156.576 123.233 158.003 128.138 158.003 128.138C158.003 128.138 145.547 123.035 142.277 122.628C139.007 122.222 136.974 122.014 136.36 120.822C135.746 119.629 130.642 65.0874 130.642 65.0874L130.85 47.7349C130.85 47.7349 130.814 46.687 133.876 46.687Z" fill="white" stroke="#4F48ED" stroke-linecap="round" stroke-linejoin="round"/>
<path d="M146.125 74.6536L135.096 76.0808L136.116 80.1638L141.636 81.591L146.938 79.143L146.125 74.6536Z" fill="#4F48ED" stroke="#4F48ED" stroke-linecap="round" stroke-linejoin="round"/>
<path d="M152.448 50.1558L150 71.5913L156.332 53.4257" stroke="#4F48ED" stroke-linecap="round" stroke-linejoin="round"/>
<path d="M161.635 36.272C161.635 36.272 166.738 37.2927 174.498 34.2305" stroke="#4F48ED" stroke-linecap="round" stroke-linejoin="round"/>
<path d="M166.946 37.6992C170.299 37.7925 173.652 37.5199 176.946 36.8862" stroke="#4F48ED" stroke-linecap="round" stroke-linejoin="round"/>
<path d="M116.117 45.0522L117.138 59.9569C118.068 61.1807 119.273 62.169 120.655 62.8421C122.038 63.5152 123.559 63.8543 125.096 63.8321C130.2 63.6333 130.814 59.9569 130.814 59.9569V47.708L116.117 45.0522Z" fill="white" stroke="#4F48ED" stroke-linecap="round" stroke-linejoin="round"/>
<path d="M131.013 52.8116L130.606 65.0786L134.897 58.3399C134.897 58.3399 139.594 64.2566 140.814 64.0578C142.033 63.8591 140.001 61.4021 139.594 59.1619C139.188 56.9217 135.71 48.9455 135.303 46.7053C134.897 44.4651 131.013 44.0495 130.787 45.0703C130.674 45.9519 130.674 46.8444 130.787 47.726L131.013 52.8116Z" fill="#C5C5F2" stroke="#4F48ED" stroke-linecap="round" stroke-linejoin="round"/>
<path d="M116.93 63.8322C116.93 63.8322 117.743 120.994 115.701 121.644C113.66 122.294 105.494 122.466 100.345 124.914C95.1963 127.362 92.7935 128.383 92.7935 128.383C92.7935 128.383 95.2415 122.466 98.105 119.81C100.008 118.1 102.135 116.656 104.428 115.52L99.1257 88.1674C99.1257 88.1674 89.3248 62.2333 89.1171 60.8061C88.9093 59.3789 107.698 48.765 111.573 46.9222C115.449 45.0795 116.478 46.7235 116.478 46.7235L116.93 63.8322Z" fill="white" stroke="#4F48ED" stroke-linecap="round" stroke-linejoin="round"/>
<path d="M111.826 44.0314C111.826 44.0314 106.93 59.5503 106.515 61.5918C106.099 63.6333 106.515 63.6333 107.951 62.197C109.387 60.7607 113.055 57.3011 113.055 57.3011L116.93 63.832L116.722 51.7909V44.8444C116.722 44.8444 116.523 41.99 111.826 44.0314Z" fill="#C5C5F2" stroke="#4F48ED" stroke-linecap="round" stroke-linejoin="round"/>
<path d="M102.233 77.5171H114.274L114.076 82.413L108.764 84.2468L102.026 82.413L102.233 77.5171Z" fill="#4F48ED" stroke="#4F48ED" stroke-linecap="round" stroke-linejoin="round"/>
<path d="M135.303 23.8244C135.303 23.8244 138.158 36.272 138.772 38.2773C139.386 40.2827 135.511 48.286 134.256 50.1197C133.778 50.915 133.12 51.5874 132.336 52.0831C131.552 52.5787 130.662 52.8839 129.739 52.9742C128.312 52.9742 120.552 50.3275 118.71 49.099C116.867 47.8705 115.042 46.4433 115.042 46.4433C114.174 46.8392 113.209 46.9732 112.265 46.8288C111.322 46.6844 110.441 46.2679 109.731 45.6303C107.283 43.381 104.013 40.7253 104.826 38.8916C105.222 37.9918 105.885 37.2354 106.725 36.7248C107.565 36.2143 108.542 35.9742 109.523 36.0371C111.772 36.0371 110.959 35.8294 110.959 35.8294C110.959 35.8294 106.876 29.9127 106.876 25.2155C106.876 20.5183 115.647 17.0857 120.751 17.0857C124.28 17.2328 127.747 18.0642 130.958 19.5337L135.303 23.8244Z" fill="white" stroke="#4F48ED" stroke-linecap="round" stroke-linejoin="round"/>
<path d="M128.158 28.5125L131.835 35.4589L128.158 37.9069L126.523 35.8654" stroke="#4F48ED" stroke-linecap="round" stroke-linejoin="round"/>
<path d="M134.897 34.8447C134.897 34.8447 135.096 36.4797 132.648 39.1354" stroke="#4F48ED" stroke-linecap="round" stroke-linejoin="round"/>
<path d="M124.283 31.0688C124.283 32.0263 123.867 32.8032 123.38 32.8032C122.892 32.8032 122.476 32.0263 122.476 31.0688C122.476 30.1113 122.892 29.3345 123.38 29.3345C123.867 29.3345 124.283 30.1113 124.283 31.0688Z" fill="#4F48ED"/>
<path d="M130.706 29.5332C131.214 29.5332 131.627 28.7567 131.627 27.7988C131.627 26.841 131.214 26.0645 130.706 26.0645C130.197 26.0645 129.784 26.841 129.784 27.7988C129.784 28.7567 130.197 29.5332 130.706 29.5332Z" fill="#4F48ED"/>
<path d="M113.254 13.2014C113.254 13.2014 100.408 17.8987 99.9839 23.8244C99.5594 29.7501 111.42 37.907 112.034 38.9277C112.648 39.9485 114.482 37.6992 114.482 37.6992C114.074 37.1507 113.789 36.5204 113.647 35.8516C113.505 35.1827 113.51 34.491 113.66 33.824C114.274 31.7825 116.93 29.3075 116.93 28.3138C116.93 27.3202 113.868 29.1268 113.868 26.0646C113.868 23.0024 121.419 21.1686 125.909 21.3674C130.398 21.5661 134.283 29.1268 137.553 25.4503C140.823 21.7739 136.116 20.7621 136.116 20.7621C136.116 20.7621 142.439 19.9401 142.439 16.6792C142.439 13.4182 139.169 11.16 137.742 11.16C136.315 11.16 132.44 13.617 132.44 10.9612C132.44 8.30551 136.315 7.07701 132.639 2.83145C128.962 -1.4141 124.274 2.83145 124.274 4.46644C124.274 6.10143 123.045 9.15462 122.232 9.15462C121.419 9.15462 118.962 5.48718 116.108 7.52866C115.25 8.21107 114.55 9.07178 114.057 10.0512C113.564 11.0307 113.29 12.1056 113.254 13.2014Z" fill="#4F48ED" stroke="#4F48ED" stroke-linecap="round" stroke-linejoin="round"/>
<path d="M118.565 28.928L125.096 26.4709" stroke="#4F48ED" stroke-linecap="round" stroke-linejoin="round"/>
<path d="M126.117 23.6167C125.992 22.9758 126.094 22.3115 126.406 21.7378" stroke="#4F48ED" stroke-linecap="round" stroke-linejoin="round"/>
<path d="M126.406 21.7197C126.866 20.8164 127.905 19.6511 130.2 18.7026" stroke="white" stroke-linecap="round" stroke-linejoin="round"/>
</svg>
