<svg width="512" height="202" viewBox="0 0 512 202" fill="none" xmlns="http://www.w3.org/2000/svg">
<path d="M482.554 165.29H511.459V164.958H482.554V165.29Z" fill="#ECECEC"/>
<path d="M325.668 158.372H371.147V158.039H325.668V158.372Z" fill="#ECECEC"/>
<path d="M440.372 152.908H499.739V152.575H440.372V152.908Z" fill="#ECECEC"/>
<path d="M127.427 159.631H142.276V159.298H127.427V159.631Z" fill="#ECECEC"/>
<path d="M64.3696 159.631H115.555V159.298H64.3696V159.631Z" fill="#ECECEC"/>
<path d="M0 154H36.928V153.667H0V154Z" fill="#ECECEC"/>
<path d="M82.7578 179.682L82.7555 179.682C79.3514 179.588 76.6665 176.753 76.7602 173.347L76.7602 173.347C76.8525 169.952 79.6486 167.314 83.0966 167.354C83.1453 167.355 83.1926 167.355 83.2321 167.355H83.2351C85.3576 167.355 88.7578 166.074 94.0075 161.056C99.2707 156.026 106.459 147.178 116.161 131.883C117.126 130.366 118.703 129.344 120.482 129.085C122.266 128.832 124.066 129.359 125.422 130.539C125.423 130.539 125.423 130.539 125.423 130.539L125.751 130.162C149.672 151.019 175.022 164.002 175.275 164.131L82.7578 179.682ZM82.7578 179.682C82.9155 179.687 83.0734 179.688 83.2377 179.688C88.721 179.688 94.4476 177.119 100.856 171.458C107.266 165.797 114.314 157.081 122.428 144.882L122.734 144.422L123.161 144.772C146.355 163.761 168.476 175.071 169.468 175.574L169.468 175.575M82.7578 179.682L169.468 175.575M169.468 175.575C172.503 177.117 176.214 175.903 177.756 172.866L169.468 175.575Z" fill="white" stroke="#4F48ED"/>
<path d="M112.346 73.3637L112.346 73.3635C111.676 71.8226 112.196 70.0225 113.584 69.0749C122.617 62.9192 136.812 59.4476 149.021 57.5135C161.191 55.5856 171.296 55.1987 172.134 55.1695C174.064 55.129 175.689 56.6226 175.756 58.5459C175.822 60.477 174.311 62.0982 172.381 62.1647L172.38 62.1647C172.19 62.1717 163.577 62.5023 152.82 64.036C142.081 65.5673 129.129 68.3073 120.305 73.1637L119.922 73.3744L120.08 73.7821C123.784 83.3588 126.06 94.1287 127.254 103.592C128.449 113.065 128.556 121.184 127.945 125.46C127.695 127.205 126.199 128.464 124.485 128.464C124.32 128.464 124.154 128.453 123.984 128.429C122.071 128.155 120.742 126.383 121.015 124.468L112.346 73.3637ZM112.346 73.3637C116.574 83.0882 118.978 94.1883 120.207 103.678M112.346 73.3637L120.207 103.678M120.207 103.678C121.435 113.158 121.498 121.085 121.015 124.468L120.207 103.678Z" fill="white" stroke="#4F48ED"/>
<path d="M131.205 123.786C128.543 117.511 116.554 118.223 109.514 123.601C105.751 126.475 100.659 135.122 100.123 138.257C99.5887 141.39 101.761 144.23 105.489 143.907C110.085 143.509 116.397 136.829 116.397 136.829C112.198 140.946 117.615 143.851 125.699 137.897C130.183 134.594 134.183 130.813 131.205 123.786Z" fill="#4F48ED"/>
<mask id="path-10-inside-1_1_347" fill="white">
<path d="M373.893 13.1505C374.494 13.3745 375.174 13.5065 375.809 13.5812C382.453 14.3678 388.318 13.4385 389.196 12.6105C388.969 12.4038 388.074 11.8345 384.757 11.1998C380.381 10.3665 376.557 11.4638 373.893 13.1505ZM372.212 20.6465C372.326 20.6798 372.442 20.7118 372.556 20.7398C377.264 21.8932 383.62 22.0892 385.8 21.7318C385.125 21.4465 383.746 20.9905 380.953 20.3745C377.254 19.5598 374.364 19.8132 372.212 20.6465ZM367.766 29.4038C368.134 30.0865 368.682 30.6492 369.392 31.0265C372.401 32.6278 378.32 32.9945 380.541 32.0985C380.994 31.9145 381.062 31.7625 381.062 31.7612C381.062 31.7572 380.989 31.0118 377.728 29.6158C373.99 28.0158 371.01 27.7918 368.62 28.9252C368.328 29.0652 368.044 29.2238 367.766 29.4038ZM360.532 41.8452C360.472 41.8452 360.409 41.8385 360.348 41.8198C359.994 41.7185 359.789 41.3478 359.892 40.9958C361.668 34.8092 363.608 31.0292 366.157 28.9278C365.766 27.5998 365.81 26.0745 366.361 24.5825C366.897 23.1305 367.933 21.6878 369.51 20.5758C368.738 19.7412 368.45 18.6492 368.724 17.4012C369.025 16.0118 370.036 14.5078 371.572 13.1918C370.968 12.4985 370.82 11.7412 370.816 11.1812C370.782 7.20516 378.158 1.14782 386.498 0.0104904C386.865 -0.0575104 387.2 0.214489 387.249 0.579823C387.298 0.945156 387.044 1.28116 386.678 1.33049C378.761 2.41049 372.122 8.14249 372.149 11.1705C372.153 11.6612 372.334 12.0558 372.632 12.3745C375.633 10.2852 380.064 8.94115 385.008 9.89049C389.1 10.6732 390.764 11.5372 390.572 12.7798C390.209 15.1172 381.493 15.5998 375.652 14.9038C374.328 14.7465 373.358 14.4345 372.652 14.0438C371.198 15.2318 370.269 16.5652 370.026 17.6838C369.809 18.6825 370.13 19.3798 370.686 19.8652C373.161 18.5892 376.645 18.0558 381.241 19.0718C387.289 20.4065 387.516 21.1438 387.652 21.5825C387.748 21.8972 387.67 22.2185 387.437 22.4652C386.162 23.8158 376.894 23.1758 372.24 22.0345C371.633 21.8865 371.097 21.6838 370.636 21.4332C369.093 22.4038 368.101 23.7172 367.613 25.0438C367.22 26.1078 367.13 27.1678 367.312 28.1145C367.552 27.9705 367.797 27.8412 368.048 27.7212C370.806 26.4118 374.142 26.6305 378.253 28.3892C380.978 29.5572 382.294 30.5892 382.39 31.6412C382.418 31.9532 382.357 32.5478 381.629 33.0305C379.596 34.3812 372.469 34.1772 368.765 32.2038C367.892 31.7372 367.198 31.0505 366.714 30.2225C364.534 32.2132 362.777 35.7772 361.172 41.3625C361.088 41.6558 360.822 41.8452 360.532 41.8452Z"/>
</mask>
<path d="M373.893 13.1505C374.494 13.3745 375.174 13.5065 375.809 13.5812C382.453 14.3678 388.318 13.4385 389.196 12.6105C388.969 12.4038 388.074 11.8345 384.757 11.1998C380.381 10.3665 376.557 11.4638 373.893 13.1505ZM372.212 20.6465C372.326 20.6798 372.442 20.7118 372.556 20.7398C377.264 21.8932 383.62 22.0892 385.8 21.7318C385.125 21.4465 383.746 20.9905 380.953 20.3745C377.254 19.5598 374.364 19.8132 372.212 20.6465ZM367.766 29.4038C368.134 30.0865 368.682 30.6492 369.392 31.0265C372.401 32.6278 378.32 32.9945 380.541 32.0985C380.994 31.9145 381.062 31.7625 381.062 31.7612C381.062 31.7572 380.989 31.0118 377.728 29.6158C373.99 28.0158 371.01 27.7918 368.62 28.9252C368.328 29.0652 368.044 29.2238 367.766 29.4038ZM360.532 41.8452C360.472 41.8452 360.409 41.8385 360.348 41.8198C359.994 41.7185 359.789 41.3478 359.892 40.9958C361.668 34.8092 363.608 31.0292 366.157 28.9278C365.766 27.5998 365.81 26.0745 366.361 24.5825C366.897 23.1305 367.933 21.6878 369.51 20.5758C368.738 19.7412 368.45 18.6492 368.724 17.4012C369.025 16.0118 370.036 14.5078 371.572 13.1918C370.968 12.4985 370.82 11.7412 370.816 11.1812C370.782 7.20516 378.158 1.14782 386.498 0.0104904C386.865 -0.0575104 387.2 0.214489 387.249 0.579823C387.298 0.945156 387.044 1.28116 386.678 1.33049C378.761 2.41049 372.122 8.14249 372.149 11.1705C372.153 11.6612 372.334 12.0558 372.632 12.3745C375.633 10.2852 380.064 8.94115 385.008 9.89049C389.1 10.6732 390.764 11.5372 390.572 12.7798C390.209 15.1172 381.493 15.5998 375.652 14.9038C374.328 14.7465 373.358 14.4345 372.652 14.0438C371.198 15.2318 370.269 16.5652 370.026 17.6838C369.809 18.6825 370.13 19.3798 370.686 19.8652C373.161 18.5892 376.645 18.0558 381.241 19.0718C387.289 20.4065 387.516 21.1438 387.652 21.5825C387.748 21.8972 387.67 22.2185 387.437 22.4652C386.162 23.8158 376.894 23.1758 372.24 22.0345C371.633 21.8865 371.097 21.6838 370.636 21.4332C369.093 22.4038 368.101 23.7172 367.613 25.0438C367.22 26.1078 367.13 27.1678 367.312 28.1145C367.552 27.9705 367.797 27.8412 368.048 27.7212C370.806 26.4118 374.142 26.6305 378.253 28.3892C380.978 29.5572 382.294 30.5892 382.39 31.6412C382.418 31.9532 382.357 32.5478 381.629 33.0305C379.596 34.3812 372.469 34.1772 368.765 32.2038C367.892 31.7372 367.198 31.0505 366.714 30.2225C364.534 32.2132 362.777 35.7772 361.172 41.3625C361.088 41.6558 360.822 41.8452 360.532 41.8452Z" fill="#EDEDFD"/>
<path d="M373.893 13.1505L373.544 14.0876L371.655 13.3839L373.358 12.3056L373.893 13.1505ZM375.809 13.5812L375.926 12.588L375.927 12.5881L375.809 13.5812ZM389.196 12.6105L389.869 11.8715L390.666 12.5978L389.882 13.3377L389.196 12.6105ZM384.757 11.1998L384.944 10.2175L384.945 10.2176L384.757 11.1998ZM372.556 20.7398L372.318 21.7111L372.316 21.7106L372.556 20.7398ZM385.8 21.7318L386.189 20.8108L389.377 22.1589L385.961 22.7187L385.8 21.7318ZM380.953 20.3745L381.168 19.3979L381.168 19.398L380.953 20.3745ZM367.766 29.4038L366.886 29.8783L366.449 29.0669L367.222 28.565L367.766 29.4038ZM369.392 31.0265L369.861 30.1436L369.861 30.1437L369.392 31.0265ZM380.541 32.0985L380.917 33.0251L380.915 33.0259L380.541 32.0985ZM377.728 29.6158L377.334 30.5351L377.334 30.5351L377.728 29.6158ZM368.62 28.9252L368.187 28.0234L368.191 28.0216L368.62 28.9252ZM360.348 41.8198L360.623 40.8586L360.631 40.8608L360.639 40.8631L360.348 41.8198ZM359.892 40.9958L360.853 41.2717L360.852 41.2758L359.892 40.9958ZM366.157 28.9278L367.116 28.6456L367.303 29.2793L366.793 29.6995L366.157 28.9278ZM366.361 24.5825L365.423 24.2362L365.423 24.2362L366.361 24.5825ZM369.51 20.5758L370.244 19.8968L371.02 20.7351L370.087 21.3931L369.51 20.5758ZM368.724 17.4012L369.701 17.6131L369.701 17.6151L368.724 17.4012ZM371.572 13.1918L372.326 12.535L372.988 13.2952L372.222 13.9512L371.572 13.1918ZM370.816 11.1812L371.816 11.1728L371.816 11.174L370.816 11.1812ZM386.498 0.0104904L386.681 0.993725L386.657 0.998089L386.633 1.00132L386.498 0.0104904ZM386.678 1.33049L386.543 0.339664L386.545 0.339485L386.678 1.33049ZM372.149 11.1705L373.149 11.1617L373.149 11.1623L372.149 11.1705ZM372.632 12.3745L373.203 13.1952L372.492 13.6903L371.901 13.0567L372.632 12.3745ZM385.008 9.89049L384.82 10.8727L384.819 10.8725L385.008 9.89049ZM390.572 12.7798L391.56 12.9325L391.56 12.9332L390.572 12.7798ZM375.652 14.9038L375.77 13.9108L375.77 13.9108L375.652 14.9038ZM372.652 14.0438L372.019 13.2696L372.543 12.8411L373.136 13.1687L372.652 14.0438ZM370.026 17.6838L371.004 17.8958L371.003 17.8965L370.026 17.6838ZM370.686 19.8652L371.145 20.754L370.541 21.0654L370.029 20.6185L370.686 19.8652ZM381.241 19.0718L381.026 20.0483L381.025 20.0482L381.241 19.0718ZM387.652 21.5825L388.607 21.2864L388.608 21.2907L387.652 21.5825ZM387.437 22.4652L386.71 21.7788L386.711 21.778L387.437 22.4652ZM372.24 22.0345L372.477 21.063L372.478 21.0633L372.24 22.0345ZM370.636 21.4332L370.103 20.5868L370.599 20.275L371.113 20.5545L370.636 21.4332ZM367.613 25.0438L368.552 25.389L368.551 25.3906L367.613 25.0438ZM367.312 28.1145L367.826 28.972L366.599 29.7084L366.33 28.3026L367.312 28.1145ZM368.048 27.7212L367.616 26.8192L367.619 26.8177L368.048 27.7212ZM378.253 28.3892L378.646 27.4698L378.647 27.47L378.253 28.3892ZM382.39 31.6412L383.386 31.5503L383.386 31.5518L382.39 31.6412ZM381.629 33.0305L381.076 32.1975L381.076 32.197L381.629 33.0305ZM368.765 32.2038L368.295 33.0864L368.294 33.0858L368.765 32.2038ZM366.714 30.2225L366.04 29.484L366.953 28.65L367.578 29.7178L366.714 30.2225ZM361.172 41.3625L360.21 41.0872L360.211 41.0863L361.172 41.3625ZM374.242 12.2134C374.742 12.3996 375.336 12.5186 375.926 12.588L375.692 14.5743C375.012 14.4943 374.247 14.3494 373.544 14.0876L374.242 12.2134ZM375.927 12.5881C379.173 12.9725 382.228 12.9369 384.567 12.7062C385.737 12.5907 386.711 12.4279 387.429 12.2511C387.789 12.1624 388.069 12.0743 388.269 11.9939C388.493 11.9043 388.539 11.8554 388.509 11.8832L389.882 13.3377C389.633 13.5726 389.304 13.7338 389.013 13.8504C388.699 13.9763 388.324 14.0905 387.907 14.1931C387.072 14.3988 385.999 14.5745 384.763 14.6965C382.288 14.9407 379.089 14.9765 375.691 14.5742L375.927 12.5881ZM388.522 13.3494C388.542 13.368 388.396 13.2289 387.787 13.0031C387.19 12.7812 386.194 12.493 384.569 12.182L384.945 10.2176C386.637 10.5414 387.748 10.8551 388.483 11.1282C389.208 11.3974 389.622 11.6463 389.869 11.8715L388.522 13.3494ZM384.57 12.1822C380.466 11.4007 376.898 12.4316 374.428 13.9954L373.358 12.3056C376.216 10.496 380.296 9.33232 384.944 10.2175L384.57 12.1822ZM372.491 19.6862C372.597 19.7172 372.699 19.7453 372.796 19.769L372.316 21.7106C372.185 21.6784 372.055 21.6425 371.933 21.6067L372.491 19.6862ZM372.794 19.7685C375.071 20.3264 377.773 20.6579 380.186 20.8042C382.619 20.9516 384.662 20.905 385.638 20.745L385.961 22.7187C384.757 22.916 382.532 22.95 380.065 22.8005C377.578 22.6498 374.749 22.3066 372.318 21.7111L372.794 19.7685ZM385.41 22.6528C384.819 22.4026 383.509 21.9621 380.738 21.351L381.168 19.398C383.984 20.0189 385.432 20.4904 386.189 20.8108L385.41 22.6528ZM380.738 21.3511C377.187 20.5689 374.503 20.8316 372.573 21.579L371.851 19.714C374.225 18.7947 377.322 18.5507 381.168 19.3979L380.738 21.3511ZM368.647 28.9293C368.925 29.4452 369.333 29.8625 369.861 30.1436L368.922 31.9093C368.032 31.4358 367.344 30.7278 366.886 29.8783L368.647 28.9293ZM369.861 30.1437C371.195 30.8533 373.273 31.3278 375.346 31.5025C377.445 31.6795 379.283 31.5275 380.167 31.1711L380.915 33.0259C379.577 33.5655 377.345 33.6782 375.178 33.4955C372.983 33.3105 370.598 32.801 368.922 31.9093L369.861 30.1437ZM380.165 31.1719C380.322 31.1081 380.357 31.0719 380.333 31.092C380.32 31.1027 380.291 31.1291 380.255 31.1748C380.238 31.1975 380.218 31.2256 380.198 31.2596C380.188 31.2763 380.177 31.2965 380.165 31.32C380.16 31.3311 380.152 31.3474 380.143 31.3676C380.139 31.3766 380.132 31.3944 380.123 31.4174C380.12 31.4278 380.111 31.4502 380.103 31.4792C380.099 31.4934 380.091 31.5193 380.084 31.5522C380.08 31.5713 380.062 31.6538 380.062 31.7612H382.062C382.062 31.8685 382.044 31.951 382.04 31.9702C382.033 32.0031 382.026 32.029 382.022 32.0432C382.013 32.0723 382.005 32.0948 382.001 32.1053C381.993 32.1284 381.985 32.1465 381.981 32.1558C381.972 32.1767 381.964 32.1939 381.958 32.2063C381.945 32.2323 381.932 32.256 381.919 32.2774C381.894 32.3207 381.865 32.3623 381.834 32.4023C381.772 32.4826 381.697 32.5588 381.611 32.6307C381.439 32.773 381.213 32.9049 380.917 33.0251L380.165 31.1719ZM380.062 31.7612C380.062 31.7949 380.064 31.8216 380.064 31.8243C380.065 31.8337 380.066 31.8413 380.066 31.8464C380.067 31.8568 380.068 31.8655 380.069 31.8722C380.07 31.8858 380.072 31.898 380.073 31.9086C380.077 31.9302 380.08 31.95 380.084 31.968C380.092 32.0042 380.102 32.0352 380.111 32.0609C380.129 32.1125 380.147 32.1428 380.153 32.1517C380.163 32.1675 380.127 32.1056 379.971 31.9731C379.653 31.7029 378.921 31.2142 377.334 30.5351L378.121 28.6965C379.796 29.4135 380.731 29.9954 381.265 30.4479C381.535 30.6767 381.722 30.8892 381.847 31.0894C381.911 31.1906 381.96 31.2907 381.995 31.3892C382.012 31.4385 382.026 31.4873 382.037 31.5355C382.042 31.5595 382.047 31.5839 382.051 31.6086C382.053 31.6208 382.054 31.6342 382.056 31.6487C382.057 31.6557 382.058 31.6648 382.059 31.6755C382.059 31.6806 382.06 31.6884 382.06 31.6978C382.061 31.7007 382.062 31.7274 382.062 31.7612H380.062ZM377.334 30.5351C373.72 28.9879 371.068 28.8712 369.048 29.8288L368.191 28.0216C370.953 26.7124 374.261 27.0438 378.121 28.6965L377.334 30.5351ZM369.052 29.8269C368.798 29.9487 368.551 30.0864 368.311 30.2426L367.222 28.565C367.536 28.3612 367.857 28.1816 368.187 28.0234L369.052 29.8269ZM360.532 42.8452C360.4 42.8452 360.235 42.8308 360.057 42.7765L360.639 40.8631C360.583 40.8462 360.544 40.8452 360.532 40.8452V42.8452ZM360.072 42.7811C359.189 42.5279 358.673 41.6028 358.932 40.7158L360.852 41.2758C360.905 41.0928 360.799 40.9091 360.623 40.8586L360.072 42.7811ZM358.931 40.7199C360.716 34.4994 362.723 30.4621 365.521 28.1562L366.793 29.6995C364.492 31.5962 362.619 35.119 360.853 41.2717L358.931 40.7199ZM365.198 29.21C364.743 27.6644 364.802 25.9187 365.423 24.2362L367.299 24.9287C366.819 26.2303 366.79 27.5352 367.116 28.6456L365.198 29.21ZM365.423 24.2362C366.029 22.5944 367.191 20.9874 368.934 19.7585L370.087 21.3931C368.675 22.3882 367.765 23.6665 367.299 24.9288L365.423 24.2362ZM368.776 21.2548C367.763 20.1599 367.41 18.7267 367.747 17.1872L369.701 17.6151C369.491 18.5716 369.713 19.3224 370.244 19.8968L368.776 21.2548ZM367.746 17.1892C368.109 15.5161 369.284 13.8349 370.921 12.4324L372.222 13.9512C370.787 15.1808 369.941 16.5076 369.701 17.6131L367.746 17.1892ZM370.818 13.8487C370.016 12.9287 369.821 11.9175 369.816 11.1883L371.816 11.174C371.818 11.5648 371.919 12.0683 372.326 12.535L370.818 13.8487ZM369.816 11.1895C369.805 9.89959 370.386 8.56895 371.265 7.33733C372.156 6.08993 373.415 4.85346 374.918 3.73022C377.923 1.48557 382.009 -0.386524 386.363 -0.980339L386.633 1.00132C382.648 1.54484 378.876 3.27008 376.116 5.33242C374.737 6.36269 373.637 7.45713 372.893 8.49927C372.138 9.55719 371.81 10.4747 371.816 11.1728L369.816 11.1895ZM386.316 -0.972744C387.306 -1.15636 388.123 -0.421902 388.24 0.445999L386.258 0.713642C386.269 0.795925 386.312 0.870518 386.38 0.923C386.452 0.978878 386.562 1.01566 386.681 0.993725L386.316 -0.972744ZM388.24 0.445999C388.363 1.35563 387.728 2.19785 386.812 2.3215L386.545 0.339485C386.36 0.364468 386.234 0.534683 386.258 0.713642L388.24 0.445999ZM386.814 2.32132C383.042 2.83576 379.558 4.46414 377.027 6.32551C375.763 7.2556 374.763 8.22457 374.092 9.11121C373.397 10.0283 373.145 10.7348 373.149 11.1617L371.149 11.1793C371.139 10.0922 371.707 8.94669 372.497 7.90364C373.311 6.83016 374.46 5.73088 375.842 4.71447C378.604 2.68284 382.397 0.905216 386.543 0.339664L386.814 2.32132ZM373.149 11.1623C373.151 11.3826 373.222 11.5416 373.363 11.6923L371.901 13.0567C371.446 12.5701 371.155 11.9397 371.149 11.1786L373.149 11.1623ZM372.06 11.5538C375.265 9.32284 379.967 7.90432 385.196 8.90843L384.819 10.8725C380.16 9.97799 376.001 11.2475 373.203 13.1952L372.06 11.5538ZM385.196 8.90829C387.254 9.30208 388.816 9.73459 389.857 10.2752C390.381 10.5474 390.85 10.8854 391.17 11.3299C391.513 11.8065 391.649 12.3572 391.56 12.9325L389.583 12.6271C389.591 12.5811 389.59 12.5579 389.547 12.4985C389.481 12.407 389.315 12.2471 388.935 12.0501C388.169 11.6524 386.853 11.2616 384.82 10.8727L385.196 8.90829ZM391.56 12.9332C391.465 13.5416 391.109 14.0056 390.704 14.3409C390.303 14.6729 389.799 14.9281 389.263 15.1309C388.189 15.5372 386.788 15.8065 385.276 15.9733C382.238 16.3083 378.522 16.2529 375.533 15.8968L375.77 13.9108C378.622 14.2507 382.185 14.302 385.057 13.9853C386.499 13.8263 387.71 13.5802 388.555 13.2604C388.979 13.1001 389.26 12.9396 389.428 12.8005C389.592 12.6648 389.587 12.6024 389.584 12.6265L391.56 12.9332ZM375.534 15.8968C374.116 15.7284 373.015 15.3873 372.168 14.919L373.136 13.1687C373.702 13.4816 374.539 13.7646 375.77 13.9108L375.534 15.8968ZM373.285 14.8181C371.921 15.9328 371.179 17.086 371.004 17.8958L369.049 17.4718C369.359 16.0443 370.476 14.5308 372.019 13.2696L373.285 14.8181ZM371.003 17.8965C370.928 18.2437 370.957 18.4802 371.013 18.6443C371.069 18.8102 371.175 18.9641 371.344 19.1118L370.029 20.6185C369.642 20.2809 369.309 19.8434 369.12 19.2897C368.93 18.7341 368.907 18.1226 369.049 17.4712L371.003 17.8965ZM370.228 18.9764C372.952 17.5717 376.684 17.0402 381.457 18.0954L381.025 20.0482C376.606 19.0714 373.37 19.6066 371.145 20.754L370.228 18.9764ZM381.457 18.0953C384.491 18.765 386.159 19.3032 387.103 19.7649C387.58 19.9986 387.936 20.2428 388.19 20.5283C388.471 20.8441 388.562 21.1411 388.607 21.2864L386.697 21.8786C386.679 21.8205 386.679 21.8262 386.683 21.8355C386.692 21.8525 386.699 21.8612 386.696 21.8574C386.68 21.8396 386.576 21.7337 386.224 21.5614C385.508 21.2111 384.039 20.7133 381.026 20.0483L381.457 18.0953ZM388.608 21.2907C388.812 21.9598 388.636 22.6525 388.163 23.1524L386.711 21.778C386.715 21.7737 386.703 21.7851 386.696 21.8136C386.689 21.8427 386.693 21.8659 386.695 21.8743L388.608 21.2907ZM388.164 23.1515C387.814 23.5227 387.312 23.7208 386.883 23.843C386.42 23.9749 385.871 24.064 385.279 24.1232C384.092 24.2419 382.616 24.2514 381.062 24.1834C377.958 24.0475 374.409 23.5961 372.002 23.0057L372.478 21.0633C374.725 21.6143 378.138 22.0535 381.15 22.1853C382.654 22.2511 384.025 22.2386 385.08 22.1331C385.609 22.0802 386.029 22.0066 386.335 21.9195C386.675 21.8227 386.741 21.7453 386.71 21.7788L388.164 23.1515ZM372.003 23.006C371.325 22.8406 370.706 22.6093 370.158 22.3118L371.113 20.5545C371.488 20.7583 371.942 20.9324 372.477 21.063L372.003 23.006ZM371.168 22.2795C369.809 23.135 368.962 24.2739 368.552 25.389L366.675 24.6986C367.24 23.1604 368.377 21.6727 370.103 20.5868L371.168 22.2795ZM368.551 25.3906C368.215 26.2994 368.15 27.1745 368.294 27.9264L366.33 28.3026C366.111 27.1612 366.224 25.9163 366.675 24.6971L368.551 25.3906ZM366.797 27.257C367.069 27.0942 367.342 26.9503 367.616 26.8192L368.479 28.6231C368.252 28.732 368.035 28.8468 367.826 28.972L366.797 27.257ZM367.619 26.8177C370.738 25.3373 374.397 25.6516 378.646 27.4698L377.86 29.3085C373.888 27.6094 370.875 27.4863 368.476 28.6246L367.619 26.8177ZM378.647 27.47C380.04 28.0669 381.143 28.6574 381.925 29.2723C382.695 29.8768 383.301 30.6217 383.386 31.5503L381.394 31.732C381.383 31.6086 381.284 31.3115 380.69 30.845C380.109 30.3889 379.192 29.8794 377.859 29.3083L378.647 27.47ZM383.386 31.5518C383.439 32.1408 383.283 33.1335 382.182 33.8639L381.076 32.197C381.284 32.0591 381.347 31.9425 381.369 31.8888C381.396 31.8251 381.398 31.7681 381.394 31.7305L383.386 31.5518ZM382.182 33.8635C381.483 34.3283 380.473 34.5934 379.419 34.7392C378.332 34.8895 377.071 34.9293 375.772 34.8623C373.2 34.7297 370.328 34.1697 368.295 33.0864L369.235 31.3213C370.906 32.2112 373.449 32.7399 375.875 32.865C377.075 32.9269 378.208 32.8877 379.145 32.7581C380.115 32.6239 380.759 32.408 381.076 32.1975L382.182 33.8635ZM368.294 33.0858C367.251 32.5287 366.425 31.7086 365.851 30.7271L367.578 29.7178C367.972 30.3924 368.532 30.9456 369.236 31.3218L368.294 33.0858ZM367.389 30.9609C365.426 32.7536 363.729 36.0843 362.133 41.6387L360.211 41.0863C361.825 35.47 363.643 31.6727 366.04 29.484L367.389 30.9609ZM362.133 41.6378C361.923 42.372 361.256 42.8452 360.532 42.8452V40.8452C360.389 40.8452 360.253 40.9397 360.21 41.0872L362.133 41.6378Z" fill="#4F48ED" mask="url(#path-10-inside-1_1_347)"/>
<path d="M168.513 177.332H168.487L168.46 177.33C151.304 175.513 136.742 175.823 128.372 176.727C126.28 176.953 124.583 177.216 123.334 177.488C122.71 177.625 122.205 177.762 121.823 177.896C121.611 177.97 121.451 178.039 121.333 178.098C121.385 178.119 121.445 178.141 121.513 178.163C122.176 178.379 123.405 178.578 125.292 178.722L125.292 178.722C127.185 178.866 128.595 178.989 129.588 179.102C130.085 179.158 130.484 179.213 130.791 179.267C131.082 179.319 131.337 179.379 131.512 179.461C131.578 179.492 131.758 179.58 131.851 179.776C131.909 179.897 131.922 180.039 131.881 180.176C131.843 180.298 131.772 180.382 131.721 180.431C131.625 180.522 131.508 180.578 131.429 180.611C131.338 180.65 131.233 180.684 131.122 180.716C130.686 180.84 129.978 180.972 129.099 181.123C128.704 181.19 128.269 181.263 127.8 181.34C124.052 181.963 118.176 182.939 113.314 184.779L113.314 184.779C113.123 184.851 112.982 184.916 112.881 184.972C113.051 185.056 113.302 185.149 113.647 185.244C115.104 185.648 117.829 186.01 121.493 186.312C128.796 186.916 139.667 187.276 151.158 187.342C162.648 187.407 174.744 187.179 184.493 186.608C189.368 186.322 193.649 185.952 196.97 185.49C198.631 185.259 200.044 185.007 201.168 184.734C202.304 184.457 203.101 184.169 203.561 183.886L203.561 183.886C204.03 183.596 204.269 183.37 204.371 183.213C204.419 183.141 204.424 183.104 204.424 183.095L204.424 183.095C204.425 183.091 204.425 183.084 204.414 183.064C204.375 182.998 204.245 182.872 203.92 182.721C203.609 182.579 203.187 182.444 202.66 182.318C200.543 181.813 197.096 181.538 193.722 181.289C193.512 181.274 193.303 181.258 193.094 181.243C189.987 181.015 187.006 180.796 185.437 180.407C185.024 180.305 184.642 180.176 184.38 179.995C184.247 179.902 184.096 179.763 184.019 179.56C183.933 179.332 183.969 179.105 184.07 178.919C184.162 178.749 184.305 178.614 184.452 178.504C184.604 178.391 184.791 178.282 185.008 178.175C185.441 177.961 186.037 177.733 186.808 177.486C186.876 177.464 186.92 177.441 186.949 177.423C186.941 177.418 186.932 177.412 186.922 177.407C186.856 177.37 186.74 177.332 186.565 177.332H168.513ZM121.096 178.254C121.096 178.254 121.097 178.253 121.098 178.252C121.097 178.253 121.096 178.254 121.096 178.254ZM131.087 180.367C131.086 180.366 131.086 180.366 131.085 180.365C131.098 180.374 131.102 180.373 131.087 180.367Z" fill="#EDEDFD" stroke="#4F48ED"/>
<path d="M153.15 26.2913L159.626 177.591L315.784 182.768L337.535 30.4147L153.15 26.2913Z" fill="white" stroke="#4F48ED"/>
<path d="M208.028 179.715L208.028 179.716C208.035 179.801 208.105 179.867 208.192 179.868C208.193 179.868 208.193 179.868 208.194 179.868L208.202 179.867L208.208 179.867L208.212 179.867C208.299 179.859 208.368 179.78 208.361 179.687C208.36 179.687 208.36 179.687 208.36 179.686L195.77 26.7269C195.77 26.7269 195.77 26.7268 195.77 26.7267C195.766 26.678 195.745 26.6423 195.715 26.6175C195.687 26.5932 195.643 26.5736 195.583 26.5749C195.493 26.5861 195.43 26.6654 195.437 26.7529L195.437 26.7536L208.028 179.715Z" fill="#EDEDFD" stroke="#4F48ED"/>
<path d="M316.216 183.282L358.433 176.855L371.729 35.2421L338.109 29.9274L316.216 183.282Z" fill="#4F48ED"/>
<path d="M173.07 148.697L173.07 148.697L169.197 58.2155M173.07 148.697L169.197 58.2155M173.07 148.697C173.424 156.982 180.102 163.594 188.389 163.869C188.389 163.869 188.389 163.869 188.389 163.869M173.07 148.697L188.389 163.869M169.197 58.2155C168.805 49.0602 176.234 41.4779 185.396 41.6834L302.808 44.3074C312.313 44.5207 319.496 52.9923 318.152 62.4036L305.134 153.593C303.99 161.604 296.998 167.469 288.91 167.201L188.389 163.869M169.197 58.2155L188.389 163.869M172.571 148.718L172.571 148.718L172.571 148.718Z" fill="#EDEDFD" stroke="#4F48ED"/>
<path d="M290.256 131.175C289.782 131.175 289.31 130.983 288.963 130.606L277.55 118.114L265.234 129.367C264.52 130.021 263.414 129.969 262.76 129.257L251.347 116.763L239.031 128.017C238.318 128.669 237.21 128.618 236.559 127.906L225.144 115.414L212.828 126.667C212.487 126.981 212.026 127.146 211.57 127.125C211.106 127.103 210.67 126.899 210.356 126.557L198.942 114.065L186.626 125.317C185.914 125.97 184.806 125.918 184.154 125.206C183.502 124.493 183.552 123.385 184.266 122.734L197.872 110.301C198.586 109.646 199.694 109.698 200.346 110.411L211.759 122.903L224.075 111.649C224.418 111.335 224.876 111.174 225.335 111.193C225.798 111.213 226.235 111.418 226.548 111.759L237.962 124.253L250.278 112.999C250.99 112.346 252.098 112.397 252.751 113.11L264.164 125.602L276.48 114.35C277.194 113.695 278.3 113.746 278.952 114.461L291.548 128.245C292.2 128.958 292.15 130.066 291.436 130.717C291.1 131.025 290.678 131.175 290.256 131.175Z" fill="#4F48ED"/>
<path d="M79.2577 186.52L70.9137 182.54L63.4697 146.318L67.5097 141.868L79.2577 186.52Z" fill="#4F48ED"/>
<path d="M79.2578 186.52L90.3311 180.051L80.8378 150.207L67.5098 141.868L79.2578 186.52Z" fill="#4F48ED"/>
<path opacity="0.199997" d="M79.2578 186.52L90.3311 180.051L80.8378 150.207L67.5098 141.868L79.2578 186.52Z" fill="black"/>
<path d="M325.221 173.311L335.958 166.963C335.268 165.97 333.272 163.458 329.595 161.498C325.09 159.095 318.006 157.49 307.597 160.613C306.649 160.898 305.784 161.406 305.074 162.096C298.799 168.187 290.191 172.809 281.881 175.866C273.577 178.92 265.509 180.434 260.286 180.263C256.856 180.181 254.046 182.857 253.954 186.257L253.954 186.257C253.86 189.663 256.544 192.498 259.949 192.592C260.244 192.6 260.547 192.605 260.856 192.605C266.975 192.605 275.993 191.025 285.428 187.667C294.861 184.31 304.672 179.189 312.401 172.134L312.493 172.05L312.615 172.019C317.437 170.801 320.659 171.163 322.718 171.894C323.951 172.331 324.752 172.895 325.221 173.311Z" fill="white" stroke="#4F48ED"/>
<path d="M260.117 201.967L235.833 200.438L233.917 155.668L266.553 156.888L260.117 201.967Z" fill="#4F48ED"/>
<path d="M260.118 201.967L265.794 196.319L269.312 168.403L266.554 156.888L260.118 201.967Z" fill="#4F48ED"/>
<path opacity="0.199997" d="M260.118 201.967L265.794 196.319L269.312 168.403L266.554 156.888L260.118 201.967Z" fill="black"/>
<path d="M359.069 136.738L359.069 136.738C366.208 154.653 384.855 173.285 398.69 183.801C399.324 184.282 400.068 184.514 400.805 184.514C401.863 184.514 402.907 184.037 403.595 183.131L403.595 183.131C404.765 181.593 404.465 179.397 402.926 178.226C397.692 174.249 390.204 167.746 383.123 160.036C376.047 152.332 369.349 143.392 365.731 134.542L365.71 134.49L365.701 134.434C362.278 113.74 358.895 69.438 358.859 68.9595C358.714 67.0328 357.027 65.5925 355.103 65.7338C353.176 65.8801 351.734 67.5607 351.879 69.4879C352.021 71.3544 355.369 115.206 358.87 136.022L358.87 136.022C358.911 136.268 358.977 136.508 359.069 136.738Z" fill="white" stroke="#4F48ED"/>
<path d="M409.169 182.463C407.602 181.329 407.251 179.141 408.385 177.576C409.519 176.01 411.707 175.659 413.272 176.792L409.169 182.463ZM409.169 182.463C412.946 185.196 416.35 186.535 419.295 186.535M409.169 182.463L419.295 186.535M419.295 186.535C421.228 186.535 422.795 184.968 422.795 183.035C422.795 181.101 421.228 179.535 419.295 179.535C418.532 179.535 416.626 179.22 413.272 176.792L419.295 186.535Z" fill="white" stroke="#4F48ED"/>
<path d="M409.997 182.755C414.277 170.04 431.824 172.553 437.866 174.441C443.908 176.329 449.353 178.704 452.625 180.844C455.898 182.984 455.95 186.559 451.586 188.6C446.205 191.116 432.705 188.883 432.705 188.883C439.693 191.943 432.692 196.845 420.432 192.029C416.441 190.461 408.486 187.412 409.997 182.755Z" fill="#4F48ED"/>
<path d="M349.67 92.2164L349.67 92.2164C353.104 92.7211 357.012 91.0961 360.289 87.953C363.556 84.8191 366.135 80.2274 366.912 74.9397C367.689 69.6539 366.517 64.682 364.272 60.9083C362.021 57.126 358.723 54.5946 355.275 54.0885L355.275 54.0885C353.554 53.8353 352.125 54.1124 350.915 54.8063C349.697 55.5049 348.661 56.6482 347.777 58.1891C345.999 61.2845 344.893 65.8705 344.1 71.2652L344.1 71.2652C343.307 76.6558 342.998 81.6959 343.767 85.5023C344.15 87.4011 344.795 88.9571 345.75 90.0952C346.696 91.2224 347.968 91.9664 349.67 92.2164Z" fill="white" stroke="#4F48ED"/>
<path d="M191.425 31.3897C191.751 31.3897 192.017 31.1242 192.017 30.7977C192.017 30.4712 191.751 30.2057 191.425 30.2057C191.097 30.2057 190.832 30.4716 190.832 30.7977C190.832 31.1238 191.097 31.3897 191.425 31.3897Z" fill="#EDEDFD" stroke="#4F48ED"/>
<path d="M201.443 39.2608C201.77 39.2608 202.035 38.9957 202.035 38.6675C202.035 38.3409 201.77 38.0755 201.443 38.0755C201.115 38.0755 200.85 38.3413 200.85 38.6675C200.85 38.9953 201.116 39.2608 201.443 39.2608Z" fill="#EDEDFD" stroke="#4F48ED"/>
<path d="M202.666 168.466C202.993 168.466 203.258 168.202 203.258 167.874C203.258 167.548 202.992 167.282 202.666 167.282C202.337 167.282 202.072 167.548 202.072 167.874C202.072 168.201 202.337 168.466 202.666 168.466Z" fill="#EDEDFD" stroke="#4F48ED"/>
<path d="M212.683 176.338C213.011 176.338 213.276 176.072 213.276 175.746C213.276 175.418 213.011 175.152 212.683 175.152C212.357 175.152 212.091 175.417 212.091 175.746C212.091 176.072 212.356 176.338 212.683 176.338Z" fill="#EDEDFD" stroke="#4F48ED"/>
<mask id="path-33-inside-2_1_347" fill="white">
<path d="M36.268 175.5H36.2654C36.2627 175.501 35.7654 175.753 35.572 177.98C35.3774 180.224 35.784 181.745 36.8174 182.626C37.0507 182.826 37.3187 182.994 37.616 183.132C37.992 182.714 38.2507 182.248 38.34 181.76C38.6974 179.828 37.7774 176.998 36.7454 175.854C36.4774 175.556 36.3054 175.5 36.268 175.5ZM27.88 176.657C27.872 177.158 27.9174 178.001 28.116 179.402C28.3867 181.305 29.0894 182.768 30.1414 183.698C29.8294 181.022 28.6414 177.921 27.88 176.657ZM20.452 177.82C20.3747 178.025 20.2347 178.698 20.564 180.545C21.0027 182.998 22.5907 184.629 24.3507 185.489C24.3414 185.205 24.2894 184.89 24.1947 184.545C23.148 180.734 21.1574 178.108 20.452 177.82ZM21.604 188.857C18.432 188.857 14.1414 186.933 11.8267 183.59C11.6174 183.289 11.692 182.873 11.9947 182.664C12.2974 182.453 12.712 182.529 12.9227 182.833C15.4107 186.425 20.8947 188.341 23.3294 187.206C23.5854 187.086 23.7934 186.936 23.9534 186.754C21.7774 185.749 19.788 183.781 19.252 180.78C18.9494 179.089 18.7094 176.805 20.104 176.49C22.016 176.061 24.5174 180.686 25.48 184.192C25.6587 184.84 25.7147 185.44 25.6547 185.981C26.4974 186.212 27.3254 186.272 28.036 186.169C28.6134 186.085 29.4347 185.848 29.8694 185.176C28.2494 184.081 27.1587 182.15 26.796 179.589C26.2787 175.944 26.6667 175.308 27.0707 174.997C27.3334 174.796 27.6667 174.757 27.988 174.893C29.4134 175.5 31.1414 180.672 31.472 183.598C31.508 183.921 31.508 184.23 31.4747 184.524C32.02 184.741 32.6227 184.86 33.2734 184.872C34.4294 184.938 35.572 184.572 36.4867 184.033C36.2974 183.916 36.1187 183.784 35.9507 183.64C34.5667 182.458 34.0094 180.569 34.2427 177.865C34.424 175.776 34.9 174.634 35.74 174.274C36.0347 174.144 36.6347 174.022 37.3507 174.593C38.7907 175.745 40.1347 179.39 39.652 182.002C39.5507 182.542 39.3187 183.061 38.9814 183.537C41.428 183.96 44.8707 183.272 47.84 182.538C48.196 182.452 48.5587 182.668 48.6467 183.026C48.736 183.384 48.5174 183.745 48.16 183.833C44.5467 184.726 40.6574 185.453 37.9094 184.656C36.688 185.628 34.9694 186.217 33.2454 186.205C32.46 186.19 31.728 186.049 31.06 185.796C30.5347 186.69 29.5574 187.296 28.228 187.489C27.3427 187.621 26.3 187.536 25.244 187.234C24.944 187.734 24.4907 188.136 23.8934 188.416C23.256 188.712 22.472 188.856 21.604 188.857Z"/>
</mask>
<path d="M36.268 175.5H36.2654C36.2627 175.501 35.7654 175.753 35.572 177.98C35.3774 180.224 35.784 181.745 36.8174 182.626C37.0507 182.826 37.3187 182.994 37.616 183.132C37.992 182.714 38.2507 182.248 38.34 181.76C38.6974 179.828 37.7774 176.998 36.7454 175.854C36.4774 175.556 36.3054 175.5 36.268 175.5ZM27.88 176.657C27.872 177.158 27.9174 178.001 28.116 179.402C28.3867 181.305 29.0894 182.768 30.1414 183.698C29.8294 181.022 28.6414 177.921 27.88 176.657ZM20.452 177.82C20.3747 178.025 20.2347 178.698 20.564 180.545C21.0027 182.998 22.5907 184.629 24.3507 185.489C24.3414 185.205 24.2894 184.89 24.1947 184.545C23.148 180.734 21.1574 178.108 20.452 177.82ZM21.604 188.857C18.432 188.857 14.1414 186.933 11.8267 183.59C11.6174 183.289 11.692 182.873 11.9947 182.664C12.2974 182.453 12.712 182.529 12.9227 182.833C15.4107 186.425 20.8947 188.341 23.3294 187.206C23.5854 187.086 23.7934 186.936 23.9534 186.754C21.7774 185.749 19.788 183.781 19.252 180.78C18.9494 179.089 18.7094 176.805 20.104 176.49C22.016 176.061 24.5174 180.686 25.48 184.192C25.6587 184.84 25.7147 185.44 25.6547 185.981C26.4974 186.212 27.3254 186.272 28.036 186.169C28.6134 186.085 29.4347 185.848 29.8694 185.176C28.2494 184.081 27.1587 182.15 26.796 179.589C26.2787 175.944 26.6667 175.308 27.0707 174.997C27.3334 174.796 27.6667 174.757 27.988 174.893C29.4134 175.5 31.1414 180.672 31.472 183.598C31.508 183.921 31.508 184.23 31.4747 184.524C32.02 184.741 32.6227 184.86 33.2734 184.872C34.4294 184.938 35.572 184.572 36.4867 184.033C36.2974 183.916 36.1187 183.784 35.9507 183.64C34.5667 182.458 34.0094 180.569 34.2427 177.865C34.424 175.776 34.9 174.634 35.74 174.274C36.0347 174.144 36.6347 174.022 37.3507 174.593C38.7907 175.745 40.1347 179.39 39.652 182.002C39.5507 182.542 39.3187 183.061 38.9814 183.537C41.428 183.96 44.8707 183.272 47.84 182.538C48.196 182.452 48.5587 182.668 48.6467 183.026C48.736 183.384 48.5174 183.745 48.16 183.833C44.5467 184.726 40.6574 185.453 37.9094 184.656C36.688 185.628 34.9694 186.217 33.2454 186.205C32.46 186.19 31.728 186.049 31.06 185.796C30.5347 186.69 29.5574 187.296 28.228 187.489C27.3427 187.621 26.3 187.536 25.244 187.234C24.944 187.734 24.4907 188.136 23.8934 188.416C23.256 188.712 22.472 188.856 21.604 188.857Z" fill="#EDEDFD"/>
<path d="M36.2654 175.5L35.8182 174.605L36.0293 174.5H36.2654V175.5ZM35.572 177.98L34.5758 177.893L34.5758 177.893L35.572 177.98ZM36.8174 182.626L37.4663 181.865L37.4682 181.867L36.8174 182.626ZM37.616 183.132L38.359 183.801L37.8657 184.348L37.1967 184.039L37.616 183.132ZM38.34 181.76L37.3564 181.58L37.3567 181.578L38.34 181.76ZM36.7454 175.854L36.0028 176.524L36.0011 176.522L36.7454 175.854ZM28.116 179.402L27.126 179.543L27.1259 179.543L28.116 179.402ZM30.1414 183.698L31.1346 183.582L31.4375 186.18L29.4788 184.447L30.1414 183.698ZM20.564 180.545L19.5796 180.721L19.5796 180.721L20.564 180.545ZM24.3507 185.489L25.3502 185.456L25.4047 187.117L23.9117 186.387L24.3507 185.489ZM24.1947 184.545L25.159 184.28L25.1591 184.281L24.1947 184.545ZM11.8267 183.59L12.648 183.02L12.6488 183.021L11.8267 183.59ZM11.9947 182.664L12.566 183.484L12.5635 183.486L11.9947 182.664ZM12.9227 182.833L13.7446 182.263L13.7448 182.264L12.9227 182.833ZM23.3294 187.206L23.7538 188.112L23.7518 188.113L23.3294 187.206ZM23.9534 186.754L24.3728 185.846L25.5913 186.409L24.7032 187.416L23.9534 186.754ZM19.252 180.78L20.2364 180.603L20.2365 180.604L19.252 180.78ZM20.104 176.49L19.8839 175.515L19.8849 175.515L20.104 176.49ZM25.48 184.192L24.516 184.457L24.5157 184.456L25.48 184.192ZM25.6547 185.981L25.3907 186.945L24.5667 186.72L24.6608 185.871L25.6547 185.981ZM28.036 186.169L28.18 187.159L28.179 187.159L28.036 186.169ZM29.8694 185.176L30.4292 184.347L31.2413 184.896L30.709 185.719L29.8694 185.176ZM26.796 179.589L27.7861 179.448L27.7862 179.449L26.796 179.589ZM27.0707 174.997L26.4611 174.204L26.4624 174.203L27.0707 174.997ZM27.988 174.893L28.3778 173.972L28.3797 173.973L27.988 174.893ZM31.472 183.598L32.4657 183.486L32.4659 183.487L31.472 183.598ZM31.4747 184.524L31.1045 185.453L30.3948 185.17L30.4811 184.411L31.4747 184.524ZM33.2734 184.872L33.2918 183.872L33.3114 183.872L33.3309 183.873L33.2734 184.872ZM36.4867 184.033L37.0135 183.183L38.4203 184.055L36.9942 184.895L36.4867 184.033ZM35.9507 183.64L36.5999 182.879L36.6015 182.88L35.9507 183.64ZM34.2427 177.865L33.2464 177.779L33.2464 177.778L34.2427 177.865ZM35.74 174.274L36.1454 175.188L36.1339 175.193L35.74 174.274ZM37.3507 174.593L37.974 173.811L37.9754 173.812L37.3507 174.593ZM39.652 182.002L40.6354 182.184L40.6349 182.187L39.652 182.002ZM38.9814 183.537L38.8111 184.522L37.2487 184.252L38.1655 182.959L38.9814 183.537ZM47.84 182.538L47.6003 181.567L47.6035 181.567L47.84 182.538ZM48.6467 183.026L47.6765 183.269L47.6755 183.265L48.6467 183.026ZM48.16 183.833L47.92 182.862L47.9209 182.862L48.16 183.833ZM37.9094 184.656L37.2866 183.873L37.6913 183.551L38.188 183.695L37.9094 184.656ZM33.2454 186.205L33.2384 187.205L33.2267 187.205L33.2454 186.205ZM31.06 185.796L30.1977 185.289L30.6252 184.561L31.4146 184.861L31.06 185.796ZM28.228 187.489L28.0806 186.5L28.0841 186.499L28.228 187.489ZM25.244 187.234L24.3865 186.72L24.7811 186.062L25.5184 186.273L25.244 187.234ZM23.8934 188.416L24.3178 189.321L24.3146 189.323L23.8934 188.416ZM36.268 176.5H36.2654V174.5H36.268V176.5ZM36.7126 176.394C36.9827 176.259 36.994 176.105 36.9069 176.305C36.8174 176.51 36.6598 177.012 36.5683 178.066L34.5758 177.893C34.6776 176.721 34.8654 175.983 35.0735 175.506C35.2841 175.022 35.5454 174.742 35.8182 174.605L36.7126 176.394ZM36.5683 178.066C36.3831 180.201 36.8058 181.302 37.4663 181.865L36.1684 183.387C34.7622 182.188 34.3717 180.246 34.5758 177.893L36.5683 178.066ZM37.4682 181.867C37.624 182.001 37.8121 182.121 38.0353 182.224L37.1967 184.039C36.8253 183.868 36.4774 183.652 36.1666 183.386L37.4682 181.867ZM36.8731 182.462C37.1581 182.146 37.3083 181.842 37.3564 181.58L39.3237 181.94C39.1931 182.653 38.826 183.283 38.359 183.801L36.8731 182.462ZM37.3567 181.578C37.497 180.819 37.3928 179.796 37.1027 178.788C36.8105 177.773 36.378 176.94 36.0028 176.524L37.4879 175.184C38.1448 175.913 38.6882 177.066 39.0247 178.235C39.3632 179.411 39.5404 180.768 39.3234 181.941L37.3567 181.578ZM36.0011 176.522C35.9158 176.427 35.8745 176.403 35.8857 176.41C35.891 176.413 35.9153 176.428 35.959 176.445C35.9807 176.454 36.0129 176.465 36.0546 176.475C36.0757 176.48 36.1028 176.486 36.135 176.49C36.1654 176.495 36.2113 176.5 36.268 176.5V174.5C36.4606 174.5 36.6144 174.554 36.6824 174.581C36.7771 174.617 36.8682 174.665 36.9547 174.72C37.1282 174.83 37.307 174.983 37.4896 175.186L36.0011 176.522ZM28.8799 176.673C28.873 177.103 28.9115 177.889 29.1061 179.262L27.1259 179.543C26.9232 178.113 26.871 177.214 26.8802 176.641L28.8799 176.673ZM29.1061 179.261C29.3543 181.006 29.9808 182.221 30.804 182.949L29.4788 184.447C28.1979 183.314 27.4191 181.603 27.126 179.543L29.1061 179.261ZM29.1481 183.814C28.8524 181.278 27.7103 178.313 27.0234 177.173L28.7366 176.141C29.5724 177.529 30.8063 180.767 31.1346 183.582L29.1481 183.814ZM21.3879 178.172C21.4085 178.117 21.2274 178.569 21.5485 180.369L19.5796 180.721C19.242 178.828 19.3409 177.933 19.5162 177.467L21.3879 178.172ZM21.5484 180.369C21.9211 182.453 23.2624 183.844 24.7897 184.59L23.9117 186.387C21.919 185.414 20.0843 183.543 19.5796 180.721L21.5484 180.369ZM23.3512 185.522C23.345 185.333 23.3093 185.098 23.2303 184.809L25.1591 184.281C25.2694 184.683 25.3377 185.077 25.3502 185.456L23.3512 185.522ZM23.2304 184.81C22.7335 183.001 22.0132 181.477 21.3428 180.384C21.0072 179.836 20.6918 179.409 20.4337 179.114C20.3044 178.965 20.1983 178.86 20.1197 178.793C20.029 178.714 20.0163 178.722 20.074 178.745L20.83 176.894C21.0641 176.989 21.2679 177.142 21.4252 177.277C21.5945 177.423 21.7679 177.601 21.9407 177.799C22.2869 178.195 22.6669 178.717 23.0479 179.339C23.8108 180.583 24.6093 182.279 25.159 184.28L23.2304 184.81ZM21.604 189.857C18.1192 189.857 13.5146 187.784 11.0046 184.16L12.6488 183.021C14.7682 186.082 18.7449 187.857 21.604 187.857V189.857ZM11.0054 184.161C10.481 183.406 10.6676 182.366 11.4259 181.841L12.5635 183.486C12.7165 183.38 12.7537 183.172 12.648 183.02L11.0054 184.161ZM11.4234 181.843C12.1837 181.314 13.2215 181.508 13.7446 182.263L12.1008 183.403C12.2026 183.549 12.411 183.592 12.566 183.484L11.4234 181.843ZM13.7448 182.264C14.8507 183.86 16.6645 185.13 18.514 185.862C19.4325 186.226 20.3283 186.444 21.1109 186.51C21.9065 186.578 22.5127 186.484 22.9069 186.3L23.7518 188.113C22.9287 188.496 21.9364 188.588 20.9413 188.503C19.9331 188.417 18.8459 188.145 17.778 187.722C15.6549 186.882 13.4827 185.398 12.1006 183.402L13.7448 182.264ZM22.9049 186.301C23.0576 186.229 23.1482 186.155 23.2035 186.093L24.7032 187.416C24.4386 187.716 24.1131 187.943 23.7538 188.112L22.9049 186.301ZM23.534 187.662C21.122 186.548 18.8719 184.339 18.2676 180.955L20.2365 180.604C20.7042 183.223 22.4328 184.95 24.3728 185.846L23.534 187.662ZM18.2677 180.956C18.1152 180.104 17.9557 178.994 18.0458 178.026C18.1307 177.115 18.5057 175.826 19.8839 175.515L20.3241 177.466C20.3077 177.469 20.1054 177.48 20.0372 178.212C19.9743 178.887 20.0862 179.764 20.2364 180.603L18.2677 180.956ZM19.8849 175.515C20.8107 175.307 21.6415 175.744 22.252 176.248C22.8834 176.77 23.4708 177.513 23.9907 178.327C25.0353 179.962 25.9395 182.088 26.4443 183.927L24.5157 184.456C24.0579 182.789 23.2301 180.851 22.3054 179.404C21.8406 178.677 21.384 178.125 20.9786 177.791C20.5523 177.439 20.3533 177.459 20.3231 177.466L19.8849 175.515ZM26.4441 183.926C26.6501 184.673 26.725 185.402 26.6486 186.091L24.6608 185.871C24.7044 185.477 24.6673 185.006 24.516 184.457L26.4441 183.926ZM25.9187 185.016C26.6497 185.217 27.3382 185.259 27.8931 185.179L28.179 187.159C27.3126 187.284 26.3451 187.207 25.3907 186.945L25.9187 185.016ZM27.8921 185.179C28.122 185.146 28.3699 185.086 28.5856 184.986C28.7989 184.887 28.9424 184.767 29.0297 184.632L30.709 185.719C30.0258 186.775 28.816 187.066 28.18 187.159L27.8921 185.179ZM29.3095 186.004C27.3952 184.711 26.1968 182.49 25.8059 179.729L27.7862 179.449C28.1206 181.811 29.1035 183.451 30.4292 184.347L29.3095 186.004ZM25.806 179.729C25.5446 177.888 25.4955 176.708 25.5958 175.917C25.6473 175.511 25.743 175.162 25.9014 174.864C26.0688 174.549 26.2759 174.347 26.4611 174.204L27.6803 175.79C27.6635 175.803 27.6706 175.797 27.6678 175.802C27.656 175.824 27.6113 175.921 27.5799 176.168C27.5146 176.684 27.5301 177.645 27.7861 179.448L25.806 179.729ZM26.4624 174.203C27.0266 173.771 27.7441 173.704 28.3778 173.972L27.5983 175.814C27.5849 175.808 27.594 175.815 27.6207 175.812C27.633 175.811 27.6454 175.807 27.6568 175.803C27.6682 175.798 27.6756 175.793 27.679 175.791L26.4624 174.203ZM28.3797 173.973C28.746 174.129 29.0439 174.393 29.2774 174.653C29.5185 174.921 29.7414 175.242 29.9459 175.585C30.355 176.27 30.7391 177.125 31.0767 178.024C31.7504 179.818 32.2892 181.924 32.4657 183.486L30.4784 183.711C30.3242 182.346 29.8337 180.403 29.2044 178.727C28.8905 177.891 28.5547 177.156 28.2285 176.61C28.0654 176.337 27.9169 176.131 27.7894 175.989C27.6543 175.839 27.5864 175.809 27.5964 175.813L28.3797 173.973ZM32.4659 183.487C32.5097 183.88 32.5106 184.265 32.4683 184.637L30.4811 184.411C30.5055 184.196 30.5064 183.962 30.4782 183.709L32.4659 183.487ZM31.8449 183.595C32.2697 183.764 32.7522 183.862 33.2918 183.872L33.2549 185.871C32.4932 185.857 31.7704 185.718 31.1045 185.453L31.8449 183.595ZM33.3309 183.873C34.2463 183.926 35.1939 183.634 35.9792 183.171L36.9942 184.895C35.9501 185.509 34.6125 185.95 33.2158 185.87L33.3309 183.873ZM35.9599 184.883C35.7246 184.737 35.5046 184.574 35.2999 184.399L36.6015 182.88C36.7328 182.993 36.8702 183.094 37.0135 183.183L35.9599 184.883ZM35.3015 184.4C33.5676 182.92 32.9997 180.638 33.2464 177.779L35.239 177.951C35.019 180.5 35.5658 181.996 36.5999 182.879L35.3015 184.4ZM33.2464 177.778C33.3409 176.69 33.5174 175.765 33.8214 175.036C34.1298 174.297 34.6087 173.671 35.3461 173.355L36.1339 175.193C36.0314 175.237 35.8523 175.362 35.6673 175.806C35.478 176.26 35.3258 176.951 35.239 177.951L33.2464 177.778ZM35.3347 173.36C35.9131 173.104 36.9208 172.972 37.974 173.811L36.7274 175.375C36.5102 175.202 36.3642 175.173 36.2985 175.167C36.2237 175.16 36.1704 175.177 36.1454 175.188L35.3347 173.36ZM37.9754 173.812C38.9176 174.566 39.6923 175.982 40.1721 177.437C40.6605 178.918 40.917 180.66 40.6354 182.184L38.6687 181.821C38.8697 180.732 38.6956 179.346 38.2727 178.063C37.8411 176.755 37.2238 175.772 36.726 175.374L37.9754 173.812ZM40.6349 182.187C40.5037 182.886 40.2073 183.537 39.7973 184.115L38.1655 182.959C38.4301 182.585 38.5977 182.199 38.6692 181.818L40.6349 182.187ZM39.1516 182.552C40.2269 182.737 41.5816 182.686 43.0789 182.48C44.5648 182.277 46.1281 181.931 47.6003 181.567L48.0798 183.509C46.5826 183.879 44.94 184.244 43.3505 184.462C41.7725 184.678 40.1825 184.759 38.8111 184.522L39.1516 182.552ZM47.6035 181.567C48.4885 181.351 49.3968 181.887 49.6179 182.788L47.6755 183.265C47.7206 183.448 47.9035 183.552 48.0766 183.51L47.6035 181.567ZM49.6168 182.784C49.841 183.68 49.2921 184.584 48.3992 184.804L47.9209 182.862C47.7426 182.906 47.6311 183.087 47.6766 183.269L49.6168 182.784ZM48.4 184.804C46.5796 185.254 44.6531 185.671 42.8191 185.872C40.9966 186.072 39.1869 186.068 37.6307 185.616L38.188 183.695C39.3798 184.041 40.8888 184.072 42.6013 183.884C44.3023 183.698 46.1272 183.305 47.92 182.862L48.4 184.804ZM38.5321 185.438C37.1217 186.56 35.1777 187.218 33.2384 187.205L33.2523 185.205C34.7611 185.215 36.2543 184.695 37.2866 183.873L38.5321 185.438ZM33.2267 187.205C32.332 187.188 31.4859 187.027 30.7054 186.731L31.4146 184.861C31.9702 185.071 32.5881 185.192 33.264 185.205L33.2267 187.205ZM31.9224 186.302C31.2084 187.518 29.926 188.253 28.372 188.479L28.0841 186.499C29.1887 186.339 29.861 185.863 30.1977 185.289L31.9224 186.302ZM28.3755 188.478C27.3244 188.635 26.1363 188.529 24.9696 188.196L25.5184 186.273C26.4638 186.542 27.361 186.607 28.0806 186.5L28.3755 188.478ZM26.1015 187.749C25.6893 188.436 25.0768 188.965 24.3178 189.321L23.4689 187.51C23.9046 187.306 24.1988 187.033 24.3865 186.72L26.1015 187.749ZM24.3146 189.323C23.5112 189.696 22.5749 189.855 21.6056 189.857L21.6025 187.857C22.3692 187.856 23.0009 187.728 23.4721 187.509L24.3146 189.323Z" fill="#4F48ED" mask="url(#path-33-inside-2_1_347)"/>
<path d="M216.466 186.902H213.591L215.545 192.504L215.602 192.669L215.545 192.834L213.591 198.434H216.466L219.791 192.668L216.466 186.902Z" fill="#EDEDFD" stroke="#4F48ED"/>
<path d="M211.27 195.935C210.139 195.284 209.375 194.063 209.375 192.668C209.375 191.343 210.063 190.183 211.098 189.515L207.336 188.762L205.919 193.074L208.328 196.752L211.27 195.935Z" fill="#EDEDFD" stroke="#4F48ED"/>
<path d="M210.053 195.934C208.253 195.934 206.787 194.468 206.787 192.668C206.787 190.868 208.253 189.414 210.053 189.414C211.853 189.414 213.307 190.868 213.307 192.668C213.307 194.468 211.853 195.934 210.053 195.934ZM213.667 186.402H206.427L202.813 192.668L206.427 198.934H213.667L217.28 192.668L213.667 186.402Z" fill="#4F48ED"/>
<path d="M468.777 185.984L466.093 181.331L468.777 176.677H471.65L470.026 181.331L471.65 185.984H468.777Z" fill="#4F48ED"/>
<path d="M471.46 183.756C472.798 183.756 473.887 182.668 473.887 181.331C473.887 179.995 472.798 178.913 471.46 178.913L476.023 178.001L477.234 181.685L475.198 184.793L471.46 183.756Z" fill="#4F48ED"/>
<path d="M476.681 181.331C476.681 182.945 475.366 184.256 473.754 184.256C472.14 184.256 470.838 182.942 470.838 181.331C470.838 179.719 472.142 178.413 473.754 178.413C475.364 178.413 476.681 179.716 476.681 181.331ZM478.555 181.331L476.159 177.176H471.359L468.965 181.331L471.359 185.484H476.159L478.555 181.331Z" fill="#EDEDFD" stroke="#4F48ED"/>
<path d="M368.855 191.662H374.879C376.172 191.662 377.231 190.602 377.231 189.309C377.231 188.018 376.172 186.958 374.879 186.958H368.855C367.562 186.958 366.503 188.018 366.503 189.309C366.503 190.602 367.562 191.662 368.855 191.662Z" fill="#EDEDFD" stroke="#4F48ED"/>
<path d="M359.231 186.782C360.719 183.627 364.325 182.201 367.287 183.597C370.248 184.994 371.443 188.683 369.955 191.838C368.467 194.993 364.861 196.419 361.9 195.022C358.939 193.626 357.744 189.937 359.231 186.782Z" fill="#4F48ED"/>
<path d="M366.878 183.494L361.56 194.772L362.308 195.126L367.625 183.846L366.878 183.494Z" fill="#EDEDFD" stroke="#4F48ED"/>
<path d="M221.51 88.0114C221.941 88.4424 222.156 88.9631 222.156 89.5737C222.156 90.1124 221.959 90.5793 221.564 90.9744C221.169 91.3694 220.702 91.567 220.163 91.567C219.589 91.567 219.068 91.3156 218.601 90.8127L209.874 80.8464L201.2 90.8127C200.733 91.3156 200.213 91.567 199.638 91.567C199.099 91.567 198.614 91.3694 198.183 90.9744C197.788 90.5793 197.591 90.0945 197.591 89.5198C197.591 88.9811 197.806 88.4783 198.237 88.0114L207.18 77.9374L198.614 68.1865C198.183 67.6837 197.968 67.1809 197.968 66.6781C197.968 66.1035 198.165 65.6186 198.561 65.2236C198.991 64.8285 199.458 64.631 199.961 64.631C200.536 64.631 201.057 64.8824 201.523 65.3852L209.874 74.9744L218.224 65.3852C218.691 64.8824 219.211 64.631 219.786 64.631C220.325 64.631 220.792 64.8285 221.187 65.2236C221.582 65.6186 221.779 66.0855 221.779 66.6242C221.779 67.2348 221.564 67.7556 221.133 68.1865L212.567 77.9374L221.51 88.0114Z" fill="#4F48ED"/>
<path d="M277.51 89.0114C277.941 89.4424 278.156 89.9631 278.156 90.5737C278.156 91.1124 277.959 91.5793 277.564 91.9744C277.169 92.3694 276.702 92.567 276.163 92.567C275.589 92.567 275.068 92.3156 274.601 91.8127L265.874 81.8464L257.2 91.8127C256.733 92.3156 256.213 92.567 255.638 92.567C255.099 92.567 254.614 92.3694 254.183 91.9744C253.788 91.5793 253.591 91.0945 253.591 90.5198C253.591 89.9811 253.806 89.4783 254.237 89.0114L263.18 78.9374L254.614 69.1865C254.183 68.6837 253.968 68.1809 253.968 67.6781C253.968 67.1035 254.165 66.6186 254.561 66.2236C254.991 65.8285 255.458 65.631 255.961 65.631C256.536 65.631 257.057 65.8824 257.523 66.3852L265.874 75.9744L274.224 66.3852C274.691 65.8824 275.211 65.631 275.786 65.631C276.325 65.631 276.792 65.8285 277.187 66.2236C277.582 66.6186 277.779 67.0855 277.779 67.6242C277.779 68.2348 277.564 68.7556 277.133 69.1865L268.567 78.9374L277.51 89.0114Z" fill="#4F48ED"/>
</svg>
