<svg width="111" height="72" viewBox="0 0 111 72" fill="none" xmlns="http://www.w3.org/2000/svg">
<rect width="111" height="72" rx="4" fill="#F0F3F4"/>
<path d="M0 12H17V72H4C1.79086 72 0 70.2091 0 68V12Z" fill="#E1D6AE"/>
<path d="M5.44039 19.5999V21.7599H7.60039V19.5999H5.44039ZM8.14039 19.0599V22.2999H4.90039V19.0599H8.14039ZM10.3904 21.7599C11.0366 21.7599 11.5604 21.2361 11.5604 20.5899C11.5604 19.9437 11.0366 19.4199 10.3904 19.4199C9.74422 19.4199 9.22039 19.9437 9.22039 20.5899C9.22039 21.2361 9.74422 21.7599 10.3904 21.7599ZM10.3904 22.2999C9.44611 22.2999 8.68039 21.5342 8.68039 20.5899C8.68039 19.6456 9.44609 18.8799 10.3904 18.8799C11.3347 18.8799 12.1004 19.6456 12.1004 20.5899C12.1004 21.5342 11.3347 22.2999 10.3904 22.2999Z" fill="#212429"/>
<rect x="4" y="25" width="9" height="2" rx="1" fill="#ACA380"/>
<path d="M5.44039 38.5999V40.7599H7.60039V38.5999H5.44039ZM8.14039 38.0599V41.2999H4.90039V38.0599H8.14039ZM10.3904 40.7599C11.0366 40.7599 11.5604 40.2361 11.5604 39.5899C11.5604 38.9437 11.0366 38.4199 10.3904 38.4199C9.74422 38.4199 9.22039 38.9437 9.22039 39.5899C9.22039 40.2361 9.74422 40.7599 10.3904 40.7599ZM10.3904 41.2999C9.44611 41.2999 8.68039 40.5342 8.68039 39.5899C8.68039 38.6456 9.44609 37.8799 10.3904 37.8799C11.3347 37.8799 12.1004 38.6456 12.1004 39.5899C12.1004 40.5342 11.3347 41.2999 10.3904 41.2999Z" fill="#212429"/>
<rect x="4" y="44" width="9" height="2" rx="1" fill="#ACA380"/>
<path d="M5.44039 56.5999V58.7599H7.60039V56.5999H5.44039ZM8.14039 56.0599V59.2999H4.90039V56.0599H8.14039ZM10.3904 58.7599C11.0366 58.7599 11.5604 58.2361 11.5604 57.5899C11.5604 56.9437 11.0366 56.4199 10.3904 56.4199C9.74422 56.4199 9.22039 56.9437 9.22039 57.5899C9.22039 58.2361 9.74422 58.7599 10.3904 58.7599ZM10.3904 59.2999C9.44611 59.2999 8.68039 58.5342 8.68039 57.5899C8.68039 56.6456 9.44609 55.8799 10.3904 55.8799C11.3347 55.8799 12.1004 56.6456 12.1004 57.5899C12.1004 58.5342 11.3347 59.2999 10.3904 59.2999Z" fill="#212429"/>
<rect x="4" y="62" width="9" height="2" rx="1" fill="#ACA380"/>
<path d="M0 4C0 1.79086 1.79086 0 4 0H107C109.209 0 111 1.79086 111 4V12H0V4Z" fill="white"/>
<g opacity="0.4">
<path fill-rule="evenodd" clip-rule="evenodd" d="M11.9054 8.60638L10.572 9.41453L9.21465 10.248V9.21254L10.1433 8.63173L11.0481 8.07621L11.9054 8.60638ZM8.85743 10.248L7.52399 9.41457L6.16668 8.60642L7.02403 8.07619L7.95266 8.63171L8.85743 9.21252V10.248ZM6 8.27822V4.96974L6.85735 5.49996V7.7477L6 8.27792V8.27822ZM6.16665 4.66689L7.52396 3.83345L8.85739 3V4.06075L7.95263 4.61627L7.024 5.17179L6.16665 4.66654V4.66689ZM9.21462 3.00003L10.5719 3.83348L11.9054 4.66693L11.048 5.17218L10.1433 4.61666L9.21462 4.06114V3.00003ZM12.0959 4.96982V8.27831L11.2386 7.74808V5.50035L12.0959 4.97012V4.96982Z" fill="black"/>
<path d="M10.8338 7.94988L10.0241 8.42984L9.21442 8.93509V8.73306L9.9287 8.2784L10.6668 7.84903L10.8335 7.95021L10.8338 7.94988ZM8.85727 8.93477L8.04758 8.42952L7.26174 7.94956L7.40454 7.84838L8.14267 8.27775L8.85695 8.73241V8.93444L8.85727 8.93477ZM7.07129 7.62138V5.6516L7.23794 5.75278V7.52081L7.07129 7.62199V7.62138ZM7.26178 5.3231L8.04762 4.81785L8.85731 4.33789V4.53992L8.14303 4.9693L7.40489 5.42396L7.2621 5.32278L7.26178 5.3231ZM9.21444 4.33821L10.0241 4.81817L10.8338 5.32342L10.6672 5.4246L9.92904 4.96994L9.21476 4.54057V4.33854L9.21444 4.33821ZM11.0004 5.6516V7.62138L10.8338 7.5202V5.75217L11.0004 5.65099V5.6516Z" fill="black"/>
</g>
<circle cx="102" cy="6" r="3" fill="#F0F3F4"/>
</svg>
