<svg width="24" height="24" viewBox="0 0 24 24" fill="none" xmlns="http://www.w3.org/2000/svg">
<path d="M13.0021 10.9128V3.01281C13.0021 2.41281 13.5021 1.91281 14.1021 2.01281C16.1021 2.21281 17.9021 3.11284 19.3021 4.61284C20.7021 6.01284 21.6021 7.91285 21.9021 9.81285C22.0021 10.4129 21.5021 10.9128 20.9021 10.9128H13.0021Z" fill="currentColor"/>
<path opacity="0.3" d="M11.0021 13.7128V4.91283C11.0021 4.31283 10.5021 3.81283 9.90208 3.91283C5.40208 4.51283 1.90209 8.41284 2.00209 13.1128C2.10209 18.0128 6.40208 22.0128 11.3021 21.9128C13.1021 21.8128 14.7021 21.3128 16.0021 20.4128C16.5021 20.1128 16.6021 19.3128 16.1021 18.9128L11.0021 13.7128Z" fill="currentColor"/>
<path opacity="0.3" d="M21.9021 14.0128C21.7021 15.6128 21.1021 17.1128 20.1021 18.4128C19.7021 18.9128 19.0021 18.9128 18.6021 18.5128L13.0021 12.9128H20.9021C21.5021 12.9128 22.0021 13.4128 21.9021 14.0128Z" fill="currentColor"/>
</svg>
