<svg width="24" height="24" viewBox="0 0 24 24" fill="none" xmlns="http://www.w3.org/2000/svg">
<path opacity="0.3" d="M10.9607 12.9128H18.8607C19.4607 12.9128 19.9607 13.4128 19.8607 14.0128C19.2607 19.0128 14.4607 22.7128 9.26068 21.7128C5.66068 21.0128 2.86071 18.2128 2.16071 14.6128C1.16071 9.31284 4.96069 4.61281 9.86069 4.01281C10.4607 3.91281 10.9607 4.41281 10.9607 5.01281V12.9128Z" fill="currentColor"/>
<path d="M12.9607 10.9128V3.01281C12.9607 2.41281 13.4607 1.91281 14.0607 2.01281C16.0607 2.21281 17.8607 3.11284 19.2607 4.61284C20.6607 6.01284 21.5607 7.91285 21.8607 9.81285C21.9607 10.4129 21.4607 10.9128 20.8607 10.9128H12.9607Z" fill="currentColor"/>
</svg>
