<svg width="24" height="24" viewBox="0 0 24 24" fill="none" xmlns="http://www.w3.org/2000/svg">
<path d="M13 10.9128V3.01281C13 2.41281 13.5 1.91281 14.1 2.01281C16.1 2.21281 17.9 3.11284 19.3 4.61284C20.7 6.01284 21.6 7.91285 21.9 9.81285C22 10.4129 21.5 10.9128 20.9 10.9128H13Z" fill="currentColor"/>
<path opacity="0.3" d="M13 12.9128V20.8129C13 21.4129 13.5 21.9129 14.1 21.8129C16.1 21.6129 17.9 20.7128 19.3 19.2128C20.7 17.8128 21.6 15.9128 21.9 14.0128C22 13.4128 21.5 12.9128 20.9 12.9128H13Z" fill="currentColor"/>
<path opacity="0.3" d="M11 19.8129C11 20.4129 10.5 20.9129 9.89999 20.8129C5.49999 20.2129 2 16.5128 2 11.9128C2 7.31283 5.39999 3.51281 9.89999 3.01281C10.5 2.91281 11 3.41281 11 4.01281V19.8129Z" fill="currentColor"/>
</svg>
