<svg width="226" height="42" viewBox="0 0 226 42" fill="none" xmlns="http://www.w3.org/2000/svg">
<path d="M71.584 34H76.486L77.626 18.914C77.74 17.128 77.664 14.696 77.664 14.696H77.74C77.74 14.696 78.576 17.356 79.222 18.914L83.554 29.364H87.848L92.218 18.914C92.864 17.356 93.662 14.734 93.662 14.734H93.738C93.738 14.734 93.662 17.128 93.776 18.914L94.916 34H99.78L97.614 7.02H92.37L87.088 20.358C86.48 21.954 85.758 24.31 85.758 24.31H85.682C85.682 24.31 84.922 21.954 84.314 20.358L79.032 7.02H73.788L71.584 34ZM102.893 24.31C102.893 29.82 106.883 34.456 113.305 34.456C118.131 34.456 121.095 31.682 121.095 31.682L119.233 28.224C119.233 28.224 116.763 30.352 113.647 30.352C110.759 30.352 108.137 28.604 107.833 25.222H121.209C121.209 25.222 121.323 23.93 121.323 23.36C121.323 18.23 118.321 14.164 112.735 14.164C106.959 14.164 102.893 18.344 102.893 24.31ZM107.985 21.916C108.441 19.408 110.151 17.888 112.621 17.888C114.749 17.888 116.383 19.294 116.459 21.916H107.985ZM125.378 26.894C125.378 33.392 130.736 34.19 133.434 34.19C134.346 34.19 134.916 34.076 134.916 34.076V29.858C134.916 29.858 134.574 29.934 134.042 29.934C132.712 29.934 130.204 29.478 130.204 26.286V18.762H134.612V14.924H130.204V9.338H125.492V14.924H122.87V18.762H125.378V26.894ZM138.107 34H142.933V26.324C142.933 25.184 143.047 24.12 143.351 23.17C144.263 20.282 146.581 19.104 148.633 19.104C149.279 19.104 149.773 19.18 149.773 19.18V14.43C149.773 14.43 149.355 14.354 148.899 14.354C145.935 14.354 143.617 16.558 142.743 19.332H142.667C142.667 19.332 142.743 18.686 142.743 17.964V14.62H138.107V34ZM150.821 24.31C150.821 30.276 155.571 34.456 161.499 34.456C167.389 34.456 172.139 30.276 172.139 24.31C172.139 18.382 167.389 14.164 161.461 14.164C155.571 14.164 150.821 18.382 150.821 24.31ZM155.723 24.31C155.723 20.738 158.345 18.268 161.499 18.268C164.615 18.268 167.237 20.738 167.237 24.31C167.237 27.92 164.615 30.352 161.499 30.352C158.345 30.352 155.723 27.92 155.723 24.31ZM175.255 34H180.081V25.108C180.081 24.196 180.157 23.322 180.423 22.524C181.145 20.206 183.045 18.572 185.629 18.572C188.099 18.572 188.707 20.168 188.707 22.524V34H193.495V21.536C193.495 16.406 191.063 14.164 186.769 14.164C182.855 14.164 180.727 16.558 179.891 18.192H179.815C179.815 18.192 179.891 17.584 179.891 16.862V14.62H175.255V34ZM197.799 11.314H202.587V7.02H197.799V11.314ZM197.799 34H202.625V14.62H197.799V34ZM205.764 24.31C205.764 29.934 209.868 34.456 216.29 34.456C221.496 34.456 224.27 31.302 224.27 31.302L222.408 27.882C222.408 27.882 219.976 30.352 216.708 30.352C213.022 30.352 210.666 27.54 210.666 24.272C210.666 20.966 212.984 18.268 216.556 18.268C219.596 18.268 221.61 20.358 221.61 20.358L223.738 17.052C223.738 17.052 221.344 14.164 216.29 14.164C209.868 14.164 205.764 18.8 205.764 24.31Z" fill="white"/>
<path d="M47.7816 3.47108L58.742 37.5978C59.3639 39.5342 57.9195 41.5151 55.8857 41.5151H48.9615C46.783 41.5151 44.8553 40.1046 44.196 38.0283L33.3622 3.90789C32.7479 1.9734 34.1918 0 36.2215 0H43.0211C45.1935 0 47.1173 1.40275 47.7816 3.47108Z" fill="white"/>
<path d="M34.2112 28.0488L26.2019 2.39408C25.7573 0.969858 24.4385 0 22.9465 0C20.871 0 19.1595 1.62646 19.0539 3.69927L18.1005 22.4099C18.054 23.3218 18.164 24.2349 18.4257 25.1098L22.6931 39.3749C23.073 40.645 24.2415 41.5151 25.5672 41.5151H29.6259C30.9316 41.5151 32.0874 40.6705 32.4841 39.4264L34.193 34.0666C34.8168 32.1101 34.8232 30.009 34.2112 28.0488Z" fill="white"/>
<path d="M34.2112 28.0488L26.2019 2.39408C25.7573 0.969858 24.4385 0 22.9465 0C20.871 0 19.1595 1.62646 19.0539 3.69927L18.1005 22.4099C18.054 23.3218 18.164 24.2349 18.4257 25.1098L22.6931 39.3749C23.073 40.645 24.2415 41.5151 25.5672 41.5151H29.6259C30.9316 41.5151 32.0874 40.6705 32.4841 39.4264L34.193 34.0666C34.8168 32.1101 34.8232 30.009 34.2112 28.0488Z" fill="url(#paint0_linear_8687_2950)" fill-opacity="0.6"/>
<path d="M34.2112 28.0488L26.2019 2.39408C25.7573 0.969858 24.4385 0 22.9465 0C20.871 0 19.1595 1.62646 19.0539 3.69927L18.1005 22.4099C18.054 23.3218 18.164 24.2349 18.4257 25.1098L22.6931 39.3749C23.073 40.645 24.2415 41.5151 25.5672 41.5151H29.6259C30.9316 41.5151 32.0874 40.6705 32.4841 39.4264L34.193 34.0666C34.8168 32.1101 34.8232 30.009 34.2112 28.0488Z" stroke="black"/>
<path d="M17.0533 0H23.5253C25.5403 0 26.9824 1.94701 26.395 3.87453L15.9114 38.2757C15.2701 40.3801 13.3286 41.8181 11.1286 41.8181H4.65653C2.64149 41.8181 1.19942 39.8711 1.78683 37.9436L12.2704 3.54245C12.9118 1.438 14.8533 0 17.0533 0Z" fill="white"/>
<defs>
<linearGradient id="paint0_linear_8687_2950" x1="20.303" y1="23.0303" x2="29.0909" y2="25.7576" gradientUnits="userSpaceOnUse">
<stop stop-color="#18175A" stop-opacity="0.42"/>
<stop offset="0.911458" stop-color="#65719B" stop-opacity="0"/>
</linearGradient>
</defs>
</svg>

