<svg width="120" height="74" viewBox="0 0 120 74" fill="none" xmlns="http://www.w3.org/2000/svg">
<path d="M0.529053 72.6164H4.29015L4.76029 65.7353C4.84577 64.5814 4.76029 63.171 4.76029 63.171H4.80303C4.80303 63.171 5.31591 64.7737 5.65782 65.7353L7.26056 70.1589H10.466L12.0688 65.7353C12.4107 64.7737 12.9236 63.171 12.9236 63.171H12.9663C12.9663 63.171 12.8808 64.5814 12.9663 65.7353L13.4364 72.6164H17.1762L15.9367 57.337H11.8764L9.65397 63.7907C9.31205 64.7737 8.88466 66.3123 8.88466 66.3123H8.84192C8.84192 66.3123 8.41452 64.7737 8.07262 63.7907L5.85015 57.337H1.78988L0.529053 72.6164ZM20.9441 72.6164H30.817V69.411H24.6838V66.526H29.3424V63.3206H24.6838V60.5425H30.5178V57.337H20.9441V72.6164ZM37.076 72.6164H40.8158V60.5425H45.453V57.337H32.4388V60.5425H37.076V72.6164ZM47.9787 72.6164H51.7184V67.4663H53.4707L56.1847 72.6164H60.3518L57.3814 67.274C57.0181 66.6329 56.8044 66.3551 56.8044 66.3551V66.3123C58.3217 65.543 59.091 63.7693 59.091 62.1452C59.091 59.9227 58.0011 58.3627 56.2702 57.7003C55.6077 57.4438 54.8598 57.337 53.2998 57.337H47.9787V72.6164ZM51.7184 64.2608V60.5425H52.9792C54.8598 60.5425 55.2872 61.2263 55.2872 62.3803C55.2872 63.5984 54.5392 64.2608 53.3425 64.2608H51.7184ZM62.0975 64.8806C62.0975 69.3682 65.4739 72.8729 70.0898 72.8729C74.7057 72.8729 78.0822 69.3682 78.0822 64.8806C78.0822 60.4997 74.7057 57.0806 70.0898 57.0806C65.4739 57.0806 62.0975 60.4997 62.0975 64.8806ZM65.9655 64.8806C65.9655 62.3803 67.8033 60.4997 70.0898 60.4997C72.3764 60.4997 74.2142 62.3803 74.2142 64.8806C74.2142 67.4877 72.3764 69.4537 70.0898 69.4537C67.8033 69.4537 65.9655 67.4877 65.9655 64.8806ZM81.2739 72.6164H85.0134V65.5003C85.0134 64.5386 84.8424 62.8932 84.8424 62.8932H84.8852C84.8852 62.8932 85.569 64.4959 86.1674 65.5003L90.42 72.6164H94.1811V57.337H90.4413V64.4745C90.4413 65.4362 90.6123 67.0816 90.6123 67.0816H90.5696C90.5696 67.0816 89.8857 65.4789 89.2874 64.4745L85.0561 57.337H81.2739V72.6164ZM98.4222 72.6164H102.162V57.337H98.4222V72.6164ZM105.341 64.9447C105.341 69.4751 108.568 72.8729 113.355 72.8729C117.351 72.8729 119.509 70.3085 119.509 70.3085L117.586 67.5732C117.586 67.5732 115.834 69.4537 113.526 69.4537C110.705 69.4537 109.209 67.1244 109.209 64.8592C109.209 62.6581 110.598 60.4997 113.526 60.4997C115.641 60.4997 117.351 62.0597 117.351 62.0597L119.082 59.2389C119.082 59.2389 117.137 57.0806 113.355 57.0806C108.76 57.0806 105.341 60.4997 105.341 64.9447Z" fill="white"/>
<path d="M77.7816 3.47108L88.742 37.5978C89.3639 39.5342 87.9195 41.5151 85.8857 41.5151H78.9615C76.783 41.5151 74.8553 40.1046 74.196 38.0283L63.3622 3.90789C62.7479 1.9734 64.1918 0 66.2215 0H73.0211C75.1935 0 77.1173 1.40275 77.7816 3.47108Z" fill="#50CD89"/>
<path d="M64.2112 28.0488L56.2019 2.39408C55.7573 0.969858 54.4385 0 52.9465 0C50.871 0 49.1595 1.62646 49.0539 3.69927L48.1005 22.4099C48.054 23.3218 48.164 24.2349 48.4257 25.1098L52.6931 39.3749C53.073 40.645 54.2415 41.5151 55.5672 41.5151H59.6259C60.9316 41.5151 62.0874 40.6705 62.4841 39.4264L64.193 34.0666C64.8168 32.1101 64.8232 30.009 64.2112 28.0488Z" fill="white"/>
<path d="M64.2112 28.0488L56.2019 2.39408C55.7573 0.969858 54.4385 0 52.9465 0C50.871 0 49.1595 1.62646 49.0539 3.69927L48.1005 22.4099C48.054 23.3218 48.164 24.2349 48.4257 25.1098L52.6931 39.3749C53.073 40.645 54.2415 41.5151 55.5672 41.5151H59.6259C60.9316 41.5151 62.0874 40.6705 62.4841 39.4264L64.193 34.0666C64.8168 32.1101 64.8232 30.009 64.2112 28.0488Z" fill="url(#paint0_linear_8583_2595)"/>
<path d="M64.2112 28.0488L56.2019 2.39408C55.7573 0.969858 54.4385 0 52.9465 0C50.871 0 49.1595 1.62646 49.0539 3.69927L48.1005 22.4099C48.054 23.3218 48.164 24.2349 48.4257 25.1098L52.6931 39.3749C53.073 40.645 54.2415 41.5151 55.5672 41.5151H59.6259C60.9316 41.5151 62.0874 40.6705 62.4841 39.4264L64.193 34.0666C64.8168 32.1101 64.8232 30.009 64.2112 28.0488Z" stroke="black"/>
<path d="M47.0532 0H53.5252C55.5402 0 56.9823 1.94701 56.3949 3.87453L45.9113 38.2757C45.2699 40.3801 43.3284 41.8181 41.1284 41.8181H34.6564C32.6414 41.8181 31.1993 39.8711 31.7867 37.9436L42.2703 3.54245C42.9116 1.438 44.8532 0 47.0532 0Z" fill="#50CD89"/>
<defs>
<linearGradient id="paint0_linear_8583_2595" x1="50.303" y1="23.0303" x2="59.0909" y2="25.7576" gradientUnits="userSpaceOnUse">
<stop stop-color="#18175A" stop-opacity="0.42"/>
<stop offset="0.911458" stop-color="#65719B" stop-opacity="0"/>
</linearGradient>
</defs>
</svg>
