<svg width="78" height="56" viewBox="0 0 78 56" fill="none" xmlns="http://www.w3.org/2000/svg">
<path d="M61.114 2.77686L76.3225 50.1304C77.1517 52.7123 75.2258 55.3535 72.5141 55.3535H61.3307C59.5879 55.3535 58.0457 54.2251 57.5183 52.5641L42.4827 5.21052C41.6637 2.63121 43.5889 0 46.2951 0H57.3056C59.0435 0 60.5826 1.12219 61.114 2.77686Z" fill="#EF305E"/>
<g filter="url(#filter0_i_5011_1731)">
<path d="M46.5485 37.8L35.8243 3.44919C35.1837 1.39729 33.2837 0 31.1341 0C28.5177 0 26.3602 2.05036 26.227 4.66341L24.9187 30.3392C24.8723 31.2511 24.9823 32.1643 25.244 33.0391L31.0656 52.4999C31.5722 54.1934 33.1302 55.3535 34.8978 55.3535H40.3093C42.0503 55.3535 43.5914 54.2274 44.1203 52.5686L46.5267 45.0214C47.2752 42.6736 47.2828 40.1523 46.5485 37.8Z" fill="#F4F4F4"/>
<path d="M46.5485 37.8L35.8243 3.44919C35.1837 1.39729 33.2837 0 31.1341 0C28.5177 0 26.3602 2.05036 26.227 4.66341L24.9187 30.3392C24.8723 31.2511 24.9823 32.1643 25.244 33.0391L31.0656 52.4999C31.5722 54.1934 33.1302 55.3535 34.8978 55.3535H40.3093C42.0503 55.3535 43.5914 54.2274 44.1203 52.5686L46.5267 45.0214C47.2752 42.6736 47.2828 40.1523 46.5485 37.8Z" fill="url(#paint0_linear_5011_1731)"/>
</g>
<path d="M20.317 0H31.3316C34.0288 0 35.9529 2.61489 35.1505 5.18995L20.2695 52.9475C19.7487 54.619 18.2014 55.7576 16.4506 55.7576H5.43606C2.73888 55.7576 0.814784 53.1427 1.61716 50.5676L16.4981 2.81005C17.019 1.13856 18.5663 0 20.317 0Z" fill="#EF305E"/>
<defs>
<filter id="filter0_i_5011_1731" x="24.9084" y="0" width="22.1854" height="55.3535" filterUnits="userSpaceOnUse" color-interpolation-filters="sRGB">
<feFlood flood-opacity="0" result="BackgroundImageFix"/>
<feBlend mode="normal" in="SourceGraphic" in2="BackgroundImageFix" result="shape"/>
<feColorMatrix in="SourceAlpha" type="matrix" values="0 0 0 0 0 0 0 0 0 0 0 0 0 0 0 0 0 0 127 0" result="hardAlpha"/>
<feOffset dx="-4" dy="3"/>
<feComposite in2="hardAlpha" operator="arithmetic" k2="-1" k3="1"/>
<feColorMatrix type="matrix" values="0 0 0 0 0.904167 0 0 0 0 0.892865 0 0 0 0 0.892865 0 0 0 0.4 0"/>
<feBlend mode="normal" in2="shape" result="effect1_innerShadow_5011_1731"/>
</filter>
<linearGradient id="paint0_linear_5011_1731" x1="29" y1="24.5" x2="49" y2="30.5" gradientUnits="userSpaceOnUse">
<stop stop-opacity="0.2"/>
<stop offset="0.911458" stop-color="white" stop-opacity="0"/>
</linearGradient>
</defs>
</svg>
