<svg width="175" height="34" viewBox="0 0 175 34" fill="none" xmlns="http://www.w3.org/2000/svg">
<path d="M45.9437 24.2857C45.798 24.2857 45.6741 24.2347 45.5721 24.1327C45.4701 24.0307 45.4191 23.9068 45.4191 23.7611V9.53209C45.4191 9.3718 45.4628 9.24066 45.5503 9.13866C45.6523 9.03666 45.7834 8.98566 45.9437 8.98566H47.8671C48.0274 8.98566 48.1586 9.03666 48.2606 9.13866C48.3626 9.24066 48.4136 9.3718 48.4136 9.53209V14.6467L53.3533 9.37909C53.5427 9.1168 53.8268 8.98566 54.2057 8.98566H56.3696C56.4861 8.98566 56.5881 9.02938 56.6756 9.1168C56.7776 9.20423 56.8286 9.31352 56.8286 9.44466C56.8286 9.54666 56.7994 9.63409 56.7411 9.70695L50.7304 16.3078L57.1564 23.5425C57.2293 23.6299 57.2657 23.7247 57.2657 23.8267C57.2657 23.9578 57.2147 24.0671 57.1127 24.1545C57.0253 24.2419 56.9233 24.2857 56.8067 24.2857H54.5554C54.1911 24.2857 53.907 24.1545 53.703 23.8922L48.4136 18.1001V23.7611C48.4136 23.9214 48.3626 24.0525 48.2606 24.1545C48.1586 24.2419 48.0274 24.2857 47.8671 24.2857H45.9437ZM63.2226 24.5042C61.6052 24.5042 60.3156 24.0379 59.3539 23.1054C58.4068 22.1582 57.904 20.8322 57.8458 19.1274L57.8239 18.5809L57.8458 18.0345C57.9186 16.3734 58.4286 15.0692 59.3758 14.1221C60.3375 13.1749 61.6198 12.7014 63.2226 12.7014C64.9421 12.7014 66.2681 13.2259 67.2006 14.2751C68.1478 15.3242 68.6213 16.7231 68.6213 18.4717V18.9307C68.6213 19.0764 68.5703 19.2002 68.4683 19.3022C68.3663 19.4042 68.2352 19.4552 68.0749 19.4552H60.8183V19.6301C60.8475 20.4315 61.0661 21.1091 61.4741 21.6628C61.8966 22.2019 62.4722 22.4715 63.2008 22.4715C64.0605 22.4715 64.7526 22.1364 65.2772 21.4661C65.4083 21.3058 65.5103 21.2038 65.5832 21.1601C65.6706 21.1164 65.7945 21.0945 65.9548 21.0945H67.8345C67.9656 21.0945 68.0749 21.1382 68.1623 21.2257C68.2643 21.2985 68.3153 21.3932 68.3153 21.5098C68.3153 21.8595 68.1041 22.2748 67.6815 22.7557C67.2735 23.2219 66.6833 23.6299 65.9111 23.9797C65.1388 24.3294 64.2426 24.5042 63.2226 24.5042ZM65.6488 17.6192V17.5537C65.6488 16.6939 65.4302 16.0018 64.9931 15.4772C64.5705 14.9527 63.9803 14.6904 63.2226 14.6904C62.4649 14.6904 61.8748 14.9527 61.4522 15.4772C61.0296 16.0018 60.8183 16.6939 60.8183 17.5537V17.6192H65.6488ZM75.8375 24.5042C74.22 24.5042 72.9305 24.0379 71.9688 23.1054C71.0216 22.1582 70.5189 20.8322 70.4606 19.1274L70.4388 18.5809L70.4606 18.0345C70.5335 16.3734 71.0435 15.0692 71.9906 14.1221C72.9523 13.1749 74.2346 12.7014 75.8375 12.7014C77.5569 12.7014 78.8829 13.2259 79.8155 14.2751C80.7626 15.3242 81.2362 16.7231 81.2362 18.4717V18.9307C81.2362 19.0764 81.1852 19.2002 81.0832 19.3022C80.9812 19.4042 80.85 19.4552 80.6898 19.4552H73.4332V19.6301C73.4623 20.4315 73.6809 21.1091 74.0889 21.6628C74.5115 22.2019 75.087 22.4715 75.8156 22.4715C76.6753 22.4715 77.3675 22.1364 77.892 21.4661C78.0232 21.3058 78.1252 21.2038 78.198 21.1601C78.2855 21.1164 78.4093 21.0945 78.5696 21.0945H80.4493C80.5805 21.0945 80.6898 21.1382 80.7772 21.2257C80.8792 21.2985 80.9302 21.3932 80.9302 21.5098C80.9302 21.8595 80.7189 22.2748 80.2963 22.7557C79.8883 23.2219 79.2982 23.6299 78.5259 23.9797C77.7536 24.3294 76.8575 24.5042 75.8375 24.5042ZM78.2636 17.6192V17.5537C78.2636 16.6939 78.045 16.0018 77.6079 15.4772C77.1853 14.9527 76.5952 14.6904 75.8375 14.6904C75.0798 14.6904 74.4896 14.9527 74.067 15.4772C73.6445 16.0018 73.4332 16.6939 73.4332 17.5537V17.6192H78.2636ZM84.0808 24.2857C83.9351 24.2857 83.8112 24.2347 83.7092 24.1327C83.6072 24.0307 83.5562 23.9068 83.5562 23.7611V13.4445C83.5562 13.2988 83.6072 13.1749 83.7092 13.0729C83.8112 12.9709 83.9351 12.9199 84.0808 12.9199H85.8731C86.0188 12.9199 86.1426 12.9709 86.2446 13.0729C86.3466 13.1749 86.3976 13.2988 86.3976 13.4445V14.3407C87.2573 13.2478 88.4741 12.7014 90.0478 12.7014C91.3883 12.7014 92.4521 13.1458 93.2389 14.0347C94.0258 14.9089 94.4192 16.1038 94.4192 17.6192V23.7611C94.4192 23.9068 94.3682 24.0307 94.2662 24.1327C94.1788 24.2347 94.0549 24.2857 93.8946 24.2857H91.9712C91.8255 24.2857 91.7016 24.2347 91.5996 24.1327C91.4976 24.0307 91.4466 23.9068 91.4466 23.7611V17.7504C91.4466 16.8907 91.2353 16.2277 90.8128 15.7614C90.4048 15.2805 89.8073 15.0401 89.0205 15.0401C88.2482 15.0401 87.6362 15.2805 87.1845 15.7614C86.7473 16.2422 86.5288 16.9052 86.5288 17.7504V23.7611C86.5288 23.9068 86.4778 24.0307 86.3758 24.1327C86.2883 24.2347 86.1645 24.2857 86.0042 24.2857H84.0808ZM101.633 24.2857C101.487 24.2857 101.37 24.2419 101.283 24.1545C101.196 24.0671 101.152 23.9505 101.152 23.8048V10.2971H96.8241C96.6784 10.2971 96.5618 10.2534 96.4744 10.1659C96.387 10.0785 96.3432 9.96195 96.3432 9.81623V9.48838C96.3432 9.34266 96.387 9.22609 96.4744 9.13866C96.5618 9.03666 96.6784 8.98566 96.8241 8.98566H106.835C106.995 8.98566 107.119 9.02938 107.206 9.1168C107.294 9.20423 107.337 9.32809 107.337 9.48838V9.81623C107.337 9.96195 107.286 10.0785 107.184 10.1659C107.097 10.2534 106.98 10.2971 106.835 10.2971H102.529V23.8048C102.529 23.9505 102.478 24.0671 102.376 24.1545C102.288 24.2419 102.172 24.2857 102.026 24.2857H101.633ZM109.702 24.2857C109.556 24.2857 109.44 24.2419 109.352 24.1545C109.265 24.0671 109.221 23.9505 109.221 23.8048V9.24795C109.221 9.10223 109.265 8.98566 109.352 8.89823C109.44 8.8108 109.556 8.76709 109.702 8.76709H110.073C110.219 8.76709 110.336 8.8108 110.423 8.89823C110.511 8.98566 110.554 9.10223 110.554 9.24795V14.4281C110.991 13.8598 111.487 13.4299 112.041 13.1385C112.609 12.8471 113.337 12.7014 114.226 12.7014C115.654 12.7014 116.754 13.1604 117.527 14.0784C118.299 14.9818 118.685 16.1548 118.685 17.5974V23.8048C118.685 23.9505 118.641 24.0671 118.554 24.1545C118.467 24.2419 118.35 24.2857 118.204 24.2857H117.833C117.687 24.2857 117.57 24.2419 117.483 24.1545C117.396 24.0671 117.352 23.9505 117.352 23.8048V17.7067C117.352 16.5264 117.06 15.6084 116.478 14.9527C115.909 14.2969 115.086 13.9691 114.008 13.9691C112.959 13.9691 112.121 14.3042 111.494 14.9745C110.868 15.6302 110.554 16.5409 110.554 17.7067V23.8048C110.554 23.9505 110.511 24.0671 110.423 24.1545C110.336 24.2419 110.219 24.2857 110.073 24.2857H109.702ZM126.331 24.5042C124.946 24.5042 123.832 24.0525 122.986 23.1491C122.141 22.2311 121.66 21.0071 121.544 19.4771L121.522 18.6028L121.544 17.7285C121.66 16.2131 122.134 14.9964 122.965 14.0784C123.81 13.1604 124.932 12.7014 126.331 12.7014C127.846 12.7014 129.026 13.2041 129.871 14.2095C130.731 15.2149 131.161 16.5919 131.161 18.3405V18.6684C131.161 18.8141 131.11 18.9307 131.008 19.0181C130.921 19.1055 130.804 19.1492 130.658 19.1492H122.877V19.3678C122.906 20.0527 123.059 20.6938 123.336 21.2912C123.628 21.8741 124.028 22.3477 124.538 22.7119C125.048 23.0617 125.646 23.2365 126.331 23.2365C127.132 23.2365 127.78 23.0835 128.276 22.7775C128.786 22.4569 129.15 22.1364 129.369 21.8158C129.5 21.6409 129.595 21.5317 129.653 21.4879C129.726 21.4442 129.85 21.4224 130.024 21.4224H130.374C130.505 21.4224 130.615 21.4588 130.702 21.5317C130.789 21.6045 130.833 21.6992 130.833 21.8158C130.833 22.1218 130.636 22.4934 130.243 22.9305C129.864 23.3531 129.332 23.7247 128.647 24.0452C127.963 24.3512 127.19 24.5042 126.331 24.5042ZM129.828 17.9252V17.8378C129.828 16.7158 129.507 15.7905 128.866 15.0619C128.239 14.3334 127.394 13.9691 126.331 13.9691C125.267 13.9691 124.422 14.3334 123.795 15.0619C123.183 15.7905 122.877 16.7158 122.877 17.8378V17.9252H129.828ZM134.526 24.2857C134.38 24.2857 134.264 24.2419 134.176 24.1545C134.089 24.0671 134.045 23.9505 134.045 23.8048V13.4008C134.045 13.2551 134.089 13.1385 134.176 13.0511C134.264 12.9637 134.38 12.9199 134.526 12.9199H134.897C135.043 12.9199 135.16 12.9637 135.247 13.0511C135.335 13.1385 135.378 13.2551 135.378 13.4008V14.1658C135.757 13.6849 136.194 13.3207 136.69 13.0729C137.2 12.8252 137.804 12.7014 138.504 12.7014C140.136 12.7014 141.302 13.3862 142.001 14.7559C142.351 14.1294 142.846 13.6339 143.487 13.2697C144.143 12.8908 144.886 12.7014 145.717 12.7014C146.926 12.7014 147.91 13.1167 148.667 13.9472C149.425 14.7632 149.804 15.9289 149.804 17.4444V23.8048C149.804 23.9505 149.76 24.0671 149.673 24.1545C149.585 24.2419 149.469 24.2857 149.323 24.2857H148.952C148.806 24.2857 148.689 24.2419 148.602 24.1545C148.514 24.0671 148.471 23.9505 148.471 23.8048V17.6629C148.471 16.3369 148.194 15.3898 147.64 14.8215C147.101 14.2532 146.387 13.9691 145.498 13.9691C144.711 13.9691 144.026 14.2605 143.444 14.8434C142.875 15.4117 142.591 16.3515 142.591 17.6629V23.8048C142.591 23.9505 142.547 24.0671 142.46 24.1545C142.373 24.2419 142.256 24.2857 142.11 24.2857H141.739C141.593 24.2857 141.476 24.2419 141.389 24.1545C141.302 24.0671 141.258 23.9505 141.258 23.8048V17.6629C141.258 16.3515 140.974 15.4117 140.405 14.8434C139.837 14.2605 139.13 13.9691 138.285 13.9691C137.498 13.9691 136.814 14.2605 136.231 14.8434C135.662 15.4117 135.378 16.3442 135.378 17.6411V23.8048C135.378 23.9505 135.335 24.0671 135.247 24.1545C135.16 24.2419 135.043 24.2857 134.897 24.2857H134.526ZM157.452 24.5042C156.067 24.5042 154.953 24.0525 154.107 23.1491C153.262 22.2311 152.781 21.0071 152.665 19.4771L152.643 18.6028L152.665 17.7285C152.781 16.2131 153.255 14.9964 154.086 14.0784C154.931 13.1604 156.053 12.7014 157.452 12.7014C158.967 12.7014 160.147 13.2041 160.992 14.2095C161.852 15.2149 162.282 16.5919 162.282 18.3405V18.6684C162.282 18.8141 162.231 18.9307 162.129 19.0181C162.042 19.1055 161.925 19.1492 161.779 19.1492H153.998V19.3678C154.027 20.0527 154.18 20.6938 154.457 21.2912C154.749 21.8741 155.149 22.3477 155.659 22.7119C156.169 23.0617 156.767 23.2365 157.452 23.2365C158.253 23.2365 158.901 23.0835 159.397 22.7775C159.907 22.4569 160.271 22.1364 160.49 21.8158C160.621 21.6409 160.716 21.5317 160.774 21.4879C160.847 21.4442 160.971 21.4224 161.145 21.4224H161.495C161.626 21.4224 161.736 21.4588 161.823 21.5317C161.91 21.6045 161.954 21.6992 161.954 21.8158C161.954 22.1218 161.757 22.4934 161.364 22.9305C160.985 23.3531 160.453 23.7247 159.768 24.0452C159.084 24.3512 158.311 24.5042 157.452 24.5042ZM160.949 17.9252V17.8378C160.949 16.7158 160.628 15.7905 159.987 15.0619C159.36 14.3334 158.515 13.9691 157.452 13.9691C156.388 13.9691 155.543 14.3334 154.916 15.0619C154.304 15.7905 153.998 16.7158 153.998 17.8378V17.9252H160.949ZM168.772 24.5042C167.825 24.5042 167.024 24.3439 166.368 24.0234C165.727 23.7028 165.239 23.3385 164.904 22.9305C164.583 22.5225 164.423 22.1947 164.423 21.9469C164.423 21.8158 164.474 21.7138 164.576 21.6409C164.678 21.5535 164.787 21.5098 164.904 21.5098H165.231C165.333 21.5098 165.414 21.5317 165.472 21.5754C165.545 21.6045 165.625 21.6774 165.712 21.7939C166.033 22.2457 166.419 22.6027 166.871 22.8649C167.337 23.1127 167.971 23.2365 168.772 23.2365C169.676 23.2365 170.404 23.0689 170.958 22.7338C171.512 22.3841 171.789 21.8887 171.789 21.2475C171.789 20.8541 171.672 20.5335 171.439 20.2858C171.22 20.0381 170.856 19.8268 170.346 19.6519C169.851 19.4625 169.107 19.2512 168.117 19.0181C166.82 18.7267 165.931 18.3259 165.45 17.8159C164.984 17.3059 164.751 16.6575 164.751 15.8707C164.751 15.3315 164.896 14.8215 165.188 14.3407C165.494 13.8598 165.938 13.4664 166.521 13.1604C167.118 12.8544 167.832 12.7014 168.663 12.7014C169.537 12.7014 170.273 12.8544 170.871 13.1604C171.483 13.4518 171.934 13.7942 172.226 14.1877C172.532 14.5811 172.685 14.9017 172.685 15.1494C172.685 15.2805 172.634 15.3898 172.532 15.4772C172.444 15.5501 172.335 15.5865 172.204 15.5865H171.876C171.672 15.5865 171.512 15.4918 171.395 15.3024C171.104 14.8652 170.769 14.5374 170.39 14.3188C170.025 14.0857 169.45 13.9691 168.663 13.9691C167.818 13.9691 167.177 14.1439 166.74 14.4937C166.302 14.8434 166.084 15.3024 166.084 15.8707C166.084 16.2204 166.171 16.5118 166.346 16.7449C166.521 16.9781 166.849 17.1967 167.33 17.4007C167.811 17.5901 168.51 17.7868 169.428 17.9908C170.783 18.2968 171.738 18.7048 172.291 19.2148C172.845 19.7248 173.122 20.4024 173.122 21.2475C173.122 21.8449 172.954 22.3914 172.619 22.8868C172.284 23.3822 171.789 23.7757 171.133 24.0671C170.477 24.3585 169.69 24.5042 168.772 24.5042Z" fill="#ffffff"/>
<path d="M30.8453 1.66848C31.0088 1.48642 31.0997 1.24926 31.1 1.00316C31.1 0.738564 30.9968 0.484682 30.8127 0.296796C30.6287 0.108909 30.3788 0.0022339 30.1173 0H30.1052L13.6935 0.00846907H13.6815C13.4486 0.00842905 13.2181 0.0571475 13.0046 0.151561C12.7913 0.245975 12.5994 0.384046 12.4412 0.5571C11.3581 1.66377 8.58374 4.45774 3.57805 9.25237C-3.11603 15.6637 1.63584 21.9931 1.63584 21.9931L7.75813 28.19C6.32169 26.6363 8.08447 24.5877 8.08447 24.5877L30.782 1.74093C30.7988 1.72494 30.8155 1.708 30.8313 1.69106L30.8471 1.67412L30.8453 1.66848Z" fill="#0094FF"/>
<path d="M31.612 32.3255L31.6064 32.3198L18.2238 18.7913C18.1291 18.6969 18.0169 18.6223 17.8935 18.5719C17.7702 18.5215 17.6382 18.4963 17.5053 18.4976C17.3723 18.4991 17.2409 18.5271 17.1187 18.5801C16.9964 18.633 16.8858 18.71 16.793 18.8064L9.71582 25.9321C7.9205 28.1134 8.99807 29.237 8.99807 29.237L13.167 33.6082C13.2735 33.7303 13.4046 33.828 13.5514 33.8948C13.6984 33.9614 13.8577 33.9955 14.0186 33.9949H30.8496C30.8607 33.9949 30.8709 33.9949 30.8831 33.9949C31.0736 33.9938 31.2597 33.9369 31.4192 33.8312C31.5785 33.7255 31.7043 33.5754 31.7813 33.399C31.8583 33.2225 31.8833 33.0274 31.8533 32.837C31.8232 32.6465 31.7394 32.4688 31.612 32.3255Z" fill="#ffffff"/>
</svg>
