<svg width="100" height="27" viewBox="0 0 100 27" fill="none" xmlns="http://www.w3.org/2000/svg">
<g clip-path="url(#clip0_2810_120)">
<path d="M12.7875 10.4084C12.4326 10.397 12.0792 10.4591 11.7494 10.5906C11.4196 10.7222 11.1205 10.9205 10.8709 11.173C10.3673 11.6827 10.1155 12.3374 10.1155 13.137C10.1155 13.9366 10.3668 14.5934 10.8695 15.1075C11.119 15.3603 11.418 15.5587 11.7479 15.6903C12.0778 15.8219 12.4313 15.8838 12.7862 15.8721C13.1427 15.8831 13.4976 15.821 13.829 15.6895C14.1605 15.558 14.4615 15.3599 14.7134 15.1075C15.2223 14.5987 15.4767 13.9418 15.4767 13.137C15.4767 12.3321 15.2223 11.6753 14.7134 11.1664C14.4609 10.9157 14.1598 10.7191 13.8287 10.5887C13.4975 10.4584 13.1432 10.397 12.7875 10.4084V10.4084Z" fill="#236BAE"/>
<path d="M13.1367 4.59795C11.4478 4.59795 9.7969 5.09875 8.39266 6.03703C6.98842 6.97531 5.89395 8.30893 5.24766 9.86924C4.60136 11.4295 4.43225 13.1465 4.76174 14.8029C5.09122 16.4593 5.90448 17.9808 7.09869 19.175C8.29289 20.3692 9.8144 21.1825 11.4708 21.5119C13.1272 21.8414 14.8441 21.6723 16.4044 21.026C17.9647 20.3797 19.2984 19.2853 20.2366 17.881C21.1749 16.4768 21.6757 14.8258 21.6757 13.137C21.673 10.8731 20.7724 8.70282 19.1716 7.10204C17.5709 5.50127 15.4005 4.60073 13.1367 4.59795V4.59795ZM17.9737 17.9753H15.4777V16.8337C14.7307 17.7761 13.6797 18.2468 12.3248 18.246C11.0348 18.246 9.92821 17.7524 9.00512 16.7654C8.08203 15.7784 7.62004 14.5689 7.61917 13.137C7.61917 11.7051 8.08027 10.4956 9.00249 9.50855C9.9247 8.52152 11.0313 8.02801 12.3222 8.02801C13.6771 8.02801 14.728 8.49875 15.4751 9.44024V8.29863H17.9711L17.9737 17.9753Z" fill="#236BAE"/>
<path d="M26.274 13.137C26.274 12.1609 25.4082 11.2978 25.2007 10.3782C24.9865 9.43498 25.3859 8.2763 24.976 7.43028C24.5661 6.58426 23.3996 6.16125 22.8097 5.41769C22.2199 4.67414 22.0701 3.4616 21.3279 2.86518C20.5856 2.26876 19.3705 2.40407 18.5061 1.98763C17.6416 1.57119 17.0032 0.542562 16.0613 0.327115C15.1417 0.119551 14.1131 0.76589 13.137 0.76589C12.1609 0.76589 11.1257 0.119551 10.2127 0.327115C9.27077 0.541248 8.61917 1.57644 7.7679 1.98763C6.91662 2.39882 5.68831 2.2727 4.94607 2.86518C4.20383 3.45766 4.05933 4.67677 3.46422 5.42295C2.86912 6.16913 1.71569 6.56849 1.29793 7.43553C0.880178 8.30257 1.28742 9.44024 1.07329 10.3782C0.865727 11.2978 0 12.1609 0 13.137C0 14.1131 0.865727 14.9762 1.07329 15.8957C1.28742 16.839 0.88806 17.9977 1.29793 18.8437C1.70781 19.6897 2.87437 20.1127 3.46422 20.8563C4.05407 21.5998 4.19989 22.8176 4.94607 23.414C5.69225 24.0105 6.90348 23.8751 7.7679 24.2916C8.63231 24.708 9.27077 25.7367 10.2127 25.9521C11.1323 26.1597 12.1609 25.5133 13.137 25.5133C14.1131 25.5133 15.1483 26.1597 16.0613 25.9521C17.0032 25.738 17.6548 24.7015 18.5061 24.2916C19.3573 23.8817 20.5856 24.0065 21.3279 23.414C22.0701 22.8216 22.2146 21.6025 22.8097 20.8563C23.4048 20.1101 24.5583 19.7081 24.976 18.8437C25.3938 17.9793 24.9865 16.839 25.2007 15.8957C25.4082 14.9762 26.274 14.1131 26.274 13.137ZM13.137 22.2015C11.3442 22.2015 9.59166 21.6699 8.101 20.6739C6.61035 19.6778 5.44853 18.2621 4.76246 16.6058C4.07639 14.9495 3.89688 13.1269 4.24664 11.3686C4.59639 9.61024 5.4597 7.9951 6.7274 6.7274C7.99509 5.45971 9.61024 4.5964 11.3686 4.24664C13.1269 3.89688 14.9495 4.07639 16.6058 4.76246C18.2621 5.44853 19.6778 6.61036 20.6738 8.10101C21.6699 9.59166 22.2015 11.3442 22.2015 13.137C22.1991 15.5403 21.2433 17.8445 19.5439 19.5439C17.8445 21.2433 15.5403 22.1991 13.137 22.2015V22.2015Z" fill="#236BAE"/>
<path d="M41.4226 6.89297H43.598V19.381H41.4226V17.2331C40.3436 18.8813 38.7689 19.7055 36.6985 19.7055C35.8605 19.7171 35.0293 19.5531 34.2585 19.2241C33.4876 18.8951 32.7942 18.4085 32.2227 17.7954C30.9896 16.5211 30.373 14.9683 30.373 13.137C30.373 11.3057 30.9896 9.75289 32.2227 8.47861C32.7942 7.86551 33.4876 7.37882 34.2585 7.04984C35.0293 6.72087 35.8605 6.5569 36.6985 6.56849C38.7645 6.56849 40.3409 7.39262 41.4278 9.04087L41.4226 6.89297ZM36.9731 17.6036C38.2395 17.6036 39.2979 17.1748 40.1483 16.3174C40.9987 15.46 41.4234 14.3986 41.4226 13.133C41.4226 11.8684 40.9978 10.8069 40.1483 9.94864C39.2987 9.09035 38.2403 8.66428 36.9731 8.67041C36.3873 8.65631 35.805 8.76325 35.2625 8.98455C34.7199 9.20585 34.2289 9.53674 33.8202 9.95652C32.9698 10.8148 32.545 11.8763 32.5459 13.1409C32.5468 14.4056 32.9715 15.467 33.8202 16.3253C34.2296 16.7437 34.7209 17.0731 35.2634 17.293C35.8059 17.513 36.3879 17.6187 36.9731 17.6036V17.6036Z" fill="#212123"/>
<path d="M59.398 6.56848C60.7993 6.56848 61.933 7.02215 62.7992 7.92947C63.6653 8.8368 64.0984 10.0629 64.0984 11.6078V19.3757H61.9229V11.6919C61.9229 10.7285 61.6733 9.97928 61.1741 9.44417C60.6749 8.90905 60.008 8.64281 59.1734 8.64544C58.2389 8.64544 57.4944 8.95766 56.9401 9.5821C56.3857 10.2065 56.1037 11.1585 56.094 12.4381V19.381H53.9238V11.6919C53.9238 10.7285 53.686 9.97928 53.2105 9.44417C52.7349 8.90905 52.089 8.6415 51.2728 8.6415C50.8464 8.63051 50.4224 8.70928 50.0284 8.87267C49.6344 9.03607 49.2791 9.28046 48.9856 9.58999C48.3778 10.2232 48.0739 11.1726 48.0739 12.4381V19.381H45.8984V6.89296H48.0805V8.56662C48.9265 7.23453 50.1658 6.56848 51.7983 6.56848C53.4807 6.56848 54.7068 7.27613 55.4766 8.69142C56.341 7.27613 57.6481 6.56848 59.398 6.56848Z" fill="#212123"/>
<path d="M76.474 6.89297H78.6495V19.381H76.474V17.2331C75.3907 18.8813 73.816 19.7055 71.75 19.7055C69.9984 19.7055 68.5064 19.0688 67.2742 17.7953C66.0419 16.5219 65.4245 14.9691 65.4219 13.137C65.4219 11.3057 66.0384 9.75289 67.2716 8.4786C68.5047 7.20431 69.9975 6.56761 71.75 6.56848C73.8168 6.56848 75.3933 7.39261 76.4793 9.04086L76.474 6.89297ZM72.0245 17.6035C73.2909 17.6035 74.3493 17.1748 75.1997 16.3174C76.0501 15.46 76.4749 14.3986 76.474 13.133C76.474 11.8684 76.0493 10.8069 75.1997 9.94863C74.3502 9.09034 73.2918 8.66427 72.0245 8.6704C71.4388 8.6563 70.8564 8.76324 70.3139 8.98454C69.7714 9.20584 69.2804 9.53673 68.8716 9.95651C68.0212 10.8148 67.596 11.8763 67.596 13.1409C67.596 14.4056 68.0212 15.467 68.8716 16.3253C69.2811 16.7437 69.7724 17.0731 70.3149 17.293C70.8573 17.513 71.4393 17.6187 72.0245 17.6035V17.6035Z" fill="#212123"/>
<path d="M83.1234 8.99095C83.8407 7.44167 85.1408 6.66746 87.0238 6.66834V8.94103C85.957 8.89111 85.0405 9.174 84.2742 9.78968C83.5079 10.4054 83.1243 11.3963 83.1234 12.7626V19.381H80.9492V6.89298H83.1234V8.99095Z" fill="#212123"/>
<path d="M97.8249 6.89297H100V19.381H97.8249V17.2331C96.7415 18.8813 95.1669 19.7055 93.1008 19.7055C91.3493 19.7055 89.8573 19.0688 88.6251 17.7953C87.3928 16.5219 86.7763 14.9691 86.7754 13.137C86.7754 11.3057 87.392 9.75289 88.6251 8.4786C89.8582 7.20431 91.3501 6.56761 93.1008 6.56848C95.1669 6.56848 96.7433 7.39261 97.8302 9.04086L97.8249 6.89297ZM93.3754 17.6035C94.6418 17.6035 95.7002 17.1748 96.5506 16.3174C97.401 15.46 97.8258 14.3986 97.8249 13.133C97.8249 11.8684 97.4001 10.8069 96.5506 9.94863C95.7011 9.09034 94.6427 8.66427 93.3754 8.6704C92.7897 8.6563 92.2073 8.76324 91.6648 8.98454C91.1223 9.20584 90.6313 9.53673 90.2225 9.95651C89.373 10.8148 88.9478 11.8763 88.9469 13.1409C88.9461 14.4056 89.3713 15.467 90.2225 16.3253C90.632 16.7437 91.1233 17.0731 91.6658 17.293C92.2082 17.513 92.7902 17.6187 93.3754 17.6035V17.6035Z" fill="#212123"/>
</g>
<defs>
<clipPath id="clip0_2810_120">
<rect width="100" height="26.274" fill="white"/>
</clipPath>
</defs>
</svg>
