<svg width="30" height="30" viewBox="0 0 30 30" fill="none" xmlns="http://www.w3.org/2000/svg">
<g clip-path="url(#clip0_2939:2282)">
<path d="M25.8263 24.066C13.6823 29.8086 6.14567 25.0039 1.32121 22.0856C1.02267 21.9017 0.515264 22.1286 0.955509 22.6311C2.56278 24.5675 7.83014 29.2349 14.7056 29.2349C21.5857 29.2349 25.6788 25.5046 26.1908 24.8539C26.6994 24.2087 26.3402 23.8528 25.8262 24.066H25.8263ZM29.2369 22.1944C28.9108 21.7725 27.2539 21.6938 26.2111 21.8211C25.1668 21.9447 23.5992 22.5789 23.7355 22.9597C23.8054 23.1023 23.9482 23.0384 24.6656 22.9743C25.385 22.9029 27.4003 22.6502 27.8203 23.1957C28.2422 23.7449 27.1775 26.3613 26.983 26.7833C26.7952 27.2052 27.0548 27.314 27.4077 27.033C27.7557 26.7521 28.3858 26.0245 28.8086 24.995C29.2286 23.9598 29.4846 22.5157 29.2368 22.1944H29.2369Z" fill="#FF9900"/>
<path fill-rule="evenodd" clip-rule="evenodd" d="M17.6609 12.3483C17.6609 13.8551 17.6992 15.1117 16.9327 16.4498C16.314 17.5379 15.3341 18.2069 14.2392 18.2069C12.7445 18.2069 11.8741 17.0754 11.8741 15.4055C11.8741 12.1089 14.8467 11.5106 17.6609 11.5106V12.3483ZM21.5861 21.7755C21.3288 22.0039 20.9565 22.0203 20.6664 21.8679C19.3744 20.8018 19.1444 20.3068 18.4328 19.2895C16.2977 21.4545 14.7866 22.1018 12.0165 22.1018C8.74263 22.1018 6.19141 20.0945 6.19141 16.0745C6.19141 12.9359 7.90507 10.798 10.3411 9.75361C12.4544 8.82873 15.4053 8.66557 17.6609 8.40998V7.90948C17.6609 6.99011 17.7319 5.90218 17.19 5.10802C16.7137 4.39539 15.8049 4.10162 15.0055 4.10162C13.522 4.10162 12.1971 4.85771 11.8741 6.42436C11.8083 6.77259 11.5511 7.11532 11.2007 7.1316L7.42317 6.72913C7.10571 6.65827 6.75536 6.40269 6.84295 5.91846C7.7134 1.37092 11.8466 0 15.5474 0C17.4417 0 19.9162 0.500506 21.4108 1.92577C23.3051 3.68276 23.1244 6.02728 23.1244 8.57854V14.6058C23.1244 16.4173 23.8799 17.2114 24.5916 18.1907C24.8434 18.5388 24.8982 18.9578 24.5806 19.2187C23.7868 19.8769 22.3743 21.1009 21.597 21.7864L21.586 21.7755" fill="black"/>
<path d="M25.8263 24.066C13.6823 29.8086 6.14567 25.0039 1.32121 22.0856C1.02267 21.9017 0.515264 22.1286 0.955509 22.6311C2.56278 24.5675 7.83014 29.2349 14.7056 29.2349C21.5857 29.2349 25.6788 25.5046 26.1908 24.8539C26.6994 24.2087 26.3402 23.8528 25.8262 24.066H25.8263ZM29.2369 22.1944C28.9108 21.7725 27.2539 21.6938 26.2111 21.8211C25.1668 21.9447 23.5992 22.5789 23.7355 22.9597C23.8054 23.1023 23.9482 23.0384 24.6656 22.9743C25.385 22.9029 27.4003 22.6502 27.8203 23.1957C28.2422 23.7449 27.1775 26.3613 26.983 26.7833C26.7952 27.2052 27.0548 27.314 27.4077 27.033C27.7557 26.7521 28.3858 26.0245 28.8086 24.995C29.2286 23.9598 29.4846 22.5157 29.2368 22.1944H29.2369Z" fill="#FF9900"/>
<path fill-rule="evenodd" clip-rule="evenodd" d="M17.6609 12.3483C17.6609 13.8551 17.6992 15.1117 16.9327 16.4498C16.314 17.5379 15.3341 18.2069 14.2392 18.2069C12.7445 18.2069 11.8741 17.0754 11.8741 15.4055C11.8741 12.1089 14.8467 11.5106 17.6609 11.5106V12.3483ZM21.5861 21.7755C21.3288 22.0039 20.9565 22.0203 20.6664 21.8679C19.3744 20.8018 19.1444 20.3068 18.4328 19.2895C16.2977 21.4545 14.7866 22.1018 12.0165 22.1018C8.74263 22.1018 6.19141 20.0945 6.19141 16.0745C6.19141 12.9359 7.90507 10.798 10.3411 9.75361C12.4544 8.82873 15.4053 8.66557 17.6609 8.40998V7.90948C17.6609 6.99011 17.7319 5.90218 17.19 5.10802C16.7137 4.39539 15.8049 4.10162 15.0055 4.10162C13.522 4.10162 12.1971 4.85771 11.8741 6.42436C11.8083 6.77259 11.5511 7.11532 11.2007 7.1316L7.42317 6.72913C7.10571 6.65827 6.75536 6.40269 6.84295 5.91846C7.7134 1.37092 11.8466 0 15.5474 0C17.4417 0 19.9162 0.500506 21.4108 1.92577C23.3051 3.68276 23.1244 6.02728 23.1244 8.57854V14.6058C23.1244 16.4173 23.8799 17.2114 24.5916 18.1907C24.8434 18.5388 24.8982 18.9578 24.5806 19.2187C23.7868 19.8769 22.3743 21.1009 21.597 21.7864L21.586 21.7755" fill="white"/>
</g>
<defs>
<clipPath id="clip0_2939:2282">
<rect width="30" height="29.8089" fill="white"/>
</clipPath>
</defs>
</svg>
