<svg width="100" height="24" viewBox="0 0 100 24" fill="none" xmlns="http://www.w3.org/2000/svg">
<g clip-path="url(#clip0_2810_129)">
<path d="M9.41364 23.4626H7.62109V0L9.41364 1.49457V23.4626Z" fill="url(#paint0_linear_2810_129)"/>
<path d="M3.73642 23.4626H5.52897V4.54706L3.73642 6.04163V23.4626Z" fill="url(#paint1_linear_2810_129)"/>
<path d="M0 23.4626H1.79372V9.03076L0 10.5253V23.4626Z" fill="url(#paint2_linear_2810_129)"/>
<path d="M17.0367 23.4626H15.2441V9.03076L17.0367 10.5253V23.4626Z" fill="url(#paint3_linear_2810_129)"/>
<path d="M13.3015 23.4626H11.5078V4.54706L13.3015 6.04163V23.4626Z" fill="url(#paint4_linear_2810_129)"/>
<path d="M23.5404 14.9938L23.1111 18.0662H21.166L23.1603 6.59183H25.8585L27.9209 18.0662H25.9266L25.4397 14.9973L23.5404 14.9938ZM25.2227 13.3655C24.94 11.4169 24.669 9.56806 24.5282 8.2694H24.4578C24.405 9.21495 24.0331 11.6715 23.7868 13.3655H25.2227Z" fill="#262933"/>
<path d="M34.2606 14.6852V15.3891C34.2606 16.2431 34.5363 16.7183 35.2625 16.7183C36.0063 16.7183 36.201 16.0648 36.201 15.3199C36.201 14.0858 35.9136 13.7033 34.5868 12.739C33.26 11.7747 32.542 11.1447 32.542 9.44134C32.542 7.92917 33.0359 6.40293 35.2684 6.40528C37.5524 6.40528 37.9055 7.91744 37.9055 9.16213V9.77568H36.0145V9.21023C36.0145 8.41133 35.869 7.92683 35.2343 7.92683C34.5997 7.92683 34.4519 8.42658 34.4519 9.18794C34.4519 9.99858 34.6173 10.3951 35.7048 11.133C37.556 12.4035 38.1261 13.139 38.1261 15.0595C38.1261 16.6878 37.5114 18.2269 35.2027 18.2269C32.9139 18.2269 32.3555 16.8743 32.3555 15.3633V14.6817L34.2606 14.6852Z" fill="#262933"/>
<path d="M48.7565 18.0662H47.269C47.2139 17.782 47.1786 17.4942 47.1634 17.2051C46.8208 17.9677 46.1076 18.234 45.304 18.234C43.4833 18.234 42.8967 17.0116 42.8967 15.0665V9.6748C42.8967 7.79779 43.6839 6.42053 45.8295 6.42053C48.428 6.42053 48.7025 8.19196 48.7025 9.42375V9.7968H46.7985V9.33693C46.7985 8.73277 46.7035 8.03241 45.8319 8.03241C45.1362 8.03241 44.8394 8.4782 44.8394 9.39559V15.2612C44.8394 16.1798 45.1268 16.6596 45.8166 16.6596C46.6437 16.6596 46.8455 16.0179 46.8455 14.8377V13.1672H45.7627V11.6421H48.7565V18.0662Z" fill="#262933"/>
<path d="M55.8469 14.9938L55.414 18.0662H53.4725L55.4668 6.59183H58.165L60.2309 18.0662H58.2366L57.7509 14.9973L55.8469 14.9938ZM57.5256 13.3655C57.2417 11.4169 56.9719 9.56806 56.83 8.2694H56.7608C56.7068 9.21495 56.3349 11.6715 56.0885 13.3655H57.5256Z" fill="#262933"/>
<path d="M66.7511 12.9314V18.0662H64.8436V6.58829H67.4867C69.3696 6.58829 70.4817 7.29217 70.4817 9.35336V9.78976C70.4817 11.5495 69.7016 12.0023 69.2217 12.1841C69.9432 12.4985 70.3562 12.9807 70.3562 14.5374C70.3562 15.5029 70.3374 17.367 70.4735 18.0627H68.6281C68.4639 17.3694 68.4991 15.4818 68.4991 14.6512C68.4991 13.2528 68.3055 12.9314 67.1969 12.9314H66.7511ZM66.7511 11.4709H67.1887C68.1988 11.4709 68.5695 11.1189 68.5695 9.86953V9.47653C68.5695 8.58965 68.3712 8.04884 67.2896 8.04884H66.7511V11.4709Z" fill="#262933"/>
<path d="M75.6055 6.58832H78.2485C80.8728 6.58832 81.5122 7.84943 81.5122 9.97866V14.3791C81.5122 16.1388 81.1872 18.0627 78.2438 18.0627H75.6055V6.58832ZM77.5142 16.5599H78.1312C79.3853 16.5599 79.5777 15.8115 79.5777 14.6231V9.83906C79.5777 8.78325 79.3771 8.10987 78.1195 8.10987H77.5189L77.5142 16.5599Z" fill="#262933"/>
<path d="M88.5549 6.58829V18.0662H86.6463V6.58829H88.5549Z" fill="#262933"/>
<path d="M95.6166 14.9938L95.1837 18.0662H93.2422L95.2365 6.59183H97.9347L100.001 18.0662H98.0063L97.5206 14.9973L95.6166 14.9938ZM97.2954 13.3655C97.0115 11.4169 96.7416 9.56806 96.5997 8.2694H96.5305C96.4765 9.21495 96.1046 11.6715 95.8583 13.3655H97.2954Z" fill="#262933"/>
</g>
<defs>
<linearGradient id="paint0_linear_2810_129" x1="8.51737" y1="21.4225" x2="8.51737" y2="5.91493" gradientUnits="userSpaceOnUse">
<stop stop-color="#FF8A11"/>
<stop offset="1" stop-color="#FFDA6A"/>
</linearGradient>
<linearGradient id="paint1_linear_2810_129" x1="74.524" y1="3449.45" x2="74.524" y2="878.446" gradientUnits="userSpaceOnUse">
<stop stop-color="#FF8A11"/>
<stop offset="1" stop-color="#FFDA6A"/>
</linearGradient>
<linearGradient id="paint2_linear_2810_129" x1="13.704" y1="2625.09" x2="13.704" y2="570.574" gradientUnits="userSpaceOnUse">
<stop stop-color="#FF8A11"/>
<stop offset="1" stop-color="#FFDA6A"/>
</linearGradient>
<linearGradient id="paint3_linear_2810_129" x1="261.862" y1="2625.09" x2="261.862" y2="570.574" gradientUnits="userSpaceOnUse">
<stop stop-color="#FF8A11"/>
<stop offset="1" stop-color="#FFDA6A"/>
</linearGradient>
<linearGradient id="paint4_linear_2810_129" x1="201.157" y1="3449.45" x2="201.157" y2="878.446" gradientUnits="userSpaceOnUse">
<stop stop-color="#FF8A11"/>
<stop offset="1" stop-color="#FFDA6A"/>
</linearGradient>
<clipPath id="clip0_2810_129">
<rect width="100" height="23.4626" fill="white"/>
</clipPath>
</defs>
</svg>
