<svg width="100" height="31" viewBox="0 0 100 31" fill="none" xmlns="http://www.w3.org/2000/svg">
<g clip-path="url(#clip0_2809_108)">
<path d="M29.8507 10.0045V14.3078C29.8507 23.1242 23.1687 30.2727 14.9254 30.2727C6.68209 30.2727 0 23.1242 0 14.3078V10.0045L15.5791 25.9502L29.8507 10.0045Z" fill="url(#paint0_linear_2809_108)"/>
<path d="M0.653731 9.98533C0.465672 9.98533 0.279104 9.98533 0.0940299 10.0001C0.0317447 10.5425 0.000351751 11.088 0 11.634C0 19.759 6.68209 26.3506 14.9254 26.3506C15.1134 26.3506 15.2985 26.3506 15.4851 26.3373C15.5466 25.7948 15.578 25.2493 15.5791 24.7034C15.5791 16.5754 8.89702 9.98533 0.653731 9.98533Z" fill="url(#paint1_linear_2809_108)"/>
<path d="M29.7582 10.0045C21.8612 10.3886 15.5791 16.8222 15.5791 24.7034C15.5791 24.8408 15.5791 24.9782 15.5791 25.1156C15.5791 24.9782 15.5791 24.8408 15.5791 24.7034C15.5791 24.9797 15.5702 25.2544 15.5537 25.5262C15.5702 25.2544 15.5791 24.9797 15.5791 24.7034C15.5791 16.5784 8.89702 9.98533 0.653731 9.98533C0.465672 9.98533 0.279104 9.98533 0.0940299 10.0001C0.0317447 10.5425 0.000351751 11.088 0 11.634C0 19.759 6.68209 26.3506 14.9254 26.3506C15.1134 26.3506 15.2985 26.3506 15.4851 26.3373C15.5478 26.3373 15.6104 26.3373 15.6716 26.3373C23.5687 25.9532 29.8507 19.5197 29.8507 11.6384C29.8503 11.0925 29.8194 10.5471 29.7582 10.0045V10.0045Z" fill="url(#paint2_linear_2809_108)"/>
<path d="M14.9259 11.3636C17.8934 11.3636 20.299 8.9826 20.299 6.04545C20.299 3.1083 17.8934 0.727264 14.9259 0.727264C11.9584 0.727264 9.55273 3.1083 9.55273 6.04545C9.55273 8.9826 11.9584 11.3636 14.9259 11.3636Z" fill="#6F4A9E"/>
<path d="M36.6886 21.3293C35.3503 19.9052 34.6807 18.0832 34.6797 15.8634C34.6787 13.6435 35.3444 11.8482 36.6767 10.4773C38.0061 9.10832 39.6812 8.42336 41.7021 8.42238C42.8586 8.39674 43.9983 8.70027 44.9857 9.29692C45.8942 9.84931 46.6312 10.6391 47.1155 11.5793V8.66022H49.5827V23.2261H47.1155V20.2539C46.6353 21.2074 45.8982 22.011 44.9857 22.5761C44.0012 23.1807 42.8603 23.4886 41.7021 23.4625C39.7011 23.4635 38.0299 22.7524 36.6886 21.3293ZM45.6558 19.9096C46.6289 18.9189 47.1155 17.6012 47.1155 15.9565C47.1155 14.3118 46.6289 12.994 45.6558 12.0033C45.207 11.5275 44.6628 11.1496 44.0581 10.8937C43.4534 10.6379 42.8015 10.5096 42.1439 10.5171C41.4906 10.5084 40.8423 10.6313 40.2386 10.8784C39.6348 11.1255 39.0882 11.4916 38.6319 11.9545C37.6588 12.9098 37.1722 14.2098 37.1722 15.8545C37.1722 17.4992 37.6633 18.8347 38.6454 19.8609C39.6284 20.8861 40.7991 21.3992 42.1573 21.4002C42.8131 21.4063 43.463 21.2768 44.0654 21.0202C44.6678 20.7635 45.2095 20.3853 45.6558 19.9096V19.9096Z" fill="black"/>
<path d="M50.8418 8.66022H53.4418L57.9448 20.9659L62.4746 8.66022H65.1015L59.3388 23.2261H56.5776L50.8418 8.66022Z" fill="black"/>
<path d="M72.5263 23.464C70.4189 23.464 68.7035 22.7746 67.3801 21.3958C66.0567 20.017 65.3955 18.195 65.3965 15.9299C65.3965 13.6647 66.0666 11.8472 67.4069 10.4773C68.7472 9.10734 70.485 8.42238 72.6204 8.42238C74.7557 8.42238 76.4711 9.07238 77.7666 10.3724C79.0622 11.6724 79.7089 13.3304 79.7069 15.3464C79.7092 15.826 79.6738 16.3051 79.601 16.7793H67.8905C67.9602 18.23 68.4199 19.3749 69.2696 20.214C70.1194 21.0531 71.2049 21.4731 72.5263 21.4741C73.5273 21.4741 74.3731 21.253 75.0637 20.8108C75.7299 20.3884 76.2537 19.7789 76.5681 19.0602H79.195C78.7354 20.3278 77.8993 21.4283 76.7965 22.2171C75.6651 23.0493 74.2418 23.465 72.5263 23.464ZM75.8219 11.6724C74.9472 10.8323 73.8617 10.4123 72.5651 10.4123C71.2686 10.4123 70.192 10.8234 69.3353 11.6458C68.4796 12.4672 68.0049 13.5943 67.9114 15.0273H77.1651C77.1462 13.6317 76.6985 12.5134 75.8219 11.6724Z" fill="black"/>
<path d="M84.1063 8.66022V11.0239C85.1063 9.28953 86.7053 8.42287 88.9033 8.42385C90.5302 8.42287 91.8909 8.95961 92.9854 10.0341C94.08 11.1085 94.6272 12.6351 94.6272 14.6136V23.2261H92.2003V15.0007C92.2003 13.5332 91.8431 12.4194 91.1287 11.6591C90.4143 10.8988 89.4267 10.5181 88.166 10.5171C86.9063 10.5171 85.9148 10.8978 85.1914 11.6591C84.468 12.4204 84.1063 13.5342 84.1063 15.0007V23.2261H81.666V8.66022H84.1063Z" fill="black"/>
<path d="M99.5522 22.7741C99.3326 22.9899 99.0534 23.1366 98.7497 23.1956C98.446 23.2546 98.1314 23.2233 97.8457 23.1056C97.5599 22.9878 97.3158 22.789 97.1441 22.5342C96.9724 22.2793 96.8807 21.9798 96.8807 21.6735C96.8807 21.3672 96.9724 21.0677 97.1441 20.8129C97.3158 20.558 97.5599 20.3592 97.8457 20.2415C98.1314 20.1238 98.446 20.0924 98.7497 20.1514C99.0534 20.2104 99.3326 20.3571 99.5522 20.5729C99.8441 20.8664 100.008 21.2617 100.008 21.6735C100.008 22.0853 99.8441 22.4806 99.5522 22.7741V22.7741Z" fill="black"/>
</g>
<defs>
<linearGradient id="paint0_linear_2809_108" x1="14.9254" y1="31.6643" x2="14.9254" y2="21.9512" gradientUnits="userSpaceOnUse">
<stop stop-color="#FF8A11"/>
<stop offset="1" stop-color="#E81894"/>
</linearGradient>
<linearGradient id="paint1_linear_2809_108" x1="17.1209" y1="28.986" x2="5.04802" y2="14.7008" gradientUnits="userSpaceOnUse">
<stop stop-color="#B03B83"/>
<stop offset="1" stop-color="#6F4A9E"/>
</linearGradient>
<linearGradient id="paint2_linear_2809_108" x1="2985.07" y1="2523.03" x2="2985.07" y2="1341.3" gradientUnits="userSpaceOnUse">
<stop stop-color="#FF8A11"/>
<stop offset="1" stop-color="#E81894"/>
</linearGradient>
<clipPath id="clip0_2809_108">
<rect width="100" height="29.5455" fill="white" transform="translate(0 0.727264)"/>
</clipPath>
</defs>
</svg>
