<svg width="32" height="26" viewBox="0 0 32 26" fill="none" xmlns="http://www.w3.org/2000/svg">
<g clip-path="url(#clip0_1227_1560)">
<path fill-rule="evenodd" clip-rule="evenodd" d="M6.6465 0.00305176C4.82063 0.00305176 3.46956 1.60118 3.53006 3.3343C3.58812 4.99936 3.51269 7.15586 2.96981 8.91449C2.425 10.678 1.50425 11.7956 0 11.939V13.5585C1.50425 13.7023 2.425 14.8193 2.96975 16.5831C3.51269 18.3417 3.58806 20.4982 3.53 22.1633C3.4695 23.8962 4.82056 25.4945 6.64675 25.4945H25.3559C27.1818 25.4945 28.5326 23.8964 28.4721 22.1633C28.4141 20.4982 28.4895 18.3417 29.0324 16.5831C29.5772 14.8193 30.4957 13.7019 32 13.5585V11.939C30.4957 11.7953 29.5773 10.6783 29.0324 8.91449C28.4894 7.15611 28.4141 4.99936 28.4721 3.3343C28.5326 1.60143 27.1818 0.00305176 25.3559 0.00305176H6.64625H6.6465ZM21.6949 15.6947C21.6949 18.0812 19.9149 19.5285 16.9608 19.5285H11.9322C11.7883 19.5285 11.6504 19.4713 11.5487 19.3696C11.447 19.2679 11.3898 19.13 11.3898 18.9861V6.51155C11.3898 6.3677 11.447 6.22975 11.5487 6.12803C11.6504 6.02632 11.7883 5.96918 11.9322 5.96918H16.9322C19.3954 5.96918 21.0119 7.30343 21.0119 9.35193C21.0119 10.7897 19.9244 12.0769 18.539 12.3024V12.3774C20.425 12.5843 21.6949 13.8905 21.6949 15.6947V15.6947ZM16.4125 7.68849H13.5452V11.7385H15.9602C17.8271 11.7385 18.8564 10.9867 18.8564 9.64305C18.8563 8.3838 17.9713 7.68849 16.4125 7.68849ZM13.5452 13.3454V17.8086H16.518C18.4617 17.8086 19.4913 17.0287 19.4913 15.5629C19.4913 14.0972 18.4329 13.3452 16.393 13.3452H13.5452V13.3454Z" fill="#7727ED"/>
</g>
<defs>
<clipPath id="clip0_1227_1560">
<rect width="32" height="25.4976" fill="white"/>
</clipPath>
</defs>
</svg>
