<svg width="30" height="31" viewBox="0 0 30 31" fill="none" xmlns="http://www.w3.org/2000/svg">
<path fill-rule="evenodd" clip-rule="evenodd" d="M14.9996 15.2314C14.9996 15.2316 14.9996 15.2314 14.9996 15.2314V15.2318H15V15.2314V15.2312V15.2314H14.9996ZM9.08416 4.98593C9.1667 3.39078 9.47468 1.946 9.79034 0.918825C10.6923 1.50301 11.8573 2.41181 12.9461 3.5806C13.5687 2.1098 14.3518 0.857399 14.9996 0C15.6477 0.857186 16.4309 2.10937 17.0541 3.57996C18.1427 2.41138 19.3073 1.50279 20.2092 0.918611C20.5249 1.94557 20.8329 3.39057 20.9154 4.98529C22.338 4.25948 23.7431 3.8037 24.7903 3.56333C24.7357 4.63635 24.5312 6.09948 24.0635 7.62637C25.6482 7.43079 27.1245 7.48326 28.1909 7.61571C27.7723 8.60534 27.0799 9.91021 26.118 11.185C27.6744 11.5433 29.0432 12.0972 30 12.5865C29.2684 13.3733 28.1713 14.3623 26.8317 15.2314C28.1713 16.1003 29.2687 17.0893 30 17.8761C29.0436 18.3654 27.6744 18.9195 26.118 19.2776C27.0799 20.5526 27.7727 21.8573 28.1909 22.8469C27.1245 22.9792 25.6482 23.0316 24.0635 22.836C24.5312 24.3629 24.7357 25.8261 24.7908 26.8991C23.7435 26.6589 22.3384 26.2031 20.9154 25.4773C20.8329 27.0723 20.5251 28.5171 20.2097 29.544C19.3075 28.9603 18.1427 28.0512 17.0541 26.8827C16.4313 28.353 15.6477 29.6054 15 30.4626C14.352 29.6052 13.5687 28.353 12.9457 26.8827C11.8571 28.0512 10.6925 28.96 9.79056 29.5442C9.47511 28.5171 9.16692 27.0723 9.08438 25.4773C7.66199 26.2034 6.25688 26.6589 5.20944 26.8993C5.26426 25.8263 5.46901 24.3631 5.93695 22.8363C4.35205 23.0318 2.8757 22.9796 1.80928 22.8471C2.22774 21.8573 2.92049 20.5524 3.8824 19.2778C2.32607 18.9193 0.957002 18.3656 0 17.8763C0.731775 17.0895 1.8289 16.1005 3.16875 15.2316C1.8289 14.3627 0.731775 13.3735 0 12.5867C0.956789 12.0974 2.32628 11.5435 3.88261 11.1856C2.9207 9.91064 2.22774 8.60577 1.80928 7.61592C2.8757 7.48347 4.35162 7.43079 5.93674 7.62637C5.46901 6.09948 5.26426 4.63657 5.20944 3.56354C6.25645 3.80391 7.66156 4.2597 9.08416 4.98593ZM15 15.2314H14.9996H15Z" fill="#33A457"/>
<path fill-rule="evenodd" clip-rule="evenodd" d="M15 15.2311H14.9995V15.232H15.0004L15 15.2317H15.0004V15.2313V15.2311H15ZM6.29224 16.7667C5.16013 16.3869 4.10502 15.8385 3.1687 15.2315C4.10502 14.6241 5.16013 14.076 6.29224 13.6963C5.35827 12.9524 4.5544 12.0758 3.88213 11.1851C4.96988 10.9347 6.14891 10.7805 7.34287 10.8108C6.71966 9.79195 6.26366 8.69376 5.93669 7.6267C7.04427 7.76341 8.20518 8.0217 9.31681 8.4585C9.07964 7.28822 9.02674 6.09981 9.08433 4.9854C10.0784 5.49259 11.0811 6.13223 11.9762 6.92287C12.1537 5.74192 12.5101 4.60746 12.9454 3.58008C13.706 4.39674 14.4292 5.34073 15 6.38966C15.5707 5.34073 16.2937 4.39653 17.0545 3.58008C17.4898 4.60746 17.8464 5.74192 18.0239 6.92287C18.9186 6.13223 19.9213 5.49259 20.9158 4.9854C20.9734 6.09981 20.9207 7.28801 20.6833 8.4585C21.7947 8.0217 22.9556 7.76341 24.0634 7.6267C23.7365 8.69376 23.2803 9.79216 22.657 10.8108C23.851 10.7803 25.0303 10.9347 26.1176 11.1851C25.4457 12.076 24.6416 12.9524 23.7077 13.6963C24.84 14.0762 25.8951 14.6245 26.8312 15.2315C25.8951 15.8387 24.84 16.3871 23.7077 16.7667C24.6416 17.5107 25.4455 18.3873 26.1176 19.2779C25.0303 19.5283 23.851 19.6825 22.657 19.6522C23.2803 20.6709 23.7365 21.7693 24.0634 22.8363C22.9559 22.6996 21.7947 22.4414 20.6833 22.0048C20.9207 23.175 20.9732 24.3632 20.9154 25.4776C19.9215 24.9705 18.9188 24.3308 18.0239 23.5402C17.8464 24.7211 17.4898 25.8554 17.0541 26.883C16.294 26.0665 15.5707 25.1223 15 24.0734C14.4292 25.1223 13.706 26.0665 12.9454 26.883C12.5101 25.8556 12.1535 24.7211 11.976 23.5402C11.0809 24.3308 10.0784 24.9705 9.08412 25.4776C9.02632 24.363 9.07921 23.1748 9.3166 22.0045C8.20518 22.4416 7.04427 22.6998 5.93648 22.8363C6.26344 21.7693 6.71923 20.6711 7.34244 19.6522C6.1487 19.6827 4.96967 19.5283 3.88192 19.2777C4.55419 18.3873 5.35827 17.5107 6.29224 16.7667Z" fill="#B1CD49"/>
<path fill-rule="evenodd" clip-rule="evenodd" d="M14.9997 15.232H15.0001V15.2322C15.0006 15.2322 15.0001 15.232 15.0001 15.232L15.0006 15.2322V15.232V15.2318L14.9997 15.232ZM15.0006 15.2318V15.2314L15.0001 15.2316C15.0006 15.2316 15.0006 15.2314 15.0006 15.2312L15.0001 15.2314V15.2312V15.2316L14.9997 15.2314V15.2316V15.2314V15.2318H15.0006ZM13.9491 9.27095C14.1425 8.24378 14.5166 7.27931 15.0001 6.39014C15.4834 7.27931 15.8575 8.24378 16.0512 9.27095C16.5844 8.37218 17.2654 7.59369 18.0237 6.92356C18.174 7.92428 18.1958 8.95871 18.0266 9.98993C18.8352 9.32769 19.7412 8.82903 20.6835 8.45856C20.4824 9.45054 20.1486 10.4297 19.6367 11.3413C20.6232 10.9953 21.6454 10.8371 22.6572 10.8113C22.1289 11.6744 21.4803 12.4804 20.6878 13.1619C21.7329 13.1743 22.7477 13.3752 23.707 13.6968C22.9155 14.3273 22.0308 14.863 21.0531 15.232C22.0308 15.601 22.9159 16.1365 23.7074 16.767C22.7481 17.0889 21.7333 17.2896 20.6882 17.3021C21.481 17.9831 22.1291 18.7896 22.6572 19.6527C21.6454 19.6269 20.6232 19.4687 19.6371 19.1227C20.1486 20.0339 20.482 21.0131 20.6831 22.005C19.7412 21.6348 18.8352 21.1365 18.0266 20.4741C18.1958 21.5053 18.1744 22.5395 18.0241 23.5402C17.2654 22.8701 16.5848 22.0918 16.0516 21.1928C15.858 22.22 15.4839 23.1845 15.0001 24.0737C14.5166 23.1847 14.1427 22.2202 13.9493 21.1928C13.4161 22.0918 12.7349 22.8701 11.9764 23.5405C11.8263 22.5395 11.8045 21.5055 11.9739 20.4741C11.1651 21.1363 10.2589 21.635 9.31699 22.0055C9.51812 21.0135 9.85148 20.0343 10.3634 19.1227C9.37693 19.4687 8.35466 19.6269 7.34284 19.6527C7.87114 18.7896 8.51953 17.9836 9.31209 17.3021C8.267 17.2898 7.25219 17.0891 6.29263 16.7672C7.08413 16.1368 7.96904 15.601 8.94673 15.2322C7.96883 14.863 7.08391 14.3275 6.29199 13.697C7.25177 13.3752 8.26657 13.1743 9.31187 13.1619C8.5191 12.4807 7.87093 11.6744 7.34284 10.8113C8.35444 10.8371 9.37671 10.9956 10.3629 11.3415C9.85105 10.4301 9.51769 9.45118 9.31657 8.4592C10.2584 8.82946 11.1647 9.3279 11.9732 9.99014C11.8039 8.95871 11.8254 7.9245 11.9758 6.92377C12.7344 7.59369 13.4157 8.37218 13.9491 9.27095Z" fill="#F8D930"/>
<path fill-rule="evenodd" clip-rule="evenodd" d="M13.9364 12.3092C13.7534 11.3043 13.7577 10.2743 13.949 9.271C14.4719 10.1484 14.8281 11.1149 14.9996 12.1217C15.1716 11.1149 15.528 10.1485 16.0507 9.271C16.2324 10.2325 16.2557 11.249 16.0633 12.309C16.5693 11.4218 17.2347 10.6357 18.0261 9.98997C17.8624 10.9981 17.5142 11.9674 16.9989 12.8493C17.7776 12.1883 18.6717 11.677 19.6362 11.3409C19.1378 12.2324 18.479 13.0242 17.693 13.6764C18.6508 13.3216 19.6659 13.147 20.6873 13.1613C19.9138 13.8285 19.0238 14.3471 18.062 14.6912C19.0834 14.6856 20.0972 14.8687 21.0522 15.2312C20.0972 15.5937 19.0834 15.7767 18.062 15.771C19.0237 16.1152 19.9138 16.6339 20.6873 17.3011C19.6659 17.3152 18.6508 17.1405 17.693 16.7858C18.479 17.438 19.1378 18.2298 19.6362 19.1213C18.6717 18.7853 17.7777 18.274 16.9989 17.6132C17.5142 18.495 17.8625 19.4643 18.0261 20.4724C17.2346 19.8268 16.5692 19.0405 16.0633 18.1532C16.2557 19.2132 16.2324 20.2295 16.0511 21.1914C15.5281 20.3139 15.1717 19.3474 14.9996 18.3404C14.8278 19.3473 14.4716 20.3138 13.949 21.1914C13.7577 20.188 13.7534 19.1579 13.9362 18.153C13.4304 19.0403 12.7651 19.8267 11.9738 20.4724C12.1374 19.4643 12.4856 18.4949 13.001 17.6132C12.2222 18.2741 11.328 18.7854 10.3635 19.1215C10.862 18.2299 11.5208 17.4381 12.3069 16.7858C11.3491 17.1404 10.334 17.3151 9.31265 17.3011C10.086 16.6338 10.9759 16.115 11.9377 15.771C10.9163 15.7765 9.90257 15.5935 8.94751 15.2312C9.90251 14.8686 10.9162 14.6855 11.9377 14.691C10.976 14.347 10.0861 13.8284 9.31265 13.1613C10.2912 13.1496 11.2962 13.3029 12.3069 13.6762C11.5209 13.024 10.862 12.2323 10.3635 11.3409C11.3279 11.677 12.2221 12.1882 13.001 12.8488C12.4855 11.9672 12.1372 10.9979 11.9738 9.98976C12.7652 10.6355 13.4306 11.4218 13.9364 12.3092Z" fill="white"/>
</svg>
