<svg width="26" height="26" viewBox="0 0 26 26" fill="none" xmlns="http://www.w3.org/2000/svg">
<path d="M13 25.4995C15.4723 25.4995 17.889 24.7664 19.9446 23.3929C22.0002 22.0194 23.6024 20.0671 24.5485 17.7831C25.4946 15.499 25.7421 12.9857 25.2598 10.5609C24.7775 8.13613 23.587 5.90884 21.8388 4.16068C20.0907 2.41253 17.8634 1.22202 15.4386 0.739701C13.0139 0.257386 10.5005 0.504928 8.21646 1.45102C5.93238 2.39712 3.98015 3.99927 2.60663 6.05489C1.23311 8.1105 0.5 10.5273 0.5 12.9995C0.507205 16.3125 1.82648 19.4877 4.16912 21.8304C6.51177 24.173 9.68701 25.4923 13 25.4995ZM13 23.2268C10.9283 23.2285 8.90601 22.5938 7.20682 21.4086C9.06289 18.761 11.692 16.7519 14.7341 15.6563C15.457 17.941 15.9145 20.3012 16.0977 22.6904C15.099 23.0278 14.054 23.2087 13 23.2268ZM18.2727 21.7177C18.0508 19.4531 17.5977 17.2172 16.9205 15.045C18.9317 14.6439 21.0024 14.6439 23.0136 15.045C22.7232 16.4234 22.1518 17.7272 21.3349 18.875C20.518 20.0227 19.4733 20.9896 18.2659 21.7154L18.2727 21.7177ZM23.2023 12.7722C20.8701 12.3413 18.4758 12.3753 16.1568 12.8722C15.8682 12.1313 15.5591 11.3972 15.2136 10.6768C17.2354 9.46295 18.9997 7.86465 20.4068 5.97224C22.1493 7.81404 23.1456 10.2374 23.2023 12.7722ZM13 2.77224C15.0136 2.76948 16.9828 3.36342 18.6591 4.47906C17.4498 6.15127 15.924 7.56977 14.1682 8.65406C13.0744 6.70131 11.7852 4.86463 10.3205 3.17224C11.1919 2.92052 12.093 2.786 13 2.77224ZM8.10909 4.07224C9.65599 5.78848 11.0075 7.67124 12.1386 9.68588C9.27884 10.9114 6.11936 11.2595 3.06136 10.6859C3.39114 9.29084 4.01107 7.98092 4.88078 6.84141C5.75049 5.70189 6.85047 4.75836 8.10909 4.07224ZM5.95455 13.27C8.44846 13.2623 10.9133 12.7336 13.1909 11.7177C13.4773 12.3154 13.7318 12.9041 13.9773 13.5359C10.5734 14.7517 7.61776 16.9704 5.5 19.8995C3.75254 18.0262 2.77827 15.5613 2.77273 12.9995C3.82593 13.162 4.88902 13.2524 5.95455 13.27Z" fill="white"/>
</svg>
