<svg width="100" height="28" viewBox="0 0 100 28" fill="none" xmlns="http://www.w3.org/2000/svg">
<g clip-path="url(#clip0_2810_214)">
<path d="M11.9047 1.68C13.9767 1.68 16.0022 2.40256 17.725 3.75629C19.4478 5.11003 20.7905 7.03415 21.5835 9.28534C22.3764 11.5365 22.5838 14.0137 22.1796 16.4035C21.7754 18.7934 20.7776 20.9886 19.3125 22.7116C17.8474 24.4345 15.9807 25.6079 13.9485 26.0833C11.9163 26.5586 9.80993 26.3147 7.89566 25.3822C5.98138 24.4497 4.34523 22.8706 3.19409 20.8446C2.04295 18.8186 1.42853 16.4367 1.42853 14C1.43168 10.7337 2.53643 7.60218 4.50042 5.29254C6.4644 2.98289 9.12723 1.68371 11.9047 1.68V1.68ZM11.9047 0C9.55018 0 7.24852 0.821086 5.29079 2.35943C3.33306 3.89777 1.8072 6.08427 0.906156 8.64243C0.00511331 11.2006 -0.230641 14.0155 0.228707 16.7313C0.688055 19.447 1.82187 21.9416 3.48678 23.8995C5.1517 25.8574 7.27292 27.1908 9.58222 27.731C11.8915 28.2712 14.2852 27.9939 16.4605 26.9343C18.6358 25.8747 20.4951 24.0803 21.8032 21.778C23.1113 19.4757 23.8095 16.7689 23.8095 14C23.8095 10.287 22.5552 6.72601 20.3227 4.10051C18.0901 1.475 15.0621 0 11.9047 0V0Z" fill="url(#paint0_linear_2810_214)"/>
<path d="M0.840699 17.5994L0.585938 15.946C3.02879 15.4252 4.77403 13.3714 5.37403 10.311C6.18951 6.14324 6.90379 5.50904 8.00737 4.82164C8.72165 4.37784 9.59784 3.82484 11.0264 0.464844L12.305 1.21524C10.6717 5.05544 9.52284 5.77784 8.67879 6.30004C7.95618 6.75224 7.47998 7.05044 6.76689 10.6848C6.04189 14.3794 3.82641 16.9624 0.840699 17.5994Z" fill="url(#paint1_linear_2810_214)"/>
<path d="M4.40513 22.82H2.97656C2.97656 19.8562 5.56823 17.1486 9.9099 15.5778C11.992 14.8232 11.917 13.58 11.548 10.8402C11.4004 9.74123 11.2337 8.49383 11.3099 7.21983C11.3837 5.99623 11.8694 4.69983 12.642 3.66523C13.6039 2.37583 14.9587 1.54843 16.5599 1.26843L16.7694 2.93163C15.2385 3.19763 12.9039 4.59203 12.7385 7.34023C12.673 8.42243 12.8206 9.51863 12.9635 10.5784C13.3028 13.0984 13.6873 15.9684 10.3313 17.1822C7.46585 18.2196 4.40513 20.244 4.40513 22.82Z" fill="url(#paint2_linear_2810_214)"/>
<path d="M10.1833 27.699L9.34048 26.341C10.6845 25.1874 12.6262 22.9614 12.525 21.8512C12.5155 21.749 12.4917 21.4788 11.9714 21.2072C11.2821 20.8474 10.6452 20.8292 10.0238 21.154C8.4131 21.994 7.28571 24.9536 6.9881 26.0218L5.63095 25.4982C5.68214 25.312 6.92976 20.9314 9.44048 19.6182C10.4381 19.0974 11.4833 19.1156 12.5488 19.6728C13.6143 20.23 13.8869 21.0644 13.9429 21.6734C14.1667 24.1458 10.85 27.1264 10.1833 27.699Z" fill="url(#paint3_linear_2810_214)"/>
<path d="M13.7429 27.7088L12.9238 26.3312C14.0107 25.4366 14.7321 24.7646 15.5643 22.9712C17.3119 19.2164 16.5929 16.7062 15.8976 14.2786C15.5714 13.1418 15.2631 12.068 15.2381 10.9368C15.1083 5.11982 18.731 3.22002 18.8857 3.14862L19.4476 4.68862L19.1667 3.92002L19.4524 4.69002C19.3333 4.75162 16.5619 6.24822 16.6667 10.8976C16.6857 11.7768 16.9476 12.6896 17.2512 13.7466C17.9655 16.2582 18.8655 19.3844 16.8167 23.7832C15.8393 25.8818 14.9262 26.74 13.7429 27.7088Z" fill="url(#paint4_linear_2810_214)"/>
<path d="M22.0229 21.3822L20.8443 21.1778C21.0824 19.2696 20.4872 17.7674 19.8562 16.1756C19.3384 14.8862 18.8086 13.5506 18.8086 12.04C18.8086 9.17558 20.8907 7.77978 21.9919 7.44238L22.2919 8.79758L22.1419 8.11998L22.2943 8.79618C22.2003 8.81998 19.9991 9.55078 19.9991 12.04C19.9991 13.2412 20.4515 14.3794 20.93 15.5834C21.5765 17.22 22.3098 19.0582 22.0229 21.3822Z" fill="url(#paint5_linear_2810_214)"/>
<path d="M50.6102 0.926836C50.6576 0.926836 50.703 0.904711 50.7365 0.865328C50.77 0.825946 50.7888 0.772531 50.7888 0.716836C50.7888 0.66114 50.77 0.607726 50.7365 0.568344C50.703 0.528961 50.6576 0.506836 50.6102 0.506836C50.5629 0.506836 50.5174 0.528961 50.4839 0.568344C50.4505 0.607726 50.4316 0.66114 50.4316 0.716836C50.4316 0.772531 50.4505 0.825946 50.4839 0.865328C50.5174 0.904711 50.5629 0.926836 50.6102 0.926836V0.926836Z" fill="black"/>
<path d="M27.2619 20.6514H34.6464V18.3708H29.6405V14.9884H34.3476V12.8646H29.6405V9.62917H34.6464V7.34857H27.2619V20.6514Z" fill="black"/>
<path d="M39.6866 7.34863L35.9414 20.6486H38.3331L39.1783 17.3446H42.8569L43.6902 20.6486H46.2521L42.5224 7.34863H39.6866ZM39.6533 15.2712L40.9795 9.99883H41.0878L42.3974 15.2712H39.6533Z" fill="black"/>
<path d="M56.5214 11.5976C56.5214 9.20077 55.2119 7.34857 52.494 7.34857H47.8869V20.6486H50.2488V15.7598H52.1131L54.0774 20.6514H56.7452L54.475 15.3398C55.3036 14.9506 56.5214 13.79 56.5214 11.5976ZM52.1167 13.6836H50.2488V9.51997H52.1429C53.2369 9.51997 54.0476 10.2312 54.0476 11.6452C54.0476 12.9822 53.306 13.6836 52.1131 13.6836H52.1167Z" fill="black"/>
<path d="M57.7031 9.68803H60.8769V20.6514H63.2722V9.68803H66.446V7.34863H57.7031V9.68803Z" fill="black"/>
<path d="M75.0342 12.7092H70.4758V7.34863H68.0723V20.6514H70.4758V15.0276H75.0342V20.6514H77.4377V7.34863H75.0342V12.7092Z" fill="black"/>
<path d="M80.928 19.88L84.9054 14.539C85.6935 13.4666 86.6126 12.2388 86.6126 10.591C86.6126 8.71082 85.4602 7.07281 83.2983 7.07281C81.0602 7.07281 79.959 8.93481 79.959 10.6792V10.7184H80.6292V10.6792C80.6376 9.22741 81.5661 7.78541 83.2899 7.78541C85.0137 7.78541 85.909 9.14901 85.909 10.563C85.909 12.0736 85.1542 13.083 84.4578 14.0224L80.0161 20.006V20.6304H86.8697V19.9178H80.928V19.88Z" fill="black"/>
<path d="M90.0214 19.2626C89.8501 19.2629 89.6858 19.3432 89.5647 19.4856C89.4435 19.6281 89.3753 19.8213 89.375 20.0228C89.375 20.2244 89.4431 20.4178 89.5643 20.5603C89.6856 20.7029 89.85 20.783 90.0214 20.783C90.1929 20.783 90.3573 20.7029 90.4785 20.5603C90.5998 20.4178 90.6679 20.2244 90.6679 20.0228C90.666 19.8218 90.5973 19.6297 90.4765 19.4876C90.3556 19.3456 90.1923 19.2648 90.0214 19.2626Z" fill="black"/>
<path d="M96.3374 7.07001C94.1243 7.07001 92.666 9.37021 92.666 13.552V14.4578C92.666 18.6396 94.1243 20.93 96.3374 20.93C98.5505 20.93 100.001 18.6396 100.001 14.4578V13.552C100.001 9.37021 98.5505 7.07001 96.3374 7.07001ZM99.3136 14.4774C99.3136 18.2196 98.0958 20.2174 96.3374 20.2174C94.5791 20.2174 93.3541 18.2196 93.3541 14.4774V13.5226C93.3541 9.78041 94.572 7.79241 96.3374 7.79241C98.1029 7.79241 99.3136 9.78041 99.3136 13.5226V14.4774Z" fill="black"/>
</g>
<defs>
<linearGradient id="paint0_linear_2810_214" x1="19.1642" y1="27.1502" x2="4.50208" y2="7.94745" gradientUnits="userSpaceOnUse">
<stop stop-color="#019C85"/>
<stop offset="1" stop-color="#BEDC7C"/>
</linearGradient>
<linearGradient id="paint1_linear_2810_214" x1="1693.52" y1="3507.06" x2="-164.05" y2="1550.11" gradientUnits="userSpaceOnUse">
<stop stop-color="#019C85"/>
<stop offset="1" stop-color="#BEDC7C"/>
</linearGradient>
<linearGradient id="paint2_linear_2810_214" x1="2137.28" y1="4268.05" x2="-202.207" y2="1962.01" gradientUnits="userSpaceOnUse">
<stop stop-color="#019C85"/>
<stop offset="1" stop-color="#BEDC7C"/>
</linearGradient>
<linearGradient id="paint3_linear_2810_214" x1="987.046" y1="1896.03" x2="142.807" y2="616.495" gradientUnits="userSpaceOnUse">
<stop stop-color="#019C85"/>
<stop offset="1" stop-color="#BEDC7C"/>
</linearGradient>
<linearGradient id="paint4_linear_2810_214" x1="1202.43" y1="4427.67" x2="-667.444" y2="3662.05" gradientUnits="userSpaceOnUse">
<stop stop-color="#019C85"/>
<stop offset="1" stop-color="#BEDC7C"/>
</linearGradient>
<linearGradient id="paint5_linear_2810_214" x1="772.35" y1="2211.19" x2="-242.766" y2="1820.23" gradientUnits="userSpaceOnUse">
<stop stop-color="#019C85"/>
<stop offset="1" stop-color="#BEDC7C"/>
</linearGradient>
<clipPath id="clip0_2810_214">
<rect width="100" height="28" fill="white"/>
</clipPath>
</defs>
</svg>
