<svg width="100" height="101" viewBox="0 0 100 101" fill="none" xmlns="http://www.w3.org/2000/svg">
<g clip-path="url(#clip0_2303_1556)">
<path d="M73.3287 28.0581L50.3718 55.5011L58.9722 58.5495L94.1474 59.0321L100 56.1831L73.3287 28.0581Z" fill="#66BD21"/>
<path d="M27.3951 28.4329L55.0754 51.138L58.0172 46.0077L58.0955 12.862L55.1949 0.399902L27.3951 28.4329Z" fill="#E50027"/>
<path d="M0 45.8001L27.4465 73.5913L49.6281 46.4659L41.9381 43.4327L7.31875 42.969L0 45.8001Z" fill="#FEA832"/>
<path d="M45.5281 51.3154L42.5258 56.4398L41.9609 96.1777L44.8334 100.4L72.6049 73.5398L45.5281 51.3154Z" fill="#1689FC"/>
<path d="M6.89584 90.5344C5.23608 92.2248 6.16694 95.0877 8.50366 95.4783L44.8333 100.4L45.5283 51.3154C31.5486 65.5072 20.8755 76.3428 6.89584 90.5344Z" fill="#18A7FC"/>
<path d="M10.4521 7.87952C8.76406 6.22874 5.89844 7.15218 5.5082 9.49026L0 45.8002L49.6281 46.466C35.4518 32.503 24.6285 21.8424 10.4521 7.87952Z" fill="#FEDB41"/>
<path d="M91.4963 6.49463L55.195 0.399902L55.0754 51.138C68.8491 36.7599 79.3649 25.7821 93.1385 11.404C94.7547 9.70068 93.8127 6.87842 91.4963 6.49463Z" fill="#FD003A"/>
<path d="M50.3718 55.501C64.5482 69.4648 75.3714 80.1266 89.5478 94.0904C91.2205 95.7373 94.0976 94.8383 94.4918 92.4826L100 56.183L50.3718 55.501Z" fill="#78DE28"/>
<path d="M50 65.6348C41.9232 65.6348 35.3516 59.0631 35.3516 50.9863C35.3516 42.9096 41.9232 36.3379 50 36.3379C58.0768 36.3379 64.6484 42.9096 64.6484 50.9863C64.6484 59.0631 58.0768 65.6348 50 65.6348Z" fill="#E1E4FB"/>
<path d="M50 42.1973C45.1535 42.1973 41.2109 46.1398 41.2109 50.9863C41.2109 55.8328 45.1535 59.7754 50 59.7754C54.8465 59.7754 58.7891 55.8328 58.7891 50.9863C58.7891 46.1398 54.8465 42.1973 50 42.1973Z" fill="#C5C9F7"/>
</g>
<defs>
<clipPath id="clip0_2303_1556">
<rect width="100" height="100" fill="white" transform="translate(0 0.399902)"/>
</clipPath>
</defs>
</svg>
