<svg width="22" height="22" viewBox="0 0 22 22" fill="none" xmlns="http://www.w3.org/2000/svg">
<g clip-path="url(#clip0_11929_81)">
<path d="M18.0657 21.6249C13.3707 22.1258 8.63568 22.1258 3.94067 21.6249C3.02895 21.5287 2.17777 21.1228 1.52904 20.475C0.880309 19.8271 0.473233 18.9765 0.375674 18.0649C-0.125225 13.3699 -0.125225 8.63495 0.375674 3.93994C0.471954 3.02821 0.877836 2.17703 1.52565 1.52831C2.17347 0.879577 3.02408 0.472501 3.93567 0.374941C8.63068 -0.125957 13.3657 -0.125957 18.0607 0.374941C18.9724 0.471221 19.8236 0.877103 20.4723 1.52492C21.121 2.17274 21.5281 3.02335 21.6257 3.93494C22.1266 8.62995 22.1266 13.3649 21.6257 18.0599C21.5294 18.9717 21.1235 19.8228 20.4757 20.4716C19.8279 21.1203 18.9773 21.5274 18.0657 21.6249Z" fill="#365094"/>
<path d="M14.4862 9.6975L14.265 11.6138C14.2558 11.7012 14.2148 11.7822 14.1498 11.8414C14.0848 11.9007 14.0004 11.9339 13.9125 11.935H11.9125L11.9025 17.6162C11.9031 17.6836 11.8773 17.7485 11.8305 17.7969C11.7837 17.8453 11.7198 17.8734 11.6525 17.875H9.62621C9.59252 17.875 9.55917 17.8682 9.52817 17.8551C9.49717 17.8419 9.46915 17.8226 9.4458 17.7983C9.42245 17.774 9.40425 17.7452 9.39229 17.7137C9.38033 17.6823 9.37486 17.6487 9.37621 17.615V11.935H7.87621C7.82909 11.9345 7.78254 11.9247 7.7392 11.9063C7.69586 11.8878 7.65659 11.8609 7.62363 11.8273C7.59066 11.7936 7.56465 11.7538 7.54708 11.7101C7.5295 11.6664 7.52071 11.6196 7.52121 11.5725L7.51371 9.65625C7.51305 9.60897 7.5217 9.56203 7.53919 9.5181C7.55667 9.47417 7.58264 9.43411 7.6156 9.40022C7.64857 9.36632 7.68789 9.33925 7.73132 9.32056C7.77474 9.30186 7.82143 9.2919 7.86871 9.29125H9.37621V7.44125C9.37621 5.29375 10.6512 4.125 12.5212 4.125H14.0537C14.1011 4.12549 14.1479 4.13533 14.1915 4.15395C14.2351 4.17258 14.2745 4.19962 14.3076 4.23353C14.3407 4.26744 14.3668 4.30755 14.3844 4.35156C14.4019 4.39557 14.4106 4.44262 14.41 4.49V6.1025C14.4106 6.14988 14.4019 6.19693 14.3844 6.24094C14.3668 6.28495 14.3407 6.32506 14.3076 6.35897C14.2745 6.39288 14.2351 6.41992 14.1915 6.43855C14.1479 6.45717 14.1011 6.46701 14.0537 6.4675H13.1137C12.0975 6.4675 11.9 6.9675 11.9 7.69V9.29125H14.1337C14.1845 9.29189 14.2346 9.30327 14.2807 9.32465C14.3268 9.34602 14.3678 9.37692 14.4011 9.41529C14.4344 9.45366 14.4592 9.49864 14.4739 9.54728C14.4885 9.59592 14.4927 9.64712 14.4862 9.6975Z" fill="white"/>
</g>
<defs>
<clipPath id="clip0_11929_81">
<rect width="22" height="22" fill="white"/>
</clipPath>
</defs>
</svg>
