<svg width="26" height="16" viewBox="0 0 26 16" fill="none" xmlns="http://www.w3.org/2000/svg">
<path d="M6.18182 4.41126H8.54318V10.7749C8.54318 13.8272 6.84318 15.2885 4.28636 15.2885C3.26187 15.3115 2.26005 14.9853 1.44545 14.3635L2.39318 12.6272C2.90389 13.0008 3.51951 13.2036 4.15227 13.2067C5.41136 13.2067 6.17955 12.3226 6.17955 11.0499V10.6613C5.91712 10.9624 5.5913 11.2016 5.22548 11.362C4.85966 11.5223 4.46289 11.5997 4.06364 11.5885C2.03636 11.5885 0.5 9.93853 0.5 7.88398C0.5 5.82944 2.03636 4.17944 4.06364 4.17944C4.46327 4.16798 4.86048 4.24519 5.22672 4.40552C5.59296 4.56585 5.91914 4.80531 6.18182 5.10671V4.41126ZM4.52273 9.50444C4.84158 9.49728 5.15123 9.3962 5.41288 9.21384C5.67454 9.03149 5.87656 8.77598 5.99366 8.47932C6.11075 8.18267 6.1377 7.85805 6.07112 7.54615C6.00455 7.23424 5.84742 6.94892 5.61941 6.72592C5.39141 6.50292 5.10267 6.35215 4.78936 6.29252C4.47606 6.23288 4.15212 6.26703 3.85813 6.39067C3.56415 6.51432 3.31318 6.72196 3.13668 6.9876C2.96018 7.25324 2.86599 7.56505 2.86591 7.88398C2.87484 8.31726 3.0534 8.72973 3.36322 9.03274C3.67303 9.33576 4.08936 9.50513 4.52273 9.50444ZM16.2523 11.3567H13.8886V10.7772C13.6453 11.0432 13.3472 11.2535 13.0149 11.3936C12.6827 11.5336 12.324 11.6001 11.9636 11.5885C10.3091 11.5885 9.39091 10.4522 9.39091 9.17262C9.39091 7.26126 11.7886 6.55217 13.8568 7.16126C13.8114 6.53853 13.4023 6.08853 12.5864 6.08853C12.0062 6.10904 11.4389 6.26469 10.9295 6.54307L10.2205 4.87944C11.0511 4.40815 11.9928 4.16801 12.9477 4.18398C14.6773 4.18398 16.2591 5.1408 16.2591 7.74308L16.2523 11.3567ZM13.8886 8.60671C12.7773 8.26126 11.7591 8.44762 11.7591 9.21353C11.7628 9.31886 11.7877 9.42236 11.8324 9.5178C11.8771 9.61325 11.9406 9.69867 12.0192 9.76894C12.0977 9.83921 12.1897 9.89287 12.2895 9.9267C12.3893 9.96053 12.4949 9.97383 12.6 9.9658C13.1477 9.96808 13.7682 9.53398 13.8886 8.60671ZM19.8182 0.708984V5.10671C20.0804 4.80592 20.4058 4.56681 20.7712 4.4065C21.1366 4.24619 21.5329 4.16866 21.9318 4.17944C23.9591 4.17944 25.4955 5.82944 25.4955 7.88398C25.4955 9.93853 23.9591 11.5885 21.9318 11.5885C21.5329 11.5993 21.1366 11.5218 20.7712 11.3615C20.4058 11.2012 20.0804 10.9621 19.8182 10.6613V11.3567H17.4568V0.708984H19.8182ZM21.4727 9.50444C21.7917 9.49773 22.1016 9.39702 22.3635 9.21493C22.6255 9.03284 22.8279 8.77747 22.9453 8.48085C23.0627 8.18422 23.09 7.85953 23.0237 7.54747C22.9574 7.23541 22.8004 6.94987 22.5725 6.72664C22.3446 6.50342 22.0558 6.35243 21.7424 6.29262C21.4291 6.23281 21.105 6.26683 20.8109 6.39042C20.5168 6.514 20.2657 6.72166 20.0891 6.98735C19.9125 7.25305 19.8183 7.56496 19.8182 7.88398C19.8277 8.31746 20.0068 8.72993 20.3169 9.03289C20.6271 9.33584 21.0437 9.50514 21.4773 9.50444H21.4727Z" fill="white"/>
</svg>
