<svg width="100" height="25" viewBox="0 0 100 25" fill="none" xmlns="http://www.w3.org/2000/svg">
<g clip-path="url(#clip0_2809_153)">
<path d="M11.6907 0.872101C4.74767 0.872101 0 5.29071 0 12.5628C0 19.5058 4.74767 24.1279 11.6907 24.1279C18.6337 24.1279 23.2558 19.5058 23.2558 12.5628C23.2558 5.29071 18.6337 0.872101 11.6907 0.872101ZM18.5965 19.4686C18.144 19.9193 17.6392 20.3143 17.093 20.6454V11.1047L15 9.94187V21.5698C14.2426 21.7955 13.4628 21.9378 12.6744 21.9942V6.7035L10.5814 5.54071V21.9872C9.83289 21.9254 9.09263 21.7875 8.37209 21.5756V10.6395L6.27907 11.8023V20.6616C3.63837 19.0884 2.09302 16.243 2.09302 12.5581C2.09302 9.60117 2.99651 7.1535 4.70698 5.47908C6.38837 3.83605 8.80349 2.96512 11.6907 2.96512C14.5779 2.96512 16.9523 3.83257 18.6047 5.4721C20.2802 7.13954 21.1628 9.59187 21.1628 12.5651C21.1628 15.407 20.2756 17.7907 18.5965 19.4686Z" fill="#F7931E"/>
<path d="M29.205 18.4023C29.3666 19.614 30.3166 20.5221 31.669 20.5221C33.5294 20.5221 34.4597 19.5733 34.4597 17.5744V16.5442C34.0352 17.3116 33.0457 17.9779 31.612 17.9779C28.9864 17.9779 27.069 15.9593 27.069 13.193C27.069 10.5674 28.9062 8.40698 31.612 8.40698C33.1469 8.40698 34.0957 9.03256 34.519 9.8407V8.58838H36.7806V17.493C36.7806 20.1186 35.4271 22.5616 31.7318 22.5616C29.1271 22.5616 27.3132 20.9465 27.0469 18.9674L29.205 18.4023ZM34.5166 13.1977C34.5166 11.5209 33.4457 10.4302 31.9922 10.4302C30.498 10.4302 29.4271 11.5209 29.4271 13.1977C29.4271 14.914 30.4573 15.9884 31.9922 15.9884C33.4887 15.9791 34.5166 14.8884 34.5166 13.1977Z" fill="#262933"/>
<path d="M49.0707 13.4954C49.0707 16.5244 46.9103 18.7279 43.9626 18.7279C41.0347 18.7279 38.873 16.5268 38.873 13.4954C38.873 10.4861 41.0347 8.28606 43.9626 8.28606C46.9149 8.28606 49.0707 10.4861 49.0707 13.4954ZM46.7079 13.4954C46.7126 11.4535 45.4207 10.407 43.9672 10.407C42.5335 10.407 41.2207 11.4535 41.2207 13.4965C41.2207 15.5395 42.5335 16.6268 43.9672 16.6268C45.4207 16.6256 46.7126 15.5547 46.7126 13.4954H46.7079Z" fill="#262933"/>
<path d="M51.336 18.4221V3.80233H53.6779V18.4221H51.336Z" fill="#262933"/>
<path d="M65.7942 16.6256C65.794 17.2259 65.8277 17.8257 65.8953 18.4221H63.6535C63.5921 18.0007 63.5583 17.5758 63.5523 17.15C63.0872 17.9779 62.0581 18.6616 60.6651 18.6616C57.8384 18.6616 55.9395 16.4395 55.9395 13.4721C55.9395 10.6442 57.8581 8.3221 60.6244 8.3221C62.3407 8.3221 63.2093 9.11047 63.5128 9.73605V3.80233H65.7942V16.6256ZM60.9302 16.6047C62.4639 16.6047 63.5349 15.3326 63.5349 13.4547C63.5349 11.5767 62.4826 10.407 60.9477 10.407C59.4128 10.407 58.2826 11.5988 58.2826 13.4767C58.2826 15.3547 59.3326 16.6047 60.9302 16.6047Z" fill="#262933"/>
<path d="M68.8633 18.4221V3.80233H71.2063V18.4221H68.8633Z" fill="#262933"/>
<path d="M75.3849 3.60117C75.5864 3.60102 75.786 3.64058 75.9722 3.71759C76.1584 3.7946 76.3276 3.90754 76.4701 4.04998C76.6127 4.19241 76.7258 4.36154 76.8029 4.5477C76.8801 4.73385 76.9198 4.93339 76.9198 5.13489C76.9179 5.43555 76.8272 5.72894 76.6591 5.97817C76.4909 6.22741 76.2528 6.42135 75.9747 6.53561C75.6966 6.64986 75.3909 6.67933 75.0961 6.62031C74.8013 6.56129 74.5305 6.41641 74.3179 6.20389C74.1052 5.99138 73.9601 5.72071 73.9008 5.42595C73.8416 5.13119 73.8708 4.82549 73.9849 4.5473C74.0989 4.26912 74.2927 4.03087 74.5418 3.86252C74.7909 3.69417 75.0842 3.60324 75.3849 3.60117V3.60117ZM74.2337 18.4221V8.58838H76.5593V18.4221H74.2337Z" fill="#262933"/>
<path d="M81.927 18.4221H79.584V8.58838H81.8665V9.90117C82.5119 8.76978 83.684 8.30582 84.7735 8.30582C87.177 8.30582 88.3282 10.0419 88.3282 12.2035V18.4221H85.9851V12.6081C85.9851 11.3965 85.4398 10.4268 83.9665 10.4268C82.634 10.4268 81.927 11.457 81.927 12.7523V18.4221Z" fill="#262933"/>
<path d="M99.883 15.6151C99.3575 17.3326 97.8028 18.7256 95.44 18.7256C92.7749 18.7256 90.4121 16.7872 90.4121 13.4547C90.4121 10.3454 92.7144 8.28606 95.1982 8.28606C98.2226 8.28606 99.9993 10.2907 99.9993 13.3942C100.006 13.6449 99.9856 13.8955 99.9389 14.1419H92.7505C92.8109 15.6361 93.9819 16.7 95.4354 16.7C96.8493 16.7 97.5761 15.9535 97.8993 14.9837L99.883 15.6151ZM97.6365 12.4256C97.5958 11.2744 96.8296 10.2442 95.2133 10.2442C94.6099 10.2318 94.0246 10.4509 93.5778 10.8566C93.131 11.2624 92.8566 11.8238 92.8109 12.4256H97.6365Z" fill="#262933"/>
</g>
<defs>
<clipPath id="clip0_2809_153">
<rect width="100" height="23.2558" fill="white" transform="translate(0 0.872101)"/>
</clipPath>
</defs>
</svg>
