<svg width="100" height="29" viewBox="0 0 100 29" fill="none" xmlns="http://www.w3.org/2000/svg">
<g clip-path="url(#clip0_2810_143)">
<path d="M34.8577 6.28571H36.4363V22.2857H34.8577V14.8114H26.2863V22.2857H24.7148V6.28571H26.2934V13.3028H34.8648L34.8577 6.28571Z" fill="#3B3D3C"/>
<path d="M40.7226 20.7771H48.3897V22.2857H39.1426V6.28571H48.274V7.79428H40.7226V13.4628H47.714V14.9714H40.7226V20.7771Z" fill="#3B3D3C"/>
<path d="M61.0175 22.2857H59.2132L54.9275 15.4514L50.6418 22.2857H48.8418L54.0275 14.0343L49.1789 6.28571H50.9604L54.9289 12.5943L58.8975 6.28571H60.6789L55.8318 14.0343L61.0175 22.2857Z" fill="#3B3D3C"/>
<path d="M66.7412 19.7714H73.1697V22.2857H64.1426V6.28571H66.7354L66.7412 19.7714Z" fill="#3B3D3C"/>
<path d="M84.9165 22.2857L83.8108 19.0628H77.0965L75.9865 22.2857H73.168L78.8951 6.28571H82.0008L87.7151 22.2857H84.9165ZM77.948 16.5943H82.948L80.4508 9.37142L77.948 16.5943Z" fill="#3B3D3C"/>
<path d="M97.79 13.9886C98.4591 14.3335 99.0209 14.8553 99.4143 15.4971C99.8125 16.1671 100.015 16.9351 100 17.7143C100.015 18.3255 99.9007 18.933 99.6635 19.4965C99.4263 20.06 99.0721 20.5666 98.6243 20.9829C98.1773 21.4102 97.6505 21.7452 97.074 21.9688C96.4975 22.1923 95.8825 22.3 95.2643 22.2857H88.5V6.28572H94.7686C95.3727 6.27089 95.9739 6.37529 96.5377 6.59297C97.1015 6.81064 97.6168 7.1373 98.0543 7.55429C98.4881 7.95636 98.8317 8.44596 99.0622 8.99071C99.2927 9.53545 99.4049 10.1229 99.3914 10.7143C99.3914 12.1048 98.8576 13.1962 97.79 13.9886ZM94.7686 8.75429H91.0929V12.96H94.7686C95.0381 12.9656 95.3057 12.9147 95.5543 12.8103C95.8028 12.706 96.0267 12.5506 96.2114 12.3543C96.5904 11.9467 96.801 11.4108 96.801 10.8543C96.801 10.2978 96.5904 9.76186 96.2114 9.35429C96.026 9.15928 95.8019 9.00518 95.5534 8.90185C95.3049 8.79853 95.0376 8.74827 94.7686 8.75429V8.75429ZM95.2643 19.8171C95.5497 19.8222 95.833 19.7667 96.0954 19.6544C96.3579 19.5422 96.5936 19.3756 96.7871 19.1657C97.1857 18.7327 97.4069 18.1657 97.4069 17.5771C97.4069 16.9886 97.1857 16.4216 96.7871 15.9886C96.5936 15.7787 96.3579 15.6121 96.0954 15.4999C95.833 15.3876 95.5497 15.3321 95.2643 15.3371H91.0929V19.8171H95.2643Z" fill="#3B3D3C"/>
<path d="M4.28516 20.3357V13.95L10.2852 10.6171L16.2852 13.95V20.3357L10.2852 23.6686L4.28516 20.3357Z" fill="#FF480D"/>
<path d="M13.8571 7.69857V2.71429H15.7143V0H4.85714V2.71429H6.71429V7.69857L0 11.4286V22.8571L10.2857 28.5714L20.5714 22.8571V11.4286L13.8571 7.69857ZM5.71429 1.85714V0.857143H14.8571V1.85714H5.71429ZM19.7143 22.3529L10.2857 27.5914L0.857143 22.3529V11.9329L7.13 8.44714L7.57143 8.20286V2.71429H13V8.20286L13.4414 8.44714L19.7143 11.9329V22.3529Z" fill="#3B3D3C"/>
<path d="M10.0714 8.42856C10.6632 8.42856 11.1429 7.94887 11.1429 7.35713C11.1429 6.7654 10.6632 6.28571 10.0714 6.28571C9.47969 6.28571 9 6.7654 9 7.35713C9 7.94887 9.47969 8.42856 10.0714 8.42856Z" fill="#FF480D"/>
<path d="M8.92801 4.7143C9.28305 4.7143 9.57087 4.42649 9.57087 4.07145C9.57087 3.71641 9.28305 3.42859 8.92801 3.42859C8.57297 3.42859 8.28516 3.71641 8.28516 4.07145C8.28516 4.42649 8.57297 4.7143 8.92801 4.7143Z" fill="#FF480D"/>
<path d="M11.464 4.71427C11.6415 4.71427 11.7854 4.57036 11.7854 4.39284C11.7854 4.21532 11.6415 4.07141 11.464 4.07141C11.2865 4.07141 11.1426 4.21532 11.1426 4.39284C11.1426 4.57036 11.2865 4.71427 11.464 4.71427Z" fill="#FF480D"/>
<path d="M13.0008 10.8571C13.2375 10.8571 13.4294 10.6653 13.4294 10.4286C13.4294 10.1919 13.2375 10 13.0008 10C12.7641 10 12.5723 10.1919 12.5723 10.4286C12.5723 10.6653 12.7641 10.8571 13.0008 10.8571Z" fill="#FF480D"/>
<path d="M6.42857 12C6.66526 12 6.85714 11.8081 6.85714 11.5714C6.85714 11.3347 6.66526 11.1429 6.42857 11.1429C6.19188 11.1429 6 11.3347 6 11.5714C6 11.8081 6.19188 12 6.42857 12Z" fill="#FF480D"/>
</g>
<defs>
<clipPath id="clip0_2810_143">
<rect width="100" height="28.5714" fill="white"/>
</clipPath>
</defs>
</svg>
