<svg width="100" height="27" viewBox="0 0 100 27" fill="none" xmlns="http://www.w3.org/2000/svg">
<g clip-path="url(#clip0_2810_191)">
<path d="M4.74496 11.4588C4.59402 11.4089 4.43811 11.3692 4.27885 11.34C3.96869 11.2819 3.65852 11.2212 3.34496 11.1699C3.0314 11.1186 2.72123 11.07 2.40597 11.0268C2.09072 10.9836 1.77886 10.9471 1.46191 10.9215C1.31491 10.9054 1.1659 10.9364 1.04766 11.0078C0.929418 11.0792 0.851626 11.1851 0.831398 11.3022C0.811169 11.4193 0.850162 11.538 0.939798 11.6321C1.02943 11.7263 1.16237 11.7883 1.30936 11.8044C1.62123 11.8476 1.93818 11.88 2.25513 11.907C2.57208 11.934 2.88733 11.9556 3.20597 11.9704C3.52462 11.9853 3.84496 11.9974 4.1636 12.0096C4.3248 12.0165 4.48646 12.012 4.64665 11.9961C4.81704 11.9836 4.9846 11.9532 5.14496 11.9056C5.17716 11.8957 5.20531 11.8789 5.22631 11.857C5.25483 11.8259 5.26689 11.7872 5.25992 11.7491C5.25295 11.7109 5.2275 11.6765 5.18902 11.6532C5.05212 11.5734 4.90286 11.5081 4.74496 11.4588V11.4588Z" fill="url(#paint0_linear_2810_191)"/>
<path d="M7.79564 6.93222C7.82333 6.91209 7.83993 6.88406 7.84183 6.85424C7.84374 6.82441 7.83079 6.79519 7.80581 6.77292C7.53276 6.53665 7.23694 6.31774 6.92107 6.11817C6.61033 5.92017 6.29734 5.72577 5.98208 5.53497C5.66683 5.34057 5.34649 5.15562 5.02615 4.96797C4.70581 4.78032 4.38378 4.60077 4.05666 4.42797L4.01259 4.40637C3.93806 4.37119 3.85547 4.34817 3.76965 4.33868C3.68383 4.32919 3.59649 4.3334 3.51274 4.35108C3.42898 4.36876 3.35049 4.39954 3.28183 4.44164C3.21317 4.48374 3.15573 4.53631 3.11285 4.59628C3.06997 4.65625 3.04252 4.72242 3.03209 4.79093C3.02166 4.85944 3.02846 4.92892 3.05211 4.99531C3.07575 5.0617 3.11575 5.12368 3.16979 5.17763C3.22382 5.23158 3.29081 5.27641 3.36683 5.30952C3.70581 5.46612 4.05497 5.62002 4.40751 5.76447C4.76005 5.90892 5.1092 6.05877 5.46513 6.19917C5.82107 6.33957 6.1753 6.47997 6.53632 6.61497C6.89991 6.75276 7.27613 6.86829 7.66174 6.96057C7.68528 6.96483 7.70976 6.96447 7.73308 6.95953C7.7564 6.95459 7.77787 6.94522 7.79564 6.93222Z" fill="url(#paint1_linear_2810_191)"/>
<path d="M11.4801 2.21674C11.6614 2.45569 11.8513 2.69059 12.0428 2.92549C12.2467 3.16627 12.4927 3.38265 12.7733 3.56809C12.8087 3.58977 12.8524 3.6012 12.897 3.60049C12.922 3.59996 12.9465 3.59553 12.9693 3.58744C12.9921 3.57936 13.0126 3.56777 13.0298 3.55335C13.0469 3.53894 13.0604 3.52197 13.0693 3.50342C13.0782 3.48487 13.0825 3.4651 13.0818 3.44524C13.0674 3.15506 13 2.8681 12.8818 2.59339C12.7631 2.33014 12.6411 2.06689 12.5106 1.80769C12.2579 1.28824 11.9693 0.780317 11.6462 0.286238C11.5643 0.169432 11.4291 0.0822561 11.2686 0.0428459C11.1081 0.0034357 10.9348 0.0148261 10.7845 0.0746474C10.6343 0.134469 10.5189 0.238115 10.4622 0.364022C10.4054 0.48993 10.4119 0.628405 10.4801 0.750638C10.7793 1.25363 11.1131 1.74307 11.4801 2.21674V2.21674Z" fill="url(#paint2_linear_2810_191)"/>
<path d="M20.5293 3.56803C20.7653 3.35272 20.9866 3.12739 21.192 2.89303C21.3971 2.66353 21.5903 2.42863 21.7785 2.19238C21.9666 1.95613 22.1479 1.71853 22.3259 1.47823C22.5039 1.23793 22.6649 0.993583 22.8344 0.745183C22.9117 0.621838 22.9243 0.47908 22.8695 0.348316C22.8147 0.217551 22.6969 0.109492 22.542 0.0479083C22.3871 -0.0136749 22.2079 -0.0237371 22.0437 0.0199354C21.8796 0.063608 21.7439 0.157438 21.6666 0.280783C21.5107 0.530533 21.3717 0.785683 21.2344 1.04218C21.0971 1.29868 20.9717 1.55923 20.8496 1.82113C20.7276 2.08303 20.6056 2.34628 20.5005 2.61493C20.3914 2.88577 20.3009 3.16113 20.2293 3.43978C20.2219 3.4642 20.2233 3.48977 20.2331 3.51362C20.243 3.53747 20.2611 3.55865 20.2852 3.57478C20.3016 3.58742 20.321 3.5973 20.3423 3.60382C20.3636 3.61035 20.3863 3.61339 20.4091 3.61276C20.4319 3.61213 20.4542 3.60784 20.4749 3.60016C20.4956 3.59247 20.5141 3.58155 20.5293 3.56803V3.56803Z" fill="url(#paint3_linear_2810_191)"/>
<path d="M29.4599 5.14081C29.5258 5.09711 29.5802 5.0435 29.6201 4.98304C29.6599 4.92259 29.6845 4.85647 29.6923 4.78846C29.7001 4.72046 29.6909 4.65189 29.6655 4.58669C29.64 4.52148 29.5986 4.46091 29.5438 4.40843C29.4889 4.35596 29.4216 4.3126 29.3457 4.28085C29.2698 4.24909 29.1868 4.22955 29.1014 4.22334C29.016 4.21714 28.9299 4.22439 28.8481 4.24468C28.7662 4.26497 28.6902 4.29791 28.6243 4.34161C28.3463 4.52656 28.07 4.71691 27.7989 4.90996C27.5277 5.10301 27.2599 5.30146 26.9938 5.50126C26.7277 5.70106 26.4633 5.90626 26.2039 6.10606C25.9381 6.31432 25.6949 6.54013 25.4768 6.78106C25.4637 6.79627 25.4553 6.81376 25.4524 6.83208C25.4494 6.85039 25.452 6.869 25.4599 6.88636C25.4732 6.91446 25.4999 6.93726 25.5341 6.94988C25.5683 6.96251 25.6074 6.96393 25.6429 6.95386C25.9909 6.84926 26.3271 6.72145 26.648 6.57181C26.9633 6.42466 27.2768 6.27346 27.587 6.12091C27.8972 5.96836 28.2073 5.81311 28.5124 5.65516C28.8175 5.49721 29.1192 5.33521 29.4175 5.16916L29.4599 5.14081Z" fill="url(#paint4_linear_2810_191)"/>
<path d="M33.0203 10.9147C32.9967 10.8593 32.9595 10.8082 32.911 10.7642C32.8625 10.7202 32.8036 10.6843 32.7376 10.6585C32.6717 10.6326 32.6 10.6174 32.5266 10.6137C32.4533 10.6099 32.3797 10.6177 32.3102 10.6366C31.9915 10.7244 31.678 10.8229 31.3661 10.9269C31.0542 11.0308 30.7458 11.1375 30.439 11.2509C30.1322 11.3643 29.8271 11.4817 29.522 11.5992C29.3675 11.6577 29.219 11.7258 29.078 11.803C28.9286 11.8796 28.7915 11.9703 28.6695 12.073C28.6419 12.0957 28.6251 12.1253 28.622 12.1567C28.6192 12.1763 28.6214 12.1962 28.6285 12.215C28.6356 12.2339 28.6474 12.2515 28.6633 12.2666C28.6791 12.2818 28.6987 12.2942 28.7207 12.3031C28.7427 12.3121 28.7668 12.3174 28.7915 12.3187C28.97 12.3322 29.1498 12.3286 29.3271 12.3079C29.499 12.2902 29.669 12.2622 29.8356 12.2242C30.161 12.15 30.4881 12.0784 30.8102 11.9988C31.1322 11.9191 31.4542 11.8368 31.7729 11.749C32.0915 11.6613 32.3966 11.5735 32.7119 11.475C32.8434 11.4306 32.9486 11.3479 33.0059 11.2437C33.0633 11.1395 33.0684 11.0218 33.0203 10.9147V10.9147Z" fill="url(#paint5_linear_2810_191)"/>
<path d="M22.6873 6.15735C22.2313 5.92195 21.7524 5.71609 21.2551 5.54175C20.7597 5.37321 20.25 5.23291 19.7297 5.1219C19.2122 5.01711 18.6868 4.93865 18.1568 4.887C17.8941 4.8681 17.6297 4.8411 17.3669 4.8357L16.972 4.8222H16.5619C15.4744 4.84609 14.3983 5.00459 13.372 5.292C12.3394 5.58214 11.3722 6.00288 10.5076 6.53805C9.63655 7.08039 8.90021 7.74746 8.33644 8.505C8.0592 8.88455 7.82766 9.28413 7.64491 9.6984C7.47099 10.1101 7.34115 10.5328 7.25678 10.962C7.09488 11.8083 7.10518 12.6698 7.28729 13.5135C7.48022 14.3514 7.86455 15.154 8.42118 15.8814C8.96306 16.5885 9.65065 17.2179 10.4551 17.7431C11.2451 18.2632 12.1442 18.6681 13.111 18.9392C14.0186 19.1795 14.9814 19.2583 15.9314 19.17C16.3478 19.1401 16.7591 19.0754 17.1585 18.977C17.9258 18.7653 18.6389 18.4452 19.2636 18.032C19.894 17.6207 20.4396 17.1333 20.8805 16.5875C21.3391 16.0269 21.6542 15.3998 21.8076 14.742C21.8849 14.3991 21.9021 14.0492 21.8585 13.7025C21.8143 13.3479 21.6999 13.0012 21.5195 12.6752C21.3372 12.3512 21.0949 12.0509 20.8008 11.7842C20.4838 11.4892 20.0812 11.2603 19.628 11.1173C19.1559 10.9765 18.6417 10.9516 18.1517 11.0457C17.772 11.1208 17.4118 11.2483 17.0873 11.4224C16.8265 11.1838 16.5198 10.9797 16.1788 10.8176C15.9766 10.7245 15.7593 10.6541 15.533 10.6083C15.3118 10.5609 15.0842 10.5346 14.8551 10.53C14.3928 10.5168 13.9339 10.5971 13.5212 10.7636C13.102 10.9315 12.7524 11.1921 12.5144 11.5142C12.2807 11.8318 12.1633 12.1951 12.1754 12.5631C12.1888 12.9108 12.2933 13.2525 12.4822 13.5662C12.6682 13.8684 12.9188 14.1425 13.2229 14.3762C13.5103 14.5942 13.8205 14.7925 14.15 14.9688C14.4686 15.143 14.7924 15.3023 15.0907 15.4778C15.3935 15.6422 15.6537 15.8517 15.8568 16.0947C15.9514 16.2192 16.0163 16.3565 16.0483 16.4997C16.0738 16.6489 16.0738 16.8001 16.0483 16.9493C16.1074 16.8017 16.1377 16.6478 16.1381 16.493C16.1339 16.3335 16.0925 16.176 16.0161 16.0286C15.8482 15.7391 15.6057 15.481 15.3042 15.2712C14.7381 14.8406 14.1178 14.4869 13.6585 14.0562C13.4338 13.8476 13.2571 13.609 13.1364 13.3515C13.0227 13.1054 12.9703 12.8441 12.9822 12.582C12.9999 12.3312 13.1017 12.0888 13.2771 11.88C13.4446 11.6839 13.6753 11.5272 13.9449 11.4264C14.2213 11.3268 14.5232 11.2805 14.8263 11.2914C15.1298 11.3016 15.4263 11.3677 15.6924 11.4845C15.9341 11.6031 16.1552 11.7466 16.35 11.9111C16.2289 12.0135 16.1157 12.1217 16.011 12.2351C15.7422 12.516 15.5395 12.8334 15.4127 13.172C15.3413 13.3663 15.3205 13.5703 15.3517 13.7714C15.3726 13.8895 15.4209 14.0034 15.4941 14.1075C15.5726 14.2138 15.6783 14.3058 15.8042 14.3775C16.0253 14.508 16.289 14.5849 16.5636 14.5989C16.8484 14.6084 17.1294 14.5435 17.3636 14.414C17.5748 14.2955 17.7488 14.1398 17.872 13.959C17.9904 13.7879 18.0674 13.6006 18.0992 13.4069C18.131 13.2151 18.1201 13.0205 18.0669 12.8318C18.0168 12.6593 17.9459 12.4911 17.8551 12.3296C17.8178 12.2648 17.7771 12.1946 17.7347 12.1379C17.9407 12.0544 18.1622 11.9979 18.3907 11.9705C18.6518 11.939 18.9187 11.9676 19.1602 12.0528C19.4118 12.1463 19.6328 12.2849 19.8059 12.4578C20.0095 12.6512 20.1804 12.865 20.3144 13.0937C20.5838 13.5616 20.6892 14.079 20.6195 14.5908C20.5344 15.1369 20.3211 15.6654 19.9907 16.1487C18.7449 18.0644 15.9449 19.1295 13.4924 18.1818C12.6994 17.8679 11.9839 17.4426 11.3805 16.9263C10.7853 16.4218 10.2924 15.8466 9.91949 15.2213C9.56564 14.6137 9.35316 13.9601 9.29237 13.2921C9.25231 12.6346 9.34036 11.9761 9.55339 11.34C9.76475 10.7179 10.0964 10.1258 10.5364 9.585C10.9675 9.04843 11.5043 8.5707 12.1263 8.1702C12.7627 7.76784 13.4756 7.44884 14.2381 7.2252C15.0071 7.00427 15.8144 6.87949 16.6314 6.8553H16.9364L17.2534 6.86205C17.4653 6.86205 17.6737 6.8823 17.8856 6.89175C18.3006 6.92634 18.7127 6.98089 19.1195 7.0551C20.7363 7.33725 22.18 8.05781 23.2039 9.09369C24.2278 10.1296 24.7683 11.4165 24.733 12.7346C24.7121 14.0885 24.1544 15.4025 23.1398 16.4889C22.6285 17.038 22.0284 17.531 21.3551 17.955C21.0128 18.1729 20.6558 18.3757 20.2856 18.5625C19.9143 18.7493 19.5301 18.9192 19.1347 19.0715C18.293 19.3696 17.4299 19.6279 16.55 19.845C15.6466 20.088 14.7161 20.3175 13.789 20.6969C13.2759 20.8899 12.8188 21.1657 12.4466 21.5069C12.232 21.7121 12.0831 21.9558 12.0127 22.217C11.9712 22.3677 11.9648 22.5233 11.9941 22.676C12.0277 22.8376 12.1052 22.9915 12.2212 23.1269C12.3484 23.2689 12.5062 23.3919 12.6873 23.49C12.5861 23.6786 12.5392 23.8828 12.55 24.0876C12.5609 24.2925 12.6292 24.4929 12.75 24.674C12.8828 24.872 13.0506 25.0539 13.2483 25.214C13.3419 25.2926 13.4415 25.3665 13.5466 25.4354C13.6212 25.4826 13.7008 25.5245 13.7805 25.5704C13.7031 25.6548 13.6367 25.7452 13.5822 25.8404C13.463 26.0441 13.4343 26.274 13.5008 26.4924C13.5388 26.5937 13.5959 26.6897 13.6703 26.7773C13.7403 26.8594 13.8228 26.9342 13.9161 27C13.8127 26.8366 13.7626 26.6551 13.7703 26.4722C13.7865 26.3109 13.8673 26.158 14.0008 26.0361C14.0891 25.9502 14.1918 25.8743 14.3059 25.8107C14.6247 25.9385 14.9585 26.0412 15.3025 26.1171C15.7921 26.224 16.2942 26.2905 16.8008 26.3156C17.3141 26.3456 17.83 26.3279 18.3381 26.2629C18.4686 26.244 18.6008 26.2211 18.7398 26.19C18.8953 26.1553 19.0449 26.1059 19.1856 26.0429C19.3017 25.9909 19.4027 25.9201 19.4822 25.835C19.5554 25.7557 19.6015 25.6627 19.6161 25.565C19.6233 25.5039 19.6175 25.4423 19.5992 25.3827C19.5961 25.3689 19.5916 25.3554 19.5856 25.3422L19.5754 25.3166C19.5196 25.1775 19.4348 25.047 19.3246 24.9305C19.1114 24.7211 18.8316 24.5612 18.5144 24.4674C18.2427 24.3855 17.957 24.3368 17.6669 24.323C17.1375 24.2945 16.6059 24.3369 16.0941 24.4485C15.5925 24.5525 15.1133 24.7153 14.672 24.9318C14.5619 24.9872 14.4534 25.0479 14.3483 25.1127L14.3144 25.0965C14.1472 25.0014 13.9917 24.8938 13.85 24.7752C13.72 24.6606 13.6136 24.5303 13.5347 24.3891C13.4812 24.3009 13.4534 24.2042 13.4534 24.1063C13.4534 24.0083 13.4812 23.9116 13.5347 23.8235C13.6161 23.8451 13.7042 23.8653 13.7805 23.8842C14.2795 23.993 14.7902 24.0644 15.3059 24.0975C16.3122 24.1666 17.3256 24.1253 18.3178 23.9747C18.8534 23.9012 19.3736 23.769 19.8636 23.5818C20.0188 23.5194 20.1644 23.4429 20.2975 23.3537C20.3385 23.3258 20.3776 23.296 20.4144 23.2646C20.4581 23.2283 20.4984 23.1895 20.5347 23.1485C20.5785 23.101 20.6165 23.0504 20.6483 22.9973C20.7156 22.8814 20.7497 22.755 20.7483 22.6274C20.7528 22.5824 20.7528 22.5373 20.7483 22.4924C20.7349 22.3918 20.7024 22.2935 20.6517 22.2008C20.5571 22.0263 20.4077 21.8743 20.2178 21.7593C20.0693 21.6696 19.9048 21.5982 19.7297 21.5474C19.5832 21.504 19.4323 21.4706 19.2788 21.4475C19.0044 21.4066 18.7258 21.3863 18.4466 21.3867C17.929 21.3869 17.4128 21.429 16.9059 21.5123C15.9021 21.6622 14.9386 21.95 14.0585 22.3628C13.8276 22.476 13.6087 22.6043 13.4042 22.7462C13.3295 22.7115 13.2638 22.6657 13.211 22.6112C13.172 22.5531 13.1653 22.5342 13.1907 22.433C13.2246 22.3191 13.2927 22.2135 13.389 22.1252C13.6653 21.9103 13.9942 21.7431 14.3551 21.6338C15.211 21.3764 16.0882 21.1667 16.9805 21.006C17.9395 20.8282 18.8846 20.606 19.811 20.3405C20.2875 20.19 20.7517 20.016 21.2008 19.8194C21.6522 19.6245 22.0871 19.4062 22.5025 19.166C23.347 18.6797 24.1018 18.1017 24.7449 17.4488C25.3966 16.785 25.9168 16.0456 26.2873 15.2564C26.6577 14.4605 26.8682 13.6231 26.911 12.7751C27.0078 11.0402 26.3558 9.33125 25.0636 7.9326C24.4118 7.23193 23.6069 6.63057 22.6873 6.15735V6.15735ZM17.228 13.3326C17.2218 13.4372 17.1876 13.5394 17.1277 13.6326C17.0677 13.7257 16.9835 13.8076 16.8805 13.8726C16.7954 13.9212 16.6919 13.9448 16.5874 13.9394C16.4829 13.934 16.3841 13.8999 16.3076 13.8429C16.2788 13.8231 16.2555 13.7986 16.2391 13.7712C16.2228 13.7438 16.2138 13.7139 16.2127 13.6836C16.2057 13.5803 16.2253 13.4769 16.2703 13.3799C16.3849 13.1398 16.5576 12.9201 16.7788 12.7332C16.8397 12.6779 16.9042 12.6252 16.972 12.5753C16.989 12.5996 17.0076 12.6239 17.0229 12.6482C17.0939 12.7618 17.1507 12.8807 17.1924 13.0032C17.2294 13.1104 17.2415 13.222 17.228 13.3326V13.3326ZM18.6195 25.3058C18.6432 25.2923 18.6314 25.3017 18.6195 25.3058V25.3058ZM17.5653 25.1883C17.75 25.2051 17.9315 25.2396 18.1059 25.2909C18.1942 25.3175 18.277 25.3543 18.3517 25.4003C18.2805 25.4205 18.2042 25.4381 18.1263 25.4543C17.2654 25.6165 16.3701 25.6257 15.5042 25.4813C15.4212 25.4664 15.3347 25.4489 15.2602 25.43C15.9982 25.2197 16.7841 25.1373 17.5653 25.1883V25.1883ZM19.35 22.6139C19.3686 22.6314 19.35 22.6301 19.35 22.6139V22.6139ZM17.1042 22.4694C17.5342 22.4218 17.9689 22.4059 18.4025 22.4222C18.599 22.4298 18.7942 22.4519 18.9856 22.4883C19.0635 22.503 19.1395 22.5234 19.2127 22.5491C19.0374 22.6141 18.8554 22.667 18.6686 22.707C18.4686 22.7529 18.2568 22.7934 18.0415 22.8272C17.1632 22.9601 16.2712 23.027 15.3771 23.027C15.1703 23.027 14.9636 23.027 14.7619 23.0067C15.5036 22.7333 16.2935 22.552 17.1042 22.4694V22.4694Z" fill="url(#paint6_linear_2810_191)"/>
<path d="M39.5398 13.2489C39.7855 12.4187 39.9042 11.8098 39.9042 11.3859C39.9042 11.043 39.5974 10.7663 38.9906 10.5638C38.6253 10.3921 38.2089 10.3015 37.7847 10.3015C37.3605 10.3015 36.9441 10.3921 36.5788 10.5638L36.3906 10.6434V23.0297C36.3906 24.2447 37.2228 24.8792 38.7957 24.8792C38.9635 24.8778 39.127 24.8368 39.2655 24.7613C39.404 24.6858 39.5113 24.5793 39.5737 24.4553L39.6347 24.3594L39.6008 24.2555C39.3313 23.4455 39.194 22.7934 39.194 22.3317V14.985C39.2332 14.3983 39.3491 13.8165 39.5398 13.2489V13.2489Z" fill="#262933"/>
<path d="M39.9733 5.08274C39.5138 4.75117 38.9135 4.57073 38.2936 4.57784C37.1478 4.57784 36.5156 5.08004 36.5156 5.99399C36.5202 6.24038 36.5934 6.48289 36.73 6.70399C36.8666 6.92509 37.0631 7.11925 37.3055 7.27244C37.7662 7.61436 38.3707 7.80693 39.0004 7.81244C40.0936 7.81244 40.6953 7.31024 40.6953 6.39764C40.7033 6.14971 40.6428 5.9034 40.518 5.67617C40.3932 5.44894 40.2073 5.24635 39.9733 5.08274V5.08274Z" fill="#262933"/>
<path d="M53.7129 1.38237C53.5207 1.37585 53.3288 1.40062 53.149 1.45517C52.9692 1.50972 52.8053 1.59289 52.6672 1.69962L52.5621 1.78197V1.89942C52.5621 6.43542 52.4519 9.58092 52.2316 11.2671C51.1248 10.4571 50.8468 10.2775 50.7468 10.2235C49.879 9.72402 49.0079 9.47157 48.1553 9.47157C46.1553 9.47157 44.5502 10.858 43.3875 13.5904C42.5427 15.4804 42.0983 17.469 42.0723 19.4751C42.0723 21.06 42.5163 22.3587 43.3926 23.3347C44.4333 24.4971 45.935 25.0897 47.8621 25.0897C49.3096 25.0897 50.8146 24.3837 52.3418 22.9891C52.4206 23.4366 52.4664 23.8874 52.479 24.3391V24.381L52.4943 24.4215C52.6416 24.7467 52.9086 25.029 53.2604 25.2315C53.679 25.5015 54.0587 25.6257 54.4231 25.6257C54.6385 25.6246 54.8497 25.578 55.035 25.4904C55.2203 25.4029 55.373 25.2776 55.4774 25.1275L55.579 25.0006L55.5045 24.8656C54.996 23.9287 54.7384 22.2723 54.7384 19.9435C54.7384 19.5736 54.8231 17.5918 54.9892 14.0548C55.1824 10.2141 55.3282 7.91232 55.4045 7.21437C55.4604 6.94437 55.574 6.34362 55.779 5.25687C55.9312 4.59102 56.0168 3.9166 56.035 3.23997C56.0368 2.99712 55.9766 2.75651 55.8581 2.53278C55.7395 2.30905 55.565 2.10688 55.3451 1.93857C55.1349 1.76231 54.8817 1.62208 54.601 1.52644C54.3204 1.43081 54.0182 1.38178 53.7129 1.38237V1.38237ZM45.557 22.1575C45.1646 21.3911 44.9754 20.5684 45.0011 19.741C45.0297 18.1283 45.3628 16.5282 45.9892 14.9944C46.7723 12.8776 47.7824 11.803 48.9909 11.803C50.0079 11.803 50.7926 12.208 51.3977 13.0585C51.9305 13.8182 52.2024 14.6764 52.1858 15.5466C52.2004 17.1919 51.8675 18.8275 51.2011 20.385C50.3536 22.41 49.1824 23.386 47.6113 23.386C46.6977 23.3847 46.0248 22.9824 45.557 22.1575Z" fill="#262933"/>
<path d="M69.0523 19.8896C68.7794 19.8896 68.476 20.0448 67.7218 20.8346C67.076 21.519 66.4828 22.0266 65.9472 22.3466C65.1621 22.8635 64.1776 23.1496 63.1591 23.1566C62.4641 23.1566 60.3523 23.1566 60.3387 19.6466C60.3998 19.6354 60.4625 19.6305 60.5252 19.6317C60.5607 19.6317 60.7658 19.6466 61.4709 19.9328C62.2557 20.2541 62.5319 20.2973 62.6997 20.2973C64.5387 20.2973 66.2082 19.7573 67.6624 18.6908C69.1167 17.6243 69.8658 16.3391 69.8658 14.8865C69.8658 13.7403 69.0184 12.5915 67.3591 11.4575C65.6997 10.3235 64.1574 9.77536 62.7387 9.77536C60.9896 9.77536 59.6201 11.0606 58.554 13.7039C57.7946 15.6303 57.4082 17.4623 57.4082 19.1471C57.4082 23.0918 59.4133 25.0871 63.3658 25.0871C64.7336 25.0871 66.2031 24.7145 67.7268 23.9814C69.4794 23.1539 70.3675 22.1873 70.3675 21.1073C70.3675 20.0273 69.4472 19.8896 69.0523 19.8896ZM63.2421 18.3249C62.9207 18.3351 62.6003 18.2903 62.3024 18.1937C62.0045 18.0971 61.736 17.9508 61.515 17.7647C61.2893 17.5759 61.1131 17.3532 60.9967 17.1096C60.8803 16.866 60.826 16.6063 60.837 16.3458C60.8433 15.3827 61.1336 14.4343 61.6845 13.577C62.3201 12.5631 63.1048 12.0704 64.0811 12.0704C64.8794 12.0704 65.5065 12.3606 65.998 12.9573C66.5386 13.6026 66.8108 14.3669 66.7761 15.1421C66.7415 15.9174 66.4017 16.6643 65.8048 17.2773C65.115 17.9807 64.2777 18.3249 63.2421 18.3249Z" fill="#262933"/>
<path d="M82.4718 11.367C81.1543 10.5551 79.536 10.114 77.8701 10.1129C77.3328 10.1053 76.7996 10.1899 76.3069 10.3609C75.8141 10.5318 75.3733 10.7852 75.0142 11.1038C74.4312 11.6154 73.8888 12.3674 73.4007 13.3367C72.9125 14.306 72.6651 15.1335 72.6651 15.7896C72.6651 16.0704 72.8634 16.3647 73.2718 16.6887C73.6803 17.0127 74.0617 17.172 74.443 17.172C74.5355 17.1772 74.6283 17.1665 74.7152 17.1407C74.8021 17.1149 74.881 17.0745 74.9465 17.0222C75.0121 16.97 75.0628 16.9072 75.0953 16.838C75.1277 16.7688 75.1411 16.6949 75.1346 16.6212V16.2554C75.1346 15.4278 75.5227 14.5395 76.2871 13.6161C77.104 12.6401 77.982 12.146 78.9142 12.146C80.2295 12.146 81.0888 12.7008 81.543 13.8456C81.8363 14.5692 81.9854 15.6722 81.9854 17.1207C81.9948 17.2617 81.9677 17.4028 81.9057 17.5352H77.9532C76.6583 17.5352 75.2413 17.955 73.7396 18.7839C72.0566 19.7006 71.1973 20.6739 71.1973 21.681C71.1973 22.7178 71.9312 23.5845 73.3769 24.2555C74.5263 24.8179 75.8467 25.1194 77.1956 25.1276C78.9146 25.1255 80.5942 24.7167 82.021 23.9531V24.0111C82.021 25.191 82.0498 24.6105 82.0769 24.678C82.26 25.2396 82.8108 25.5488 83.6329 25.5488C84.7837 25.5488 84.9091 25.0236 84.9091 24.7982L84.7888 14.715C84.7583 13.4123 83.9803 12.285 82.4718 11.367ZM81.9854 20.2163C81.9854 21.06 81.5074 21.7472 80.5227 22.3169C79.6035 22.8757 78.4824 23.1835 77.3261 23.1944C76.6575 23.209 75.9972 23.0733 75.421 22.8029C74.8346 22.5221 74.5498 22.1441 74.5498 21.6473C74.5498 20.7833 75.1244 20.1488 76.3057 19.7087C77.3921 19.3331 78.5675 19.1489 79.7515 19.1687C81.7532 19.17 81.9854 19.7667 81.9854 20.2163Z" fill="#262933"/>
<path d="M99.875 14.715C99.8445 13.4082 99.0665 12.285 97.5597 11.363C96.2414 10.5512 94.6227 10.1102 92.9563 10.1088C92.4192 10.1012 91.8863 10.1858 91.3938 10.3567C90.9013 10.5277 90.4607 10.7811 90.1021 11.0997C89.5174 11.6114 88.975 12.3633 88.4886 13.3326C88.0021 14.3019 87.7513 15.1295 87.7513 15.7856C87.7513 16.0664 87.9496 16.3607 88.358 16.6847C88.7665 17.0087 89.1496 17.168 89.5292 17.168C89.6217 17.1732 89.7145 17.1625 89.8014 17.1367C89.8883 17.1108 89.9672 17.0704 90.0327 17.0182C90.0983 16.966 90.149 16.9031 90.1814 16.834C90.2139 16.7648 90.2273 16.6908 90.2207 16.6172V16.2513C90.2207 15.4238 90.6089 14.5355 91.3733 13.6121C92.1902 12.636 93.0682 12.1419 94.0021 12.1419C95.3157 12.1419 96.175 12.6968 96.6292 13.8416C96.9224 14.5652 97.0716 15.6681 97.0716 17.1167C97.081 17.2577 97.0539 17.3988 96.9919 17.5311H93.0411C91.7462 17.5311 90.3292 17.951 88.8275 18.7799C87.1428 19.6965 86.2852 20.6699 86.2852 21.677C86.2852 22.7138 87.0208 23.5805 88.4665 24.2514C89.6158 24.8138 90.9363 25.1154 92.2852 25.1235C94.0036 25.1213 95.6826 24.7125 97.1089 23.949C97.1089 23.9679 97.1089 23.9868 97.1089 24.0071C97.1089 25.187 97.1377 24.6065 97.1648 24.674C97.3462 25.2356 97.897 25.5447 98.7191 25.5447C99.8716 25.5447 99.9953 25.0196 99.9953 24.7941L99.875 14.715ZM97.0716 20.2122C97.0716 21.056 96.5936 21.7431 95.6089 22.3128C94.6902 22.8715 93.5697 23.1792 92.414 23.1903C91.7448 23.2052 91.0839 23.0695 90.5072 22.7988C89.9207 22.518 89.636 22.14 89.636 21.6432C89.636 20.7792 90.2106 20.1447 91.3919 19.7046C92.4784 19.3293 93.6537 19.1451 94.8377 19.1646C96.8411 19.17 97.0716 19.7667 97.0716 20.2163V20.2122Z" fill="#262933"/>
</g>
<defs>
<linearGradient id="paint0_linear_2810_191" x1="3.05513" y1="-0.0391568" x2="3.05513" y2="23.463" gradientUnits="userSpaceOnUse">
<stop stop-color="#FF8A11"/>
<stop offset="1" stop-color="#E81894"/>
</linearGradient>
<linearGradient id="paint1_linear_2810_191" x1="157.578" y1="3.5711" x2="157.578" y2="461.389" gradientUnits="userSpaceOnUse">
<stop stop-color="#FF8A11"/>
<stop offset="1" stop-color="#E81894"/>
</linearGradient>
<linearGradient id="paint2_linear_2810_191" x1="194.678" y1="-1.01864" x2="194.678" y2="622.353" gradientUnits="userSpaceOnUse">
<stop stop-color="#FF8A11"/>
<stop offset="1" stop-color="#E81894"/>
</linearGradient>
<linearGradient id="paint3_linear_2810_191" x1="360.904" y1="-1.05654" x2="360.904" y2="629.093" gradientUnits="userSpaceOnUse">
<stop stop-color="#FF8A11"/>
<stop offset="1" stop-color="#E81894"/>
</linearGradient>
<linearGradient id="paint4_linear_2810_191" x1="715.831" y1="3.42679" x2="715.831" y2="480.313" gradientUnits="userSpaceOnUse">
<stop stop-color="#FF8A11"/>
<stop offset="1" stop-color="#E81894"/>
</linearGradient>
<linearGradient id="paint5_linear_2810_191" x1="834.964" y1="10.1157" x2="834.964" y2="308.495" gradientUnits="userSpaceOnUse">
<stop stop-color="#FF8A11"/>
<stop offset="1" stop-color="#E81894"/>
</linearGradient>
<linearGradient id="paint6_linear_2810_191" x1="1994.22" y1="-1.60936" x2="1994.22" y2="3859.32" gradientUnits="userSpaceOnUse">
<stop stop-color="#FF8A11"/>
<stop offset="1" stop-color="#E81894"/>
</linearGradient>
<clipPath id="clip0_2810_191">
<rect width="100" height="27" fill="white"/>
</clipPath>
</defs>
</svg>
