<svg width="32" height="32" viewBox="0 0 32 32" fill="none" xmlns="http://www.w3.org/2000/svg">
<g clip-path="url(#clip0_1226_1553)">
<path d="M30.9428 7.30103C30.9543 7.34343 30.9601 7.38715 30.9602 7.43107V14.258C30.9602 14.3456 30.9371 14.4317 30.893 14.5075C30.849 14.5833 30.7857 14.6462 30.7096 14.6898L24.9676 17.9888V24.5276C24.9676 24.7056 24.8728 24.8698 24.7182 24.9594L12.7323 31.8448C12.7048 31.8604 12.6749 31.8704 12.645 31.8809C12.6337 31.8847 12.6231 31.8915 12.6113 31.8946C12.5275 31.9166 12.4394 31.9166 12.3557 31.8946C12.3419 31.8909 12.3295 31.8834 12.3164 31.8784C12.2889 31.8685 12.2603 31.8598 12.2341 31.8448L0.250655 24.9594C0.174528 24.9158 0.111274 24.8529 0.0672681 24.7771C0.0232625 24.7013 6.03189e-05 24.6152 0 24.5276L0 4.04685C0 4.00205 0.00623519 3.9585 0.0174585 3.91619C0.0211997 3.90188 0.0299289 3.88881 0.0349171 3.8745C0.0442699 3.84837 0.0529991 3.82161 0.0667166 3.79734C0.0760694 3.78117 0.0897868 3.7681 0.10101 3.75317C0.115351 3.73326 0.128445 3.71272 0.14528 3.6953C0.159621 3.68099 0.178327 3.67041 0.194538 3.65797C0.21262 3.64304 0.228832 3.62686 0.249408 3.61504H0.250031L6.24205 0.172332C6.31792 0.128765 6.40392 0.105835 6.49146 0.105835C6.579 0.105835 6.665 0.128765 6.74087 0.172332L12.7329 3.61504H12.7341C12.7541 3.62748 12.7709 3.64304 12.789 3.65735C12.8052 3.66979 12.8233 3.68099 12.8376 3.69468C12.8551 3.71272 12.8676 3.73326 12.8825 3.75317C12.8931 3.7681 12.9075 3.78117 12.9162 3.79734C12.9305 3.82223 12.9387 3.84837 12.9486 3.8745C12.9536 3.88881 12.9623 3.90188 12.9661 3.91681C12.9776 3.95921 12.9834 4.00293 12.9835 4.04685V16.8389L17.9767 13.9699V7.43045C17.9767 7.38689 17.9829 7.34271 17.9941 7.30103C17.9985 7.28609 18.0066 7.27303 18.0116 7.25872C18.0216 7.23258 18.0303 7.20583 18.044 7.18156C18.0534 7.16538 18.0671 7.15232 18.0777 7.13738C18.0927 7.11747 18.1051 7.09694 18.1226 7.07952C18.1369 7.06521 18.155 7.05463 18.1712 7.04219C18.1899 7.02725 18.2061 7.01108 18.2261 6.99925H18.2267L24.2194 3.55655C24.2952 3.51292 24.3812 3.48996 24.4688 3.48996C24.5563 3.48996 24.6423 3.51292 24.7182 3.55655L30.7102 6.99925C30.7314 7.0117 30.7476 7.02725 30.7663 7.04156C30.7819 7.05401 30.8 7.06521 30.8143 7.0789C30.8318 7.09694 30.8443 7.11747 30.8592 7.13738C30.8704 7.15232 30.8842 7.16538 30.8929 7.18156C30.9072 7.20583 30.9153 7.23258 30.9253 7.25872C30.9309 7.27303 30.939 7.28609 30.9428 7.30103V7.30103ZM29.9614 13.9699V8.29283L27.8645 9.49744L24.9676 11.1619V16.8389L29.962 13.9699H29.9614ZM23.9693 24.2395V18.5587L21.1198 20.1827L12.9829 24.8169V30.5513L23.9693 24.2395ZM0.998878 4.90862V24.2395L11.984 30.5506V24.8176L6.24517 21.5765L6.2433 21.5752L6.24081 21.574C6.22148 21.5628 6.20526 21.5466 6.18718 21.5329C6.17159 21.5205 6.15351 21.5105 6.1398 21.4968L6.13855 21.4949C6.12234 21.4794 6.11111 21.4601 6.0974 21.4427C6.08493 21.4259 6.06996 21.4116 6.05998 21.3942L6.05936 21.3923C6.04814 21.3736 6.04128 21.3512 6.03317 21.3301C6.02507 21.3114 6.01447 21.294 6.00948 21.2741V21.2734C6.00324 21.2498 6.002 21.2249 5.9995 21.2006C5.99701 21.182 5.99202 21.1633 5.99202 21.1446V7.77764L3.09577 6.1126L0.998878 4.90924V4.90862ZM6.49208 1.17907L1.49956 4.04685L6.49084 6.91463L11.4827 4.04623L6.49084 1.17907H6.49208ZM9.08842 19.0764L11.9847 17.4126V4.90862L9.88777 6.11322L6.9909 7.77764V20.2816L9.08842 19.0764ZM24.4688 4.56329L19.4769 7.43107L24.4688 10.2988L29.46 7.43045L24.4688 4.56329ZM23.9693 11.1619L21.0725 9.49744L18.9756 8.29283V13.9699L21.8718 15.6337L23.9693 16.8389V11.1619ZM12.4829 23.9552L19.8048 19.7839L23.4649 17.6994L18.4767 14.8335L12.7335 18.1331L7.49907 21.1403L12.4829 23.9552Z" fill="#FF2D20"/>
</g>
<defs>
<clipPath id="clip0_1226_1553">
<rect width="31.0154" height="32" fill="white"/>
</clipPath>
</defs>
</svg>
