<svg width="40" height="36" viewBox="0 0 40 36" fill="none" xmlns="http://www.w3.org/2000/svg">
<path d="M15.1998 16C16.5253 16 17.5998 14.9254 17.5998 13.6C17.5998 12.2745 16.5253 11.2 15.1998 11.2C13.8743 11.2 12.7998 12.2745 12.7998 13.6C12.7998 14.9254 13.8743 16 15.1998 16Z" fill="#37A56E"/>
<path d="M14.8004 30C16.1259 30 17.2004 28.9254 17.2004 27.6C17.2004 26.2745 16.1259 25.2 14.8004 25.2C13.4749 25.2 12.4004 26.2745 12.4004 27.6C12.4004 28.9254 13.4749 30 14.8004 30Z" fill="#37A56E"/>
<path d="M12.8 9.6C13.2418 9.6 13.6 9.24183 13.6 8.8C13.6 8.35817 13.2418 8 12.8 8C12.3582 8 12 8.35817 12 8.8C12 9.24183 12.3582 9.6 12.8 9.6Z" fill="#37A56E"/>
<path d="M11.8002 20.7999C12.1316 20.7999 12.4002 20.5312 12.4002 20.1999C12.4002 19.8685 12.1316 19.5999 11.8002 19.5999C11.4688 19.5999 11.2002 19.8685 11.2002 20.1999C11.2002 20.5312 11.4688 20.7999 11.8002 20.7999Z" fill="#37A56E"/>
<path d="M27.1996 21.4C27.531 21.4 27.7996 21.1313 27.7996 20.8C27.7996 20.4686 27.531 20.2 27.1996 20.2C26.8682 20.2 26.5996 20.4686 26.5996 20.8C26.5996 21.1313 26.8682 21.4 27.1996 21.4Z" fill="#37A56E"/>
<path d="M21.3998 30.4C21.7312 30.4 21.9998 30.1313 21.9998 29.8C21.9998 29.4686 21.7312 29.2 21.3998 29.2C21.0684 29.2 20.7998 29.4686 20.7998 29.8C20.7998 30.1313 21.0684 30.4 21.3998 30.4Z" fill="#37A56E"/>
<path d="M20.0002 17.9999C20.442 17.9999 20.8002 17.6417 20.8002 17.1999C20.8002 16.7581 20.442 16.3999 20.0002 16.3999C19.5584 16.3999 19.2002 16.7581 19.2002 17.1999C19.2002 17.6417 19.5584 17.9999 20.0002 17.9999Z" fill="#37A56E"/>
<path d="M16.9996 22.3999C17.7728 22.3999 18.3996 21.7731 18.3996 20.9999C18.3996 20.2267 17.7728 19.5999 16.9996 19.5999C16.2264 19.5999 15.5996 20.2267 15.5996 20.9999C15.5996 21.7731 16.2264 22.3999 16.9996 22.3999Z" fill="#37A56E"/>
<path d="M25.6004 8.7999C26.2631 8.7999 26.8004 8.26264 26.8004 7.5999C26.8004 6.93716 26.2631 6.3999 25.6004 6.3999C24.9376 6.3999 24.4004 6.93716 24.4004 7.5999C24.4004 8.26264 24.9376 8.7999 25.6004 8.7999Z" fill="#37A56E"/>
<path d="M25.0998 17.8C26.9223 17.8 28.3998 16.3225 28.3998 14.5C28.3998 12.6774 26.9223 11.2 25.0998 11.2C23.2773 11.2 21.7998 12.6774 21.7998 14.5C21.7998 16.3225 23.2773 17.8 25.0998 17.8Z" fill="#37A56E"/>
<path d="M19.3996 10.3998C20.3937 10.3998 21.1996 9.59392 21.1996 8.5998C21.1996 7.60569 20.3937 6.7998 19.3996 6.7998C18.4055 6.7998 17.5996 7.60569 17.5996 8.5998C17.5996 9.59392 18.4055 10.3998 19.3996 10.3998Z" fill="#37A56E"/>
<path d="M23.7998 27.5999C25.4567 27.5999 26.7998 26.2567 26.7998 24.5999C26.7998 22.943 25.4567 21.5999 23.7998 21.5999C22.143 21.5999 20.7998 22.943 20.7998 24.5999C20.7998 26.2567 22.143 27.5999 23.7998 27.5999Z" fill="#37A56E"/>
<path d="M6.652 35C5.92134 35.0163 5.19225 34.9253 4.488 34.73C3.98626 34.5884 3.53309 34.3117 3.178 33.93C2.80221 33.4965 2.53547 32.9795 2.4 32.422C2.20251 31.6079 2.11109 30.7716 2.128 29.934V23.334C2.128 22.106 1.938 21.212 1.548 20.604C1.17953 20.0588 0.631875 19.6597 0 19.476L0 16.142C1.066 15.784 2.134 14.872 2.134 12.66V6.06C2.134 4.184 2.48 2.86 3.16 2.102C3.84 1.344 5.038 1 6.756 1H9V4.292H8.924C8.48078 4.28694 8.03774 4.31233 7.598 4.368C7.20031 4.41156 6.82584 4.57714 6.526 4.842C6.24508 5.1235 6.06088 5.48699 6 5.88C5.92694 6.31001 5.89414 6.7459 5.902 7.182V13.01C5.90782 13.5923 5.87374 14.1743 5.8 14.752C5.75235 15.1233 5.6492 15.4853 5.494 15.826C5.35028 16.1274 5.15076 16.3989 4.906 16.626C4.56312 16.9405 4.19965 17.2318 3.818 17.498L3.072 18.026L3.834 18.53C4.20776 18.7682 4.5533 19.048 4.864 19.364C5.1135 19.6259 5.32004 19.9256 5.476 20.252C5.64005 20.6054 5.7493 20.9817 5.8 21.368C5.87055 21.9091 5.90397 22.4544 5.9 23V28.828C5.89298 29.2528 5.92579 29.6773 5.998 30.096C6.05624 30.4784 6.2292 30.8341 6.494 31.116C6.7767 31.3857 7.13566 31.5617 7.522 31.62C7.97413 31.6937 8.43198 31.7265 8.89 31.718H9V35H6.652Z" fill="#262933"/>
<path d="M33.348 34.9999C34.0787 35.0162 34.8078 34.9252 35.512 34.7299C36.0137 34.5883 36.4669 34.3116 36.822 33.9299C37.1951 33.4969 37.4597 32.9814 37.594 32.4259C37.7915 31.6117 37.8829 30.7755 37.866 29.9379V23.3379C37.866 22.1099 38.056 21.2159 38.446 20.6079C38.8149 20.0593 39.365 19.6579 40 19.4739V16.1419C38.934 15.7839 37.866 14.8719 37.866 12.6599V6.0599C37.866 4.1839 37.52 2.8599 36.84 2.1019C36.16 1.3439 34.962 0.993896 33.24 0.993896H31V4.2919H31.076C31.5192 4.28683 31.9623 4.31223 32.402 4.3679C32.7997 4.41146 33.1742 4.57703 33.474 4.8419C33.7549 5.1234 33.9391 5.48689 34 5.8799C34.0731 6.30991 34.1059 6.74579 34.098 7.1819V13.0099C34.0902 13.5921 34.1223 14.1741 34.194 14.7519C34.2416 15.1232 34.3448 15.4852 34.5 15.8259C34.6437 16.1273 34.8432 16.3988 35.088 16.6259C35.4309 16.9404 35.7944 17.2317 36.176 17.4979L36.922 18.0259L36.16 18.5299C35.7862 18.7681 35.4407 19.0479 35.13 19.3639C34.8805 19.6258 34.674 19.9255 34.518 20.2519C34.3532 20.6078 34.2439 20.9869 34.194 21.3759C34.1252 21.9138 34.0932 22.4557 34.098 22.9979V28.8259C34.105 29.2507 34.0722 29.6752 34 30.0939C33.9521 30.4814 33.7762 30.8419 33.5001 31.118C33.224 31.3941 32.8635 31.57 32.476 31.6179C32.0239 31.6916 31.566 31.7244 31.108 31.7159H31V34.9999H33.348Z" fill="#262933"/>
</svg>
