<svg width="100" height="33" viewBox="0 0 100 33" fill="none" xmlns="http://www.w3.org/2000/svg">
<g clip-path="url(#clip0_2810_169)">
<path d="M5.09323 16.129C5.09655 13.332 6.16089 10.6405 8.07139 8.59765C9.9819 6.55483 12.5963 5.31291 15.3868 5.12258L18.0868 1.74516C14.4975 1.25473 10.8545 2.12412 7.87344 4.18256C4.8924 6.24099 2.78877 9.33968 1.97577 12.8699C1.16277 16.4002 1.69917 20.1069 3.47959 23.2619C5.26002 26.4168 8.15579 28.7921 11.5981 29.921L12.6271 26.5919C10.4345 25.8555 8.52817 24.4497 7.17661 22.5727C5.82506 20.6957 5.09639 18.442 5.09323 16.129V16.129Z" fill="#262933"/>
<path d="M20.5797 2.30969L19.5604 5.64518C22.0052 6.44392 24.0941 8.07178 25.466 10.2473C26.8379 12.4229 27.4066 15.0094 27.0737 17.5598C26.7408 20.1102 25.5273 22.4641 23.643 24.2146C21.7586 25.9652 19.3219 27.0023 16.7539 27.1468L14.0781 30.5016C17.6819 31.0223 21.3497 30.1697 24.3543 28.1127C27.3588 26.0558 29.4806 22.9448 30.2988 19.3968C31.1171 15.8487 30.572 12.1227 28.7718 8.95772C26.9715 5.7927 24.0476 3.41984 20.5797 2.30969V2.30969Z" fill="#262933"/>
<path d="M20.3618 13.421L16.5166 12.9484L20.4747 0L9.16016 14.1484L11.8973 18.6694L15.7424 19.1419L11.6876 32.2581L23.0989 17.9435L20.3618 13.421Z" fill="#FF6022"/>
<path d="M43.7458 23.529H34.3555V7.74194H35.8426V22.1726H43.7458V23.529Z" fill="#262933"/>
<path d="M45.4844 8.89032C45.4844 8.69892 45.5411 8.51182 45.6475 8.35267C45.7538 8.19353 45.9049 8.06949 46.0818 7.99624C46.2586 7.923 46.4532 7.90383 46.6409 7.94117C46.8286 7.97851 47.0011 8.07068 47.1364 8.20602C47.2718 8.34136 47.3639 8.5138 47.4013 8.70152C47.4386 8.88925 47.4194 9.08383 47.3462 9.26066C47.2729 9.43749 47.1489 9.58863 46.9898 9.69497C46.8306 9.8013 46.6435 9.85806 46.4521 9.85806C46.1955 9.85806 45.9493 9.7561 45.7678 9.57462C45.5863 9.39313 45.4844 9.14698 45.4844 8.89032V8.89032ZM45.7247 12.1516H47.1682V23.529H45.7247V12.1516Z" fill="#262933"/>
<path d="M49.7249 24.5807H51.2217C51.5943 25.6968 52.8072 26.4952 54.4572 26.4952C56.5895 26.4952 57.912 25.2581 57.912 23.3984V21.1113H57.8798C57.5556 21.8716 57.0122 22.518 56.319 22.9682C55.6258 23.4183 54.8143 23.6518 53.9878 23.6387C51.1136 23.6387 49.1895 21.3307 49.1895 17.8081C49.1895 14.2855 51.1136 11.9645 54.0201 11.9645C54.8604 11.9527 55.6849 12.1936 56.3867 12.6561C57.0884 13.1186 57.635 13.7812 57.9556 14.5581H57.9878V12.1516H59.3653V23.3436C59.3653 25.9919 57.4298 27.7419 54.3927 27.7419C51.9104 27.7419 50.0427 26.3742 49.7249 24.5807ZM57.912 17.8065C57.912 15.0823 56.4362 13.2436 54.2507 13.2436C52.1072 13.2436 50.6766 15.0484 50.6766 17.8161C50.6766 20.5839 52.1072 22.3581 54.2507 22.3581C56.4362 22.3597 57.912 20.5323 57.912 17.8081V17.8065Z" fill="#262933"/>
<path d="M61.957 7.74194H63.4086V14.2516H63.4409C64.0215 12.8516 65.3764 11.9645 67.1909 11.9645C69.6828 11.9645 71.257 13.6274 71.257 16.1774V23.529H69.8054V16.4177C69.8054 14.4484 68.7006 13.2565 66.7764 13.2565C64.7328 13.2565 63.4103 14.6887 63.4103 16.8339V23.529H61.9586L61.957 7.74194Z" fill="#262933"/>
<path d="M75.7523 9.30646V12.1516H77.9927V13.3548H75.7523V20.6629C75.7523 21.8339 76.2104 22.3371 77.2604 22.3371C77.4136 22.3371 77.9604 22.3145 78.0475 22.2936V23.529C77.6922 23.5728 77.3345 23.5949 76.9765 23.5952C75.0733 23.5952 74.3088 22.7887 74.3088 20.729V13.3548H72.6152V12.1516H74.3088V9.30646H75.7523Z" fill="#262933"/>
<path d="M90.3803 19.7H84.8384L83.6351 23.529H80.248L85.7319 7.74194H89.6126L95.0964 23.529H91.5819L90.3803 19.7ZM85.5416 17.2274H89.6771L87.6464 10.7613H87.5706L85.5416 17.2274Z" fill="#FF6022"/>
<path d="M96.6992 23.529V7.74194H100.001V23.529H96.6992Z" fill="#FF6022"/>
</g>
<defs>
<clipPath id="clip0_2810_169">
<rect width="100" height="32.2581" fill="white"/>
</clipPath>
</defs>
</svg>
