<svg width="26" height="26" viewBox="0 0 26 26" fill="none" xmlns="http://www.w3.org/2000/svg">
<path d="M7.40803 3.90909C7.40803 4.58335 7.20809 5.24246 6.83349 5.80308C6.4589 6.3637 5.92647 6.80065 5.30354 7.05868C4.68061 7.31671 3.99515 7.38422 3.33386 7.25268C2.67256 7.12114 2.06512 6.79645 1.58835 6.31968C1.11158 5.84291 0.786891 5.23547 0.65535 4.57417C0.52381 3.91287 0.591321 3.22742 0.849347 2.60449C1.10737 1.98156 1.54433 1.44913 2.10495 1.07454C2.66557 0.699939 3.32468 0.5 3.99894 0.5C4.90308 0.5 5.7702 0.859171 6.40953 1.4985C7.04886 2.13783 7.40803 3.00494 7.40803 3.90909Z" fill="white"/>
<path d="M6.63534 9.59106V24.6524C6.63594 24.7635 6.61457 24.8737 6.57246 24.9765C6.53036 25.0793 6.46834 25.1728 6.38999 25.2516C6.31163 25.3304 6.21848 25.3929 6.11588 25.4355C6.01328 25.4782 5.90327 25.5002 5.79216 25.5002H2.19897C2.08786 25.5005 1.97779 25.4788 1.87508 25.4364C1.77237 25.394 1.67905 25.3318 1.60048 25.2532C1.52191 25.1746 1.45965 25.0813 1.41726 24.9786C1.37488 24.8759 1.35322 24.7658 1.35352 24.6547V9.59106C1.35352 9.36683 1.44259 9.15179 1.60115 8.99323C1.7597 8.83468 1.97475 8.74561 2.19897 8.74561H5.79216C6.01599 8.74621 6.23045 8.83555 6.38851 8.99404C6.54658 9.15252 6.63534 9.36723 6.63534 9.59106Z" fill="white"/>
<path d="M25.4179 17.432V24.7229C25.4182 24.825 25.3983 24.9262 25.3593 25.0207C25.3204 25.1151 25.2631 25.2009 25.1909 25.2732C25.1187 25.3454 25.0329 25.4026 24.9384 25.4416C24.844 25.4806 24.7428 25.5005 24.6406 25.5002H20.777C20.6748 25.5005 20.5736 25.4806 20.4792 25.4416C20.3847 25.4026 20.2989 25.3454 20.2267 25.2732C20.1545 25.2009 20.0972 25.1151 20.0583 25.0207C20.0193 24.9262 19.9994 24.825 19.9997 24.7229V17.657C19.9997 16.6024 20.3088 13.0388 17.2429 13.0388C14.8679 13.0388 14.3838 15.4774 14.2884 16.5729V24.7229C14.2884 24.9271 14.208 25.1231 14.0647 25.2685C13.9214 25.414 13.7266 25.4972 13.5224 25.5002H9.79063C9.68866 25.5002 9.5877 25.48 9.49352 25.4409C9.39935 25.4019 9.31381 25.3446 9.24182 25.2724C9.16982 25.2001 9.11278 25.1144 9.07397 25.0202C9.03515 24.9259 9.01533 24.8248 9.01563 24.7229V9.52515C9.01533 9.42319 9.03515 9.32216 9.07397 9.22787C9.11278 9.13358 9.16982 9.04788 9.24182 8.97567C9.31381 8.90347 9.39935 8.84618 9.49352 8.80709C9.5877 8.768 9.68866 8.74788 9.79063 8.74788H13.5224C13.7286 8.74788 13.9263 8.82977 14.0721 8.97554C14.2178 9.1213 14.2997 9.31901 14.2997 9.52515V10.8388C15.1815 9.51606 16.4884 8.49561 19.277 8.49561C25.4543 8.49561 25.4179 14.2638 25.4179 17.432Z" fill="white"/>
</svg>
