<svg width="20" height="21" viewBox="0 0 20 21" fill="none" xmlns="http://www.w3.org/2000/svg">
<g clip-path="url(#clip0_1625_88)">
<path d="M0 1.4727C0 0.681914 0.662031 0.0400391 1.47813 0.0400391H18.5219C19.3383 0.0400391 20 0.681914 20 1.4727V18.6076C20 19.3986 19.3383 20.04 18.5219 20.04H1.47813C0.662109 20.04 0 19.3987 0 18.6079V1.47246V1.4727Z" fill="#006699"/>
<path d="M6.07791 16.7777V7.77358H3.0851V16.7777H6.07822H6.07791ZM4.58213 6.54444C5.62557 6.54444 6.27518 5.85303 6.27518 4.98897C6.25564 4.10522 5.62557 3.43311 4.60197 3.43311C3.57768 3.43311 2.90869 4.10522 2.90869 4.98889C2.90869 5.85295 3.55807 6.54436 4.56252 6.54436H4.58189L4.58213 6.54444ZM7.73447 16.7777H10.727V11.7499C10.727 11.4812 10.7466 11.2117 10.8256 11.0198C11.0419 10.4819 11.5343 9.92507 12.3613 9.92507C13.4439 9.92507 13.8773 10.7507 13.8773 11.9612V16.7777H16.8698V11.615C16.8698 8.84944 15.3935 7.56249 13.4245 7.56249C11.8103 7.56249 11.1013 8.46475 10.7074 9.07929H10.7273V7.77389H7.73463C7.77369 8.61858 7.73439 16.778 7.73439 16.778L7.73447 16.7777Z" fill="white"/>
</g>
<defs>
<clipPath id="clip0_1625_88">
<rect width="20" height="20.0803" rx="4" fill="white"/>
</clipPath>
</defs>
</svg>
