<svg width="100" height="28" viewBox="0 0 100 28" fill="none" xmlns="http://www.w3.org/2000/svg">
<g clip-path="url(#clip0_2810_205)">
<path d="M25.762 0H34.8V6.3266C34.8 7.76763 33.9822 9.14963 32.5266 10.1686C31.0709 11.1876 29.0966 11.76 27.038 11.76H18V5.4334C18 3.99237 18.8178 2.61037 20.2734 1.59141C21.7291 0.572446 23.7034 0 25.762 0V0Z" fill="url(#paint0_linear_2810_205)"/>
<path d="M16.8008 11.76H9.91478C9.13814 11.76 8.36911 11.6529 7.65159 11.4449C6.93407 11.2368 6.28212 10.9319 5.73295 10.5475C5.18379 10.1631 4.74816 9.70671 4.45096 9.20444C4.15375 8.70218 4.00078 8.16386 4.00078 7.62021L4.00078 2.80001L10.8868 2.80001C12.4553 2.80001 13.9595 3.23617 15.0686 4.01253C16.1777 4.78889 16.8008 5.84187 16.8008 6.93981V11.76Z" fill="url(#paint1_linear_2810_205)"/>
<path d="M7.762 12.6H16.8V18.9266C16.8 20.3676 15.9822 21.7496 14.5266 22.7686C13.0709 23.7875 11.0966 24.36 9.038 24.36H0V18.0334C0 16.5923 0.81778 15.2103 2.27344 14.1914C3.72909 13.1724 5.70339 12.6 7.762 12.6Z" fill="url(#paint2_linear_2810_205)"/>
<path d="M40 28H28.164C25.4683 28 22.8831 27.2504 20.977 25.9161C19.0708 24.5818 18 22.7722 18 20.8852L18 12.6L29.836 12.6C32.5317 12.6 35.1169 13.3496 37.023 14.6839C38.9292 16.0182 40 17.8278 40 19.7148V28Z" fill="url(#paint3_linear_2810_205)"/>
<path d="M49 22.6898C48.3333 22.1466 48 21.4522 48 20.6066V5.15062L52.216 4.60602V20.321C52.216 20.7186 52.3273 20.9949 52.55 21.1498C52.6794 21.2319 52.8311 21.2949 52.996 21.3351C53.1609 21.3753 53.3358 21.3918 53.51 21.3836C53.7512 21.3841 53.9922 21.3752 54.232 21.357C54.4502 21.3416 54.6667 21.3159 54.88 21.28C55.102 21.245 55.298 21.21 55.48 21.1764L55.996 23.0398C55.6457 23.1327 55.2877 23.2108 54.924 23.2736C54.5236 23.3499 54.1159 23.406 53.704 23.4416C53.1732 23.4869 52.6387 23.5084 52.104 23.506C50.7013 23.506 49.6667 23.234 49 22.6898Z" fill="black"/>
<path d="M61.314 5.25421C61.7466 5.60555 61.9712 6.05924 61.942 6.52261C61.9644 6.99551 61.734 7.45725 61.296 7.81761C60.864 8.16201 60.2287 8.33421 59.39 8.33421C58.602 8.33421 57.992 8.16621 57.56 7.83021C57.1275 7.49295 56.8957 7.05267 56.912 6.59961C56.8854 6.11839 57.1165 5.64756 57.56 5.27941C57.9867 4.93314 58.634 4.76001 59.502 4.76001C60.29 4.76001 60.894 4.92474 61.314 5.25421ZM58.356 22.6898C57.664 22.1466 57.3187 21.4433 57.32 20.58V10.5098H61.536V20.321C61.536 20.7186 61.622 20.9865 61.794 21.1246C61.8939 21.1971 62.0155 21.2532 62.1499 21.289C62.2844 21.3249 62.4285 21.3395 62.572 21.3318H62.886C62.9918 21.3318 63.0972 21.3228 63.2 21.3052C63.3122 21.3042 63.424 21.2958 63.534 21.28L63.978 23.1434C63.7676 23.2227 63.5439 23.2834 63.312 23.324C63.0406 23.3843 62.7622 23.4279 62.48 23.4542C62.1063 23.4909 61.7293 23.5082 61.352 23.506C60.0507 23.506 59.052 23.2339 58.356 22.6898Z" fill="black"/>
<path d="M80.3992 10.5098L80.4732 10.717C80.4972 10.8724 80.5352 11.0754 80.5852 11.3246C80.6352 11.5738 80.6772 11.8594 80.7132 12.1786C80.7492 12.4978 80.7692 12.8226 80.7692 13.1502C80.7692 15.0654 80.5692 16.6833 80.1692 18.004C79.7692 19.3246 79.1525 20.3947 78.3192 21.2142C77.5409 22.0075 76.448 22.6241 75.1752 22.988C73.9059 23.3501 72.4085 23.5312 70.6832 23.5312C68.7352 23.5312 67.3479 23.1387 66.5212 22.3538C65.6945 21.5688 65.2819 20.4857 65.2832 19.1044V10.5098H69.4992V19.0274C69.4992 19.7526 69.6839 20.3392 70.0532 20.7872C70.4225 21.2352 71.0512 21.4596 71.9392 21.4606C72.3602 21.4661 72.7777 21.4062 73.1615 21.2851C73.5454 21.1641 73.8862 20.9849 74.1592 20.7606C74.8005 20.2281 75.2772 19.6084 75.5592 18.9406C75.9254 18.1064 76.1707 17.2485 76.2912 16.38C76.4399 15.4128 76.5141 14.4407 76.5132 13.468C76.5132 13.1049 76.4952 12.7465 76.4592 12.3928C76.4232 12.039 76.3739 11.724 76.3112 11.4478C76.2492 11.1678 76.2052 10.948 76.1812 10.7758L76.1072 10.5168L80.3992 10.5098Z" fill="black"/>
<path d="M98.2231 17.1626C98.2052 18.0342 98.2982 18.9052 98.5011 19.7652C98.6402 20.3407 98.8442 20.9076 99.1111 21.4606C99.32 21.8954 99.6192 22.3063 99.9991 22.68L96.7071 23.6124C96.367 23.3704 96.069 23.1011 95.8191 22.8102C95.5703 22.4908 95.3603 22.1574 95.1911 21.8134C94.9774 21.3655 94.8529 20.8991 94.8211 20.4274C94.4064 21.4625 93.7324 22.2428 92.7991 22.7682C91.8657 23.2937 90.6144 23.5569 89.0451 23.5578C88.0048 23.5739 86.9739 23.417 86.0371 23.1C85.1866 22.7985 84.4561 22.354 83.9111 21.8064C83.3101 21.1913 82.883 20.5013 82.6531 19.7736C82.3725 18.9075 82.2382 18.0213 82.2531 17.1332C82.2394 16.2034 82.458 15.279 82.8991 14.4018C83.2964 13.6056 83.9119 12.8714 84.7111 12.2402C85.4921 11.634 86.4459 11.1489 87.5111 10.8164C88.6389 10.4645 89.8623 10.2878 91.0971 10.2984C91.8706 10.2997 92.6432 10.3385 93.4091 10.4146C94.2091 10.4921 94.9551 10.5742 95.6471 10.661C96.3391 10.7478 96.9231 10.8309 97.3991 10.9102C97.8811 10.9886 98.1571 11.0362 98.2311 11.0502L98.2231 17.1626ZM91.4551 21.0462C92.0034 20.7253 92.4595 20.3343 92.7991 19.894C93.2017 19.3818 93.5006 18.8329 93.6871 18.263C93.8971 17.6486 94.0025 17.0188 94.0011 16.387V12.6588C93.7544 12.6066 93.3844 12.5459 92.8911 12.4768C92.4536 12.4122 92.0081 12.3775 91.5611 12.3732C90.7627 12.3525 89.9691 12.4683 89.2491 12.7106C88.66 12.9291 88.1608 13.2496 87.7991 13.6416C87.4098 14.0761 87.1462 14.5599 87.0231 15.0654C86.8688 15.666 86.7945 16.2753 86.8011 16.8854C86.8011 17.4902 86.8251 18.067 86.8751 18.62C86.9107 19.1217 87.0412 19.6179 87.2631 20.0956C87.4351 20.485 87.747 20.8369 88.1691 21.1176C88.6139 21.3818 89.1865 21.5166 89.7691 21.4942C90.3888 21.4881 90.9856 21.3295 91.4551 21.0462V21.0462Z" fill="black"/>
</g>
<defs>
<linearGradient id="paint0_linear_2810_205" x1="19.662" y1="11.5402" x2="28.2122" y2="-3.11685" gradientUnits="userSpaceOnUse">
<stop stop-color="#019C85"/>
<stop offset="1" stop-color="#BEDC7C"/>
</linearGradient>
<linearGradient id="paint1_linear_2810_205" x1="16.5028" y1="11.4212" x2="9.11961" y2="1.19673" gradientUnits="userSpaceOnUse">
<stop stop-color="#01C185"/>
<stop offset="1" stop-color="#E5DC7C"/>
</linearGradient>
<linearGradient id="paint2_linear_2810_205" x1="14.712" y1="14.259" x2="5.74908" y2="26.4904" gradientUnits="userSpaceOnUse">
<stop stop-color="#01B485"/>
<stop offset="1" stop-color="#BEDC7C"/>
</linearGradient>
<linearGradient id="paint3_linear_2810_205" x1="-39641.6" y1="1409.07" x2="-38197.5" y2="3472.39" gradientUnits="userSpaceOnUse">
<stop stop-color="#019C85"/>
<stop offset="1" stop-color="#BEDC7C"/>
</linearGradient>
<clipPath id="clip0_2810_205">
<rect width="100" height="28" fill="white"/>
</clipPath>
</defs>
</svg>
