<svg width="100" height="21" viewBox="0 0 100 21" fill="none" xmlns="http://www.w3.org/2000/svg">
<g clip-path="url(#clip0_2810_108)">
<path d="M6.53185 17.7343V6.82525L7.57023 5.61313V17.3081C8.20184 16.9438 8.72633 16.4195 9.09091 15.7881C9.45549 15.1566 9.64729 14.4403 9.647 13.7111V0L4.45508 6.06061V17.8687H5.49346C5.84388 17.868 6.1928 17.8229 6.53185 17.7343V17.7343Z" fill="#37A56E"/>
<path d="M15.8773 18.904V9.95253L10.6844 3.89192V13.7091C10.6831 15.0858 10.1357 16.4057 9.1623 17.3792C8.18895 18.3528 6.86914 18.9004 5.49248 18.902H3.13086V20.202H12.7662V9.50909L13.8046 10.7212V20.202H17.0703V18.904H15.8773Z" fill="#3B3D3C"/>
<path d="M21.7295 6.7889V8.47375C22.4238 7.22391 23.5663 6.599 25.1568 6.599C26.3056 6.599 27.2652 6.97476 28.0356 7.72627C28.806 8.47779 29.1915 9.55994 29.1922 10.9727V17.1273H27.8841V11.2192C27.8841 10.0832 27.6093 9.21853 27.0599 8.62526C26.5104 8.032 25.7592 7.73536 24.8063 7.73536C23.8535 7.73536 23.1026 8.032 22.5538 8.62526C22.005 9.21853 21.7302 10.0832 21.7295 11.2192V17.1273H20.4043V6.7889H21.7295Z" fill="#37A56E"/>
<path d="M33.5837 3.86262C33.5862 3.99044 33.5632 4.11747 33.5161 4.23628C33.4689 4.35509 33.3985 4.4633 33.3089 4.55454C33.2215 4.64693 33.1156 4.71993 32.9981 4.76882C32.8807 4.81771 32.7543 4.84141 32.6271 4.83838C32.4988 4.83919 32.3716 4.81449 32.2529 4.76573C32.1342 4.71697 32.0264 4.64511 31.9357 4.55432C31.845 4.46354 31.7733 4.35565 31.7246 4.2369C31.676 4.11816 31.6514 3.99094 31.6524 3.86262C31.6516 3.73439 31.6762 3.60728 31.7249 3.48865C31.7736 3.37003 31.8454 3.26225 31.9361 3.17158C32.0267 3.08091 32.1345 3.00914 32.2531 2.96044C32.3718 2.91173 32.4989 2.88707 32.6271 2.88788C32.7543 2.88485 32.8807 2.90855 32.9981 2.95744C33.1156 3.00633 33.2215 3.07933 33.3089 3.17172C33.3984 3.26281 33.4688 3.37084 33.5159 3.48948C33.5631 3.60812 33.5862 3.73497 33.5837 3.86262V3.86262ZM31.9362 17.1273V6.78889H33.2615V17.1273H31.9362Z" fill="#37A56E"/>
<path d="M37.4268 6.7889V8.49294C37.9979 7.23031 39.0645 6.599 40.6268 6.599V7.97981H40.248C39.3389 7.97981 38.6416 8.22593 38.1561 8.71819C37.6706 9.21045 37.4275 10.0562 37.4268 11.2556V17.1253H36.1016V6.7889H37.4268Z" fill="#37A56E"/>
<path d="M43.5424 15.7828C42.595 14.7606 42.1212 13.4572 42.1212 11.8727C42.1212 10.2882 42.5926 9.01313 43.5354 8.04747C44.4781 7.08182 45.6741 6.59899 47.1232 6.59899C47.9928 6.58086 48.8486 6.81789 49.5849 7.28081C50.2656 7.70617 50.8109 8.31695 51.1566 9.04141V6.78889H52.4818V17.1273H51.1545V14.8545C50.8079 15.581 50.263 16.1948 49.5828 16.6253C48.8486 17.0937 47.992 17.3342 47.1212 17.3162C45.6822 17.3162 44.4892 16.8051 43.5424 15.7828ZM50.0283 15.0162C50.7785 14.2397 51.1539 13.2202 51.1545 11.9576C51.1552 10.6949 50.7798 9.67576 50.0283 8.9C49.6817 8.5267 49.2608 8.23019 48.7926 8.02959C48.3244 7.82899 47.8194 7.72876 47.3101 7.73535C46.8065 7.72684 46.3065 7.82157 45.8409 8.01371C45.3753 8.20585 44.9541 8.49132 44.603 8.85253C43.8576 9.59731 43.4852 10.604 43.4859 11.8727C43.4865 13.1414 43.862 14.1764 44.6121 14.9778C45.3636 15.7798 46.2663 16.1808 47.3202 16.1808C47.8279 16.1865 48.3311 16.0858 48.7976 15.8852C49.264 15.6846 49.6832 15.3886 50.0283 15.0162V15.0162Z" fill="#37A56E"/>
<path d="M55.0371 9.64748C55.0371 8.7889 55.3903 8.06634 56.0967 7.47981C56.8031 6.89328 57.7058 6.59967 58.8048 6.599C59.9024 6.599 60.7576 6.8862 61.3704 7.46062C61.9832 8.03503 62.3199 8.82728 62.3805 9.83738H61.0169C61.0115 9.25312 60.781 8.69345 60.3735 8.27476C59.9694 7.86466 59.4078 7.65961 58.6886 7.65961C57.9694 7.65961 57.4044 7.83637 56.9937 8.18991C56.8014 8.34271 56.6462 8.53703 56.5397 8.75831C56.4332 8.97959 56.3781 9.2221 56.3785 9.46769C56.3785 9.96668 56.5297 10.3613 56.8321 10.6515C57.1524 10.9508 57.5503 11.1541 57.9805 11.2384C58.4412 11.3394 58.9395 11.4593 59.4755 11.598C60.0115 11.7367 60.5102 11.8852 60.9715 12.0434C61.4343 12.2005 61.8365 12.4982 62.122 12.895C62.4243 13.3051 62.5755 13.832 62.5755 14.4758C62.5755 15.3094 62.2284 15.9913 61.5341 16.5212C60.8398 17.0512 59.928 17.3162 58.7987 17.3162C57.6681 17.3162 56.7748 17.0259 56.1189 16.4455C55.463 15.865 55.1034 15.0761 55.0401 14.0788H56.4028C56.4047 14.3732 56.4661 14.6642 56.5833 14.9342C56.7004 15.2043 56.871 15.448 57.0846 15.6505C57.5142 16.0546 58.1044 16.2566 58.8553 16.2566C59.6061 16.2566 60.19 16.0956 60.6068 15.7737C60.8031 15.6326 60.9623 15.446 61.071 15.2301C61.1797 15.0141 61.2346 14.7751 61.231 14.5333C61.231 14.0283 61.0799 13.6306 60.7775 13.3404C60.4571 13.0404 60.0606 12.834 59.6311 12.7434C59.1704 12.6364 58.6721 12.5135 58.1361 12.3748C57.6001 12.236 57.1014 12.0906 56.6401 11.9384C56.1837 11.7908 55.7835 11.5066 55.4937 11.1243C55.19 10.7337 55.0378 10.2414 55.0371 9.64748Z" fill="#37A56E"/>
<path d="M69.7287 7.8303H66.8681V14.6848C66.8681 15.202 66.9691 15.565 67.1711 15.7737C67.3731 15.9825 67.7331 16.0865 68.2509 16.0859H69.7277V17.1273H67.9681C66.3519 17.1273 65.5439 16.3131 65.5439 14.6848V7.8303H64.1055V6.78889H65.5439V4.19394H66.8681V6.78889H69.7267L69.7287 7.8303Z" fill="#37A56E"/>
<path d="M72.305 15.7828C71.3588 14.7606 70.8854 13.4572 70.8848 11.8727C70.8841 10.2882 71.3555 9.01313 72.2989 8.04747C73.2417 7.08182 74.4376 6.59899 75.8868 6.59899C76.7563 6.58086 77.6121 6.81789 78.3484 7.28081C79.0294 7.70587 79.5747 8.31673 79.9201 9.04141V6.78889H81.2454V17.1273H79.9171V14.8545C79.5707 15.5812 79.0258 16.1951 78.3454 16.6253C77.6111 17.0937 76.7545 17.3342 75.8838 17.3162C74.4454 17.3162 73.2524 16.8051 72.305 15.7828ZM78.7888 15.0162C79.5396 14.2397 79.9151 13.2202 79.9151 11.9576C79.9151 10.6949 79.5396 9.67576 78.7888 8.9C78.4425 8.52673 78.0217 8.23023 77.5537 8.02962C77.0857 7.82902 76.5808 7.72877 76.0716 7.73535C75.5679 7.72676 75.0677 7.82145 74.6019 8.01359C74.1362 8.20573 73.7147 8.49125 73.3636 8.85253C72.6194 9.59731 72.2471 10.604 72.2464 11.8727C72.2457 13.1414 72.6215 14.1764 73.3737 14.9778C74.1245 15.7798 75.0269 16.1808 76.0807 16.1808C76.5884 16.1865 77.0917 16.0858 77.5581 15.8852C78.0245 15.6846 78.4437 15.3886 78.7888 15.0162V15.0162Z" fill="#37A56E"/>
<path d="M88.6878 7.8303H85.8292V14.6848C85.8292 15.202 85.9302 15.565 86.1323 15.7737C86.3343 15.9818 86.6939 16.0859 87.2111 16.0859H88.6878V17.1273H86.9232C85.307 17.1273 84.4989 16.3131 84.4989 14.6848V7.8303H83.0605V6.78889H84.4999V4.19394H85.8252V6.78889H88.6878V7.8303Z" fill="#37A56E"/>
<path d="M94.8177 17.3162C93.3409 17.3162 92.1416 16.8239 91.2197 15.8394C90.2978 14.8549 89.8372 13.5579 89.8379 11.9485C89.8379 10.3384 90.3093 9.04445 91.252 8.06668C92.1948 7.0889 93.413 6.59967 94.9066 6.599C96.4029 6.599 97.5928 7.05994 98.4763 7.98183C99.3598 8.90371 99.8002 10.0478 99.7975 11.4142C99.7993 11.7564 99.7739 12.0982 99.7217 12.4364H91.2005C91.251 13.6236 91.611 14.5576 92.2803 15.2384C92.9497 15.9192 93.7955 16.2603 94.8177 16.2616C95.613 16.2616 96.2914 16.0785 96.853 15.7121C97.3909 15.3756 97.8009 14.869 98.0177 14.2727H99.4379C99.1041 15.1467 98.5254 15.906 97.7712 16.4596C97.0015 17.0313 96.017 17.3168 94.8177 17.3162ZM98.4338 11.3899C98.4338 10.2539 98.0901 9.34816 97.4025 8.67274C96.715 7.99732 95.8635 7.65961 94.848 7.65961C93.8318 7.65961 92.986 7.99092 92.3106 8.65354C91.6352 9.31617 91.2648 10.2283 91.1995 11.3899H98.4338Z" fill="#37A56E"/>
</g>
<defs>
<clipPath id="clip0_2810_108">
<rect width="100" height="20.202" fill="white"/>
</clipPath>
</defs>
</svg>
