<svg width="101" height="100" viewBox="0 0 101 100" fill="none" xmlns="http://www.w3.org/2000/svg">
<g clip-path="url(#clip0_2305_1567)">
<path d="M47.8037 61.7144V88.0815C47.8037 89.7008 49.1141 91.0112 50.7334 91.0112H77.4638C80.814 91.0112 83.8267 89.1487 85.3259 86.1532L89.0616 78.6809L89.8749 61.7144H47.8037V61.7144Z" fill="#66BD21"/>
<path d="M73.5857 7.28095C71.9453 4.64424 69.1912 3.12061 66.1445 3.12061H60.7004L47.4475 16.988L63.4592 38.9262L84.8947 25.3274L73.5857 7.28095Z" fill="#66BD21"/>
<path d="M13.9428 29.6052L2.04814 48.5896C0.46592 51.1677 0.290335 54.4489 1.63799 57.2026L3.92314 61.7145L22.8999 66.152L35.308 45.4726L13.9428 29.6052Z" fill="#66BD21"/>
<path d="M64.5027 74.312L46.9246 56.7339C45.1082 54.8589 41.9443 56.1478 41.9443 58.7845V61.7142C26.7385 61.7142 22.2453 61.7142 3.9231 61.7142C5.21821 64.3323 16.0268 85.8684 16.1694 86.1475C17.6342 89.1358 20.6809 91.011 24.0207 91.011H41.9443V93.9407C41.9443 96.5774 45.1082 97.8662 46.9246 95.9912L64.5027 78.4131C65.6747 77.2999 65.6747 75.4253 64.5027 74.312Z" fill="#78DE28"/>
<path d="M60.7005 3.12061H35.3293C32.2826 3.12061 29.5285 4.64404 27.8881 7.28095L18.3373 22.5151L16.0522 21.1089C13.8256 19.7614 11.0715 21.812 11.7162 24.3315L17.5756 47.769C17.9272 49.3512 19.5676 50.2885 21.091 49.8783L44.5285 44.019C47.048 43.4332 47.5755 40.0346 45.3488 38.6871L40.9543 36.0504C42.8961 32.8141 58.7368 6.41611 60.7005 3.12061Z" fill="#78DE28"/>
<path d="M99.4049 48.585L90.4778 34.3014L93.2567 31.9997C94.2723 31.3903 94.8217 30.2288 94.6471 29.0558C94.4725 27.8856 93.6087 26.9329 92.4585 26.6468L70.0767 20.7874C68.4917 20.3927 66.9151 21.3452 66.5261 22.9188L60.6667 46.3563C60.3778 47.5036 60.8126 48.7137 61.7624 49.4204C62.7181 50.1213 63.9997 50.1872 65.0153 49.5778L68.7804 47.3176C79.152 63.3563 83.8743 70.6588 89.0618 78.6805C92.5784 71.6455 90.3692 76.0645 99.8139 57.1739C101.173 54.4559 101.015 51.1657 99.4049 48.585Z" fill="#78DE28"/>
</g>
<defs>
<clipPath id="clip0_2305_1567">
<rect width="100" height="100" fill="white" transform="translate(0.733276)"/>
</clipPath>
</defs>
</svg>
