<svg width="100" height="28" viewBox="0 0 100 28" fill="none" xmlns="http://www.w3.org/2000/svg">
<g clip-path="url(#clip0_2810_230)">
<path d="M41.8422 10.402V13.3546H41.4844C41.2105 12.4278 40.858 11.7968 40.4269 11.4618C39.971 11.1201 39.3842 10.9412 38.7836 10.9606C38.3396 10.9425 37.9034 11.067 37.5576 11.3106C37.4182 11.4015 37.304 11.5185 37.2232 11.6529C37.1424 11.7874 37.0971 11.9359 37.0906 12.0876C37.0815 12.4164 37.2041 12.7377 37.4372 12.9962C37.6619 13.2538 38.1176 13.5282 38.8045 13.8194L40.3883 14.4914C41.8562 15.1158 42.5906 15.939 42.5917 16.961C42.6037 17.3269 42.5168 17.6902 42.3381 18.0214C42.1594 18.3527 41.8939 18.6426 41.563 18.8678C40.92 19.3377 40.1071 19.5941 39.2682 19.5916C38.5616 19.58 37.86 19.4858 37.1821 19.3116C36.9928 19.2565 36.7957 19.2249 36.5963 19.2178C36.5105 19.22 36.4275 19.2445 36.3577 19.2882C36.288 19.3318 36.2347 19.3926 36.2048 19.4628H35.8469V16.3688H36.2048C36.407 17.2526 36.7942 17.9181 37.3666 18.3652C37.8863 18.7959 38.5755 19.0365 39.2923 19.0372C39.7412 19.0535 40.1796 18.9158 40.5135 18.6536C40.6635 18.5384 40.7833 18.3963 40.8647 18.2371C40.9461 18.0779 40.9872 17.9053 40.9853 17.731C40.9904 17.5261 40.9462 17.3225 40.8555 17.1335C40.7649 16.9444 40.6298 16.7741 40.459 16.6334C40.1081 16.3366 39.4084 15.9632 38.3599 15.5134C37.3115 15.0635 36.6241 14.6524 36.2978 14.28C35.9633 13.8874 35.7934 13.4065 35.8164 12.9178C35.8072 12.585 35.8772 12.2543 36.0219 11.9463C36.1667 11.6383 36.383 11.3599 36.6573 11.1286C37.2179 10.6498 37.9432 10.4099 38.8333 10.409C39.3162 10.4227 39.7944 10.4962 40.2535 10.6274C40.4929 10.6978 40.7405 10.7448 40.9917 10.7674C41.0881 10.7729 41.1837 10.7497 41.2629 10.7016C41.3606 10.6178 41.4381 10.5179 41.4908 10.4076L41.8422 10.402Z" fill="#252528"/>
<path d="M48.4827 10.402C49.988 10.402 51.1958 10.9004 52.1062 11.8972C52.874 12.7293 53.2849 13.7691 53.2681 14.8372C53.2566 15.6544 53.0373 16.4591 52.6262 17.1934C52.2697 17.9184 51.6738 18.5342 50.9143 18.9624C50.1549 19.3905 49.2664 19.6115 48.3624 19.5972C47.6659 19.6149 46.9752 19.4816 46.3523 19.2092C45.7294 18.9367 45.1938 18.5337 44.7934 18.0362C44.0563 17.1869 43.6614 16.1489 43.6701 15.0836C43.6787 14.2574 43.9113 13.4447 44.3489 12.712C44.7105 12.021 45.2927 11.4356 46.0259 11.0259C46.759 10.6162 47.612 10.3996 48.4827 10.402ZM48.1425 11.018C47.7335 11.0244 47.3342 11.1275 46.9871 11.3162C46.6019 11.5187 46.2917 11.8673 46.0563 12.362C45.821 12.8567 45.7006 13.496 45.6953 14.28C45.6953 15.5419 45.9825 16.6301 46.557 17.5448C47.1315 18.4595 47.8895 18.9168 48.8309 18.9168C49.1684 18.9204 49.5019 18.8536 49.8037 18.7218C50.1055 18.5901 50.3668 18.3972 50.5657 18.1594C51.0214 17.6554 51.2493 16.7879 51.2493 15.5568C51.2493 14.0187 50.8695 12.8077 50.1099 11.9238C49.5964 11.319 48.9406 11.0171 48.1425 11.018Z" fill="#252528"/>
<path d="M57.7061 5.87024V17.367C57.7061 17.9102 57.7515 18.27 57.8425 18.4464C57.9268 18.6169 58.0736 18.7582 58.2597 18.8482C58.4475 18.9406 58.7989 18.9882 59.3124 18.9882V19.3298H54.4404V18.9882C54.8962 18.9882 55.2075 18.9476 55.3744 18.8664C55.5523 18.7718 55.6894 18.6286 55.7643 18.459C55.8585 18.2724 55.9055 17.9093 55.9055 17.3698V9.49344C55.9055 8.51624 55.8804 7.91564 55.8301 7.69164C55.8076 7.51965 55.7221 7.35859 55.5862 7.23244C55.4647 7.14717 55.3119 7.10338 55.1561 7.10924C54.909 7.12109 54.6664 7.17233 54.4404 7.26044L54.2559 6.93004L57.2182 5.87024H57.7061Z" fill="#252528"/>
<path d="M65.6483 18.0782C64.6277 18.766 63.9858 19.1632 63.7226 19.2696C63.3315 19.4277 62.9052 19.5085 62.4741 19.5062C62.1574 19.5145 61.8422 19.464 61.5495 19.358C61.2568 19.2521 60.9933 19.0931 60.7763 18.8916C60.3323 18.4809 60.1103 17.9414 60.1103 17.2732C60.0978 16.8883 60.209 16.5081 60.4313 16.1756C60.7287 15.7453 61.2444 15.3416 61.9783 14.9646C62.7122 14.5875 63.9355 14.126 65.6483 13.58V13.2412C65.6483 12.3769 65.4911 11.7838 65.1765 11.4618C64.8556 11.1412 64.403 10.9802 63.8029 10.9802C63.4072 10.9614 63.0185 11.0768 62.7181 11.3022C62.5916 11.3913 62.4891 11.5036 62.4178 11.6311C62.3466 11.7586 62.3083 11.8982 62.3056 12.04L62.3281 12.5888C62.3461 12.8332 62.2546 13.0741 62.0729 13.2608C61.9871 13.3391 61.8833 13.4007 61.7682 13.4415C61.6531 13.4822 61.5295 13.5013 61.4054 13.4974C61.282 13.5006 61.1593 13.4802 61.0459 13.4376C60.9325 13.3951 60.8312 13.3314 60.749 13.251C60.5693 13.0634 60.4781 12.8231 60.4939 12.579C60.4939 12.0376 60.8121 11.5392 61.4487 11.0838C62.0852 10.6283 62.9786 10.401 64.1286 10.402C65.0112 10.402 65.7345 10.5317 66.2983 10.7912C66.7263 10.9901 67.0595 11.315 67.2386 11.7082C67.3692 11.9798 67.4339 12.5351 67.4328 13.3742V16.3142C67.4186 16.821 67.4368 17.3281 67.4874 17.8332C67.4993 17.9715 67.5623 18.1027 67.6671 18.207C67.7457 18.2691 67.8483 18.3031 67.9544 18.3022C68.0606 18.3043 68.1654 18.281 68.2577 18.235C68.5734 18.0278 68.8677 17.7969 69.1371 17.5448V18.0754C68.3261 19.0208 67.5521 19.4936 66.815 19.4936C66.6554 19.4996 66.4963 19.4739 66.3498 19.4184C66.2032 19.3628 66.0731 19.2789 65.9693 19.173C65.7628 18.9592 65.6558 18.5943 65.6483 18.0782ZM65.6483 17.4622V14.1596C64.9265 14.3941 64.2199 14.6629 63.5317 14.9646C63.0554 15.1732 62.637 15.4699 62.3056 15.834C62.0652 16.1229 61.936 16.4709 61.9365 16.828C61.9201 17.2433 62.0873 17.6483 62.4035 17.9592C62.5342 18.0977 62.698 18.2097 62.8834 18.2873C63.0689 18.3649 63.2715 18.4063 63.4771 18.4086C64.0281 18.4086 64.7518 18.0931 65.6483 17.4622V17.4622Z" fill="#252528"/>
<path d="M68.8711 10.6582H73.4975V11.0082H73.2697C73.0094 10.9942 72.7519 11.0623 72.5443 11.2C72.4663 11.2554 72.4037 11.3255 72.3612 11.405C72.3186 11.4846 72.2973 11.5715 72.2988 11.6592C72.2988 11.9042 72.4192 12.2458 72.6583 12.6812L75.0766 17.0534L77.3008 12.257C77.4203 12.015 77.483 11.7547 77.4854 11.4912C77.4925 11.4009 77.466 11.3111 77.4099 11.235C77.3395 11.1584 77.2454 11.1011 77.1387 11.0698C76.9267 11.0193 76.7067 10.9985 76.4872 11.0082V10.6582H79.7208V11.0082C79.5049 11.0201 79.2944 11.0717 79.1029 11.1594C78.9131 11.2712 78.7497 11.4138 78.6215 11.5794C78.4808 11.8154 78.3575 12.059 78.2524 12.3088L74.2052 20.958C73.8148 21.798 73.3034 22.4322 72.6711 22.8606C72.0388 23.289 71.4296 23.5037 70.8433 23.5046C70.4583 23.5174 70.0821 23.4024 69.7906 23.1826C69.6638 23.0934 69.5612 22.9809 69.4899 22.8531C69.4186 22.7254 69.3805 22.5855 69.3782 22.4434C69.3725 22.3245 69.3962 22.206 69.4477 22.0958C69.4992 21.9857 69.5773 21.8865 69.6766 21.805C69.9036 21.6356 70.1969 21.5493 70.4951 21.5642C70.8321 21.5835 71.1628 21.6536 71.4724 21.7714C71.6459 21.8373 71.8281 21.8843 72.0148 21.9114C72.2844 21.8908 72.5366 21.7864 72.7257 21.6174C72.9824 21.4233 73.2408 21.0448 73.5008 20.482L74.2052 18.977L70.6395 12.446C70.4911 12.1919 70.3199 11.9485 70.1276 11.718C70.0031 11.5524 69.853 11.4026 69.6815 11.2728C69.4341 11.1438 69.1624 11.0542 68.8791 11.0082L68.8711 10.6582Z" fill="#252528"/>
<path d="M82.9864 7.8092V10.6582H85.3085V11.3204H82.9864V16.94C82.9864 17.5 83.079 17.8789 83.2641 18.0768C83.3485 18.1703 83.4567 18.2453 83.58 18.2961C83.7034 18.3469 83.8386 18.372 83.975 18.3694C84.2232 18.3667 84.4647 18.2989 84.6682 18.1748C84.904 18.0339 85.0857 17.8344 85.1898 17.6022H85.6134C85.4171 18.1495 85.0437 18.6356 84.5382 19.0022C84.1355 19.2949 83.6308 19.4598 83.1068 19.4698C82.7622 19.4673 82.4247 19.3841 82.1295 19.229C81.8148 19.0713 81.5675 18.8286 81.425 18.5374C81.2731 18.2378 81.1971 17.7758 81.1971 17.1514V11.3204H79.6229V11.0082C80.0747 10.8405 80.4883 10.6034 80.8441 10.3082C81.2745 9.96174 81.6487 9.56561 81.9562 9.1308C82.222 8.70653 82.4542 8.26683 82.651 7.8148L82.9864 7.8092Z" fill="#252528"/>
<path d="M89.2582 10.402V17.367C89.2582 17.9102 89.3047 18.2714 89.3946 18.4506C89.4737 18.6199 89.6147 18.7617 89.7958 18.8538C89.9739 18.942 90.2965 18.9854 90.7666 18.9854V19.327H85.9396V18.9854C86.421 18.9854 86.7419 18.9448 86.9152 18.8636C87.0942 18.7686 87.2332 18.6257 87.3116 18.4562C87.41 18.2695 87.4587 17.9064 87.4576 17.367V14.0266C87.4576 13.0876 87.425 12.481 87.3598 12.2066C87.3345 12.0479 87.2512 11.9006 87.1223 11.7866C86.9943 11.7022 86.8363 11.66 86.6761 11.6676C86.4231 11.6761 86.1738 11.7235 85.9396 11.8076L85.7871 11.466L88.7816 10.4062L89.2582 10.402ZM88.3579 5.87017C88.5019 5.86943 88.6447 5.89361 88.778 5.94131C88.9112 5.98901 89.0323 6.05929 89.1343 6.14808C89.2362 6.23687 89.3169 6.34241 89.3718 6.4586C89.4267 6.57478 89.4546 6.69931 89.454 6.82497C89.456 6.95163 89.4286 7.07734 89.3735 7.19452C89.3183 7.3117 89.2365 7.41792 89.133 7.50677C89.0326 7.59761 88.9118 7.66937 88.7782 7.71755C88.6445 7.76573 88.5009 7.7893 88.3563 7.78677C88.2117 7.78677 88.0686 7.76192 87.935 7.71366C87.8015 7.6654 87.6801 7.59465 87.5779 7.50547C87.4757 7.41629 87.3946 7.31042 87.3393 7.1939C87.2839 7.07737 87.2554 6.95249 87.2554 6.82637C87.2554 6.70024 87.2839 6.57536 87.3393 6.45884C87.3946 6.34232 87.4757 6.23644 87.5779 6.14726C87.6801 6.05808 87.8015 5.98734 87.935 5.93907C88.0686 5.89081 88.2117 5.86597 88.3563 5.86597L88.3579 5.87017Z" fill="#252528"/>
<path d="M99.9997 16.0328C99.7322 17.1752 99.208 18.0539 98.427 18.669C97.646 19.284 96.7816 19.5916 95.8337 19.5916C94.7051 19.5916 93.7213 19.1786 92.8826 18.3526C92.0438 17.5266 91.6266 16.4098 91.6309 15.0024C91.6309 13.6388 92.0952 12.5314 93.0238 11.6802C93.4462 11.2739 93.9621 10.95 94.5379 10.7297C95.1136 10.5095 95.7362 10.3978 96.3649 10.402C97.3417 10.402 98.144 10.6278 98.772 11.0796C99.4 11.5313 99.7146 11.998 99.7156 12.4796C99.7206 12.5874 99.6997 12.695 99.6541 12.7953C99.6084 12.8956 99.5392 12.9865 99.4508 13.062C99.2465 13.2187 98.9795 13.2987 98.7078 13.2846C98.5262 13.2952 98.3442 13.2682 98.1768 13.2056C98.0095 13.1431 97.8615 13.0468 97.745 12.9248C97.6214 12.7932 97.5396 12.5398 97.5011 12.1674C97.4868 11.8446 97.3291 11.5393 97.0614 11.3162C96.7606 11.1152 96.3868 11.0157 96.0087 11.0362C95.6753 11.0267 95.3441 11.0851 95.0411 11.2066C94.738 11.3281 94.4716 11.5094 94.2627 11.7362C93.6753 12.355 93.3822 13.1721 93.3833 14.1876C93.3614 15.1556 93.6649 16.108 94.2563 16.9274C94.8393 17.7198 95.6262 18.116 96.6169 18.116C97.3213 18.1172 98.0014 17.8914 98.5265 17.4818C98.9223 17.1906 99.3091 16.6637 99.6867 15.9012L99.9997 16.0328Z" fill="#252528"/>
<path d="M27.1032 4.35541C25.6717 3.01197 23.9445 1.93404 22.0247 1.18601C20.105 0.437992 18.0321 0.0352271 15.93 0.00178105C13.8278 -0.031665 11.7395 0.304894 9.78977 0.991353C7.84005 1.67781 6.06893 2.70008 4.58223 3.99709C3.09553 5.29411 1.92375 6.83925 1.1369 8.5402C0.350045 10.2412 -0.0357363 12.063 0.00260122 13.897C0.0409387 15.7309 0.502608 17.5393 1.36003 19.2141C2.21745 20.8889 3.45303 22.3958 4.99295 23.6446C6.42445 24.9881 8.15166 26.066 10.0714 26.814C11.9911 27.562 14.064 27.9648 16.1662 27.9982C18.2683 28.0317 20.3567 27.6951 22.3064 27.0087C24.2561 26.3222 26.0272 25.2999 27.5139 24.0029C29.0006 22.7059 30.1724 21.1608 30.9592 19.4598C31.7461 17.7589 32.1319 15.937 32.0935 14.103C32.0552 12.2691 31.5935 10.4607 30.7361 8.7859C29.8787 7.11111 28.6431 5.60427 27.1032 4.35541V4.35541ZM5.16787 23.492C3.14222 21.5941 1.79021 19.2248 1.27531 16.6707C0.76041 14.1166 1.10468 11.487 2.26648 9.10001C1.31886 11.4407 1.18491 13.9735 1.88145 16.3804C2.57799 18.7873 4.07398 20.9611 6.18163 22.6289C8.28929 24.2967 10.9147 25.3842 13.7283 25.7549C16.5419 26.1255 19.4183 25.7629 21.9964 24.7124C24.5746 23.6619 26.7396 21.9704 28.2198 19.8503C29.6999 17.7301 30.4292 15.2758 30.3161 12.7953C30.2031 10.3149 29.2526 7.91879 27.5841 5.9079C25.9156 3.89702 23.6034 2.36091 20.9377 1.49241C23.1708 2.08852 25.2192 3.1197 26.9283 4.50801C29.6391 7.05573 31.1123 10.421 31.0382 13.8966C30.9642 17.3722 29.3486 20.6874 26.5311 23.1455C23.7135 25.6035 19.9135 27.013 15.9296 27.0776C11.9457 27.1422 8.08819 25.857 5.16787 23.492V23.492ZM16.1684 0.912809C19.7544 0.97373 23.1812 2.2161 25.7605 4.39039C28.3398 6.56467 29.8806 9.50985 30.0734 12.6344C30.2662 15.7589 29.0968 18.8314 26.8 21.2347C24.5032 23.638 21.2491 25.1942 17.6913 25.5906C18.8409 25.4214 19.9606 25.1235 21.0228 24.7044C22.9561 24.0207 24.6769 22.9481 26.0448 21.574C27.4126 20.1998 28.3889 18.5631 28.8939 16.7973C29.3989 15.0315 29.4183 13.1865 28.9507 11.4128C28.4831 9.6392 27.5415 7.98708 26.2029 6.59121C24.384 4.52715 21.8389 3.0409 18.9582 2.36062C16.0776 1.68033 13.0206 1.84361 10.2566 2.82538C7.49262 3.80715 5.17431 5.55316 3.65758 7.79538C2.14085 10.0376 1.50951 12.6521 1.86048 15.2376C1.55006 13.5296 1.65374 11.7837 2.16484 10.1128C2.67593 8.44187 3.58307 6.88305 4.82766 5.53701C6.24056 4.1155 7.98042 2.96918 9.93423 2.17251C11.888 1.37585 14.0121 0.946654 16.1684 0.912809V0.912809ZM16.0481 2.45281C12.7099 2.45536 9.49601 3.55798 7.05004 5.53987C4.60407 7.52175 3.10657 10.2366 2.85742 13.1407C2.60826 16.0449 3.62585 18.924 5.7064 21.2014C7.78695 23.4789 10.7769 24.9866 14.0774 25.4226C12.1767 25.257 10.339 24.7367 8.68903 23.8969C7.03907 23.0572 5.61547 21.9176 4.5148 20.5556C3.41412 19.1936 2.66214 17.6409 2.30986 16.003C1.95759 14.3651 2.01326 12.6803 2.47311 11.0628C2.93295 9.44534 3.78621 7.93308 4.97499 6.62863C6.16377 5.32418 7.66026 4.25806 9.36293 3.50262C11.0656 2.74718 12.9346 2.32008 14.8431 2.2503C16.7517 2.18052 18.6551 2.4697 20.4242 3.09821C19.0178 2.66843 17.5382 2.44928 16.0481 2.45001V2.45281ZM0.241283 13.65C0.242506 11.2035 1.00913 8.80378 2.45851 6.70942C3.90789 4.61506 5.98504 2.90556 8.46602 1.76522C10.947 0.62487 13.7377 0.0969394 16.5373 0.238339C19.3369 0.379738 22.0391 1.1851 24.3527 2.56761C21.9564 1.34091 19.2276 0.696062 16.4493 0.700009H16.1684H15.8876C13.7327 0.699028 11.6049 1.11959 9.66087 1.93076C7.71684 2.74193 6.00604 3.92305 4.65435 5.38721C2.50331 7.542 1.18126 10.2312 0.874375 13.076C0.56749 15.9208 1.29124 18.7779 2.94368 21.245C1.18017 19.0113 0.237611 16.3623 0.241283 13.65V13.65ZM16.4493 27.79C13.3403 27.7932 10.3039 26.9709 7.74349 25.4324C10.7302 26.956 14.2114 27.5732 17.6428 27.1875C21.0743 26.8018 24.2625 25.4349 26.7089 23.3006C29.1554 21.1663 30.7221 18.3849 31.1642 15.3913C31.6064 12.3977 30.8989 9.36061 29.1525 6.75501C30.7372 8.77339 31.6603 11.1308 31.8224 13.5732C31.9845 16.0156 31.3793 18.4502 30.0722 20.6147C28.7651 22.7791 26.8056 24.5912 24.4049 25.8557C22.0043 27.1201 19.2535 27.7889 16.4493 27.79V27.79Z" fill="#FF0642"/>
<path d="M16.0478 21.2142C-0.232366 13.4666 11.5417 3.83601 16.0478 10.3222C20.554 3.83601 32.328 13.4666 16.0478 21.2142Z" fill="white"/>
</g>
<defs>
<clipPath id="clip0_2810_230">
<rect width="100" height="28" fill="white"/>
</clipPath>
</defs>
</svg>
