<svg width="32" height="32" viewBox="0 0 32 32" fill="none" xmlns="http://www.w3.org/2000/svg">
<g clip-path="url(#clip0_1227_1555)">
<path d="M29.1034 1.66869C28.6533 2.74355 28.0823 3.76424 27.3946 4.70161C24.3855 1.69369 20.3011 0.0022583 16.0458 0.0022583C7.24355 0.0022583 0 7.25126 0 16.0625C0 20.4578 1.80047 24.6655 4.98463 27.6984L5.57645 28.2234C8.46887 30.6605 12.1323 32.002 15.9125 32.002C24.2813 32.002 31.3165 25.4446 31.9125 17.0874C32.3501 12.9963 31.1498 7.82201 29.1034 1.66869ZM7.26439 27.7901C7.00599 28.1109 6.61006 28.2983 6.19745 28.2983C5.44308 28.2983 4.82626 27.6776 4.82626 26.9235C4.82626 26.1695 5.44725 25.5487 6.19745 25.5487C6.51003 25.5487 6.81844 25.657 7.06017 25.857C7.64783 26.3319 7.73952 27.2027 7.26439 27.7901ZM29.0367 22.9824C25.0774 28.2608 16.621 26.4819 11.1988 26.7361C11.1988 26.7361 10.236 26.7944 9.26908 26.9527C9.26908 26.9527 9.63168 26.7986 10.1026 26.6194C13.9078 25.2946 15.7083 25.0363 18.0214 23.849C22.3767 21.6326 26.682 16.7833 27.578 11.7381C25.9193 16.5916 20.8929 20.7619 16.3126 22.4575C13.1743 23.6157 7.50612 24.7405 7.50612 24.7405L7.2769 24.6197C3.41756 22.7408 3.30086 14.3794 10.3152 11.6798C13.3868 10.4966 16.3251 11.1465 19.6426 10.355C23.1852 9.51344 27.2821 6.85548 28.9492 3.38929C30.8164 8.93436 33.0628 17.6165 29.0367 22.9824V22.9824Z" fill="#77BC1F"/>
</g>
<defs>
<clipPath id="clip0_1227_1555">
<rect width="32" height="32" fill="white"/>
</clipPath>
</defs>
</svg>
