<svg width="100" height="28" viewBox="0 0 100 28" fill="none" xmlns="http://www.w3.org/2000/svg">
<g clip-path="url(#clip0_2810_157)">
<path d="M13.9227 27.8455C21.612 27.8455 27.8455 21.612 27.8455 13.9227C27.8455 6.23342 21.612 0 13.9227 0C6.23342 0 0 6.23342 0 13.9227C0 21.612 6.23342 27.8455 13.9227 27.8455Z" fill="white"/>
<path d="M1.98399 21.0846C4.08075 24.5653 9.12635 24.6502 11.2203 21.1625C11.8834 20.0575 12.2561 18.8026 12.3035 17.5148L12.3703 15.7327C12.3703 15.7327 9.189 18.6356 7.87748 18.4574C7.43474 18.3975 7.77167 17.576 7.93178 17.1681C8.5402 15.6366 12.2367 11.8775 12.2367 11.8775C12.2367 11.8775 12.5305 6.53393 13.0526 5.06926C13.3227 4.31604 13.6359 3.96658 13.9227 3.82874C14.2095 3.96797 14.5228 4.31326 14.7929 5.06926C15.315 6.53393 15.6088 11.8705 15.6088 11.8705C15.6088 11.8705 19.3053 15.6296 19.9137 17.1681C20.0738 17.576 20.4107 18.3975 19.968 18.4574C18.6565 18.6356 15.4751 15.7327 15.4751 15.7327L15.5419 17.5148C15.5921 18.8753 16.005 20.1976 16.7379 21.3449C18.8402 24.6335 23.7202 24.5472 25.7738 21.2294C27.1128 19.0655 27.8296 16.5745 27.8455 14.0299C27.9025 6.47267 21.8141 0.18099 14.2569 -5.90806e-06C11.765 -0.0601373 9.30274 0.54979 7.12708 1.7661C4.95142 2.9824 3.14219 4.76048 1.88827 6.91468C0.634359 9.06888 -0.0182491 11.5202 -0.00141273 14.0127C0.0154237 16.5052 0.701087 18.9475 1.98399 21.0846V21.0846Z" fill="#FBB03B"/>
<path d="M37.069 4.78663C37.069 11.9471 30.9917 17.7515 23.4943 17.7515C15.997 17.7515 9.91969 11.9471 9.91969 4.78663C9.91969 -2.37382 13.5605 -4.87296 21.0579 -4.87296C28.5553 -4.87296 37.069 -2.37522 37.069 4.78663Z" fill="url(#paint0_linear_2810_157)"/>
<path d="M15.8371 26.0188C15.8371 34.0438 -4.35085 28.039 -4.35085 20.0139C-4.35085 11.9888 -5.23495 11.4862 2.26244 11.4862C9.75983 11.4862 15.8371 17.9923 15.8371 26.0188Z" fill="url(#paint1_linear_2810_157)"/>
<path d="M38.7308 12.3133H35.8446V17.6262C35.8446 18.0703 35.9546 18.3933 36.1759 18.6008C36.3973 18.8082 36.7217 18.9196 37.1505 18.9447C37.678 18.9706 38.2065 18.9664 38.7335 18.9321V21.9213C36.4688 22.1757 34.8723 21.9626 33.9441 21.2823C33.0159 20.6019 32.5519 19.3842 32.5519 17.629V12.3133H30.3242V9.14584H32.5519V6.56457L35.8446 5.56909V9.14584H38.7308V12.3133Z" fill="#262933"/>
<path d="M45.0673 11.3429C45.338 10.5679 45.8767 9.91511 46.5862 9.50227C47.3063 9.09043 48.1236 8.8789 48.9531 8.88967V12.5681C48.0097 12.4355 47.0506 12.654 46.2577 13.1821C45.4659 13.7093 45.07 14.5864 45.07 15.8134V21.9186H41.7676V9.14585H45.0673V11.3429Z" fill="#262933"/>
<path d="M53.6755 16.8855C54.1182 18.4866 55.3188 19.2872 57.2773 19.2872C58.5378 19.2872 59.4915 18.8616 60.1384 18.0104L62.7949 19.5419C61.5353 21.3649 59.6776 22.2764 57.2216 22.2764C55.1109 22.2764 53.4165 21.6378 52.1384 20.3606C50.8603 19.0834 50.2217 17.474 50.2227 15.5322C50.2227 13.6081 50.8529 12.0028 52.1134 10.7163C53.3738 9.42986 54.993 8.7871 56.971 8.78803C58.8441 8.78803 60.3895 9.43497 61.6073 10.7289C62.825 12.0227 63.4339 13.6239 63.4339 15.5322C63.4311 15.9862 63.3882 16.439 63.3058 16.8855H53.6755ZM53.624 14.3307H60.1454C59.9597 13.4637 59.5722 12.8168 58.9828 12.3898C58.4012 11.9656 57.6978 11.7414 56.978 11.7508C56.0925 11.7508 55.3601 11.9768 54.781 12.4288C54.2018 12.8808 53.8161 13.5148 53.624 14.3307V14.3307Z" fill="#262933"/>
<path d="M74.1378 9.14584H77.766L72.9112 21.9186H69.152L64.3027 9.14584H67.9296L71.0218 18.087L74.1378 9.14584Z" fill="#262933"/>
<path d="M89.0581 9.14584H92.3536V21.9186H89.0581V20.4107C88.0687 21.6545 86.6806 22.2764 84.8938 22.2764C83.1906 22.2764 81.7301 21.6266 80.5124 20.3272C79.2946 19.0277 78.6857 17.4313 78.6857 15.5378C78.6857 13.6471 79.2946 12.0501 80.5124 10.747C81.7301 9.44379 83.1906 8.79406 84.8938 8.79778C86.6815 8.79778 88.0696 9.41919 89.0581 10.662V9.14584ZM82.9795 18.1246C83.6431 18.7966 84.4859 19.1331 85.5078 19.134C85.978 19.148 86.4461 19.0656 86.8833 18.892C87.3205 18.7184 87.7176 18.4573 88.0501 18.1246C88.7231 17.4517 89.0595 16.5875 89.0595 15.5322C89.0595 14.4769 88.7231 13.6123 88.0501 12.9384C87.3763 12.2655 86.5288 11.9295 85.5078 11.9304C84.4868 11.9313 83.644 12.2673 82.9795 12.9384C82.3158 13.6123 81.9835 14.4769 81.9826 15.5322C81.9817 16.5875 82.314 17.4517 82.9795 18.1246Z" fill="#262933"/>
<path d="M97.7983 22.2764C99.0147 22.2764 100.001 21.2902 100.001 20.0738C100.001 18.8573 99.0147 17.8712 97.7983 17.8712C96.5818 17.8712 95.5957 18.8573 95.5957 20.0738C95.5957 21.2902 96.5818 22.2764 97.7983 22.2764Z" fill="#262933"/>
</g>
<defs>
<linearGradient id="paint0_linear_2810_157" x1="31.479" y1="15.2036" x2="15.3913" y2="-4.0543" gradientUnits="userSpaceOnUse">
<stop stop-color="#01DDA5"/>
<stop offset="1" stop-color="#3CADE2"/>
</linearGradient>
<linearGradient id="paint1_linear_2810_157" x1="13.0066" y1="29.9366" x2="-2.01044" y2="11.9596" gradientUnits="userSpaceOnUse">
<stop stop-color="#FF8A11"/>
<stop offset="1" stop-color="#E81894"/>
</linearGradient>
<clipPath id="clip0_2810_157">
<rect width="100" height="27.8455" fill="white"/>
</clipPath>
</defs>
</svg>
