<svg width="20" height="21" viewBox="0 0 20 21" fill="none" xmlns="http://www.w3.org/2000/svg">
<rect width="20" height="20" rx="4" fill="#5DA8DC"/>
<path d="M8.03458 15.393C12.699 15.393 15.2498 11.5273 15.2498 8.17517C15.2498 8.06538 15.2475 7.9561 15.2426 7.84728C15.7389 7.48801 16.1673 7.04319 16.5075 6.53366C16.0531 6.73574 15.5642 6.87175 15.0513 6.93307C15.5748 6.61902 15.9768 6.12219 16.1664 5.52996C15.6686 5.82537 15.124 6.03362 14.5561 6.14572C14.0934 5.65263 13.4346 5.34424 12.7051 5.34424C11.3047 5.34424 10.1691 6.4803 10.1691 7.88066C10.1691 8.07975 10.1913 8.27334 10.2348 8.45909C8.12723 8.353 6.25834 7.34356 5.00759 5.80864C4.78232 6.19578 4.66383 6.63577 4.66422 7.08367C4.66422 7.96379 5.1119 8.74073 5.79271 9.19529C5.39 9.18298 4.99613 9.07417 4.64423 8.878C4.64385 8.88865 4.64385 8.89903 4.64385 8.91041C4.64385 10.1389 5.51795 11.1647 6.67829 11.3971C6.46036 11.4565 6.23548 11.4865 6.00961 11.4864C5.84649 11.4864 5.68752 11.4703 5.53302 11.4406C5.85586 12.4486 6.79201 13.1821 7.90193 13.2026C7.03399 13.8831 5.94065 14.2884 4.75235 14.2884C4.55021 14.2886 4.34823 14.2769 4.14746 14.2533C5.26977 14.9729 6.60239 15.3928 8.0347 15.3928" fill="white"/>
</svg>
