<svg width="32" height="32" viewBox="0 0 32 32" fill="none" xmlns="http://www.w3.org/2000/svg">
<g id="typescript 1">
<path id="Vector" d="M0 16V0H32V32H0" fill="#007ACC"/>
<path id="Vector_2" d="M7.01599 16.056V17.36H11.176V29.2H14.128V17.36H18.288V16.08C18.288 15.36 18.288 14.776 18.256 14.76C18.256 14.736 15.72 14.728 12.64 14.728L7.03999 14.752V16.064L7.01599 16.056V16.056ZM25.712 14.72C26.528 14.912 27.152 15.28 27.712 15.864C28.008 16.184 28.448 16.744 28.48 16.888C28.48 16.936 27.096 17.872 26.256 18.392C26.224 18.416 26.096 18.28 25.968 18.072C25.552 17.48 25.128 17.224 24.464 17.176C23.504 17.112 22.864 17.616 22.864 18.456C22.864 18.712 22.912 18.856 23.008 19.064C23.224 19.504 23.624 19.768 24.864 20.312C27.152 21.296 28.144 21.944 28.744 22.872C29.424 23.912 29.576 25.544 29.12 26.768C28.608 28.104 27.36 29.008 25.576 29.304C25.016 29.4 23.736 29.384 23.136 29.28C21.856 29.04 20.632 28.4 19.88 27.576C19.584 27.256 19.016 26.4 19.048 26.344L19.352 26.152L20.552 25.456L21.456 24.928L21.664 25.208C21.928 25.624 22.52 26.184 22.864 26.376C23.904 26.912 25.296 26.84 25.984 26.216C26.28 25.944 26.408 25.656 26.408 25.256C26.408 24.888 26.352 24.72 26.168 24.44C25.912 24.088 25.4 23.8 23.96 23.16C22.304 22.456 21.6 22.008 20.944 21.32C20.568 20.904 20.224 20.256 20.064 19.72C19.944 19.256 19.904 18.12 20.016 17.664C20.36 16.064 21.568 14.944 23.296 14.624C23.856 14.512 25.176 14.56 25.728 14.704L25.712 14.72V14.72Z" fill="white"/>
</g>
</svg>
