<svg width="100" height="26" viewBox="0 0 100 26" fill="none" xmlns="http://www.w3.org/2000/svg">
<g clip-path="url(#clip0_2810_180)">
<path d="M0 7.7753H2.38607L5.24034 17.1158H5.31752L8.39433 7.7753H10.6762L6.5112 19.6508H4.03509L0 7.7753Z" fill="black"/>
<path d="M10.9043 14.2545V13C10.9043 9.75 12.7771 7.5686 15.8758 7.5686C18.9745 7.5686 20.8254 9.7994 20.8254 13.1118V14.2389H13.145V14.4872C13.145 16.5932 14.2371 18.0141 16.0096 18.0141C17.2959 18.0141 18.1718 17.3641 18.5063 16.3007H20.6814C20.2955 18.239 18.7519 19.8497 15.9646 19.8497C12.8543 19.8536 10.9043 17.7138 10.9043 14.2545ZM18.6066 12.5749V12.5411C18.6066 10.7731 17.5261 9.3873 15.8874 9.3873C14.2152 9.3873 13.145 10.7835 13.145 12.5411V12.5749H18.6066Z" fill="black"/>
<path d="M22.7305 3.4606H24.9712V19.6508H22.7305V3.4606Z" fill="black"/>
<path d="M37.2255 13.1833V14.1869C37.2255 17.4876 35.4312 19.8536 32.0804 19.8536C28.7296 19.8536 26.9082 17.4876 26.9082 14.1869V13.195C26.9082 9.98401 28.7257 7.57251 32.0804 7.57251C35.4196 7.57251 37.2255 9.97231 37.2255 13.1833ZM29.1759 13.2405V14.1505C29.1759 16.3917 30.1689 17.9582 32.0752 17.9582C33.9815 17.9582 34.9629 16.3982 34.9629 14.1505V13.2405C34.9629 10.9642 33.9815 9.44321 32.0752 9.44321C30.1689 9.44321 29.1759 10.9759 29.1759 13.2405Z" fill="black"/>
<path d="M38.6191 13.1053C38.6191 9.87091 40.4817 7.57251 43.6138 7.57251C46.4231 7.57251 48.1158 9.42111 48.2187 11.3919H46.05C45.9354 10.8593 45.6451 10.3819 45.2268 10.038C44.8084 9.69407 44.2868 9.50405 43.7476 9.49911C41.9468 9.49911 40.883 10.8849 40.883 13.1612V14.2207C40.883 16.4736 41.9969 17.9166 43.7592 17.9166C45.1638 17.9166 45.9458 17.1275 46.1336 16.1928H48.2856C47.9512 18.434 46.3343 19.8536 43.6138 19.8536C40.4482 19.8536 38.6191 17.4772 38.6191 14.209V13.1053Z" fill="black"/>
<path d="M51.1493 3.53861C51.4099 3.54704 51.6622 3.63283 51.8749 3.78527C52.0875 3.93772 52.251 4.15007 52.345 4.39584C52.439 4.6416 52.4593 4.9099 52.4034 5.16726C52.3475 5.42461 52.2178 5.65963 52.0306 5.84299C51.8434 6.02635 51.6069 6.14993 51.3506 6.19832C51.0943 6.2467 50.8296 6.21774 50.5895 6.11506C50.3494 6.01238 50.1446 5.84052 50.0005 5.62092C49.8564 5.40132 49.7795 5.1437 49.7794 4.88021C49.78 4.70057 49.8162 4.52287 49.8858 4.35756C49.9554 4.19226 50.057 4.0427 50.1846 3.91769C50.3123 3.79267 50.4634 3.69473 50.6291 3.62963C50.7947 3.56453 50.9716 3.53358 51.1493 3.53861V3.53861ZM50.0238 7.77531H52.2761V19.6508H50.0238V7.77531Z" fill="black"/>
<path d="M55.4748 4.84641H57.6937V7.77531H60.0013V9.62001H57.6937V16.1993C57.6937 17.5513 58.1734 17.9127 59.5446 17.9127C59.7453 17.9127 59.9241 17.901 60.0797 17.8893V19.6586C59.7182 19.7124 59.3531 19.7389 58.9877 19.7379C56.1578 19.7379 55.4529 18.6784 55.4529 16.3124V9.62001H53.8477V7.77531H55.4748V4.84641Z" fill="black"/>
<path d="M67.6943 19.5832L67.3933 20.41C66.691 22.2911 65.7764 23.959 63.1485 23.959C62.7043 23.9559 62.2608 23.922 61.8211 23.8576V22.0844C62.1171 22.1236 62.4153 22.1427 62.7138 22.1416C64.1287 22.1416 64.6754 21.4916 64.9648 20.3385L65.1217 19.7756L60.877 7.7753H63.3736L66.3321 17.3303H66.4093L69.387 7.7753H71.7744C71.7744 7.7753 67.7059 19.539 67.6943 19.5832Z" fill="black"/>
<path d="M87.1363 0C90.5478 0 93.8195 1.36964 96.2318 3.80761C98.644 6.24558 99.9992 9.55219 99.9992 13C99.9992 16.4478 98.644 19.7544 96.2318 22.1924C93.8195 24.6304 90.5478 26 87.1363 26H77.3605C76.5418 26 75.7566 25.6713 75.1776 25.0862C74.5987 24.5011 74.2734 23.7075 74.2734 22.88V13C74.2734 9.55219 75.6286 6.24558 78.0409 3.80761C80.4532 1.36964 83.7249 0 87.1363 0V0Z" fill="url(#paint0_linear_2810_180)"/>
<path d="M85.2189 23.4728L83.3126 22.0428L87.4287 16.4021C87.2062 16.432 87.0158 16.4554 86.8602 16.4697C86.7045 16.484 86.5772 16.4918 86.4743 16.4918C85.0842 16.4918 83.8798 15.9575 82.8611 14.8889C82.3686 14.3838 81.9808 13.7844 81.7204 13.1259C81.46 12.4674 81.3322 11.763 81.3446 11.0539C81.3332 10.2932 81.4769 9.53822 81.7665 8.83599C82.0562 8.13375 82.4857 7.49924 83.0283 6.97191C83.5546 6.4236 84.1861 5.98964 84.8842 5.69659C85.5822 5.40354 86.3321 5.25756 87.0878 5.26761C87.8474 5.26004 88.6009 5.40521 89.3045 5.69468C90.008 5.98414 90.6476 6.41212 91.186 6.95371C92.3462 8.06911 92.9263 9.38514 92.9263 10.9018C92.9263 12.2469 92.3612 13.7007 91.231 15.2633L85.2189 23.4728ZM83.8811 10.8628C83.8765 11.5151 84.0636 12.1541 84.4186 12.6989C84.7736 13.2437 85.2806 13.6697 85.8753 13.9231C86.4701 14.1764 87.1259 14.2457 87.7596 14.1221C88.3933 13.9985 88.9765 13.6876 89.4353 13.2288C89.7393 12.9253 89.9806 12.5639 90.1453 12.1654C90.3099 11.767 90.3948 11.3395 90.3948 10.9077C90.3948 10.4758 90.3099 10.0483 90.1453 9.64988C89.9806 9.25144 89.7393 8.89 89.4353 8.58651C88.8234 7.97584 87.998 7.63342 87.138 7.63342C86.278 7.63342 85.4527 7.97584 84.8407 8.58651C84.5341 8.87967 84.2907 9.2336 84.1256 9.62616C83.9605 10.0187 83.8773 10.4415 83.8811 10.868V10.8628Z" fill="white"/>
</g>
<defs>
<linearGradient id="paint0_linear_2810_180" x1="74.2734" y1="13" x2="99.9992" y2="13" gradientUnits="userSpaceOnUse">
<stop stop-color="#FF8A11"/>
<stop offset="1" stop-color="#E81894"/>
</linearGradient>
<clipPath id="clip0_2810_180">
<rect width="100" height="26" fill="white"/>
</clipPath>
</defs>
</svg>
