<svg width="26" height="20" viewBox="0 0 26 20" fill="none" xmlns="http://www.w3.org/2000/svg">
<path d="M24.9145 3.98618C24.4145 2.44755 22.76 1.51573 21.2372 1.30209C15.7602 0.720267 10.237 0.720267 4.75997 1.30209C3.23724 1.51573 1.57815 2.43846 1.0827 3.98618C0.303164 7.95815 0.303164 12.0438 1.0827 16.0157C1.5827 17.5521 3.23724 18.4862 4.75997 18.6998C10.237 19.2816 15.7602 19.2816 21.2372 18.6998C22.76 18.4862 24.4191 17.5635 24.9145 16.0157C25.694 12.0438 25.694 7.95815 24.9145 3.98618ZM10.0077 14.7907V5.20891L17.8077 9.99982C15.1782 11.6157 12.6259 13.1816 10.0077 14.7907Z" fill="white"/>
</svg>
