<svg width="394" height="365" viewBox="0 0 394 365" fill="none" xmlns="http://www.w3.org/2000/svg">
<path d="M81.4733 236.557H24.8739V356.434H81.4733V236.557Z" fill="white" stroke="#4F48ED" stroke-linecap="round" stroke-linejoin="round"/>
<path d="M84.5672 236.557H53.1685V356.434H84.5672V236.557Z" fill="white" stroke="#4F48ED" stroke-linecap="round" stroke-linejoin="round"/>
<path d="M81.0342 236.557H53.1685V356.434H81.0342V236.557Z" fill="#4F48ED" stroke="#4F48ED" stroke-linecap="round" stroke-linejoin="round"/>
<path d="M77.8994 328.558H53.1685V353.105H77.8994V328.558Z" fill="#EDEDFD" stroke="#4F48ED" stroke-linecap="round" stroke-linejoin="round"/>
<path d="M77.8994 329.885H53.1685V333.03H77.8994V329.885Z" fill="white" stroke="#4F48ED" stroke-linecap="round" stroke-linejoin="round"/>
<path d="M77.8994 347.959H53.1685V351.104H77.8994V347.959Z" fill="white" stroke="#4F48ED" stroke-linecap="round" stroke-linejoin="round"/>
<path d="M57.8553 329.069V360.11" stroke="#4F48ED" stroke-linecap="round" stroke-linejoin="round"/>
<path d="M66.4835 329.069V360.11" stroke="#4F48ED" stroke-linecap="round" stroke-linejoin="round"/>
<path d="M74.0602 329.069V360.11" stroke="#4F48ED" stroke-linecap="round" stroke-linejoin="round"/>
<path d="M77.8994 241.009H53.1685V277.105H77.8994V241.009Z" fill="#EDEDFD" stroke="#4F48ED" stroke-linecap="round" stroke-linejoin="round"/>
<path d="M77.8994 242.521H53.1685V246.094H77.8994V242.521Z" fill="white" stroke="#4F48ED" stroke-linecap="round" stroke-linejoin="round"/>
<path d="M77.8994 265.658H53.1685V269.232H77.8994V265.658Z" fill="white" stroke="#4F48ED" stroke-linecap="round" stroke-linejoin="round"/>
<path d="M57.8553 241.581V276.86" stroke="#4F48ED" stroke-linecap="round" stroke-linejoin="round"/>
<path d="M66.4835 241.581V276.86" stroke="#4F48ED" stroke-linecap="round" stroke-linejoin="round"/>
<path d="M74.0602 241.581V276.86" stroke="#4F48ED" stroke-linecap="round" stroke-linejoin="round"/>
<path d="M77.8994 284.508H53.1685V320.604H77.8994V284.508Z" fill="#EDEDFD" stroke="#4F48ED" stroke-linecap="round" stroke-linejoin="round"/>
<path d="M77.8994 286.019H53.1685V289.593H77.8994V286.019Z" fill="white" stroke="#4F48ED" stroke-linecap="round" stroke-linejoin="round"/>
<path d="M77.8994 309.157H53.1685V312.731H77.8994V309.157Z" fill="white" stroke="#4F48ED" stroke-linecap="round" stroke-linejoin="round"/>
<path d="M57.8553 285.09V320.359" stroke="#4F48ED" stroke-linecap="round" stroke-linejoin="round"/>
<path d="M66.4835 285.09V320.359" stroke="#4F48ED" stroke-linecap="round" stroke-linejoin="round"/>
<path d="M74.0602 285.09V320.359" stroke="#4F48ED" stroke-linecap="round" stroke-linejoin="round"/>
<path d="M81.463 276.605H53.1685V280.71H81.463V276.605Z" fill="white" stroke="#4F48ED" stroke-linecap="round" stroke-linejoin="round"/>
<path d="M81.463 320.379H53.1685V324.484H81.463V320.379Z" fill="white" stroke="#4F48ED" stroke-linecap="round" stroke-linejoin="round"/>
<path d="M81.4631 236.557V356.424" stroke="#4F48ED" stroke-linecap="round" stroke-linejoin="round"/>
<path d="M49.176 236.557V356.424H53.1685V241.009H80.9729V236.506L49.176 236.557Z" fill="white" stroke="#4F48ED" stroke-linecap="round" stroke-linejoin="round"/>
<path d="M53.1685 241.009V236.557" stroke="#4F48ED" stroke-linecap="round" stroke-linejoin="round"/>
<path d="M81.2486 181.49C78.2772 175.761 77.0315 171.656 77.0315 170.707C77.0315 168.828 81.1159 167.705 81.1159 167.705C87.4875 164.335 117.457 169.206 130.945 171.452C138.496 172.769 146.135 173.519 153.797 173.699C153.797 173.699 155.666 172.208 157.882 170.329C160.098 168.45 170.615 156.095 174.74 155.013C178.865 153.93 182.603 156.514 182.603 156.514C182.603 156.514 189.352 160.598 188.219 161.384C187.085 162.17 170.615 176.364 166.49 178.988C162.364 181.612 153.757 180.489 146.262 181.99C139.808 183.276 113.668 184.869 107.675 185.359C103.173 186.427 98.4487 186.034 94.1859 184.236" fill="white"/>
<path d="M182.674 156.473C182.674 156.473 178.927 153.848 174.812 154.972C170.697 156.095 160.2 168.46 157.953 170.288C155.707 172.116 153.869 173.658 153.869 173.658C146.206 173.479 138.568 172.728 131.017 171.411C117.528 169.165 87.5589 164.264 81.1873 167.664C81.1873 167.664 77.1029 168.787 77.1029 170.666C77.2448 171.716 77.5157 172.745 77.9096 173.729L78.4712 173.933C78.4712 173.933 85.9558 173.147 102.11 173.535C118.263 173.923 155.625 176.139 158.025 177.007C159.046 177.395 166.285 175.761 174.311 172.923C180.438 167.929 187.637 161.69 188.362 161.251C189.423 160.588 182.674 156.473 182.674 156.473Z" fill="#EDEDFD"/>
<path opacity="0.5" d="M182.674 156.473C182.674 156.473 178.927 153.848 174.812 154.972C170.697 156.095 160.2 168.46 157.953 170.288C155.707 172.116 153.869 173.658 153.869 173.658C146.206 173.479 138.568 172.728 131.017 171.411C117.528 169.165 87.5589 164.264 81.1873 167.664C81.1873 167.664 77.1029 168.787 77.1029 170.666C77.2448 171.716 77.5157 172.745 77.9096 173.729L78.4712 173.933C78.4712 173.933 85.9558 173.147 102.11 173.535C118.263 173.923 155.625 176.139 158.025 177.007C159.046 177.395 166.285 175.761 174.311 172.923C180.438 167.929 187.637 161.69 188.362 161.251C189.423 160.588 182.674 156.473 182.674 156.473Z" fill="white"/>
<path d="M81.2486 181.49C78.2772 175.761 77.0315 171.656 77.0315 170.707C77.0315 168.828 81.1159 167.705 81.1159 167.705C87.4875 164.335 117.457 169.206 130.945 171.452C138.496 172.769 146.135 173.519 153.797 173.699C153.797 173.699 155.666 172.208 157.882 170.329C160.098 168.45 170.615 156.095 174.74 155.013C178.865 153.93 182.603 156.514 182.603 156.514C182.603 156.514 189.352 160.598 188.219 161.384C187.085 162.17 170.615 176.364 166.49 178.988C162.364 181.612 153.757 180.489 146.262 181.99C139.808 183.276 113.668 184.869 107.675 185.359C103.173 186.427 98.4487 186.034 94.1859 184.236" stroke="#4F48ED" stroke-linecap="round" stroke-linejoin="round"/>
<path d="M229.216 214.798C229.893 213.511 230.91 212.435 232.155 211.684C233.401 210.934 234.828 210.538 236.282 210.54H304.389C304.389 210.54 309.31 210.54 307.84 219.893C306.37 229.246 286.172 286.356 281.292 303.623C276.411 320.89 275.379 357.281 275.379 357.281H193.692C193.692 357.281 200.166 270.253 229.216 214.798Z" fill="white"/>
<path opacity="0.16" d="M259.889 210.54H236.282C234.828 210.538 233.401 210.934 232.155 211.684C230.91 212.435 229.893 213.511 229.216 214.798C200.165 270.253 193.62 357.251 193.62 357.251H230.257L239.294 322.932L276.972 330.702C277.238 327.823 277.544 324.892 277.901 322.003L277.074 312.813C277.074 312.813 269.355 304.695 266.925 302.663C264.494 300.631 266.108 296.965 265.699 281.128C265.291 265.291 251.077 253.906 245.788 244.154C240.499 234.403 248.637 228.307 255.948 218.555C258.552 215.033 259.614 212.439 259.889 210.54Z" fill="#4F48ED"/>
<path d="M229.216 214.798C229.893 213.511 230.91 212.435 232.155 211.684C233.401 210.934 234.828 210.538 236.282 210.54H304.389C304.389 210.54 309.31 210.54 307.84 219.893C306.37 229.246 286.172 286.356 281.292 303.623C276.411 320.89 275.379 357.281 275.379 357.281H193.692C193.692 357.281 200.166 270.253 229.216 214.798Z" stroke="#4F48ED" stroke-linecap="round" stroke-linejoin="round"/>
<path d="M292.575 226.785C285.692 242.847 271.132 306.431 268.763 357.251H275.338C275.338 357.251 276.36 320.818 281.251 303.592C286.142 286.366 306.359 229.246 307.799 219.862C309.239 210.478 304.348 210.509 304.348 210.509C304.348 210.509 298.099 213.909 292.575 226.785Z" fill="#4F48ED" stroke="#4F48ED" stroke-linecap="round" stroke-linejoin="round"/>
<path d="M172.933 194.682C172.933 194.682 162.068 188.31 157.953 177.078C153.838 165.846 190.169 147.855 205.945 146.731C221.721 145.608 226.173 149.723 235.557 165.836C244.941 181.949 251.292 204.046 246.421 214.91C241.551 225.774 233.31 228.399 239.273 237.374C245.237 246.35 262.126 271.836 261.002 283.824C259.879 295.811 248.269 306.288 231.391 307.431C214.512 308.575 192.048 298.436 173.321 281.904C154.594 265.373 159.454 241.06 166.173 233.198C172.892 225.335 183.031 222.333 183.777 214.471C184.522 206.608 172.933 194.682 172.933 194.682Z" fill="#4F48ED" stroke="#4F48ED" stroke-linecap="round" stroke-linejoin="round"/>
<path d="M77.0316 170.707C77.0269 170.778 77.0269 170.85 77.0316 170.921C77.0269 170.85 77.0269 170.778 77.0316 170.707ZM81.2487 181.49C79.5289 178.34 78.1593 175.012 77.1643 171.565C78.1545 175.014 79.5243 178.342 81.2487 181.49ZM77.052 170.982C77.052 171.044 77.052 171.115 77.052 171.207C77.0724 171.115 77.0622 171.044 77.052 170.982ZM77.103 171.268C77.1156 171.369 77.1361 171.468 77.1643 171.565C77.1361 171.468 77.1156 171.369 77.103 171.268ZM81.2487 181.479C85.0675 188.713 89.8187 195.414 95.3806 201.411C108.869 216.023 147.834 254.243 151.541 256.867C155.247 259.491 154.165 266.976 151.541 274.471C148.917 281.965 139.175 292.85 139.553 304.818C139.931 316.785 143.638 335.165 143.301 338.912C142.964 342.659 133.59 355.403 133.59 355.403H230.247C230.247 355.403 218.198 340.086 218.198 334.848C218.198 329.61 234.74 262.493 235.485 257.622C236.231 252.752 233.239 249.382 227.245 249.004C221.251 248.627 198.399 243.756 197.276 240.009C196.153 236.261 203.27 222.027 203.27 222.027L180.806 223.15C180.806 223.15 179.682 232.892 178.181 234.77C176.68 236.649 174.434 232.892 169.185 230.278C163.937 227.664 153.869 225.407 150.081 222.405C146.292 219.403 110.37 185.645 110.37 185.645" fill="white"/>
<path d="M155.819 225.295C157.688 228.562 159.557 231.513 159.557 231.513C159.557 231.513 165.857 235.056 167.429 235.056C169.002 235.056 178.457 240.162 178.457 240.162C178.457 240.162 186.34 238.191 183.563 231.493C182.686 229.778 181.58 228.191 180.275 226.775C179.805 229.747 179.049 233.637 178.161 234.75C176.66 236.619 174.413 232.871 169.165 230.257C165.765 228.562 160.261 227.01 155.819 225.295Z" fill="#EDEDFD"/>
<path d="M136.582 210.131C125.013 199.42 110.37 185.686 110.37 185.686L101.854 184.461L100.833 185.033C100.833 185.033 124.87 206.302 129.986 208.671C132.055 209.622 134.304 210.12 136.582 210.131Z" fill="#EDEDFD"/>
<path d="M148.702 221.22L147.783 220.404C148.253 221.18 148.518 221.67 148.518 221.67L148.702 221.22Z" fill="#EDEDFD"/>
<path opacity="0.5" d="M155.819 225.295C157.688 228.562 159.557 231.513 159.557 231.513C159.557 231.513 165.857 235.056 167.429 235.056C169.002 235.056 178.457 240.162 178.457 240.162C178.457 240.162 186.34 238.191 183.563 231.493C182.686 229.778 181.58 228.191 180.275 226.775C179.805 229.747 179.049 233.637 178.161 234.75C176.66 236.619 174.413 232.871 169.165 230.257C165.765 228.562 160.261 227.01 155.819 225.295Z" fill="white"/>
<path opacity="0.5" d="M136.582 210.131C125.013 199.42 110.37 185.686 110.37 185.686L101.854 184.461L100.833 185.033C100.833 185.033 124.87 206.302 129.986 208.671C132.055 209.622 134.304 210.12 136.582 210.131Z" fill="white"/>
<path opacity="0.5" d="M148.702 221.22L147.783 220.404C148.253 221.18 148.518 221.67 148.518 221.67L148.702 221.22Z" fill="white"/>
<path d="M81.2487 181.479C85.0675 188.713 89.8187 195.414 95.3806 201.411C108.869 216.023 147.834 254.243 151.541 256.867C155.247 259.491 154.165 266.976 151.541 274.471C148.917 281.965 139.175 292.85 139.553 304.818C139.931 316.785 143.638 335.164 143.301 338.912C142.964 342.659 133.59 355.403 133.59 355.403H230.247C230.247 355.403 218.198 340.086 218.198 334.848C218.198 329.61 234.74 262.493 235.485 257.622C236.231 252.752 233.239 249.382 227.245 249.004C221.251 248.627 198.399 243.756 197.276 240.009C196.153 236.261 203.27 222.027 203.27 222.027L180.806 223.15C180.806 223.15 179.682 232.892 178.181 234.77C176.68 236.649 174.434 232.892 169.185 230.278C163.937 227.664 153.869 225.407 150.081 222.405C146.292 219.403 110.37 185.645 110.37 185.645M77.0316 170.707C77.0269 170.778 77.0269 170.85 77.0316 170.921C77.0269 170.85 77.0269 170.778 77.0316 170.707V170.707ZM81.2487 181.49C79.5289 178.34 78.1593 175.012 77.1643 171.565C78.1545 175.014 79.5243 178.342 81.2487 181.49V181.49ZM77.052 170.982C77.052 171.044 77.052 171.115 77.052 171.207C77.0724 171.115 77.0622 171.044 77.052 170.982V170.982ZM77.103 171.268C77.1156 171.369 77.1361 171.468 77.1643 171.565C77.1361 171.468 77.1156 171.369 77.103 171.268Z" stroke="#4F48ED" stroke-linecap="round" stroke-linejoin="round"/>
<path d="M110.37 185.686C110.37 185.686 98.4031 185.911 91.7251 180.407" stroke="#4F48ED" stroke-linecap="round" stroke-linejoin="round"/>
<path d="M197.286 240.009C196.163 236.271 203.28 222.027 203.28 222.027L180.816 223.15C180.816 223.15 179.693 232.892 178.192 234.77C176.691 236.649 174.444 232.892 169.196 230.278C168.797 230.073 168.358 229.879 167.909 229.685L166.551 251.036C166.551 251.036 168.522 271.714 192.15 267.782C201.718 266.189 211.929 257.653 220.741 248.055C211.673 246.39 198.144 242.878 197.286 240.009Z" fill="white"/>
<path d="M196.653 224.855C196.653 224.855 195.295 232.473 194.202 240.897C193.11 249.321 192.303 255.59 192.303 255.59L197.286 240.008V235.373L202.902 223.497C202.902 223.497 197.47 223.497 196.653 224.855Z" fill="#EDEDFD"/>
<path opacity="0.5" d="M196.653 224.855C196.653 224.855 195.295 232.473 194.202 240.897C193.11 249.321 192.303 255.59 192.303 255.59L197.286 240.008L197.872 234.104L202.902 223.497C202.902 223.497 197.47 223.497 196.653 224.855Z" fill="white"/>
<path d="M197.286 240.009C196.163 236.271 203.28 222.027 203.28 222.027L180.816 223.15C180.816 223.15 179.693 232.892 178.192 234.77C176.691 236.649 174.444 232.892 169.196 230.278C168.797 230.073 168.358 229.879 167.909 229.685L166.551 251.036C166.551 251.036 168.522 271.714 192.15 267.782C201.718 266.189 211.929 257.653 220.741 248.055C211.673 246.39 198.144 242.878 197.286 240.009Z" stroke="#4F48ED" stroke-linecap="round" stroke-linejoin="round"/>
<path d="M178.181 234.77C176.68 236.639 174.434 232.891 169.185 230.277C165.877 228.613 160.608 227.102 156.248 225.468C155.013 222.537 153.379 218.719 152.327 216.411C150.459 212.327 147.457 214.91 147.457 214.91C145.89 213.129 144.625 211.104 143.709 208.916C141.84 204.832 138.838 205.169 134.723 204.423C130.608 203.678 121.98 195.805 121.98 195.805C121.98 195.805 117.947 192.742 116.282 191.22C114.342 195.039 109.696 201.758 99.6488 205.955C115.67 222.691 148.171 254.488 151.582 256.877C155.329 259.491 154.206 266.986 151.582 274.481C148.958 281.975 139.216 292.86 139.594 304.828C139.972 316.795 143.678 335.175 143.342 338.922C143.005 342.261 135.53 352.727 133.907 354.974L137.715 355.402H157.545C157.433 345.355 157.443 304.348 164.315 288.01C172.187 269.232 178.181 234.77 178.181 234.77Z" fill="#EDEDFD"/>
<path opacity="0.16" d="M169.185 230.277C165.877 228.613 160.608 227.102 156.248 225.468C155.013 222.537 153.379 218.719 152.327 216.411C150.459 212.327 147.457 214.91 147.457 214.91C145.89 213.129 144.625 211.104 143.709 208.916C141.841 204.832 138.839 205.169 134.723 204.423C130.608 203.678 121.98 195.805 121.98 195.805C121.98 195.805 117.947 192.742 116.283 191.22C115.452 192.842 114.464 194.378 113.332 195.805C120.03 201.472 127.423 207.476 130.006 208.671C135.112 211.03 136.306 209.059 140.217 211.428C144.128 213.797 148.488 221.639 148.488 221.639C148.488 221.639 150.857 215.329 152.828 219.668C154.798 224.008 159.526 231.482 159.526 231.482C159.526 231.482 165.826 235.025 167.399 235.025C168.634 235.025 174.689 238.17 177.262 239.529C177.834 236.537 178.151 234.74 178.151 234.74C176.68 236.639 174.434 232.891 169.185 230.277Z" fill="#4F48ED"/>
<path d="M178.181 234.77C176.68 236.639 174.434 232.891 169.185 230.277C165.877 228.613 160.608 227.102 156.248 225.468C155.013 222.537 153.379 218.719 152.327 216.411C150.459 212.327 147.457 214.91 147.457 214.91C145.89 213.129 144.625 211.104 143.709 208.916C141.84 204.832 138.838 205.169 134.723 204.423C130.608 203.678 121.98 195.805 121.98 195.805C121.98 195.805 117.947 192.742 116.282 191.22C114.342 195.039 109.696 201.758 99.6488 205.955C115.67 222.691 148.171 254.488 151.582 256.877C155.329 259.491 154.206 266.986 151.582 274.481C148.958 281.975 139.216 292.86 139.594 304.828C139.972 316.795 143.678 335.175 143.342 338.922C143.005 342.261 135.53 352.727 133.907 354.974L137.715 355.402H157.545C157.433 345.355 157.443 304.348 164.315 288.01C172.187 269.232 178.181 234.77 178.181 234.77Z" stroke="#4F48ED" stroke-linecap="round" stroke-linejoin="round"/>
<path d="M178.447 233.463C178.447 233.463 173.791 232.034 170.921 234.546C168.052 237.058 163.774 249.944 161.251 263.923C159.697 272.06 160.77 280.481 164.315 287.969C164.315 287.969 170.207 272.52 171.993 264.995C173.78 257.469 178.447 233.463 178.447 233.463Z" fill="#EDEDFD"/>
<path opacity="0.16" d="M169.512 235.741C169.512 235.741 172.882 234.924 174.271 235.393C175.44 235.895 176.533 236.558 177.518 237.364L178.447 233.464C177.053 232.751 175.472 232.491 173.923 232.718C171.605 233.188 169.512 235.741 169.512 235.741Z" fill="#4F48ED"/>
<path d="M178.447 233.463C178.447 233.463 173.791 232.034 170.921 234.546C168.052 237.058 163.774 249.944 161.251 263.923C159.697 272.06 160.77 280.481 164.315 287.969C164.315 287.969 170.207 272.52 171.993 264.995C173.78 257.469 178.447 233.463 178.447 233.463Z" stroke="#4F48ED" stroke-linecap="round" stroke-linejoin="round"/>
<path d="M186.575 355.403H230.257C230.257 355.403 218.208 340.086 218.208 334.848C218.208 329.61 234.75 262.493 235.495 257.622C236.241 252.752 233.249 249.382 227.255 249.004C221.261 248.627 198.409 243.756 197.286 240.009C197.286 240.009 188.668 270.356 185.676 290.961C183.103 308.636 185.768 345.314 186.575 355.403Z" fill="#EDEDFD"/>
<path opacity="0.16" d="M227.255 249.004C222.344 248.698 206.118 245.369 199.798 242.122L202.095 247.432C206.258 249.64 210.735 251.197 215.37 252.047C222.977 253.405 230.053 253.14 234.678 259.94L234.903 260.277C235.189 258.97 235.383 258.051 235.444 257.623C236.251 252.752 233.249 249.382 227.255 249.004Z" fill="#4F48ED"/>
<path d="M186.575 355.403H230.257C230.257 355.403 218.208 340.086 218.208 334.848C218.208 329.61 234.75 262.493 235.495 257.622C236.241 252.752 233.249 249.382 227.255 249.004C221.261 248.627 198.409 243.756 197.286 240.009C197.286 240.009 188.668 270.356 185.676 290.961C183.103 308.636 185.768 345.314 186.575 355.403Z" stroke="#4F48ED" stroke-linecap="round" stroke-linejoin="round"/>
<path d="M197.286 240.009C197.286 240.009 185.727 276.768 185.676 290.961C185.676 290.961 202.095 271.08 204.24 257.112C206.384 243.143 197.286 240.009 197.286 240.009Z" fill="#EDEDFD"/>
<path opacity="0.16" d="M195.295 244.706C197.032 244.647 198.757 245.013 200.32 245.771C201.884 246.529 203.24 247.656 204.27 249.055C204.27 249.055 202.004 242.388 197.286 240.009L195.295 244.706Z" fill="#4F48ED"/>
<path d="M197.286 240.009C197.286 240.009 185.727 276.768 185.676 290.961C185.676 290.961 202.095 271.08 204.24 257.112C206.384 243.143 197.286 240.009 197.286 240.009Z" stroke="#4F48ED" stroke-linecap="round" stroke-linejoin="round"/>
<path d="M320.685 348.49C320.685 348.49 329.15 348.837 334.695 349.633C338.392 350.135 342.115 350.431 345.845 350.522C345.845 350.522 342.782 344.334 339.514 342.588C336.247 340.842 330.325 337.717 325.362 338.412C320.4 339.106 313.303 344.109 313.895 345.702C314.487 347.295 317.132 348.01 320.685 348.49Z" fill="white"/>
<path d="M320.685 348.49C320.685 348.49 329.15 348.837 334.695 349.633C338.392 350.135 342.115 350.431 345.845 350.522C345.845 350.522 342.782 344.334 339.514 342.588C336.247 340.842 330.325 337.717 325.362 338.412C320.4 339.106 313.303 344.109 313.895 345.702C314.487 347.295 317.132 348.01 320.685 348.49Z" fill="#EDEDFD"/>
<path opacity="0.5" d="M320.685 348.49C320.685 348.49 329.15 348.837 334.695 349.633C338.392 350.135 342.115 350.431 345.845 350.522C345.845 350.522 342.782 344.334 339.514 342.588C336.247 340.842 330.325 337.717 325.362 338.412C320.4 339.106 313.303 344.109 313.895 345.702C314.487 347.295 317.132 348.01 320.685 348.49Z" fill="white"/>
<path d="M320.685 348.49C320.685 348.49 329.15 348.837 334.695 349.633C338.392 350.135 342.115 350.431 345.845 350.522C345.845 350.522 342.782 344.334 339.514 342.588C336.247 340.842 330.325 337.717 325.362 338.412C320.4 339.106 313.303 344.109 313.895 345.702C314.487 347.295 317.132 348.01 320.685 348.49Z" stroke="#4F48ED" stroke-linecap="round" stroke-linejoin="round"/>
<path d="M334.746 345.957C334.746 345.957 341.455 342.475 343.129 342.526C344.804 342.577 355.934 350.103 355.382 351.308C355.008 351.867 354.467 352.293 353.837 352.528C353.207 352.763 352.518 352.793 351.87 352.615C350.634 352.033 343.139 348.847 343.139 348.847L338.238 350.001L334.746 345.957Z" fill="white"/>
<path d="M334.746 345.957C334.746 345.957 341.455 342.475 343.129 342.526C344.804 342.577 355.934 350.103 355.382 351.308C354.831 352.513 352.196 353.493 351.87 352.615C351.543 351.737 343.139 348.847 343.139 348.847L338.238 350.001L334.746 345.957Z" fill="#EDEDFD"/>
<path opacity="0.5" d="M334.746 345.957C334.746 345.957 341.455 342.475 343.129 342.526C344.804 342.577 355.934 350.103 355.382 351.308C354.831 352.513 352.196 353.493 351.87 352.615C351.543 351.737 343.139 348.847 343.139 348.847L338.238 350.001L334.746 345.957Z" fill="white"/>
<path d="M334.746 345.957C334.746 345.957 341.455 342.475 343.129 342.526C344.804 342.577 355.934 350.103 355.382 351.308C355.008 351.867 354.467 352.293 353.837 352.528C353.207 352.763 352.518 352.793 351.87 352.615C350.634 352.033 343.139 348.847 343.139 348.847L338.238 350.001L334.746 345.957Z" stroke="#4F48ED" stroke-linecap="round" stroke-linejoin="round"/>
<path d="M329.957 340.229C329.957 340.229 338.902 339.943 340.678 340.842C342.455 341.74 350.481 355.505 349.276 356.505C348.071 357.506 344.742 357.21 344.845 356.097C344.947 354.984 337.452 347.612 337.452 347.612L331.621 346.335L329.957 340.229Z" fill="white"/>
<path d="M329.957 340.229C329.957 340.229 338.902 339.943 340.678 340.842C342.455 341.74 350.481 355.505 349.276 356.505C348.071 357.506 344.742 357.21 344.845 356.097C344.947 354.984 337.452 347.612 337.452 347.612L331.621 346.335L329.957 340.229Z" fill="#EDEDFD"/>
<path opacity="0.5" d="M329.957 340.229C329.957 340.229 338.902 339.943 340.678 340.842C342.455 341.74 350.481 355.505 349.276 356.505C348.071 357.506 344.742 357.21 344.845 356.097C344.947 354.984 337.452 347.612 337.452 347.612L331.621 346.335L329.957 340.229Z" fill="white"/>
<path d="M329.957 340.229C329.957 340.229 338.902 339.943 340.678 340.842C342.455 341.74 350.481 355.505 349.276 356.505C348.071 357.506 344.742 357.21 344.845 356.097C344.947 354.984 337.452 347.612 337.452 347.612L331.621 346.335L329.957 340.229Z" stroke="#4F48ED" stroke-linecap="round" stroke-linejoin="round"/>
<path d="M324.657 338.381C324.657 338.381 333.714 338.085 335.512 339.004C337.309 339.923 345.437 353.84 344.211 354.861C342.986 355.882 339.637 355.566 339.739 354.443C339.841 353.32 332.254 345.855 332.254 345.855L326.352 344.559L324.657 338.381Z" fill="white"/>
<path d="M324.657 338.381C324.657 338.381 333.714 338.085 335.512 339.004C337.309 339.923 345.437 353.84 344.211 354.861C342.986 355.882 339.637 355.566 339.739 354.443C339.841 353.32 332.254 345.855 332.254 345.855L326.352 344.559L324.657 338.381Z" fill="#EDEDFD"/>
<path opacity="0.5" d="M324.657 338.381C324.657 338.381 333.714 338.085 335.512 339.004C337.309 339.923 345.437 353.84 344.211 354.861C342.986 355.882 339.637 355.566 339.739 354.443C339.841 353.32 332.254 345.855 332.254 345.855L326.352 344.559L324.657 338.381Z" fill="white"/>
<path d="M324.657 338.381C324.657 338.381 333.714 338.085 335.512 339.004C337.309 339.923 345.437 353.84 344.211 354.861C342.986 355.882 339.637 355.566 339.739 354.443C339.841 353.32 332.254 345.855 332.254 345.855L326.352 344.559L324.657 338.381Z" stroke="#4F48ED" stroke-linecap="round" stroke-linejoin="round"/>
<path d="M221.68 286.489C228.235 296.587 241.397 322.176 245.237 325.056C251.23 329.548 291.298 340.454 295.158 343.435C299.018 346.417 298.752 349.409 302.408 350.501C306.063 351.594 319.766 354.729 324.994 355.219C330.222 355.709 327.884 352.472 327.884 352.472L318.97 346.345L326.741 344.426C326.741 344.426 334.531 353.799 335.992 354.31C337.452 354.821 340.025 354.31 339.862 353.156C339.576 351.308 331.264 336.186 328.313 335.542C325.362 334.899 307.452 337.38 307.452 337.38C307.452 337.38 269.886 312.047 269.212 311.148C269.212 311.148 266.966 304.777 265.128 302.152C263.29 299.528 262.126 300.284 262.126 300.284C262.126 300.284 262.881 296.904 261.758 295.781L255.764 289.787L255.55 290.073C254.529 288.031 253.508 285.703 252.384 283.048C249.25 275.665 238.15 254.947 236.282 251.955C234.883 249.719 223.161 248.116 217.218 247.442" fill="#EDEDFD"/>
<path opacity="0.16" d="M247.779 287.132C252.68 291.482 251.047 291.482 249.954 295.301C248.861 299.12 250.771 293.943 255.396 294.219C260.022 294.494 258.664 300.468 258.113 301.56C257.561 302.653 263.831 304.011 262.738 306.451C261.646 308.892 255.396 312.435 251.863 315.978C248.33 319.521 261.104 310.26 265.454 309.994C266.782 309.903 267.874 310.076 268.793 310.056C267.829 307.324 266.591 304.696 265.097 302.214C263.218 299.59 262.095 300.345 262.095 300.345C262.095 300.345 262.85 296.965 261.727 295.842L255.733 289.848L255.519 290.134C254.498 288.092 253.477 285.764 252.354 283.109C249.219 275.727 238.119 255.008 236.251 252.017C234.852 249.78 223.13 248.177 217.187 247.503L217.728 252.231L217.861 252.333C217.861 252.333 225.203 253.691 227.653 253.967C230.104 254.243 233.096 256.407 232.82 258.051C232.544 259.695 225.478 267.027 227.653 267.578C229.828 268.13 232.279 262.136 234.729 262.953C237.18 263.769 242.847 282.782 247.779 287.132Z" fill="#4F48ED"/>
<path d="M221.68 286.489C228.235 296.587 241.397 322.176 245.237 325.056C251.23 329.548 291.298 340.454 295.158 343.435C299.018 346.417 298.752 349.409 302.408 350.501C306.063 351.594 319.766 354.729 324.994 355.219C330.222 355.709 327.884 352.472 327.884 352.472L318.97 346.345L326.741 344.426C326.741 344.426 334.531 353.799 335.992 354.31C337.452 354.821 340.025 354.31 339.862 353.156C339.576 351.308 331.264 336.186 328.313 335.542C325.362 334.899 307.452 337.38 307.452 337.38C307.452 337.38 269.886 312.047 269.212 311.148C269.212 311.148 266.966 304.777 265.128 302.152C263.29 299.528 262.126 300.284 262.126 300.284C262.126 300.284 262.881 296.904 261.758 295.781L255.764 289.787L255.55 290.073C254.529 288.031 253.508 285.703 252.384 283.048C249.25 275.665 238.15 254.947 236.282 251.955C234.883 249.719 223.161 248.116 217.218 247.442" stroke="#4F48ED" stroke-linecap="round" stroke-linejoin="round"/>
<path d="M231.707 255.733C228.498 259.391 225.792 263.46 223.661 267.833" stroke="#4F48ED" stroke-linecap="round" stroke-linejoin="round"/>
<path d="M243.654 312.282C243.654 312.282 248.668 299.743 253.681 296.516C258.695 293.289 255.825 299.743 255.825 299.743" stroke="#4F48ED" stroke-linecap="round" stroke-linejoin="round"/>
<path d="M295.158 343.446C299.028 346.437 298.752 349.419 302.408 350.512C306.063 351.604 319.766 354.739 324.994 355.229C330.222 355.719 327.884 352.482 327.884 352.482L318.97 346.356L326.74 344.436C326.74 344.436 334.531 353.81 335.992 354.32C337.452 354.831 340.229 355.015 339.861 353.166C339.147 349.593 331.264 336.196 328.313 335.553C325.362 334.909 307.452 337.391 307.452 337.391C307.452 337.391 273.235 313.905 269.488 311.363C254.957 312.762 248.045 320.369 245.134 324.933L245.237 325.015C251.23 329.549 291.298 340.454 295.158 343.446Z" fill="white"/>
<path d="M339.851 353.207C337.993 348.663 331.254 336.237 328.303 335.593C325.352 334.95 307.442 337.431 307.442 337.431C307.442 337.431 273.225 313.946 269.477 311.404C265.664 311.735 261.922 312.641 258.378 314.089C263.78 317.152 299.784 337.574 304.327 338.483C309.147 339.504 325.229 336.859 328.058 338.759C329.855 339.964 335.205 348.449 338.82 354.473C339.851 354.32 340.229 354.126 339.851 353.207Z" fill="#EDEDFD"/>
<path opacity="0.5" d="M339.851 353.207C336.951 346.703 331.254 336.237 328.303 335.593C325.352 334.95 307.442 337.431 307.442 337.431C307.442 337.431 273.225 313.946 269.477 311.404C265.664 311.735 261.922 312.641 258.378 314.089C263.78 317.152 299.784 337.574 304.327 338.483C309.147 339.504 325.229 336.859 328.058 338.759C329.855 339.964 335.205 348.449 338.82 354.473C339.851 354.32 340.26 354.116 339.851 353.207Z" fill="white"/>
<path d="M295.158 343.446C299.028 346.437 298.752 349.419 302.408 350.512C306.063 351.604 319.766 354.739 324.994 355.229C330.222 355.719 327.884 352.482 327.884 352.482L318.97 346.356L326.74 344.436C326.74 344.436 334.531 353.81 335.992 354.32C337.452 354.831 340.229 355.015 339.861 353.166C339.147 349.593 331.264 336.196 328.313 335.553C325.362 334.909 307.452 337.391 307.452 337.391C307.452 337.391 273.235 313.905 269.488 311.363C254.957 312.762 248.045 320.369 245.134 324.933L245.237 325.015C251.23 329.549 291.298 340.454 295.158 343.446Z" stroke="#4F48ED" stroke-linecap="round" stroke-linejoin="round"/>
<path d="M204.914 165.142L174.158 177.977C173.786 183.382 172.447 188.677 170.207 193.61C166.571 201.299 168.695 215.849 172.188 223.702C175.68 231.554 191.068 228.48 196.694 227.5C200.51 226.774 204.247 225.683 207.854 224.243C209.497 224.876 211.274 225.081 213.017 224.838C214.76 224.595 216.413 223.912 217.82 222.854C217.82 222.854 201.36 176.65 204.914 165.142Z" fill="white"/>
<path d="M204.914 165.142L174.158 177.977C173.786 183.382 172.447 188.677 170.207 193.61C166.571 201.299 168.695 215.849 172.188 223.702C172.772 224.964 173.713 226.029 174.893 226.765V226.173C174.893 226.173 169.186 212.031 170.268 203.872C171.35 195.713 175.986 191.619 176.527 186.462C177.068 181.306 176.793 178.855 187.136 175.046C197.48 171.238 201.82 167.705 202.902 171.503C203.984 175.302 208.345 200.339 211.336 206.323C214.328 212.306 214.052 218.576 209.437 221.282C204.772 224.082 199.774 226.284 194.56 227.837L196.735 227.459C200.551 226.733 204.288 225.643 207.895 224.202C209.538 224.835 211.314 225.04 213.058 224.797C214.801 224.554 216.454 223.871 217.861 222.813C217.861 222.813 201.36 176.65 204.914 165.142Z" fill="#EDEDFD"/>
<path opacity="0.5" d="M204.914 165.142L174.158 177.977C173.786 183.382 172.447 188.677 170.207 193.61C166.571 201.299 168.695 215.849 172.188 223.702C172.772 224.964 173.713 226.029 174.893 226.765V226.173C174.893 226.173 169.186 212.031 170.268 203.872C171.35 195.713 175.986 191.619 176.527 186.462C177.068 181.306 176.793 178.855 187.136 175.046C197.48 171.238 201.82 167.705 202.902 171.503C203.984 175.302 208.345 200.339 211.336 206.323C214.328 212.306 214.052 218.576 209.437 221.282C204.772 224.082 199.774 226.284 194.56 227.837L196.735 227.459C200.551 226.733 204.288 225.643 207.895 224.202C209.538 224.835 211.314 225.04 213.058 224.797C214.801 224.554 216.454 223.871 217.861 222.813C217.861 222.813 201.36 176.65 204.914 165.142Z" fill="white"/>
<path d="M204.914 165.142L174.158 177.977C173.786 183.382 172.447 188.677 170.207 193.61C166.571 201.299 168.695 215.849 172.188 223.702C175.68 231.554 191.068 228.48 196.694 227.5C200.51 226.774 204.247 225.683 207.854 224.243C209.497 224.876 211.274 225.081 213.017 224.838C214.76 224.595 216.413 223.912 217.82 222.854C217.82 222.854 201.36 176.65 204.914 165.142Z" stroke="#4F48ED" stroke-linecap="round" stroke-linejoin="round"/>
<path d="M189.372 185.268C189.456 187.076 189.231 188.885 188.709 190.618C187.892 192.66 180.183 200.686 180.417 201.554C180.652 202.422 181.347 205.21 182.715 205.475" stroke="#4F48ED" stroke-linecap="round" stroke-linejoin="round"/>
<path d="M197.919 192.446C198.991 190.302 202.514 192.395 202.463 197.225" stroke="#4F48ED" stroke-linecap="round" stroke-linejoin="round"/>
<path d="M180.458 186.136C180.458 186.136 183.46 184.818 186.146 189.679" stroke="#4F48ED" stroke-linecap="round" stroke-linejoin="round"/>
<path d="M193.651 199.522C197.12 199.697 200.418 201.08 202.973 203.433" stroke="#4F48ED" stroke-width="0.5" stroke-linecap="round" stroke-linejoin="round"/>
<path d="M176.833 193.14C178.627 193.38 180.379 193.864 182.041 194.58" stroke="#4F48ED" stroke-width="0.5" stroke-linecap="round" stroke-linejoin="round"/>
<path d="M189.036 180.734C188.243 180.315 187.363 180.085 186.467 180.064C185.57 180.043 184.681 180.23 183.869 180.611C181.122 181.929 179.437 183.379 179.621 181.694C179.805 180.009 183.032 178.151 184.002 177.905C184.972 177.66 189.311 176.986 189.036 180.734Z" fill="#4F48ED"/>
<path d="M196.735 176.925C199.597 179.241 201.871 182.201 203.372 185.564C205.414 190.669 207.027 185.094 205.414 181.755C203.801 178.416 199.134 174.863 196.735 176.925Z" fill="#4F48ED"/>
<path d="M218.269 231.585C218.269 233.964 216.922 235.894 215.267 235.894C213.613 235.894 212.276 233.964 212.276 231.585C212.276 229.205 213.613 223.15 215.267 223.15C216.922 223.15 218.269 229.205 218.269 231.585Z" fill="#EDEDFD" stroke="#4F48ED" stroke-linecap="round" stroke-linejoin="round"/>
<path d="M198.185 191.517C198.067 191.829 197.975 192.15 197.909 192.476C197.613 193.988 197.317 197.143 197.909 197.276C198.501 197.408 199.951 194.457 200.206 192.946C200.264 192.65 200.298 192.349 200.308 192.048C199.611 191.829 198.902 191.652 198.185 191.517Z" fill="#4F48ED"/>
<path d="M180.765 185.84C180.674 186.106 180.602 186.379 180.55 186.656C180.244 188.168 180.254 191.486 180.897 191.609C181.541 191.731 182.592 188.627 182.889 187.116C182.962 186.749 183.003 186.377 183.011 186.003C182.28 185.802 181.517 185.746 180.765 185.84Z" fill="#4F48ED"/>
<path d="M197.919 192.497L198.94 190.598C200.559 190.913 202.026 191.761 203.106 193.007" stroke="#4F48ED" stroke-width="0.75" stroke-linecap="round" stroke-linejoin="round"/>
<path d="M180.765 185.84L181.786 184.645C181.786 184.645 182.225 184.431 184.635 185.523" stroke="#4F48ED" stroke-width="0.75" stroke-linecap="round" stroke-linejoin="round"/>
<path d="M176.895 213.532C176.895 213.532 178.61 210.376 180.908 210.376C183.205 210.376 184.92 215.533 184.92 215.533" stroke="#4F48ED" stroke-linecap="round" stroke-linejoin="round"/>
<path d="M102.957 349.603C100.737 349.492 98.556 348.973 96.5242 348.071C96.2409 347.966 95.9819 347.805 95.7629 347.597C95.544 347.389 95.3696 347.139 95.2506 346.861C95.1315 346.583 95.0701 346.284 95.0702 345.982C95.0704 345.68 95.132 345.382 95.2513 345.104C95.3706 344.827 95.5451 344.576 95.7643 344.368C95.9834 344.161 96.2426 343.999 96.526 343.895C96.8093 343.79 97.111 343.745 97.4127 343.76C97.7143 343.776 98.0096 343.853 98.2805 343.987C100.323 344.855 102.967 345.396 103.672 345.09C104.969 343.64 106.96 334.879 104.387 330.651C103.805 329.712 103.263 329.538 102.906 329.497C101.446 329.293 99.2812 330.794 98.5153 331.54C98.3021 331.741 98.0514 331.898 97.7775 332.002C97.5035 332.106 97.2117 332.156 96.9187 332.147C96.6257 332.139 96.3373 332.072 96.0699 331.952C95.8025 331.832 95.5613 331.661 95.3602 331.448C95.159 331.235 95.0019 330.984 94.8976 330.71C94.7934 330.436 94.7441 330.144 94.7527 329.851C94.7612 329.558 94.8273 329.27 94.9474 329.002C95.0674 328.735 95.2388 328.494 95.4521 328.293C95.8503 327.905 99.5364 324.586 103.468 325.117C104.443 325.259 105.372 325.624 106.183 326.184C106.994 326.744 107.665 327.483 108.144 328.344C111.933 334.521 109.339 346.274 106.429 348.602C105.418 349.318 104.194 349.67 102.957 349.603Z" fill="white"/>
<path d="M105.949 329.977C105.681 329.343 105.262 328.784 104.728 328.35C104.194 327.916 103.561 327.619 102.886 327.486C100.333 327.077 97.9333 329.64 97.6678 329.926C97.4237 330.22 97.2729 330.58 97.2347 330.961C97.1965 331.341 97.2726 331.724 97.4533 332.06C97.855 331.98 98.2263 331.789 98.5255 331.509C99.2913 330.794 101.456 329.293 102.916 329.467C103.274 329.467 103.815 329.681 104.397 330.621C106.97 334.807 104.979 343.609 103.682 345.059C102.977 345.365 100.343 344.824 98.2906 343.956C98.038 343.85 97.7681 343.791 97.4942 343.783C97.5128 344.062 97.601 344.333 97.7508 344.57C97.9006 344.808 98.1072 345.004 98.3519 345.141C99.643 345.83 101.067 346.234 102.528 346.325C103.362 346.365 104.178 346.079 104.805 345.529C106.725 343.762 108.42 334.725 105.949 329.977Z" fill="#EDEDFD"/>
<path opacity="0.5" d="M105.949 329.977C105.681 329.343 105.262 328.784 104.728 328.35C104.194 327.916 103.561 327.619 102.886 327.486C100.333 327.077 97.9333 329.64 97.6678 329.926C97.4237 330.22 97.2729 330.58 97.2347 330.961C97.1965 331.341 97.2726 331.724 97.4533 332.06C97.855 331.98 98.2263 331.789 98.5255 331.509C99.2913 330.794 101.456 329.293 102.916 329.467C103.274 329.467 103.815 329.681 104.397 330.621C106.97 334.807 104.979 343.609 103.682 345.059C102.977 345.365 100.343 344.824 98.2906 343.956C98.038 343.85 97.7681 343.791 97.4942 343.783C97.5128 344.062 97.601 344.333 97.7508 344.57C97.9006 344.808 98.1072 345.004 98.3519 345.141C99.643 345.83 101.067 346.234 102.528 346.325C103.362 346.365 104.178 346.079 104.805 345.529C106.725 343.762 108.42 334.725 105.949 329.977Z" fill="white"/>
<path d="M102.957 349.603C100.737 349.492 98.556 348.973 96.5242 348.071C96.2409 347.966 95.9819 347.805 95.7629 347.597C95.544 347.389 95.3696 347.139 95.2506 346.861C95.1315 346.583 95.0701 346.284 95.0702 345.982C95.0704 345.68 95.132 345.382 95.2513 345.104C95.3706 344.827 95.5451 344.576 95.7643 344.368C95.9834 344.161 96.2426 343.999 96.526 343.895C96.8093 343.79 97.111 343.745 97.4127 343.76C97.7143 343.776 98.0096 343.853 98.2805 343.987C100.323 344.855 102.967 345.396 103.672 345.09C104.969 343.64 106.96 334.879 104.387 330.651C103.805 329.712 103.263 329.538 102.906 329.497C101.446 329.293 99.2812 330.794 98.5153 331.54C98.3021 331.741 98.0514 331.898 97.7775 332.002C97.5035 332.106 97.2117 332.156 96.9187 332.147C96.6257 332.139 96.3373 332.072 96.0699 331.952C95.8025 331.832 95.5613 331.661 95.3602 331.448C95.159 331.235 95.0019 330.984 94.8976 330.71C94.7934 330.436 94.7441 330.144 94.7527 329.851C94.7612 329.558 94.8273 329.27 94.9474 329.002C95.0674 328.735 95.2388 328.494 95.4521 328.293C95.8503 327.905 99.5364 324.586 103.468 325.117C104.443 325.259 105.372 325.624 106.183 326.184C106.994 326.744 107.665 327.483 108.144 328.344C111.933 334.521 109.339 346.274 106.429 348.602C105.418 349.318 104.194 349.67 102.957 349.603V349.603Z" stroke="#4F48ED" stroke-linecap="round" stroke-linejoin="round"/>
<path d="M99.0566 323.259H74.4993V355.852H99.0566V323.259Z" fill="white"/>
<path d="M84.5571 323.259H74.4993V355.852H84.5571V323.259Z" fill="#EDEDFD"/>
<path opacity="0.5" d="M84.5571 323.259H74.4993V355.852H84.5571V323.259Z" fill="white"/>
<path d="M99.0566 323.259H74.4993V355.852H99.0566V323.259Z" stroke="#4F48ED" stroke-linecap="round" stroke-linejoin="round"/>
<path d="M234.005 355.403H129.097L125.677 297.731C125.582 297.172 125.61 296.599 125.758 296.052C125.907 295.504 126.172 294.996 126.536 294.561C126.9 294.126 127.354 293.775 127.867 293.533C128.379 293.29 128.939 293.162 129.506 293.157H233.555C234.126 293.156 234.69 293.28 235.207 293.52C235.725 293.76 236.184 294.11 236.553 294.545C236.921 294.981 237.19 295.492 237.341 296.042C237.492 296.592 237.52 297.169 237.425 297.731L234.005 355.403Z" fill="#4F48ED" stroke="#4F48ED" stroke-linecap="round" stroke-linejoin="round"/>
<path d="M134.264 294.535H232.8C233.356 294.529 233.907 294.645 234.415 294.875C234.922 295.105 235.372 295.442 235.735 295.865C236.098 296.287 236.364 296.783 236.515 297.319C236.666 297.855 236.698 298.417 236.608 298.967" stroke="white" stroke-linecap="round" stroke-linejoin="round"/>
<path d="M126.442 298.058C126.525 297.093 126.968 296.194 127.683 295.541C128.398 294.888 129.334 294.529 130.302 294.535" stroke="white" stroke-linecap="round" stroke-linejoin="round"/>
<path d="M234.444 349.787H128.658V355.403H234.444V349.787Z" fill="white" stroke="#4F48ED" stroke-linecap="round" stroke-linejoin="round"/>
<path d="M181.173 328.997C185.312 328.997 188.668 326.986 188.668 324.504C188.668 322.023 185.312 320.011 181.173 320.011C177.034 320.011 173.678 322.023 173.678 324.504C173.678 326.986 177.034 328.997 181.173 328.997Z" fill="white" stroke="#4F48ED" stroke-linecap="round" stroke-linejoin="round"/>
<path d="M394 354.739H0V364.306H394V354.739Z" fill="#4F48ED"/>
<path d="M102.293 0.5H291.839C297.953 0.5 302.908 5.45577 302.908 11.569V120.326C302.908 126.439 297.953 131.395 291.839 131.395H102.293C96.1801 131.395 91.2244 126.439 91.2244 120.326V11.569C91.2244 5.45577 96.1801 0.5 102.293 0.5Z" fill="#EDEDFD" stroke="#4F48ED"/>
<path d="M202.068 75.7961C219.262 73.0329 230.96 56.8546 228.197 39.6609C225.433 22.4671 209.255 10.7689 192.061 13.5321C174.868 16.2954 163.169 32.4737 165.933 49.6674C168.696 66.8611 184.874 78.5593 202.068 75.7961Z" fill="#4F48ED"/>
<path d="M196.827 50.4933L186.32 63.9819C185.962 64.5434 185.471 65.0073 184.89 65.3317C184.309 65.6561 183.656 65.8309 182.991 65.8403C182.078 65.8528 181.197 65.5041 180.54 64.8703C180.206 64.5639 179.942 64.1892 179.766 63.7716C179.59 63.354 179.505 62.9033 179.519 62.4503C179.552 61.4357 179.91 60.4585 180.54 59.6627L192.518 44.8466L181.286 30.0203C180.764 29.3245 180.477 28.4803 180.469 27.6105C180.466 27.0918 180.571 26.5781 180.776 26.1019C180.982 25.6256 181.284 25.1971 181.663 24.8433C182.02 24.4714 182.448 24.1755 182.921 23.9737C183.395 23.7718 183.905 23.6682 184.42 23.6691C185.08 23.6798 185.726 23.8554 186.301 24.18C186.875 24.5046 187.359 24.9679 187.708 25.5275L197.858 38.8936L208.069 25.7521C208.434 25.139 208.944 24.6254 209.555 24.2567C210.166 23.888 210.859 23.6757 211.571 23.6384C212.013 23.6373 212.451 23.7274 212.857 23.9031C213.263 24.0788 213.628 24.3363 213.93 24.6595C214.252 24.9625 214.508 25.328 214.684 25.7336C214.859 26.1391 214.95 26.5763 214.951 27.0183C214.94 27.8091 214.667 28.5741 214.175 29.1932L202.157 44.5709L213.767 59.8873C214.315 60.572 214.621 61.4198 214.634 62.2971C214.638 62.8044 214.531 63.3064 214.321 63.7683C214.111 64.2303 213.804 64.6411 213.419 64.9724C212.67 65.6928 211.671 66.0953 210.632 66.0956C209.969 66.0874 209.319 65.9129 208.741 65.5882C208.163 65.2636 207.675 64.799 207.323 64.2372L196.827 50.4933Z" fill="white"/>
<path d="M257.143 109.053H136.949C134.512 109.053 132.175 108.085 130.451 106.361C128.728 104.638 127.76 102.301 127.76 99.8632C127.76 97.4259 128.728 95.0884 130.451 93.365C132.175 91.6415 134.512 90.6733 136.949 90.6733H257.143C259.58 90.6733 261.917 91.6415 263.641 93.365C265.364 95.0884 266.332 97.4259 266.332 99.8632C266.332 102.301 265.364 104.638 263.641 106.361C261.917 108.085 259.58 109.053 257.143 109.053Z" fill="white"/>
<path d="M153.42 102.825C153.339 102.825 153.26 102.808 153.186 102.777C153.113 102.745 153.046 102.699 152.991 102.641C152.93 102.581 152.883 102.509 152.851 102.43C152.82 102.351 152.805 102.266 152.807 102.181C152.807 102.037 152.846 101.896 152.919 101.773L153.838 100.343H151.96C151.873 100.348 151.786 100.334 151.705 100.302C151.624 100.27 151.551 100.222 151.49 100.159C151.385 100.037 151.327 99.8815 151.327 99.7204C151.327 99.5593 151.385 99.4035 151.49 99.2813C151.551 99.2191 151.624 99.1705 151.705 99.1388C151.786 99.1072 151.873 99.0931 151.96 99.0975L153.808 99.1486L152.991 97.8212C152.909 97.6852 152.863 97.5305 152.858 97.3719C152.856 97.2868 152.871 97.2021 152.902 97.1231C152.934 97.0441 152.981 96.9724 153.042 96.9124C153.099 96.854 153.167 96.8077 153.243 96.7761C153.318 96.7445 153.399 96.7284 153.481 96.7286C153.595 96.7269 153.708 96.7589 153.804 96.8207C153.9 96.8824 153.976 96.9711 154.022 97.0758L154.921 98.6789L155.778 97.1472C155.832 97.0281 155.918 96.926 156.026 96.8522C156.134 96.7784 156.26 96.7356 156.391 96.7286C156.471 96.7286 156.551 96.7449 156.624 96.7765C156.698 96.8081 156.765 96.8543 156.82 96.9124C156.88 96.9685 156.927 97.0366 156.959 97.1123C156.99 97.1879 157.006 97.2694 157.004 97.3514C157.002 97.4964 156.96 97.6381 156.881 97.7599L155.983 99.1996L157.851 99.1486C157.938 99.1435 158.025 99.1572 158.106 99.189C158.187 99.2207 158.261 99.2696 158.321 99.3324C158.426 99.4546 158.484 99.6104 158.484 99.7715C158.484 99.9326 158.426 100.088 158.321 100.211C158.261 100.273 158.187 100.322 158.106 100.354C158.025 100.386 157.938 100.399 157.851 100.394H155.962L156.8 101.701C156.894 101.859 156.947 102.038 156.953 102.222C156.956 102.305 156.942 102.387 156.912 102.464C156.882 102.542 156.837 102.612 156.779 102.671C156.725 102.729 156.661 102.775 156.589 102.806C156.517 102.838 156.439 102.854 156.36 102.855C156.234 102.852 156.111 102.813 156.006 102.742C155.901 102.672 155.819 102.573 155.768 102.457L154.921 100.956L154.073 102.457C154.012 102.575 153.917 102.673 153.801 102.738C153.685 102.804 153.553 102.834 153.42 102.825Z" fill="#4F48ED"/>
<path d="M162.793 102.824C162.713 102.824 162.634 102.808 162.56 102.776C162.486 102.745 162.42 102.699 162.365 102.641C162.304 102.581 162.257 102.509 162.225 102.43C162.193 102.351 162.178 102.266 162.181 102.181C162.181 102.037 162.219 101.896 162.293 101.773L163.212 100.343H161.333C161.246 100.348 161.16 100.333 161.079 100.302C160.998 100.27 160.924 100.221 160.864 100.159C160.759 100.037 160.701 99.8813 160.701 99.7202C160.701 99.5591 160.759 99.4033 160.864 99.2811C160.924 99.2189 160.998 99.1703 161.079 99.1386C161.16 99.1069 161.246 99.0929 161.333 99.0973L163.181 99.1484L162.314 97.7699C162.232 97.6339 162.186 97.4792 162.181 97.3206C162.178 97.2355 162.193 97.1509 162.225 97.0718C162.257 96.9928 162.304 96.9211 162.365 96.8611C162.422 96.8027 162.49 96.7564 162.566 96.7248C162.641 96.6933 162.722 96.6771 162.804 96.6773C162.918 96.6756 163.03 96.7076 163.127 96.7694C163.223 96.8311 163.299 96.9199 163.345 97.0245L164.243 98.6276L165.101 97.096C165.155 96.9768 165.241 96.8747 165.349 96.8009C165.457 96.7271 165.583 96.6843 165.714 96.6773C165.794 96.6773 165.873 96.6936 165.947 96.7252C166.021 96.7568 166.087 96.803 166.143 96.8611C166.203 96.9172 166.25 96.9853 166.281 97.061C166.313 97.1367 166.328 97.2182 166.326 97.3002C166.325 97.4452 166.283 97.5868 166.204 97.7086L165.305 99.1484L167.174 99.0973C167.261 99.0922 167.348 99.106 167.429 99.1377C167.51 99.1694 167.583 99.2183 167.644 99.2811C167.749 99.4033 167.806 99.5591 167.806 99.7202C167.806 99.8813 167.749 100.037 167.644 100.159C167.583 100.222 167.51 100.271 167.429 100.303C167.348 100.334 167.261 100.348 167.174 100.343H165.285L166.122 101.65C166.217 101.808 166.269 101.987 166.275 102.171C166.278 102.254 166.264 102.336 166.235 102.413C166.205 102.49 166.16 102.561 166.102 102.62C166.048 102.677 165.983 102.723 165.911 102.755C165.839 102.786 165.762 102.803 165.683 102.804C165.556 102.802 165.433 102.763 165.328 102.693C165.223 102.622 165.14 102.522 165.091 102.406L164.243 100.905L163.396 102.406C163.346 102.525 163.262 102.628 163.156 102.703C163.049 102.777 162.923 102.819 162.793 102.824Z" fill="#4F48ED"/>
<path d="M172.167 102.824C172.087 102.824 172.007 102.808 171.934 102.776C171.86 102.745 171.793 102.699 171.738 102.641C171.678 102.581 171.63 102.509 171.599 102.43C171.567 102.351 171.552 102.266 171.554 102.181C171.554 102.037 171.593 101.896 171.667 101.773L172.586 100.343H170.707C170.62 100.348 170.533 100.333 170.452 100.302C170.371 100.27 170.298 100.221 170.237 100.159C170.132 100.037 170.074 99.8813 170.074 99.7202C170.074 99.5591 170.132 99.4033 170.237 99.2811C170.298 99.2189 170.371 99.1703 170.452 99.1386C170.533 99.1069 170.62 99.0929 170.707 99.0973L172.555 99.1484L171.687 97.7699C171.605 97.6339 171.559 97.4792 171.554 97.3206C171.552 97.2355 171.567 97.1509 171.599 97.0718C171.63 96.9928 171.678 96.9211 171.738 96.8611C171.795 96.8027 171.864 96.7564 171.939 96.7248C172.015 96.6933 172.095 96.6771 172.177 96.6773C172.292 96.6756 172.404 96.7076 172.5 96.7694C172.596 96.8311 172.672 96.9199 172.718 97.0245L173.617 98.6276L174.475 97.096C174.529 96.9768 174.614 96.8747 174.722 96.8009C174.83 96.7271 174.957 96.6843 175.087 96.6773C175.168 96.6773 175.247 96.6936 175.321 96.7252C175.394 96.7568 175.461 96.803 175.516 96.8611C175.576 96.9172 175.623 96.9853 175.655 97.061C175.687 97.1367 175.702 97.2182 175.7 97.3002C175.699 97.4452 175.656 97.5868 175.577 97.7086L174.679 99.1484L176.548 99.0973C176.634 99.0922 176.721 99.106 176.803 99.1377C176.884 99.1694 176.957 99.2183 177.017 99.2811C177.122 99.4033 177.18 99.5591 177.18 99.7202C177.18 99.8813 177.122 100.037 177.017 100.159C176.957 100.222 176.884 100.271 176.803 100.303C176.721 100.334 176.634 100.348 176.548 100.343H174.658L175.496 101.65C175.59 101.808 175.643 101.987 175.649 102.171C175.652 102.254 175.638 102.336 175.608 102.413C175.578 102.49 175.533 102.561 175.475 102.62C175.422 102.677 175.357 102.723 175.285 102.755C175.213 102.786 175.135 102.803 175.057 102.804C174.93 102.802 174.807 102.763 174.701 102.693C174.596 102.622 174.514 102.522 174.464 102.406L173.617 100.905L172.769 102.406C172.719 102.525 172.636 102.628 172.529 102.703C172.422 102.777 172.297 102.819 172.167 102.824Z" fill="#4F48ED"/>
<path d="M181.582 102.824C181.501 102.824 181.422 102.808 181.348 102.776C181.275 102.745 181.208 102.699 181.153 102.641C181.092 102.581 181.045 102.509 181.013 102.43C180.982 102.351 180.966 102.266 180.969 102.181C180.969 102.037 181.008 101.896 181.081 101.773L182 100.343H180.121C180.035 100.348 179.948 100.333 179.867 100.302C179.786 100.27 179.712 100.221 179.652 100.159C179.547 100.037 179.489 99.8813 179.489 99.7202C179.489 99.5591 179.547 99.4033 179.652 99.2811C179.712 99.2189 179.786 99.1703 179.867 99.1386C179.948 99.1069 180.035 99.0929 180.121 99.0973L181.97 99.1484L181.102 97.7699C181.02 97.6339 180.974 97.4792 180.969 97.3206C180.966 97.2355 180.982 97.1509 181.013 97.0718C181.045 96.9928 181.092 96.9211 181.153 96.8611C181.21 96.8027 181.278 96.7564 181.354 96.7248C181.429 96.6933 181.51 96.6771 181.592 96.6773C181.706 96.6756 181.818 96.7076 181.915 96.7694C182.011 96.8311 182.087 96.9199 182.133 97.0245L183.032 98.6276L183.889 97.096C183.943 96.9768 184.029 96.8747 184.137 96.8009C184.245 96.7271 184.371 96.6843 184.502 96.6773C184.582 96.6773 184.661 96.6936 184.735 96.7252C184.809 96.7568 184.875 96.803 184.931 96.8611C184.991 96.9172 185.038 96.9853 185.07 97.061C185.101 97.1367 185.117 97.2182 185.115 97.3002C185.113 97.4452 185.071 97.5868 184.992 97.7086L184.093 99.1484L185.962 99.0973C186.049 99.0922 186.136 99.106 186.217 99.1377C186.298 99.1694 186.371 99.2183 186.432 99.2811C186.537 99.4033 186.594 99.5591 186.594 99.7202C186.594 99.8813 186.537 100.037 186.432 100.159C186.371 100.222 186.298 100.271 186.217 100.303C186.136 100.334 186.049 100.348 185.962 100.343H184.073L184.91 101.65C185.005 101.808 185.057 101.987 185.063 102.171C185.066 102.254 185.053 102.336 185.023 102.413C184.993 102.49 184.948 102.561 184.89 102.62C184.836 102.677 184.771 102.723 184.699 102.755C184.627 102.786 184.55 102.803 184.471 102.804C184.345 102.801 184.222 102.762 184.117 102.691C184.012 102.621 183.93 102.522 183.879 102.406L183.032 100.905L182.184 102.406C182.134 102.525 182.05 102.628 181.944 102.703C181.837 102.777 181.711 102.819 181.582 102.824Z" fill="#4F48ED"/>
<path d="M190.914 102.824C190.834 102.824 190.755 102.808 190.681 102.776C190.607 102.745 190.541 102.699 190.485 102.641C190.425 102.581 190.378 102.509 190.346 102.43C190.314 102.351 190.299 102.266 190.302 102.181C190.306 102.038 190.345 101.898 190.414 101.773L191.333 100.343H189.454C189.367 100.348 189.28 100.333 189.199 100.302C189.119 100.27 189.045 100.221 188.984 100.159C188.879 100.037 188.822 99.8813 188.822 99.7202C188.822 99.5591 188.879 99.4033 188.984 99.2811C189.045 99.2189 189.119 99.1703 189.199 99.1386C189.28 99.107 189.367 99.0929 189.454 99.0973L191.302 99.1484L190.434 97.7699C190.352 97.6339 190.307 97.4792 190.302 97.3206C190.299 97.2355 190.314 97.1509 190.346 97.0718C190.378 96.9928 190.425 96.9211 190.485 96.8611C190.543 96.8027 190.611 96.7564 190.686 96.7248C190.762 96.6933 190.843 96.6771 190.925 96.6773C191.039 96.6756 191.151 96.7077 191.247 96.7694C191.344 96.8311 191.42 96.9199 191.466 97.0245L192.364 98.6276L193.222 97.096C193.276 96.9768 193.362 96.8747 193.47 96.8009C193.578 96.7271 193.704 96.6843 193.835 96.6773C193.915 96.6761 193.995 96.6918 194.069 96.7235C194.143 96.7552 194.209 96.8021 194.264 96.8611C194.323 96.9172 194.371 96.9853 194.402 97.061C194.434 97.1367 194.449 97.2182 194.447 97.3002C194.446 97.4452 194.403 97.5868 194.325 97.7086L193.426 99.1484L195.295 99.0973C195.382 99.0922 195.469 99.106 195.55 99.1377C195.631 99.1694 195.704 99.2184 195.765 99.2811C195.869 99.4033 195.927 99.5591 195.927 99.7202C195.927 99.8813 195.869 100.037 195.765 100.159C195.704 100.222 195.631 100.271 195.55 100.303C195.469 100.334 195.382 100.348 195.295 100.343H193.406L194.243 101.65C194.338 101.808 194.39 101.987 194.396 102.171C194.399 102.254 194.385 102.336 194.355 102.413C194.326 102.49 194.28 102.561 194.223 102.62C194.169 102.677 194.104 102.723 194.032 102.755C193.96 102.786 193.883 102.803 193.804 102.804C193.678 102.801 193.555 102.762 193.45 102.691C193.345 102.621 193.262 102.522 193.212 102.406L192.364 100.905L191.517 102.406C191.466 102.525 191.383 102.628 191.276 102.703C191.17 102.777 191.044 102.819 190.914 102.824Z" fill="#4F48ED"/>
<path d="M200.288 102.824C200.208 102.824 200.128 102.808 200.055 102.776C199.981 102.745 199.914 102.699 199.859 102.641C199.799 102.581 199.751 102.509 199.72 102.43C199.688 102.351 199.673 102.266 199.675 102.181C199.68 102.038 199.719 101.898 199.788 101.773L200.707 100.343H198.838C198.75 100.348 198.661 100.335 198.578 100.303C198.495 100.271 198.42 100.222 198.358 100.159C198.253 100.037 198.195 99.8813 198.195 99.7202C198.195 99.5591 198.253 99.4033 198.358 99.2811C198.42 99.2181 198.495 99.1691 198.578 99.1374C198.661 99.1057 198.75 99.0921 198.838 99.0973L200.676 99.1484L199.808 97.7699C199.726 97.6339 199.68 97.4792 199.675 97.3206C199.673 97.2355 199.688 97.1509 199.72 97.0718C199.751 96.9928 199.799 96.9211 199.859 96.8611C199.916 96.8027 199.985 96.7564 200.06 96.7248C200.135 96.6933 200.216 96.6771 200.298 96.6773C200.413 96.6756 200.525 96.7077 200.621 96.7694C200.717 96.8311 200.793 96.9199 200.839 97.0245L201.738 98.6276L202.596 97.096C202.65 96.9768 202.735 96.8747 202.843 96.8009C202.951 96.7271 203.078 96.6843 203.208 96.6773C203.289 96.6761 203.368 96.6918 203.442 96.7235C203.516 96.7552 203.583 96.8021 203.637 96.8611C203.697 96.9172 203.744 96.9853 203.776 97.061C203.808 97.1367 203.823 97.2182 203.821 97.3002C203.82 97.4452 203.777 97.5868 203.698 97.7086L202.8 99.1484L204.668 99.0973C204.755 99.0922 204.842 99.106 204.923 99.1377C205.005 99.1694 205.078 99.2184 205.138 99.2811C205.243 99.4033 205.301 99.5591 205.301 99.7202C205.301 99.8813 205.243 100.037 205.138 100.159C205.078 100.222 205.005 100.271 204.923 100.303C204.842 100.334 204.755 100.348 204.668 100.343H202.779L203.617 101.65C203.711 101.808 203.764 101.987 203.77 102.171C203.773 102.254 203.759 102.336 203.729 102.413C203.699 102.49 203.654 102.561 203.596 102.62C203.543 102.677 203.478 102.723 203.406 102.755C203.334 102.786 203.256 102.803 203.178 102.804C203.051 102.801 202.928 102.762 202.823 102.691C202.719 102.621 202.636 102.522 202.585 102.406L201.738 100.905L200.89 102.406C200.84 102.525 200.757 102.628 200.65 102.703C200.543 102.777 200.418 102.819 200.288 102.824Z" fill="#4F48ED"/>
<path d="M209.662 102.825C209.582 102.825 209.502 102.808 209.428 102.777C209.355 102.745 209.288 102.699 209.233 102.641C209.172 102.581 209.125 102.509 209.093 102.43C209.062 102.351 209.047 102.266 209.049 102.181C209.049 102.037 209.088 101.896 209.161 101.773L210.08 100.343H208.202C208.115 100.348 208.028 100.334 207.947 100.302C207.866 100.27 207.793 100.222 207.732 100.159C207.627 100.037 207.569 99.8815 207.569 99.7204C207.569 99.5593 207.627 99.4035 207.732 99.2813C207.793 99.2191 207.866 99.1705 207.947 99.1389C208.028 99.1072 208.115 99.0931 208.202 99.0975L210.05 99.1486L209.151 97.8212C209.069 97.6852 209.024 97.5305 209.018 97.3719C209.016 97.2868 209.031 97.2021 209.063 97.1231C209.094 97.0441 209.142 96.9724 209.202 96.9124C209.259 96.854 209.328 96.8077 209.403 96.7761C209.479 96.7445 209.56 96.7284 209.641 96.7286C209.756 96.7269 209.868 96.7589 209.964 96.8207C210.06 96.8824 210.136 96.9711 210.182 97.0758L211.081 98.6789L211.939 97.1472C211.993 97.0281 212.078 96.926 212.187 96.8522C212.295 96.7784 212.421 96.7356 212.551 96.7286C212.632 96.7273 212.712 96.7431 212.785 96.7747C212.859 96.8064 212.926 96.8533 212.98 96.9124C213.04 96.9685 213.087 97.0366 213.119 97.1123C213.151 97.1879 213.166 97.2694 213.164 97.3515C213.163 97.4965 213.12 97.6381 213.042 97.7599L212.143 99.1996L214.012 99.1486C214.099 99.1435 214.186 99.1572 214.267 99.189C214.348 99.2207 214.421 99.2696 214.481 99.3324C214.586 99.4546 214.644 99.6104 214.644 99.7715C214.644 99.9326 214.586 100.088 214.481 100.211C214.421 100.273 214.348 100.322 214.267 100.354C214.186 100.386 214.099 100.399 214.012 100.394H212.123L212.96 101.701C213.054 101.859 213.107 102.038 213.113 102.222C213.116 102.305 213.102 102.387 213.072 102.465C213.042 102.542 212.997 102.612 212.939 102.671C212.886 102.729 212.821 102.775 212.749 102.806C212.677 102.838 212.599 102.854 212.521 102.855C212.394 102.852 212.272 102.813 212.167 102.742C212.062 102.672 211.979 102.573 211.929 102.457L211.081 100.956L210.234 102.457C210.179 102.563 210.097 102.652 209.997 102.717C209.896 102.781 209.781 102.818 209.662 102.825Z" fill="#4F48ED"/>
<path d="M219.035 102.824C218.955 102.824 218.876 102.808 218.802 102.776C218.728 102.745 218.662 102.699 218.606 102.64C218.546 102.581 218.499 102.509 218.467 102.43C218.435 102.351 218.42 102.266 218.423 102.181C218.427 102.038 218.466 101.898 218.535 101.773L219.454 100.343H217.585C217.498 100.35 217.411 100.336 217.33 100.305C217.248 100.273 217.175 100.223 217.116 100.159C217.004 100.04 216.943 99.8832 216.943 99.7202C216.943 99.5572 217.004 99.4002 217.116 99.2811C217.175 99.2172 217.248 99.1675 217.33 99.1357C217.411 99.1039 217.498 99.0907 217.585 99.0973L219.423 99.1483L218.555 97.7699C218.473 97.6339 218.428 97.4792 218.423 97.3206C218.42 97.2371 218.434 97.1539 218.464 97.0759C218.494 96.998 218.54 96.9269 218.598 96.8669C218.656 96.8069 218.725 96.7592 218.802 96.7266C218.879 96.694 218.962 96.6772 219.046 96.6773C219.16 96.6756 219.272 96.7076 219.368 96.7694C219.465 96.8311 219.541 96.9198 219.587 97.0245L220.485 98.6276L221.343 97.0959C221.397 96.9768 221.483 96.8747 221.591 96.8009C221.699 96.7271 221.825 96.6843 221.956 96.6773C222.036 96.6747 222.116 96.6898 222.19 96.7216C222.265 96.7534 222.331 96.801 222.384 96.8611C222.444 96.9172 222.492 96.9853 222.523 97.061C222.555 97.1366 222.57 97.2181 222.568 97.3002C222.567 97.4452 222.524 97.5868 222.446 97.7086L221.547 99.1483L223.416 99.0973C223.503 99.0922 223.59 99.1059 223.671 99.1377C223.752 99.1694 223.825 99.2183 223.886 99.2811C223.99 99.4033 224.048 99.5591 224.048 99.7202C224.048 99.8813 223.99 100.037 223.886 100.159C223.825 100.222 223.752 100.271 223.671 100.303C223.59 100.334 223.503 100.348 223.416 100.343H221.527L222.364 101.65C222.459 101.808 222.511 101.987 222.517 102.171C222.52 102.251 222.507 102.331 222.479 102.407C222.45 102.482 222.407 102.551 222.352 102.61C222.297 102.669 222.231 102.716 222.158 102.749C222.085 102.783 222.005 102.801 221.925 102.804C221.799 102.801 221.676 102.762 221.571 102.691C221.466 102.621 221.383 102.522 221.333 102.406L220.485 100.905L219.638 102.406C219.587 102.525 219.504 102.628 219.397 102.703C219.291 102.777 219.165 102.819 219.035 102.824Z" fill="#4F48ED"/>
<path d="M228.409 102.824C228.329 102.824 228.25 102.808 228.176 102.776C228.102 102.745 228.036 102.699 227.98 102.64C227.92 102.581 227.872 102.509 227.841 102.43C227.809 102.351 227.794 102.266 227.796 102.181C227.801 102.038 227.84 101.898 227.909 101.773L228.828 100.343H226.949C226.864 100.348 226.778 100.334 226.699 100.302C226.619 100.271 226.548 100.222 226.489 100.159C226.378 100.04 226.316 99.8832 226.316 99.7202C226.316 99.5572 226.378 99.4002 226.489 99.2811C226.548 99.2186 226.619 99.1697 226.699 99.1379C226.778 99.1061 226.864 99.0923 226.949 99.0973L228.797 99.1483L227.929 97.7699C227.847 97.6339 227.802 97.4792 227.796 97.3206C227.794 97.2371 227.808 97.1539 227.838 97.0759C227.868 96.998 227.913 96.9269 227.971 96.8669C228.03 96.8069 228.099 96.7592 228.176 96.7266C228.253 96.694 228.336 96.6772 228.419 96.6773C228.534 96.6756 228.646 96.7076 228.742 96.7694C228.838 96.8311 228.914 96.9198 228.96 97.0245L229.859 98.6276L230.717 97.0959C230.771 96.9768 230.857 96.8747 230.965 96.8009C231.073 96.7271 231.199 96.6843 231.329 96.6773C231.41 96.6747 231.49 96.6898 231.564 96.7216C231.638 96.7534 231.705 96.801 231.758 96.8611C231.818 96.9172 231.865 96.9853 231.897 97.061C231.929 97.1366 231.944 97.2181 231.942 97.3002C231.941 97.4452 231.898 97.5868 231.82 97.7086L230.921 99.1483L232.79 99.0973C232.877 99.0922 232.964 99.1059 233.045 99.1377C233.126 99.1694 233.199 99.2183 233.259 99.2811C233.364 99.4033 233.422 99.5591 233.422 99.7202C233.422 99.8813 233.364 100.037 233.259 100.159C233.199 100.222 233.126 100.271 233.045 100.303C232.964 100.334 232.877 100.348 232.79 100.343H230.901L231.738 101.65C231.832 101.808 231.885 101.987 231.891 102.171C231.894 102.251 231.881 102.331 231.852 102.407C231.824 102.482 231.781 102.551 231.726 102.61C231.671 102.669 231.605 102.716 231.532 102.749C231.458 102.783 231.379 102.801 231.299 102.804C231.172 102.801 231.05 102.762 230.945 102.691C230.84 102.621 230.757 102.522 230.707 102.406L229.859 100.905L229.012 102.406C228.961 102.525 228.878 102.628 228.771 102.703C228.664 102.777 228.539 102.819 228.409 102.824Z" fill="#4F48ED"/>
<path d="M237.742 102.824C237.662 102.824 237.582 102.808 237.508 102.776C237.435 102.745 237.368 102.699 237.313 102.64C237.252 102.581 237.205 102.509 237.173 102.43C237.142 102.351 237.127 102.266 237.129 102.181C237.134 102.038 237.172 101.898 237.241 101.773L238.16 100.343H236.282C236.196 100.348 236.111 100.334 236.031 100.302C235.952 100.271 235.88 100.222 235.822 100.159C235.711 100.04 235.649 99.8832 235.649 99.7202C235.649 99.5572 235.711 99.4002 235.822 99.2811C235.88 99.2186 235.952 99.1697 236.031 99.1379C236.111 99.1061 236.196 99.0923 236.282 99.0973L238.13 99.1483L237.262 97.7699C237.18 97.6339 237.134 97.4792 237.129 97.3206C237.127 97.2355 237.142 97.1508 237.173 97.0718C237.205 96.9928 237.252 96.9211 237.313 96.8611C237.37 96.8027 237.438 96.7564 237.514 96.7248C237.589 96.6932 237.67 96.6771 237.752 96.6773C237.866 96.6756 237.979 96.7076 238.075 96.7694C238.171 96.8311 238.247 96.9198 238.293 97.0245L239.192 98.6276L240.049 97.0959C240.103 96.9768 240.189 96.8747 240.297 96.8009C240.405 96.7271 240.531 96.6843 240.662 96.6773C240.743 96.6747 240.823 96.6898 240.897 96.7216C240.971 96.7534 241.037 96.801 241.091 96.8611C241.151 96.9172 241.198 96.9853 241.23 97.061C241.261 97.1366 241.277 97.2181 241.275 97.3002C241.273 97.4452 241.231 97.5868 241.152 97.7086L240.254 99.1483L242.122 99.0973C242.209 99.0922 242.296 99.1059 242.377 99.1377C242.458 99.1694 242.532 99.2183 242.592 99.2811C242.697 99.4033 242.755 99.5591 242.755 99.7202C242.755 99.8813 242.697 100.037 242.592 100.159C242.532 100.222 242.458 100.271 242.377 100.303C242.296 100.334 242.209 100.348 242.122 100.343H240.233L241.071 101.65C241.165 101.808 241.218 101.987 241.224 102.171C241.227 102.254 241.213 102.336 241.183 102.413C241.153 102.49 241.108 102.561 241.05 102.62C240.996 102.677 240.931 102.723 240.86 102.755C240.788 102.786 240.71 102.803 240.631 102.804C240.505 102.801 240.382 102.762 240.277 102.691C240.172 102.621 240.09 102.522 240.039 102.406L239.192 100.905L238.344 102.406C238.294 102.525 238.211 102.628 238.104 102.703C237.997 102.777 237.872 102.819 237.742 102.824Z" fill="#4F48ED"/>
<path d="M269.865 125.411H282.353" stroke="white" stroke-width="3" stroke-linecap="round" stroke-linejoin="round"/>
<path d="M96.657 33.4614V116.405C96.657 118.807 97.6112 121.111 99.3097 122.809C101.008 124.508 103.312 125.462 105.714 125.462H258.011" stroke="white" stroke-width="3" stroke-linecap="round" stroke-linejoin="round"/>
<path d="M96.657 11.467V23.904" stroke="white" stroke-width="3" stroke-linecap="round" stroke-linejoin="round"/>
</svg>
